M48
;DRILL file {Pcbnew (2013-07-07 BZR 4022)-stable} date 2/23/2014 9:12:10 AM
;FORMAT={-:-/ absolute / inch / decimal}
FMAT,2
INCH,TZ
T1C0.020
T2C0.032
T3C0.035
T4C0.040
T5C0.041
T6C0.044
T7C0.045
T8C0.059
T9C0.063
T10C0.090
T11C0.120
T12C0.120
%
G90
G05
M72
T1
X3.5533Y-3.6174
X3.6056Y-3.6586
X3.6445Y-3.7032
X3.6995Y-3.7338
X3.7282Y-3.9106
X3.7297Y-5.1762
X4.6769Y-4.3765
X5.1177Y-4.3706
X5.1801Y-3.9748
X5.2285Y-4.2285
X5.4898Y-4.8714
X6.6285Y-2.8663
X6.6339Y-2.2568
X6.7127Y-5.1501
X6.7975Y-2.7179
X7.0588Y-2.6913
X7.1395Y-3.1799
T2
X2.2Y-5.7
X2.3Y-5.7
X2.7Y-3.75
X2.7Y-3.95
X2.95Y-2.75
X2.95Y-2.85
X2.95Y-2.95
X3.15Y-2.7
X3.15Y-3.
X3.15Y-3.15
X3.15Y-3.35
X3.25Y-2.7
X3.25Y-3.
X3.25Y-3.15
X3.25Y-3.35
X3.35Y-2.7
X3.35Y-3.
X3.35Y-3.15
X3.35Y-3.35
X3.45Y-2.7
X3.45Y-3.
X3.55Y-2.7
X3.55Y-3.
X3.6Y-5.6
X3.65Y-2.7
X3.65Y-3.
X3.65Y-3.15
X3.65Y-3.35
X3.65Y-3.9
X3.65Y-4.
X3.65Y-4.1
X3.65Y-4.2
X3.65Y-4.3
X3.65Y-4.4
X3.65Y-4.5
X3.65Y-4.6
X3.65Y-4.7
X3.65Y-4.8
X3.65Y-5.25
X3.65Y-5.35
X3.7Y-5.6
X3.75Y-2.7
X3.75Y-3.
X3.75Y-3.15
X3.75Y-3.35
X3.85Y-2.7
X3.85Y-3.
X3.85Y-3.15
X3.85Y-3.35
X3.85Y-3.8
X3.85Y-3.9
X3.85Y-4.
X3.85Y-4.1
X3.85Y-4.2
X3.85Y-4.3
X3.85Y-4.4
X3.85Y-4.5
X3.85Y-4.6
X3.85Y-4.7
X3.85Y-4.8
X4.15Y-3.8
X4.15Y-3.9
X4.15Y-4.
X4.15Y-4.1
X4.15Y-4.2
X4.15Y-4.3
X4.15Y-4.4
X4.15Y-4.5
X4.15Y-4.6
X4.15Y-4.7
X4.15Y-4.8
X4.25Y-4.
X4.25Y-4.1
X4.25Y-4.2
X4.25Y-4.3
X4.25Y-4.4
X4.25Y-4.5
X4.25Y-4.6
X4.25Y-4.7
X4.25Y-4.8
X4.3Y-3.35
X4.3Y-3.55
X4.55Y-3.4
X4.55Y-3.5
X4.55Y-4.
X4.55Y-4.1
X4.55Y-4.2
X4.55Y-4.3
X4.55Y-4.4
X4.55Y-4.5
X4.55Y-4.6
X4.55Y-4.7
X4.55Y-4.8
X4.55Y-5.45
X4.6Y-5.15
X4.7Y-3.8
X4.7Y-4.
X4.7Y-5.15
X4.75Y-5.45
X4.8Y-2.9
X4.8Y-3.
X4.8Y-3.1
X4.8Y-3.2
X4.8Y-3.3
X4.8Y-3.4
X4.8Y-3.5
X4.8Y-3.6
X4.8Y-3.7
X4.8Y-3.8
X4.8Y-3.9
X4.8Y-4.
X4.8Y-4.1
X4.8Y-4.2
X4.8Y-4.3
X4.8Y-4.4
X4.8Y-4.5
X4.8Y-4.6
X4.8Y-4.7
X4.8Y-4.8
X4.972Y-5.3
X5.228Y-5.3
X5.4Y-2.9
X5.4Y-3.
X5.4Y-3.1
X5.4Y-3.2
X5.4Y-3.3
X5.4Y-3.4
X5.4Y-3.5
X5.4Y-3.6
X5.4Y-3.7
X5.4Y-3.8
X5.4Y-3.9
X5.4Y-4.
X5.4Y-4.1
X5.4Y-4.2
X5.4Y-4.3
X5.4Y-4.4
X5.4Y-4.5
X5.4Y-4.6
X5.4Y-4.7
X5.4Y-4.8
X5.5Y-3.7
X5.5Y-3.9
X5.525Y-4.475
X5.55Y-2.9
X5.55Y-3.
X5.55Y-3.1
X5.55Y-3.2
X5.6Y-2.8
X5.65Y-3.55
X5.65Y-5.3
X5.6539Y-4.1
X5.75Y-3.55
X5.75Y-3.75
X5.75Y-3.85
X5.75Y-5.3
X5.8Y-2.8
X5.8461Y-4.1
X5.85Y-2.9
X5.85Y-3.
X5.85Y-3.1
X5.85Y-3.2
X5.9Y-5.15
X5.9Y-5.45
X5.925Y-3.5
X5.925Y-3.8
X5.975Y-4.475
X6.05Y-2.65
X6.05Y-2.75
X6.05Y-2.85
X6.05Y-2.95
X6.05Y-3.05
X6.05Y-3.15
X6.05Y-3.25
X6.05Y-3.6
X6.05Y-3.7
X6.05Y-3.8
X6.05Y-3.9
X6.05Y-4.
X6.05Y-4.1
X6.05Y-4.2
X6.05Y-5.3
X6.15Y-5.3
X6.2Y-4.55
X6.2Y-4.75
X6.3Y-5.15
X6.3Y-5.45
X6.35Y-2.65
X6.35Y-2.75
X6.35Y-2.85
X6.35Y-2.95
X6.35Y-3.05
X6.35Y-3.15
X6.35Y-3.25
X6.35Y-3.6
X6.35Y-3.7
X6.35Y-3.8
X6.35Y-3.9
X6.35Y-4.
X6.35Y-4.1
X6.35Y-4.2
X6.5Y-4.55
X6.5Y-4.75
X6.55Y-2.55
X6.55Y-2.75
X6.55Y-3.05
X6.55Y-3.25
X6.55Y-3.55
X6.55Y-3.75
X6.55Y-4.05
X6.55Y-4.25
X6.7Y-2.5
X6.7Y-2.8
X6.7Y-3.
X6.7Y-3.3
X6.7Y-3.5
X6.7Y-3.8
X6.7Y-4.
X6.7Y-4.3
X6.8Y-2.5
X6.8Y-2.8
X6.8Y-3.
X6.8Y-3.3
X6.8Y-3.5
X6.8Y-3.8
X6.8Y-4.
X6.8Y-4.3
X6.85Y-4.55
X6.85Y-4.75
X6.85Y-5.05
X6.85Y-5.25
X6.85Y-5.55
X6.85Y-5.75
X6.9Y-2.5
X6.9Y-2.8
X6.9Y-3.
X6.9Y-3.3
X6.9Y-3.5
X6.9Y-3.8
X6.9Y-4.
X6.9Y-4.3
X7.Y-2.5
X7.Y-2.8
X7.Y-3.
X7.Y-3.3
X7.Y-3.5
X7.Y-3.8
X7.Y-4.
X7.Y-4.3
X7.Y-4.5
X7.Y-4.8
X7.Y-5.
X7.Y-5.3
X7.Y-5.5
X7.Y-5.8
X7.1Y-2.5
X7.1Y-2.8
X7.1Y-3.
X7.1Y-3.3
X7.1Y-3.5
X7.1Y-3.8
X7.1Y-4.
X7.1Y-4.3
X7.1Y-4.5
X7.1Y-4.8
X7.1Y-5.
X7.1Y-5.3
X7.1Y-5.5
X7.1Y-5.8
X7.2Y-2.5
X7.2Y-2.8
X7.2Y-3.
X7.2Y-3.3
X7.2Y-3.5
X7.2Y-3.8
X7.2Y-4.
X7.2Y-4.3
X7.2Y-4.5
X7.2Y-4.8
X7.2Y-5.
X7.2Y-5.3
X7.2Y-5.5
X7.2Y-5.8
X7.3Y-2.5
X7.3Y-2.8
X7.3Y-3.
X7.3Y-3.3
X7.3Y-3.5
X7.3Y-3.8
X7.3Y-4.
X7.3Y-4.3
X7.3Y-4.5
X7.3Y-4.8
X7.3Y-5.
X7.3Y-5.3
X7.3Y-5.5
X7.3Y-5.8
X7.4Y-2.5
X7.4Y-2.8
X7.4Y-3.
X7.4Y-3.3
X7.4Y-3.5
X7.4Y-3.8
X7.4Y-4.
X7.4Y-4.3
X7.4Y-4.5
X7.4Y-4.8
X7.4Y-5.
X7.4Y-5.3
X7.4Y-5.5
X7.4Y-5.8
X7.5Y-2.5
X7.5Y-2.8
X7.5Y-3.
X7.5Y-3.3
X7.5Y-3.5
X7.5Y-3.8
X7.5Y-4.
X7.5Y-4.3
X7.5Y-4.5
X7.5Y-4.8
X7.5Y-5.
X7.5Y-5.3
X7.5Y-5.5
X7.5Y-5.8
X7.55Y-2.3
X7.6Y-2.5
X7.6Y-2.8
X7.6Y-3.
X7.6Y-3.3
X7.6Y-3.5
X7.6Y-3.8
X7.6Y-4.
X7.6Y-4.3
X7.6Y-4.5
X7.6Y-4.8
X7.6Y-5.
X7.6Y-5.3
X7.6Y-5.5
X7.6Y-5.8
X7.65Y-2.3
X7.9Y-2.45
X7.9Y-2.55
X7.9Y-2.65
X7.9Y-2.75
X7.9Y-2.85
X7.9Y-2.95
X7.9Y-3.05
X7.9Y-3.15
X7.9Y-3.25
X7.9Y-3.35
X7.9Y-3.45
X7.9Y-3.55
X7.9Y-3.65
X7.9Y-3.75
X7.9Y-3.85
X7.9Y-3.95
X7.9Y-4.05
X7.9Y-4.15
X7.9Y-4.25
X7.9Y-4.35
X7.9Y-4.45
X7.9Y-4.55
X7.9Y-4.65
X7.9Y-4.75
X7.9Y-4.85
X7.9Y-4.95
X7.9Y-5.05
X7.9Y-5.15
X7.9Y-5.25
X7.9Y-5.35
X7.9Y-5.45
X7.9Y-5.55
X8.Y-2.45
X8.Y-2.55
X8.Y-2.65
X8.Y-2.75
X8.Y-2.85
X8.Y-2.95
X8.Y-3.05
X8.Y-3.15
X8.Y-3.25
X8.Y-3.35
X8.Y-3.45
X8.Y-3.55
X8.Y-3.65
X8.Y-3.75
X8.Y-3.85
X8.Y-3.95
X8.Y-4.05
X8.Y-4.15
X8.Y-4.25
X8.Y-4.35
X8.Y-4.45
X8.Y-4.55
X8.Y-4.65
X8.Y-4.75
X8.Y-4.85
X8.Y-4.95
X8.Y-5.05
X8.Y-5.15
X8.Y-5.25
X8.Y-5.35
X8.Y-5.45
X8.Y-5.55
X8.1Y-2.45
X8.1Y-2.55
X8.1Y-2.65
X8.1Y-2.75
X8.1Y-2.85
X8.1Y-2.95
X8.1Y-3.05
X8.1Y-3.15
X8.1Y-3.25
X8.1Y-3.35
X8.1Y-3.45
X8.1Y-3.55
X8.1Y-3.65
X8.1Y-3.75
X8.1Y-3.85
X8.1Y-3.95
X8.1Y-4.05
X8.1Y-4.15
X8.1Y-4.25
X8.1Y-4.35
X8.1Y-4.45
X8.1Y-4.55
X8.1Y-4.65
X8.1Y-4.75
X8.1Y-4.85
X8.1Y-4.95
X8.1Y-5.05
X8.1Y-5.15
X8.1Y-5.25
X8.1Y-5.35
X8.1Y-5.45
X8.1Y-5.55
T3
X2.335Y-3.7181
X2.335Y-3.7988
X2.335Y-3.9012
X2.335Y-3.9819
X2.4331Y-3.7181
X2.4331Y-3.9819
T4
X3.2Y-2.3
X3.2Y-2.4
X3.3Y-2.3
X3.3Y-2.4
X3.4Y-2.3
X3.4Y-2.4
X3.5Y-2.3
X3.5Y-2.4
X3.6Y-2.3
X3.6Y-2.4
X4.95Y-2.55
X5.05Y-2.55
X5.15Y-2.55
X5.25Y-2.55
X5.6Y-2.2
X5.6Y-2.45
X5.7Y-2.2
X5.7Y-2.45
X5.8Y-2.2
X5.8Y-2.45
X6.725Y-2.2
X6.725Y-2.3
X6.825Y-2.2
X6.825Y-2.3
X6.925Y-2.2
X6.925Y-2.3
X7.025Y-2.2
X7.025Y-2.3
X7.125Y-2.2
X7.125Y-2.3
X7.225Y-2.2
X7.225Y-2.3
T5
X2.35Y-2.6098
X2.35Y-2.7
X2.35Y-2.7902
X2.35Y-2.8807
X2.35Y-2.9709
X2.45Y-2.6549
X2.45Y-2.7451
X2.45Y-2.8352
X2.45Y-2.9254
X2.45Y-3.0156
X2.55Y-2.6098
X2.55Y-2.7
X2.55Y-2.7902
X2.55Y-2.8807
X2.55Y-2.9709
T6
X3.035Y-4.4474
T7
X4.3Y-3.15
X4.4Y-3.15
X4.5Y-3.15
T8
X2.1885Y-4.4238
X2.1885Y-5.3766
T9
X3.035Y-5.2742
T10
X2.185Y-3.85
X2.2169Y-3.5839
X2.2169Y-4.1161
T11
X4.4Y-2.5
X8.2Y-2.25
X8.2Y-5.75
T12
X2.45Y-2.3081
X2.45Y-3.2919
T4
X4.07Y-5.21G85X4.13Y-5.21
G05
X4.07Y-5.45G85X4.13Y-5.45
G05
X4.3Y-5.39G85X4.3Y-5.33
G05
T0
M30
