G04 (created by PCBNEW (2013-dec-23)-stable) date dom 04 gen 2015 17:22:54 CET*
%MOIN*%
G04 Gerber Fmt 3.4, Leading zero omitted, Abs format*
%FSLAX34Y34*%
G01*
G70*
G90*
G04 APERTURE LIST*
%ADD10C,0.00590551*%
%ADD11C,0.0026*%
%ADD12C,0.006*%
%ADD13C,0.01*%
%ADD14C,0.015*%
%ADD15C,0.012*%
%ADD16C,0.008*%
%ADD17C,0.0035*%
%ADD18C,0.01125*%
G04 APERTURE END LIST*
G54D10*
G54D11*
X19872Y-38037D02*
X19872Y-38237D01*
X19872Y-38237D02*
X20072Y-38237D01*
X20072Y-38037D02*
X20072Y-38237D01*
X19872Y-38037D02*
X20072Y-38037D01*
X20872Y-38037D02*
X20872Y-38237D01*
X20872Y-38237D02*
X21072Y-38237D01*
X21072Y-38037D02*
X21072Y-38237D01*
X20872Y-38037D02*
X21072Y-38037D01*
X20872Y-39037D02*
X20872Y-39237D01*
X20872Y-39237D02*
X21072Y-39237D01*
X21072Y-39037D02*
X21072Y-39237D01*
X20872Y-39037D02*
X21072Y-39037D01*
X19872Y-39037D02*
X19872Y-39237D01*
X19872Y-39237D02*
X20072Y-39237D01*
X20072Y-39037D02*
X20072Y-39237D01*
X19872Y-39037D02*
X20072Y-39037D01*
X20872Y-40037D02*
X20872Y-40237D01*
X20872Y-40237D02*
X21072Y-40237D01*
X21072Y-40037D02*
X21072Y-40237D01*
X20872Y-40037D02*
X21072Y-40037D01*
X19872Y-40037D02*
X19872Y-40237D01*
X19872Y-40237D02*
X20072Y-40237D01*
X20072Y-40037D02*
X20072Y-40237D01*
X19872Y-40037D02*
X20072Y-40037D01*
X20872Y-41037D02*
X20872Y-41237D01*
X20872Y-41237D02*
X21072Y-41237D01*
X21072Y-41037D02*
X21072Y-41237D01*
X20872Y-41037D02*
X21072Y-41037D01*
X20872Y-42037D02*
X20872Y-42237D01*
X20872Y-42237D02*
X21072Y-42237D01*
X21072Y-42037D02*
X21072Y-42237D01*
X20872Y-42037D02*
X21072Y-42037D01*
X20872Y-43037D02*
X20872Y-43237D01*
X20872Y-43237D02*
X21072Y-43237D01*
X21072Y-43037D02*
X21072Y-43237D01*
X20872Y-43037D02*
X21072Y-43037D01*
X19872Y-41037D02*
X19872Y-41237D01*
X19872Y-41237D02*
X20072Y-41237D01*
X20072Y-41037D02*
X20072Y-41237D01*
X19872Y-41037D02*
X20072Y-41037D01*
X19872Y-42037D02*
X19872Y-42237D01*
X19872Y-42237D02*
X20072Y-42237D01*
X20072Y-42037D02*
X20072Y-42237D01*
X19872Y-42037D02*
X20072Y-42037D01*
X19872Y-43037D02*
X19872Y-43237D01*
X19872Y-43237D02*
X20072Y-43237D01*
X20072Y-43037D02*
X20072Y-43237D01*
X19872Y-43037D02*
X20072Y-43037D01*
X20872Y-44037D02*
X20872Y-44237D01*
X20872Y-44237D02*
X21072Y-44237D01*
X21072Y-44037D02*
X21072Y-44237D01*
X20872Y-44037D02*
X21072Y-44037D01*
X19872Y-44037D02*
X19872Y-44237D01*
X19872Y-44237D02*
X20072Y-44237D01*
X20072Y-44037D02*
X20072Y-44237D01*
X19872Y-44037D02*
X20072Y-44037D01*
X20872Y-45037D02*
X20872Y-45237D01*
X20872Y-45237D02*
X21072Y-45237D01*
X21072Y-45037D02*
X21072Y-45237D01*
X20872Y-45037D02*
X21072Y-45037D01*
X19872Y-45037D02*
X19872Y-45237D01*
X19872Y-45237D02*
X20072Y-45237D01*
X20072Y-45037D02*
X20072Y-45237D01*
X19872Y-45037D02*
X20072Y-45037D01*
X20872Y-46037D02*
X20872Y-46237D01*
X20872Y-46237D02*
X21072Y-46237D01*
X21072Y-46037D02*
X21072Y-46237D01*
X20872Y-46037D02*
X21072Y-46037D01*
X19872Y-46037D02*
X19872Y-46237D01*
X19872Y-46237D02*
X20072Y-46237D01*
X20072Y-46037D02*
X20072Y-46237D01*
X19872Y-46037D02*
X20072Y-46037D01*
X20872Y-47037D02*
X20872Y-47237D01*
X20872Y-47237D02*
X21072Y-47237D01*
X21072Y-47037D02*
X21072Y-47237D01*
X20872Y-47037D02*
X21072Y-47037D01*
X19872Y-47037D02*
X19872Y-47237D01*
X19872Y-47237D02*
X20072Y-47237D01*
X20072Y-47037D02*
X20072Y-47237D01*
X19872Y-47037D02*
X20072Y-47037D01*
X20872Y-48037D02*
X20872Y-48237D01*
X20872Y-48237D02*
X21072Y-48237D01*
X21072Y-48037D02*
X21072Y-48237D01*
X20872Y-48037D02*
X21072Y-48037D01*
X19872Y-48037D02*
X19872Y-48237D01*
X19872Y-48237D02*
X20072Y-48237D01*
X20072Y-48037D02*
X20072Y-48237D01*
X19872Y-48037D02*
X20072Y-48037D01*
X20872Y-49037D02*
X20872Y-49237D01*
X20872Y-49237D02*
X21072Y-49237D01*
X21072Y-49037D02*
X21072Y-49237D01*
X20872Y-49037D02*
X21072Y-49037D01*
X19872Y-49037D02*
X19872Y-49237D01*
X19872Y-49237D02*
X20072Y-49237D01*
X20072Y-49037D02*
X20072Y-49237D01*
X19872Y-49037D02*
X20072Y-49037D01*
X20872Y-50037D02*
X20872Y-50237D01*
X20872Y-50237D02*
X21072Y-50237D01*
X21072Y-50037D02*
X21072Y-50237D01*
X20872Y-50037D02*
X21072Y-50037D01*
X19872Y-50037D02*
X19872Y-50237D01*
X19872Y-50237D02*
X20072Y-50237D01*
X20072Y-50037D02*
X20072Y-50237D01*
X19872Y-50037D02*
X20072Y-50037D01*
X20872Y-51037D02*
X20872Y-51237D01*
X20872Y-51237D02*
X21072Y-51237D01*
X21072Y-51037D02*
X21072Y-51237D01*
X20872Y-51037D02*
X21072Y-51037D01*
X19872Y-51037D02*
X19872Y-51237D01*
X19872Y-51237D02*
X20072Y-51237D01*
X20072Y-51037D02*
X20072Y-51237D01*
X19872Y-51037D02*
X20072Y-51037D01*
X20872Y-52037D02*
X20872Y-52237D01*
X20872Y-52237D02*
X21072Y-52237D01*
X21072Y-52037D02*
X21072Y-52237D01*
X20872Y-52037D02*
X21072Y-52037D01*
X19872Y-52037D02*
X19872Y-52237D01*
X19872Y-52237D02*
X20072Y-52237D01*
X20072Y-52037D02*
X20072Y-52237D01*
X19872Y-52037D02*
X20072Y-52037D01*
X20872Y-53037D02*
X20872Y-53237D01*
X20872Y-53237D02*
X21072Y-53237D01*
X21072Y-53037D02*
X21072Y-53237D01*
X20872Y-53037D02*
X21072Y-53037D01*
X19872Y-53037D02*
X19872Y-53237D01*
X19872Y-53237D02*
X20072Y-53237D01*
X20072Y-53037D02*
X20072Y-53237D01*
X19872Y-53037D02*
X20072Y-53037D01*
X20872Y-54037D02*
X20872Y-54237D01*
X20872Y-54237D02*
X21072Y-54237D01*
X21072Y-54037D02*
X21072Y-54237D01*
X20872Y-54037D02*
X21072Y-54037D01*
X19872Y-54037D02*
X19872Y-54237D01*
X19872Y-54237D02*
X20072Y-54237D01*
X20072Y-54037D02*
X20072Y-54237D01*
X19872Y-54037D02*
X20072Y-54037D01*
X20872Y-55037D02*
X20872Y-55237D01*
X20872Y-55237D02*
X21072Y-55237D01*
X21072Y-55037D02*
X21072Y-55237D01*
X20872Y-55037D02*
X21072Y-55037D01*
X19872Y-55037D02*
X19872Y-55237D01*
X19872Y-55237D02*
X20072Y-55237D01*
X20072Y-55037D02*
X20072Y-55237D01*
X19872Y-55037D02*
X20072Y-55037D01*
X20872Y-56037D02*
X20872Y-56237D01*
X20872Y-56237D02*
X21072Y-56237D01*
X21072Y-56037D02*
X21072Y-56237D01*
X20872Y-56037D02*
X21072Y-56037D01*
X19872Y-56037D02*
X19872Y-56237D01*
X19872Y-56237D02*
X20072Y-56237D01*
X20072Y-56037D02*
X20072Y-56237D01*
X19872Y-56037D02*
X20072Y-56037D01*
X20872Y-57037D02*
X20872Y-57237D01*
X20872Y-57237D02*
X21072Y-57237D01*
X21072Y-57037D02*
X21072Y-57237D01*
X20872Y-57037D02*
X21072Y-57037D01*
X19872Y-57037D02*
X19872Y-57237D01*
X19872Y-57237D02*
X20072Y-57237D01*
X20072Y-57037D02*
X20072Y-57237D01*
X19872Y-57037D02*
X20072Y-57037D01*
G54D12*
X19722Y-37637D02*
X19472Y-37887D01*
X19472Y-37887D02*
X19472Y-38387D01*
X19472Y-38387D02*
X19722Y-38637D01*
X19722Y-38637D02*
X19472Y-38887D01*
X19472Y-38887D02*
X19472Y-39387D01*
X19472Y-39387D02*
X19722Y-39637D01*
X19722Y-39637D02*
X19472Y-39887D01*
X19472Y-39887D02*
X19472Y-40387D01*
X19472Y-40387D02*
X19722Y-40637D01*
X19722Y-40637D02*
X19472Y-40887D01*
X19472Y-40887D02*
X19472Y-41387D01*
X19472Y-41387D02*
X19722Y-41637D01*
X19722Y-41637D02*
X19472Y-41887D01*
X19472Y-41887D02*
X19472Y-42387D01*
X19472Y-42387D02*
X19722Y-42637D01*
X19722Y-42637D02*
X19472Y-42887D01*
X19472Y-42887D02*
X19472Y-43387D01*
X19472Y-43387D02*
X19722Y-43637D01*
X19722Y-37637D02*
X21222Y-37637D01*
X21222Y-37637D02*
X21472Y-37887D01*
X21472Y-37887D02*
X21472Y-38387D01*
X21472Y-38387D02*
X21222Y-38637D01*
X21222Y-38637D02*
X21472Y-38887D01*
X21472Y-38887D02*
X21472Y-39387D01*
X21472Y-39387D02*
X21222Y-39637D01*
X21222Y-39637D02*
X21472Y-39887D01*
X21472Y-39887D02*
X21472Y-40387D01*
X21472Y-40387D02*
X21222Y-40637D01*
X21222Y-40637D02*
X21472Y-40887D01*
X21472Y-40887D02*
X21472Y-41387D01*
X21472Y-41387D02*
X21222Y-41637D01*
X21222Y-41637D02*
X21472Y-41887D01*
X21472Y-41887D02*
X21472Y-42387D01*
X21472Y-42387D02*
X21222Y-42637D01*
X21222Y-42637D02*
X21472Y-42887D01*
X21472Y-42887D02*
X21472Y-43387D01*
X21472Y-43387D02*
X21222Y-43637D01*
X21222Y-43637D02*
X21472Y-43887D01*
X21472Y-43887D02*
X21472Y-44387D01*
X21472Y-44387D02*
X21222Y-44637D01*
X21222Y-44637D02*
X21472Y-44887D01*
X21472Y-44887D02*
X21472Y-45387D01*
X21472Y-45387D02*
X21222Y-45637D01*
X21222Y-45637D02*
X21472Y-45887D01*
X21472Y-45887D02*
X21472Y-46387D01*
X21472Y-46387D02*
X21222Y-46637D01*
X21222Y-46637D02*
X21472Y-46887D01*
X21472Y-46887D02*
X21472Y-47387D01*
X21472Y-47387D02*
X21222Y-47637D01*
X21222Y-47637D02*
X21472Y-47887D01*
X21472Y-47887D02*
X21472Y-48387D01*
X21472Y-48387D02*
X21222Y-48637D01*
X21222Y-48637D02*
X21472Y-48887D01*
X21472Y-48887D02*
X21472Y-49387D01*
X21222Y-49637D02*
X21472Y-49387D01*
X21222Y-49637D02*
X21472Y-49887D01*
X21472Y-50387D02*
X21472Y-49887D01*
X21472Y-50387D02*
X21222Y-50637D01*
X21222Y-50637D02*
X21472Y-50887D01*
X21472Y-51387D02*
X21472Y-50887D01*
X21472Y-51387D02*
X21222Y-51637D01*
X21222Y-51637D02*
X21472Y-51887D01*
X21472Y-52387D02*
X21472Y-51887D01*
X21472Y-52387D02*
X21222Y-52637D01*
X21222Y-52637D02*
X21472Y-52887D01*
X21472Y-53387D02*
X21472Y-52887D01*
X21472Y-53387D02*
X21222Y-53637D01*
X21222Y-53637D02*
X21472Y-53887D01*
X21472Y-54387D02*
X21472Y-53887D01*
X21472Y-54387D02*
X21222Y-54637D01*
X21222Y-54637D02*
X21472Y-54887D01*
X21472Y-55387D02*
X21472Y-54887D01*
X21472Y-55387D02*
X21222Y-55637D01*
X21222Y-55637D02*
X21472Y-55887D01*
X21472Y-56387D02*
X21472Y-55887D01*
X21472Y-56387D02*
X21222Y-56637D01*
X19722Y-56637D02*
X19472Y-56387D01*
X19472Y-56387D02*
X19472Y-55887D01*
X19722Y-55637D02*
X19472Y-55887D01*
X19722Y-55637D02*
X19472Y-55387D01*
X19472Y-55387D02*
X19472Y-54887D01*
X19722Y-54637D02*
X19472Y-54887D01*
X19722Y-54637D02*
X19472Y-54387D01*
X19472Y-54387D02*
X19472Y-53887D01*
X19722Y-53637D02*
X19472Y-53887D01*
X19722Y-53637D02*
X19472Y-53387D01*
X19472Y-52887D02*
X19472Y-53387D01*
X19472Y-52887D02*
X19722Y-52637D01*
X19722Y-52637D02*
X19472Y-52387D01*
X19472Y-51887D02*
X19472Y-52387D01*
X19472Y-51887D02*
X19722Y-51637D01*
X19722Y-51637D02*
X19472Y-51387D01*
X19472Y-51387D02*
X19472Y-50887D01*
X19722Y-50637D02*
X19472Y-50887D01*
X19722Y-50637D02*
X19472Y-50387D01*
X19472Y-50387D02*
X19472Y-49887D01*
X19722Y-49637D02*
X19472Y-49887D01*
X19722Y-49637D02*
X19472Y-49387D01*
X19472Y-49387D02*
X19472Y-48887D01*
X19722Y-48637D02*
X19472Y-48887D01*
X19722Y-48637D02*
X19472Y-48387D01*
X19472Y-48387D02*
X19472Y-47887D01*
X19722Y-47637D02*
X19472Y-47887D01*
X19722Y-47637D02*
X19472Y-47387D01*
X19472Y-47387D02*
X19472Y-46887D01*
X19722Y-46637D02*
X19472Y-46887D01*
X19722Y-46637D02*
X19472Y-46387D01*
X19472Y-46387D02*
X19472Y-45887D01*
X19722Y-45637D02*
X19472Y-45887D01*
X19722Y-45637D02*
X19472Y-45387D01*
X19472Y-45387D02*
X19472Y-44887D01*
X19722Y-44637D02*
X19472Y-44887D01*
X19722Y-44637D02*
X19472Y-44387D01*
X19472Y-44387D02*
X19472Y-43887D01*
X19722Y-43637D02*
X19472Y-43887D01*
X21222Y-38637D02*
X19722Y-38637D01*
X21222Y-39637D02*
X19722Y-39637D01*
X21222Y-40637D02*
X19722Y-40637D01*
X21222Y-41637D02*
X19722Y-41637D01*
X21222Y-42637D02*
X19722Y-42637D01*
X21222Y-43637D02*
X19722Y-43637D01*
X21222Y-44637D02*
X19722Y-44637D01*
X21222Y-45637D02*
X19722Y-45637D01*
X21222Y-46637D02*
X19722Y-46637D01*
X21222Y-47637D02*
X19722Y-47637D01*
X21222Y-48637D02*
X19722Y-48637D01*
X21222Y-49637D02*
X19722Y-49637D01*
X21222Y-50637D02*
X19722Y-50637D01*
X21222Y-51637D02*
X19722Y-51637D01*
X21222Y-52637D02*
X19722Y-52637D01*
X21222Y-53637D02*
X19722Y-53637D01*
X21222Y-54637D02*
X19722Y-54637D01*
X21222Y-55637D02*
X19722Y-55637D01*
X21222Y-56637D02*
X19722Y-56637D01*
X21222Y-56637D02*
X21472Y-56887D01*
X21472Y-57387D02*
X21472Y-56887D01*
X21472Y-57387D02*
X21222Y-57637D01*
X19722Y-57637D02*
X19472Y-57387D01*
X19472Y-57387D02*
X19472Y-56887D01*
X19722Y-56637D02*
X19472Y-56887D01*
X21222Y-57637D02*
X19722Y-57637D01*
G54D11*
X21072Y-69816D02*
X21072Y-69616D01*
X21072Y-69616D02*
X20872Y-69616D01*
X20872Y-69816D02*
X20872Y-69616D01*
X21072Y-69816D02*
X20872Y-69816D01*
X20072Y-69816D02*
X20072Y-69616D01*
X20072Y-69616D02*
X19872Y-69616D01*
X19872Y-69816D02*
X19872Y-69616D01*
X20072Y-69816D02*
X19872Y-69816D01*
X20072Y-68816D02*
X20072Y-68616D01*
X20072Y-68616D02*
X19872Y-68616D01*
X19872Y-68816D02*
X19872Y-68616D01*
X20072Y-68816D02*
X19872Y-68816D01*
X21072Y-68816D02*
X21072Y-68616D01*
X21072Y-68616D02*
X20872Y-68616D01*
X20872Y-68816D02*
X20872Y-68616D01*
X21072Y-68816D02*
X20872Y-68816D01*
X20072Y-67816D02*
X20072Y-67616D01*
X20072Y-67616D02*
X19872Y-67616D01*
X19872Y-67816D02*
X19872Y-67616D01*
X20072Y-67816D02*
X19872Y-67816D01*
X21072Y-67816D02*
X21072Y-67616D01*
X21072Y-67616D02*
X20872Y-67616D01*
X20872Y-67816D02*
X20872Y-67616D01*
X21072Y-67816D02*
X20872Y-67816D01*
X20072Y-66816D02*
X20072Y-66616D01*
X20072Y-66616D02*
X19872Y-66616D01*
X19872Y-66816D02*
X19872Y-66616D01*
X20072Y-66816D02*
X19872Y-66816D01*
X21072Y-66816D02*
X21072Y-66616D01*
X21072Y-66616D02*
X20872Y-66616D01*
X20872Y-66816D02*
X20872Y-66616D01*
X21072Y-66816D02*
X20872Y-66816D01*
X20072Y-65816D02*
X20072Y-65616D01*
X20072Y-65616D02*
X19872Y-65616D01*
X19872Y-65816D02*
X19872Y-65616D01*
X20072Y-65816D02*
X19872Y-65816D01*
X21072Y-65816D02*
X21072Y-65616D01*
X21072Y-65616D02*
X20872Y-65616D01*
X20872Y-65816D02*
X20872Y-65616D01*
X21072Y-65816D02*
X20872Y-65816D01*
G54D12*
X21222Y-70216D02*
X21472Y-69966D01*
X21472Y-69466D02*
X21222Y-69216D01*
X21222Y-69216D02*
X21472Y-68966D01*
X21472Y-68466D02*
X21222Y-68216D01*
X21222Y-68216D02*
X21472Y-67966D01*
X21472Y-67466D02*
X21222Y-67216D01*
X21222Y-67216D02*
X21472Y-66966D01*
X21472Y-66466D02*
X21222Y-66216D01*
X21222Y-70216D02*
X19722Y-70216D01*
X19722Y-70216D02*
X19472Y-69966D01*
X19472Y-69966D02*
X19472Y-69466D01*
X19472Y-69466D02*
X19722Y-69216D01*
X19722Y-69216D02*
X19472Y-68966D01*
X19472Y-68966D02*
X19472Y-68466D01*
X19472Y-68466D02*
X19722Y-68216D01*
X19722Y-68216D02*
X19472Y-67966D01*
X19472Y-67966D02*
X19472Y-67466D01*
X19472Y-67466D02*
X19722Y-67216D01*
X19722Y-67216D02*
X19472Y-66966D01*
X19472Y-66966D02*
X19472Y-66466D01*
X19472Y-66466D02*
X19722Y-66216D01*
X19722Y-69216D02*
X21222Y-69216D01*
X19722Y-68216D02*
X21222Y-68216D01*
X19722Y-67216D02*
X21222Y-67216D01*
X19722Y-66216D02*
X21222Y-66216D01*
X21472Y-66966D02*
X21472Y-66466D01*
X21472Y-67966D02*
X21472Y-67466D01*
X21472Y-68966D02*
X21472Y-68466D01*
X21472Y-69966D02*
X21472Y-69466D01*
X21222Y-66216D02*
X21472Y-65966D01*
X21472Y-65466D02*
X21222Y-65216D01*
X19722Y-66216D02*
X19472Y-65966D01*
X19472Y-65966D02*
X19472Y-65466D01*
X19472Y-65466D02*
X19722Y-65216D01*
X19722Y-65216D02*
X21222Y-65216D01*
X21472Y-65966D02*
X21472Y-65466D01*
G54D11*
X21072Y-78477D02*
X21072Y-78277D01*
X21072Y-78277D02*
X20872Y-78277D01*
X20872Y-78477D02*
X20872Y-78277D01*
X21072Y-78477D02*
X20872Y-78477D01*
X20072Y-78477D02*
X20072Y-78277D01*
X20072Y-78277D02*
X19872Y-78277D01*
X19872Y-78477D02*
X19872Y-78277D01*
X20072Y-78477D02*
X19872Y-78477D01*
X20072Y-77477D02*
X20072Y-77277D01*
X20072Y-77277D02*
X19872Y-77277D01*
X19872Y-77477D02*
X19872Y-77277D01*
X20072Y-77477D02*
X19872Y-77477D01*
X21072Y-77477D02*
X21072Y-77277D01*
X21072Y-77277D02*
X20872Y-77277D01*
X20872Y-77477D02*
X20872Y-77277D01*
X21072Y-77477D02*
X20872Y-77477D01*
X20072Y-76477D02*
X20072Y-76277D01*
X20072Y-76277D02*
X19872Y-76277D01*
X19872Y-76477D02*
X19872Y-76277D01*
X20072Y-76477D02*
X19872Y-76477D01*
X21072Y-76477D02*
X21072Y-76277D01*
X21072Y-76277D02*
X20872Y-76277D01*
X20872Y-76477D02*
X20872Y-76277D01*
X21072Y-76477D02*
X20872Y-76477D01*
X20072Y-75477D02*
X20072Y-75277D01*
X20072Y-75277D02*
X19872Y-75277D01*
X19872Y-75477D02*
X19872Y-75277D01*
X20072Y-75477D02*
X19872Y-75477D01*
X21072Y-75477D02*
X21072Y-75277D01*
X21072Y-75277D02*
X20872Y-75277D01*
X20872Y-75477D02*
X20872Y-75277D01*
X21072Y-75477D02*
X20872Y-75477D01*
X20072Y-74477D02*
X20072Y-74277D01*
X20072Y-74277D02*
X19872Y-74277D01*
X19872Y-74477D02*
X19872Y-74277D01*
X20072Y-74477D02*
X19872Y-74477D01*
X21072Y-74477D02*
X21072Y-74277D01*
X21072Y-74277D02*
X20872Y-74277D01*
X20872Y-74477D02*
X20872Y-74277D01*
X21072Y-74477D02*
X20872Y-74477D01*
G54D12*
X21222Y-78877D02*
X21472Y-78627D01*
X21472Y-78127D02*
X21222Y-77877D01*
X21222Y-77877D02*
X21472Y-77627D01*
X21472Y-77127D02*
X21222Y-76877D01*
X21222Y-76877D02*
X21472Y-76627D01*
X21472Y-76127D02*
X21222Y-75877D01*
X21222Y-75877D02*
X21472Y-75627D01*
X21472Y-75127D02*
X21222Y-74877D01*
X21222Y-78877D02*
X19722Y-78877D01*
X19722Y-78877D02*
X19472Y-78627D01*
X19472Y-78627D02*
X19472Y-78127D01*
X19472Y-78127D02*
X19722Y-77877D01*
X19722Y-77877D02*
X19472Y-77627D01*
X19472Y-77627D02*
X19472Y-77127D01*
X19472Y-77127D02*
X19722Y-76877D01*
X19722Y-76877D02*
X19472Y-76627D01*
X19472Y-76627D02*
X19472Y-76127D01*
X19472Y-76127D02*
X19722Y-75877D01*
X19722Y-75877D02*
X19472Y-75627D01*
X19472Y-75627D02*
X19472Y-75127D01*
X19472Y-75127D02*
X19722Y-74877D01*
X19722Y-77877D02*
X21222Y-77877D01*
X19722Y-76877D02*
X21222Y-76877D01*
X19722Y-75877D02*
X21222Y-75877D01*
X19722Y-74877D02*
X21222Y-74877D01*
X21472Y-75627D02*
X21472Y-75127D01*
X21472Y-76627D02*
X21472Y-76127D01*
X21472Y-77627D02*
X21472Y-77127D01*
X21472Y-78627D02*
X21472Y-78127D01*
X21222Y-74877D02*
X21472Y-74627D01*
X21472Y-74127D02*
X21222Y-73877D01*
X19722Y-74877D02*
X19472Y-74627D01*
X19472Y-74627D02*
X19472Y-74127D01*
X19472Y-74127D02*
X19722Y-73877D01*
X19722Y-73877D02*
X21222Y-73877D01*
X21472Y-74627D02*
X21472Y-74127D01*
G54D11*
X19872Y-33958D02*
X20072Y-33958D01*
X20072Y-33958D02*
X20072Y-33758D01*
X19872Y-33758D02*
X20072Y-33758D01*
X19872Y-33958D02*
X19872Y-33758D01*
X20872Y-33958D02*
X21072Y-33958D01*
X21072Y-33958D02*
X21072Y-33758D01*
X20872Y-33758D02*
X21072Y-33758D01*
X20872Y-33958D02*
X20872Y-33758D01*
G54D12*
X19722Y-33358D02*
X20222Y-33358D01*
X20222Y-33358D02*
X20472Y-33608D01*
X20472Y-33608D02*
X20472Y-34108D01*
X20472Y-34108D02*
X20222Y-34358D01*
X19472Y-33608D02*
X19472Y-34108D01*
X19722Y-33358D02*
X19472Y-33608D01*
X19472Y-34108D02*
X19722Y-34358D01*
X20222Y-34358D02*
X19722Y-34358D01*
X20472Y-33608D02*
X20722Y-33358D01*
X20722Y-33358D02*
X21222Y-33358D01*
X21222Y-33358D02*
X21472Y-33608D01*
X21472Y-33608D02*
X21472Y-34108D01*
X21472Y-34108D02*
X21222Y-34358D01*
X21222Y-34358D02*
X20722Y-34358D01*
X20722Y-34358D02*
X20472Y-34108D01*
G54D11*
X19872Y-61517D02*
X20072Y-61517D01*
X20072Y-61517D02*
X20072Y-61317D01*
X19872Y-61317D02*
X20072Y-61317D01*
X19872Y-61517D02*
X19872Y-61317D01*
X20872Y-61517D02*
X21072Y-61517D01*
X21072Y-61517D02*
X21072Y-61317D01*
X20872Y-61317D02*
X21072Y-61317D01*
X20872Y-61517D02*
X20872Y-61317D01*
G54D12*
X19722Y-60917D02*
X20222Y-60917D01*
X20222Y-60917D02*
X20472Y-61167D01*
X20472Y-61167D02*
X20472Y-61667D01*
X20472Y-61667D02*
X20222Y-61917D01*
X19472Y-61167D02*
X19472Y-61667D01*
X19722Y-60917D02*
X19472Y-61167D01*
X19472Y-61667D02*
X19722Y-61917D01*
X20222Y-61917D02*
X19722Y-61917D01*
X20472Y-61167D02*
X20722Y-60917D01*
X20722Y-60917D02*
X21222Y-60917D01*
X21222Y-60917D02*
X21472Y-61167D01*
X21472Y-61167D02*
X21472Y-61667D01*
X21472Y-61667D02*
X21222Y-61917D01*
X21222Y-61917D02*
X20722Y-61917D01*
X20722Y-61917D02*
X20472Y-61667D01*
X35921Y-51037D02*
X35921Y-51887D01*
X42819Y-49687D02*
X35921Y-49687D01*
X35921Y-49687D02*
X35921Y-50537D01*
X35921Y-51887D02*
X42819Y-51887D01*
X42819Y-51887D02*
X42819Y-49687D01*
X35921Y-51037D02*
G75*
G03X35921Y-50537I0J250D01*
G74*
G01*
G54D13*
X22508Y-32570D02*
X22508Y-33570D01*
G54D12*
X23589Y-33454D02*
G75*
G03X23728Y-33070I-460J384D01*
G74*
G01*
X23727Y-33070D02*
G75*
G03X23576Y-32673I-599J0D01*
G74*
G01*
X22529Y-33070D02*
G75*
G03X22673Y-33460I599J0D01*
G74*
G01*
X22667Y-32686D02*
G75*
G03X22528Y-33070I460J-384D01*
G74*
G01*
X22640Y-33420D02*
G75*
G03X23128Y-33670I487J349D01*
G74*
G01*
X23128Y-33670D02*
G75*
G03X23608Y-33431I0J600D01*
G74*
G01*
X23128Y-32471D02*
G75*
G03X22655Y-32702I0J-599D01*
G74*
G01*
X23601Y-32702D02*
G75*
G03X23128Y-32470I-473J-368D01*
G74*
G01*
X23128Y-33320D02*
G75*
G03X23378Y-33070I0J250D01*
G74*
G01*
X23128Y-33470D02*
G75*
G03X23528Y-33070I0J400D01*
G74*
G01*
X23128Y-32820D02*
G75*
G03X22878Y-33070I0J-250D01*
G74*
G01*
X23128Y-32670D02*
G75*
G03X22728Y-33070I0J-399D01*
G74*
G01*
G54D13*
X22514Y-33584D02*
G75*
G03X23128Y-33870I613J513D01*
G74*
G01*
X23128Y-33869D02*
G75*
G03X23833Y-33447I0J799D01*
G74*
G01*
X23126Y-32271D02*
G75*
G03X22518Y-32555I1J-798D01*
G74*
G01*
X23822Y-32673D02*
G75*
G03X23128Y-32270I-694J-397D01*
G74*
G01*
X23832Y-33450D02*
G75*
G03X23928Y-33070I-704J379D01*
G74*
G01*
X23927Y-33070D02*
G75*
G03X23809Y-32651I-799J0D01*
G74*
G01*
G54D14*
X35169Y-60129D02*
X35669Y-60129D01*
X35669Y-60129D02*
X35669Y-61129D01*
X35669Y-61129D02*
X35169Y-61129D01*
X35169Y-58129D02*
X56169Y-58129D01*
X56169Y-58129D02*
X56169Y-63129D01*
X56169Y-63129D02*
X35169Y-63129D01*
X35169Y-63129D02*
X35169Y-58129D01*
X26507Y-36507D02*
X27007Y-36507D01*
X27007Y-36507D02*
X27007Y-37507D01*
X27007Y-37507D02*
X26507Y-37507D01*
X26507Y-34507D02*
X47507Y-34507D01*
X47507Y-34507D02*
X47507Y-39507D01*
X47507Y-39507D02*
X26507Y-39507D01*
X26507Y-39507D02*
X26507Y-34507D01*
X35169Y-71547D02*
X35669Y-71547D01*
X35669Y-71547D02*
X35669Y-72547D01*
X35669Y-72547D02*
X35169Y-72547D01*
X35169Y-69547D02*
X56169Y-69547D01*
X56169Y-69547D02*
X56169Y-74547D01*
X56169Y-74547D02*
X35169Y-74547D01*
X35169Y-74547D02*
X35169Y-69547D01*
X76539Y-51043D02*
X93539Y-51043D01*
X93539Y-51043D02*
X93539Y-56043D01*
X93539Y-56043D02*
X76539Y-56043D01*
X76539Y-56043D02*
X76539Y-51043D01*
X76539Y-54043D02*
X77039Y-54043D01*
X77039Y-54043D02*
X77039Y-53043D01*
X77039Y-53043D02*
X76539Y-53043D01*
X76539Y-34507D02*
X93539Y-34507D01*
X93539Y-34507D02*
X93539Y-39507D01*
X93539Y-39507D02*
X76539Y-39507D01*
X76539Y-39507D02*
X76539Y-34507D01*
X76539Y-37507D02*
X77039Y-37507D01*
X77039Y-37507D02*
X77039Y-36507D01*
X77039Y-36507D02*
X76539Y-36507D01*
X76539Y-42775D02*
X93539Y-42775D01*
X93539Y-42775D02*
X93539Y-47775D01*
X93539Y-47775D02*
X76539Y-47775D01*
X76539Y-47775D02*
X76539Y-42775D01*
X76539Y-45775D02*
X77039Y-45775D01*
X77039Y-45775D02*
X77039Y-44775D01*
X77039Y-44775D02*
X76539Y-44775D01*
X83476Y-81783D02*
X83976Y-81783D01*
X83976Y-81783D02*
X83976Y-82783D01*
X83976Y-82783D02*
X83476Y-82783D01*
X83476Y-81283D02*
X94476Y-81283D01*
X94476Y-81283D02*
X94476Y-83283D01*
X94476Y-83283D02*
X83476Y-83283D01*
X83476Y-83283D02*
X83476Y-81283D01*
X58279Y-61311D02*
X58779Y-61311D01*
X58779Y-61311D02*
X58779Y-62311D01*
X58779Y-62311D02*
X58279Y-62311D01*
X58279Y-60811D02*
X69279Y-60811D01*
X69279Y-60811D02*
X69279Y-62811D01*
X69279Y-62811D02*
X58279Y-62811D01*
X58279Y-62811D02*
X58279Y-60811D01*
X70877Y-61311D02*
X71377Y-61311D01*
X71377Y-61311D02*
X71377Y-62311D01*
X71377Y-62311D02*
X70877Y-62311D01*
X70877Y-60811D02*
X81877Y-60811D01*
X81877Y-60811D02*
X81877Y-62811D01*
X81877Y-62811D02*
X70877Y-62811D01*
X70877Y-62811D02*
X70877Y-60811D01*
X70877Y-74696D02*
X71377Y-74696D01*
X71377Y-74696D02*
X71377Y-75696D01*
X71377Y-75696D02*
X70877Y-75696D01*
X70877Y-74196D02*
X81877Y-74196D01*
X81877Y-74196D02*
X81877Y-76196D01*
X81877Y-76196D02*
X70877Y-76196D01*
X70877Y-76196D02*
X70877Y-74196D01*
X61822Y-67610D02*
X62322Y-67610D01*
X62322Y-67610D02*
X62322Y-68610D01*
X62322Y-68610D02*
X61822Y-68610D01*
X61822Y-67110D02*
X72822Y-67110D01*
X72822Y-67110D02*
X72822Y-69110D01*
X72822Y-69110D02*
X61822Y-69110D01*
X61822Y-69110D02*
X61822Y-67110D01*
X83476Y-61311D02*
X83976Y-61311D01*
X83976Y-61311D02*
X83976Y-62311D01*
X83976Y-62311D02*
X83476Y-62311D01*
X83476Y-60811D02*
X94476Y-60811D01*
X94476Y-60811D02*
X94476Y-62811D01*
X94476Y-62811D02*
X83476Y-62811D01*
X83476Y-62811D02*
X83476Y-60811D01*
X83476Y-74696D02*
X83976Y-74696D01*
X83976Y-74696D02*
X83976Y-75696D01*
X83976Y-75696D02*
X83476Y-75696D01*
X83476Y-74196D02*
X94476Y-74196D01*
X94476Y-74196D02*
X94476Y-76196D01*
X94476Y-76196D02*
X83476Y-76196D01*
X83476Y-76196D02*
X83476Y-74196D01*
X35051Y-81783D02*
X35551Y-81783D01*
X35551Y-81783D02*
X35551Y-82783D01*
X35551Y-82783D02*
X35051Y-82783D01*
X35051Y-81283D02*
X46051Y-81283D01*
X46051Y-81283D02*
X46051Y-83283D01*
X46051Y-83283D02*
X35051Y-83283D01*
X35051Y-83283D02*
X35051Y-81283D01*
X57885Y-81783D02*
X58385Y-81783D01*
X58385Y-81783D02*
X58385Y-82783D01*
X58385Y-82783D02*
X57885Y-82783D01*
X57885Y-81283D02*
X68885Y-81283D01*
X68885Y-81283D02*
X68885Y-83283D01*
X68885Y-83283D02*
X57885Y-83283D01*
X57885Y-83283D02*
X57885Y-81283D01*
X70877Y-81783D02*
X71377Y-81783D01*
X71377Y-81783D02*
X71377Y-82783D01*
X71377Y-82783D02*
X70877Y-82783D01*
X70877Y-81283D02*
X81877Y-81283D01*
X81877Y-81283D02*
X81877Y-83283D01*
X81877Y-83283D02*
X70877Y-83283D01*
X70877Y-83283D02*
X70877Y-81283D01*
X25027Y-72334D02*
X25027Y-72334D01*
X25027Y-72334D02*
X25527Y-72334D01*
X25527Y-72334D02*
X25527Y-73334D01*
X25527Y-73334D02*
X25027Y-73334D01*
X25027Y-71834D02*
X34027Y-71834D01*
X34027Y-71834D02*
X34027Y-73834D01*
X34027Y-73834D02*
X25027Y-73834D01*
X25027Y-73834D02*
X25027Y-71834D01*
X24633Y-60917D02*
X24633Y-60917D01*
X24633Y-60917D02*
X25133Y-60917D01*
X25133Y-60917D02*
X25133Y-61917D01*
X25133Y-61917D02*
X24633Y-61917D01*
X24633Y-60417D02*
X33633Y-60417D01*
X33633Y-60417D02*
X33633Y-62417D01*
X33633Y-62417D02*
X24633Y-62417D01*
X24633Y-62417D02*
X24633Y-60417D01*
X35657Y-43988D02*
X35657Y-43988D01*
X35657Y-43988D02*
X36157Y-43988D01*
X36157Y-43988D02*
X36157Y-44988D01*
X36157Y-44988D02*
X35657Y-44988D01*
X35657Y-43488D02*
X44657Y-43488D01*
X44657Y-43488D02*
X44657Y-45488D01*
X44657Y-45488D02*
X35657Y-45488D01*
X35657Y-45488D02*
X35657Y-43488D01*
X74240Y-67610D02*
X74240Y-67610D01*
X74240Y-67610D02*
X74740Y-67610D01*
X74740Y-67610D02*
X74740Y-68610D01*
X74740Y-68610D02*
X74240Y-68610D01*
X74240Y-67110D02*
X83240Y-67110D01*
X83240Y-67110D02*
X83240Y-69110D01*
X83240Y-69110D02*
X74240Y-69110D01*
X74240Y-69110D02*
X74240Y-67110D01*
X85263Y-67610D02*
X85263Y-67610D01*
X85263Y-67610D02*
X85763Y-67610D01*
X85763Y-67610D02*
X85763Y-68610D01*
X85763Y-68610D02*
X85263Y-68610D01*
X85263Y-67110D02*
X94263Y-67110D01*
X94263Y-67110D02*
X94263Y-69110D01*
X94263Y-69110D02*
X85263Y-69110D01*
X85263Y-69110D02*
X85263Y-67110D01*
X60960Y-74196D02*
X68960Y-74196D01*
X68960Y-76196D02*
X60960Y-76196D01*
X60960Y-76196D02*
X60960Y-74196D01*
X60960Y-74696D02*
X61460Y-74696D01*
X61460Y-74696D02*
X61460Y-75696D01*
X61460Y-75696D02*
X60960Y-75696D01*
X68960Y-74196D02*
X68960Y-76196D01*
X49937Y-37188D02*
X57937Y-37188D01*
X57937Y-39188D02*
X49937Y-39188D01*
X49937Y-39188D02*
X49937Y-37188D01*
X49937Y-37688D02*
X50437Y-37688D01*
X50437Y-37688D02*
X50437Y-38688D01*
X50437Y-38688D02*
X49937Y-38688D01*
X57937Y-37188D02*
X57937Y-39188D01*
X45212Y-49787D02*
X53212Y-49787D01*
X53212Y-51787D02*
X45212Y-51787D01*
X45212Y-51787D02*
X45212Y-49787D01*
X45212Y-50287D02*
X45712Y-50287D01*
X45712Y-50287D02*
X45712Y-51287D01*
X45712Y-51287D02*
X45212Y-51287D01*
X53212Y-49787D02*
X53212Y-51787D01*
X47968Y-81283D02*
X55968Y-81283D01*
X55968Y-83283D02*
X47968Y-83283D01*
X47968Y-83283D02*
X47968Y-81283D01*
X47968Y-81783D02*
X48468Y-81783D01*
X48468Y-81783D02*
X48468Y-82783D01*
X48468Y-82783D02*
X47968Y-82783D01*
X55968Y-81283D02*
X55968Y-83283D01*
X61748Y-43094D02*
X69748Y-43094D01*
X69748Y-45094D02*
X61748Y-45094D01*
X61748Y-45094D02*
X61748Y-43094D01*
X61748Y-43594D02*
X62248Y-43594D01*
X62248Y-43594D02*
X62248Y-44594D01*
X62248Y-44594D02*
X61748Y-44594D01*
X69748Y-43094D02*
X69748Y-45094D01*
X49937Y-43488D02*
X57937Y-43488D01*
X57937Y-45488D02*
X49937Y-45488D01*
X49937Y-45488D02*
X49937Y-43488D01*
X49937Y-43988D02*
X50437Y-43988D01*
X50437Y-43988D02*
X50437Y-44988D01*
X50437Y-44988D02*
X49937Y-44988D01*
X57937Y-43488D02*
X57937Y-45488D01*
X25133Y-43488D02*
X33133Y-43488D01*
X33133Y-45488D02*
X25133Y-45488D01*
X25133Y-45488D02*
X25133Y-43488D01*
X25133Y-43988D02*
X25633Y-43988D01*
X25633Y-43988D02*
X25633Y-44988D01*
X25633Y-44988D02*
X25133Y-44988D01*
X33133Y-43488D02*
X33133Y-45488D01*
G54D15*
X41119Y-32277D02*
X43919Y-32277D01*
X43919Y-32277D02*
X43919Y-33077D01*
X43919Y-33077D02*
X41119Y-33077D01*
X41119Y-33077D02*
X41119Y-32277D01*
X41119Y-32477D02*
X41319Y-32277D01*
X24809Y-43088D02*
X24809Y-45888D01*
X24809Y-45888D02*
X24009Y-45888D01*
X24009Y-45888D02*
X24009Y-43088D01*
X24009Y-43088D02*
X24809Y-43088D01*
X24609Y-43088D02*
X24809Y-43288D01*
X49781Y-53537D02*
X52581Y-53537D01*
X52581Y-53537D02*
X52581Y-54337D01*
X52581Y-54337D02*
X49781Y-54337D01*
X49781Y-54337D02*
X49781Y-53537D01*
X49781Y-53737D02*
X49981Y-53537D01*
X35820Y-56518D02*
X35820Y-53718D01*
X35820Y-53718D02*
X36620Y-53718D01*
X36620Y-53718D02*
X36620Y-56518D01*
X36620Y-56518D02*
X35820Y-56518D01*
X36020Y-56518D02*
X35820Y-56318D01*
X24415Y-71828D02*
X24415Y-74628D01*
X24415Y-74628D02*
X23615Y-74628D01*
X23615Y-74628D02*
X23615Y-71828D01*
X23615Y-71828D02*
X24415Y-71828D01*
X24215Y-71828D02*
X24415Y-72028D01*
X75990Y-41907D02*
X75990Y-44707D01*
X75990Y-44707D02*
X75190Y-44707D01*
X75190Y-44707D02*
X75190Y-41907D01*
X75190Y-41907D02*
X75990Y-41907D01*
X75790Y-41907D02*
X75990Y-42107D01*
X61423Y-66710D02*
X61423Y-69510D01*
X61423Y-69510D02*
X60623Y-69510D01*
X60623Y-69510D02*
X60623Y-66710D01*
X60623Y-66710D02*
X61423Y-66710D01*
X61223Y-66710D02*
X61423Y-66910D01*
X35426Y-79746D02*
X35426Y-76946D01*
X35426Y-76946D02*
X36226Y-76946D01*
X36226Y-76946D02*
X36226Y-79746D01*
X36226Y-79746D02*
X35426Y-79746D01*
X35626Y-79746D02*
X35426Y-79546D01*
X57486Y-80883D02*
X57486Y-83683D01*
X57486Y-83683D02*
X56686Y-83683D01*
X56686Y-83683D02*
X56686Y-80883D01*
X56686Y-80883D02*
X57486Y-80883D01*
X57286Y-80883D02*
X57486Y-81083D01*
X70478Y-80883D02*
X70478Y-83683D01*
X70478Y-83683D02*
X69678Y-83683D01*
X69678Y-83683D02*
X69678Y-80883D01*
X69678Y-80883D02*
X70478Y-80883D01*
X70278Y-80883D02*
X70478Y-81083D01*
X83077Y-80883D02*
X83077Y-83683D01*
X83077Y-83683D02*
X82277Y-83683D01*
X82277Y-83683D02*
X82277Y-80883D01*
X82277Y-80883D02*
X83077Y-80883D01*
X82877Y-80883D02*
X83077Y-81083D01*
X60636Y-42694D02*
X60636Y-45494D01*
X60636Y-45494D02*
X59836Y-45494D01*
X59836Y-45494D02*
X59836Y-42694D01*
X59836Y-42694D02*
X60636Y-42694D01*
X60436Y-42694D02*
X60636Y-42894D01*
X60242Y-73796D02*
X60242Y-76596D01*
X60242Y-76596D02*
X59442Y-76596D01*
X59442Y-76596D02*
X59442Y-73796D01*
X59442Y-73796D02*
X60242Y-73796D01*
X60042Y-73796D02*
X60242Y-73996D01*
X60848Y-59455D02*
X58048Y-59455D01*
X58048Y-59455D02*
X58048Y-58655D01*
X58048Y-58655D02*
X60848Y-58655D01*
X60848Y-58655D02*
X60848Y-59455D01*
X60848Y-59255D02*
X60648Y-59455D01*
X35820Y-67935D02*
X35820Y-65135D01*
X35820Y-65135D02*
X36620Y-65135D01*
X36620Y-65135D02*
X36620Y-67935D01*
X36620Y-67935D02*
X35820Y-67935D01*
X36020Y-67935D02*
X35820Y-67735D01*
X24022Y-60017D02*
X24022Y-62817D01*
X24022Y-62817D02*
X23222Y-62817D01*
X23222Y-62817D02*
X23222Y-60017D01*
X23222Y-60017D02*
X24022Y-60017D01*
X23822Y-60017D02*
X24022Y-60217D01*
X70478Y-60411D02*
X70478Y-63211D01*
X70478Y-63211D02*
X69678Y-63211D01*
X69678Y-63211D02*
X69678Y-60411D01*
X69678Y-60411D02*
X70478Y-60411D01*
X70278Y-60411D02*
X70478Y-60611D01*
X83077Y-60411D02*
X83077Y-63211D01*
X83077Y-63211D02*
X82277Y-63211D01*
X82277Y-63211D02*
X82277Y-60411D01*
X82277Y-60411D02*
X83077Y-60411D01*
X82877Y-60411D02*
X83077Y-60611D01*
X74022Y-66710D02*
X74022Y-69510D01*
X74022Y-69510D02*
X73222Y-69510D01*
X73222Y-69510D02*
X73222Y-66710D01*
X73222Y-66710D02*
X74022Y-66710D01*
X73822Y-66710D02*
X74022Y-66910D01*
X84651Y-66710D02*
X84651Y-69510D01*
X84651Y-69510D02*
X83851Y-69510D01*
X83851Y-69510D02*
X83851Y-66710D01*
X83851Y-66710D02*
X84651Y-66710D01*
X84451Y-66710D02*
X84651Y-66910D01*
X70478Y-73796D02*
X70478Y-76596D01*
X70478Y-76596D02*
X69678Y-76596D01*
X69678Y-76596D02*
X69678Y-73796D01*
X69678Y-73796D02*
X70478Y-73796D01*
X70278Y-73796D02*
X70478Y-73996D01*
X83077Y-73796D02*
X83077Y-76596D01*
X83077Y-76596D02*
X82277Y-76596D01*
X82277Y-76596D02*
X82277Y-73796D01*
X82277Y-73796D02*
X83077Y-73796D01*
X82877Y-73796D02*
X83077Y-73996D01*
X34639Y-45888D02*
X34639Y-43088D01*
X34639Y-43088D02*
X35439Y-43088D01*
X35439Y-43088D02*
X35439Y-45888D01*
X35439Y-45888D02*
X34639Y-45888D01*
X34839Y-45888D02*
X34639Y-45688D01*
X48812Y-39588D02*
X48812Y-36788D01*
X48812Y-36788D02*
X49612Y-36788D01*
X49612Y-36788D02*
X49612Y-39588D01*
X49612Y-39588D02*
X48812Y-39588D01*
X49012Y-39588D02*
X48812Y-39388D01*
X48812Y-45888D02*
X48812Y-43088D01*
X48812Y-43088D02*
X49612Y-43088D01*
X49612Y-43088D02*
X49612Y-45888D01*
X49612Y-45888D02*
X48812Y-45888D01*
X49012Y-45888D02*
X48812Y-45688D01*
X47644Y-80883D02*
X47644Y-83683D01*
X47644Y-83683D02*
X46844Y-83683D01*
X46844Y-83683D02*
X46844Y-80883D01*
X46844Y-80883D02*
X47644Y-80883D01*
X47444Y-80883D02*
X47644Y-81083D01*
X57880Y-50174D02*
X57880Y-52974D01*
X57880Y-52974D02*
X57080Y-52974D01*
X57080Y-52974D02*
X57080Y-50174D01*
X57080Y-50174D02*
X57880Y-50174D01*
X57680Y-50174D02*
X57880Y-50374D01*
X75990Y-33639D02*
X75990Y-36439D01*
X75990Y-36439D02*
X75190Y-36439D01*
X75190Y-36439D02*
X75190Y-33639D01*
X75190Y-33639D02*
X75990Y-33639D01*
X75790Y-33639D02*
X75990Y-33839D01*
X75990Y-50174D02*
X75990Y-52974D01*
X75990Y-52974D02*
X75190Y-52974D01*
X75190Y-52974D02*
X75190Y-50174D01*
X75190Y-50174D02*
X75990Y-50174D01*
X75790Y-50174D02*
X75990Y-50374D01*
G54D16*
X26796Y-57086D02*
G75*
G03X26796Y-57086I-1600J0D01*
G74*
G01*
X33489Y-68897D02*
G75*
G03X33489Y-68897I-1600J0D01*
G74*
G01*
X29946Y-57086D02*
G75*
G03X29946Y-57086I-1600J0D01*
G74*
G01*
X27190Y-68897D02*
G75*
G03X27190Y-68897I-1600J0D01*
G74*
G01*
X30340Y-68897D02*
G75*
G03X30340Y-68897I-1600J0D01*
G74*
G01*
X33096Y-57086D02*
G75*
G03X33096Y-57086I-1600J0D01*
G74*
G01*
X30733Y-65354D02*
G75*
G03X30733Y-65354I-1600J0D01*
G74*
G01*
X27584Y-65354D02*
G75*
G03X27584Y-65354I-1600J0D01*
G74*
G01*
X31127Y-76771D02*
G75*
G03X31127Y-76771I-1600J0D01*
G74*
G01*
X27977Y-76771D02*
G75*
G03X27977Y-76771I-1600J0D01*
G74*
G01*
G54D11*
X59423Y-34064D02*
X59623Y-34064D01*
X59623Y-34064D02*
X59623Y-33864D01*
X59423Y-33864D02*
X59623Y-33864D01*
X59423Y-34064D02*
X59423Y-33864D01*
X59423Y-33064D02*
X59623Y-33064D01*
X59623Y-33064D02*
X59623Y-32864D01*
X59423Y-32864D02*
X59623Y-32864D01*
X59423Y-33064D02*
X59423Y-32864D01*
X60423Y-33064D02*
X60623Y-33064D01*
X60623Y-33064D02*
X60623Y-32864D01*
X60423Y-32864D02*
X60623Y-32864D01*
X60423Y-33064D02*
X60423Y-32864D01*
X60423Y-34064D02*
X60623Y-34064D01*
X60623Y-34064D02*
X60623Y-33864D01*
X60423Y-33864D02*
X60623Y-33864D01*
X60423Y-34064D02*
X60423Y-33864D01*
X61423Y-33064D02*
X61623Y-33064D01*
X61623Y-33064D02*
X61623Y-32864D01*
X61423Y-32864D02*
X61623Y-32864D01*
X61423Y-33064D02*
X61423Y-32864D01*
X61423Y-34064D02*
X61623Y-34064D01*
X61623Y-34064D02*
X61623Y-33864D01*
X61423Y-33864D02*
X61623Y-33864D01*
X61423Y-34064D02*
X61423Y-33864D01*
X62423Y-33064D02*
X62623Y-33064D01*
X62623Y-33064D02*
X62623Y-32864D01*
X62423Y-32864D02*
X62623Y-32864D01*
X62423Y-33064D02*
X62423Y-32864D01*
X62423Y-34064D02*
X62623Y-34064D01*
X62623Y-34064D02*
X62623Y-33864D01*
X62423Y-33864D02*
X62623Y-33864D01*
X62423Y-34064D02*
X62423Y-33864D01*
G54D12*
X59023Y-34214D02*
X59273Y-34464D01*
X59773Y-34464D02*
X60023Y-34214D01*
X60023Y-34214D02*
X60273Y-34464D01*
X60773Y-34464D02*
X61023Y-34214D01*
X61023Y-34214D02*
X61273Y-34464D01*
X61773Y-34464D02*
X62023Y-34214D01*
X59023Y-34214D02*
X59023Y-32714D01*
X59023Y-32714D02*
X59273Y-32464D01*
X59273Y-32464D02*
X59773Y-32464D01*
X59773Y-32464D02*
X60023Y-32714D01*
X60023Y-32714D02*
X60273Y-32464D01*
X60273Y-32464D02*
X60773Y-32464D01*
X60773Y-32464D02*
X61023Y-32714D01*
X61023Y-32714D02*
X61273Y-32464D01*
X61273Y-32464D02*
X61773Y-32464D01*
X61773Y-32464D02*
X62023Y-32714D01*
X60023Y-32714D02*
X60023Y-34214D01*
X61023Y-32714D02*
X61023Y-34214D01*
X62023Y-32714D02*
X62023Y-34214D01*
X61273Y-34464D02*
X61773Y-34464D01*
X60273Y-34464D02*
X60773Y-34464D01*
X59273Y-34464D02*
X59773Y-34464D01*
X62023Y-34214D02*
X62273Y-34464D01*
X62773Y-34464D02*
X63023Y-34214D01*
X62023Y-32714D02*
X62273Y-32464D01*
X62273Y-32464D02*
X62773Y-32464D01*
X62773Y-32464D02*
X63023Y-32714D01*
X63023Y-32714D02*
X63023Y-34214D01*
X62273Y-34464D02*
X62773Y-34464D01*
G54D11*
X86321Y-86714D02*
X86521Y-86714D01*
X86521Y-86714D02*
X86521Y-86514D01*
X86321Y-86514D02*
X86521Y-86514D01*
X86321Y-86714D02*
X86321Y-86514D01*
X85321Y-86714D02*
X85521Y-86714D01*
X85521Y-86714D02*
X85521Y-86514D01*
X85321Y-86514D02*
X85521Y-86514D01*
X85321Y-86714D02*
X85321Y-86514D01*
X84321Y-86714D02*
X84521Y-86714D01*
X84521Y-86714D02*
X84521Y-86514D01*
X84321Y-86514D02*
X84521Y-86514D01*
X84321Y-86714D02*
X84321Y-86514D01*
X83321Y-86714D02*
X83521Y-86714D01*
X83521Y-86714D02*
X83521Y-86514D01*
X83321Y-86514D02*
X83521Y-86514D01*
X83321Y-86714D02*
X83321Y-86514D01*
X82321Y-86714D02*
X82521Y-86714D01*
X82521Y-86714D02*
X82521Y-86514D01*
X82321Y-86514D02*
X82521Y-86514D01*
X82321Y-86714D02*
X82321Y-86514D01*
X81321Y-86714D02*
X81521Y-86714D01*
X81521Y-86714D02*
X81521Y-86514D01*
X81321Y-86514D02*
X81521Y-86514D01*
X81321Y-86714D02*
X81321Y-86514D01*
X80321Y-86714D02*
X80521Y-86714D01*
X80521Y-86714D02*
X80521Y-86514D01*
X80321Y-86514D02*
X80521Y-86514D01*
X80321Y-86714D02*
X80321Y-86514D01*
X79321Y-86714D02*
X79521Y-86714D01*
X79521Y-86714D02*
X79521Y-86514D01*
X79321Y-86514D02*
X79521Y-86514D01*
X79321Y-86714D02*
X79321Y-86514D01*
X78321Y-86714D02*
X78521Y-86714D01*
X78521Y-86714D02*
X78521Y-86514D01*
X78321Y-86514D02*
X78521Y-86514D01*
X78321Y-86714D02*
X78321Y-86514D01*
X77321Y-86714D02*
X77521Y-86714D01*
X77521Y-86714D02*
X77521Y-86514D01*
X77321Y-86514D02*
X77521Y-86514D01*
X77321Y-86714D02*
X77321Y-86514D01*
X76321Y-86714D02*
X76521Y-86714D01*
X76521Y-86714D02*
X76521Y-86514D01*
X76321Y-86514D02*
X76521Y-86514D01*
X76321Y-86714D02*
X76321Y-86514D01*
X75321Y-86714D02*
X75521Y-86714D01*
X75521Y-86714D02*
X75521Y-86514D01*
X75321Y-86514D02*
X75521Y-86514D01*
X75321Y-86714D02*
X75321Y-86514D01*
X74321Y-86714D02*
X74521Y-86714D01*
X74521Y-86714D02*
X74521Y-86514D01*
X74321Y-86514D02*
X74521Y-86514D01*
X74321Y-86714D02*
X74321Y-86514D01*
X73321Y-86714D02*
X73521Y-86714D01*
X73521Y-86714D02*
X73521Y-86514D01*
X73321Y-86514D02*
X73521Y-86514D01*
X73321Y-86714D02*
X73321Y-86514D01*
X72321Y-86714D02*
X72521Y-86714D01*
X72521Y-86714D02*
X72521Y-86514D01*
X72321Y-86514D02*
X72521Y-86514D01*
X72321Y-86714D02*
X72321Y-86514D01*
X71321Y-86714D02*
X71521Y-86714D01*
X71521Y-86714D02*
X71521Y-86514D01*
X71321Y-86514D02*
X71521Y-86514D01*
X71321Y-86714D02*
X71321Y-86514D01*
X70321Y-86714D02*
X70521Y-86714D01*
X70521Y-86714D02*
X70521Y-86514D01*
X70321Y-86514D02*
X70521Y-86514D01*
X70321Y-86714D02*
X70321Y-86514D01*
X69321Y-86714D02*
X69521Y-86714D01*
X69521Y-86714D02*
X69521Y-86514D01*
X69321Y-86514D02*
X69521Y-86514D01*
X69321Y-86714D02*
X69321Y-86514D01*
X68321Y-86714D02*
X68522Y-86714D01*
X68522Y-86714D02*
X68522Y-86514D01*
X68321Y-86514D02*
X68522Y-86514D01*
X68321Y-86714D02*
X68321Y-86514D01*
X87321Y-86714D02*
X87521Y-86714D01*
X87521Y-86714D02*
X87521Y-86514D01*
X87321Y-86514D02*
X87521Y-86514D01*
X87321Y-86714D02*
X87321Y-86514D01*
X88321Y-86714D02*
X88521Y-86714D01*
X88521Y-86714D02*
X88521Y-86514D01*
X88321Y-86514D02*
X88521Y-86514D01*
X88321Y-86714D02*
X88321Y-86514D01*
X89321Y-86714D02*
X89521Y-86714D01*
X89521Y-86714D02*
X89521Y-86514D01*
X89321Y-86514D02*
X89521Y-86514D01*
X89321Y-86714D02*
X89321Y-86514D01*
X90321Y-86714D02*
X90521Y-86714D01*
X90521Y-86714D02*
X90521Y-86514D01*
X90321Y-86514D02*
X90521Y-86514D01*
X90321Y-86714D02*
X90321Y-86514D01*
X91320Y-86714D02*
X91521Y-86714D01*
X91521Y-86714D02*
X91521Y-86514D01*
X91320Y-86514D02*
X91521Y-86514D01*
X91320Y-86714D02*
X91320Y-86514D01*
G54D12*
X86171Y-86114D02*
X86671Y-86114D01*
X86671Y-86114D02*
X86921Y-86364D01*
X86921Y-86364D02*
X86921Y-86864D01*
X86921Y-86864D02*
X86671Y-87114D01*
X84921Y-86364D02*
X85171Y-86114D01*
X85171Y-86114D02*
X85671Y-86114D01*
X85671Y-86114D02*
X85921Y-86364D01*
X85921Y-86364D02*
X85921Y-86864D01*
X85921Y-86864D02*
X85671Y-87114D01*
X85671Y-87114D02*
X85171Y-87114D01*
X85171Y-87114D02*
X84921Y-86864D01*
X86171Y-86114D02*
X85921Y-86364D01*
X85921Y-86864D02*
X86171Y-87114D01*
X86671Y-87114D02*
X86171Y-87114D01*
X83171Y-86114D02*
X83671Y-86114D01*
X83671Y-86114D02*
X83921Y-86364D01*
X83921Y-86364D02*
X83921Y-86864D01*
X83921Y-86864D02*
X83671Y-87114D01*
X83921Y-86364D02*
X84171Y-86114D01*
X84171Y-86114D02*
X84671Y-86114D01*
X84671Y-86114D02*
X84921Y-86364D01*
X84921Y-86364D02*
X84921Y-86864D01*
X84921Y-86864D02*
X84671Y-87114D01*
X84671Y-87114D02*
X84171Y-87114D01*
X84171Y-87114D02*
X83921Y-86864D01*
X81921Y-86364D02*
X82171Y-86114D01*
X82171Y-86114D02*
X82671Y-86114D01*
X82671Y-86114D02*
X82921Y-86364D01*
X82921Y-86364D02*
X82921Y-86864D01*
X82921Y-86864D02*
X82671Y-87114D01*
X82671Y-87114D02*
X82171Y-87114D01*
X82171Y-87114D02*
X81921Y-86864D01*
X83171Y-86114D02*
X82921Y-86364D01*
X82921Y-86864D02*
X83171Y-87114D01*
X83671Y-87114D02*
X83171Y-87114D01*
X80171Y-86114D02*
X80671Y-86114D01*
X80671Y-86114D02*
X80921Y-86364D01*
X80921Y-86364D02*
X80921Y-86864D01*
X80921Y-86864D02*
X80671Y-87114D01*
X80921Y-86364D02*
X81171Y-86114D01*
X81171Y-86114D02*
X81671Y-86114D01*
X81671Y-86114D02*
X81921Y-86364D01*
X81921Y-86364D02*
X81921Y-86864D01*
X81921Y-86864D02*
X81671Y-87114D01*
X81671Y-87114D02*
X81171Y-87114D01*
X81171Y-87114D02*
X80921Y-86864D01*
X78921Y-86364D02*
X79171Y-86114D01*
X79171Y-86114D02*
X79671Y-86114D01*
X79671Y-86114D02*
X79921Y-86364D01*
X79921Y-86364D02*
X79921Y-86864D01*
X79921Y-86864D02*
X79671Y-87114D01*
X79671Y-87114D02*
X79171Y-87114D01*
X79171Y-87114D02*
X78921Y-86864D01*
X80171Y-86114D02*
X79921Y-86364D01*
X79921Y-86864D02*
X80171Y-87114D01*
X80671Y-87114D02*
X80171Y-87114D01*
X77171Y-86114D02*
X77671Y-86114D01*
X77671Y-86114D02*
X77921Y-86364D01*
X77921Y-86364D02*
X77921Y-86864D01*
X77921Y-86864D02*
X77671Y-87114D01*
X77921Y-86364D02*
X78171Y-86114D01*
X78171Y-86114D02*
X78671Y-86114D01*
X78671Y-86114D02*
X78921Y-86364D01*
X78921Y-86364D02*
X78921Y-86864D01*
X78921Y-86864D02*
X78671Y-87114D01*
X78671Y-87114D02*
X78171Y-87114D01*
X78171Y-87114D02*
X77921Y-86864D01*
X75921Y-86364D02*
X76171Y-86114D01*
X76171Y-86114D02*
X76671Y-86114D01*
X76671Y-86114D02*
X76921Y-86364D01*
X76921Y-86364D02*
X76921Y-86864D01*
X76921Y-86864D02*
X76671Y-87114D01*
X76671Y-87114D02*
X76171Y-87114D01*
X76171Y-87114D02*
X75921Y-86864D01*
X77171Y-86114D02*
X76921Y-86364D01*
X76921Y-86864D02*
X77171Y-87114D01*
X77671Y-87114D02*
X77171Y-87114D01*
X74171Y-86114D02*
X74671Y-86114D01*
X74671Y-86114D02*
X74921Y-86364D01*
X74921Y-86364D02*
X74921Y-86864D01*
X74921Y-86864D02*
X74671Y-87114D01*
X74921Y-86364D02*
X75171Y-86114D01*
X75171Y-86114D02*
X75671Y-86114D01*
X75671Y-86114D02*
X75921Y-86364D01*
X75921Y-86364D02*
X75921Y-86864D01*
X75921Y-86864D02*
X75671Y-87114D01*
X75671Y-87114D02*
X75171Y-87114D01*
X75171Y-87114D02*
X74921Y-86864D01*
X72921Y-86364D02*
X73171Y-86114D01*
X73171Y-86114D02*
X73671Y-86114D01*
X73671Y-86114D02*
X73921Y-86364D01*
X73921Y-86364D02*
X73921Y-86864D01*
X73921Y-86864D02*
X73671Y-87114D01*
X73671Y-87114D02*
X73171Y-87114D01*
X73171Y-87114D02*
X72921Y-86864D01*
X74171Y-86114D02*
X73921Y-86364D01*
X73921Y-86864D02*
X74171Y-87114D01*
X74671Y-87114D02*
X74171Y-87114D01*
X71171Y-86114D02*
X71671Y-86114D01*
X71671Y-86114D02*
X71921Y-86364D01*
X71921Y-86364D02*
X71921Y-86864D01*
X71921Y-86864D02*
X71671Y-87114D01*
X71921Y-86364D02*
X72171Y-86114D01*
X72171Y-86114D02*
X72671Y-86114D01*
X72671Y-86114D02*
X72921Y-86364D01*
X72921Y-86364D02*
X72921Y-86864D01*
X72921Y-86864D02*
X72671Y-87114D01*
X72671Y-87114D02*
X72171Y-87114D01*
X72171Y-87114D02*
X71921Y-86864D01*
X69921Y-86364D02*
X70171Y-86114D01*
X70171Y-86114D02*
X70671Y-86114D01*
X70671Y-86114D02*
X70921Y-86364D01*
X70921Y-86364D02*
X70921Y-86864D01*
X70921Y-86864D02*
X70671Y-87114D01*
X70671Y-87114D02*
X70171Y-87114D01*
X70171Y-87114D02*
X69921Y-86864D01*
X71171Y-86114D02*
X70921Y-86364D01*
X70921Y-86864D02*
X71171Y-87114D01*
X71671Y-87114D02*
X71171Y-87114D01*
X68171Y-86114D02*
X68671Y-86114D01*
X68671Y-86114D02*
X68921Y-86364D01*
X68921Y-86364D02*
X68921Y-86864D01*
X68921Y-86864D02*
X68671Y-87114D01*
X68921Y-86364D02*
X69171Y-86114D01*
X69171Y-86114D02*
X69671Y-86114D01*
X69671Y-86114D02*
X69921Y-86364D01*
X69921Y-86364D02*
X69921Y-86864D01*
X69921Y-86864D02*
X69671Y-87114D01*
X69671Y-87114D02*
X69171Y-87114D01*
X69171Y-87114D02*
X68921Y-86864D01*
X67921Y-86364D02*
X67921Y-86864D01*
X68171Y-86114D02*
X67921Y-86364D01*
X67921Y-86864D02*
X68171Y-87114D01*
X68671Y-87114D02*
X68171Y-87114D01*
X87171Y-86114D02*
X87671Y-86114D01*
X87671Y-86114D02*
X87921Y-86364D01*
X87921Y-86864D02*
X87671Y-87114D01*
X87171Y-86114D02*
X86921Y-86364D01*
X86921Y-86864D02*
X87171Y-87114D01*
X87671Y-87114D02*
X87171Y-87114D01*
X88171Y-86114D02*
X88671Y-86114D01*
X88671Y-86114D02*
X88921Y-86364D01*
X88921Y-86364D02*
X88921Y-86864D01*
X88921Y-86864D02*
X88671Y-87114D01*
X87921Y-86364D02*
X87921Y-86864D01*
X88171Y-86114D02*
X87921Y-86364D01*
X87921Y-86864D02*
X88171Y-87114D01*
X88671Y-87114D02*
X88171Y-87114D01*
X89171Y-86114D02*
X89671Y-86114D01*
X89671Y-86114D02*
X89921Y-86364D01*
X89921Y-86864D02*
X89671Y-87114D01*
X89171Y-86114D02*
X88921Y-86364D01*
X88921Y-86864D02*
X89171Y-87114D01*
X89671Y-87114D02*
X89171Y-87114D01*
X90171Y-86114D02*
X90671Y-86114D01*
X90671Y-86114D02*
X90921Y-86364D01*
X90921Y-86364D02*
X90921Y-86864D01*
X90921Y-86864D02*
X90671Y-87114D01*
X89921Y-86364D02*
X89921Y-86864D01*
X90171Y-86114D02*
X89921Y-86364D01*
X89921Y-86864D02*
X90171Y-87114D01*
X90671Y-87114D02*
X90171Y-87114D01*
X91171Y-86114D02*
X91671Y-86114D01*
X91671Y-86114D02*
X91921Y-86364D01*
X91921Y-86364D02*
X91921Y-86864D01*
X91921Y-86864D02*
X91671Y-87114D01*
X91171Y-86114D02*
X90921Y-86364D01*
X90921Y-86864D02*
X91171Y-87114D01*
X91671Y-87114D02*
X91171Y-87114D01*
G54D11*
X40258Y-86714D02*
X40458Y-86714D01*
X40458Y-86714D02*
X40458Y-86514D01*
X40258Y-86514D02*
X40458Y-86514D01*
X40258Y-86714D02*
X40258Y-86514D01*
X39258Y-86714D02*
X39458Y-86714D01*
X39458Y-86714D02*
X39458Y-86514D01*
X39258Y-86514D02*
X39458Y-86514D01*
X39258Y-86714D02*
X39258Y-86514D01*
X38258Y-86714D02*
X38458Y-86714D01*
X38458Y-86714D02*
X38458Y-86514D01*
X38258Y-86514D02*
X38458Y-86514D01*
X38258Y-86714D02*
X38258Y-86514D01*
X37258Y-86714D02*
X37458Y-86714D01*
X37458Y-86714D02*
X37458Y-86514D01*
X37258Y-86514D02*
X37458Y-86514D01*
X37258Y-86714D02*
X37258Y-86514D01*
X36258Y-86714D02*
X36458Y-86714D01*
X36458Y-86714D02*
X36458Y-86514D01*
X36258Y-86514D02*
X36458Y-86514D01*
X36258Y-86714D02*
X36258Y-86514D01*
X35258Y-86714D02*
X35458Y-86714D01*
X35458Y-86714D02*
X35458Y-86514D01*
X35258Y-86514D02*
X35458Y-86514D01*
X35258Y-86714D02*
X35258Y-86514D01*
X34258Y-86714D02*
X34458Y-86714D01*
X34458Y-86714D02*
X34458Y-86514D01*
X34258Y-86514D02*
X34458Y-86514D01*
X34258Y-86714D02*
X34258Y-86514D01*
X33258Y-86714D02*
X33458Y-86714D01*
X33458Y-86714D02*
X33458Y-86514D01*
X33258Y-86514D02*
X33458Y-86514D01*
X33258Y-86714D02*
X33258Y-86514D01*
X32258Y-86714D02*
X32458Y-86714D01*
X32458Y-86714D02*
X32458Y-86514D01*
X32258Y-86514D02*
X32458Y-86514D01*
X32258Y-86714D02*
X32258Y-86514D01*
X31258Y-86714D02*
X31458Y-86714D01*
X31458Y-86714D02*
X31458Y-86514D01*
X31258Y-86514D02*
X31458Y-86514D01*
X31258Y-86714D02*
X31258Y-86514D01*
X30258Y-86714D02*
X30458Y-86714D01*
X30458Y-86714D02*
X30458Y-86514D01*
X30258Y-86514D02*
X30458Y-86514D01*
X30258Y-86714D02*
X30258Y-86514D01*
X29258Y-86714D02*
X29458Y-86714D01*
X29458Y-86714D02*
X29458Y-86514D01*
X29258Y-86514D02*
X29458Y-86514D01*
X29258Y-86714D02*
X29258Y-86514D01*
X28258Y-86714D02*
X28458Y-86714D01*
X28458Y-86714D02*
X28458Y-86514D01*
X28258Y-86514D02*
X28458Y-86514D01*
X28258Y-86714D02*
X28258Y-86514D01*
X27258Y-86714D02*
X27458Y-86714D01*
X27458Y-86714D02*
X27458Y-86514D01*
X27258Y-86514D02*
X27458Y-86514D01*
X27258Y-86714D02*
X27258Y-86514D01*
X26258Y-86714D02*
X26458Y-86714D01*
X26458Y-86714D02*
X26458Y-86514D01*
X26258Y-86514D02*
X26458Y-86514D01*
X26258Y-86714D02*
X26258Y-86514D01*
X25258Y-86714D02*
X25458Y-86714D01*
X25458Y-86714D02*
X25458Y-86514D01*
X25258Y-86514D02*
X25458Y-86514D01*
X25258Y-86714D02*
X25258Y-86514D01*
X24258Y-86714D02*
X24458Y-86714D01*
X24458Y-86714D02*
X24458Y-86514D01*
X24258Y-86514D02*
X24458Y-86514D01*
X24258Y-86714D02*
X24258Y-86514D01*
X23258Y-86714D02*
X23458Y-86714D01*
X23458Y-86714D02*
X23458Y-86514D01*
X23258Y-86514D02*
X23458Y-86514D01*
X23258Y-86714D02*
X23258Y-86514D01*
X22258Y-86714D02*
X22459Y-86714D01*
X22459Y-86714D02*
X22459Y-86514D01*
X22258Y-86514D02*
X22459Y-86514D01*
X22258Y-86714D02*
X22258Y-86514D01*
X41258Y-86714D02*
X41458Y-86714D01*
X41458Y-86714D02*
X41458Y-86514D01*
X41258Y-86514D02*
X41458Y-86514D01*
X41258Y-86714D02*
X41258Y-86514D01*
X42258Y-86714D02*
X42458Y-86714D01*
X42458Y-86714D02*
X42458Y-86514D01*
X42258Y-86514D02*
X42458Y-86514D01*
X42258Y-86714D02*
X42258Y-86514D01*
X43258Y-86714D02*
X43458Y-86714D01*
X43458Y-86714D02*
X43458Y-86514D01*
X43258Y-86514D02*
X43458Y-86514D01*
X43258Y-86714D02*
X43258Y-86514D01*
X44258Y-86714D02*
X44458Y-86714D01*
X44458Y-86714D02*
X44458Y-86514D01*
X44258Y-86514D02*
X44458Y-86514D01*
X44258Y-86714D02*
X44258Y-86514D01*
X45257Y-86714D02*
X45458Y-86714D01*
X45458Y-86714D02*
X45458Y-86514D01*
X45257Y-86514D02*
X45458Y-86514D01*
X45257Y-86714D02*
X45257Y-86514D01*
G54D12*
X40108Y-86114D02*
X40608Y-86114D01*
X40608Y-86114D02*
X40858Y-86364D01*
X40858Y-86364D02*
X40858Y-86864D01*
X40858Y-86864D02*
X40608Y-87114D01*
X38858Y-86364D02*
X39108Y-86114D01*
X39108Y-86114D02*
X39608Y-86114D01*
X39608Y-86114D02*
X39858Y-86364D01*
X39858Y-86364D02*
X39858Y-86864D01*
X39858Y-86864D02*
X39608Y-87114D01*
X39608Y-87114D02*
X39108Y-87114D01*
X39108Y-87114D02*
X38858Y-86864D01*
X40108Y-86114D02*
X39858Y-86364D01*
X39858Y-86864D02*
X40108Y-87114D01*
X40608Y-87114D02*
X40108Y-87114D01*
X37108Y-86114D02*
X37608Y-86114D01*
X37608Y-86114D02*
X37858Y-86364D01*
X37858Y-86364D02*
X37858Y-86864D01*
X37858Y-86864D02*
X37608Y-87114D01*
X37858Y-86364D02*
X38108Y-86114D01*
X38108Y-86114D02*
X38608Y-86114D01*
X38608Y-86114D02*
X38858Y-86364D01*
X38858Y-86364D02*
X38858Y-86864D01*
X38858Y-86864D02*
X38608Y-87114D01*
X38608Y-87114D02*
X38108Y-87114D01*
X38108Y-87114D02*
X37858Y-86864D01*
X35858Y-86364D02*
X36108Y-86114D01*
X36108Y-86114D02*
X36608Y-86114D01*
X36608Y-86114D02*
X36858Y-86364D01*
X36858Y-86364D02*
X36858Y-86864D01*
X36858Y-86864D02*
X36608Y-87114D01*
X36608Y-87114D02*
X36108Y-87114D01*
X36108Y-87114D02*
X35858Y-86864D01*
X37108Y-86114D02*
X36858Y-86364D01*
X36858Y-86864D02*
X37108Y-87114D01*
X37608Y-87114D02*
X37108Y-87114D01*
X34108Y-86114D02*
X34608Y-86114D01*
X34608Y-86114D02*
X34858Y-86364D01*
X34858Y-86364D02*
X34858Y-86864D01*
X34858Y-86864D02*
X34608Y-87114D01*
X34858Y-86364D02*
X35108Y-86114D01*
X35108Y-86114D02*
X35608Y-86114D01*
X35608Y-86114D02*
X35858Y-86364D01*
X35858Y-86364D02*
X35858Y-86864D01*
X35858Y-86864D02*
X35608Y-87114D01*
X35608Y-87114D02*
X35108Y-87114D01*
X35108Y-87114D02*
X34858Y-86864D01*
X32858Y-86364D02*
X33108Y-86114D01*
X33108Y-86114D02*
X33608Y-86114D01*
X33608Y-86114D02*
X33858Y-86364D01*
X33858Y-86364D02*
X33858Y-86864D01*
X33858Y-86864D02*
X33608Y-87114D01*
X33608Y-87114D02*
X33108Y-87114D01*
X33108Y-87114D02*
X32858Y-86864D01*
X34108Y-86114D02*
X33858Y-86364D01*
X33858Y-86864D02*
X34108Y-87114D01*
X34608Y-87114D02*
X34108Y-87114D01*
X31108Y-86114D02*
X31608Y-86114D01*
X31608Y-86114D02*
X31858Y-86364D01*
X31858Y-86364D02*
X31858Y-86864D01*
X31858Y-86864D02*
X31608Y-87114D01*
X31858Y-86364D02*
X32108Y-86114D01*
X32108Y-86114D02*
X32608Y-86114D01*
X32608Y-86114D02*
X32858Y-86364D01*
X32858Y-86364D02*
X32858Y-86864D01*
X32858Y-86864D02*
X32608Y-87114D01*
X32608Y-87114D02*
X32108Y-87114D01*
X32108Y-87114D02*
X31858Y-86864D01*
X29858Y-86364D02*
X30108Y-86114D01*
X30108Y-86114D02*
X30608Y-86114D01*
X30608Y-86114D02*
X30858Y-86364D01*
X30858Y-86364D02*
X30858Y-86864D01*
X30858Y-86864D02*
X30608Y-87114D01*
X30608Y-87114D02*
X30108Y-87114D01*
X30108Y-87114D02*
X29858Y-86864D01*
X31108Y-86114D02*
X30858Y-86364D01*
X30858Y-86864D02*
X31108Y-87114D01*
X31608Y-87114D02*
X31108Y-87114D01*
X28108Y-86114D02*
X28608Y-86114D01*
X28608Y-86114D02*
X28858Y-86364D01*
X28858Y-86364D02*
X28858Y-86864D01*
X28858Y-86864D02*
X28608Y-87114D01*
X28858Y-86364D02*
X29108Y-86114D01*
X29108Y-86114D02*
X29608Y-86114D01*
X29608Y-86114D02*
X29858Y-86364D01*
X29858Y-86364D02*
X29858Y-86864D01*
X29858Y-86864D02*
X29608Y-87114D01*
X29608Y-87114D02*
X29108Y-87114D01*
X29108Y-87114D02*
X28858Y-86864D01*
X26858Y-86364D02*
X27108Y-86114D01*
X27108Y-86114D02*
X27608Y-86114D01*
X27608Y-86114D02*
X27858Y-86364D01*
X27858Y-86364D02*
X27858Y-86864D01*
X27858Y-86864D02*
X27608Y-87114D01*
X27608Y-87114D02*
X27108Y-87114D01*
X27108Y-87114D02*
X26858Y-86864D01*
X28108Y-86114D02*
X27858Y-86364D01*
X27858Y-86864D02*
X28108Y-87114D01*
X28608Y-87114D02*
X28108Y-87114D01*
X25108Y-86114D02*
X25608Y-86114D01*
X25608Y-86114D02*
X25858Y-86364D01*
X25858Y-86364D02*
X25858Y-86864D01*
X25858Y-86864D02*
X25608Y-87114D01*
X25858Y-86364D02*
X26108Y-86114D01*
X26108Y-86114D02*
X26608Y-86114D01*
X26608Y-86114D02*
X26858Y-86364D01*
X26858Y-86364D02*
X26858Y-86864D01*
X26858Y-86864D02*
X26608Y-87114D01*
X26608Y-87114D02*
X26108Y-87114D01*
X26108Y-87114D02*
X25858Y-86864D01*
X23858Y-86364D02*
X24108Y-86114D01*
X24108Y-86114D02*
X24608Y-86114D01*
X24608Y-86114D02*
X24858Y-86364D01*
X24858Y-86364D02*
X24858Y-86864D01*
X24858Y-86864D02*
X24608Y-87114D01*
X24608Y-87114D02*
X24108Y-87114D01*
X24108Y-87114D02*
X23858Y-86864D01*
X25108Y-86114D02*
X24858Y-86364D01*
X24858Y-86864D02*
X25108Y-87114D01*
X25608Y-87114D02*
X25108Y-87114D01*
X22108Y-86114D02*
X22608Y-86114D01*
X22608Y-86114D02*
X22858Y-86364D01*
X22858Y-86364D02*
X22858Y-86864D01*
X22858Y-86864D02*
X22608Y-87114D01*
X22858Y-86364D02*
X23108Y-86114D01*
X23108Y-86114D02*
X23608Y-86114D01*
X23608Y-86114D02*
X23858Y-86364D01*
X23858Y-86364D02*
X23858Y-86864D01*
X23858Y-86864D02*
X23608Y-87114D01*
X23608Y-87114D02*
X23108Y-87114D01*
X23108Y-87114D02*
X22858Y-86864D01*
X21858Y-86364D02*
X21858Y-86864D01*
X22108Y-86114D02*
X21858Y-86364D01*
X21858Y-86864D02*
X22108Y-87114D01*
X22608Y-87114D02*
X22108Y-87114D01*
X41108Y-86114D02*
X41608Y-86114D01*
X41608Y-86114D02*
X41858Y-86364D01*
X41858Y-86864D02*
X41608Y-87114D01*
X41108Y-86114D02*
X40858Y-86364D01*
X40858Y-86864D02*
X41108Y-87114D01*
X41608Y-87114D02*
X41108Y-87114D01*
X42108Y-86114D02*
X42608Y-86114D01*
X42608Y-86114D02*
X42858Y-86364D01*
X42858Y-86364D02*
X42858Y-86864D01*
X42858Y-86864D02*
X42608Y-87114D01*
X41858Y-86364D02*
X41858Y-86864D01*
X42108Y-86114D02*
X41858Y-86364D01*
X41858Y-86864D02*
X42108Y-87114D01*
X42608Y-87114D02*
X42108Y-87114D01*
X43108Y-86114D02*
X43608Y-86114D01*
X43608Y-86114D02*
X43858Y-86364D01*
X43858Y-86864D02*
X43608Y-87114D01*
X43108Y-86114D02*
X42858Y-86364D01*
X42858Y-86864D02*
X43108Y-87114D01*
X43608Y-87114D02*
X43108Y-87114D01*
X44108Y-86114D02*
X44608Y-86114D01*
X44608Y-86114D02*
X44858Y-86364D01*
X44858Y-86364D02*
X44858Y-86864D01*
X44858Y-86864D02*
X44608Y-87114D01*
X43858Y-86364D02*
X43858Y-86864D01*
X44108Y-86114D02*
X43858Y-86364D01*
X43858Y-86864D02*
X44108Y-87114D01*
X44608Y-87114D02*
X44108Y-87114D01*
X45108Y-86114D02*
X45608Y-86114D01*
X45608Y-86114D02*
X45858Y-86364D01*
X45858Y-86364D02*
X45858Y-86864D01*
X45858Y-86864D02*
X45608Y-87114D01*
X45108Y-86114D02*
X44858Y-86364D01*
X44858Y-86864D02*
X45108Y-87114D01*
X45608Y-87114D02*
X45108Y-87114D01*
G54D11*
X26477Y-83564D02*
X26477Y-83364D01*
X26477Y-83364D02*
X26277Y-83364D01*
X26277Y-83564D02*
X26277Y-83364D01*
X26477Y-83564D02*
X26277Y-83564D01*
X26477Y-84564D02*
X26477Y-84364D01*
X26477Y-84364D02*
X26277Y-84364D01*
X26277Y-84564D02*
X26277Y-84364D01*
X26477Y-84564D02*
X26277Y-84564D01*
X26477Y-82564D02*
X26477Y-82364D01*
X26477Y-82364D02*
X26277Y-82364D01*
X26277Y-82564D02*
X26277Y-82364D01*
X26477Y-82564D02*
X26277Y-82564D01*
G54D12*
X25877Y-84714D02*
X25877Y-84214D01*
X25877Y-84214D02*
X26127Y-83964D01*
X26127Y-83964D02*
X26627Y-83964D01*
X26627Y-83964D02*
X26877Y-84214D01*
X26127Y-83964D02*
X25877Y-83714D01*
X25877Y-83714D02*
X25877Y-83214D01*
X25877Y-83214D02*
X26127Y-82964D01*
X26127Y-82964D02*
X26627Y-82964D01*
X26627Y-82964D02*
X26877Y-83214D01*
X26877Y-83214D02*
X26877Y-83714D01*
X26877Y-83714D02*
X26627Y-83964D01*
X26127Y-84964D02*
X26627Y-84964D01*
X25877Y-84714D02*
X26127Y-84964D01*
X26627Y-84964D02*
X26877Y-84714D01*
X26877Y-84214D02*
X26877Y-84714D01*
X26127Y-82964D02*
X25877Y-82714D01*
X25877Y-82714D02*
X25877Y-82214D01*
X25877Y-82214D02*
X26127Y-81964D01*
X26127Y-81964D02*
X26627Y-81964D01*
X26627Y-81964D02*
X26877Y-82214D01*
X26877Y-82214D02*
X26877Y-82714D01*
X26877Y-82714D02*
X26627Y-82964D01*
G54D11*
X28446Y-83564D02*
X28446Y-83364D01*
X28446Y-83364D02*
X28246Y-83364D01*
X28246Y-83564D02*
X28246Y-83364D01*
X28446Y-83564D02*
X28246Y-83564D01*
X28446Y-84564D02*
X28446Y-84364D01*
X28446Y-84364D02*
X28246Y-84364D01*
X28246Y-84564D02*
X28246Y-84364D01*
X28446Y-84564D02*
X28246Y-84564D01*
X28446Y-82564D02*
X28446Y-82364D01*
X28446Y-82364D02*
X28246Y-82364D01*
X28246Y-82564D02*
X28246Y-82364D01*
X28446Y-82564D02*
X28246Y-82564D01*
G54D12*
X27846Y-84714D02*
X27846Y-84214D01*
X27846Y-84214D02*
X28096Y-83964D01*
X28096Y-83964D02*
X28596Y-83964D01*
X28596Y-83964D02*
X28846Y-84214D01*
X28096Y-83964D02*
X27846Y-83714D01*
X27846Y-83714D02*
X27846Y-83214D01*
X27846Y-83214D02*
X28096Y-82964D01*
X28096Y-82964D02*
X28596Y-82964D01*
X28596Y-82964D02*
X28846Y-83214D01*
X28846Y-83214D02*
X28846Y-83714D01*
X28846Y-83714D02*
X28596Y-83964D01*
X28096Y-84964D02*
X28596Y-84964D01*
X27846Y-84714D02*
X28096Y-84964D01*
X28596Y-84964D02*
X28846Y-84714D01*
X28846Y-84214D02*
X28846Y-84714D01*
X28096Y-82964D02*
X27846Y-82714D01*
X27846Y-82714D02*
X27846Y-82214D01*
X27846Y-82214D02*
X28096Y-81964D01*
X28096Y-81964D02*
X28596Y-81964D01*
X28596Y-81964D02*
X28846Y-82214D01*
X28846Y-82214D02*
X28846Y-82714D01*
X28846Y-82714D02*
X28596Y-82964D01*
G54D14*
X58641Y-53043D02*
X58641Y-53043D01*
X58641Y-53043D02*
X59141Y-53043D01*
X59141Y-53043D02*
X59141Y-54043D01*
X59141Y-54043D02*
X58641Y-54043D01*
X58641Y-51043D02*
X73641Y-51043D01*
X73641Y-51043D02*
X73641Y-56043D01*
X73641Y-56043D02*
X58641Y-56043D01*
X58641Y-56043D02*
X58641Y-51043D01*
G54D15*
X59811Y-47637D02*
X60211Y-47637D01*
X60211Y-47637D02*
X60211Y-47237D01*
X60211Y-47237D02*
X63411Y-47237D01*
X63411Y-47237D02*
X63411Y-48037D01*
X63411Y-48037D02*
X60211Y-48037D01*
X60211Y-48037D02*
X60211Y-47637D01*
X60211Y-47437D02*
X60411Y-47237D01*
X63811Y-47637D02*
X63411Y-47637D01*
X24377Y-51574D02*
X24777Y-51574D01*
X24777Y-51574D02*
X24777Y-51174D01*
X24777Y-51174D02*
X27977Y-51174D01*
X27977Y-51174D02*
X27977Y-51974D01*
X27977Y-51974D02*
X24777Y-51974D01*
X24777Y-51974D02*
X24777Y-51574D01*
X24777Y-51374D02*
X24977Y-51174D01*
X28377Y-51574D02*
X27977Y-51574D01*
X24377Y-50000D02*
X24777Y-50000D01*
X24777Y-50000D02*
X24777Y-49600D01*
X24777Y-49600D02*
X27977Y-49600D01*
X27977Y-49600D02*
X27977Y-50400D01*
X27977Y-50400D02*
X24777Y-50400D01*
X24777Y-50400D02*
X24777Y-50000D01*
X24777Y-49800D02*
X24977Y-49600D01*
X28377Y-50000D02*
X27977Y-50000D01*
X25196Y-39401D02*
X25196Y-39001D01*
X25196Y-39001D02*
X24796Y-39001D01*
X24796Y-39001D02*
X24796Y-35801D01*
X24796Y-35801D02*
X25596Y-35801D01*
X25596Y-35801D02*
X25596Y-39001D01*
X25596Y-39001D02*
X25196Y-39001D01*
X24996Y-39001D02*
X24796Y-38801D01*
X25196Y-35401D02*
X25196Y-35801D01*
X24015Y-39401D02*
X24015Y-39001D01*
X24015Y-39001D02*
X23615Y-39001D01*
X23615Y-39001D02*
X23615Y-35801D01*
X23615Y-35801D02*
X24415Y-35801D01*
X24415Y-35801D02*
X24415Y-39001D01*
X24415Y-39001D02*
X24015Y-39001D01*
X23815Y-39001D02*
X23615Y-38801D01*
X24015Y-35401D02*
X24015Y-35801D01*
X24377Y-48425D02*
X24777Y-48425D01*
X24777Y-48425D02*
X24777Y-48025D01*
X24777Y-48025D02*
X27977Y-48025D01*
X27977Y-48025D02*
X27977Y-48825D01*
X27977Y-48825D02*
X24777Y-48825D01*
X24777Y-48825D02*
X24777Y-48425D01*
X24777Y-48225D02*
X24977Y-48025D01*
X28377Y-48425D02*
X27977Y-48425D01*
X24377Y-53149D02*
X24777Y-53149D01*
X24777Y-53149D02*
X24777Y-52749D01*
X24777Y-52749D02*
X27977Y-52749D01*
X27977Y-52749D02*
X27977Y-53549D01*
X27977Y-53549D02*
X24777Y-53549D01*
X24777Y-53549D02*
X24777Y-53149D01*
X24777Y-52949D02*
X24977Y-52749D01*
X28377Y-53149D02*
X27977Y-53149D01*
X65716Y-47637D02*
X66116Y-47637D01*
X66116Y-47637D02*
X66116Y-47237D01*
X66116Y-47237D02*
X69316Y-47237D01*
X69316Y-47237D02*
X69316Y-48037D01*
X69316Y-48037D02*
X66116Y-48037D01*
X66116Y-48037D02*
X66116Y-47637D01*
X66116Y-47437D02*
X66316Y-47237D01*
X69716Y-47637D02*
X69316Y-47637D01*
X25559Y-79921D02*
X25959Y-79921D01*
X25959Y-79921D02*
X25959Y-79521D01*
X25959Y-79521D02*
X29159Y-79521D01*
X29159Y-79521D02*
X29159Y-80321D01*
X29159Y-80321D02*
X25959Y-80321D01*
X25959Y-80321D02*
X25959Y-79921D01*
X25959Y-79721D02*
X26159Y-79521D01*
X29559Y-79921D02*
X29159Y-79921D01*
X63354Y-40551D02*
X63754Y-40551D01*
X63754Y-40551D02*
X63754Y-40151D01*
X63754Y-40151D02*
X66954Y-40151D01*
X66954Y-40151D02*
X66954Y-40951D01*
X66954Y-40951D02*
X63754Y-40951D01*
X63754Y-40951D02*
X63754Y-40551D01*
X63754Y-40351D02*
X63954Y-40151D01*
X67354Y-40551D02*
X66954Y-40551D01*
X69466Y-40151D02*
X72266Y-40151D01*
X72266Y-40151D02*
X72266Y-40951D01*
X72266Y-40951D02*
X69466Y-40951D01*
X69466Y-40951D02*
X69466Y-40151D01*
X69466Y-40351D02*
X69666Y-40151D01*
G54D16*
X74828Y-46850D02*
G75*
G03X74828Y-46850I-1600J0D01*
G74*
G01*
X33489Y-83070D02*
G75*
G03X33489Y-83070I-1600J0D01*
G74*
G01*
G54D17*
X22306Y-34292D02*
X22306Y-33992D01*
X22378Y-33992D01*
X22421Y-34006D01*
X22449Y-34035D01*
X22464Y-34063D01*
X22478Y-34120D01*
X22478Y-34163D01*
X22464Y-34220D01*
X22449Y-34249D01*
X22421Y-34278D01*
X22378Y-34292D01*
X22306Y-34292D01*
X22764Y-34292D02*
X22592Y-34292D01*
X22678Y-34292D02*
X22678Y-33992D01*
X22649Y-34035D01*
X22621Y-34063D01*
X22592Y-34078D01*
X22421Y-32192D02*
X22421Y-31892D01*
X22564Y-32192D02*
X22564Y-31892D01*
X22635Y-31892D01*
X22678Y-31906D01*
X22706Y-31935D01*
X22721Y-31963D01*
X22735Y-32020D01*
X22735Y-32063D01*
X22721Y-32120D01*
X22706Y-32149D01*
X22678Y-32178D01*
X22635Y-32192D01*
X22564Y-32192D01*
X22864Y-32035D02*
X22964Y-32035D01*
X23006Y-32192D02*
X22864Y-32192D01*
X22864Y-31892D01*
X23006Y-31892D01*
X23064Y-32220D02*
X23292Y-32220D01*
X23506Y-32192D02*
X23364Y-32192D01*
X23364Y-31892D01*
X23606Y-32035D02*
X23706Y-32035D01*
X23749Y-32192D02*
X23606Y-32192D01*
X23606Y-31892D01*
X23749Y-31892D01*
X23878Y-32192D02*
X23878Y-31892D01*
X23949Y-31892D01*
X23992Y-31906D01*
X24021Y-31935D01*
X24035Y-31963D01*
X24049Y-32020D01*
X24049Y-32063D01*
X24035Y-32120D01*
X24021Y-32149D01*
X23992Y-32178D01*
X23949Y-32192D01*
X23878Y-32192D01*
G54D18*
X37612Y-58713D02*
X37612Y-59279D01*
X37633Y-59346D01*
X37655Y-59379D01*
X37697Y-59413D01*
X37783Y-59413D01*
X37826Y-59379D01*
X37847Y-59346D01*
X37869Y-59279D01*
X37869Y-58713D01*
X38062Y-58779D02*
X38083Y-58746D01*
X38126Y-58713D01*
X38233Y-58713D01*
X38276Y-58746D01*
X38297Y-58779D01*
X38319Y-58846D01*
X38319Y-58913D01*
X38297Y-59013D01*
X38040Y-59413D01*
X38319Y-59413D01*
X38705Y-58713D02*
X38619Y-58713D01*
X38576Y-58746D01*
X38555Y-58779D01*
X38512Y-58879D01*
X38490Y-59013D01*
X38490Y-59279D01*
X38512Y-59346D01*
X38533Y-59379D01*
X38576Y-59413D01*
X38662Y-59413D01*
X38705Y-59379D01*
X38726Y-59346D01*
X38747Y-59279D01*
X38747Y-59113D01*
X38726Y-59046D01*
X38705Y-59013D01*
X38662Y-58979D01*
X38576Y-58979D01*
X38533Y-59013D01*
X38512Y-59046D01*
X38490Y-59113D01*
G54D15*
X43635Y-61213D02*
X44035Y-61213D01*
X43835Y-61913D02*
X43835Y-61213D01*
X44269Y-61913D02*
X44269Y-61213D01*
X44969Y-61913D02*
X44569Y-61913D01*
X44769Y-61913D02*
X44769Y-61213D01*
X44702Y-61313D01*
X44635Y-61379D01*
X44569Y-61413D01*
X45569Y-61213D02*
X45435Y-61213D01*
X45369Y-61246D01*
X45335Y-61279D01*
X45269Y-61379D01*
X45235Y-61513D01*
X45235Y-61779D01*
X45269Y-61846D01*
X45302Y-61879D01*
X45369Y-61913D01*
X45502Y-61913D01*
X45569Y-61879D01*
X45602Y-61846D01*
X45635Y-61779D01*
X45635Y-61613D01*
X45602Y-61546D01*
X45569Y-61513D01*
X45502Y-61479D01*
X45369Y-61479D01*
X45302Y-61513D01*
X45269Y-61546D01*
X45235Y-61613D01*
X46269Y-61213D02*
X45935Y-61213D01*
X45902Y-61546D01*
X45935Y-61513D01*
X46002Y-61479D01*
X46169Y-61479D01*
X46235Y-61513D01*
X46269Y-61546D01*
X46302Y-61613D01*
X46302Y-61779D01*
X46269Y-61846D01*
X46235Y-61879D01*
X46169Y-61913D01*
X46002Y-61913D01*
X45935Y-61879D01*
X45902Y-61846D01*
X46935Y-61213D02*
X46602Y-61213D01*
X46569Y-61546D01*
X46602Y-61513D01*
X46669Y-61479D01*
X46835Y-61479D01*
X46902Y-61513D01*
X46935Y-61546D01*
X46969Y-61613D01*
X46969Y-61779D01*
X46935Y-61846D01*
X46902Y-61879D01*
X46835Y-61913D01*
X46669Y-61913D01*
X46602Y-61879D01*
X46569Y-61846D01*
X47402Y-61213D02*
X47469Y-61213D01*
X47535Y-61246D01*
X47569Y-61279D01*
X47602Y-61346D01*
X47635Y-61479D01*
X47635Y-61646D01*
X47602Y-61779D01*
X47569Y-61846D01*
X47535Y-61879D01*
X47469Y-61913D01*
X47402Y-61913D01*
X47335Y-61879D01*
X47302Y-61846D01*
X47269Y-61779D01*
X47235Y-61646D01*
X47235Y-61479D01*
X47269Y-61346D01*
X47302Y-61279D01*
X47335Y-61246D01*
X47402Y-61213D01*
G54D18*
X29165Y-35091D02*
X29165Y-35657D01*
X29186Y-35724D01*
X29207Y-35757D01*
X29250Y-35791D01*
X29336Y-35791D01*
X29379Y-35757D01*
X29400Y-35724D01*
X29422Y-35657D01*
X29422Y-35091D01*
X29615Y-35157D02*
X29636Y-35124D01*
X29679Y-35091D01*
X29786Y-35091D01*
X29829Y-35124D01*
X29850Y-35157D01*
X29872Y-35224D01*
X29872Y-35291D01*
X29850Y-35391D01*
X29593Y-35791D01*
X29872Y-35791D01*
G54D15*
X35941Y-37891D02*
X35874Y-37857D01*
X35841Y-37824D01*
X35807Y-37757D01*
X35807Y-37724D01*
X35841Y-37657D01*
X35874Y-37624D01*
X35941Y-37591D01*
X36074Y-37591D01*
X36141Y-37624D01*
X36174Y-37657D01*
X36207Y-37724D01*
X36207Y-37757D01*
X36174Y-37824D01*
X36141Y-37857D01*
X36074Y-37891D01*
X35941Y-37891D01*
X35874Y-37924D01*
X35841Y-37957D01*
X35807Y-38024D01*
X35807Y-38157D01*
X35841Y-38224D01*
X35874Y-38257D01*
X35941Y-38291D01*
X36074Y-38291D01*
X36141Y-38257D01*
X36174Y-38224D01*
X36207Y-38157D01*
X36207Y-38024D01*
X36174Y-37957D01*
X36141Y-37924D01*
X36074Y-37891D01*
X36474Y-37657D02*
X36507Y-37624D01*
X36574Y-37591D01*
X36741Y-37591D01*
X36807Y-37624D01*
X36841Y-37657D01*
X36874Y-37724D01*
X36874Y-37791D01*
X36841Y-37891D01*
X36441Y-38291D01*
X36874Y-38291D01*
X37507Y-37591D02*
X37174Y-37591D01*
X37141Y-37924D01*
X37174Y-37891D01*
X37241Y-37857D01*
X37407Y-37857D01*
X37474Y-37891D01*
X37507Y-37924D01*
X37541Y-37991D01*
X37541Y-38157D01*
X37507Y-38224D01*
X37474Y-38257D01*
X37407Y-38291D01*
X37241Y-38291D01*
X37174Y-38257D01*
X37141Y-38224D01*
X38174Y-37591D02*
X37841Y-37591D01*
X37807Y-37924D01*
X37841Y-37891D01*
X37907Y-37857D01*
X38074Y-37857D01*
X38141Y-37891D01*
X38174Y-37924D01*
X38207Y-37991D01*
X38207Y-38157D01*
X38174Y-38224D01*
X38141Y-38257D01*
X38074Y-38291D01*
X37907Y-38291D01*
X37841Y-38257D01*
X37807Y-38224D01*
G54D18*
X37612Y-70130D02*
X37612Y-70697D01*
X37633Y-70763D01*
X37655Y-70797D01*
X37697Y-70830D01*
X37783Y-70830D01*
X37826Y-70797D01*
X37847Y-70763D01*
X37869Y-70697D01*
X37869Y-70130D01*
X38319Y-70830D02*
X38062Y-70830D01*
X38190Y-70830D02*
X38190Y-70130D01*
X38147Y-70230D01*
X38105Y-70297D01*
X38062Y-70330D01*
X38469Y-70130D02*
X38769Y-70130D01*
X38576Y-70830D01*
G54D15*
X43635Y-72630D02*
X44035Y-72630D01*
X43835Y-73330D02*
X43835Y-72630D01*
X44269Y-73330D02*
X44269Y-72630D01*
X44969Y-73330D02*
X44569Y-73330D01*
X44769Y-73330D02*
X44769Y-72630D01*
X44702Y-72730D01*
X44635Y-72797D01*
X44569Y-72830D01*
X45569Y-72630D02*
X45435Y-72630D01*
X45369Y-72663D01*
X45335Y-72697D01*
X45269Y-72797D01*
X45235Y-72930D01*
X45235Y-73197D01*
X45269Y-73263D01*
X45302Y-73297D01*
X45369Y-73330D01*
X45502Y-73330D01*
X45569Y-73297D01*
X45602Y-73263D01*
X45635Y-73197D01*
X45635Y-73030D01*
X45602Y-72963D01*
X45569Y-72930D01*
X45502Y-72897D01*
X45369Y-72897D01*
X45302Y-72930D01*
X45269Y-72963D01*
X45235Y-73030D01*
X46269Y-72630D02*
X45935Y-72630D01*
X45902Y-72963D01*
X45935Y-72930D01*
X46002Y-72897D01*
X46169Y-72897D01*
X46235Y-72930D01*
X46269Y-72963D01*
X46302Y-73030D01*
X46302Y-73197D01*
X46269Y-73263D01*
X46235Y-73297D01*
X46169Y-73330D01*
X46002Y-73330D01*
X45935Y-73297D01*
X45902Y-73263D01*
X46935Y-72630D02*
X46602Y-72630D01*
X46569Y-72963D01*
X46602Y-72930D01*
X46669Y-72897D01*
X46835Y-72897D01*
X46902Y-72930D01*
X46935Y-72963D01*
X46969Y-73030D01*
X46969Y-73197D01*
X46935Y-73263D01*
X46902Y-73297D01*
X46835Y-73330D01*
X46669Y-73330D01*
X46602Y-73297D01*
X46569Y-73263D01*
X47402Y-72630D02*
X47469Y-72630D01*
X47535Y-72663D01*
X47569Y-72697D01*
X47602Y-72763D01*
X47635Y-72897D01*
X47635Y-73063D01*
X47602Y-73197D01*
X47569Y-73263D01*
X47535Y-73297D01*
X47469Y-73330D01*
X47402Y-73330D01*
X47335Y-73297D01*
X47302Y-73263D01*
X47269Y-73197D01*
X47235Y-73063D01*
X47235Y-72897D01*
X47269Y-72763D01*
X47302Y-72697D01*
X47335Y-72663D01*
X47402Y-72630D01*
X78672Y-51626D02*
X78672Y-52193D01*
X78706Y-52259D01*
X78739Y-52293D01*
X78806Y-52326D01*
X78939Y-52326D01*
X79006Y-52293D01*
X79039Y-52259D01*
X79072Y-52193D01*
X79072Y-51626D01*
X79772Y-52326D02*
X79372Y-52326D01*
X79572Y-52326D02*
X79572Y-51626D01*
X79506Y-51726D01*
X79439Y-51793D01*
X79372Y-51826D01*
X80172Y-51926D02*
X80106Y-51893D01*
X80072Y-51859D01*
X80039Y-51793D01*
X80039Y-51759D01*
X80072Y-51693D01*
X80106Y-51659D01*
X80172Y-51626D01*
X80306Y-51626D01*
X80372Y-51659D01*
X80406Y-51693D01*
X80439Y-51759D01*
X80439Y-51793D01*
X80406Y-51859D01*
X80372Y-51893D01*
X80306Y-51926D01*
X80172Y-51926D01*
X80106Y-51959D01*
X80072Y-51993D01*
X80039Y-52059D01*
X80039Y-52193D01*
X80072Y-52259D01*
X80106Y-52293D01*
X80172Y-52326D01*
X80306Y-52326D01*
X80372Y-52293D01*
X80406Y-52259D01*
X80439Y-52193D01*
X80439Y-52059D01*
X80406Y-51993D01*
X80372Y-51959D01*
X80306Y-51926D01*
X81922Y-55043D02*
X82022Y-55076D01*
X82189Y-55076D01*
X82256Y-55043D01*
X82289Y-55009D01*
X82322Y-54943D01*
X82322Y-54876D01*
X82289Y-54809D01*
X82256Y-54776D01*
X82189Y-54743D01*
X82056Y-54709D01*
X81989Y-54676D01*
X81956Y-54643D01*
X81922Y-54576D01*
X81922Y-54509D01*
X81956Y-54443D01*
X81989Y-54409D01*
X82056Y-54376D01*
X82222Y-54376D01*
X82322Y-54409D01*
X83022Y-55076D02*
X82789Y-54743D01*
X82622Y-55076D02*
X82622Y-54376D01*
X82889Y-54376D01*
X82956Y-54409D01*
X82989Y-54443D01*
X83022Y-54509D01*
X83022Y-54609D01*
X82989Y-54676D01*
X82956Y-54709D01*
X82889Y-54743D01*
X82622Y-54743D01*
X83289Y-54876D02*
X83622Y-54876D01*
X83222Y-55076D02*
X83456Y-54376D01*
X83689Y-55076D01*
X83922Y-55076D02*
X83922Y-54376D01*
X84156Y-54876D01*
X84389Y-54376D01*
X84389Y-55076D01*
X84556Y-55143D02*
X85089Y-55143D01*
X85589Y-54376D02*
X85256Y-54376D01*
X85222Y-54709D01*
X85256Y-54676D01*
X85322Y-54643D01*
X85489Y-54643D01*
X85556Y-54676D01*
X85589Y-54709D01*
X85622Y-54776D01*
X85622Y-54943D01*
X85589Y-55009D01*
X85556Y-55043D01*
X85489Y-55076D01*
X85322Y-55076D01*
X85256Y-55043D01*
X85222Y-55009D01*
X86289Y-55076D02*
X85889Y-55076D01*
X86089Y-55076D02*
X86089Y-54376D01*
X86022Y-54476D01*
X85956Y-54543D01*
X85889Y-54576D01*
X86556Y-54443D02*
X86589Y-54409D01*
X86656Y-54376D01*
X86822Y-54376D01*
X86889Y-54409D01*
X86922Y-54443D01*
X86956Y-54509D01*
X86956Y-54576D01*
X86922Y-54676D01*
X86522Y-55076D01*
X86956Y-55076D01*
X87256Y-55076D02*
X87256Y-54376D01*
X87656Y-55076D02*
X87356Y-54676D01*
X87656Y-54376D02*
X87256Y-54776D01*
X78672Y-35091D02*
X78672Y-35657D01*
X78706Y-35724D01*
X78739Y-35757D01*
X78806Y-35791D01*
X78939Y-35791D01*
X79006Y-35757D01*
X79039Y-35724D01*
X79072Y-35657D01*
X79072Y-35091D01*
X79372Y-35157D02*
X79406Y-35124D01*
X79472Y-35091D01*
X79639Y-35091D01*
X79706Y-35124D01*
X79739Y-35157D01*
X79772Y-35224D01*
X79772Y-35291D01*
X79739Y-35391D01*
X79339Y-35791D01*
X79772Y-35791D01*
X80406Y-35091D02*
X80072Y-35091D01*
X80039Y-35424D01*
X80072Y-35391D01*
X80139Y-35357D01*
X80306Y-35357D01*
X80372Y-35391D01*
X80406Y-35424D01*
X80439Y-35491D01*
X80439Y-35657D01*
X80406Y-35724D01*
X80372Y-35757D01*
X80306Y-35791D01*
X80139Y-35791D01*
X80072Y-35757D01*
X80039Y-35724D01*
X82622Y-37907D02*
X82656Y-37874D01*
X82722Y-37841D01*
X82889Y-37841D01*
X82956Y-37874D01*
X82989Y-37907D01*
X83022Y-37974D01*
X83022Y-38041D01*
X82989Y-38141D01*
X82589Y-38541D01*
X83022Y-38541D01*
X83356Y-38541D02*
X83489Y-38541D01*
X83556Y-38507D01*
X83589Y-38474D01*
X83656Y-38374D01*
X83689Y-38241D01*
X83689Y-37974D01*
X83656Y-37907D01*
X83622Y-37874D01*
X83556Y-37841D01*
X83422Y-37841D01*
X83356Y-37874D01*
X83322Y-37907D01*
X83289Y-37974D01*
X83289Y-38141D01*
X83322Y-38207D01*
X83356Y-38241D01*
X83422Y-38274D01*
X83556Y-38274D01*
X83622Y-38241D01*
X83656Y-38207D01*
X83689Y-38141D01*
X83989Y-38174D02*
X84222Y-38174D01*
X84322Y-38541D02*
X83989Y-38541D01*
X83989Y-37841D01*
X84322Y-37841D01*
X84622Y-38174D02*
X84856Y-38174D01*
X84956Y-38541D02*
X84622Y-38541D01*
X84622Y-37841D01*
X84956Y-37841D01*
X85389Y-37841D02*
X85456Y-37841D01*
X85522Y-37874D01*
X85556Y-37907D01*
X85589Y-37974D01*
X85622Y-38107D01*
X85622Y-38274D01*
X85589Y-38407D01*
X85556Y-38474D01*
X85522Y-38507D01*
X85456Y-38541D01*
X85389Y-38541D01*
X85322Y-38507D01*
X85289Y-38474D01*
X85256Y-38407D01*
X85222Y-38274D01*
X85222Y-38107D01*
X85256Y-37974D01*
X85289Y-37907D01*
X85322Y-37874D01*
X85389Y-37841D01*
X85889Y-37907D02*
X85922Y-37874D01*
X85989Y-37841D01*
X86156Y-37841D01*
X86222Y-37874D01*
X86256Y-37907D01*
X86289Y-37974D01*
X86289Y-38041D01*
X86256Y-38141D01*
X85856Y-38541D01*
X86289Y-38541D01*
X86722Y-37841D02*
X86789Y-37841D01*
X86856Y-37874D01*
X86889Y-37907D01*
X86922Y-37974D01*
X86956Y-38107D01*
X86956Y-38274D01*
X86922Y-38407D01*
X86889Y-38474D01*
X86856Y-38507D01*
X86789Y-38541D01*
X86722Y-38541D01*
X86656Y-38507D01*
X86622Y-38474D01*
X86589Y-38407D01*
X86556Y-38274D01*
X86556Y-38107D01*
X86589Y-37974D01*
X86622Y-37907D01*
X86656Y-37874D01*
X86722Y-37841D01*
X78672Y-43358D02*
X78672Y-43925D01*
X78706Y-43992D01*
X78739Y-44025D01*
X78806Y-44058D01*
X78939Y-44058D01*
X79006Y-44025D01*
X79039Y-43992D01*
X79072Y-43925D01*
X79072Y-43358D01*
X79372Y-43425D02*
X79406Y-43392D01*
X79472Y-43358D01*
X79639Y-43358D01*
X79706Y-43392D01*
X79739Y-43425D01*
X79772Y-43492D01*
X79772Y-43558D01*
X79739Y-43658D01*
X79339Y-44058D01*
X79772Y-44058D01*
X80439Y-44058D02*
X80039Y-44058D01*
X80239Y-44058D02*
X80239Y-43358D01*
X80172Y-43458D01*
X80106Y-43525D01*
X80039Y-43558D01*
X81922Y-46775D02*
X82022Y-46808D01*
X82189Y-46808D01*
X82256Y-46775D01*
X82289Y-46742D01*
X82322Y-46675D01*
X82322Y-46608D01*
X82289Y-46542D01*
X82256Y-46508D01*
X82189Y-46475D01*
X82056Y-46442D01*
X81989Y-46408D01*
X81956Y-46375D01*
X81922Y-46308D01*
X81922Y-46242D01*
X81956Y-46175D01*
X81989Y-46142D01*
X82056Y-46108D01*
X82222Y-46108D01*
X82322Y-46142D01*
X83022Y-46808D02*
X82789Y-46475D01*
X82622Y-46808D02*
X82622Y-46108D01*
X82889Y-46108D01*
X82956Y-46142D01*
X82989Y-46175D01*
X83022Y-46242D01*
X83022Y-46342D01*
X82989Y-46408D01*
X82956Y-46442D01*
X82889Y-46475D01*
X82622Y-46475D01*
X83289Y-46608D02*
X83622Y-46608D01*
X83222Y-46808D02*
X83456Y-46108D01*
X83689Y-46808D01*
X83922Y-46808D02*
X83922Y-46108D01*
X84156Y-46608D01*
X84389Y-46108D01*
X84389Y-46808D01*
X84556Y-46875D02*
X85089Y-46875D01*
X85589Y-46108D02*
X85256Y-46108D01*
X85222Y-46442D01*
X85256Y-46408D01*
X85322Y-46375D01*
X85489Y-46375D01*
X85556Y-46408D01*
X85589Y-46442D01*
X85622Y-46508D01*
X85622Y-46675D01*
X85589Y-46742D01*
X85556Y-46775D01*
X85489Y-46808D01*
X85322Y-46808D01*
X85256Y-46775D01*
X85222Y-46742D01*
X86289Y-46808D02*
X85889Y-46808D01*
X86089Y-46808D02*
X86089Y-46108D01*
X86022Y-46208D01*
X85956Y-46275D01*
X85889Y-46308D01*
X86556Y-46175D02*
X86589Y-46142D01*
X86656Y-46108D01*
X86822Y-46108D01*
X86889Y-46142D01*
X86922Y-46175D01*
X86956Y-46242D01*
X86956Y-46308D01*
X86922Y-46408D01*
X86522Y-46808D01*
X86956Y-46808D01*
X87256Y-46808D02*
X87256Y-46108D01*
X87656Y-46808D02*
X87356Y-46408D01*
X87656Y-46108D02*
X87256Y-46508D01*
G54D18*
X84919Y-81366D02*
X84919Y-81933D01*
X84940Y-82000D01*
X84962Y-82033D01*
X85004Y-82066D01*
X85090Y-82066D01*
X85133Y-82033D01*
X85154Y-82000D01*
X85176Y-81933D01*
X85176Y-81366D01*
X85626Y-82066D02*
X85369Y-82066D01*
X85497Y-82066D02*
X85497Y-81366D01*
X85454Y-81466D01*
X85412Y-81533D01*
X85369Y-81566D01*
X85776Y-81366D02*
X86054Y-81366D01*
X85904Y-81633D01*
X85969Y-81633D01*
X86012Y-81666D01*
X86033Y-81700D01*
X86054Y-81766D01*
X86054Y-81933D01*
X86033Y-82000D01*
X86012Y-82033D01*
X85969Y-82066D01*
X85840Y-82066D01*
X85797Y-82033D01*
X85776Y-82000D01*
G54D15*
G54D18*
X88972Y-82266D02*
X89272Y-82266D01*
X89079Y-82966D01*
X89637Y-82500D02*
X89637Y-82966D01*
X89529Y-82233D02*
X89422Y-82733D01*
X89701Y-82733D01*
X90087Y-82966D02*
X89872Y-82966D01*
X89872Y-82266D01*
X90215Y-82933D02*
X90279Y-82966D01*
X90387Y-82966D01*
X90429Y-82933D01*
X90451Y-82900D01*
X90472Y-82833D01*
X90472Y-82766D01*
X90451Y-82700D01*
X90429Y-82666D01*
X90387Y-82633D01*
X90301Y-82600D01*
X90258Y-82566D01*
X90237Y-82533D01*
X90215Y-82466D01*
X90215Y-82400D01*
X90237Y-82333D01*
X90258Y-82300D01*
X90301Y-82266D01*
X90408Y-82266D01*
X90472Y-82300D01*
X90644Y-82333D02*
X90665Y-82300D01*
X90708Y-82266D01*
X90815Y-82266D01*
X90858Y-82300D01*
X90879Y-82333D01*
X90901Y-82400D01*
X90901Y-82466D01*
X90879Y-82566D01*
X90622Y-82966D01*
X90901Y-82966D01*
X91287Y-82500D02*
X91287Y-82966D01*
X91179Y-82233D02*
X91072Y-82733D01*
X91351Y-82733D01*
X91737Y-82266D02*
X91522Y-82266D01*
X91501Y-82600D01*
X91522Y-82566D01*
X91565Y-82533D01*
X91672Y-82533D01*
X91715Y-82566D01*
X91737Y-82600D01*
X91758Y-82666D01*
X91758Y-82833D01*
X91737Y-82900D01*
X91715Y-82933D01*
X91672Y-82966D01*
X91565Y-82966D01*
X91522Y-82933D01*
X91501Y-82900D01*
G54D15*
G54D18*
X59722Y-60894D02*
X59722Y-61461D01*
X59743Y-61527D01*
X59765Y-61561D01*
X59808Y-61594D01*
X59893Y-61594D01*
X59936Y-61561D01*
X59958Y-61527D01*
X59979Y-61461D01*
X59979Y-60894D01*
X60172Y-60961D02*
X60193Y-60927D01*
X60236Y-60894D01*
X60343Y-60894D01*
X60386Y-60927D01*
X60408Y-60961D01*
X60429Y-61027D01*
X60429Y-61094D01*
X60408Y-61194D01*
X60150Y-61594D01*
X60429Y-61594D01*
X60579Y-60894D02*
X60879Y-60894D01*
X60686Y-61594D01*
G54D15*
G54D18*
X63775Y-61794D02*
X64075Y-61794D01*
X63883Y-62494D01*
X64440Y-62027D02*
X64440Y-62494D01*
X64333Y-61761D02*
X64225Y-62261D01*
X64504Y-62261D01*
X64890Y-62494D02*
X64675Y-62494D01*
X64675Y-61794D01*
X65018Y-62461D02*
X65083Y-62494D01*
X65190Y-62494D01*
X65233Y-62461D01*
X65254Y-62427D01*
X65275Y-62361D01*
X65275Y-62294D01*
X65254Y-62227D01*
X65233Y-62194D01*
X65190Y-62161D01*
X65104Y-62127D01*
X65061Y-62094D01*
X65040Y-62061D01*
X65018Y-61994D01*
X65018Y-61927D01*
X65040Y-61861D01*
X65061Y-61827D01*
X65104Y-61794D01*
X65211Y-61794D01*
X65275Y-61827D01*
X65447Y-61861D02*
X65468Y-61827D01*
X65511Y-61794D01*
X65618Y-61794D01*
X65661Y-61827D01*
X65683Y-61861D01*
X65704Y-61927D01*
X65704Y-61994D01*
X65683Y-62094D01*
X65425Y-62494D01*
X65704Y-62494D01*
X66090Y-62027D02*
X66090Y-62494D01*
X65983Y-61761D02*
X65875Y-62261D01*
X66154Y-62261D01*
X66518Y-62027D02*
X66518Y-62494D01*
X66411Y-61761D02*
X66304Y-62261D01*
X66583Y-62261D01*
G54D15*
G54D18*
X72320Y-60894D02*
X72320Y-61461D01*
X72342Y-61527D01*
X72363Y-61561D01*
X72406Y-61594D01*
X72492Y-61594D01*
X72535Y-61561D01*
X72556Y-61527D01*
X72577Y-61461D01*
X72577Y-60894D01*
X72770Y-60961D02*
X72792Y-60927D01*
X72835Y-60894D01*
X72942Y-60894D01*
X72985Y-60927D01*
X73006Y-60961D01*
X73027Y-61027D01*
X73027Y-61094D01*
X73006Y-61194D01*
X72749Y-61594D01*
X73027Y-61594D01*
X73177Y-60894D02*
X73456Y-60894D01*
X73306Y-61161D01*
X73370Y-61161D01*
X73413Y-61194D01*
X73435Y-61227D01*
X73456Y-61294D01*
X73456Y-61461D01*
X73435Y-61527D01*
X73413Y-61561D01*
X73370Y-61594D01*
X73242Y-61594D01*
X73199Y-61561D01*
X73177Y-61527D01*
G54D15*
G54D18*
X76395Y-62494D02*
X76395Y-61794D01*
X76545Y-62294D01*
X76695Y-61794D01*
X76695Y-62494D01*
X76910Y-62127D02*
X77060Y-62127D01*
X77124Y-62494D02*
X76910Y-62494D01*
X76910Y-61794D01*
X77124Y-61794D01*
X77317Y-62494D02*
X77317Y-61794D01*
X77467Y-62294D01*
X77617Y-61794D01*
X77617Y-62494D01*
X77724Y-62561D02*
X78067Y-62561D01*
X78410Y-61827D02*
X78367Y-61794D01*
X78302Y-61794D01*
X78238Y-61827D01*
X78195Y-61894D01*
X78174Y-61961D01*
X78152Y-62094D01*
X78152Y-62194D01*
X78174Y-62327D01*
X78195Y-62394D01*
X78238Y-62461D01*
X78302Y-62494D01*
X78345Y-62494D01*
X78410Y-62461D01*
X78431Y-62427D01*
X78431Y-62194D01*
X78345Y-62194D01*
X78602Y-62294D02*
X78817Y-62294D01*
X78560Y-62494D02*
X78710Y-61794D01*
X78860Y-62494D01*
X79224Y-62494D02*
X79010Y-62494D01*
X79010Y-61794D01*
G54D15*
G54D18*
X72535Y-74280D02*
X72535Y-74846D01*
X72556Y-74913D01*
X72577Y-74946D01*
X72620Y-74980D01*
X72706Y-74980D01*
X72749Y-74946D01*
X72770Y-74913D01*
X72792Y-74846D01*
X72792Y-74280D01*
X73027Y-74980D02*
X73113Y-74980D01*
X73156Y-74946D01*
X73177Y-74913D01*
X73220Y-74813D01*
X73242Y-74680D01*
X73242Y-74413D01*
X73220Y-74346D01*
X73199Y-74313D01*
X73156Y-74280D01*
X73070Y-74280D01*
X73027Y-74313D01*
X73006Y-74346D01*
X72985Y-74413D01*
X72985Y-74580D01*
X73006Y-74646D01*
X73027Y-74680D01*
X73070Y-74713D01*
X73156Y-74713D01*
X73199Y-74680D01*
X73220Y-74646D01*
X73242Y-74580D01*
G54D15*
G54D18*
X76374Y-75180D02*
X76674Y-75180D01*
X76481Y-75880D01*
X77038Y-75413D02*
X77038Y-75880D01*
X76931Y-75146D02*
X76824Y-75646D01*
X77102Y-75646D01*
X77488Y-75880D02*
X77274Y-75880D01*
X77274Y-75180D01*
X77617Y-75846D02*
X77681Y-75880D01*
X77788Y-75880D01*
X77831Y-75846D01*
X77852Y-75813D01*
X77874Y-75746D01*
X77874Y-75680D01*
X77852Y-75613D01*
X77831Y-75580D01*
X77788Y-75546D01*
X77702Y-75513D01*
X77660Y-75480D01*
X77638Y-75446D01*
X77617Y-75380D01*
X77617Y-75313D01*
X77638Y-75246D01*
X77660Y-75213D01*
X77702Y-75180D01*
X77810Y-75180D01*
X77874Y-75213D01*
X78045Y-75246D02*
X78067Y-75213D01*
X78110Y-75180D01*
X78217Y-75180D01*
X78260Y-75213D01*
X78281Y-75246D01*
X78302Y-75313D01*
X78302Y-75380D01*
X78281Y-75480D01*
X78024Y-75880D01*
X78302Y-75880D01*
X78688Y-75413D02*
X78688Y-75880D01*
X78581Y-75146D02*
X78474Y-75646D01*
X78752Y-75646D01*
X79138Y-75180D02*
X78924Y-75180D01*
X78902Y-75513D01*
X78924Y-75480D01*
X78967Y-75446D01*
X79074Y-75446D01*
X79117Y-75480D01*
X79138Y-75513D01*
X79160Y-75580D01*
X79160Y-75746D01*
X79138Y-75813D01*
X79117Y-75846D01*
X79074Y-75880D01*
X78967Y-75880D01*
X78924Y-75846D01*
X78902Y-75813D01*
G54D15*
G54D18*
X63265Y-67193D02*
X63265Y-67760D01*
X63287Y-67826D01*
X63308Y-67860D01*
X63351Y-67893D01*
X63437Y-67893D01*
X63479Y-67860D01*
X63501Y-67826D01*
X63522Y-67760D01*
X63522Y-67193D01*
X63972Y-67893D02*
X63715Y-67893D01*
X63844Y-67893D02*
X63844Y-67193D01*
X63801Y-67293D01*
X63758Y-67360D01*
X63715Y-67393D01*
X64379Y-67193D02*
X64165Y-67193D01*
X64144Y-67526D01*
X64165Y-67493D01*
X64208Y-67460D01*
X64315Y-67460D01*
X64358Y-67493D01*
X64379Y-67526D01*
X64401Y-67593D01*
X64401Y-67760D01*
X64379Y-67826D01*
X64358Y-67860D01*
X64315Y-67893D01*
X64208Y-67893D01*
X64165Y-67860D01*
X64144Y-67826D01*
G54D15*
G54D18*
X67319Y-68093D02*
X67619Y-68093D01*
X67426Y-68793D01*
X67983Y-68326D02*
X67983Y-68793D01*
X67876Y-68060D02*
X67769Y-68560D01*
X68047Y-68560D01*
X68433Y-68793D02*
X68219Y-68793D01*
X68219Y-68093D01*
X68562Y-68760D02*
X68626Y-68793D01*
X68733Y-68793D01*
X68776Y-68760D01*
X68797Y-68726D01*
X68819Y-68660D01*
X68819Y-68593D01*
X68797Y-68526D01*
X68776Y-68493D01*
X68733Y-68460D01*
X68647Y-68426D01*
X68604Y-68393D01*
X68583Y-68360D01*
X68562Y-68293D01*
X68562Y-68226D01*
X68583Y-68160D01*
X68604Y-68126D01*
X68647Y-68093D01*
X68754Y-68093D01*
X68819Y-68126D01*
X68990Y-68160D02*
X69012Y-68126D01*
X69054Y-68093D01*
X69162Y-68093D01*
X69204Y-68126D01*
X69226Y-68160D01*
X69247Y-68226D01*
X69247Y-68293D01*
X69226Y-68393D01*
X68969Y-68793D01*
X69247Y-68793D01*
X69633Y-68326D02*
X69633Y-68793D01*
X69526Y-68060D02*
X69419Y-68560D01*
X69697Y-68560D01*
X70062Y-68326D02*
X70062Y-68793D01*
X69954Y-68060D02*
X69847Y-68560D01*
X70126Y-68560D01*
G54D15*
G54D18*
X84919Y-60894D02*
X84919Y-61461D01*
X84940Y-61527D01*
X84962Y-61561D01*
X85004Y-61594D01*
X85090Y-61594D01*
X85133Y-61561D01*
X85154Y-61527D01*
X85176Y-61461D01*
X85176Y-60894D01*
X85626Y-61594D02*
X85369Y-61594D01*
X85497Y-61594D02*
X85497Y-60894D01*
X85454Y-60994D01*
X85412Y-61061D01*
X85369Y-61094D01*
X86012Y-60894D02*
X85926Y-60894D01*
X85883Y-60927D01*
X85862Y-60961D01*
X85819Y-61061D01*
X85797Y-61194D01*
X85797Y-61461D01*
X85819Y-61527D01*
X85840Y-61561D01*
X85883Y-61594D01*
X85969Y-61594D01*
X86012Y-61561D01*
X86033Y-61527D01*
X86054Y-61461D01*
X86054Y-61294D01*
X86033Y-61227D01*
X86012Y-61194D01*
X85969Y-61161D01*
X85883Y-61161D01*
X85840Y-61194D01*
X85819Y-61227D01*
X85797Y-61294D01*
G54D15*
G54D18*
X88972Y-61794D02*
X89272Y-61794D01*
X89079Y-62494D01*
X89637Y-62027D02*
X89637Y-62494D01*
X89529Y-61761D02*
X89422Y-62261D01*
X89701Y-62261D01*
X90087Y-62494D02*
X89872Y-62494D01*
X89872Y-61794D01*
X90215Y-62461D02*
X90279Y-62494D01*
X90387Y-62494D01*
X90429Y-62461D01*
X90451Y-62427D01*
X90472Y-62361D01*
X90472Y-62294D01*
X90451Y-62227D01*
X90429Y-62194D01*
X90387Y-62161D01*
X90301Y-62127D01*
X90258Y-62094D01*
X90237Y-62061D01*
X90215Y-61994D01*
X90215Y-61927D01*
X90237Y-61861D01*
X90258Y-61827D01*
X90301Y-61794D01*
X90408Y-61794D01*
X90472Y-61827D01*
X90644Y-61861D02*
X90665Y-61827D01*
X90708Y-61794D01*
X90815Y-61794D01*
X90858Y-61827D01*
X90879Y-61861D01*
X90901Y-61927D01*
X90901Y-61994D01*
X90879Y-62094D01*
X90622Y-62494D01*
X90901Y-62494D01*
X91287Y-62027D02*
X91287Y-62494D01*
X91179Y-61761D02*
X91072Y-62261D01*
X91351Y-62261D01*
X91608Y-61794D02*
X91651Y-61794D01*
X91694Y-61827D01*
X91715Y-61861D01*
X91737Y-61927D01*
X91758Y-62061D01*
X91758Y-62227D01*
X91737Y-62361D01*
X91715Y-62427D01*
X91694Y-62461D01*
X91651Y-62494D01*
X91608Y-62494D01*
X91565Y-62461D01*
X91544Y-62427D01*
X91522Y-62361D01*
X91501Y-62227D01*
X91501Y-62061D01*
X91522Y-61927D01*
X91544Y-61861D01*
X91565Y-61827D01*
X91608Y-61794D01*
G54D15*
G54D18*
X84919Y-74280D02*
X84919Y-74846D01*
X84940Y-74913D01*
X84962Y-74946D01*
X85004Y-74980D01*
X85090Y-74980D01*
X85133Y-74946D01*
X85154Y-74913D01*
X85176Y-74846D01*
X85176Y-74280D01*
X85626Y-74980D02*
X85369Y-74980D01*
X85497Y-74980D02*
X85497Y-74280D01*
X85454Y-74380D01*
X85412Y-74446D01*
X85369Y-74480D01*
X85904Y-74280D02*
X85947Y-74280D01*
X85990Y-74313D01*
X86012Y-74346D01*
X86033Y-74413D01*
X86054Y-74546D01*
X86054Y-74713D01*
X86033Y-74846D01*
X86012Y-74913D01*
X85990Y-74946D01*
X85947Y-74980D01*
X85904Y-74980D01*
X85862Y-74946D01*
X85840Y-74913D01*
X85819Y-74846D01*
X85797Y-74713D01*
X85797Y-74546D01*
X85819Y-74413D01*
X85840Y-74346D01*
X85862Y-74313D01*
X85904Y-74280D01*
G54D15*
G54D18*
X88962Y-75880D02*
X88962Y-75180D01*
X89112Y-75680D01*
X89262Y-75180D01*
X89262Y-75880D01*
X89476Y-75880D02*
X89476Y-75180D01*
X89626Y-75680D01*
X89776Y-75180D01*
X89776Y-75880D01*
X89990Y-75180D02*
X89990Y-75746D01*
X90012Y-75813D01*
X90033Y-75846D01*
X90076Y-75880D01*
X90162Y-75880D01*
X90204Y-75846D01*
X90226Y-75813D01*
X90247Y-75746D01*
X90247Y-75180D01*
X90354Y-75946D02*
X90697Y-75946D01*
X91040Y-75213D02*
X90997Y-75180D01*
X90933Y-75180D01*
X90869Y-75213D01*
X90826Y-75280D01*
X90804Y-75346D01*
X90783Y-75480D01*
X90783Y-75580D01*
X90804Y-75713D01*
X90826Y-75780D01*
X90869Y-75846D01*
X90933Y-75880D01*
X90976Y-75880D01*
X91040Y-75846D01*
X91062Y-75813D01*
X91062Y-75580D01*
X90976Y-75580D01*
X91233Y-75680D02*
X91447Y-75680D01*
X91190Y-75880D02*
X91340Y-75180D01*
X91490Y-75880D01*
X91854Y-75880D02*
X91640Y-75880D01*
X91640Y-75180D01*
G54D15*
G54D18*
X36708Y-81366D02*
X36708Y-81933D01*
X36729Y-82000D01*
X36751Y-82033D01*
X36794Y-82066D01*
X36879Y-82066D01*
X36922Y-82033D01*
X36944Y-82000D01*
X36965Y-81933D01*
X36965Y-81366D01*
X37136Y-81366D02*
X37415Y-81366D01*
X37265Y-81633D01*
X37329Y-81633D01*
X37372Y-81666D01*
X37394Y-81700D01*
X37415Y-81766D01*
X37415Y-81933D01*
X37394Y-82000D01*
X37372Y-82033D01*
X37329Y-82066D01*
X37201Y-82066D01*
X37158Y-82033D01*
X37136Y-82000D01*
G54D15*
G54D18*
X40547Y-82266D02*
X40847Y-82266D01*
X40654Y-82966D01*
X41211Y-82500D02*
X41211Y-82966D01*
X41104Y-82233D02*
X40997Y-82733D01*
X41276Y-82733D01*
X41661Y-82966D02*
X41447Y-82966D01*
X41447Y-82266D01*
X41790Y-82933D02*
X41854Y-82966D01*
X41961Y-82966D01*
X42004Y-82933D01*
X42026Y-82900D01*
X42047Y-82833D01*
X42047Y-82766D01*
X42026Y-82700D01*
X42004Y-82666D01*
X41961Y-82633D01*
X41876Y-82600D01*
X41833Y-82566D01*
X41811Y-82533D01*
X41790Y-82466D01*
X41790Y-82400D01*
X41811Y-82333D01*
X41833Y-82300D01*
X41876Y-82266D01*
X41983Y-82266D01*
X42047Y-82300D01*
X42219Y-82333D02*
X42240Y-82300D01*
X42283Y-82266D01*
X42390Y-82266D01*
X42433Y-82300D01*
X42454Y-82333D01*
X42476Y-82400D01*
X42476Y-82466D01*
X42454Y-82566D01*
X42197Y-82966D01*
X42476Y-82966D01*
X42861Y-82500D02*
X42861Y-82966D01*
X42754Y-82233D02*
X42647Y-82733D01*
X42926Y-82733D01*
X43290Y-82500D02*
X43290Y-82966D01*
X43183Y-82233D02*
X43076Y-82733D01*
X43354Y-82733D01*
G54D15*
G54D18*
X59542Y-81366D02*
X59542Y-81933D01*
X59564Y-82000D01*
X59585Y-82033D01*
X59628Y-82066D01*
X59714Y-82066D01*
X59757Y-82033D01*
X59778Y-82000D01*
X59800Y-81933D01*
X59800Y-81366D01*
X60207Y-81600D02*
X60207Y-82066D01*
X60100Y-81333D02*
X59992Y-81833D01*
X60271Y-81833D01*
G54D15*
G54D18*
X63382Y-82266D02*
X63682Y-82266D01*
X63489Y-82966D01*
X64046Y-82500D02*
X64046Y-82966D01*
X63939Y-82233D02*
X63832Y-82733D01*
X64110Y-82733D01*
X64496Y-82966D02*
X64282Y-82966D01*
X64282Y-82266D01*
X64625Y-82933D02*
X64689Y-82966D01*
X64796Y-82966D01*
X64839Y-82933D01*
X64860Y-82900D01*
X64882Y-82833D01*
X64882Y-82766D01*
X64860Y-82700D01*
X64839Y-82666D01*
X64796Y-82633D01*
X64710Y-82600D01*
X64667Y-82566D01*
X64646Y-82533D01*
X64625Y-82466D01*
X64625Y-82400D01*
X64646Y-82333D01*
X64667Y-82300D01*
X64710Y-82266D01*
X64817Y-82266D01*
X64882Y-82300D01*
X65053Y-82333D02*
X65075Y-82300D01*
X65117Y-82266D01*
X65225Y-82266D01*
X65267Y-82300D01*
X65289Y-82333D01*
X65310Y-82400D01*
X65310Y-82466D01*
X65289Y-82566D01*
X65032Y-82966D01*
X65310Y-82966D01*
X65696Y-82500D02*
X65696Y-82966D01*
X65589Y-82233D02*
X65482Y-82733D01*
X65760Y-82733D01*
X66125Y-82500D02*
X66125Y-82966D01*
X66017Y-82233D02*
X65910Y-82733D01*
X66189Y-82733D01*
G54D15*
G54D18*
X72535Y-81366D02*
X72535Y-81933D01*
X72556Y-82000D01*
X72577Y-82033D01*
X72620Y-82066D01*
X72706Y-82066D01*
X72749Y-82033D01*
X72770Y-82000D01*
X72792Y-81933D01*
X72792Y-81366D01*
X73220Y-81366D02*
X73006Y-81366D01*
X72985Y-81700D01*
X73006Y-81666D01*
X73049Y-81633D01*
X73156Y-81633D01*
X73199Y-81666D01*
X73220Y-81700D01*
X73242Y-81766D01*
X73242Y-81933D01*
X73220Y-82000D01*
X73199Y-82033D01*
X73156Y-82066D01*
X73049Y-82066D01*
X73006Y-82033D01*
X72985Y-82000D01*
G54D15*
G54D18*
X76374Y-82266D02*
X76674Y-82266D01*
X76481Y-82966D01*
X77038Y-82500D02*
X77038Y-82966D01*
X76931Y-82233D02*
X76824Y-82733D01*
X77102Y-82733D01*
X77488Y-82966D02*
X77274Y-82966D01*
X77274Y-82266D01*
X77617Y-82933D02*
X77681Y-82966D01*
X77788Y-82966D01*
X77831Y-82933D01*
X77852Y-82900D01*
X77874Y-82833D01*
X77874Y-82766D01*
X77852Y-82700D01*
X77831Y-82666D01*
X77788Y-82633D01*
X77702Y-82600D01*
X77660Y-82566D01*
X77638Y-82533D01*
X77617Y-82466D01*
X77617Y-82400D01*
X77638Y-82333D01*
X77660Y-82300D01*
X77702Y-82266D01*
X77810Y-82266D01*
X77874Y-82300D01*
X78045Y-82333D02*
X78067Y-82300D01*
X78110Y-82266D01*
X78217Y-82266D01*
X78260Y-82300D01*
X78281Y-82333D01*
X78302Y-82400D01*
X78302Y-82466D01*
X78281Y-82566D01*
X78024Y-82966D01*
X78302Y-82966D01*
X78688Y-82500D02*
X78688Y-82966D01*
X78581Y-82233D02*
X78474Y-82733D01*
X78752Y-82733D01*
X79117Y-82500D02*
X79117Y-82966D01*
X79010Y-82233D02*
X78902Y-82733D01*
X79181Y-82733D01*
G54D15*
G54D18*
X26470Y-71977D02*
X26470Y-72463D01*
X26491Y-72520D01*
X26513Y-72548D01*
X26556Y-72577D01*
X26641Y-72577D01*
X26684Y-72548D01*
X26706Y-72520D01*
X26727Y-72463D01*
X26727Y-71977D01*
X26920Y-72034D02*
X26941Y-72006D01*
X26984Y-71977D01*
X27091Y-71977D01*
X27134Y-72006D01*
X27156Y-72034D01*
X27177Y-72091D01*
X27177Y-72148D01*
X27156Y-72234D01*
X26898Y-72577D01*
X27177Y-72577D01*
X27456Y-71977D02*
X27498Y-71977D01*
X27541Y-72006D01*
X27563Y-72034D01*
X27584Y-72091D01*
X27606Y-72206D01*
X27606Y-72348D01*
X27584Y-72463D01*
X27563Y-72520D01*
X27541Y-72548D01*
X27498Y-72577D01*
X27456Y-72577D01*
X27413Y-72548D01*
X27391Y-72520D01*
X27370Y-72463D01*
X27348Y-72348D01*
X27348Y-72206D01*
X27370Y-72091D01*
X27391Y-72034D01*
X27413Y-72006D01*
X27456Y-71977D01*
G54D15*
G54D18*
X28548Y-73577D02*
X28548Y-72977D01*
X28698Y-73406D01*
X28848Y-72977D01*
X28848Y-73577D01*
X29041Y-73406D02*
X29256Y-73406D01*
X28998Y-73577D02*
X29148Y-72977D01*
X29298Y-73577D01*
X29406Y-72977D02*
X29706Y-73577D01*
X29706Y-72977D02*
X29406Y-73577D01*
X29877Y-73348D02*
X30220Y-73348D01*
X30413Y-73034D02*
X30434Y-73006D01*
X30477Y-72977D01*
X30584Y-72977D01*
X30627Y-73006D01*
X30648Y-73034D01*
X30670Y-73091D01*
X30670Y-73148D01*
X30648Y-73234D01*
X30391Y-73577D01*
X30670Y-73577D01*
X30820Y-72977D02*
X31098Y-72977D01*
X30948Y-73206D01*
X31013Y-73206D01*
X31056Y-73234D01*
X31077Y-73263D01*
X31098Y-73320D01*
X31098Y-73463D01*
X31077Y-73520D01*
X31056Y-73548D01*
X31013Y-73577D01*
X30884Y-73577D01*
X30841Y-73548D01*
X30820Y-73520D01*
X31270Y-73034D02*
X31291Y-73006D01*
X31334Y-72977D01*
X31441Y-72977D01*
X31484Y-73006D01*
X31506Y-73034D01*
X31527Y-73091D01*
X31527Y-73148D01*
X31506Y-73234D01*
X31248Y-73577D01*
X31527Y-73577D01*
G54D15*
G54D18*
X26076Y-60560D02*
X26076Y-61045D01*
X26098Y-61103D01*
X26119Y-61131D01*
X26162Y-61160D01*
X26248Y-61160D01*
X26291Y-61131D01*
X26312Y-61103D01*
X26333Y-61045D01*
X26333Y-60560D01*
X26526Y-60617D02*
X26548Y-60588D01*
X26591Y-60560D01*
X26698Y-60560D01*
X26741Y-60588D01*
X26762Y-60617D01*
X26783Y-60674D01*
X26783Y-60731D01*
X26762Y-60817D01*
X26505Y-61160D01*
X26783Y-61160D01*
X26998Y-61160D02*
X27083Y-61160D01*
X27126Y-61131D01*
X27148Y-61103D01*
X27191Y-61017D01*
X27212Y-60903D01*
X27212Y-60674D01*
X27191Y-60617D01*
X27169Y-60588D01*
X27126Y-60560D01*
X27041Y-60560D01*
X26998Y-60588D01*
X26976Y-60617D01*
X26955Y-60674D01*
X26955Y-60817D01*
X26976Y-60874D01*
X26998Y-60903D01*
X27041Y-60931D01*
X27126Y-60931D01*
X27169Y-60903D01*
X27191Y-60874D01*
X27212Y-60817D01*
G54D15*
G54D18*
X28155Y-62160D02*
X28155Y-61560D01*
X28305Y-61988D01*
X28455Y-61560D01*
X28455Y-62160D01*
X28648Y-61988D02*
X28862Y-61988D01*
X28605Y-62160D02*
X28755Y-61560D01*
X28905Y-62160D01*
X29012Y-61560D02*
X29312Y-62160D01*
X29312Y-61560D02*
X29012Y-62160D01*
X29483Y-61931D02*
X29826Y-61931D01*
X30019Y-61617D02*
X30041Y-61588D01*
X30083Y-61560D01*
X30191Y-61560D01*
X30233Y-61588D01*
X30255Y-61617D01*
X30276Y-61674D01*
X30276Y-61731D01*
X30255Y-61817D01*
X29998Y-62160D01*
X30276Y-62160D01*
X30426Y-61560D02*
X30705Y-61560D01*
X30555Y-61788D01*
X30619Y-61788D01*
X30662Y-61817D01*
X30683Y-61845D01*
X30705Y-61903D01*
X30705Y-62045D01*
X30683Y-62103D01*
X30662Y-62131D01*
X30619Y-62160D01*
X30491Y-62160D01*
X30448Y-62131D01*
X30426Y-62103D01*
X30876Y-61617D02*
X30898Y-61588D01*
X30941Y-61560D01*
X31048Y-61560D01*
X31091Y-61588D01*
X31112Y-61617D01*
X31133Y-61674D01*
X31133Y-61731D01*
X31112Y-61817D01*
X30855Y-62160D01*
X31133Y-62160D01*
G54D15*
G54D18*
X37100Y-43631D02*
X37100Y-44116D01*
X37121Y-44173D01*
X37143Y-44202D01*
X37186Y-44231D01*
X37271Y-44231D01*
X37314Y-44202D01*
X37336Y-44173D01*
X37357Y-44116D01*
X37357Y-43631D01*
X37807Y-44231D02*
X37550Y-44231D01*
X37678Y-44231D02*
X37678Y-43631D01*
X37636Y-43716D01*
X37593Y-43773D01*
X37550Y-43802D01*
X38021Y-44231D02*
X38107Y-44231D01*
X38150Y-44202D01*
X38171Y-44173D01*
X38214Y-44088D01*
X38236Y-43973D01*
X38236Y-43745D01*
X38214Y-43688D01*
X38193Y-43659D01*
X38150Y-43631D01*
X38064Y-43631D01*
X38021Y-43659D01*
X38000Y-43688D01*
X37978Y-43745D01*
X37978Y-43888D01*
X38000Y-43945D01*
X38021Y-43973D01*
X38064Y-44002D01*
X38150Y-44002D01*
X38193Y-43973D01*
X38214Y-43945D01*
X38236Y-43888D01*
G54D15*
G54D18*
X39253Y-44631D02*
X39553Y-44631D01*
X39361Y-45231D01*
X39918Y-44831D02*
X39918Y-45231D01*
X39811Y-44602D02*
X39703Y-45031D01*
X39982Y-45031D01*
X40368Y-45231D02*
X40153Y-45231D01*
X40153Y-44631D01*
X40496Y-45202D02*
X40561Y-45231D01*
X40668Y-45231D01*
X40711Y-45202D01*
X40732Y-45173D01*
X40753Y-45116D01*
X40753Y-45059D01*
X40732Y-45002D01*
X40711Y-44973D01*
X40668Y-44945D01*
X40582Y-44916D01*
X40539Y-44888D01*
X40518Y-44859D01*
X40496Y-44802D01*
X40496Y-44745D01*
X40518Y-44688D01*
X40539Y-44659D01*
X40582Y-44631D01*
X40689Y-44631D01*
X40753Y-44659D01*
X41182Y-45231D02*
X40925Y-45231D01*
X41053Y-45231D02*
X41053Y-44631D01*
X41011Y-44716D01*
X40968Y-44773D01*
X40925Y-44802D01*
X41332Y-44631D02*
X41611Y-44631D01*
X41461Y-44859D01*
X41525Y-44859D01*
X41568Y-44888D01*
X41589Y-44916D01*
X41611Y-44973D01*
X41611Y-45116D01*
X41589Y-45173D01*
X41568Y-45202D01*
X41525Y-45231D01*
X41396Y-45231D01*
X41353Y-45202D01*
X41332Y-45173D01*
X41868Y-44888D02*
X41825Y-44859D01*
X41803Y-44831D01*
X41782Y-44773D01*
X41782Y-44745D01*
X41803Y-44688D01*
X41825Y-44659D01*
X41868Y-44631D01*
X41953Y-44631D01*
X41996Y-44659D01*
X42018Y-44688D01*
X42039Y-44745D01*
X42039Y-44773D01*
X42018Y-44831D01*
X41996Y-44859D01*
X41953Y-44888D01*
X41868Y-44888D01*
X41825Y-44916D01*
X41803Y-44945D01*
X41782Y-45002D01*
X41782Y-45116D01*
X41803Y-45173D01*
X41825Y-45202D01*
X41868Y-45231D01*
X41953Y-45231D01*
X41996Y-45202D01*
X42018Y-45173D01*
X42039Y-45116D01*
X42039Y-45002D01*
X42018Y-44945D01*
X41996Y-44916D01*
X41953Y-44888D01*
G54D15*
G54D18*
X75683Y-67253D02*
X75683Y-67738D01*
X75704Y-67795D01*
X75725Y-67824D01*
X75768Y-67853D01*
X75854Y-67853D01*
X75897Y-67824D01*
X75918Y-67795D01*
X75940Y-67738D01*
X75940Y-67253D01*
X76390Y-67853D02*
X76133Y-67853D01*
X76261Y-67853D02*
X76261Y-67253D01*
X76218Y-67338D01*
X76175Y-67395D01*
X76133Y-67424D01*
X76818Y-67853D02*
X76561Y-67853D01*
X76690Y-67853D02*
X76690Y-67253D01*
X76647Y-67338D01*
X76604Y-67395D01*
X76561Y-67424D01*
G54D15*
G54D18*
X78447Y-68253D02*
X78747Y-68253D01*
X78554Y-68853D01*
X79111Y-68453D02*
X79111Y-68853D01*
X79004Y-68224D02*
X78897Y-68653D01*
X79175Y-68653D01*
X79411Y-68510D02*
X79368Y-68481D01*
X79347Y-68453D01*
X79325Y-68395D01*
X79325Y-68367D01*
X79347Y-68310D01*
X79368Y-68281D01*
X79411Y-68253D01*
X79497Y-68253D01*
X79540Y-68281D01*
X79561Y-68310D01*
X79583Y-68367D01*
X79583Y-68395D01*
X79561Y-68453D01*
X79540Y-68481D01*
X79497Y-68510D01*
X79411Y-68510D01*
X79368Y-68538D01*
X79347Y-68567D01*
X79325Y-68624D01*
X79325Y-68738D01*
X79347Y-68795D01*
X79368Y-68824D01*
X79411Y-68853D01*
X79497Y-68853D01*
X79540Y-68824D01*
X79561Y-68795D01*
X79583Y-68738D01*
X79583Y-68624D01*
X79561Y-68567D01*
X79540Y-68538D01*
X79497Y-68510D01*
X79797Y-68853D02*
X79883Y-68853D01*
X79925Y-68824D01*
X79947Y-68795D01*
X79990Y-68710D01*
X80011Y-68595D01*
X80011Y-68367D01*
X79990Y-68310D01*
X79968Y-68281D01*
X79925Y-68253D01*
X79840Y-68253D01*
X79797Y-68281D01*
X79775Y-68310D01*
X79754Y-68367D01*
X79754Y-68510D01*
X79775Y-68567D01*
X79797Y-68595D01*
X79840Y-68624D01*
X79925Y-68624D01*
X79968Y-68595D01*
X79990Y-68567D01*
X80011Y-68510D01*
G54D15*
G54D18*
X86706Y-67253D02*
X86706Y-67738D01*
X86728Y-67795D01*
X86749Y-67824D01*
X86792Y-67853D01*
X86878Y-67853D01*
X86920Y-67824D01*
X86942Y-67795D01*
X86963Y-67738D01*
X86963Y-67253D01*
X87413Y-67853D02*
X87156Y-67853D01*
X87285Y-67853D02*
X87285Y-67253D01*
X87242Y-67338D01*
X87199Y-67395D01*
X87156Y-67424D01*
X87585Y-67310D02*
X87606Y-67281D01*
X87649Y-67253D01*
X87756Y-67253D01*
X87799Y-67281D01*
X87820Y-67310D01*
X87842Y-67367D01*
X87842Y-67424D01*
X87820Y-67510D01*
X87563Y-67853D01*
X87842Y-67853D01*
G54D15*
G54D18*
X89470Y-68253D02*
X89770Y-68253D01*
X89578Y-68853D01*
X90135Y-68453D02*
X90135Y-68853D01*
X90028Y-68224D02*
X89920Y-68653D01*
X90199Y-68653D01*
X90435Y-68510D02*
X90392Y-68481D01*
X90370Y-68453D01*
X90349Y-68395D01*
X90349Y-68367D01*
X90370Y-68310D01*
X90392Y-68281D01*
X90435Y-68253D01*
X90520Y-68253D01*
X90563Y-68281D01*
X90585Y-68310D01*
X90606Y-68367D01*
X90606Y-68395D01*
X90585Y-68453D01*
X90563Y-68481D01*
X90520Y-68510D01*
X90435Y-68510D01*
X90392Y-68538D01*
X90370Y-68567D01*
X90349Y-68624D01*
X90349Y-68738D01*
X90370Y-68795D01*
X90392Y-68824D01*
X90435Y-68853D01*
X90520Y-68853D01*
X90563Y-68824D01*
X90585Y-68795D01*
X90606Y-68738D01*
X90606Y-68624D01*
X90585Y-68567D01*
X90563Y-68538D01*
X90520Y-68510D01*
X90820Y-68853D02*
X90906Y-68853D01*
X90949Y-68824D01*
X90970Y-68795D01*
X91013Y-68710D01*
X91035Y-68595D01*
X91035Y-68367D01*
X91013Y-68310D01*
X90992Y-68281D01*
X90949Y-68253D01*
X90863Y-68253D01*
X90820Y-68281D01*
X90799Y-68310D01*
X90778Y-68367D01*
X90778Y-68510D01*
X90799Y-68567D01*
X90820Y-68595D01*
X90863Y-68624D01*
X90949Y-68624D01*
X90992Y-68595D01*
X91013Y-68567D01*
X91035Y-68510D01*
G54D15*
G54D18*
X62403Y-74339D02*
X62403Y-74825D01*
X62424Y-74882D01*
X62446Y-74911D01*
X62489Y-74939D01*
X62574Y-74939D01*
X62617Y-74911D01*
X62639Y-74882D01*
X62660Y-74825D01*
X62660Y-74339D01*
X62853Y-74396D02*
X62874Y-74368D01*
X62917Y-74339D01*
X63024Y-74339D01*
X63067Y-74368D01*
X63089Y-74396D01*
X63110Y-74453D01*
X63110Y-74511D01*
X63089Y-74596D01*
X62832Y-74939D01*
X63110Y-74939D01*
X63282Y-74396D02*
X63303Y-74368D01*
X63346Y-74339D01*
X63453Y-74339D01*
X63496Y-74368D01*
X63517Y-74396D01*
X63539Y-74453D01*
X63539Y-74511D01*
X63517Y-74596D01*
X63260Y-74939D01*
X63539Y-74939D01*
G54D15*
G54D18*
X64271Y-75339D02*
X64571Y-75339D01*
X64378Y-75939D01*
X64935Y-75539D02*
X64935Y-75939D01*
X64828Y-75311D02*
X64721Y-75739D01*
X64999Y-75739D01*
X65385Y-75939D02*
X65171Y-75939D01*
X65171Y-75339D01*
X65514Y-75911D02*
X65578Y-75939D01*
X65685Y-75939D01*
X65728Y-75911D01*
X65749Y-75882D01*
X65771Y-75825D01*
X65771Y-75768D01*
X65749Y-75711D01*
X65728Y-75682D01*
X65685Y-75653D01*
X65599Y-75625D01*
X65557Y-75596D01*
X65535Y-75568D01*
X65514Y-75511D01*
X65514Y-75453D01*
X65535Y-75396D01*
X65557Y-75368D01*
X65599Y-75339D01*
X65707Y-75339D01*
X65771Y-75368D01*
X65921Y-75339D02*
X66199Y-75339D01*
X66049Y-75568D01*
X66114Y-75568D01*
X66157Y-75596D01*
X66178Y-75625D01*
X66199Y-75682D01*
X66199Y-75825D01*
X66178Y-75882D01*
X66157Y-75911D01*
X66114Y-75939D01*
X65985Y-75939D01*
X65942Y-75911D01*
X65921Y-75882D01*
X66371Y-75396D02*
X66392Y-75368D01*
X66435Y-75339D01*
X66542Y-75339D01*
X66585Y-75368D01*
X66607Y-75396D01*
X66628Y-75453D01*
X66628Y-75511D01*
X66607Y-75596D01*
X66349Y-75939D01*
X66628Y-75939D01*
G54D15*
G54D18*
X51594Y-37331D02*
X51594Y-37817D01*
X51615Y-37874D01*
X51637Y-37903D01*
X51679Y-37931D01*
X51765Y-37931D01*
X51808Y-37903D01*
X51829Y-37874D01*
X51851Y-37817D01*
X51851Y-37331D01*
X52258Y-37331D02*
X52172Y-37331D01*
X52129Y-37360D01*
X52108Y-37388D01*
X52065Y-37474D01*
X52044Y-37588D01*
X52044Y-37817D01*
X52065Y-37874D01*
X52087Y-37903D01*
X52129Y-37931D01*
X52215Y-37931D01*
X52258Y-37903D01*
X52279Y-37874D01*
X52301Y-37817D01*
X52301Y-37674D01*
X52279Y-37617D01*
X52258Y-37588D01*
X52215Y-37560D01*
X52129Y-37560D01*
X52087Y-37588D01*
X52065Y-37617D01*
X52044Y-37674D01*
G54D15*
G54D18*
X53247Y-38331D02*
X53547Y-38331D01*
X53354Y-38931D01*
X53912Y-38531D02*
X53912Y-38931D01*
X53804Y-38303D02*
X53697Y-38731D01*
X53976Y-38731D01*
X54362Y-38931D02*
X54147Y-38931D01*
X54147Y-38331D01*
X54490Y-38903D02*
X54554Y-38931D01*
X54662Y-38931D01*
X54704Y-38903D01*
X54726Y-38874D01*
X54747Y-38817D01*
X54747Y-38760D01*
X54726Y-38703D01*
X54704Y-38674D01*
X54662Y-38646D01*
X54576Y-38617D01*
X54533Y-38588D01*
X54512Y-38560D01*
X54490Y-38503D01*
X54490Y-38446D01*
X54512Y-38388D01*
X54533Y-38360D01*
X54576Y-38331D01*
X54683Y-38331D01*
X54747Y-38360D01*
X55176Y-38931D02*
X54919Y-38931D01*
X55047Y-38931D02*
X55047Y-38331D01*
X55004Y-38417D01*
X54962Y-38474D01*
X54919Y-38503D01*
X55562Y-38531D02*
X55562Y-38931D01*
X55454Y-38303D02*
X55347Y-38731D01*
X55626Y-38731D01*
G54D15*
G54D18*
X46655Y-49930D02*
X46655Y-50415D01*
X46676Y-50473D01*
X46698Y-50501D01*
X46741Y-50530D01*
X46826Y-50530D01*
X46869Y-50501D01*
X46891Y-50473D01*
X46912Y-50415D01*
X46912Y-49930D01*
X47362Y-50530D02*
X47105Y-50530D01*
X47234Y-50530D02*
X47234Y-49930D01*
X47191Y-50015D01*
X47148Y-50073D01*
X47105Y-50101D01*
X47748Y-50130D02*
X47748Y-50530D01*
X47641Y-49901D02*
X47534Y-50330D01*
X47812Y-50330D01*
G54D15*
G54D18*
X48523Y-50930D02*
X48823Y-50930D01*
X48630Y-51530D01*
X49187Y-51130D02*
X49187Y-51530D01*
X49080Y-50901D02*
X48973Y-51330D01*
X49251Y-51330D01*
X49637Y-51530D02*
X49423Y-51530D01*
X49423Y-50930D01*
X49766Y-51501D02*
X49830Y-51530D01*
X49937Y-51530D01*
X49980Y-51501D01*
X50001Y-51473D01*
X50023Y-51415D01*
X50023Y-51358D01*
X50001Y-51301D01*
X49980Y-51273D01*
X49937Y-51244D01*
X49851Y-51215D01*
X49809Y-51187D01*
X49787Y-51158D01*
X49766Y-51101D01*
X49766Y-51044D01*
X49787Y-50987D01*
X49809Y-50958D01*
X49851Y-50930D01*
X49959Y-50930D01*
X50023Y-50958D01*
X50237Y-51530D02*
X50323Y-51530D01*
X50366Y-51501D01*
X50387Y-51473D01*
X50430Y-51387D01*
X50451Y-51273D01*
X50451Y-51044D01*
X50430Y-50987D01*
X50409Y-50958D01*
X50366Y-50930D01*
X50280Y-50930D01*
X50237Y-50958D01*
X50216Y-50987D01*
X50194Y-51044D01*
X50194Y-51187D01*
X50216Y-51244D01*
X50237Y-51273D01*
X50280Y-51301D01*
X50366Y-51301D01*
X50409Y-51273D01*
X50430Y-51244D01*
X50451Y-51187D01*
X50730Y-50930D02*
X50773Y-50930D01*
X50816Y-50958D01*
X50837Y-50987D01*
X50859Y-51044D01*
X50880Y-51158D01*
X50880Y-51301D01*
X50859Y-51415D01*
X50837Y-51473D01*
X50816Y-51501D01*
X50773Y-51530D01*
X50730Y-51530D01*
X50687Y-51501D01*
X50666Y-51473D01*
X50644Y-51415D01*
X50623Y-51301D01*
X50623Y-51158D01*
X50644Y-51044D01*
X50666Y-50987D01*
X50687Y-50958D01*
X50730Y-50930D01*
G54D15*
G54D18*
X49625Y-81426D02*
X49625Y-81912D01*
X49647Y-81969D01*
X49668Y-81997D01*
X49711Y-82026D01*
X49797Y-82026D01*
X49839Y-81997D01*
X49861Y-81969D01*
X49882Y-81912D01*
X49882Y-81426D01*
X50161Y-81683D02*
X50118Y-81654D01*
X50097Y-81626D01*
X50075Y-81569D01*
X50075Y-81540D01*
X50097Y-81483D01*
X50118Y-81454D01*
X50161Y-81426D01*
X50247Y-81426D01*
X50289Y-81454D01*
X50311Y-81483D01*
X50332Y-81540D01*
X50332Y-81569D01*
X50311Y-81626D01*
X50289Y-81654D01*
X50247Y-81683D01*
X50161Y-81683D01*
X50118Y-81712D01*
X50097Y-81740D01*
X50075Y-81797D01*
X50075Y-81912D01*
X50097Y-81969D01*
X50118Y-81997D01*
X50161Y-82026D01*
X50247Y-82026D01*
X50289Y-81997D01*
X50311Y-81969D01*
X50332Y-81912D01*
X50332Y-81797D01*
X50311Y-81740D01*
X50289Y-81712D01*
X50247Y-81683D01*
G54D15*
G54D18*
X51279Y-82426D02*
X51579Y-82426D01*
X51386Y-83026D01*
X51943Y-82626D02*
X51943Y-83026D01*
X51836Y-82397D02*
X51729Y-82826D01*
X52007Y-82826D01*
X52393Y-83026D02*
X52179Y-83026D01*
X52179Y-82426D01*
X52522Y-82997D02*
X52586Y-83026D01*
X52693Y-83026D01*
X52736Y-82997D01*
X52757Y-82969D01*
X52779Y-82912D01*
X52779Y-82854D01*
X52757Y-82797D01*
X52736Y-82769D01*
X52693Y-82740D01*
X52607Y-82712D01*
X52564Y-82683D01*
X52543Y-82654D01*
X52522Y-82597D01*
X52522Y-82540D01*
X52543Y-82483D01*
X52564Y-82454D01*
X52607Y-82426D01*
X52714Y-82426D01*
X52779Y-82454D01*
X53207Y-83026D02*
X52950Y-83026D01*
X53079Y-83026D02*
X53079Y-82426D01*
X53036Y-82512D01*
X52993Y-82569D01*
X52950Y-82597D01*
X53636Y-83026D02*
X53379Y-83026D01*
X53507Y-83026D02*
X53507Y-82426D01*
X53464Y-82512D01*
X53422Y-82569D01*
X53379Y-82597D01*
G54D15*
G54D18*
X63190Y-43237D02*
X63190Y-43723D01*
X63212Y-43780D01*
X63233Y-43808D01*
X63276Y-43837D01*
X63362Y-43837D01*
X63405Y-43808D01*
X63426Y-43780D01*
X63448Y-43723D01*
X63448Y-43237D01*
X63640Y-43294D02*
X63662Y-43265D01*
X63705Y-43237D01*
X63812Y-43237D01*
X63855Y-43265D01*
X63876Y-43294D01*
X63898Y-43351D01*
X63898Y-43408D01*
X63876Y-43494D01*
X63619Y-43837D01*
X63898Y-43837D01*
X64283Y-43437D02*
X64283Y-43837D01*
X64176Y-43208D02*
X64069Y-43637D01*
X64348Y-43637D01*
G54D15*
G54D18*
X65058Y-44237D02*
X65358Y-44237D01*
X65165Y-44837D01*
X65723Y-44437D02*
X65723Y-44837D01*
X65615Y-44208D02*
X65508Y-44637D01*
X65787Y-44637D01*
X66173Y-44837D02*
X65958Y-44837D01*
X65958Y-44237D01*
X66301Y-44808D02*
X66365Y-44837D01*
X66473Y-44837D01*
X66515Y-44808D01*
X66537Y-44780D01*
X66558Y-44723D01*
X66558Y-44665D01*
X66537Y-44608D01*
X66515Y-44580D01*
X66473Y-44551D01*
X66387Y-44523D01*
X66344Y-44494D01*
X66323Y-44465D01*
X66301Y-44408D01*
X66301Y-44351D01*
X66323Y-44294D01*
X66344Y-44265D01*
X66387Y-44237D01*
X66494Y-44237D01*
X66558Y-44265D01*
X66837Y-44237D02*
X66880Y-44237D01*
X66923Y-44265D01*
X66944Y-44294D01*
X66965Y-44351D01*
X66987Y-44465D01*
X66987Y-44608D01*
X66965Y-44723D01*
X66944Y-44780D01*
X66923Y-44808D01*
X66880Y-44837D01*
X66837Y-44837D01*
X66794Y-44808D01*
X66773Y-44780D01*
X66751Y-44723D01*
X66730Y-44608D01*
X66730Y-44465D01*
X66751Y-44351D01*
X66773Y-44294D01*
X66794Y-44265D01*
X66837Y-44237D01*
X67373Y-44237D02*
X67287Y-44237D01*
X67244Y-44265D01*
X67223Y-44294D01*
X67180Y-44380D01*
X67158Y-44494D01*
X67158Y-44723D01*
X67180Y-44780D01*
X67201Y-44808D01*
X67244Y-44837D01*
X67330Y-44837D01*
X67373Y-44808D01*
X67394Y-44780D01*
X67415Y-44723D01*
X67415Y-44580D01*
X67394Y-44523D01*
X67373Y-44494D01*
X67330Y-44465D01*
X67244Y-44465D01*
X67201Y-44494D01*
X67180Y-44523D01*
X67158Y-44580D01*
G54D15*
G54D18*
X51594Y-43631D02*
X51594Y-44116D01*
X51615Y-44173D01*
X51637Y-44202D01*
X51679Y-44231D01*
X51765Y-44231D01*
X51808Y-44202D01*
X51829Y-44173D01*
X51851Y-44116D01*
X51851Y-43631D01*
X52022Y-43631D02*
X52322Y-43631D01*
X52129Y-44231D01*
G54D15*
G54D18*
X53247Y-44631D02*
X53547Y-44631D01*
X53354Y-45231D01*
X53912Y-44831D02*
X53912Y-45231D01*
X53804Y-44602D02*
X53697Y-45031D01*
X53976Y-45031D01*
X54362Y-45231D02*
X54147Y-45231D01*
X54147Y-44631D01*
X54490Y-45202D02*
X54554Y-45231D01*
X54662Y-45231D01*
X54704Y-45202D01*
X54726Y-45173D01*
X54747Y-45116D01*
X54747Y-45059D01*
X54726Y-45002D01*
X54704Y-44973D01*
X54662Y-44945D01*
X54576Y-44916D01*
X54533Y-44888D01*
X54512Y-44859D01*
X54490Y-44802D01*
X54490Y-44745D01*
X54512Y-44688D01*
X54533Y-44659D01*
X54576Y-44631D01*
X54683Y-44631D01*
X54747Y-44659D01*
X54897Y-44631D02*
X55176Y-44631D01*
X55026Y-44859D01*
X55090Y-44859D01*
X55133Y-44888D01*
X55154Y-44916D01*
X55176Y-44973D01*
X55176Y-45116D01*
X55154Y-45173D01*
X55133Y-45202D01*
X55090Y-45231D01*
X54962Y-45231D01*
X54919Y-45202D01*
X54897Y-45173D01*
X55347Y-44688D02*
X55369Y-44659D01*
X55412Y-44631D01*
X55519Y-44631D01*
X55562Y-44659D01*
X55583Y-44688D01*
X55604Y-44745D01*
X55604Y-44802D01*
X55583Y-44888D01*
X55326Y-45231D01*
X55604Y-45231D01*
G54D15*
G54D18*
X26791Y-43631D02*
X26791Y-44116D01*
X26812Y-44173D01*
X26833Y-44202D01*
X26876Y-44231D01*
X26962Y-44231D01*
X27005Y-44202D01*
X27026Y-44173D01*
X27048Y-44116D01*
X27048Y-43631D01*
X27498Y-44231D02*
X27241Y-44231D01*
X27369Y-44231D02*
X27369Y-43631D01*
X27326Y-43716D01*
X27283Y-43773D01*
X27241Y-43802D01*
G54D15*
G54D18*
X28444Y-44631D02*
X28744Y-44631D01*
X28551Y-45231D01*
X29108Y-44831D02*
X29108Y-45231D01*
X29001Y-44602D02*
X28894Y-45031D01*
X29173Y-45031D01*
X29558Y-45231D02*
X29344Y-45231D01*
X29344Y-44631D01*
X29687Y-45202D02*
X29751Y-45231D01*
X29858Y-45231D01*
X29901Y-45202D01*
X29923Y-45173D01*
X29944Y-45116D01*
X29944Y-45059D01*
X29923Y-45002D01*
X29901Y-44973D01*
X29858Y-44945D01*
X29773Y-44916D01*
X29730Y-44888D01*
X29708Y-44859D01*
X29687Y-44802D01*
X29687Y-44745D01*
X29708Y-44688D01*
X29730Y-44659D01*
X29773Y-44631D01*
X29880Y-44631D01*
X29944Y-44659D01*
X30373Y-45231D02*
X30116Y-45231D01*
X30244Y-45231D02*
X30244Y-44631D01*
X30201Y-44716D01*
X30158Y-44773D01*
X30116Y-44802D01*
X30758Y-44831D02*
X30758Y-45231D01*
X30651Y-44602D02*
X30544Y-45031D01*
X30823Y-45031D01*
G54D15*
G54D16*
X42262Y-32800D02*
X42243Y-32820D01*
X42186Y-32839D01*
X42148Y-32839D01*
X42091Y-32820D01*
X42053Y-32781D01*
X42033Y-32743D01*
X42014Y-32667D01*
X42014Y-32610D01*
X42033Y-32534D01*
X42053Y-32496D01*
X42091Y-32458D01*
X42148Y-32439D01*
X42186Y-32439D01*
X42243Y-32458D01*
X42262Y-32477D01*
X42395Y-32439D02*
X42643Y-32439D01*
X42510Y-32591D01*
X42567Y-32591D01*
X42605Y-32610D01*
X42624Y-32629D01*
X42643Y-32667D01*
X42643Y-32762D01*
X42624Y-32800D01*
X42605Y-32820D01*
X42567Y-32839D01*
X42453Y-32839D01*
X42414Y-32820D01*
X42395Y-32800D01*
X43005Y-32439D02*
X42814Y-32439D01*
X42795Y-32629D01*
X42814Y-32610D01*
X42853Y-32591D01*
X42948Y-32591D01*
X42986Y-32610D01*
X43005Y-32629D01*
X43024Y-32667D01*
X43024Y-32762D01*
X43005Y-32800D01*
X42986Y-32820D01*
X42948Y-32839D01*
X42853Y-32839D01*
X42814Y-32820D01*
X42795Y-32800D01*
X24533Y-44745D02*
X24552Y-44764D01*
X24571Y-44821D01*
X24571Y-44859D01*
X24552Y-44916D01*
X24514Y-44954D01*
X24476Y-44973D01*
X24399Y-44992D01*
X24342Y-44992D01*
X24266Y-44973D01*
X24228Y-44954D01*
X24190Y-44916D01*
X24171Y-44859D01*
X24171Y-44821D01*
X24190Y-44764D01*
X24209Y-44745D01*
X24171Y-44611D02*
X24171Y-44364D01*
X24323Y-44497D01*
X24323Y-44440D01*
X24342Y-44402D01*
X24361Y-44383D01*
X24399Y-44364D01*
X24495Y-44364D01*
X24533Y-44383D01*
X24552Y-44402D01*
X24571Y-44440D01*
X24571Y-44554D01*
X24552Y-44592D01*
X24533Y-44611D01*
X24171Y-44021D02*
X24171Y-44097D01*
X24190Y-44135D01*
X24209Y-44154D01*
X24266Y-44192D01*
X24342Y-44211D01*
X24495Y-44211D01*
X24533Y-44192D01*
X24552Y-44173D01*
X24571Y-44135D01*
X24571Y-44059D01*
X24552Y-44021D01*
X24533Y-44002D01*
X24495Y-43983D01*
X24399Y-43983D01*
X24361Y-44002D01*
X24342Y-44021D01*
X24323Y-44059D01*
X24323Y-44135D01*
X24342Y-44173D01*
X24361Y-44192D01*
X24399Y-44211D01*
X50923Y-54060D02*
X50904Y-54079D01*
X50847Y-54098D01*
X50809Y-54098D01*
X50752Y-54079D01*
X50714Y-54041D01*
X50695Y-54003D01*
X50676Y-53927D01*
X50676Y-53870D01*
X50695Y-53794D01*
X50714Y-53756D01*
X50752Y-53717D01*
X50809Y-53698D01*
X50847Y-53698D01*
X50904Y-53717D01*
X50923Y-53737D01*
X51057Y-53698D02*
X51304Y-53698D01*
X51171Y-53851D01*
X51228Y-53851D01*
X51266Y-53870D01*
X51285Y-53889D01*
X51304Y-53927D01*
X51304Y-54022D01*
X51285Y-54060D01*
X51266Y-54079D01*
X51228Y-54098D01*
X51114Y-54098D01*
X51076Y-54079D01*
X51057Y-54060D01*
X51438Y-53698D02*
X51704Y-53698D01*
X51533Y-54098D01*
X36344Y-55375D02*
X36363Y-55394D01*
X36382Y-55451D01*
X36382Y-55489D01*
X36363Y-55546D01*
X36325Y-55584D01*
X36287Y-55603D01*
X36210Y-55622D01*
X36153Y-55622D01*
X36077Y-55603D01*
X36039Y-55584D01*
X36001Y-55546D01*
X35982Y-55489D01*
X35982Y-55451D01*
X36001Y-55394D01*
X36020Y-55375D01*
X35982Y-55241D02*
X35982Y-54994D01*
X36134Y-55127D01*
X36134Y-55070D01*
X36153Y-55032D01*
X36172Y-55013D01*
X36210Y-54994D01*
X36306Y-54994D01*
X36344Y-55013D01*
X36363Y-55032D01*
X36382Y-55070D01*
X36382Y-55184D01*
X36363Y-55222D01*
X36344Y-55241D01*
X36153Y-54765D02*
X36134Y-54803D01*
X36115Y-54822D01*
X36077Y-54841D01*
X36058Y-54841D01*
X36020Y-54822D01*
X36001Y-54803D01*
X35982Y-54765D01*
X35982Y-54689D01*
X36001Y-54651D01*
X36020Y-54632D01*
X36058Y-54613D01*
X36077Y-54613D01*
X36115Y-54632D01*
X36134Y-54651D01*
X36153Y-54689D01*
X36153Y-54765D01*
X36172Y-54803D01*
X36191Y-54822D01*
X36229Y-54841D01*
X36306Y-54841D01*
X36344Y-54822D01*
X36363Y-54803D01*
X36382Y-54765D01*
X36382Y-54689D01*
X36363Y-54651D01*
X36344Y-54632D01*
X36306Y-54613D01*
X36229Y-54613D01*
X36191Y-54632D01*
X36172Y-54651D01*
X36153Y-54689D01*
X24139Y-73485D02*
X24158Y-73504D01*
X24177Y-73561D01*
X24177Y-73599D01*
X24158Y-73656D01*
X24120Y-73695D01*
X24082Y-73714D01*
X24006Y-73733D01*
X23949Y-73733D01*
X23872Y-73714D01*
X23834Y-73695D01*
X23796Y-73656D01*
X23777Y-73599D01*
X23777Y-73561D01*
X23796Y-73504D01*
X23815Y-73485D01*
X23777Y-73352D02*
X23777Y-73104D01*
X23930Y-73237D01*
X23930Y-73180D01*
X23949Y-73142D01*
X23968Y-73123D01*
X24006Y-73104D01*
X24101Y-73104D01*
X24139Y-73123D01*
X24158Y-73142D01*
X24177Y-73180D01*
X24177Y-73295D01*
X24158Y-73333D01*
X24139Y-73352D01*
X24177Y-72914D02*
X24177Y-72837D01*
X24158Y-72799D01*
X24139Y-72780D01*
X24082Y-72742D01*
X24006Y-72723D01*
X23853Y-72723D01*
X23815Y-72742D01*
X23796Y-72761D01*
X23777Y-72799D01*
X23777Y-72875D01*
X23796Y-72914D01*
X23815Y-72933D01*
X23853Y-72952D01*
X23949Y-72952D01*
X23987Y-72933D01*
X24006Y-72914D01*
X24025Y-72875D01*
X24025Y-72799D01*
X24006Y-72761D01*
X23987Y-72742D01*
X23949Y-72723D01*
X75714Y-43564D02*
X75733Y-43583D01*
X75752Y-43640D01*
X75752Y-43678D01*
X75733Y-43735D01*
X75695Y-43773D01*
X75657Y-43792D01*
X75581Y-43811D01*
X75523Y-43811D01*
X75447Y-43792D01*
X75409Y-43773D01*
X75371Y-43735D01*
X75352Y-43678D01*
X75352Y-43640D01*
X75371Y-43583D01*
X75390Y-43564D01*
X75485Y-43221D02*
X75752Y-43221D01*
X75333Y-43316D02*
X75619Y-43411D01*
X75619Y-43164D01*
X75352Y-42935D02*
X75352Y-42897D01*
X75371Y-42859D01*
X75390Y-42840D01*
X75428Y-42821D01*
X75504Y-42802D01*
X75600Y-42802D01*
X75676Y-42821D01*
X75714Y-42840D01*
X75733Y-42859D01*
X75752Y-42897D01*
X75752Y-42935D01*
X75733Y-42973D01*
X75714Y-42992D01*
X75676Y-43011D01*
X75600Y-43030D01*
X75504Y-43030D01*
X75428Y-43011D01*
X75390Y-42992D01*
X75371Y-42973D01*
X75352Y-42935D01*
X61147Y-68367D02*
X61166Y-68386D01*
X61185Y-68443D01*
X61185Y-68481D01*
X61166Y-68538D01*
X61128Y-68576D01*
X61090Y-68595D01*
X61014Y-68614D01*
X60956Y-68614D01*
X60880Y-68595D01*
X60842Y-68576D01*
X60804Y-68538D01*
X60785Y-68481D01*
X60785Y-68443D01*
X60804Y-68386D01*
X60823Y-68367D01*
X61185Y-67986D02*
X61185Y-68214D01*
X61185Y-68100D02*
X60785Y-68100D01*
X60842Y-68138D01*
X60880Y-68176D01*
X60899Y-68214D01*
X61185Y-67795D02*
X61185Y-67719D01*
X61166Y-67681D01*
X61147Y-67662D01*
X61090Y-67624D01*
X61014Y-67605D01*
X60861Y-67605D01*
X60823Y-67624D01*
X60804Y-67643D01*
X60785Y-67681D01*
X60785Y-67757D01*
X60804Y-67795D01*
X60823Y-67814D01*
X60861Y-67834D01*
X60956Y-67834D01*
X60995Y-67814D01*
X61014Y-67795D01*
X61033Y-67757D01*
X61033Y-67681D01*
X61014Y-67643D01*
X60995Y-67624D01*
X60956Y-67605D01*
X35950Y-78603D02*
X35969Y-78622D01*
X35988Y-78679D01*
X35988Y-78717D01*
X35969Y-78775D01*
X35931Y-78813D01*
X35893Y-78832D01*
X35817Y-78851D01*
X35760Y-78851D01*
X35683Y-78832D01*
X35645Y-78813D01*
X35607Y-78775D01*
X35588Y-78717D01*
X35588Y-78679D01*
X35607Y-78622D01*
X35626Y-78603D01*
X35626Y-78451D02*
X35607Y-78432D01*
X35588Y-78394D01*
X35588Y-78298D01*
X35607Y-78260D01*
X35626Y-78241D01*
X35664Y-78222D01*
X35702Y-78222D01*
X35760Y-78241D01*
X35988Y-78470D01*
X35988Y-78222D01*
X35588Y-78089D02*
X35588Y-77822D01*
X35988Y-77994D01*
X57210Y-82540D02*
X57229Y-82559D01*
X57248Y-82616D01*
X57248Y-82654D01*
X57229Y-82712D01*
X57191Y-82750D01*
X57153Y-82769D01*
X57077Y-82788D01*
X57019Y-82788D01*
X56943Y-82769D01*
X56905Y-82750D01*
X56867Y-82712D01*
X56848Y-82654D01*
X56848Y-82616D01*
X56867Y-82559D01*
X56886Y-82540D01*
X56886Y-82388D02*
X56867Y-82369D01*
X56848Y-82331D01*
X56848Y-82235D01*
X56867Y-82197D01*
X56886Y-82178D01*
X56924Y-82159D01*
X56962Y-82159D01*
X57019Y-82178D01*
X57248Y-82407D01*
X57248Y-82159D01*
X56848Y-81816D02*
X56848Y-81892D01*
X56867Y-81931D01*
X56886Y-81950D01*
X56943Y-81988D01*
X57019Y-82007D01*
X57172Y-82007D01*
X57210Y-81988D01*
X57229Y-81969D01*
X57248Y-81931D01*
X57248Y-81854D01*
X57229Y-81816D01*
X57210Y-81797D01*
X57172Y-81778D01*
X57077Y-81778D01*
X57038Y-81797D01*
X57019Y-81816D01*
X57000Y-81854D01*
X57000Y-81931D01*
X57019Y-81969D01*
X57038Y-81988D01*
X57077Y-82007D01*
X70202Y-82540D02*
X70221Y-82559D01*
X70240Y-82616D01*
X70240Y-82654D01*
X70221Y-82712D01*
X70183Y-82750D01*
X70145Y-82769D01*
X70069Y-82788D01*
X70012Y-82788D01*
X69935Y-82769D01*
X69897Y-82750D01*
X69859Y-82712D01*
X69840Y-82654D01*
X69840Y-82616D01*
X69859Y-82559D01*
X69878Y-82540D01*
X69878Y-82388D02*
X69859Y-82369D01*
X69840Y-82331D01*
X69840Y-82235D01*
X69859Y-82197D01*
X69878Y-82178D01*
X69916Y-82159D01*
X69954Y-82159D01*
X70012Y-82178D01*
X70240Y-82407D01*
X70240Y-82159D01*
X69840Y-81797D02*
X69840Y-81988D01*
X70031Y-82007D01*
X70012Y-81988D01*
X69993Y-81950D01*
X69993Y-81854D01*
X70012Y-81816D01*
X70031Y-81797D01*
X70069Y-81778D01*
X70164Y-81778D01*
X70202Y-81797D01*
X70221Y-81816D01*
X70240Y-81854D01*
X70240Y-81950D01*
X70221Y-81988D01*
X70202Y-82007D01*
X82800Y-82540D02*
X82820Y-82559D01*
X82839Y-82616D01*
X82839Y-82654D01*
X82820Y-82712D01*
X82781Y-82750D01*
X82743Y-82769D01*
X82667Y-82788D01*
X82610Y-82788D01*
X82534Y-82769D01*
X82496Y-82750D01*
X82458Y-82712D01*
X82439Y-82654D01*
X82439Y-82616D01*
X82458Y-82559D01*
X82477Y-82540D01*
X82477Y-82388D02*
X82458Y-82369D01*
X82439Y-82331D01*
X82439Y-82235D01*
X82458Y-82197D01*
X82477Y-82178D01*
X82515Y-82159D01*
X82553Y-82159D01*
X82610Y-82178D01*
X82839Y-82407D01*
X82839Y-82159D01*
X82572Y-81816D02*
X82839Y-81816D01*
X82420Y-81912D02*
X82705Y-82007D01*
X82705Y-81759D01*
X60360Y-44351D02*
X60379Y-44370D01*
X60398Y-44427D01*
X60398Y-44465D01*
X60379Y-44523D01*
X60340Y-44561D01*
X60302Y-44580D01*
X60226Y-44599D01*
X60169Y-44599D01*
X60093Y-44580D01*
X60055Y-44561D01*
X60017Y-44523D01*
X59998Y-44465D01*
X59998Y-44427D01*
X60017Y-44370D01*
X60036Y-44351D01*
X60036Y-44199D02*
X60017Y-44180D01*
X59998Y-44142D01*
X59998Y-44046D01*
X60017Y-44008D01*
X60036Y-43989D01*
X60074Y-43970D01*
X60112Y-43970D01*
X60169Y-43989D01*
X60398Y-44218D01*
X60398Y-43970D01*
X59998Y-43837D02*
X59998Y-43589D01*
X60150Y-43723D01*
X60150Y-43665D01*
X60169Y-43627D01*
X60188Y-43608D01*
X60226Y-43589D01*
X60321Y-43589D01*
X60360Y-43608D01*
X60379Y-43627D01*
X60398Y-43665D01*
X60398Y-43780D01*
X60379Y-43818D01*
X60360Y-43837D01*
X59966Y-75453D02*
X59985Y-75473D01*
X60004Y-75530D01*
X60004Y-75568D01*
X59985Y-75625D01*
X59947Y-75663D01*
X59909Y-75682D01*
X59832Y-75701D01*
X59775Y-75701D01*
X59699Y-75682D01*
X59661Y-75663D01*
X59623Y-75625D01*
X59604Y-75568D01*
X59604Y-75530D01*
X59623Y-75473D01*
X59642Y-75453D01*
X59642Y-75301D02*
X59623Y-75282D01*
X59604Y-75244D01*
X59604Y-75149D01*
X59623Y-75111D01*
X59642Y-75092D01*
X59680Y-75073D01*
X59718Y-75073D01*
X59775Y-75092D01*
X60004Y-75320D01*
X60004Y-75073D01*
X59642Y-74920D02*
X59623Y-74901D01*
X59604Y-74863D01*
X59604Y-74768D01*
X59623Y-74730D01*
X59642Y-74711D01*
X59680Y-74692D01*
X59718Y-74692D01*
X59775Y-74711D01*
X60004Y-74939D01*
X60004Y-74692D01*
X59191Y-59178D02*
X59172Y-59197D01*
X59115Y-59217D01*
X59077Y-59217D01*
X59020Y-59197D01*
X58982Y-59159D01*
X58963Y-59121D01*
X58944Y-59045D01*
X58944Y-58988D01*
X58963Y-58912D01*
X58982Y-58874D01*
X59020Y-58836D01*
X59077Y-58817D01*
X59115Y-58817D01*
X59172Y-58836D01*
X59191Y-58855D01*
X59344Y-58855D02*
X59363Y-58836D01*
X59401Y-58817D01*
X59496Y-58817D01*
X59534Y-58836D01*
X59553Y-58855D01*
X59572Y-58893D01*
X59572Y-58931D01*
X59553Y-58988D01*
X59325Y-59217D01*
X59572Y-59217D01*
X59953Y-59217D02*
X59725Y-59217D01*
X59839Y-59217D02*
X59839Y-58817D01*
X59801Y-58874D01*
X59763Y-58912D01*
X59725Y-58931D01*
X36344Y-66792D02*
X36363Y-66811D01*
X36382Y-66868D01*
X36382Y-66906D01*
X36363Y-66964D01*
X36325Y-67002D01*
X36287Y-67021D01*
X36210Y-67040D01*
X36153Y-67040D01*
X36077Y-67021D01*
X36039Y-67002D01*
X36001Y-66964D01*
X35982Y-66906D01*
X35982Y-66868D01*
X36001Y-66811D01*
X36020Y-66792D01*
X36020Y-66640D02*
X36001Y-66621D01*
X35982Y-66583D01*
X35982Y-66487D01*
X36001Y-66449D01*
X36020Y-66430D01*
X36058Y-66411D01*
X36096Y-66411D01*
X36153Y-66430D01*
X36382Y-66659D01*
X36382Y-66411D01*
X35982Y-66164D02*
X35982Y-66125D01*
X36001Y-66087D01*
X36020Y-66068D01*
X36058Y-66049D01*
X36134Y-66030D01*
X36229Y-66030D01*
X36306Y-66049D01*
X36344Y-66068D01*
X36363Y-66087D01*
X36382Y-66125D01*
X36382Y-66164D01*
X36363Y-66202D01*
X36344Y-66221D01*
X36306Y-66240D01*
X36229Y-66259D01*
X36134Y-66259D01*
X36058Y-66240D01*
X36020Y-66221D01*
X36001Y-66202D01*
X35982Y-66164D01*
X23745Y-61674D02*
X23764Y-61693D01*
X23783Y-61750D01*
X23783Y-61788D01*
X23764Y-61845D01*
X23726Y-61883D01*
X23688Y-61903D01*
X23612Y-61922D01*
X23555Y-61922D01*
X23479Y-61903D01*
X23441Y-61883D01*
X23402Y-61845D01*
X23383Y-61788D01*
X23383Y-61750D01*
X23402Y-61693D01*
X23422Y-61674D01*
X23422Y-61522D02*
X23402Y-61503D01*
X23383Y-61464D01*
X23383Y-61369D01*
X23402Y-61331D01*
X23422Y-61312D01*
X23460Y-61293D01*
X23498Y-61293D01*
X23555Y-61312D01*
X23783Y-61541D01*
X23783Y-61293D01*
X23555Y-61064D02*
X23536Y-61103D01*
X23517Y-61122D01*
X23479Y-61141D01*
X23460Y-61141D01*
X23422Y-61122D01*
X23402Y-61103D01*
X23383Y-61064D01*
X23383Y-60988D01*
X23402Y-60950D01*
X23422Y-60931D01*
X23460Y-60912D01*
X23479Y-60912D01*
X23517Y-60931D01*
X23536Y-60950D01*
X23555Y-60988D01*
X23555Y-61064D01*
X23574Y-61103D01*
X23593Y-61122D01*
X23631Y-61141D01*
X23707Y-61141D01*
X23745Y-61122D01*
X23764Y-61103D01*
X23783Y-61064D01*
X23783Y-60988D01*
X23764Y-60950D01*
X23745Y-60931D01*
X23707Y-60912D01*
X23631Y-60912D01*
X23593Y-60931D01*
X23574Y-60950D01*
X23555Y-60988D01*
X70202Y-62068D02*
X70221Y-62087D01*
X70240Y-62144D01*
X70240Y-62182D01*
X70221Y-62239D01*
X70183Y-62277D01*
X70145Y-62296D01*
X70069Y-62315D01*
X70012Y-62315D01*
X69935Y-62296D01*
X69897Y-62277D01*
X69859Y-62239D01*
X69840Y-62182D01*
X69840Y-62144D01*
X69859Y-62087D01*
X69878Y-62068D01*
X70240Y-61687D02*
X70240Y-61915D01*
X70240Y-61801D02*
X69840Y-61801D01*
X69897Y-61839D01*
X69935Y-61877D01*
X69954Y-61915D01*
X70012Y-61458D02*
X69993Y-61496D01*
X69973Y-61515D01*
X69935Y-61534D01*
X69916Y-61534D01*
X69878Y-61515D01*
X69859Y-61496D01*
X69840Y-61458D01*
X69840Y-61382D01*
X69859Y-61344D01*
X69878Y-61325D01*
X69916Y-61306D01*
X69935Y-61306D01*
X69973Y-61325D01*
X69993Y-61344D01*
X70012Y-61382D01*
X70012Y-61458D01*
X70031Y-61496D01*
X70050Y-61515D01*
X70088Y-61534D01*
X70164Y-61534D01*
X70202Y-61515D01*
X70221Y-61496D01*
X70240Y-61458D01*
X70240Y-61382D01*
X70221Y-61344D01*
X70202Y-61325D01*
X70164Y-61306D01*
X70088Y-61306D01*
X70050Y-61325D01*
X70031Y-61344D01*
X70012Y-61382D01*
X82800Y-62068D02*
X82820Y-62087D01*
X82839Y-62144D01*
X82839Y-62182D01*
X82820Y-62239D01*
X82781Y-62277D01*
X82743Y-62296D01*
X82667Y-62315D01*
X82610Y-62315D01*
X82534Y-62296D01*
X82496Y-62277D01*
X82458Y-62239D01*
X82439Y-62182D01*
X82439Y-62144D01*
X82458Y-62087D01*
X82477Y-62068D01*
X82839Y-61687D02*
X82839Y-61915D01*
X82839Y-61801D02*
X82439Y-61801D01*
X82496Y-61839D01*
X82534Y-61877D01*
X82553Y-61915D01*
X82439Y-61553D02*
X82439Y-61287D01*
X82839Y-61458D01*
X73745Y-68367D02*
X73764Y-68386D01*
X73783Y-68443D01*
X73783Y-68481D01*
X73764Y-68538D01*
X73726Y-68576D01*
X73688Y-68595D01*
X73612Y-68614D01*
X73555Y-68614D01*
X73479Y-68595D01*
X73441Y-68576D01*
X73402Y-68538D01*
X73383Y-68481D01*
X73383Y-68443D01*
X73402Y-68386D01*
X73422Y-68367D01*
X73783Y-67986D02*
X73783Y-68214D01*
X73783Y-68100D02*
X73383Y-68100D01*
X73441Y-68138D01*
X73479Y-68176D01*
X73498Y-68214D01*
X73383Y-67643D02*
X73383Y-67719D01*
X73402Y-67757D01*
X73422Y-67776D01*
X73479Y-67814D01*
X73555Y-67834D01*
X73707Y-67834D01*
X73745Y-67814D01*
X73764Y-67795D01*
X73783Y-67757D01*
X73783Y-67681D01*
X73764Y-67643D01*
X73745Y-67624D01*
X73707Y-67605D01*
X73612Y-67605D01*
X73574Y-67624D01*
X73555Y-67643D01*
X73536Y-67681D01*
X73536Y-67757D01*
X73555Y-67795D01*
X73574Y-67814D01*
X73612Y-67834D01*
X84375Y-68367D02*
X84394Y-68386D01*
X84413Y-68443D01*
X84413Y-68481D01*
X84394Y-68538D01*
X84356Y-68576D01*
X84318Y-68595D01*
X84242Y-68614D01*
X84185Y-68614D01*
X84109Y-68595D01*
X84071Y-68576D01*
X84032Y-68538D01*
X84013Y-68481D01*
X84013Y-68443D01*
X84032Y-68386D01*
X84051Y-68367D01*
X84413Y-67986D02*
X84413Y-68214D01*
X84413Y-68100D02*
X84013Y-68100D01*
X84071Y-68138D01*
X84109Y-68176D01*
X84128Y-68214D01*
X84013Y-67624D02*
X84013Y-67814D01*
X84204Y-67834D01*
X84185Y-67814D01*
X84166Y-67776D01*
X84166Y-67681D01*
X84185Y-67643D01*
X84204Y-67624D01*
X84242Y-67605D01*
X84337Y-67605D01*
X84375Y-67624D01*
X84394Y-67643D01*
X84413Y-67681D01*
X84413Y-67776D01*
X84394Y-67814D01*
X84375Y-67834D01*
X70202Y-75453D02*
X70221Y-75473D01*
X70240Y-75530D01*
X70240Y-75568D01*
X70221Y-75625D01*
X70183Y-75663D01*
X70145Y-75682D01*
X70069Y-75701D01*
X70012Y-75701D01*
X69935Y-75682D01*
X69897Y-75663D01*
X69859Y-75625D01*
X69840Y-75568D01*
X69840Y-75530D01*
X69859Y-75473D01*
X69878Y-75453D01*
X70240Y-75073D02*
X70240Y-75301D01*
X70240Y-75187D02*
X69840Y-75187D01*
X69897Y-75225D01*
X69935Y-75263D01*
X69954Y-75301D01*
X69973Y-74730D02*
X70240Y-74730D01*
X69821Y-74825D02*
X70107Y-74920D01*
X70107Y-74673D01*
X82800Y-75453D02*
X82820Y-75473D01*
X82839Y-75530D01*
X82839Y-75568D01*
X82820Y-75625D01*
X82781Y-75663D01*
X82743Y-75682D01*
X82667Y-75701D01*
X82610Y-75701D01*
X82534Y-75682D01*
X82496Y-75663D01*
X82458Y-75625D01*
X82439Y-75568D01*
X82439Y-75530D01*
X82458Y-75473D01*
X82477Y-75453D01*
X82839Y-75073D02*
X82839Y-75301D01*
X82839Y-75187D02*
X82439Y-75187D01*
X82496Y-75225D01*
X82534Y-75263D01*
X82553Y-75301D01*
X82439Y-74939D02*
X82439Y-74692D01*
X82591Y-74825D01*
X82591Y-74768D01*
X82610Y-74730D01*
X82629Y-74711D01*
X82667Y-74692D01*
X82762Y-74692D01*
X82800Y-74711D01*
X82820Y-74730D01*
X82839Y-74768D01*
X82839Y-74882D01*
X82820Y-74920D01*
X82800Y-74939D01*
X35163Y-44745D02*
X35182Y-44764D01*
X35201Y-44821D01*
X35201Y-44859D01*
X35182Y-44916D01*
X35144Y-44954D01*
X35106Y-44973D01*
X35029Y-44992D01*
X34972Y-44992D01*
X34896Y-44973D01*
X34858Y-44954D01*
X34820Y-44916D01*
X34801Y-44859D01*
X34801Y-44821D01*
X34820Y-44764D01*
X34839Y-44745D01*
X35201Y-44364D02*
X35201Y-44592D01*
X35201Y-44478D02*
X34801Y-44478D01*
X34858Y-44516D01*
X34896Y-44554D01*
X34915Y-44592D01*
X34839Y-44211D02*
X34820Y-44192D01*
X34801Y-44154D01*
X34801Y-44059D01*
X34820Y-44021D01*
X34839Y-44002D01*
X34877Y-43983D01*
X34915Y-43983D01*
X34972Y-44002D01*
X35201Y-44231D01*
X35201Y-43983D01*
X49336Y-38446D02*
X49355Y-38465D01*
X49374Y-38522D01*
X49374Y-38560D01*
X49355Y-38617D01*
X49317Y-38655D01*
X49279Y-38674D01*
X49203Y-38693D01*
X49145Y-38693D01*
X49069Y-38674D01*
X49031Y-38655D01*
X48993Y-38617D01*
X48974Y-38560D01*
X48974Y-38522D01*
X48993Y-38465D01*
X49012Y-38446D01*
X49012Y-38293D02*
X48993Y-38274D01*
X48974Y-38236D01*
X48974Y-38141D01*
X48993Y-38103D01*
X49012Y-38084D01*
X49050Y-38065D01*
X49088Y-38065D01*
X49145Y-38084D01*
X49374Y-38312D01*
X49374Y-38065D01*
X49374Y-37874D02*
X49374Y-37798D01*
X49355Y-37760D01*
X49336Y-37741D01*
X49279Y-37703D01*
X49203Y-37684D01*
X49050Y-37684D01*
X49012Y-37703D01*
X48993Y-37722D01*
X48974Y-37760D01*
X48974Y-37836D01*
X48993Y-37874D01*
X49012Y-37893D01*
X49050Y-37912D01*
X49145Y-37912D01*
X49184Y-37893D01*
X49203Y-37874D01*
X49222Y-37836D01*
X49222Y-37760D01*
X49203Y-37722D01*
X49184Y-37703D01*
X49145Y-37684D01*
X49336Y-44745D02*
X49355Y-44764D01*
X49374Y-44821D01*
X49374Y-44859D01*
X49355Y-44916D01*
X49317Y-44954D01*
X49279Y-44973D01*
X49203Y-44992D01*
X49145Y-44992D01*
X49069Y-44973D01*
X49031Y-44954D01*
X48993Y-44916D01*
X48974Y-44859D01*
X48974Y-44821D01*
X48993Y-44764D01*
X49012Y-44745D01*
X48974Y-44611D02*
X48974Y-44364D01*
X49126Y-44497D01*
X49126Y-44440D01*
X49145Y-44402D01*
X49164Y-44383D01*
X49203Y-44364D01*
X49298Y-44364D01*
X49336Y-44383D01*
X49355Y-44402D01*
X49374Y-44440D01*
X49374Y-44554D01*
X49355Y-44592D01*
X49336Y-44611D01*
X48974Y-44116D02*
X48974Y-44078D01*
X48993Y-44040D01*
X49012Y-44021D01*
X49050Y-44002D01*
X49126Y-43983D01*
X49222Y-43983D01*
X49298Y-44002D01*
X49336Y-44021D01*
X49355Y-44040D01*
X49374Y-44078D01*
X49374Y-44116D01*
X49355Y-44154D01*
X49336Y-44173D01*
X49298Y-44192D01*
X49222Y-44211D01*
X49126Y-44211D01*
X49050Y-44192D01*
X49012Y-44173D01*
X48993Y-44154D01*
X48974Y-44116D01*
X47367Y-82540D02*
X47386Y-82559D01*
X47405Y-82616D01*
X47405Y-82654D01*
X47386Y-82712D01*
X47348Y-82750D01*
X47310Y-82769D01*
X47234Y-82788D01*
X47177Y-82788D01*
X47101Y-82769D01*
X47063Y-82750D01*
X47025Y-82712D01*
X47005Y-82654D01*
X47005Y-82616D01*
X47025Y-82559D01*
X47044Y-82540D01*
X47005Y-82407D02*
X47005Y-82159D01*
X47158Y-82292D01*
X47158Y-82235D01*
X47177Y-82197D01*
X47196Y-82178D01*
X47234Y-82159D01*
X47329Y-82159D01*
X47367Y-82178D01*
X47386Y-82197D01*
X47405Y-82235D01*
X47405Y-82350D01*
X47386Y-82388D01*
X47367Y-82407D01*
X47405Y-81778D02*
X47405Y-82007D01*
X47405Y-81892D02*
X47005Y-81892D01*
X47063Y-81931D01*
X47101Y-81969D01*
X47120Y-82007D01*
X57604Y-51831D02*
X57623Y-51850D01*
X57642Y-51908D01*
X57642Y-51946D01*
X57623Y-52003D01*
X57585Y-52041D01*
X57546Y-52060D01*
X57470Y-52079D01*
X57413Y-52079D01*
X57337Y-52060D01*
X57299Y-52041D01*
X57261Y-52003D01*
X57242Y-51946D01*
X57242Y-51908D01*
X57261Y-51850D01*
X57280Y-51831D01*
X57242Y-51698D02*
X57242Y-51450D01*
X57394Y-51584D01*
X57394Y-51527D01*
X57413Y-51489D01*
X57432Y-51470D01*
X57470Y-51450D01*
X57566Y-51450D01*
X57604Y-51470D01*
X57623Y-51489D01*
X57642Y-51527D01*
X57642Y-51641D01*
X57623Y-51679D01*
X57604Y-51698D01*
X57280Y-51298D02*
X57261Y-51279D01*
X57242Y-51241D01*
X57242Y-51146D01*
X57261Y-51108D01*
X57280Y-51089D01*
X57318Y-51070D01*
X57356Y-51070D01*
X57413Y-51089D01*
X57642Y-51317D01*
X57642Y-51070D01*
X75714Y-35296D02*
X75733Y-35315D01*
X75752Y-35372D01*
X75752Y-35410D01*
X75733Y-35467D01*
X75695Y-35506D01*
X75657Y-35525D01*
X75581Y-35544D01*
X75523Y-35544D01*
X75447Y-35525D01*
X75409Y-35506D01*
X75371Y-35467D01*
X75352Y-35410D01*
X75352Y-35372D01*
X75371Y-35315D01*
X75390Y-35296D01*
X75352Y-35163D02*
X75352Y-34915D01*
X75504Y-35048D01*
X75504Y-34991D01*
X75523Y-34953D01*
X75542Y-34934D01*
X75581Y-34915D01*
X75676Y-34915D01*
X75714Y-34934D01*
X75733Y-34953D01*
X75752Y-34991D01*
X75752Y-35106D01*
X75733Y-35144D01*
X75714Y-35163D01*
X75352Y-34782D02*
X75352Y-34534D01*
X75504Y-34667D01*
X75504Y-34610D01*
X75523Y-34572D01*
X75542Y-34553D01*
X75581Y-34534D01*
X75676Y-34534D01*
X75714Y-34553D01*
X75733Y-34572D01*
X75752Y-34610D01*
X75752Y-34725D01*
X75733Y-34763D01*
X75714Y-34782D01*
X75714Y-51831D02*
X75733Y-51850D01*
X75752Y-51908D01*
X75752Y-51946D01*
X75733Y-52003D01*
X75695Y-52041D01*
X75657Y-52060D01*
X75581Y-52079D01*
X75523Y-52079D01*
X75447Y-52060D01*
X75409Y-52041D01*
X75371Y-52003D01*
X75352Y-51946D01*
X75352Y-51908D01*
X75371Y-51850D01*
X75390Y-51831D01*
X75352Y-51698D02*
X75352Y-51450D01*
X75504Y-51584D01*
X75504Y-51527D01*
X75523Y-51489D01*
X75542Y-51470D01*
X75581Y-51450D01*
X75676Y-51450D01*
X75714Y-51470D01*
X75733Y-51489D01*
X75752Y-51527D01*
X75752Y-51641D01*
X75733Y-51679D01*
X75714Y-51698D01*
X75485Y-51108D02*
X75752Y-51108D01*
X75333Y-51203D02*
X75619Y-51298D01*
X75619Y-51050D01*
X25138Y-58010D02*
X25121Y-58029D01*
X25071Y-58048D01*
X25038Y-58048D01*
X24988Y-58029D01*
X24955Y-57991D01*
X24938Y-57953D01*
X24921Y-57877D01*
X24921Y-57819D01*
X24938Y-57743D01*
X24955Y-57705D01*
X24988Y-57667D01*
X25038Y-57648D01*
X25071Y-57648D01*
X25121Y-57667D01*
X25138Y-57686D01*
X25471Y-58048D02*
X25271Y-58048D01*
X25371Y-58048D02*
X25371Y-57648D01*
X25338Y-57705D01*
X25305Y-57743D01*
X25271Y-57762D01*
X24605Y-56549D02*
X24405Y-56549D01*
X24505Y-56549D02*
X24505Y-56149D01*
X24471Y-56206D01*
X24438Y-56244D01*
X24405Y-56263D01*
X24755Y-56511D02*
X24771Y-56530D01*
X24755Y-56549D01*
X24738Y-56530D01*
X24755Y-56511D01*
X24755Y-56549D01*
X24988Y-56149D02*
X25021Y-56149D01*
X25055Y-56168D01*
X25071Y-56187D01*
X25088Y-56225D01*
X25105Y-56301D01*
X25105Y-56397D01*
X25088Y-56473D01*
X25071Y-56511D01*
X25055Y-56530D01*
X25021Y-56549D01*
X24988Y-56549D01*
X24955Y-56530D01*
X24938Y-56511D01*
X24921Y-56473D01*
X24905Y-56397D01*
X24905Y-56301D01*
X24921Y-56225D01*
X24938Y-56187D01*
X24955Y-56168D01*
X24988Y-56149D01*
X25671Y-56282D02*
X25671Y-56549D01*
X25521Y-56282D02*
X25521Y-56492D01*
X25538Y-56530D01*
X25571Y-56549D01*
X25621Y-56549D01*
X25655Y-56530D01*
X25671Y-56511D01*
X25955Y-56339D02*
X25838Y-56339D01*
X25838Y-56549D02*
X25838Y-56149D01*
X26005Y-56149D01*
X23769Y-57100D02*
X24226Y-57100D01*
X23997Y-57329D02*
X23997Y-56872D01*
X31664Y-68221D02*
X31648Y-68240D01*
X31598Y-68259D01*
X31564Y-68259D01*
X31514Y-68240D01*
X31481Y-68202D01*
X31464Y-68164D01*
X31448Y-68088D01*
X31448Y-68030D01*
X31464Y-67954D01*
X31481Y-67916D01*
X31514Y-67878D01*
X31564Y-67859D01*
X31598Y-67859D01*
X31648Y-67878D01*
X31664Y-67897D01*
X31998Y-68259D02*
X31798Y-68259D01*
X31898Y-68259D02*
X31898Y-67859D01*
X31864Y-67916D01*
X31831Y-67954D01*
X31798Y-67973D01*
X32214Y-67859D02*
X32248Y-67859D01*
X32281Y-67878D01*
X32298Y-67897D01*
X32314Y-67935D01*
X32331Y-68011D01*
X32331Y-68107D01*
X32314Y-68183D01*
X32298Y-68221D01*
X32281Y-68240D01*
X32248Y-68259D01*
X32214Y-68259D01*
X32181Y-68240D01*
X32164Y-68221D01*
X32148Y-68183D01*
X32131Y-68107D01*
X32131Y-68011D01*
X32148Y-67935D01*
X32164Y-67897D01*
X32181Y-67878D01*
X32214Y-67859D01*
X31298Y-69758D02*
X31098Y-69758D01*
X31198Y-69758D02*
X31198Y-69358D01*
X31164Y-69415D01*
X31131Y-69453D01*
X31098Y-69472D01*
X31448Y-69720D02*
X31464Y-69739D01*
X31448Y-69758D01*
X31431Y-69739D01*
X31448Y-69720D01*
X31448Y-69758D01*
X31681Y-69358D02*
X31714Y-69358D01*
X31748Y-69377D01*
X31764Y-69396D01*
X31781Y-69434D01*
X31798Y-69510D01*
X31798Y-69606D01*
X31781Y-69682D01*
X31764Y-69720D01*
X31748Y-69739D01*
X31714Y-69758D01*
X31681Y-69758D01*
X31648Y-69739D01*
X31631Y-69720D01*
X31614Y-69682D01*
X31598Y-69606D01*
X31598Y-69510D01*
X31614Y-69434D01*
X31631Y-69396D01*
X31648Y-69377D01*
X31681Y-69358D01*
X32364Y-69491D02*
X32364Y-69758D01*
X32214Y-69491D02*
X32214Y-69701D01*
X32231Y-69739D01*
X32264Y-69758D01*
X32314Y-69758D01*
X32348Y-69739D01*
X32364Y-69720D01*
X32648Y-69549D02*
X32531Y-69549D01*
X32531Y-69758D02*
X32531Y-69358D01*
X32698Y-69358D01*
X32860Y-68911D02*
X33317Y-68911D01*
X33088Y-69140D02*
X33088Y-68683D01*
X28288Y-58010D02*
X28271Y-58029D01*
X28221Y-58048D01*
X28188Y-58048D01*
X28138Y-58029D01*
X28104Y-57991D01*
X28088Y-57953D01*
X28071Y-57877D01*
X28071Y-57819D01*
X28088Y-57743D01*
X28104Y-57705D01*
X28138Y-57667D01*
X28188Y-57648D01*
X28221Y-57648D01*
X28271Y-57667D01*
X28288Y-57686D01*
X28454Y-58048D02*
X28521Y-58048D01*
X28554Y-58029D01*
X28571Y-58010D01*
X28604Y-57953D01*
X28621Y-57877D01*
X28621Y-57724D01*
X28604Y-57686D01*
X28588Y-57667D01*
X28554Y-57648D01*
X28488Y-57648D01*
X28454Y-57667D01*
X28438Y-57686D01*
X28421Y-57724D01*
X28421Y-57819D01*
X28438Y-57858D01*
X28454Y-57877D01*
X28488Y-57896D01*
X28554Y-57896D01*
X28588Y-57877D01*
X28604Y-57858D01*
X28621Y-57819D01*
X27754Y-56549D02*
X27554Y-56549D01*
X27654Y-56549D02*
X27654Y-56149D01*
X27621Y-56206D01*
X27588Y-56244D01*
X27554Y-56263D01*
X27904Y-56511D02*
X27921Y-56530D01*
X27904Y-56549D01*
X27888Y-56530D01*
X27904Y-56511D01*
X27904Y-56549D01*
X28138Y-56149D02*
X28171Y-56149D01*
X28204Y-56168D01*
X28221Y-56187D01*
X28238Y-56225D01*
X28254Y-56301D01*
X28254Y-56397D01*
X28238Y-56473D01*
X28221Y-56511D01*
X28204Y-56530D01*
X28171Y-56549D01*
X28138Y-56549D01*
X28104Y-56530D01*
X28088Y-56511D01*
X28071Y-56473D01*
X28054Y-56397D01*
X28054Y-56301D01*
X28071Y-56225D01*
X28088Y-56187D01*
X28104Y-56168D01*
X28138Y-56149D01*
X28821Y-56282D02*
X28821Y-56549D01*
X28671Y-56282D02*
X28671Y-56492D01*
X28688Y-56530D01*
X28721Y-56549D01*
X28771Y-56549D01*
X28804Y-56530D01*
X28821Y-56511D01*
X29104Y-56339D02*
X28988Y-56339D01*
X28988Y-56549D02*
X28988Y-56149D01*
X29154Y-56149D01*
X26918Y-57100D02*
X27376Y-57100D01*
X27147Y-57329D02*
X27147Y-56872D01*
X25532Y-69821D02*
X25515Y-69840D01*
X25465Y-69859D01*
X25432Y-69859D01*
X25382Y-69840D01*
X25348Y-69802D01*
X25332Y-69764D01*
X25315Y-69688D01*
X25315Y-69630D01*
X25332Y-69554D01*
X25348Y-69516D01*
X25382Y-69478D01*
X25432Y-69459D01*
X25465Y-69459D01*
X25515Y-69478D01*
X25532Y-69497D01*
X25732Y-69630D02*
X25698Y-69611D01*
X25682Y-69592D01*
X25665Y-69554D01*
X25665Y-69535D01*
X25682Y-69497D01*
X25698Y-69478D01*
X25732Y-69459D01*
X25798Y-69459D01*
X25832Y-69478D01*
X25848Y-69497D01*
X25865Y-69535D01*
X25865Y-69554D01*
X25848Y-69592D01*
X25832Y-69611D01*
X25798Y-69630D01*
X25732Y-69630D01*
X25698Y-69650D01*
X25682Y-69669D01*
X25665Y-69707D01*
X25665Y-69783D01*
X25682Y-69821D01*
X25698Y-69840D01*
X25732Y-69859D01*
X25798Y-69859D01*
X25832Y-69840D01*
X25848Y-69821D01*
X25865Y-69783D01*
X25865Y-69707D01*
X25848Y-69669D01*
X25832Y-69650D01*
X25798Y-69630D01*
X24998Y-68360D02*
X24798Y-68360D01*
X24898Y-68360D02*
X24898Y-67960D01*
X24865Y-68017D01*
X24832Y-68055D01*
X24798Y-68074D01*
X25148Y-68322D02*
X25165Y-68341D01*
X25148Y-68360D01*
X25132Y-68341D01*
X25148Y-68322D01*
X25148Y-68360D01*
X25382Y-67960D02*
X25415Y-67960D01*
X25448Y-67979D01*
X25465Y-67998D01*
X25482Y-68036D01*
X25498Y-68112D01*
X25498Y-68208D01*
X25482Y-68284D01*
X25465Y-68322D01*
X25448Y-68341D01*
X25415Y-68360D01*
X25382Y-68360D01*
X25348Y-68341D01*
X25332Y-68322D01*
X25315Y-68284D01*
X25298Y-68208D01*
X25298Y-68112D01*
X25315Y-68036D01*
X25332Y-67998D01*
X25348Y-67979D01*
X25382Y-67960D01*
X26065Y-68093D02*
X26065Y-68360D01*
X25915Y-68093D02*
X25915Y-68303D01*
X25932Y-68341D01*
X25965Y-68360D01*
X26015Y-68360D01*
X26048Y-68341D01*
X26065Y-68322D01*
X26348Y-68151D02*
X26232Y-68151D01*
X26232Y-68360D02*
X26232Y-67960D01*
X26398Y-67960D01*
X24162Y-68911D02*
X24620Y-68911D01*
X24391Y-69140D02*
X24391Y-68683D01*
X28681Y-69821D02*
X28665Y-69840D01*
X28615Y-69859D01*
X28581Y-69859D01*
X28531Y-69840D01*
X28498Y-69802D01*
X28481Y-69764D01*
X28465Y-69688D01*
X28465Y-69630D01*
X28481Y-69554D01*
X28498Y-69516D01*
X28531Y-69478D01*
X28581Y-69459D01*
X28615Y-69459D01*
X28665Y-69478D01*
X28681Y-69497D01*
X28798Y-69459D02*
X29031Y-69459D01*
X28881Y-69859D01*
X28148Y-68360D02*
X27948Y-68360D01*
X28048Y-68360D02*
X28048Y-67960D01*
X28015Y-68017D01*
X27981Y-68055D01*
X27948Y-68074D01*
X28298Y-68322D02*
X28315Y-68341D01*
X28298Y-68360D01*
X28281Y-68341D01*
X28298Y-68322D01*
X28298Y-68360D01*
X28531Y-67960D02*
X28565Y-67960D01*
X28598Y-67979D01*
X28615Y-67998D01*
X28631Y-68036D01*
X28648Y-68112D01*
X28648Y-68208D01*
X28631Y-68284D01*
X28615Y-68322D01*
X28598Y-68341D01*
X28565Y-68360D01*
X28531Y-68360D01*
X28498Y-68341D01*
X28481Y-68322D01*
X28465Y-68284D01*
X28448Y-68208D01*
X28448Y-68112D01*
X28465Y-68036D01*
X28481Y-67998D01*
X28498Y-67979D01*
X28531Y-67960D01*
X29215Y-68093D02*
X29215Y-68360D01*
X29065Y-68093D02*
X29065Y-68303D01*
X29081Y-68341D01*
X29115Y-68360D01*
X29165Y-68360D01*
X29198Y-68341D01*
X29215Y-68322D01*
X29498Y-68151D02*
X29381Y-68151D01*
X29381Y-68360D02*
X29381Y-67960D01*
X29548Y-67960D01*
X27312Y-68911D02*
X27769Y-68911D01*
X27541Y-69140D02*
X27541Y-68683D01*
X31437Y-56410D02*
X31421Y-56429D01*
X31371Y-56448D01*
X31337Y-56448D01*
X31287Y-56429D01*
X31254Y-56391D01*
X31237Y-56353D01*
X31221Y-56277D01*
X31221Y-56219D01*
X31237Y-56143D01*
X31254Y-56105D01*
X31287Y-56067D01*
X31337Y-56048D01*
X31371Y-56048D01*
X31421Y-56067D01*
X31437Y-56086D01*
X31737Y-56048D02*
X31671Y-56048D01*
X31637Y-56067D01*
X31621Y-56086D01*
X31587Y-56143D01*
X31571Y-56219D01*
X31571Y-56372D01*
X31587Y-56410D01*
X31604Y-56429D01*
X31637Y-56448D01*
X31704Y-56448D01*
X31737Y-56429D01*
X31754Y-56410D01*
X31771Y-56372D01*
X31771Y-56277D01*
X31754Y-56238D01*
X31737Y-56219D01*
X31704Y-56200D01*
X31637Y-56200D01*
X31604Y-56219D01*
X31587Y-56238D01*
X31571Y-56277D01*
X30904Y-57947D02*
X30704Y-57947D01*
X30804Y-57947D02*
X30804Y-57547D01*
X30771Y-57604D01*
X30737Y-57642D01*
X30704Y-57661D01*
X31054Y-57909D02*
X31071Y-57928D01*
X31054Y-57947D01*
X31037Y-57928D01*
X31054Y-57909D01*
X31054Y-57947D01*
X31287Y-57547D02*
X31321Y-57547D01*
X31354Y-57566D01*
X31371Y-57585D01*
X31387Y-57623D01*
X31404Y-57699D01*
X31404Y-57795D01*
X31387Y-57871D01*
X31371Y-57909D01*
X31354Y-57928D01*
X31321Y-57947D01*
X31287Y-57947D01*
X31254Y-57928D01*
X31237Y-57909D01*
X31221Y-57871D01*
X31204Y-57795D01*
X31204Y-57699D01*
X31221Y-57623D01*
X31237Y-57585D01*
X31254Y-57566D01*
X31287Y-57547D01*
X31971Y-57680D02*
X31971Y-57947D01*
X31821Y-57680D02*
X31821Y-57890D01*
X31837Y-57928D01*
X31871Y-57947D01*
X31921Y-57947D01*
X31954Y-57928D01*
X31971Y-57909D01*
X32254Y-57737D02*
X32137Y-57737D01*
X32137Y-57947D02*
X32137Y-57547D01*
X32304Y-57547D01*
X32466Y-57100D02*
X32923Y-57100D01*
X32695Y-57329D02*
X32695Y-56872D01*
X29075Y-66278D02*
X29058Y-66297D01*
X29008Y-66316D01*
X28975Y-66316D01*
X28925Y-66297D01*
X28892Y-66259D01*
X28875Y-66220D01*
X28858Y-66144D01*
X28858Y-66087D01*
X28875Y-66011D01*
X28892Y-65973D01*
X28925Y-65935D01*
X28975Y-65916D01*
X29008Y-65916D01*
X29058Y-65935D01*
X29075Y-65954D01*
X29392Y-65916D02*
X29225Y-65916D01*
X29208Y-66106D01*
X29225Y-66087D01*
X29258Y-66068D01*
X29342Y-66068D01*
X29375Y-66087D01*
X29392Y-66106D01*
X29408Y-66144D01*
X29408Y-66240D01*
X29392Y-66278D01*
X29375Y-66297D01*
X29342Y-66316D01*
X29258Y-66316D01*
X29225Y-66297D01*
X29208Y-66278D01*
X28542Y-64817D02*
X28342Y-64817D01*
X28442Y-64817D02*
X28442Y-64417D01*
X28408Y-64474D01*
X28375Y-64512D01*
X28342Y-64531D01*
X28692Y-64779D02*
X28708Y-64798D01*
X28692Y-64817D01*
X28675Y-64798D01*
X28692Y-64779D01*
X28692Y-64817D01*
X28925Y-64417D02*
X28958Y-64417D01*
X28992Y-64436D01*
X29008Y-64455D01*
X29025Y-64493D01*
X29042Y-64569D01*
X29042Y-64664D01*
X29025Y-64741D01*
X29008Y-64779D01*
X28992Y-64798D01*
X28958Y-64817D01*
X28925Y-64817D01*
X28892Y-64798D01*
X28875Y-64779D01*
X28858Y-64741D01*
X28842Y-64664D01*
X28842Y-64569D01*
X28858Y-64493D01*
X28875Y-64455D01*
X28892Y-64436D01*
X28925Y-64417D01*
X29608Y-64550D02*
X29608Y-64817D01*
X29458Y-64550D02*
X29458Y-64760D01*
X29475Y-64798D01*
X29508Y-64817D01*
X29558Y-64817D01*
X29592Y-64798D01*
X29608Y-64779D01*
X29892Y-64607D02*
X29775Y-64607D01*
X29775Y-64817D02*
X29775Y-64417D01*
X29942Y-64417D01*
X27706Y-65368D02*
X28163Y-65368D01*
X27934Y-65597D02*
X27934Y-65140D01*
X25925Y-66278D02*
X25909Y-66297D01*
X25859Y-66316D01*
X25825Y-66316D01*
X25775Y-66297D01*
X25742Y-66259D01*
X25725Y-66220D01*
X25709Y-66144D01*
X25709Y-66087D01*
X25725Y-66011D01*
X25742Y-65973D01*
X25775Y-65935D01*
X25825Y-65916D01*
X25859Y-65916D01*
X25909Y-65935D01*
X25925Y-65954D01*
X26225Y-66049D02*
X26225Y-66316D01*
X26142Y-65897D02*
X26059Y-66182D01*
X26275Y-66182D01*
X25392Y-64817D02*
X25192Y-64817D01*
X25292Y-64817D02*
X25292Y-64417D01*
X25259Y-64474D01*
X25225Y-64512D01*
X25192Y-64531D01*
X25542Y-64779D02*
X25559Y-64798D01*
X25542Y-64817D01*
X25525Y-64798D01*
X25542Y-64779D01*
X25542Y-64817D01*
X25775Y-64417D02*
X25809Y-64417D01*
X25842Y-64436D01*
X25859Y-64455D01*
X25875Y-64493D01*
X25892Y-64569D01*
X25892Y-64664D01*
X25875Y-64741D01*
X25859Y-64779D01*
X25842Y-64798D01*
X25809Y-64817D01*
X25775Y-64817D01*
X25742Y-64798D01*
X25725Y-64779D01*
X25709Y-64741D01*
X25692Y-64664D01*
X25692Y-64569D01*
X25709Y-64493D01*
X25725Y-64455D01*
X25742Y-64436D01*
X25775Y-64417D01*
X26459Y-64550D02*
X26459Y-64817D01*
X26309Y-64550D02*
X26309Y-64760D01*
X26325Y-64798D01*
X26359Y-64817D01*
X26409Y-64817D01*
X26442Y-64798D01*
X26459Y-64779D01*
X26742Y-64607D02*
X26625Y-64607D01*
X26625Y-64817D02*
X26625Y-64417D01*
X26792Y-64417D01*
X24556Y-65368D02*
X25013Y-65368D01*
X24785Y-65597D02*
X24785Y-65140D01*
X29469Y-77695D02*
X29452Y-77714D01*
X29402Y-77733D01*
X29369Y-77733D01*
X29319Y-77714D01*
X29285Y-77676D01*
X29269Y-77638D01*
X29252Y-77562D01*
X29252Y-77504D01*
X29269Y-77428D01*
X29285Y-77390D01*
X29319Y-77352D01*
X29369Y-77333D01*
X29402Y-77333D01*
X29452Y-77352D01*
X29469Y-77371D01*
X29585Y-77333D02*
X29802Y-77333D01*
X29685Y-77485D01*
X29735Y-77485D01*
X29769Y-77504D01*
X29785Y-77524D01*
X29802Y-77562D01*
X29802Y-77657D01*
X29785Y-77695D01*
X29769Y-77714D01*
X29735Y-77733D01*
X29635Y-77733D01*
X29602Y-77714D01*
X29585Y-77695D01*
X28935Y-76234D02*
X28735Y-76234D01*
X28835Y-76234D02*
X28835Y-75834D01*
X28802Y-75891D01*
X28769Y-75929D01*
X28735Y-75948D01*
X29085Y-76196D02*
X29102Y-76215D01*
X29085Y-76234D01*
X29069Y-76215D01*
X29085Y-76196D01*
X29085Y-76234D01*
X29319Y-75834D02*
X29352Y-75834D01*
X29385Y-75853D01*
X29402Y-75872D01*
X29419Y-75910D01*
X29435Y-75986D01*
X29435Y-76082D01*
X29419Y-76158D01*
X29402Y-76196D01*
X29385Y-76215D01*
X29352Y-76234D01*
X29319Y-76234D01*
X29285Y-76215D01*
X29269Y-76196D01*
X29252Y-76158D01*
X29235Y-76082D01*
X29235Y-75986D01*
X29252Y-75910D01*
X29269Y-75872D01*
X29285Y-75853D01*
X29319Y-75834D01*
X30002Y-75967D02*
X30002Y-76234D01*
X29852Y-75967D02*
X29852Y-76177D01*
X29869Y-76215D01*
X29902Y-76234D01*
X29952Y-76234D01*
X29985Y-76215D01*
X30002Y-76196D01*
X30285Y-76025D02*
X30169Y-76025D01*
X30169Y-76234D02*
X30169Y-75834D01*
X30335Y-75834D01*
X28099Y-76785D02*
X28557Y-76785D01*
X28328Y-77014D02*
X28328Y-76557D01*
X26319Y-77695D02*
X26302Y-77714D01*
X26252Y-77733D01*
X26219Y-77733D01*
X26169Y-77714D01*
X26136Y-77676D01*
X26119Y-77638D01*
X26102Y-77562D01*
X26102Y-77504D01*
X26119Y-77428D01*
X26136Y-77390D01*
X26169Y-77352D01*
X26219Y-77333D01*
X26252Y-77333D01*
X26302Y-77352D01*
X26319Y-77371D01*
X26452Y-77371D02*
X26469Y-77352D01*
X26502Y-77333D01*
X26586Y-77333D01*
X26619Y-77352D01*
X26636Y-77371D01*
X26652Y-77409D01*
X26652Y-77447D01*
X26636Y-77504D01*
X26436Y-77733D01*
X26652Y-77733D01*
X25786Y-76234D02*
X25586Y-76234D01*
X25686Y-76234D02*
X25686Y-75834D01*
X25652Y-75891D01*
X25619Y-75929D01*
X25586Y-75948D01*
X25936Y-76196D02*
X25952Y-76215D01*
X25936Y-76234D01*
X25919Y-76215D01*
X25936Y-76196D01*
X25936Y-76234D01*
X26169Y-75834D02*
X26202Y-75834D01*
X26236Y-75853D01*
X26252Y-75872D01*
X26269Y-75910D01*
X26286Y-75986D01*
X26286Y-76082D01*
X26269Y-76158D01*
X26252Y-76196D01*
X26236Y-76215D01*
X26202Y-76234D01*
X26169Y-76234D01*
X26136Y-76215D01*
X26119Y-76196D01*
X26102Y-76158D01*
X26086Y-76082D01*
X26086Y-75986D01*
X26102Y-75910D01*
X26119Y-75872D01*
X26136Y-75853D01*
X26169Y-75834D01*
X26852Y-75967D02*
X26852Y-76234D01*
X26702Y-75967D02*
X26702Y-76177D01*
X26719Y-76215D01*
X26752Y-76234D01*
X26802Y-76234D01*
X26836Y-76215D01*
X26852Y-76196D01*
X27136Y-76025D02*
X27019Y-76025D01*
X27019Y-76234D02*
X27019Y-75834D01*
X27186Y-75834D01*
X24950Y-76785D02*
X25407Y-76785D01*
X25178Y-77014D02*
X25178Y-76557D01*
G54D18*
X60584Y-51626D02*
X60584Y-52193D01*
X60606Y-52259D01*
X60627Y-52293D01*
X60670Y-52326D01*
X60756Y-52326D01*
X60798Y-52293D01*
X60820Y-52259D01*
X60841Y-52193D01*
X60841Y-51626D01*
X61034Y-51693D02*
X61056Y-51659D01*
X61098Y-51626D01*
X61206Y-51626D01*
X61248Y-51659D01*
X61270Y-51693D01*
X61291Y-51759D01*
X61291Y-51826D01*
X61270Y-51926D01*
X61013Y-52326D01*
X61291Y-52326D01*
X61548Y-51926D02*
X61506Y-51893D01*
X61484Y-51859D01*
X61463Y-51793D01*
X61463Y-51759D01*
X61484Y-51693D01*
X61506Y-51659D01*
X61548Y-51626D01*
X61634Y-51626D01*
X61677Y-51659D01*
X61698Y-51693D01*
X61720Y-51759D01*
X61720Y-51793D01*
X61698Y-51859D01*
X61677Y-51893D01*
X61634Y-51926D01*
X61548Y-51926D01*
X61506Y-51959D01*
X61484Y-51993D01*
X61463Y-52059D01*
X61463Y-52193D01*
X61484Y-52259D01*
X61506Y-52293D01*
X61548Y-52326D01*
X61634Y-52326D01*
X61677Y-52293D01*
X61698Y-52259D01*
X61720Y-52193D01*
X61720Y-52059D01*
X61698Y-51993D01*
X61677Y-51959D01*
X61634Y-51926D01*
G54D15*
X64091Y-54626D02*
X64558Y-54626D01*
X64091Y-55326D01*
X64558Y-55326D01*
X64925Y-54926D02*
X64858Y-54893D01*
X64825Y-54859D01*
X64791Y-54793D01*
X64791Y-54759D01*
X64825Y-54693D01*
X64858Y-54659D01*
X64925Y-54626D01*
X65058Y-54626D01*
X65125Y-54659D01*
X65158Y-54693D01*
X65191Y-54759D01*
X65191Y-54793D01*
X65158Y-54859D01*
X65125Y-54893D01*
X65058Y-54926D01*
X64925Y-54926D01*
X64858Y-54959D01*
X64825Y-54993D01*
X64791Y-55059D01*
X64791Y-55193D01*
X64825Y-55259D01*
X64858Y-55293D01*
X64925Y-55326D01*
X65058Y-55326D01*
X65125Y-55293D01*
X65158Y-55259D01*
X65191Y-55193D01*
X65191Y-55059D01*
X65158Y-54993D01*
X65125Y-54959D01*
X65058Y-54926D01*
X65625Y-54626D02*
X65691Y-54626D01*
X65758Y-54659D01*
X65791Y-54693D01*
X65825Y-54759D01*
X65858Y-54893D01*
X65858Y-55059D01*
X65825Y-55193D01*
X65791Y-55259D01*
X65758Y-55293D01*
X65691Y-55326D01*
X65625Y-55326D01*
X65558Y-55293D01*
X65525Y-55259D01*
X65491Y-55193D01*
X65458Y-55059D01*
X65458Y-54893D01*
X65491Y-54759D01*
X65525Y-54693D01*
X65558Y-54659D01*
X65625Y-54626D01*
X66158Y-55059D02*
X66691Y-55059D01*
X67425Y-55259D02*
X67391Y-55293D01*
X67291Y-55326D01*
X67225Y-55326D01*
X67125Y-55293D01*
X67058Y-55226D01*
X67025Y-55159D01*
X66991Y-55026D01*
X66991Y-54926D01*
X67025Y-54793D01*
X67058Y-54726D01*
X67125Y-54659D01*
X67225Y-54626D01*
X67291Y-54626D01*
X67391Y-54659D01*
X67425Y-54693D01*
X67625Y-54626D02*
X68025Y-54626D01*
X67825Y-55326D02*
X67825Y-54626D01*
X68658Y-55259D02*
X68625Y-55293D01*
X68525Y-55326D01*
X68458Y-55326D01*
X68358Y-55293D01*
X68291Y-55226D01*
X68258Y-55159D01*
X68225Y-55026D01*
X68225Y-54926D01*
X68258Y-54793D01*
X68291Y-54726D01*
X68358Y-54659D01*
X68458Y-54626D01*
X68525Y-54626D01*
X68625Y-54659D01*
X68658Y-54693D01*
G54D16*
X61727Y-47860D02*
X61561Y-47598D01*
X61441Y-47860D02*
X61441Y-47310D01*
X61632Y-47310D01*
X61680Y-47336D01*
X61703Y-47362D01*
X61727Y-47415D01*
X61727Y-47493D01*
X61703Y-47546D01*
X61680Y-47572D01*
X61632Y-47598D01*
X61441Y-47598D01*
X62013Y-47546D02*
X61965Y-47519D01*
X61941Y-47493D01*
X61918Y-47441D01*
X61918Y-47415D01*
X61941Y-47362D01*
X61965Y-47336D01*
X62013Y-47310D01*
X62108Y-47310D01*
X62156Y-47336D01*
X62180Y-47362D01*
X62203Y-47415D01*
X62203Y-47441D01*
X62180Y-47493D01*
X62156Y-47519D01*
X62108Y-47546D01*
X62013Y-47546D01*
X61965Y-47572D01*
X61941Y-47598D01*
X61918Y-47650D01*
X61918Y-47755D01*
X61941Y-47808D01*
X61965Y-47834D01*
X62013Y-47860D01*
X62108Y-47860D01*
X62156Y-47834D01*
X62180Y-47808D01*
X62203Y-47755D01*
X62203Y-47650D01*
X62180Y-47598D01*
X62156Y-47572D01*
X62108Y-47546D01*
X26294Y-51797D02*
X26127Y-51535D01*
X26008Y-51797D02*
X26008Y-51247D01*
X26199Y-51247D01*
X26247Y-51273D01*
X26270Y-51299D01*
X26294Y-51352D01*
X26294Y-51430D01*
X26270Y-51483D01*
X26247Y-51509D01*
X26199Y-51535D01*
X26008Y-51535D01*
X26723Y-51430D02*
X26723Y-51797D01*
X26604Y-51221D02*
X26485Y-51614D01*
X26794Y-51614D01*
X26294Y-50222D02*
X26127Y-49960D01*
X26008Y-50222D02*
X26008Y-49672D01*
X26199Y-49672D01*
X26247Y-49698D01*
X26270Y-49725D01*
X26294Y-49777D01*
X26294Y-49855D01*
X26270Y-49908D01*
X26247Y-49934D01*
X26199Y-49960D01*
X26008Y-49960D01*
X26461Y-49672D02*
X26770Y-49672D01*
X26604Y-49882D01*
X26675Y-49882D01*
X26723Y-49908D01*
X26747Y-49934D01*
X26770Y-49986D01*
X26770Y-50117D01*
X26747Y-50170D01*
X26723Y-50196D01*
X26675Y-50222D01*
X26532Y-50222D01*
X26485Y-50196D01*
X26461Y-50170D01*
X25419Y-37484D02*
X25157Y-37651D01*
X25419Y-37770D02*
X24869Y-37770D01*
X24869Y-37580D01*
X24895Y-37532D01*
X24921Y-37508D01*
X24974Y-37484D01*
X25052Y-37484D01*
X25105Y-37508D01*
X25131Y-37532D01*
X25157Y-37580D01*
X25157Y-37770D01*
X24869Y-37318D02*
X24869Y-36984D01*
X25419Y-37199D01*
X24238Y-37484D02*
X23976Y-37651D01*
X24238Y-37770D02*
X23688Y-37770D01*
X23688Y-37580D01*
X23714Y-37532D01*
X23740Y-37508D01*
X23793Y-37484D01*
X23871Y-37484D01*
X23924Y-37508D01*
X23950Y-37532D01*
X23976Y-37580D01*
X23976Y-37770D01*
X23688Y-37056D02*
X23688Y-37151D01*
X23714Y-37199D01*
X23740Y-37223D01*
X23819Y-37270D01*
X23924Y-37294D01*
X24133Y-37294D01*
X24185Y-37270D01*
X24212Y-37246D01*
X24238Y-37199D01*
X24238Y-37103D01*
X24212Y-37056D01*
X24185Y-37032D01*
X24133Y-37008D01*
X24002Y-37008D01*
X23950Y-37032D01*
X23924Y-37056D01*
X23897Y-37103D01*
X23897Y-37199D01*
X23924Y-37246D01*
X23950Y-37270D01*
X24002Y-37294D01*
X26294Y-48647D02*
X26127Y-48385D01*
X26008Y-48647D02*
X26008Y-48097D01*
X26199Y-48097D01*
X26247Y-48124D01*
X26270Y-48150D01*
X26294Y-48202D01*
X26294Y-48281D01*
X26270Y-48333D01*
X26247Y-48359D01*
X26199Y-48385D01*
X26008Y-48385D01*
X26485Y-48150D02*
X26508Y-48124D01*
X26556Y-48097D01*
X26675Y-48097D01*
X26723Y-48124D01*
X26747Y-48150D01*
X26770Y-48202D01*
X26770Y-48254D01*
X26747Y-48333D01*
X26461Y-48647D01*
X26770Y-48647D01*
X26294Y-53372D02*
X26127Y-53110D01*
X26008Y-53372D02*
X26008Y-52822D01*
X26199Y-52822D01*
X26247Y-52848D01*
X26270Y-52874D01*
X26294Y-52926D01*
X26294Y-53005D01*
X26270Y-53057D01*
X26247Y-53084D01*
X26199Y-53110D01*
X26008Y-53110D01*
X26747Y-52822D02*
X26508Y-52822D01*
X26485Y-53084D01*
X26508Y-53057D01*
X26556Y-53031D01*
X26675Y-53031D01*
X26723Y-53057D01*
X26747Y-53084D01*
X26770Y-53136D01*
X26770Y-53267D01*
X26747Y-53319D01*
X26723Y-53346D01*
X26675Y-53372D01*
X26556Y-53372D01*
X26508Y-53346D01*
X26485Y-53319D01*
X67633Y-47860D02*
X67466Y-47598D01*
X67347Y-47860D02*
X67347Y-47310D01*
X67537Y-47310D01*
X67585Y-47336D01*
X67609Y-47362D01*
X67633Y-47415D01*
X67633Y-47493D01*
X67609Y-47546D01*
X67585Y-47572D01*
X67537Y-47598D01*
X67347Y-47598D01*
X67871Y-47860D02*
X67966Y-47860D01*
X68014Y-47834D01*
X68037Y-47808D01*
X68085Y-47729D01*
X68109Y-47624D01*
X68109Y-47415D01*
X68085Y-47362D01*
X68061Y-47336D01*
X68014Y-47310D01*
X67918Y-47310D01*
X67871Y-47336D01*
X67847Y-47362D01*
X67823Y-47415D01*
X67823Y-47546D01*
X67847Y-47598D01*
X67871Y-47624D01*
X67918Y-47650D01*
X68014Y-47650D01*
X68061Y-47624D01*
X68085Y-47598D01*
X68109Y-47546D01*
X27475Y-80143D02*
X27309Y-79881D01*
X27190Y-80143D02*
X27190Y-79593D01*
X27380Y-79593D01*
X27428Y-79620D01*
X27451Y-79646D01*
X27475Y-79698D01*
X27475Y-79777D01*
X27451Y-79829D01*
X27428Y-79855D01*
X27380Y-79881D01*
X27190Y-79881D01*
X27951Y-80143D02*
X27666Y-80143D01*
X27809Y-80143D02*
X27809Y-79593D01*
X27761Y-79672D01*
X27713Y-79724D01*
X27666Y-79751D01*
X65032Y-40773D02*
X64866Y-40511D01*
X64747Y-40773D02*
X64747Y-40223D01*
X64937Y-40223D01*
X64985Y-40249D01*
X65009Y-40276D01*
X65032Y-40328D01*
X65032Y-40407D01*
X65009Y-40459D01*
X64985Y-40485D01*
X64937Y-40511D01*
X64747Y-40511D01*
X65509Y-40773D02*
X65223Y-40773D01*
X65366Y-40773D02*
X65366Y-40223D01*
X65318Y-40302D01*
X65270Y-40354D01*
X65223Y-40380D01*
X65818Y-40223D02*
X65866Y-40223D01*
X65913Y-40249D01*
X65937Y-40276D01*
X65961Y-40328D01*
X65985Y-40433D01*
X65985Y-40564D01*
X65961Y-40669D01*
X65937Y-40721D01*
X65913Y-40747D01*
X65866Y-40773D01*
X65818Y-40773D01*
X65770Y-40747D01*
X65747Y-40721D01*
X65723Y-40669D01*
X65699Y-40564D01*
X65699Y-40433D01*
X65723Y-40328D01*
X65747Y-40276D01*
X65770Y-40249D01*
X65818Y-40223D01*
X70608Y-40674D02*
X70589Y-40694D01*
X70532Y-40713D01*
X70494Y-40713D01*
X70437Y-40694D01*
X70399Y-40655D01*
X70380Y-40617D01*
X70361Y-40541D01*
X70361Y-40484D01*
X70380Y-40408D01*
X70399Y-40370D01*
X70437Y-40332D01*
X70494Y-40313D01*
X70532Y-40313D01*
X70589Y-40332D01*
X70608Y-40351D01*
X70951Y-40446D02*
X70951Y-40713D01*
X70856Y-40294D02*
X70761Y-40579D01*
X71008Y-40579D01*
X71370Y-40713D02*
X71142Y-40713D01*
X71256Y-40713D02*
X71256Y-40313D01*
X71218Y-40370D01*
X71180Y-40408D01*
X71142Y-40427D01*
X73003Y-47774D02*
X72986Y-47793D01*
X72936Y-47812D01*
X72903Y-47812D01*
X72853Y-47793D01*
X72820Y-47755D01*
X72803Y-47717D01*
X72786Y-47640D01*
X72786Y-47583D01*
X72803Y-47507D01*
X72820Y-47469D01*
X72853Y-47431D01*
X72903Y-47412D01*
X72936Y-47412D01*
X72986Y-47431D01*
X73003Y-47450D01*
X73303Y-47545D02*
X73303Y-47812D01*
X73220Y-47393D02*
X73136Y-47678D01*
X73353Y-47678D01*
X73470Y-47450D02*
X73486Y-47431D01*
X73520Y-47412D01*
X73603Y-47412D01*
X73636Y-47431D01*
X73653Y-47450D01*
X73670Y-47488D01*
X73670Y-47526D01*
X73653Y-47583D01*
X73453Y-47812D01*
X73670Y-47812D01*
X72720Y-46313D02*
X72520Y-46313D01*
X72620Y-46313D02*
X72620Y-45913D01*
X72586Y-45970D01*
X72553Y-46008D01*
X72520Y-46027D01*
X72936Y-45913D02*
X72970Y-45913D01*
X73003Y-45932D01*
X73020Y-45951D01*
X73036Y-45989D01*
X73053Y-46065D01*
X73053Y-46160D01*
X73036Y-46237D01*
X73020Y-46275D01*
X73003Y-46294D01*
X72970Y-46313D01*
X72936Y-46313D01*
X72903Y-46294D01*
X72886Y-46275D01*
X72870Y-46237D01*
X72853Y-46160D01*
X72853Y-46065D01*
X72870Y-45989D01*
X72886Y-45951D01*
X72903Y-45932D01*
X72936Y-45913D01*
X73620Y-46046D02*
X73620Y-46313D01*
X73470Y-46046D02*
X73470Y-46256D01*
X73486Y-46294D01*
X73520Y-46313D01*
X73570Y-46313D01*
X73603Y-46294D01*
X73620Y-46275D01*
X73903Y-46103D02*
X73786Y-46103D01*
X73786Y-46313D02*
X73786Y-45913D01*
X73953Y-45913D01*
X71800Y-46864D02*
X72257Y-46864D01*
X72029Y-47093D02*
X72029Y-46636D01*
X31664Y-83994D02*
X31648Y-84013D01*
X31598Y-84032D01*
X31564Y-84032D01*
X31514Y-84013D01*
X31481Y-83975D01*
X31464Y-83937D01*
X31448Y-83861D01*
X31448Y-83804D01*
X31464Y-83728D01*
X31481Y-83689D01*
X31514Y-83651D01*
X31564Y-83632D01*
X31598Y-83632D01*
X31648Y-83651D01*
X31664Y-83670D01*
X31998Y-84032D02*
X31798Y-84032D01*
X31898Y-84032D02*
X31898Y-83632D01*
X31864Y-83689D01*
X31831Y-83728D01*
X31798Y-83747D01*
X32331Y-84032D02*
X32131Y-84032D01*
X32231Y-84032D02*
X32231Y-83632D01*
X32198Y-83689D01*
X32164Y-83728D01*
X32131Y-83747D01*
X31381Y-82533D02*
X31181Y-82533D01*
X31281Y-82533D02*
X31281Y-82133D01*
X31248Y-82190D01*
X31214Y-82229D01*
X31181Y-82248D01*
X31598Y-82133D02*
X31631Y-82133D01*
X31664Y-82152D01*
X31681Y-82171D01*
X31698Y-82209D01*
X31714Y-82286D01*
X31714Y-82381D01*
X31698Y-82457D01*
X31681Y-82495D01*
X31664Y-82514D01*
X31631Y-82533D01*
X31598Y-82533D01*
X31564Y-82514D01*
X31548Y-82495D01*
X31531Y-82457D01*
X31514Y-82381D01*
X31514Y-82286D01*
X31531Y-82209D01*
X31548Y-82171D01*
X31564Y-82152D01*
X31598Y-82133D01*
X32281Y-82267D02*
X32281Y-82533D01*
X32131Y-82267D02*
X32131Y-82476D01*
X32148Y-82514D01*
X32181Y-82533D01*
X32231Y-82533D01*
X32264Y-82514D01*
X32281Y-82495D01*
X32564Y-82324D02*
X32448Y-82324D01*
X32448Y-82533D02*
X32448Y-82133D01*
X32614Y-82133D01*
X30462Y-83085D02*
X30919Y-83085D01*
X30690Y-83313D02*
X30690Y-82856D01*
M02*
