M48
METRIC,TZ
T1C0.635
T2C0.798
T3C0.813
T4C1.016
%
G90
G05
T1
X49867Y-121033
X56076Y-109480
X59982Y-104066
X62911Y-102392
X65743Y-101122
X69225Y-94445
X76200Y-210820
X77709Y-111592
X81280Y-205740
X82570Y-96487
X84633Y-149862
X85739Y-114707
X87995Y-139889
X91426Y-150688
X93723Y-182033
X94198Y-149883
X95000Y-226000
X101691Y-178199
X103241Y-150778
X107042Y-151286
X108993Y-99319
X109375Y-215757
X115204Y-151929
X121157Y-192915
X128108Y-185744
X128327Y-141940
X137936Y-118968
X139784Y-217011
X139818Y-194851
X140531Y-123598
X141169Y-158259
X141685Y-153810
X141753Y-213875
X142886Y-141814
X143405Y-124932
X143602Y-188875
X144521Y-185728
X144563Y-187361
X144897Y-139773
X145355Y-103051
X145423Y-189671
X145835Y-153416
X146236Y-169357
X147134Y-124106
X147603Y-190889
X148754Y-174750
X150584Y-158907
X150809Y-133886
X154650Y-197699
X155118Y-192570
X155956Y-198365
X159110Y-148036
X159295Y-182837
X160310Y-157437
X165879Y-132028
X166185Y-189400
X167022Y-158772
X169151Y-190281
X171580Y-131615
X172993Y-191661
X173641Y-178909
X175751Y-189326
X176809Y-181904
X177594Y-122758
X180292Y-192518
X183461Y-104743
X184564Y-208964
X185490Y-203170
X186038Y-122344
X186342Y-145264
X186431Y-124455
X186836Y-181143
X187168Y-143462
X187650Y-191437
X188250Y-88500
X188769Y-181902
X189089Y-178246
X189129Y-164399
X189376Y-185221
X190637Y-181388
X191535Y-185505
X191617Y-144690
X192147Y-146392
X193141Y-140523
X193271Y-141667
X193754Y-123947
X193827Y-143542
X194497Y-138563
X194537Y-162939
X195480Y-117369
X195545Y-119559
X195944Y-115708
X197832Y-131271
X197968Y-196681
X198396Y-172196
X198878Y-180515
X198897Y-181658
X199193Y-138908
X200760Y-103605
X201467Y-182895
X201986Y-180236
X202840Y-191996
X205576Y-181761
X206590Y-109346
X206602Y-105178
X206792Y-141259
X207211Y-158388
X207970Y-194084
X209639Y-216466
X210071Y-105514
X210108Y-167569
X210448Y-109989
X210604Y-165776
X210914Y-134715
X211425Y-186831
X211836Y-197996
X212555Y-148575
X212705Y-124508
X212876Y-120418
X214543Y-137431
X215731Y-182719
X216700Y-179403
X217171Y-138230
X217268Y-136922
X217615Y-158356
X218126Y-146320
X218327Y-148202
X218662Y-162553
X221598Y-196687
X222601Y-131452
X222906Y-138448
X223594Y-130491
X223897Y-184314
X225406Y-109257
X225561Y-183603
X226003Y-147269
X230232Y-197631
X234975Y-99023
X238392Y-202473
X238985Y-201448
X240598Y-208177
T2
X92380Y-125190
X92380Y-132810
X94920Y-125190
X94920Y-132810
X97460Y-125190
X97460Y-132810
X100000Y-125190
X100000Y-132810
X102540Y-125190
X102540Y-132810
X105080Y-125190
X105080Y-132810
X107620Y-125190
X107620Y-132810
T3
X57730Y-84000
X60000Y-153460
X60000Y-158540
X60270Y-84000
X61000Y-89920
X61000Y-100080
X61000Y-183460
X61000Y-188540
X61920Y-123000
X61920Y-127000
X61920Y-131000
X61920Y-135000
X62000Y-110460
X62000Y-115540
X62730Y-145000
X63730Y-175000
X64000Y-89920
X64000Y-100080
X64730Y-166000
X64920Y-203000
X65110Y-152190
X65110Y-159810
X65270Y-145000
X65730Y-195000
X66110Y-181190
X66110Y-188810
X66270Y-175000
X66380Y-109190
X66380Y-116810
X67270Y-166000
X67650Y-152190
X67650Y-159810
X68270Y-195000
X68650Y-181190
X68650Y-188810
X68920Y-109190
X68920Y-116810
X69870Y-86380
X69870Y-101620
X70190Y-152190
X70190Y-159810
X70730Y-145000
X71190Y-181190
X71190Y-188810
X71460Y-109190
X71460Y-116810
X71730Y-175000
X72080Y-123000
X72080Y-127000
X72080Y-131000
X72080Y-135000
X72410Y-86380
X72410Y-101620
X72730Y-152190
X72730Y-159810
X72730Y-166000
X73270Y-145000
X73730Y-181190
X73730Y-188810
X73730Y-195000
X74000Y-109190
X74000Y-116810
X74270Y-175000
X74950Y-86380
X74950Y-101620
X75080Y-203000
X75270Y-152190
X75270Y-159810
X75270Y-166000
X76270Y-181190
X76270Y-188810
X76270Y-195000
X76540Y-109190
X76540Y-116810
X77490Y-86380
X77490Y-101620
X77810Y-152190
X77810Y-159810
X78730Y-145000
X78810Y-181190
X78810Y-188810
X79080Y-109190
X79080Y-116810
X79730Y-175000
X79730Y-211000
X80030Y-86380
X80030Y-101620
X80350Y-152190
X80350Y-159810
X81270Y-145000
X81350Y-181190
X81350Y-188810
X81620Y-109190
X81620Y-116810
X82270Y-175000
X82270Y-211000
X82570Y-86380
X82570Y-101620
X82890Y-152190
X82890Y-159810
X83890Y-181190
X83890Y-188810
X85110Y-86380
X85110Y-101620
X87650Y-86380
X87650Y-101620
X89000Y-110460
X89000Y-115540
X90190Y-86380
X90190Y-101620
X91000Y-196460
X91000Y-201540
X91570Y-205190
X91570Y-212810
X91870Y-146380
X91870Y-161620
X91870Y-175380
X91870Y-190620
X92000Y-137460
X92000Y-142540
X92000Y-166460
X92000Y-171540
X92730Y-86380
X92730Y-101620
X93110Y-109190
X93110Y-116810
X94110Y-205190
X94110Y-212810
X94410Y-146380
X94410Y-161620
X94410Y-175380
X94410Y-190620
X95270Y-86380
X95270Y-101620
X95650Y-109190
X95650Y-116810
X96650Y-205190
X96650Y-212810
X96950Y-146380
X96950Y-161620
X96950Y-175380
X96950Y-190620
X97810Y-86380
X97810Y-101620
X98190Y-109190
X98190Y-116810
X99190Y-205190
X99190Y-212810
X99490Y-146380
X99490Y-161620
X99490Y-175380
X99490Y-190620
X100350Y-86380
X100350Y-101620
X100730Y-109190
X100730Y-116810
X101730Y-205190
X101730Y-212810
X102030Y-146380
X102030Y-161620
X102030Y-175380
X102030Y-190620
X102890Y-86380
X102890Y-101620
X103270Y-109190
X103270Y-116810
X104270Y-205190
X104270Y-212810
X104570Y-146380
X104570Y-161620
X104570Y-175380
X104570Y-190620
X105430Y-86380
X105430Y-101620
X105460Y-83000
X105810Y-109190
X105810Y-116810
X106810Y-205190
X106810Y-212810
X107110Y-146380
X107110Y-161620
X107110Y-175380
X107110Y-190620
X107970Y-86380
X107970Y-101620
X108350Y-109190
X108350Y-116810
X109350Y-205190
X109350Y-212810
X109650Y-146380
X109650Y-161620
X109650Y-175380
X109650Y-190620
X110510Y-86380
X110510Y-101620
X110540Y-83000
X110890Y-109190
X110890Y-116810
X111890Y-205190
X111890Y-212810
X112190Y-146380
X112190Y-161620
X112190Y-175380
X112190Y-190620
X113050Y-86380
X113050Y-101620
X114430Y-205190
X114430Y-212810
X114730Y-146380
X114730Y-161620
X114730Y-175380
X114730Y-190620
X115590Y-86380
X115590Y-101620
X117270Y-146380
X117270Y-161620
X117270Y-175380
X117270Y-190620
X117380Y-125190
X117380Y-132810
X118130Y-86380
X118130Y-101620
X119810Y-146380
X119810Y-161620
X119810Y-175380
X119810Y-190620
X119920Y-125190
X119920Y-132810
X120000Y-206460
X120000Y-211540
X122350Y-146380
X122350Y-161620
X122350Y-175380
X122350Y-190620
X122460Y-125190
X122460Y-132810
X124380Y-205190
X124380Y-212810
X124890Y-146380
X124890Y-161620
X124890Y-175380
X124890Y-190620
X125000Y-94460
X125000Y-99540
X125000Y-110460
X125000Y-115540
X125000Y-125190
X125000Y-132810
X126920Y-205190
X126920Y-212810
X127430Y-146380
X127430Y-161620
X127430Y-175380
X127430Y-190620
X127460Y-137000
X127540Y-125190
X127540Y-132810
X129380Y-93190
X129380Y-100810
X129380Y-109190
X129380Y-116810
X129460Y-205190
X129460Y-212810
X129970Y-146380
X129970Y-161620
X129970Y-175380
X129970Y-190620
X130080Y-125190
X130080Y-132810
X131920Y-93190
X131920Y-100810
X131920Y-109190
X131920Y-116810
X132000Y-205190
X132000Y-212810
X132510Y-146380
X132510Y-161620
X132510Y-175380
X132510Y-190620
X132540Y-137000
X132620Y-125190
X132620Y-132810
X134460Y-93190
X134460Y-100810
X134460Y-109190
X134460Y-116810
X134540Y-205190
X134540Y-212810
X135050Y-146380
X135050Y-161620
X135050Y-175380
X135050Y-190620
X137000Y-93190
X137000Y-100810
X137000Y-109190
X137000Y-116810
X137080Y-205190
X137080Y-212810
X137590Y-146380
X137590Y-161620
X137590Y-175380
X137590Y-190620
X139540Y-93190
X139540Y-100810
X139540Y-109190
X139540Y-116810
X139620Y-205190
X139620Y-212810
X140130Y-146380
X140130Y-161620
X140130Y-175380
X140130Y-190620
X142080Y-93190
X142080Y-100810
X142080Y-109190
X142080Y-116810
X144620Y-93190
X144620Y-100810
X144620Y-109190
X144620Y-116810
X145000Y-206460
X145000Y-211540
X146000Y-128460
X146000Y-133540
X148460Y-150000
X149570Y-205190
X149570Y-212810
X150570Y-153190
X150570Y-160810
X151490Y-128380
X151490Y-143620
X151920Y-121000
X152000Y-188460
X152000Y-193540
X152110Y-205190
X152110Y-212810
X153000Y-109460
X153000Y-114540
X153110Y-153190
X153110Y-160810
X153540Y-150000
X154030Y-128380
X154030Y-143620
X154650Y-205190
X154650Y-212810
X155000Y-170460
X155000Y-175540
X155650Y-153190
X155650Y-160810
X156570Y-128380
X156570Y-143620
X157190Y-205190
X157190Y-212810
X157380Y-187190
X157380Y-194810
X158190Y-153190
X158190Y-160810
X159110Y-128380
X159110Y-143620
X159380Y-108190
X159380Y-115810
X159570Y-169190
X159570Y-176810
X159730Y-205190
X159730Y-212810
X159920Y-187190
X159920Y-194810
X160730Y-153190
X160730Y-160810
X160920Y-103000
X161650Y-128380
X161650Y-143620
X161920Y-108190
X161920Y-115810
X162080Y-121000
X162110Y-169190
X162110Y-176810
X162270Y-205190
X162270Y-212810
X162460Y-187190
X162460Y-194810
X163270Y-153190
X163270Y-160810
X164190Y-128380
X164190Y-143620
X164460Y-108190
X164460Y-115810
X164650Y-169190
X164650Y-176810
X164810Y-205190
X164810Y-212810
X165000Y-187190
X165000Y-194810
X165810Y-153190
X165810Y-160810
X166730Y-128380
X166730Y-143620
X166920Y-121000
X167000Y-108190
X167000Y-115810
X167190Y-169190
X167190Y-176810
X167350Y-205190
X167350Y-212810
X167540Y-187190
X167540Y-194810
X168350Y-153190
X168350Y-160810
X169270Y-128380
X169270Y-143620
X169540Y-108190
X169540Y-115810
X169730Y-169190
X169730Y-176810
X169890Y-205190
X169890Y-212810
X170080Y-187190
X170080Y-194810
X170890Y-153190
X170890Y-160810
X171080Y-103000
X171810Y-128380
X171810Y-143620
X172080Y-108190
X172080Y-115810
X172270Y-169190
X172270Y-176810
X172430Y-205190
X172430Y-212810
X172620Y-187190
X172620Y-194810
X173430Y-153190
X173430Y-160810
X174350Y-128380
X174350Y-143620
X174620Y-108190
X174620Y-115810
X174810Y-169190
X174810Y-176810
X176890Y-128380
X176890Y-143620
X177080Y-121000
X177350Y-169190
X177350Y-176810
X177460Y-103000
X178000Y-154460
X178000Y-159540
X178000Y-188460
X178000Y-193540
X178000Y-206460
X178000Y-211540
X179430Y-128380
X179430Y-143620
X179890Y-169190
X179890Y-176810
X181970Y-128380
X181970Y-143620
X182430Y-169190
X182430Y-176810
X182540Y-103000
X182570Y-153190
X182570Y-160810
X182570Y-187190
X182570Y-194810
X182570Y-205190
X182570Y-212810
X184510Y-128380
X184510Y-143620
X184730Y-119000
X185110Y-153190
X185110Y-160810
X185110Y-187190
X185110Y-194810
X185110Y-205190
X185110Y-212810
X187000Y-170460
X187000Y-175540
X187270Y-119000
X187650Y-153190
X187650Y-160810
X187650Y-187190
X187650Y-194810
X187650Y-205190
X187650Y-212810
X190190Y-153190
X190190Y-160810
X190190Y-187190
X190190Y-194810
X190190Y-205190
X190190Y-212810
X191110Y-169190
X191110Y-176810
X192000Y-86460
X192000Y-91540
X192000Y-107460
X192000Y-112540
X192000Y-128460
X192000Y-133540
X192730Y-153190
X192730Y-160810
X192730Y-187190
X192730Y-194810
X192730Y-205190
X192730Y-212810
X193650Y-169190
X193650Y-176810
X195270Y-153190
X195270Y-160810
X195270Y-187190
X195270Y-194810
X195270Y-205190
X195270Y-212810
X196190Y-169190
X196190Y-176810
X196950Y-86380
X196950Y-101620
X196950Y-107380
X196950Y-122620
X196950Y-128380
X196950Y-143620
X197810Y-153190
X197810Y-160810
X197810Y-187190
X197810Y-194810
X197810Y-205190
X197810Y-212810
X198730Y-169190
X198730Y-176810
X199490Y-86380
X199490Y-101620
X199490Y-107380
X199490Y-122620
X199490Y-128380
X199490Y-143620
X200350Y-153190
X200350Y-160810
X200350Y-187190
X200350Y-194810
X200350Y-205190
X200350Y-212810
X201270Y-169190
X201270Y-176810
X202030Y-86380
X202030Y-101620
X202030Y-107380
X202030Y-122620
X202030Y-128380
X202030Y-143620
X202890Y-153190
X202890Y-160810
X202890Y-187190
X202890Y-194810
X202890Y-205190
X202890Y-212810
X203810Y-169190
X203810Y-176810
X204570Y-86380
X204570Y-101620
X204570Y-107380
X204570Y-122620
X204570Y-128380
X204570Y-143620
X205430Y-153190
X205430Y-160810
X205430Y-187190
X205430Y-194810
X205430Y-205190
X205430Y-212810
X206350Y-169190
X206350Y-176810
X207110Y-86380
X207110Y-101620
X207110Y-107380
X207110Y-122620
X207110Y-128380
X207110Y-143620
X208890Y-169190
X208890Y-176810
X209650Y-86380
X209650Y-101620
X209650Y-107380
X209650Y-122620
X209650Y-128380
X209650Y-143620
X210000Y-154460
X210000Y-159540
X210000Y-188460
X210000Y-193540
X210000Y-206460
X210000Y-211540
X212190Y-86380
X212190Y-101620
X212190Y-107380
X212190Y-122620
X212190Y-128380
X212190Y-143620
X214000Y-170460
X214000Y-175540
X214570Y-153190
X214570Y-160810
X214570Y-187190
X214570Y-194810
X214570Y-205190
X214570Y-212810
X214730Y-86380
X214730Y-101620
X214730Y-107380
X214730Y-122620
X214730Y-128380
X214730Y-143620
X217110Y-153190
X217110Y-160810
X217110Y-187190
X217110Y-194810
X217110Y-205190
X217110Y-212810
X217270Y-86380
X217270Y-101620
X217270Y-107380
X217270Y-122620
X217270Y-128380
X217270Y-143620
X219110Y-169190
X219110Y-176810
X219650Y-153190
X219650Y-160810
X219650Y-187190
X219650Y-194810
X219650Y-205190
X219650Y-212810
X219810Y-86380
X219810Y-101620
X219810Y-107380
X219810Y-122620
X219810Y-128380
X219810Y-143620
X221650Y-169190
X221650Y-176810
X222190Y-153190
X222190Y-160810
X222190Y-187190
X222190Y-194810
X222190Y-205190
X222190Y-212810
X222350Y-86380
X222350Y-101620
X222350Y-107380
X222350Y-122620
X222350Y-128380
X222350Y-143620
X224190Y-169190
X224190Y-176810
X224730Y-153190
X224730Y-160810
X224730Y-187190
X224730Y-194810
X224730Y-205190
X224730Y-212810
X224890Y-86380
X224890Y-101620
X224890Y-107380
X224890Y-122620
X224890Y-128380
X224890Y-143620
X226730Y-169190
X226730Y-176810
X227270Y-153190
X227270Y-160810
X227270Y-187190
X227270Y-194810
X227270Y-205190
X227270Y-212810
X227430Y-86380
X227430Y-101620
X227430Y-107380
X227430Y-122620
X227430Y-128380
X227430Y-143620
X229270Y-169190
X229270Y-176810
X229810Y-153190
X229810Y-160810
X229810Y-187190
X229810Y-194810
X229810Y-205190
X229810Y-212810
X229970Y-86380
X229970Y-101620
X229970Y-107380
X229970Y-122620
X229970Y-128380
X229970Y-143620
X231810Y-169190
X231810Y-176810
X232350Y-153190
X232350Y-160810
X232350Y-187190
X232350Y-194810
X232350Y-205190
X232350Y-212810
X232510Y-86380
X232510Y-101620
X232510Y-107380
X232510Y-122620
X232510Y-128380
X232510Y-143620
X234350Y-169190
X234350Y-176810
X234890Y-153190
X234890Y-160810
X234890Y-187190
X234890Y-194810
X234890Y-205190
X234890Y-212810
X235050Y-86380
X235050Y-101620
X235050Y-107380
X235050Y-122620
X235050Y-128380
X235050Y-143620
X236890Y-169190
X236890Y-176810
X237430Y-153190
X237430Y-160810
X237430Y-187190
X237430Y-194810
X237430Y-205190
X237430Y-212810
T4
X50730Y-86000
X50730Y-96870
X50730Y-99410
X50730Y-101950
X50730Y-104490
X50730Y-107030
X50730Y-109570
X50730Y-112110
X50730Y-114650
X50730Y-117190
X50730Y-119730
X50730Y-122270
X50730Y-124810
X50730Y-127350
X50730Y-129890
X50730Y-132430
X50730Y-134970
X50730Y-137510
X50730Y-140050
X50730Y-142590
X50730Y-145130
X50730Y-156000
X50730Y-166920
X50730Y-169460
X50730Y-172000
X50730Y-174540
X50730Y-177080
X50730Y-188920
X50730Y-191460
X50730Y-194000
X50730Y-196540
X50730Y-199080
X53270Y-86000
X53270Y-96870
X53270Y-99410
X53270Y-101950
X53270Y-104490
X53270Y-107030
X53270Y-109570
X53270Y-112110
X53270Y-114650
X53270Y-117190
X53270Y-119730
X53270Y-122270
X53270Y-124810
X53270Y-127350
X53270Y-129890
X53270Y-132430
X53270Y-134970
X53270Y-137510
X53270Y-140050
X53270Y-142590
X53270Y-145130
X53270Y-156000
X53270Y-166920
X53270Y-169460
X53270Y-172000
X53270Y-174540
X53270Y-177080
X53270Y-188920
X53270Y-191460
X53270Y-194000
X53270Y-196540
X53270Y-199080
X56790Y-220000
X59330Y-220000
X61870Y-220000
X64410Y-220000
X66950Y-220000
X67000Y-209460
X67000Y-212000
X67000Y-214540
X69490Y-220000
X72000Y-209460
X72000Y-212000
X72000Y-214540
X72030Y-220000
X74570Y-220000
X77110Y-220000
X79650Y-220000
X82190Y-220000
X84730Y-220000
X87270Y-220000
X89810Y-220000
X92350Y-220000
X94890Y-220000
X97430Y-220000
X99970Y-220000
X102510Y-220000
X105050Y-220000
X107590Y-220000
X110130Y-220000
X112670Y-220000
X115210Y-220000
X151190Y-83730
X151190Y-86270
X153730Y-83730
X153730Y-86270
X156270Y-83730
X156270Y-86270
X158810Y-83730
X158810Y-86270
X173790Y-220000
X176330Y-220000
X178870Y-220000
X181410Y-220000
X183950Y-220000
X186490Y-220000
X189030Y-220000
X191570Y-220000
X194110Y-220000
X196650Y-220000
X199190Y-220000
X201730Y-220000
X204270Y-220000
X206810Y-220000
X209350Y-220000
X211890Y-220000
X214430Y-220000
X216970Y-220000
X219510Y-220000
X222050Y-220000
X224590Y-220000
X227130Y-220000
X229670Y-220000
X232210Y-220000
T0
M30
