G04 (created by PCBNEW (2013-dec-23)-stable) date dom 04 gen 2015 17:22:54 CET*
%MOIN*%
G04 Gerber Fmt 3.4, Leading zero omitted, Abs format*
%FSLAX34Y34*%
G01*
G70*
G90*
G04 APERTURE LIST*
%ADD10C,0.00590551*%
%ADD11C,0.011811*%
%ADD12C,0.06*%
%ADD13O,0.06X0.12*%
%ADD14O,0.0514X0.1029*%
%ADD15C,0.066*%
%ADD16R,0.062X0.09*%
%ADD17O,0.062X0.09*%
%ADD18C,0.055*%
%ADD19R,0.065X0.065*%
%ADD20C,0.065*%
%ADD21O,0.12X0.06*%
%ADD22C,0.035*%
%ADD23C,0.02*%
%ADD24C,0.01*%
G04 APERTURE END LIST*
G54D10*
G54D11*
X65874Y-38507D02*
X65874Y-37982D01*
X65874Y-38132D02*
X65902Y-38057D01*
X65930Y-38020D01*
X65987Y-37982D01*
X66043Y-37982D01*
X66465Y-38470D02*
X66408Y-38507D01*
X66296Y-38507D01*
X66240Y-38470D01*
X66212Y-38395D01*
X66212Y-38095D01*
X66240Y-38020D01*
X66296Y-37982D01*
X66408Y-37982D01*
X66465Y-38020D01*
X66493Y-38095D01*
X66493Y-38170D01*
X66212Y-38245D01*
X66690Y-37982D02*
X66830Y-38507D01*
X66971Y-37982D01*
X67955Y-38507D02*
X67618Y-38507D01*
X67786Y-38507D02*
X67786Y-37720D01*
X67730Y-37832D01*
X67674Y-37907D01*
X67618Y-37945D01*
X68208Y-38432D02*
X68236Y-38470D01*
X68208Y-38507D01*
X68180Y-38470D01*
X68208Y-38432D01*
X68208Y-38507D01*
X68433Y-37720D02*
X68799Y-37720D01*
X68602Y-38020D01*
X68686Y-38020D01*
X68742Y-38057D01*
X68771Y-38095D01*
X68799Y-38170D01*
X68799Y-38357D01*
X68771Y-38432D01*
X68742Y-38470D01*
X68686Y-38507D01*
X68517Y-38507D01*
X68461Y-38470D01*
X68433Y-38432D01*
X63442Y-36932D02*
X63442Y-36145D01*
X63667Y-36145D01*
X63723Y-36182D01*
X63751Y-36220D01*
X63779Y-36295D01*
X63779Y-36407D01*
X63751Y-36482D01*
X63723Y-36520D01*
X63667Y-36557D01*
X63442Y-36557D01*
X64032Y-36857D02*
X64060Y-36895D01*
X64032Y-36932D01*
X64004Y-36895D01*
X64032Y-36857D01*
X64032Y-36932D01*
X64960Y-36520D02*
X65044Y-36557D01*
X65073Y-36595D01*
X65101Y-36670D01*
X65101Y-36782D01*
X65073Y-36857D01*
X65044Y-36895D01*
X64988Y-36932D01*
X64763Y-36932D01*
X64763Y-36145D01*
X64960Y-36145D01*
X65016Y-36182D01*
X65044Y-36220D01*
X65073Y-36295D01*
X65073Y-36370D01*
X65044Y-36445D01*
X65016Y-36482D01*
X64960Y-36520D01*
X64763Y-36520D01*
X65579Y-36895D02*
X65523Y-36932D01*
X65410Y-36932D01*
X65354Y-36895D01*
X65326Y-36820D01*
X65326Y-36520D01*
X65354Y-36445D01*
X65410Y-36407D01*
X65523Y-36407D01*
X65579Y-36445D01*
X65607Y-36520D01*
X65607Y-36595D01*
X65326Y-36670D01*
X65776Y-36407D02*
X66001Y-36407D01*
X65860Y-36145D02*
X65860Y-36820D01*
X65888Y-36895D01*
X65944Y-36932D01*
X66001Y-36932D01*
X66113Y-36407D02*
X66338Y-36407D01*
X66197Y-36145D02*
X66197Y-36820D01*
X66226Y-36895D01*
X66282Y-36932D01*
X66338Y-36932D01*
X66535Y-36932D02*
X66535Y-36407D01*
X66535Y-36145D02*
X66507Y-36182D01*
X66535Y-36220D01*
X66563Y-36182D01*
X66535Y-36145D01*
X66535Y-36220D01*
X67266Y-36632D02*
X67716Y-36632D01*
X68419Y-36220D02*
X68447Y-36182D01*
X68503Y-36145D01*
X68644Y-36145D01*
X68700Y-36182D01*
X68728Y-36220D01*
X68757Y-36295D01*
X68757Y-36370D01*
X68728Y-36482D01*
X68391Y-36932D01*
X68757Y-36932D01*
X69122Y-36145D02*
X69178Y-36145D01*
X69235Y-36182D01*
X69263Y-36220D01*
X69291Y-36295D01*
X69319Y-36445D01*
X69319Y-36632D01*
X69291Y-36782D01*
X69263Y-36857D01*
X69235Y-36895D01*
X69178Y-36932D01*
X69122Y-36932D01*
X69066Y-36895D01*
X69038Y-36857D01*
X69010Y-36782D01*
X68982Y-36632D01*
X68982Y-36445D01*
X69010Y-36295D01*
X69038Y-36220D01*
X69066Y-36182D01*
X69122Y-36145D01*
X69881Y-36932D02*
X69544Y-36932D01*
X69713Y-36932D02*
X69713Y-36145D01*
X69656Y-36257D01*
X69600Y-36332D01*
X69544Y-36370D01*
X70388Y-36407D02*
X70388Y-36932D01*
X70247Y-36107D02*
X70106Y-36670D01*
X70472Y-36670D01*
X51462Y-87720D02*
X51462Y-86932D01*
X51659Y-87495D01*
X51856Y-86932D01*
X51856Y-87720D01*
X52390Y-87195D02*
X52390Y-87720D01*
X52137Y-87195D02*
X52137Y-87607D01*
X52165Y-87682D01*
X52221Y-87720D01*
X52305Y-87720D01*
X52362Y-87682D01*
X52390Y-87645D01*
X52755Y-87720D02*
X52699Y-87682D01*
X52671Y-87607D01*
X52671Y-86932D01*
X52896Y-87195D02*
X53121Y-87195D01*
X52980Y-86932D02*
X52980Y-87607D01*
X53008Y-87682D01*
X53065Y-87720D01*
X53121Y-87720D01*
X53318Y-87720D02*
X53318Y-87195D01*
X53318Y-86932D02*
X53290Y-86970D01*
X53318Y-87007D01*
X53346Y-86970D01*
X53318Y-86932D01*
X53318Y-87007D01*
X53796Y-87307D02*
X53599Y-87307D01*
X53599Y-87720D02*
X53599Y-86932D01*
X53880Y-86932D01*
X54105Y-87420D02*
X54555Y-87420D01*
X55033Y-87307D02*
X55118Y-87345D01*
X55146Y-87382D01*
X55174Y-87457D01*
X55174Y-87570D01*
X55146Y-87645D01*
X55118Y-87682D01*
X55061Y-87720D01*
X54836Y-87720D01*
X54836Y-86932D01*
X55033Y-86932D01*
X55089Y-86970D01*
X55118Y-87007D01*
X55146Y-87082D01*
X55146Y-87157D01*
X55118Y-87232D01*
X55089Y-87270D01*
X55033Y-87307D01*
X54836Y-87307D01*
X55511Y-87720D02*
X55455Y-87682D01*
X55427Y-87645D01*
X55399Y-87570D01*
X55399Y-87345D01*
X55427Y-87270D01*
X55455Y-87232D01*
X55511Y-87195D01*
X55596Y-87195D01*
X55652Y-87232D01*
X55680Y-87270D01*
X55708Y-87345D01*
X55708Y-87570D01*
X55680Y-87645D01*
X55652Y-87682D01*
X55596Y-87720D01*
X55511Y-87720D01*
X56214Y-87720D02*
X56214Y-87307D01*
X56186Y-87232D01*
X56130Y-87195D01*
X56017Y-87195D01*
X55961Y-87232D01*
X56214Y-87682D02*
X56158Y-87720D01*
X56017Y-87720D01*
X55961Y-87682D01*
X55933Y-87607D01*
X55933Y-87532D01*
X55961Y-87457D01*
X56017Y-87420D01*
X56158Y-87420D01*
X56214Y-87382D01*
X56496Y-87720D02*
X56496Y-87195D01*
X56496Y-87345D02*
X56524Y-87270D01*
X56552Y-87232D01*
X56608Y-87195D01*
X56664Y-87195D01*
X57114Y-87720D02*
X57114Y-86932D01*
X57114Y-87682D02*
X57058Y-87720D01*
X56946Y-87720D01*
X56889Y-87682D01*
X56861Y-87645D01*
X56833Y-87570D01*
X56833Y-87345D01*
X56861Y-87270D01*
X56889Y-87232D01*
X56946Y-87195D01*
X57058Y-87195D01*
X57114Y-87232D01*
X57845Y-87720D02*
X57845Y-86932D01*
X58183Y-87720D01*
X58183Y-86932D01*
X58464Y-87307D02*
X58661Y-87307D01*
X58745Y-87720D02*
X58464Y-87720D01*
X58464Y-86932D01*
X58745Y-86932D01*
X58998Y-87420D02*
X59448Y-87420D01*
X59673Y-86932D02*
X60067Y-86932D01*
X59673Y-87720D01*
X60067Y-87720D01*
X60376Y-87270D02*
X60320Y-87232D01*
X60292Y-87195D01*
X60264Y-87120D01*
X60264Y-87082D01*
X60292Y-87007D01*
X60320Y-86970D01*
X60376Y-86932D01*
X60489Y-86932D01*
X60545Y-86970D01*
X60573Y-87007D01*
X60601Y-87082D01*
X60601Y-87120D01*
X60573Y-87195D01*
X60545Y-87232D01*
X60489Y-87270D01*
X60376Y-87270D01*
X60320Y-87307D01*
X60292Y-87345D01*
X60264Y-87420D01*
X60264Y-87570D01*
X60292Y-87645D01*
X60320Y-87682D01*
X60376Y-87720D01*
X60489Y-87720D01*
X60545Y-87682D01*
X60573Y-87645D01*
X60601Y-87570D01*
X60601Y-87420D01*
X60573Y-87345D01*
X60545Y-87307D01*
X60489Y-87270D01*
X60967Y-86932D02*
X61023Y-86932D01*
X61079Y-86970D01*
X61107Y-87007D01*
X61136Y-87082D01*
X61164Y-87232D01*
X61164Y-87420D01*
X61136Y-87570D01*
X61107Y-87645D01*
X61079Y-87682D01*
X61023Y-87720D01*
X60967Y-87720D01*
X60911Y-87682D01*
X60883Y-87645D01*
X60854Y-87570D01*
X60826Y-87420D01*
X60826Y-87232D01*
X60854Y-87082D01*
X60883Y-87007D01*
X60911Y-86970D01*
X60967Y-86932D01*
G54D12*
X19972Y-38137D03*
X20972Y-38137D03*
X19972Y-39137D03*
X20972Y-39137D03*
X19972Y-40137D03*
X20972Y-40137D03*
X19972Y-41137D03*
X20972Y-41137D03*
X19972Y-42137D03*
X20972Y-42137D03*
X19972Y-43137D03*
X20972Y-43137D03*
X19972Y-44137D03*
X20972Y-44137D03*
X19972Y-45137D03*
X20972Y-45137D03*
X19972Y-46137D03*
X20972Y-46137D03*
X19972Y-47137D03*
X20972Y-47137D03*
X19972Y-48137D03*
X20972Y-48137D03*
X19972Y-49137D03*
X20972Y-49137D03*
X19972Y-50137D03*
X20972Y-50137D03*
X19972Y-51137D03*
X20972Y-51137D03*
X19972Y-52137D03*
X20972Y-52137D03*
X19972Y-53137D03*
X20972Y-53137D03*
X19972Y-54137D03*
X20972Y-54137D03*
X19972Y-55137D03*
X20972Y-55137D03*
X19972Y-56137D03*
X20972Y-56137D03*
X19972Y-57137D03*
X20972Y-57137D03*
X20972Y-69716D03*
X19972Y-69716D03*
X20972Y-68716D03*
X19972Y-68716D03*
X20972Y-67716D03*
X19972Y-67716D03*
X20972Y-66716D03*
X19972Y-66716D03*
X20972Y-65716D03*
X19972Y-65716D03*
X20972Y-78377D03*
X19972Y-78377D03*
X20972Y-77377D03*
X19972Y-77377D03*
X20972Y-76377D03*
X19972Y-76377D03*
X20972Y-75377D03*
X19972Y-75377D03*
X20972Y-74377D03*
X19972Y-74377D03*
G54D13*
X19972Y-33858D03*
X20972Y-33858D03*
X19972Y-61417D03*
X20972Y-61417D03*
G54D14*
X36370Y-52287D03*
X37370Y-52287D03*
X38370Y-52287D03*
X39370Y-52287D03*
X40370Y-52287D03*
X41370Y-52287D03*
X42370Y-52287D03*
X42370Y-49287D03*
X41370Y-49287D03*
X40370Y-49287D03*
X39370Y-49287D03*
X38370Y-49287D03*
X37370Y-49287D03*
X36370Y-49287D03*
G54D15*
X23728Y-33070D03*
X22728Y-33070D03*
G54D16*
X36169Y-63629D03*
G54D17*
X37169Y-63629D03*
X38169Y-63629D03*
X39169Y-63629D03*
X40169Y-63629D03*
X41169Y-63629D03*
X42169Y-63629D03*
X43169Y-63629D03*
X44169Y-63629D03*
X45169Y-63629D03*
X46169Y-63629D03*
X47169Y-63629D03*
X48169Y-63629D03*
X49169Y-63629D03*
X50169Y-63629D03*
X51169Y-63629D03*
X52169Y-63629D03*
X53169Y-63629D03*
X54169Y-63629D03*
X55169Y-63629D03*
X55169Y-57629D03*
X54169Y-57629D03*
X53169Y-57629D03*
X52169Y-57629D03*
X51169Y-57629D03*
X50169Y-57629D03*
X49169Y-57629D03*
X48169Y-57629D03*
X47169Y-57629D03*
X46169Y-57629D03*
X45169Y-57629D03*
X44169Y-57629D03*
X43169Y-57629D03*
X42169Y-57629D03*
X41169Y-57629D03*
X40169Y-57629D03*
X39169Y-57629D03*
X38169Y-57629D03*
X37169Y-57629D03*
X36169Y-57629D03*
G54D16*
X27507Y-40007D03*
G54D17*
X28507Y-40007D03*
X29507Y-40007D03*
X30507Y-40007D03*
X31507Y-40007D03*
X32507Y-40007D03*
X33507Y-40007D03*
X34507Y-40007D03*
X35507Y-40007D03*
X36507Y-40007D03*
X37507Y-40007D03*
X38507Y-40007D03*
X39507Y-40007D03*
X40507Y-40007D03*
X41507Y-40007D03*
X42507Y-40007D03*
X43507Y-40007D03*
X44507Y-40007D03*
X45507Y-40007D03*
X46507Y-40007D03*
X46507Y-34007D03*
X45507Y-34007D03*
X44507Y-34007D03*
X43507Y-34007D03*
X42507Y-34007D03*
X41507Y-34007D03*
X40507Y-34007D03*
X39507Y-34007D03*
X38507Y-34007D03*
X37507Y-34007D03*
X36507Y-34007D03*
X35507Y-34007D03*
X34507Y-34007D03*
X33507Y-34007D03*
X32507Y-34007D03*
X31507Y-34007D03*
X30507Y-34007D03*
X29507Y-34007D03*
X28507Y-34007D03*
X27507Y-34007D03*
G54D16*
X36169Y-75047D03*
G54D17*
X37169Y-75047D03*
X38169Y-75047D03*
X39169Y-75047D03*
X40169Y-75047D03*
X41169Y-75047D03*
X42169Y-75047D03*
X43169Y-75047D03*
X44169Y-75047D03*
X45169Y-75047D03*
X46169Y-75047D03*
X47169Y-75047D03*
X48169Y-75047D03*
X49169Y-75047D03*
X50169Y-75047D03*
X51169Y-75047D03*
X52169Y-75047D03*
X53169Y-75047D03*
X54169Y-75047D03*
X55169Y-75047D03*
X55169Y-69047D03*
X54169Y-69047D03*
X53169Y-69047D03*
X52169Y-69047D03*
X51169Y-69047D03*
X50169Y-69047D03*
X49169Y-69047D03*
X48169Y-69047D03*
X47169Y-69047D03*
X46169Y-69047D03*
X45169Y-69047D03*
X44169Y-69047D03*
X43169Y-69047D03*
X42169Y-69047D03*
X41169Y-69047D03*
X40169Y-69047D03*
X39169Y-69047D03*
X38169Y-69047D03*
X37169Y-69047D03*
X36169Y-69047D03*
G54D16*
X77539Y-56543D03*
G54D17*
X78539Y-56543D03*
X79539Y-56543D03*
X80539Y-56543D03*
X81539Y-56543D03*
X82539Y-56543D03*
X83539Y-56543D03*
X84539Y-56543D03*
X85539Y-56543D03*
X86539Y-56543D03*
X87539Y-56543D03*
X88539Y-56543D03*
X89539Y-56543D03*
X90539Y-56543D03*
X91539Y-56543D03*
X92539Y-56543D03*
X92539Y-50543D03*
X91539Y-50543D03*
X90539Y-50543D03*
X89539Y-50543D03*
X88539Y-50543D03*
X87539Y-50543D03*
X86539Y-50543D03*
X85539Y-50543D03*
X84539Y-50543D03*
X83539Y-50543D03*
X82539Y-50543D03*
X81539Y-50543D03*
X80539Y-50543D03*
X79539Y-50543D03*
X78539Y-50543D03*
X77539Y-50543D03*
G54D16*
X77539Y-40007D03*
G54D17*
X78539Y-40007D03*
X79539Y-40007D03*
X80539Y-40007D03*
X81539Y-40007D03*
X82539Y-40007D03*
X83539Y-40007D03*
X84539Y-40007D03*
X85539Y-40007D03*
X86539Y-40007D03*
X87539Y-40007D03*
X88539Y-40007D03*
X89539Y-40007D03*
X90539Y-40007D03*
X91539Y-40007D03*
X92539Y-40007D03*
X92539Y-34007D03*
X91539Y-34007D03*
X90539Y-34007D03*
X89539Y-34007D03*
X88539Y-34007D03*
X87539Y-34007D03*
X86539Y-34007D03*
X85539Y-34007D03*
X84539Y-34007D03*
X83539Y-34007D03*
X82539Y-34007D03*
X81539Y-34007D03*
X80539Y-34007D03*
X79539Y-34007D03*
X78539Y-34007D03*
X77539Y-34007D03*
G54D16*
X77539Y-48275D03*
G54D17*
X78539Y-48275D03*
X79539Y-48275D03*
X80539Y-48275D03*
X81539Y-48275D03*
X82539Y-48275D03*
X83539Y-48275D03*
X84539Y-48275D03*
X85539Y-48275D03*
X86539Y-48275D03*
X87539Y-48275D03*
X88539Y-48275D03*
X89539Y-48275D03*
X90539Y-48275D03*
X91539Y-48275D03*
X92539Y-48275D03*
X92539Y-42275D03*
X91539Y-42275D03*
X90539Y-42275D03*
X89539Y-42275D03*
X88539Y-42275D03*
X87539Y-42275D03*
X86539Y-42275D03*
X85539Y-42275D03*
X84539Y-42275D03*
X83539Y-42275D03*
X82539Y-42275D03*
X81539Y-42275D03*
X80539Y-42275D03*
X79539Y-42275D03*
X78539Y-42275D03*
X77539Y-42275D03*
G54D16*
X84476Y-83783D03*
G54D17*
X85476Y-83783D03*
X86476Y-83783D03*
X87476Y-83783D03*
X88476Y-83783D03*
X89476Y-83783D03*
X90476Y-83783D03*
X91476Y-83783D03*
X92476Y-83783D03*
X93476Y-83783D03*
X93476Y-80783D03*
X92476Y-80783D03*
X91476Y-80783D03*
X90476Y-80783D03*
X89476Y-80783D03*
X88476Y-80783D03*
X87476Y-80783D03*
X86476Y-80783D03*
X85476Y-80783D03*
X84476Y-80783D03*
G54D16*
X59279Y-63311D03*
G54D17*
X60279Y-63311D03*
X61279Y-63311D03*
X62279Y-63311D03*
X63279Y-63311D03*
X64279Y-63311D03*
X65279Y-63311D03*
X66279Y-63311D03*
X67279Y-63311D03*
X68279Y-63311D03*
X68279Y-60311D03*
X67279Y-60311D03*
X66279Y-60311D03*
X65279Y-60311D03*
X64279Y-60311D03*
X63279Y-60311D03*
X62279Y-60311D03*
X61279Y-60311D03*
X60279Y-60311D03*
X59279Y-60311D03*
G54D16*
X71877Y-63311D03*
G54D17*
X72877Y-63311D03*
X73877Y-63311D03*
X74877Y-63311D03*
X75877Y-63311D03*
X76877Y-63311D03*
X77877Y-63311D03*
X78877Y-63311D03*
X79877Y-63311D03*
X80877Y-63311D03*
X80877Y-60311D03*
X79877Y-60311D03*
X78877Y-60311D03*
X77877Y-60311D03*
X76877Y-60311D03*
X75877Y-60311D03*
X74877Y-60311D03*
X73877Y-60311D03*
X72877Y-60311D03*
X71877Y-60311D03*
G54D16*
X71877Y-76696D03*
G54D17*
X72877Y-76696D03*
X73877Y-76696D03*
X74877Y-76696D03*
X75877Y-76696D03*
X76877Y-76696D03*
X77877Y-76696D03*
X78877Y-76696D03*
X79877Y-76696D03*
X80877Y-76696D03*
X80877Y-73696D03*
X79877Y-73696D03*
X78877Y-73696D03*
X77877Y-73696D03*
X76877Y-73696D03*
X75877Y-73696D03*
X74877Y-73696D03*
X73877Y-73696D03*
X72877Y-73696D03*
X71877Y-73696D03*
G54D16*
X62822Y-69610D03*
G54D17*
X63822Y-69610D03*
X64822Y-69610D03*
X65822Y-69610D03*
X66822Y-69610D03*
X67822Y-69610D03*
X68822Y-69610D03*
X69822Y-69610D03*
X70822Y-69610D03*
X71822Y-69610D03*
X71822Y-66610D03*
X70822Y-66610D03*
X69822Y-66610D03*
X68822Y-66610D03*
X67822Y-66610D03*
X66822Y-66610D03*
X65822Y-66610D03*
X64822Y-66610D03*
X63822Y-66610D03*
X62822Y-66610D03*
G54D16*
X84476Y-63311D03*
G54D17*
X85476Y-63311D03*
X86476Y-63311D03*
X87476Y-63311D03*
X88476Y-63311D03*
X89476Y-63311D03*
X90476Y-63311D03*
X91476Y-63311D03*
X92476Y-63311D03*
X93476Y-63311D03*
X93476Y-60311D03*
X92476Y-60311D03*
X91476Y-60311D03*
X90476Y-60311D03*
X89476Y-60311D03*
X88476Y-60311D03*
X87476Y-60311D03*
X86476Y-60311D03*
X85476Y-60311D03*
X84476Y-60311D03*
G54D16*
X84476Y-76696D03*
G54D17*
X85476Y-76696D03*
X86476Y-76696D03*
X87476Y-76696D03*
X88476Y-76696D03*
X89476Y-76696D03*
X90476Y-76696D03*
X91476Y-76696D03*
X92476Y-76696D03*
X93476Y-76696D03*
X93476Y-73696D03*
X92476Y-73696D03*
X91476Y-73696D03*
X90476Y-73696D03*
X89476Y-73696D03*
X88476Y-73696D03*
X87476Y-73696D03*
X86476Y-73696D03*
X85476Y-73696D03*
X84476Y-73696D03*
G54D16*
X36051Y-83783D03*
G54D17*
X37051Y-83783D03*
X38051Y-83783D03*
X39051Y-83783D03*
X40051Y-83783D03*
X41051Y-83783D03*
X42051Y-83783D03*
X43051Y-83783D03*
X44051Y-83783D03*
X45051Y-83783D03*
X45051Y-80783D03*
X44051Y-80783D03*
X43051Y-80783D03*
X42051Y-80783D03*
X41051Y-80783D03*
X40051Y-80783D03*
X39051Y-80783D03*
X38051Y-80783D03*
X37051Y-80783D03*
X36051Y-80783D03*
G54D16*
X58885Y-83783D03*
G54D17*
X59885Y-83783D03*
X60885Y-83783D03*
X61885Y-83783D03*
X62885Y-83783D03*
X63885Y-83783D03*
X64885Y-83783D03*
X65885Y-83783D03*
X66885Y-83783D03*
X67885Y-83783D03*
X67885Y-80783D03*
X66885Y-80783D03*
X65885Y-80783D03*
X64885Y-80783D03*
X63885Y-80783D03*
X62885Y-80783D03*
X61885Y-80783D03*
X60885Y-80783D03*
X59885Y-80783D03*
X58885Y-80783D03*
G54D16*
X71877Y-83783D03*
G54D17*
X72877Y-83783D03*
X73877Y-83783D03*
X74877Y-83783D03*
X75877Y-83783D03*
X76877Y-83783D03*
X77877Y-83783D03*
X78877Y-83783D03*
X79877Y-83783D03*
X80877Y-83783D03*
X80877Y-80783D03*
X79877Y-80783D03*
X78877Y-80783D03*
X77877Y-80783D03*
X76877Y-80783D03*
X75877Y-80783D03*
X74877Y-80783D03*
X73877Y-80783D03*
X72877Y-80783D03*
X71877Y-80783D03*
G54D16*
X26027Y-74334D03*
G54D17*
X27027Y-74334D03*
X28027Y-74334D03*
X29027Y-74334D03*
X30027Y-74334D03*
X31027Y-74334D03*
X32027Y-74334D03*
X33027Y-74334D03*
X33027Y-71334D03*
X32027Y-71334D03*
X31027Y-71334D03*
X30027Y-71334D03*
X29027Y-71334D03*
X28027Y-71334D03*
X27027Y-71334D03*
X26027Y-71334D03*
G54D16*
X25633Y-62917D03*
G54D17*
X26633Y-62917D03*
X27633Y-62917D03*
X28633Y-62917D03*
X29633Y-62917D03*
X30633Y-62917D03*
X31633Y-62917D03*
X32633Y-62917D03*
X32633Y-59917D03*
X31633Y-59917D03*
X30633Y-59917D03*
X29633Y-59917D03*
X28633Y-59917D03*
X27633Y-59917D03*
X26633Y-59917D03*
X25633Y-59917D03*
G54D16*
X36657Y-45988D03*
G54D17*
X37657Y-45988D03*
X38657Y-45988D03*
X39657Y-45988D03*
X40657Y-45988D03*
X41657Y-45988D03*
X42657Y-45988D03*
X43657Y-45988D03*
X43657Y-42988D03*
X42657Y-42988D03*
X41657Y-42988D03*
X40657Y-42988D03*
X39657Y-42988D03*
X38657Y-42988D03*
X37657Y-42988D03*
X36657Y-42988D03*
G54D16*
X75240Y-69610D03*
G54D17*
X76240Y-69610D03*
X77240Y-69610D03*
X78240Y-69610D03*
X79240Y-69610D03*
X80240Y-69610D03*
X81240Y-69610D03*
X82240Y-69610D03*
X82240Y-66610D03*
X81240Y-66610D03*
X80240Y-66610D03*
X79240Y-66610D03*
X78240Y-66610D03*
X77240Y-66610D03*
X76240Y-66610D03*
X75240Y-66610D03*
G54D16*
X86263Y-69610D03*
G54D17*
X87263Y-69610D03*
X88263Y-69610D03*
X89263Y-69610D03*
X90263Y-69610D03*
X91263Y-69610D03*
X92263Y-69610D03*
X93263Y-69610D03*
X93263Y-66610D03*
X92263Y-66610D03*
X91263Y-66610D03*
X90263Y-66610D03*
X89263Y-66610D03*
X88263Y-66610D03*
X87263Y-66610D03*
X86263Y-66610D03*
G54D16*
X61960Y-76696D03*
G54D17*
X62960Y-76696D03*
X63960Y-76696D03*
X64960Y-76696D03*
X65960Y-76696D03*
X66960Y-76696D03*
X67960Y-76696D03*
X67960Y-73696D03*
X66960Y-73696D03*
X65960Y-73696D03*
X64960Y-73696D03*
X63960Y-73696D03*
X62960Y-73696D03*
X61960Y-73696D03*
G54D16*
X50937Y-39688D03*
G54D17*
X51937Y-39688D03*
X52937Y-39688D03*
X53937Y-39688D03*
X54937Y-39688D03*
X55937Y-39688D03*
X56937Y-39688D03*
X56937Y-36688D03*
X55937Y-36688D03*
X54937Y-36688D03*
X53937Y-36688D03*
X52937Y-36688D03*
X51937Y-36688D03*
X50937Y-36688D03*
G54D16*
X46212Y-52287D03*
G54D17*
X47212Y-52287D03*
X48212Y-52287D03*
X49212Y-52287D03*
X50212Y-52287D03*
X51212Y-52287D03*
X52212Y-52287D03*
X52212Y-49287D03*
X51212Y-49287D03*
X50212Y-49287D03*
X49212Y-49287D03*
X48212Y-49287D03*
X47212Y-49287D03*
X46212Y-49287D03*
G54D16*
X48968Y-83783D03*
G54D17*
X49968Y-83783D03*
X50968Y-83783D03*
X51968Y-83783D03*
X52968Y-83783D03*
X53968Y-83783D03*
X54968Y-83783D03*
X54968Y-80783D03*
X53968Y-80783D03*
X52968Y-80783D03*
X51968Y-80783D03*
X50968Y-80783D03*
X49968Y-80783D03*
X48968Y-80783D03*
G54D16*
X62748Y-45594D03*
G54D17*
X63748Y-45594D03*
X64748Y-45594D03*
X65748Y-45594D03*
X66748Y-45594D03*
X67748Y-45594D03*
X68748Y-45594D03*
X68748Y-42594D03*
X67748Y-42594D03*
X66748Y-42594D03*
X65748Y-42594D03*
X64748Y-42594D03*
X63748Y-42594D03*
X62748Y-42594D03*
G54D16*
X50937Y-45988D03*
G54D17*
X51937Y-45988D03*
X52937Y-45988D03*
X53937Y-45988D03*
X54937Y-45988D03*
X55937Y-45988D03*
X56937Y-45988D03*
X56937Y-42988D03*
X55937Y-42988D03*
X54937Y-42988D03*
X53937Y-42988D03*
X52937Y-42988D03*
X51937Y-42988D03*
X50937Y-42988D03*
G54D16*
X26133Y-45988D03*
G54D17*
X27133Y-45988D03*
X28133Y-45988D03*
X29133Y-45988D03*
X30133Y-45988D03*
X31133Y-45988D03*
X32133Y-45988D03*
X32133Y-42988D03*
X31133Y-42988D03*
X30133Y-42988D03*
X29133Y-42988D03*
X28133Y-42988D03*
X27133Y-42988D03*
X26133Y-42988D03*
G54D18*
X41519Y-32677D03*
X43519Y-32677D03*
X24409Y-43488D03*
X24409Y-45488D03*
X50181Y-53937D03*
X52181Y-53937D03*
X36220Y-56118D03*
X36220Y-54118D03*
X24015Y-72228D03*
X24015Y-74228D03*
X75590Y-42307D03*
X75590Y-44307D03*
X61023Y-67110D03*
X61023Y-69110D03*
X35826Y-79346D03*
X35826Y-77346D03*
X57086Y-81283D03*
X57086Y-83283D03*
X70078Y-81283D03*
X70078Y-83283D03*
X82677Y-81283D03*
X82677Y-83283D03*
X60236Y-43094D03*
X60236Y-45094D03*
X59842Y-74196D03*
X59842Y-76196D03*
X60448Y-59055D03*
X58448Y-59055D03*
X36220Y-67535D03*
X36220Y-65535D03*
X23622Y-60417D03*
X23622Y-62417D03*
X70078Y-60811D03*
X70078Y-62811D03*
X82677Y-60811D03*
X82677Y-62811D03*
X73622Y-67110D03*
X73622Y-69110D03*
X84251Y-67110D03*
X84251Y-69110D03*
X70078Y-74196D03*
X70078Y-76196D03*
X82677Y-74196D03*
X82677Y-76196D03*
X35039Y-45488D03*
X35039Y-43488D03*
X49212Y-39188D03*
X49212Y-37188D03*
X49212Y-45488D03*
X49212Y-43488D03*
X47244Y-81283D03*
X47244Y-83283D03*
X57480Y-50574D03*
X57480Y-52574D03*
X75590Y-34039D03*
X75590Y-36039D03*
X75590Y-50574D03*
X75590Y-52574D03*
G54D19*
X24696Y-57086D03*
G54D20*
X25696Y-57086D03*
G54D19*
X32389Y-68897D03*
G54D20*
X31389Y-68897D03*
G54D19*
X27846Y-57086D03*
G54D20*
X28846Y-57086D03*
G54D19*
X25090Y-68897D03*
G54D20*
X26090Y-68897D03*
G54D19*
X28240Y-68897D03*
G54D20*
X29240Y-68897D03*
G54D19*
X31996Y-57086D03*
G54D20*
X30996Y-57086D03*
G54D19*
X28633Y-65354D03*
G54D20*
X29633Y-65354D03*
G54D19*
X25484Y-65354D03*
G54D20*
X26484Y-65354D03*
G54D19*
X29027Y-76771D03*
G54D20*
X30027Y-76771D03*
G54D19*
X25877Y-76771D03*
G54D20*
X26877Y-76771D03*
G54D12*
X59523Y-33964D03*
X59523Y-32964D03*
X60523Y-33964D03*
X60523Y-32964D03*
X61523Y-33964D03*
X61523Y-32964D03*
X62523Y-33964D03*
X62523Y-32964D03*
G54D13*
X68421Y-86614D03*
X69421Y-86614D03*
X70421Y-86614D03*
X71421Y-86614D03*
X72421Y-86614D03*
X73421Y-86614D03*
X74421Y-86614D03*
X75421Y-86614D03*
X76421Y-86614D03*
X77421Y-86614D03*
X78421Y-86614D03*
X79421Y-86614D03*
X80421Y-86614D03*
X81421Y-86614D03*
X82421Y-86614D03*
X83421Y-86614D03*
X84421Y-86614D03*
X85421Y-86614D03*
X86421Y-86614D03*
X87421Y-86614D03*
X88421Y-86614D03*
X89421Y-86614D03*
X90421Y-86614D03*
X91421Y-86614D03*
X22358Y-86614D03*
X23358Y-86614D03*
X24358Y-86614D03*
X25358Y-86614D03*
X26358Y-86614D03*
X27358Y-86614D03*
X28358Y-86614D03*
X29358Y-86614D03*
X30358Y-86614D03*
X31358Y-86614D03*
X32358Y-86614D03*
X33358Y-86614D03*
X34358Y-86614D03*
X35358Y-86614D03*
X36358Y-86614D03*
X37358Y-86614D03*
X38358Y-86614D03*
X39358Y-86614D03*
X40358Y-86614D03*
X41358Y-86614D03*
X42358Y-86614D03*
X43358Y-86614D03*
X44358Y-86614D03*
X45358Y-86614D03*
G54D21*
X26377Y-84464D03*
X26377Y-83464D03*
X26377Y-82464D03*
X28346Y-84464D03*
X28346Y-83464D03*
X28346Y-82464D03*
G54D16*
X59641Y-56543D03*
G54D17*
X60641Y-56543D03*
X61641Y-56543D03*
X62641Y-56543D03*
X63641Y-56543D03*
X64641Y-56543D03*
X65641Y-56543D03*
X66641Y-56543D03*
X67641Y-56543D03*
X68641Y-56543D03*
X69641Y-56543D03*
X70641Y-56543D03*
X71641Y-56543D03*
X72641Y-56543D03*
X72641Y-50543D03*
X71641Y-50543D03*
X70641Y-50543D03*
X69641Y-50543D03*
X68641Y-50543D03*
X67641Y-50543D03*
X66641Y-50543D03*
X65641Y-50543D03*
X64641Y-50543D03*
X63641Y-50543D03*
X62641Y-50543D03*
X61641Y-50543D03*
X60641Y-50543D03*
X59641Y-50543D03*
G54D12*
X59811Y-47637D03*
X63811Y-47637D03*
X24377Y-51574D03*
X28377Y-51574D03*
X24377Y-50000D03*
X28377Y-50000D03*
X25196Y-39401D03*
X25196Y-35401D03*
X24015Y-39401D03*
X24015Y-35401D03*
X24377Y-48425D03*
X28377Y-48425D03*
X24377Y-53149D03*
X28377Y-53149D03*
X65716Y-47637D03*
X69716Y-47637D03*
X25559Y-79921D03*
X29559Y-79921D03*
X63354Y-40551D03*
X67354Y-40551D03*
G54D18*
X69866Y-40551D03*
X71866Y-40551D03*
G54D19*
X72728Y-46850D03*
G54D20*
X73728Y-46850D03*
G54D19*
X31389Y-83070D03*
G54D20*
X32389Y-83070D03*
G54D22*
X59373Y-52710D03*
X55781Y-60555D03*
X55327Y-48660D03*
X69919Y-48329D03*
X32507Y-37986D03*
X55046Y-76712D03*
X50436Y-73127D03*
X65306Y-51979D03*
X33320Y-59000D03*
X32000Y-81000D03*
X30000Y-83000D03*
X56897Y-73121D03*
X56536Y-74360D03*
X74557Y-72921D03*
X84465Y-54106D03*
X56914Y-73764D03*
X75407Y-73033D03*
X59284Y-62561D03*
X93855Y-79713D03*
X40035Y-70157D03*
X40646Y-59361D03*
X42142Y-59561D03*
X65756Y-62508D03*
X62641Y-58281D03*
X45355Y-59814D03*
X19632Y-47650D03*
X57415Y-60400D03*
X58111Y-75153D03*
X66594Y-74913D03*
X50522Y-55881D03*
X56254Y-55832D03*
X54305Y-46837D03*
X57253Y-74673D03*
X73243Y-48166D03*
X72228Y-41237D03*
X63114Y-61982D03*
X76309Y-56512D03*
X74460Y-64724D03*
X81414Y-55613D03*
X76091Y-55774D03*
X79039Y-40789D03*
X77886Y-51681D03*
X77143Y-45554D03*
X73688Y-56481D03*
X87758Y-54507D03*
X86087Y-63997D03*
X76589Y-64149D03*
X75053Y-71412D03*
X83037Y-53037D03*
X83682Y-58494D03*
X88977Y-57980D03*
X78298Y-71068D03*
X79522Y-70958D03*
X79317Y-72005D03*
X80935Y-71559D03*
X83238Y-73555D03*
X55033Y-85437D03*
X57573Y-66675D03*
X27253Y-37183D03*
X24767Y-40311D03*
X25883Y-39811D03*
X23614Y-40970D03*
X22077Y-43102D03*
X30593Y-43933D03*
X83399Y-77951D03*
X42910Y-39101D03*
X47699Y-75950D03*
X36898Y-71666D03*
X33755Y-45160D03*
X34643Y-55074D03*
X75648Y-57634D03*
X85675Y-62344D03*
X55578Y-62306D03*
X60885Y-77834D03*
X88029Y-51374D03*
X88742Y-43014D03*
X37085Y-59008D03*
X67550Y-51816D03*
X87638Y-51752D03*
X35994Y-59326D03*
X85876Y-57606D03*
X58564Y-68799D03*
X94088Y-79310D03*
X92510Y-38985D03*
X74318Y-71614D03*
X69609Y-71615D03*
X72662Y-82269D03*
X78108Y-67793D03*
X88148Y-72564D03*
X88803Y-72284D03*
X85538Y-53906D03*
X61070Y-75815D03*
X78422Y-54688D03*
X76986Y-47070D03*
X69193Y-74537D03*
X57226Y-40571D03*
X85955Y-58347D03*
X62714Y-71983D03*
X94723Y-81959D03*
X56458Y-49185D03*
X82853Y-43302D03*
X82705Y-41540D03*
X73398Y-48998D03*
X76039Y-55324D03*
X61400Y-78096D03*
X81334Y-43049D03*
X81339Y-41408D03*
X76281Y-48798D03*
X76573Y-54552D03*
X57926Y-48860D03*
X73027Y-79988D03*
X73363Y-57190D03*
X83741Y-49018D03*
X83809Y-47408D03*
X57046Y-55028D03*
X55808Y-84202D03*
X73557Y-71315D03*
X74444Y-70175D03*
X81877Y-76410D03*
X73877Y-75369D03*
X79858Y-75588D03*
X82719Y-65972D03*
X70981Y-75794D03*
X77940Y-77433D03*
X82535Y-85222D03*
X84933Y-71936D03*
X78305Y-71518D03*
X85314Y-70631D03*
X68362Y-70436D03*
X87243Y-77435D03*
X90642Y-77807D03*
X68107Y-75457D03*
X65427Y-74566D03*
X37401Y-88976D03*
X74114Y-34842D03*
X43061Y-84943D03*
X82914Y-65266D03*
X81579Y-62357D03*
X85500Y-54421D03*
X75439Y-56964D03*
X76960Y-46208D03*
G54D23*
X24015Y-35401D02*
X25196Y-35401D01*
X34358Y-85795D02*
X33358Y-85795D01*
X33358Y-86614D02*
X33358Y-85795D01*
X34358Y-86614D02*
X34358Y-85795D01*
X76979Y-34039D02*
X77010Y-34007D01*
X75590Y-34039D02*
X76979Y-34039D01*
X77539Y-34007D02*
X77010Y-34007D01*
X71877Y-73696D02*
X71349Y-73696D01*
X25633Y-59917D02*
X25105Y-59917D01*
X58885Y-80783D02*
X58357Y-80783D01*
X48169Y-75047D02*
X47169Y-75047D01*
X48169Y-63629D02*
X47169Y-63629D01*
X60932Y-74196D02*
X61432Y-73696D01*
X59842Y-74196D02*
X60932Y-74196D01*
X61960Y-73696D02*
X61432Y-73696D01*
X76979Y-50574D02*
X77010Y-50543D01*
X75590Y-50574D02*
X76979Y-50574D01*
X77539Y-50543D02*
X77010Y-50543D01*
X26133Y-42988D02*
X26133Y-43488D01*
X51654Y-41631D02*
X49212Y-39188D01*
X58773Y-41631D02*
X51654Y-41631D01*
X60236Y-43094D02*
X58773Y-41631D01*
X50937Y-36688D02*
X50408Y-36688D01*
X83447Y-60811D02*
X83947Y-60311D01*
X82677Y-60811D02*
X83447Y-60811D01*
X84476Y-60311D02*
X83947Y-60311D01*
X70578Y-73696D02*
X71349Y-73696D01*
X70078Y-74196D02*
X70578Y-73696D01*
X24409Y-43488D02*
X26133Y-43488D01*
X23914Y-47962D02*
X24377Y-48425D01*
X23914Y-43982D02*
X23914Y-47962D01*
X24409Y-43488D02*
X23914Y-43982D01*
X33677Y-80783D02*
X31389Y-83070D01*
X36051Y-80783D02*
X33677Y-80783D01*
X76094Y-42811D02*
X75590Y-42307D01*
X76094Y-44512D02*
X76094Y-42811D01*
X74740Y-45867D02*
X76094Y-44512D01*
X73711Y-45867D02*
X74740Y-45867D01*
X72728Y-46850D02*
X73711Y-45867D01*
X83447Y-81283D02*
X83947Y-80783D01*
X82677Y-81283D02*
X83447Y-81283D01*
X84476Y-80783D02*
X83947Y-80783D01*
X51925Y-50574D02*
X50212Y-52287D01*
X57480Y-50574D02*
X51925Y-50574D01*
X57857Y-81283D02*
X57086Y-81283D01*
X58357Y-80783D02*
X57857Y-81283D01*
X49639Y-81454D02*
X48968Y-80783D01*
X56915Y-81454D02*
X49639Y-81454D01*
X57086Y-81283D02*
X56915Y-81454D01*
X74211Y-67110D02*
X74711Y-66610D01*
X73622Y-67110D02*
X74211Y-67110D01*
X75240Y-66610D02*
X74711Y-66610D01*
X68909Y-73027D02*
X70078Y-74196D01*
X62629Y-73027D02*
X68909Y-73027D01*
X61960Y-73696D02*
X62629Y-73027D01*
X63811Y-47637D02*
X65716Y-47637D01*
X66503Y-46850D02*
X72728Y-46850D01*
X65716Y-47637D02*
X66503Y-46850D01*
X83447Y-74196D02*
X83947Y-73696D01*
X82677Y-74196D02*
X83447Y-74196D01*
X84476Y-73696D02*
X83947Y-73696D01*
X24605Y-60417D02*
X23622Y-60417D01*
X25105Y-59917D02*
X24605Y-60417D01*
X19972Y-61381D02*
X19972Y-61417D01*
X20936Y-60417D02*
X19972Y-61381D01*
X23622Y-60417D02*
X20936Y-60417D01*
X33888Y-44336D02*
X35039Y-45488D01*
X26982Y-44336D02*
X33888Y-44336D01*
X26133Y-43488D02*
X26982Y-44336D01*
X36657Y-80177D02*
X35826Y-79346D01*
X36720Y-80114D02*
X36657Y-80177D01*
X46075Y-80114D02*
X36720Y-80114D01*
X47244Y-81283D02*
X46075Y-80114D01*
X36657Y-80177D02*
X36051Y-80783D01*
X50937Y-43763D02*
X49212Y-45488D01*
X50937Y-42988D02*
X50937Y-43763D01*
X58785Y-50574D02*
X59422Y-51211D01*
X58785Y-50574D02*
X58785Y-50574D01*
X57480Y-50574D02*
X58785Y-50574D01*
X62973Y-51211D02*
X63641Y-50543D01*
X59422Y-51211D02*
X62973Y-51211D01*
X50408Y-36722D02*
X50408Y-36688D01*
X50194Y-36936D02*
X50408Y-36722D01*
X50194Y-37055D02*
X50194Y-36936D01*
X48637Y-38613D02*
X50194Y-37055D01*
X47706Y-37682D02*
X48637Y-38613D01*
X45182Y-37682D02*
X47706Y-37682D01*
X41507Y-34007D02*
X45182Y-37682D01*
X48637Y-38613D02*
X49212Y-39188D01*
X72547Y-74366D02*
X71877Y-73696D01*
X82507Y-74366D02*
X72547Y-74366D01*
X82677Y-74196D02*
X82507Y-74366D01*
X85235Y-67110D02*
X85735Y-66610D01*
X84251Y-67110D02*
X85235Y-67110D01*
X86263Y-66610D02*
X85735Y-66610D01*
X59422Y-52661D02*
X59422Y-51211D01*
X59373Y-52710D02*
X59422Y-52661D01*
X62822Y-66610D02*
X62294Y-66610D01*
X61794Y-67110D02*
X62294Y-66610D01*
X61023Y-67110D02*
X61794Y-67110D01*
X25090Y-68897D02*
X25090Y-69441D01*
X25090Y-69441D02*
X25090Y-71334D01*
X24909Y-71334D02*
X25090Y-71334D01*
X24015Y-72228D02*
X24909Y-71334D01*
X25090Y-71334D02*
X26027Y-71334D01*
X34553Y-56542D02*
X35640Y-57629D01*
X28390Y-56542D02*
X34553Y-56542D01*
X27846Y-57086D02*
X28390Y-56542D01*
X36169Y-57629D02*
X35640Y-57629D01*
X59957Y-60988D02*
X59279Y-60311D01*
X69900Y-60988D02*
X59957Y-60988D01*
X70078Y-60811D02*
X69900Y-60988D01*
X51803Y-59996D02*
X48169Y-63629D01*
X58436Y-59996D02*
X51803Y-59996D01*
X58750Y-60311D02*
X58436Y-59996D01*
X59279Y-60311D02*
X58750Y-60311D01*
G54D24*
X49629Y-75300D02*
X49629Y-75047D01*
X51626Y-77297D02*
X49629Y-75300D01*
X63158Y-77297D02*
X51626Y-77297D01*
X63500Y-76955D02*
X63158Y-77297D01*
X63500Y-76696D02*
X63500Y-76955D01*
X63960Y-76696D02*
X63500Y-76696D01*
X49169Y-75047D02*
X49629Y-75047D01*
X52244Y-60555D02*
X49169Y-63629D01*
X55781Y-60555D02*
X52244Y-60555D01*
X55937Y-45988D02*
X56397Y-45988D01*
X56397Y-45988D02*
X56397Y-48329D01*
X55657Y-48329D02*
X55327Y-48660D01*
X56397Y-48329D02*
X55657Y-48329D01*
X69919Y-48329D02*
X56397Y-48329D01*
X52937Y-45988D02*
X52937Y-45388D01*
X53405Y-44919D02*
X52937Y-45388D01*
X53405Y-42663D02*
X53405Y-44919D01*
X52807Y-42066D02*
X53405Y-42663D01*
X50415Y-42066D02*
X52807Y-42066D01*
X46335Y-37986D02*
X50415Y-42066D01*
X32507Y-37986D02*
X46335Y-37986D01*
X61960Y-76696D02*
X61500Y-76696D01*
X61340Y-76857D02*
X61500Y-76696D01*
X55190Y-76857D02*
X61340Y-76857D01*
X55046Y-76712D02*
X55190Y-76857D01*
X54012Y-76712D02*
X55046Y-76712D01*
X52669Y-75369D02*
X54012Y-76712D01*
X52669Y-74733D02*
X52669Y-75369D01*
X51063Y-73127D02*
X52669Y-74733D01*
X50436Y-73127D02*
X51063Y-73127D01*
X44747Y-42358D02*
X44117Y-42988D01*
X52105Y-42358D02*
X44747Y-42358D01*
X52476Y-42729D02*
X52105Y-42358D01*
X52476Y-42988D02*
X52476Y-42729D01*
X52937Y-42988D02*
X52476Y-42988D01*
X43657Y-42988D02*
X44117Y-42988D01*
X43117Y-46277D02*
X43117Y-45988D01*
X43448Y-46608D02*
X43117Y-46277D01*
X49857Y-46608D02*
X43448Y-46608D01*
X50476Y-45988D02*
X49857Y-46608D01*
X50937Y-45988D02*
X50476Y-45988D01*
X42657Y-45988D02*
X43117Y-45988D01*
X51397Y-46247D02*
X51397Y-45988D01*
X51741Y-46591D02*
X51397Y-46247D01*
X53132Y-46591D02*
X51741Y-46591D01*
X53476Y-46247D02*
X53132Y-46591D01*
X53476Y-45988D02*
X53476Y-46247D01*
X53937Y-45988D02*
X53476Y-45988D01*
X50937Y-45988D02*
X51397Y-45988D01*
X32000Y-81000D02*
X30000Y-83000D01*
X33637Y-58683D02*
X33320Y-59000D01*
X39632Y-58683D02*
X33637Y-58683D01*
X39804Y-58511D02*
X39632Y-58683D01*
X47102Y-58511D02*
X39804Y-58511D01*
X47669Y-57945D02*
X47102Y-58511D01*
X47669Y-57317D02*
X47669Y-57945D01*
X50114Y-54872D02*
X47669Y-57317D01*
X52576Y-54872D02*
X50114Y-54872D01*
X53693Y-53754D02*
X52576Y-54872D01*
X63531Y-53754D02*
X53693Y-53754D01*
X65306Y-51979D02*
X63531Y-53754D01*
X63287Y-46054D02*
X63287Y-45594D01*
X61704Y-47637D02*
X63287Y-46054D01*
X59811Y-47637D02*
X61704Y-47637D01*
X63748Y-45594D02*
X63287Y-45594D01*
X52968Y-83783D02*
X51968Y-83783D01*
X75877Y-63311D02*
X75417Y-63311D01*
X85476Y-73696D02*
X85016Y-73696D01*
X75417Y-63566D02*
X75417Y-63311D01*
X74888Y-64095D02*
X75417Y-63566D01*
X74242Y-64095D02*
X74888Y-64095D01*
X74209Y-64128D02*
X74242Y-64095D01*
X73218Y-64128D02*
X74209Y-64128D01*
X72700Y-64646D02*
X73218Y-64128D01*
X66980Y-64646D02*
X72700Y-64646D01*
X65322Y-66303D02*
X66980Y-64646D01*
X65322Y-66921D02*
X65322Y-66303D01*
X64102Y-68141D02*
X65322Y-66921D01*
X63316Y-68141D02*
X64102Y-68141D01*
X62160Y-69297D02*
X63316Y-68141D01*
X62160Y-72348D02*
X62160Y-69297D01*
X57670Y-72348D02*
X56897Y-73121D01*
X62160Y-72348D02*
X57670Y-72348D01*
X75182Y-72348D02*
X62160Y-72348D01*
X75903Y-73069D02*
X75182Y-72348D01*
X84676Y-73069D02*
X75903Y-73069D01*
X85016Y-73409D02*
X84676Y-73069D01*
X85016Y-73696D02*
X85016Y-73409D01*
X76240Y-69610D02*
X76700Y-69610D01*
X87263Y-69610D02*
X86803Y-69610D01*
X86803Y-70070D02*
X86803Y-69610D01*
X86663Y-70210D02*
X86803Y-70070D01*
X85885Y-70210D02*
X86663Y-70210D01*
X85680Y-70005D02*
X85885Y-70210D01*
X85680Y-69910D02*
X85680Y-70005D01*
X84435Y-68665D02*
X85680Y-69910D01*
X78582Y-68665D02*
X84435Y-68665D01*
X78491Y-68755D02*
X78582Y-68665D01*
X77295Y-68755D02*
X78491Y-68755D01*
X76700Y-69351D02*
X77295Y-68755D01*
X76700Y-69610D02*
X76700Y-69351D01*
X56547Y-74348D02*
X56536Y-74360D01*
X57411Y-74348D02*
X56547Y-74348D01*
X59010Y-72749D02*
X57411Y-74348D01*
X74384Y-72749D02*
X59010Y-72749D01*
X74557Y-72921D02*
X74384Y-72749D01*
X85999Y-50543D02*
X85999Y-42275D01*
X85539Y-50543D02*
X85999Y-50543D01*
X85539Y-42275D02*
X85999Y-42275D01*
X72877Y-59396D02*
X72877Y-60311D01*
X74213Y-58060D02*
X72877Y-59396D01*
X74213Y-56124D02*
X74213Y-58060D01*
X76325Y-54012D02*
X74213Y-56124D01*
X84372Y-54012D02*
X76325Y-54012D01*
X84465Y-54106D02*
X84372Y-54012D01*
X89476Y-73696D02*
X89016Y-73696D01*
X62822Y-69610D02*
X63282Y-69610D01*
X63282Y-69869D02*
X63282Y-69610D01*
X65355Y-71941D02*
X63282Y-69869D01*
X75768Y-71941D02*
X65355Y-71941D01*
X76421Y-72594D02*
X75768Y-71941D01*
X86183Y-72594D02*
X76421Y-72594D01*
X86976Y-73386D02*
X86183Y-72594D01*
X86976Y-74010D02*
X86976Y-73386D01*
X87267Y-74302D02*
X86976Y-74010D01*
X88669Y-74302D02*
X87267Y-74302D01*
X89016Y-73955D02*
X88669Y-74302D01*
X89016Y-73696D02*
X89016Y-73955D01*
X88263Y-69610D02*
X87803Y-69610D01*
X77240Y-69610D02*
X77700Y-69610D01*
X77700Y-69357D02*
X77700Y-69610D01*
X78057Y-68999D02*
X77700Y-69357D01*
X81420Y-68999D02*
X78057Y-68999D01*
X81700Y-69279D02*
X81420Y-68999D01*
X81700Y-69890D02*
X81700Y-69279D01*
X82040Y-70230D02*
X81700Y-69890D01*
X85520Y-70230D02*
X82040Y-70230D01*
X85702Y-70412D02*
X85520Y-70230D01*
X87258Y-70412D02*
X85702Y-70412D01*
X87803Y-69867D02*
X87258Y-70412D01*
X87803Y-69610D02*
X87803Y-69867D01*
X58129Y-72548D02*
X56914Y-73764D01*
X74923Y-72548D02*
X58129Y-72548D01*
X75407Y-73033D02*
X74923Y-72548D01*
X29037Y-52234D02*
X28377Y-51574D01*
X29037Y-53412D02*
X29037Y-52234D01*
X28648Y-53801D02*
X29037Y-53412D01*
X25942Y-53801D02*
X28648Y-53801D01*
X23278Y-51137D02*
X25942Y-53801D01*
X20972Y-51137D02*
X23278Y-51137D01*
X86476Y-80783D02*
X86016Y-80783D01*
X36169Y-75047D02*
X36629Y-75047D01*
X60279Y-63311D02*
X59819Y-63311D01*
X59512Y-62561D02*
X59284Y-62561D01*
X59819Y-62869D02*
X59512Y-62561D01*
X59819Y-63311D02*
X59819Y-62869D01*
X36169Y-63629D02*
X36629Y-63629D01*
X36629Y-75306D02*
X36629Y-75047D01*
X40949Y-79626D02*
X36629Y-75306D01*
X62197Y-79626D02*
X40949Y-79626D01*
X62360Y-79463D02*
X62197Y-79626D01*
X73245Y-79463D02*
X62360Y-79463D01*
X73353Y-79571D02*
X73245Y-79463D01*
X81328Y-79571D02*
X73353Y-79571D01*
X81720Y-79962D02*
X81328Y-79571D01*
X85454Y-79962D02*
X81720Y-79962D01*
X86016Y-80524D02*
X85454Y-79962D01*
X86016Y-80783D02*
X86016Y-80524D01*
X58041Y-62561D02*
X59284Y-62561D01*
X55549Y-65053D02*
X58041Y-62561D01*
X42781Y-65053D02*
X55549Y-65053D01*
X41669Y-63941D02*
X42781Y-65053D01*
X41669Y-63338D02*
X41669Y-63941D01*
X40956Y-62625D02*
X41669Y-63338D01*
X37374Y-62625D02*
X40956Y-62625D01*
X36629Y-63371D02*
X37374Y-62625D01*
X36629Y-63629D02*
X36629Y-63371D01*
X87476Y-80783D02*
X87476Y-80183D01*
X37169Y-75047D02*
X37629Y-75047D01*
X62279Y-63311D02*
X61819Y-63311D01*
X37629Y-75300D02*
X37629Y-75047D01*
X41754Y-79425D02*
X37629Y-75300D01*
X62114Y-79425D02*
X41754Y-79425D01*
X62277Y-79262D02*
X62114Y-79425D01*
X73327Y-79262D02*
X62277Y-79262D01*
X73436Y-79371D02*
X73327Y-79262D01*
X81411Y-79371D02*
X73436Y-79371D01*
X81803Y-79762D02*
X81411Y-79371D01*
X87055Y-79762D02*
X81803Y-79762D01*
X87476Y-80183D02*
X87055Y-79762D01*
X61819Y-63569D02*
X61819Y-63311D01*
X60135Y-65254D02*
X61819Y-63569D01*
X42002Y-65254D02*
X60135Y-65254D01*
X40669Y-63920D02*
X42002Y-65254D01*
X40669Y-63331D02*
X40669Y-63920D01*
X40163Y-62825D02*
X40669Y-63331D01*
X37881Y-62825D02*
X40163Y-62825D01*
X37169Y-63537D02*
X37881Y-62825D01*
X37169Y-63629D02*
X37169Y-63537D01*
X88476Y-80783D02*
X88936Y-80783D01*
X93937Y-79795D02*
X93855Y-79713D01*
X93937Y-81136D02*
X93937Y-79795D01*
X93679Y-81394D02*
X93937Y-81136D01*
X89294Y-81394D02*
X93679Y-81394D01*
X88936Y-81036D02*
X89294Y-81394D01*
X88936Y-80783D02*
X88936Y-81036D01*
X64279Y-63311D02*
X63819Y-63311D01*
X38169Y-63629D02*
X38629Y-63629D01*
X63819Y-63569D02*
X63819Y-63311D01*
X61935Y-65454D02*
X63819Y-63569D01*
X40200Y-65454D02*
X61935Y-65454D01*
X38629Y-63883D02*
X40200Y-65454D01*
X38629Y-63629D02*
X38629Y-63883D01*
X66279Y-63311D02*
X65819Y-63311D01*
X39169Y-75047D02*
X39629Y-75047D01*
X40669Y-69523D02*
X40035Y-70157D01*
X40669Y-68011D02*
X40669Y-69523D01*
X41199Y-67480D02*
X40669Y-68011D01*
X38565Y-63025D02*
X39169Y-63629D01*
X37970Y-63025D02*
X38565Y-63025D01*
X37689Y-63306D02*
X37970Y-63025D01*
X37689Y-63970D02*
X37689Y-63306D01*
X41199Y-67480D02*
X37689Y-63970D01*
X58989Y-67480D02*
X41199Y-67480D01*
X59072Y-67563D02*
X58989Y-67480D01*
X62686Y-67563D02*
X59072Y-67563D01*
X63335Y-66914D02*
X62686Y-67563D01*
X63335Y-66254D02*
X63335Y-66914D01*
X65819Y-63771D02*
X63335Y-66254D01*
X65819Y-63311D02*
X65819Y-63771D01*
X39629Y-75300D02*
X39629Y-75047D01*
X43554Y-79225D02*
X39629Y-75300D01*
X62032Y-79225D02*
X43554Y-79225D01*
X62195Y-79062D02*
X62032Y-79225D01*
X73410Y-79062D02*
X62195Y-79062D01*
X73519Y-79171D02*
X73410Y-79062D01*
X81494Y-79171D02*
X73519Y-79171D01*
X81886Y-79562D02*
X81494Y-79171D01*
X88255Y-79562D02*
X81886Y-79562D01*
X89476Y-80783D02*
X88255Y-79562D01*
X40169Y-75047D02*
X40629Y-75047D01*
X90476Y-80783D02*
X90016Y-80783D01*
X68279Y-60311D02*
X67819Y-60311D01*
X67819Y-59850D02*
X67819Y-60311D01*
X66141Y-58173D02*
X67819Y-59850D01*
X66141Y-56243D02*
X66141Y-58173D01*
X65402Y-55504D02*
X66141Y-56243D01*
X60882Y-55504D02*
X65402Y-55504D01*
X60101Y-56284D02*
X60882Y-55504D01*
X60101Y-56543D02*
X60101Y-56284D01*
X59641Y-56543D02*
X60101Y-56543D01*
X52442Y-56543D02*
X59641Y-56543D01*
X51682Y-57303D02*
X52442Y-56543D01*
X51682Y-57953D02*
X51682Y-57303D01*
X50399Y-59236D02*
X51682Y-57953D01*
X40771Y-59236D02*
X50399Y-59236D01*
X40646Y-59361D02*
X40771Y-59236D01*
X40629Y-75306D02*
X40629Y-75047D01*
X44349Y-79025D02*
X40629Y-75306D01*
X61949Y-79025D02*
X44349Y-79025D01*
X62112Y-78862D02*
X61949Y-79025D01*
X73493Y-78862D02*
X62112Y-78862D01*
X73602Y-78971D02*
X73493Y-78862D01*
X81577Y-78971D02*
X73602Y-78971D01*
X81969Y-79362D02*
X81577Y-78971D01*
X88848Y-79362D02*
X81969Y-79362D01*
X90016Y-80530D02*
X88848Y-79362D01*
X90016Y-80783D02*
X90016Y-80530D01*
X41169Y-75047D02*
X41629Y-75047D01*
X91476Y-80783D02*
X91016Y-80783D01*
X66279Y-60311D02*
X65819Y-60311D01*
X61101Y-56290D02*
X61101Y-56543D01*
X61687Y-55704D02*
X61101Y-56290D01*
X64613Y-55704D02*
X61687Y-55704D01*
X65141Y-56232D02*
X64613Y-55704D01*
X65141Y-59173D02*
X65141Y-56232D01*
X65819Y-59850D02*
X65141Y-59173D01*
X65819Y-60311D02*
X65819Y-59850D01*
X41629Y-75306D02*
X41629Y-75047D01*
X45148Y-78825D02*
X41629Y-75306D01*
X61866Y-78825D02*
X45148Y-78825D01*
X62029Y-78662D02*
X61866Y-78825D01*
X73576Y-78662D02*
X62029Y-78662D01*
X73684Y-78770D02*
X73576Y-78662D01*
X81660Y-78770D02*
X73684Y-78770D01*
X82051Y-79162D02*
X81660Y-78770D01*
X89674Y-79162D02*
X82051Y-79162D01*
X91016Y-80503D02*
X89674Y-79162D01*
X91016Y-80783D02*
X91016Y-80503D01*
X42214Y-59489D02*
X42142Y-59561D01*
X51101Y-59489D02*
X42214Y-59489D01*
X52669Y-57921D02*
X51101Y-59489D01*
X52669Y-57333D02*
X52669Y-57921D01*
X52994Y-57008D02*
X52669Y-57333D01*
X59134Y-57008D02*
X52994Y-57008D01*
X59269Y-57143D02*
X59134Y-57008D01*
X60041Y-57143D02*
X59269Y-57143D01*
X60641Y-56543D02*
X60041Y-57143D01*
X60641Y-56543D02*
X61101Y-56543D01*
X42169Y-75047D02*
X42629Y-75047D01*
X92476Y-80783D02*
X92016Y-80783D01*
X42629Y-75306D02*
X42629Y-75047D01*
X45948Y-78625D02*
X42629Y-75306D01*
X61783Y-78625D02*
X45948Y-78625D01*
X61946Y-78462D02*
X61783Y-78625D01*
X73659Y-78462D02*
X61946Y-78462D01*
X73767Y-78570D02*
X73659Y-78462D01*
X81743Y-78570D02*
X73767Y-78570D01*
X82134Y-78962D02*
X81743Y-78570D01*
X90448Y-78962D02*
X82134Y-78962D01*
X92016Y-80530D02*
X90448Y-78962D01*
X92016Y-80783D02*
X92016Y-80530D01*
X65720Y-62472D02*
X65756Y-62508D01*
X63367Y-62472D02*
X65720Y-62472D01*
X63331Y-62508D02*
X63367Y-62472D01*
X62896Y-62508D02*
X63331Y-62508D01*
X62625Y-62236D02*
X62896Y-62508D01*
X57831Y-62236D02*
X62625Y-62236D01*
X55214Y-64853D02*
X57831Y-62236D01*
X43284Y-64853D02*
X55214Y-64853D01*
X42169Y-63738D02*
X43284Y-64853D01*
X42169Y-63629D02*
X42169Y-63738D01*
X43169Y-75047D02*
X43629Y-75047D01*
X93476Y-80783D02*
X93016Y-80783D01*
X62279Y-60311D02*
X62279Y-59710D01*
X43629Y-75298D02*
X43629Y-75047D01*
X46755Y-78425D02*
X43629Y-75298D01*
X61700Y-78425D02*
X46755Y-78425D01*
X61863Y-78262D02*
X61700Y-78425D01*
X73742Y-78262D02*
X61863Y-78262D01*
X73850Y-78370D02*
X73742Y-78262D01*
X81826Y-78370D02*
X73850Y-78370D01*
X82217Y-78762D02*
X81826Y-78370D01*
X91248Y-78762D02*
X82217Y-78762D01*
X93016Y-80530D02*
X91248Y-78762D01*
X93016Y-80783D02*
X93016Y-80530D01*
X51495Y-59814D02*
X45355Y-59814D01*
X51705Y-59604D02*
X51495Y-59814D01*
X62026Y-59604D02*
X51705Y-59604D01*
X62132Y-59710D02*
X62026Y-59604D01*
X62279Y-59710D02*
X62132Y-59710D01*
X62026Y-58897D02*
X62641Y-58281D01*
X62026Y-59604D02*
X62026Y-58897D01*
X71641Y-56543D02*
X71181Y-56543D01*
X28346Y-83464D02*
X28346Y-83014D01*
X71181Y-60924D02*
X71181Y-56543D01*
X70447Y-61657D02*
X71181Y-60924D01*
X54329Y-61657D02*
X70447Y-61657D01*
X52669Y-63318D02*
X54329Y-61657D01*
X52669Y-63925D02*
X52669Y-63318D01*
X51940Y-64653D02*
X52669Y-63925D01*
X43397Y-64653D02*
X51940Y-64653D01*
X42669Y-63925D02*
X43397Y-64653D01*
X42669Y-63337D02*
X42669Y-63925D01*
X41754Y-62423D02*
X42669Y-63337D01*
X36402Y-62423D02*
X41754Y-62423D01*
X33005Y-65820D02*
X36402Y-62423D01*
X33005Y-69188D02*
X33005Y-65820D01*
X32361Y-69832D02*
X33005Y-69188D01*
X30703Y-69832D02*
X32361Y-69832D01*
X29550Y-70985D02*
X30703Y-69832D01*
X29550Y-71676D02*
X29550Y-70985D01*
X31078Y-73204D02*
X29550Y-71676D01*
X32714Y-73204D02*
X31078Y-73204D01*
X33488Y-73978D02*
X32714Y-73204D01*
X33488Y-78265D02*
X33488Y-73978D01*
X28740Y-83014D02*
X33488Y-78265D01*
X28346Y-83014D02*
X28740Y-83014D01*
X24962Y-84014D02*
X26377Y-84014D01*
X19508Y-78559D02*
X24962Y-84014D01*
X19508Y-73565D02*
X19508Y-78559D01*
X24706Y-68366D02*
X19508Y-73565D01*
X29005Y-68366D02*
X24706Y-68366D01*
X35173Y-62198D02*
X29005Y-68366D01*
X42550Y-62198D02*
X35173Y-62198D01*
X43669Y-63317D02*
X42550Y-62198D01*
X43669Y-63951D02*
X43669Y-63317D01*
X44171Y-64453D02*
X43669Y-63951D01*
X51148Y-64453D02*
X44171Y-64453D01*
X51669Y-63933D02*
X51148Y-64453D01*
X51669Y-63327D02*
X51669Y-63933D01*
X53538Y-61457D02*
X51669Y-63327D01*
X70365Y-61457D02*
X53538Y-61457D01*
X70737Y-61085D02*
X70365Y-61457D01*
X70737Y-57638D02*
X70737Y-61085D01*
X70101Y-57003D02*
X70737Y-57638D01*
X70101Y-56543D02*
X70101Y-57003D01*
X69641Y-56543D02*
X70101Y-56543D01*
X26377Y-84464D02*
X26377Y-84014D01*
X20472Y-48637D02*
X19972Y-48137D01*
X23866Y-48637D02*
X20472Y-48637D01*
X28377Y-53149D02*
X23866Y-48637D01*
X28567Y-71587D02*
X28567Y-71334D01*
X26627Y-73527D02*
X28567Y-71587D01*
X25803Y-73527D02*
X26627Y-73527D01*
X23453Y-75877D02*
X25803Y-73527D01*
X20835Y-75877D02*
X23453Y-75877D01*
X20522Y-76191D02*
X20835Y-75877D01*
X20522Y-77828D02*
X20522Y-76191D01*
X19972Y-78377D02*
X20522Y-77828D01*
X29027Y-71334D02*
X28567Y-71334D01*
X20472Y-69216D02*
X19972Y-69716D01*
X20472Y-67572D02*
X20472Y-69216D01*
X20778Y-67266D02*
X20472Y-67572D01*
X21084Y-67266D02*
X20778Y-67266D01*
X21897Y-66453D02*
X21084Y-67266D01*
X21897Y-65681D02*
X21897Y-66453D01*
X27042Y-60535D02*
X21897Y-65681D01*
X27813Y-60535D02*
X27042Y-60535D01*
X28173Y-60176D02*
X27813Y-60535D01*
X28173Y-59917D02*
X28173Y-60176D01*
X28633Y-59917D02*
X28173Y-59917D01*
X28027Y-71334D02*
X27567Y-71334D01*
X23528Y-75377D02*
X20972Y-75377D01*
X25633Y-73272D02*
X23528Y-75377D01*
X25916Y-73272D02*
X25633Y-73272D01*
X27567Y-71622D02*
X25916Y-73272D01*
X27567Y-71334D02*
X27567Y-71622D01*
X20459Y-47650D02*
X20972Y-47137D01*
X19632Y-47650D02*
X20459Y-47650D01*
X66960Y-73696D02*
X67420Y-73696D01*
X68641Y-56543D02*
X69101Y-56543D01*
X58272Y-61257D02*
X57415Y-60400D01*
X70282Y-61257D02*
X58272Y-61257D01*
X70537Y-61002D02*
X70282Y-61257D01*
X70537Y-58721D02*
X70537Y-61002D01*
X69101Y-57286D02*
X70537Y-58721D01*
X69101Y-56543D02*
X69101Y-57286D01*
X58350Y-74913D02*
X58111Y-75153D01*
X66594Y-74913D02*
X58350Y-74913D01*
X67420Y-73955D02*
X67420Y-73696D01*
X68196Y-74731D02*
X67420Y-73955D01*
X68407Y-74731D02*
X68196Y-74731D01*
X68539Y-74862D02*
X68407Y-74731D01*
X70644Y-74862D02*
X68539Y-74862D01*
X70663Y-74843D02*
X70644Y-74862D01*
X89623Y-74843D02*
X70663Y-74843D01*
X91476Y-76696D02*
X89623Y-74843D01*
X67641Y-50543D02*
X67641Y-51143D01*
X67876Y-51377D02*
X67641Y-51143D01*
X67876Y-51970D02*
X67876Y-51377D01*
X65542Y-54303D02*
X67876Y-51970D01*
X55766Y-54303D02*
X65542Y-54303D01*
X54313Y-55756D02*
X55766Y-54303D01*
X50647Y-55756D02*
X54313Y-55756D01*
X50522Y-55881D02*
X50647Y-55756D01*
X49748Y-53450D02*
X46169Y-57029D01*
X62967Y-53450D02*
X49748Y-53450D01*
X64981Y-51436D02*
X62967Y-53450D01*
X65547Y-51436D02*
X64981Y-51436D01*
X66181Y-50802D02*
X65547Y-51436D01*
X66181Y-50543D02*
X66181Y-50802D01*
X66641Y-50543D02*
X66181Y-50543D01*
X46169Y-57629D02*
X46169Y-57029D01*
X72641Y-56543D02*
X72181Y-56543D01*
X41657Y-45988D02*
X42117Y-45988D01*
X84476Y-76696D02*
X84016Y-76696D01*
X42117Y-46241D02*
X42117Y-45988D01*
X42714Y-46837D02*
X42117Y-46241D01*
X54305Y-46837D02*
X42714Y-46837D01*
X65960Y-73696D02*
X66420Y-73696D01*
X65500Y-73954D02*
X65500Y-73696D01*
X64780Y-74673D02*
X65500Y-73954D01*
X57253Y-74673D02*
X64780Y-74673D01*
X65960Y-73696D02*
X65500Y-73696D01*
X66420Y-73959D02*
X66420Y-73696D01*
X67393Y-74931D02*
X66420Y-73959D01*
X68325Y-74931D02*
X67393Y-74931D01*
X68456Y-75062D02*
X68325Y-74931D01*
X71158Y-75062D02*
X68456Y-75062D01*
X71177Y-75043D02*
X71158Y-75062D01*
X82363Y-75043D02*
X71177Y-75043D01*
X84016Y-76696D02*
X82363Y-75043D01*
X72181Y-56284D02*
X72181Y-56543D01*
X71183Y-55286D02*
X72181Y-56284D01*
X58063Y-55286D02*
X71183Y-55286D01*
X57516Y-55832D02*
X58063Y-55286D01*
X56254Y-55832D02*
X57516Y-55832D01*
X73734Y-47675D02*
X73243Y-48166D01*
X79737Y-47675D02*
X73734Y-47675D01*
X80079Y-48016D02*
X79737Y-47675D01*
X80079Y-48275D02*
X80079Y-48016D01*
X80539Y-48275D02*
X80079Y-48275D01*
X80539Y-40007D02*
X80079Y-40007D01*
X79102Y-41237D02*
X72228Y-41237D01*
X80079Y-40261D02*
X79102Y-41237D01*
X80079Y-40007D02*
X80079Y-40261D01*
X80539Y-56543D02*
X80079Y-56543D01*
X77083Y-55739D02*
X76309Y-56512D01*
X79528Y-55739D02*
X77083Y-55739D01*
X80079Y-56290D02*
X79528Y-55739D01*
X80079Y-56543D02*
X80079Y-56290D01*
X83289Y-59293D02*
X80539Y-56543D01*
X85285Y-59293D02*
X83289Y-59293D01*
X86016Y-60023D02*
X85285Y-59293D01*
X86016Y-60311D02*
X86016Y-60023D01*
X86476Y-60311D02*
X86016Y-60311D01*
X75430Y-56512D02*
X76309Y-56512D01*
X74978Y-56965D02*
X75430Y-56512D01*
X74978Y-58752D02*
X74978Y-56965D01*
X74372Y-59357D02*
X74978Y-58752D01*
X74372Y-60615D02*
X74372Y-59357D01*
X73130Y-61857D02*
X74372Y-60615D01*
X63239Y-61857D02*
X73130Y-61857D01*
X63114Y-61982D02*
X63239Y-61857D01*
X81539Y-34007D02*
X81999Y-34007D01*
X82055Y-41159D02*
X81539Y-41675D01*
X85187Y-41159D02*
X82055Y-41159D01*
X86017Y-40329D02*
X85187Y-41159D01*
X86017Y-38486D02*
X86017Y-40329D01*
X81999Y-34467D02*
X86017Y-38486D01*
X81999Y-34007D02*
X81999Y-34467D01*
X81539Y-42275D02*
X81539Y-41675D01*
X67822Y-66610D02*
X68282Y-66610D01*
X88476Y-60311D02*
X88016Y-60311D01*
X76526Y-55339D02*
X76091Y-55774D01*
X81139Y-55339D02*
X76526Y-55339D01*
X81414Y-55613D02*
X81139Y-55339D01*
X82039Y-56238D02*
X81414Y-55613D01*
X82039Y-57310D02*
X82039Y-56238D01*
X83801Y-59072D02*
X82039Y-57310D01*
X87036Y-59072D02*
X83801Y-59072D01*
X88016Y-60052D02*
X87036Y-59072D01*
X88016Y-60311D02*
X88016Y-60052D01*
X74237Y-64946D02*
X74460Y-64724D01*
X72966Y-64946D02*
X74237Y-64946D01*
X72766Y-65146D02*
X72966Y-64946D01*
X69493Y-65146D02*
X72766Y-65146D01*
X68282Y-66357D02*
X69493Y-65146D01*
X68282Y-66610D02*
X68282Y-66357D01*
X80539Y-34007D02*
X80079Y-34007D01*
X80079Y-34467D02*
X80079Y-34007D01*
X79039Y-35507D02*
X80079Y-34467D01*
X79039Y-40789D02*
X79039Y-35507D01*
X90476Y-60311D02*
X90016Y-60311D01*
X69822Y-66610D02*
X70282Y-66610D01*
X78935Y-55939D02*
X79539Y-56543D01*
X78340Y-55939D02*
X78935Y-55939D01*
X78072Y-56207D02*
X78340Y-55939D01*
X78072Y-56876D02*
X78072Y-56207D01*
X78951Y-57755D02*
X78072Y-56876D01*
X79112Y-57755D02*
X78951Y-57755D01*
X82109Y-60751D02*
X79112Y-57755D01*
X82109Y-60873D02*
X82109Y-60751D01*
X82856Y-61621D02*
X82109Y-60873D01*
X85605Y-61621D02*
X82856Y-61621D01*
X86988Y-63004D02*
X85605Y-61621D01*
X86955Y-63036D02*
X86988Y-63004D01*
X86955Y-63644D02*
X86955Y-63036D01*
X86100Y-64500D02*
X86955Y-63644D01*
X77305Y-64500D02*
X86100Y-64500D01*
X76437Y-65368D02*
X77305Y-64500D01*
X73151Y-65368D02*
X76437Y-65368D01*
X72621Y-65899D02*
X73151Y-65368D01*
X70735Y-65899D02*
X72621Y-65899D01*
X70282Y-66351D02*
X70735Y-65899D01*
X70282Y-66610D02*
X70282Y-66351D01*
X90016Y-60569D02*
X90016Y-60311D01*
X89647Y-60938D02*
X90016Y-60569D01*
X89054Y-60938D02*
X89647Y-60938D01*
X86988Y-63004D02*
X89054Y-60938D01*
X78539Y-50543D02*
X78539Y-51143D01*
X78539Y-51463D02*
X78539Y-51143D01*
X78539Y-42275D02*
X78539Y-42875D01*
X78104Y-51463D02*
X77886Y-51681D01*
X78539Y-51463D02*
X78104Y-51463D01*
X77143Y-44271D02*
X78539Y-42875D01*
X77143Y-45554D02*
X77143Y-44271D01*
X73688Y-55879D02*
X73688Y-56481D01*
X77886Y-51681D02*
X73688Y-55879D01*
X92476Y-60311D02*
X92016Y-60311D01*
X92016Y-59850D02*
X92016Y-60311D01*
X89039Y-56874D02*
X92016Y-59850D01*
X89039Y-56248D02*
X89039Y-56874D01*
X86372Y-53581D02*
X89039Y-56248D01*
X80657Y-53581D02*
X86372Y-53581D01*
X78539Y-51463D02*
X80657Y-53581D01*
X92476Y-63311D02*
X92300Y-63311D01*
X69822Y-69610D02*
X70282Y-69610D01*
X78539Y-56543D02*
X78999Y-56543D01*
X78999Y-56796D02*
X78999Y-56543D01*
X81793Y-59590D02*
X78999Y-56796D01*
X84599Y-59590D02*
X81793Y-59590D01*
X84976Y-59966D02*
X84599Y-59590D01*
X84976Y-60635D02*
X84976Y-59966D01*
X85279Y-60938D02*
X84976Y-60635D01*
X88644Y-60938D02*
X85279Y-60938D01*
X88957Y-60625D02*
X88644Y-60938D01*
X88957Y-60026D02*
X88957Y-60625D01*
X89277Y-59707D02*
X88957Y-60026D01*
X90683Y-59707D02*
X89277Y-59707D01*
X90976Y-60000D02*
X90683Y-59707D01*
X90976Y-61986D02*
X90976Y-60000D01*
X92300Y-63311D02*
X90976Y-61986D01*
X89763Y-65848D02*
X92300Y-63311D01*
X89763Y-66902D02*
X89763Y-65848D01*
X88637Y-68029D02*
X89763Y-66902D01*
X78369Y-68029D02*
X88637Y-68029D01*
X78243Y-68155D02*
X78369Y-68029D01*
X75205Y-68155D02*
X78243Y-68155D01*
X73127Y-70234D02*
X75205Y-68155D01*
X70653Y-70234D02*
X73127Y-70234D01*
X70282Y-69863D02*
X70653Y-70234D01*
X70282Y-69610D02*
X70282Y-69863D01*
X79999Y-50796D02*
X79999Y-50543D01*
X82584Y-53381D02*
X79999Y-50796D01*
X86632Y-53381D02*
X82584Y-53381D01*
X87758Y-54507D02*
X86632Y-53381D01*
X79539Y-50543D02*
X79999Y-50543D01*
X90476Y-63311D02*
X90016Y-63311D01*
X67822Y-69610D02*
X68282Y-69610D01*
X90016Y-63052D02*
X90016Y-63311D01*
X89656Y-62692D02*
X90016Y-63052D01*
X88300Y-62692D02*
X89656Y-62692D01*
X87976Y-63016D02*
X88300Y-62692D01*
X87976Y-63694D02*
X87976Y-63016D01*
X86766Y-64904D02*
X87976Y-63694D01*
X84179Y-64904D02*
X86766Y-64904D01*
X83492Y-65591D02*
X84179Y-64904D01*
X82780Y-65591D02*
X83492Y-65591D01*
X82758Y-65568D02*
X82780Y-65591D01*
X73758Y-65568D02*
X82758Y-65568D01*
X71863Y-67464D02*
X73758Y-65568D01*
X70175Y-67464D02*
X71863Y-67464D01*
X68282Y-69357D02*
X70175Y-67464D01*
X68282Y-69610D02*
X68282Y-69357D01*
X65822Y-69610D02*
X65822Y-69010D01*
X76877Y-63311D02*
X76877Y-63911D01*
X76914Y-63947D02*
X76877Y-63911D01*
X76914Y-64146D02*
X76914Y-63947D01*
X85938Y-64146D02*
X76914Y-64146D01*
X86087Y-63997D02*
X85938Y-64146D01*
X76914Y-64283D02*
X76914Y-64146D01*
X76051Y-65146D02*
X76914Y-64283D01*
X73049Y-65146D02*
X76051Y-65146D01*
X72849Y-65346D02*
X73049Y-65146D01*
X70275Y-65346D02*
X72849Y-65346D01*
X69322Y-66299D02*
X70275Y-65346D01*
X69322Y-66925D02*
X69322Y-66299D01*
X67438Y-68810D02*
X69322Y-66925D01*
X66022Y-68810D02*
X67438Y-68810D01*
X65822Y-69010D02*
X66022Y-68810D01*
X78338Y-63564D02*
X78338Y-63311D01*
X78703Y-63929D02*
X78338Y-63564D01*
X85656Y-63929D02*
X78703Y-63929D01*
X86016Y-63569D02*
X85656Y-63929D01*
X86016Y-63311D02*
X86016Y-63569D01*
X86476Y-63311D02*
X86016Y-63311D01*
X77877Y-63311D02*
X78338Y-63311D01*
X63822Y-69610D02*
X64282Y-69610D01*
X76442Y-64295D02*
X76589Y-64149D01*
X74325Y-64295D02*
X76442Y-64295D01*
X73875Y-64746D02*
X74325Y-64295D01*
X72883Y-64746D02*
X73875Y-64746D01*
X72683Y-64946D02*
X72883Y-64746D01*
X68676Y-64946D02*
X72683Y-64946D01*
X67322Y-66299D02*
X68676Y-64946D01*
X67322Y-66915D02*
X67322Y-66299D01*
X65276Y-68962D02*
X67322Y-66915D01*
X64677Y-68962D02*
X65276Y-68962D01*
X64282Y-69357D02*
X64677Y-68962D01*
X64282Y-69610D02*
X64282Y-69357D01*
X90426Y-57430D02*
X89539Y-56543D01*
X91386Y-57430D02*
X90426Y-57430D01*
X93969Y-60013D02*
X91386Y-57430D01*
X93969Y-63871D02*
X93969Y-60013D01*
X91763Y-66077D02*
X93969Y-63871D01*
X91763Y-69927D02*
X91763Y-66077D01*
X90732Y-70958D02*
X91763Y-69927D01*
X84539Y-70958D02*
X90732Y-70958D01*
X84214Y-70633D02*
X84539Y-70958D01*
X75832Y-70633D02*
X84214Y-70633D01*
X75053Y-71412D02*
X75832Y-70633D01*
X90539Y-56543D02*
X90079Y-56543D01*
X90539Y-48275D02*
X90079Y-48275D01*
X90079Y-48275D02*
X90079Y-40007D01*
X90539Y-40007D02*
X90079Y-40007D01*
X90079Y-50796D02*
X90079Y-48275D01*
X87705Y-53169D02*
X90079Y-50796D01*
X90079Y-55542D02*
X87705Y-53169D01*
X90079Y-56543D02*
X90079Y-55542D01*
X87573Y-53037D02*
X83037Y-53037D01*
X87705Y-53169D02*
X87573Y-53037D01*
X91079Y-40007D02*
X91079Y-48275D01*
X91539Y-40007D02*
X91079Y-40007D01*
X91539Y-48275D02*
X91079Y-48275D01*
X91539Y-56543D02*
X91079Y-56543D01*
X91079Y-56543D02*
X91079Y-48275D01*
X83869Y-58680D02*
X83682Y-58494D01*
X88277Y-58680D02*
X83869Y-58680D01*
X88977Y-57980D02*
X88277Y-58680D01*
X92539Y-42275D02*
X92999Y-42275D01*
X93030Y-42244D02*
X92999Y-42275D01*
X93030Y-34038D02*
X93030Y-42244D01*
X92999Y-34007D02*
X93030Y-34038D01*
X92539Y-34007D02*
X92999Y-34007D01*
X92539Y-50543D02*
X92958Y-50543D01*
X92958Y-50543D02*
X93021Y-50543D01*
X93021Y-42297D02*
X92999Y-42275D01*
X93021Y-50543D02*
X93021Y-42297D01*
X94370Y-51891D02*
X93021Y-50543D01*
X94370Y-69324D02*
X94370Y-51891D01*
X92335Y-71359D02*
X94370Y-69324D01*
X81227Y-71359D02*
X92335Y-71359D01*
X81088Y-71220D02*
X81227Y-71359D01*
X79911Y-71220D02*
X81088Y-71220D01*
X79834Y-71297D02*
X79911Y-71220D01*
X78544Y-71297D02*
X79834Y-71297D01*
X78315Y-71068D02*
X78544Y-71297D01*
X78298Y-71068D02*
X78315Y-71068D01*
X91539Y-50543D02*
X91999Y-50543D01*
X91999Y-57659D02*
X91999Y-50543D01*
X94169Y-59829D02*
X91999Y-57659D01*
X94169Y-64274D02*
X94169Y-59829D01*
X92750Y-65694D02*
X94169Y-64274D01*
X92750Y-69927D02*
X92750Y-65694D01*
X91518Y-71159D02*
X92750Y-69927D01*
X82837Y-71159D02*
X91518Y-71159D01*
X82636Y-70958D02*
X82837Y-71159D01*
X79522Y-70958D02*
X82636Y-70958D01*
X89931Y-34615D02*
X90539Y-34007D01*
X89336Y-34615D02*
X89931Y-34615D01*
X89073Y-34352D02*
X89336Y-34615D01*
X89073Y-33682D02*
X89073Y-34352D01*
X89567Y-33189D02*
X89073Y-33682D01*
X92826Y-33189D02*
X89567Y-33189D01*
X94770Y-35132D02*
X92826Y-33189D01*
X94770Y-69527D02*
X94770Y-35132D01*
X92537Y-71759D02*
X94770Y-69527D01*
X88029Y-71759D02*
X92537Y-71759D01*
X87526Y-72261D02*
X88029Y-71759D01*
X79573Y-72261D02*
X87526Y-72261D01*
X79317Y-72005D02*
X79573Y-72261D01*
X89539Y-34007D02*
X89999Y-34007D01*
X89999Y-33754D02*
X89999Y-34007D01*
X90353Y-33401D02*
X89999Y-33754D01*
X92726Y-33401D02*
X90353Y-33401D01*
X94570Y-35245D02*
X92726Y-33401D01*
X94570Y-69414D02*
X94570Y-35245D01*
X92425Y-71559D02*
X94570Y-69414D01*
X80935Y-71559D02*
X92425Y-71559D01*
X83097Y-73696D02*
X83238Y-73555D01*
X80877Y-73696D02*
X83097Y-73696D01*
X67354Y-40551D02*
X69866Y-40551D01*
X72877Y-63311D02*
X72417Y-63311D01*
X38051Y-83783D02*
X38511Y-83783D01*
X53085Y-87385D02*
X55033Y-85437D01*
X40174Y-87385D02*
X53085Y-87385D01*
X39808Y-87019D02*
X40174Y-87385D01*
X39808Y-85540D02*
X39808Y-87019D01*
X38511Y-84243D02*
X39808Y-85540D01*
X38511Y-83783D02*
X38511Y-84243D01*
X72417Y-63771D02*
X72417Y-63311D01*
X72043Y-64145D02*
X72417Y-63771D01*
X67311Y-64145D02*
X72043Y-64145D01*
X66779Y-63613D02*
X67311Y-64145D01*
X66779Y-63017D02*
X66779Y-63613D01*
X66468Y-62706D02*
X66779Y-63017D01*
X66071Y-62706D02*
X66468Y-62706D01*
X65917Y-62860D02*
X66071Y-62706D01*
X65648Y-62860D02*
X65917Y-62860D01*
X65494Y-62706D02*
X65648Y-62860D01*
X65093Y-62706D02*
X65494Y-62706D01*
X64779Y-63020D02*
X65093Y-62706D01*
X64779Y-63610D02*
X64779Y-63020D01*
X61772Y-66618D02*
X64779Y-63610D01*
X57631Y-66618D02*
X61772Y-66618D01*
X57573Y-66675D02*
X57631Y-66618D01*
X30507Y-40007D02*
X30047Y-40007D01*
X30047Y-40266D02*
X30047Y-40007D01*
X28802Y-41511D02*
X30047Y-40266D01*
X25386Y-41511D02*
X28802Y-41511D01*
X21260Y-45637D02*
X25386Y-41511D01*
X20472Y-45637D02*
X21260Y-45637D01*
X19972Y-46137D02*
X20472Y-45637D01*
X29507Y-40007D02*
X29047Y-40007D01*
X29047Y-40266D02*
X29047Y-40007D01*
X28027Y-41287D02*
X29047Y-40266D01*
X25031Y-41287D02*
X28027Y-41287D01*
X21681Y-44637D02*
X25031Y-41287D01*
X20472Y-44637D02*
X21681Y-44637D01*
X19972Y-45137D02*
X20472Y-44637D01*
X20519Y-43590D02*
X19972Y-44137D01*
X22097Y-43590D02*
X20519Y-43590D01*
X24679Y-41008D02*
X22097Y-43590D01*
X27507Y-41008D02*
X24679Y-41008D01*
X28047Y-40467D02*
X27507Y-41008D01*
X28047Y-40007D02*
X28047Y-40467D01*
X28507Y-40007D02*
X28047Y-40007D01*
X25595Y-37183D02*
X27253Y-37183D01*
X23502Y-39276D02*
X25595Y-37183D01*
X23502Y-39891D02*
X23502Y-39276D01*
X21946Y-41447D02*
X23502Y-39891D01*
X21946Y-41803D02*
X21946Y-41447D01*
X21112Y-42637D02*
X21946Y-41803D01*
X20472Y-42637D02*
X21112Y-42637D01*
X19972Y-43137D02*
X20472Y-42637D01*
X20472Y-41637D02*
X19972Y-42137D01*
X21113Y-41637D02*
X20472Y-41637D01*
X21899Y-40852D02*
X21113Y-41637D01*
X21899Y-40216D02*
X21899Y-40852D01*
X27507Y-34607D02*
X21899Y-40216D01*
X27507Y-34007D02*
X27507Y-34607D01*
X28507Y-34007D02*
X28047Y-34007D01*
X20472Y-40637D02*
X19972Y-41137D01*
X21109Y-40637D02*
X20472Y-40637D01*
X26478Y-35267D02*
X21109Y-40637D01*
X26478Y-34234D02*
X26478Y-35267D01*
X27309Y-33404D02*
X26478Y-34234D01*
X27702Y-33404D02*
X27309Y-33404D01*
X28047Y-33749D02*
X27702Y-33404D01*
X28047Y-34007D02*
X28047Y-33749D01*
X29507Y-34007D02*
X29047Y-34007D01*
X20472Y-39637D02*
X19972Y-40137D01*
X21627Y-39637D02*
X20472Y-39637D01*
X26078Y-35186D02*
X21627Y-39637D01*
X26078Y-34343D02*
X26078Y-35186D01*
X27221Y-33200D02*
X26078Y-34343D01*
X28498Y-33200D02*
X27221Y-33200D01*
X29047Y-33749D02*
X28498Y-33200D01*
X29047Y-34007D02*
X29047Y-33749D01*
X20459Y-38650D02*
X19972Y-39137D01*
X20459Y-37982D02*
X20459Y-38650D01*
X25442Y-33000D02*
X20459Y-37982D01*
X29298Y-33000D02*
X25442Y-33000D01*
X30047Y-33749D02*
X29298Y-33000D01*
X30047Y-34007D02*
X30047Y-33749D01*
X30507Y-34007D02*
X30047Y-34007D01*
X19090Y-40020D02*
X19972Y-39137D01*
X19090Y-48907D02*
X19090Y-40020D01*
X19820Y-49637D02*
X19090Y-48907D01*
X20137Y-49637D02*
X19820Y-49637D01*
X20459Y-49959D02*
X20137Y-49637D01*
X20459Y-50312D02*
X20459Y-49959D01*
X20756Y-50610D02*
X20459Y-50312D01*
X25136Y-50610D02*
X20756Y-50610D01*
X28127Y-53601D02*
X25136Y-50610D01*
X28565Y-53601D02*
X28127Y-53601D01*
X28837Y-53330D02*
X28565Y-53601D01*
X28837Y-52680D02*
X28837Y-53330D01*
X27922Y-51765D02*
X28837Y-52680D01*
X27922Y-50455D02*
X27922Y-51765D01*
X28377Y-50000D02*
X27922Y-50455D01*
X44507Y-40007D02*
X44047Y-40007D01*
X25842Y-40311D02*
X24767Y-40311D01*
X27383Y-38771D02*
X25842Y-40311D01*
X43088Y-38771D02*
X27383Y-38771D01*
X44047Y-39730D02*
X43088Y-38771D01*
X44047Y-40007D02*
X44047Y-39730D01*
X45507Y-40007D02*
X45047Y-40007D01*
X27123Y-38571D02*
X25883Y-39811D01*
X43869Y-38571D02*
X27123Y-38571D01*
X45047Y-39749D02*
X43869Y-38571D01*
X45047Y-40007D02*
X45047Y-39749D01*
X46507Y-40007D02*
X46047Y-40007D01*
X23649Y-40970D02*
X23614Y-40970D01*
X24768Y-39851D02*
X23649Y-40970D01*
X25383Y-39851D02*
X24768Y-39851D01*
X26863Y-38371D02*
X25383Y-39851D01*
X44664Y-38371D02*
X26863Y-38371D01*
X46047Y-39754D02*
X44664Y-38371D01*
X46047Y-40007D02*
X46047Y-39754D01*
X46507Y-34007D02*
X46047Y-34007D01*
X46047Y-33749D02*
X46047Y-34007D01*
X44526Y-32227D02*
X46047Y-33749D01*
X40496Y-32227D02*
X44526Y-32227D01*
X39007Y-33716D02*
X40496Y-32227D01*
X39007Y-34301D02*
X39007Y-33716D01*
X36505Y-36804D02*
X39007Y-34301D01*
X25691Y-36804D02*
X36505Y-36804D01*
X22665Y-39830D02*
X25691Y-36804D01*
X22665Y-40444D02*
X22665Y-39830D01*
X20972Y-42137D02*
X22665Y-40444D01*
X45507Y-34007D02*
X45047Y-34007D01*
X45047Y-33749D02*
X45047Y-34007D01*
X44486Y-33187D02*
X45047Y-33749D01*
X40510Y-33187D02*
X44486Y-33187D01*
X40007Y-33690D02*
X40510Y-33187D01*
X40007Y-34321D02*
X40007Y-33690D01*
X37013Y-37315D02*
X40007Y-34321D01*
X27590Y-37315D02*
X37013Y-37315D01*
X27390Y-37515D02*
X27590Y-37315D01*
X26144Y-37515D02*
X27390Y-37515D01*
X24465Y-39194D02*
X26144Y-37515D01*
X24465Y-39588D02*
X24465Y-39194D01*
X24202Y-39851D02*
X24465Y-39588D01*
X23969Y-39851D02*
X24202Y-39851D01*
X22181Y-41639D02*
X23969Y-39851D01*
X22181Y-41928D02*
X22181Y-41639D01*
X20972Y-43137D02*
X22181Y-41928D01*
X43507Y-34007D02*
X43047Y-34007D01*
X43047Y-33749D02*
X43047Y-34007D01*
X42686Y-33388D02*
X43047Y-33749D01*
X41294Y-33388D02*
X42686Y-33388D01*
X40994Y-33688D02*
X41294Y-33388D01*
X40994Y-34314D02*
X40994Y-33688D01*
X37744Y-37564D02*
X40994Y-34314D01*
X27624Y-37564D02*
X37744Y-37564D01*
X27473Y-37715D02*
X27624Y-37564D01*
X26235Y-37715D02*
X27473Y-37715D01*
X24665Y-39285D02*
X26235Y-37715D01*
X24665Y-39670D02*
X24665Y-39285D01*
X24285Y-40051D02*
X24665Y-39670D01*
X24052Y-40051D02*
X24285Y-40051D01*
X22996Y-41107D02*
X24052Y-40051D01*
X22996Y-42182D02*
X22996Y-41107D01*
X22077Y-43102D02*
X22996Y-42182D01*
X41119Y-39395D02*
X40507Y-40007D01*
X41709Y-39395D02*
X41119Y-39395D01*
X41970Y-39656D02*
X41709Y-39395D01*
X41970Y-40356D02*
X41970Y-39656D01*
X40157Y-42169D02*
X41970Y-40356D01*
X40157Y-43296D02*
X40157Y-42169D01*
X38278Y-45175D02*
X40157Y-43296D01*
X36190Y-45175D02*
X38278Y-45175D01*
X35997Y-45368D02*
X36190Y-45175D01*
X35997Y-47302D02*
X35997Y-45368D01*
X28661Y-54637D02*
X35997Y-47302D01*
X20472Y-54637D02*
X28661Y-54637D01*
X19972Y-55137D02*
X20472Y-54637D01*
X20441Y-53669D02*
X19972Y-54137D01*
X22074Y-53669D02*
X20441Y-53669D01*
X22607Y-54202D02*
X22074Y-53669D01*
X28814Y-54202D02*
X22607Y-54202D01*
X35797Y-47219D02*
X28814Y-54202D01*
X35797Y-45274D02*
X35797Y-47219D01*
X36619Y-44452D02*
X35797Y-45274D01*
X37000Y-44452D02*
X36619Y-44452D01*
X38157Y-43295D02*
X37000Y-44452D01*
X38157Y-42672D02*
X38157Y-43295D01*
X38600Y-42229D02*
X38157Y-42672D01*
X39084Y-42229D02*
X38600Y-42229D01*
X41047Y-40266D02*
X39084Y-42229D01*
X41047Y-40007D02*
X41047Y-40266D01*
X41507Y-40007D02*
X41047Y-40007D01*
X42507Y-40624D02*
X42507Y-40007D01*
X41157Y-41974D02*
X42507Y-40624D01*
X41157Y-43286D02*
X41157Y-41974D01*
X39056Y-45388D02*
X41157Y-43286D01*
X36261Y-45388D02*
X39056Y-45388D01*
X36197Y-45451D02*
X36261Y-45388D01*
X36197Y-47385D02*
X36197Y-45451D01*
X28444Y-55137D02*
X36197Y-47385D01*
X20972Y-55137D02*
X28444Y-55137D01*
X43047Y-39757D02*
X43047Y-40007D01*
X42485Y-39194D02*
X43047Y-39757D01*
X40502Y-39194D02*
X42485Y-39194D01*
X40007Y-39689D02*
X40502Y-39194D01*
X40007Y-40324D02*
X40007Y-39689D01*
X39570Y-40761D02*
X40007Y-40324D01*
X39075Y-40761D02*
X39570Y-40761D01*
X37170Y-42666D02*
X39075Y-40761D01*
X37170Y-43590D02*
X37170Y-42666D01*
X35483Y-45277D02*
X37170Y-43590D01*
X35483Y-45683D02*
X35483Y-45277D01*
X35231Y-45935D02*
X35483Y-45683D01*
X33967Y-45935D02*
X35231Y-45935D01*
X33392Y-45360D02*
X33967Y-45935D01*
X28963Y-45360D02*
X33392Y-45360D01*
X28593Y-45729D02*
X28963Y-45360D01*
X28593Y-45988D02*
X28593Y-45729D01*
X28133Y-45988D02*
X28593Y-45988D01*
X43507Y-40007D02*
X43047Y-40007D01*
X39507Y-40007D02*
X39047Y-40007D01*
X33697Y-43933D02*
X30593Y-43933D01*
X35343Y-42287D02*
X33697Y-43933D01*
X37020Y-42287D02*
X35343Y-42287D01*
X39047Y-40261D02*
X37020Y-42287D01*
X39047Y-40007D02*
X39047Y-40261D01*
X31133Y-42988D02*
X31593Y-42988D01*
X38507Y-40007D02*
X38047Y-40007D01*
X31593Y-42729D02*
X31593Y-42988D01*
X32035Y-42287D02*
X31593Y-42729D01*
X34960Y-42287D02*
X32035Y-42287D01*
X35160Y-42087D02*
X34960Y-42287D01*
X36220Y-42087D02*
X35160Y-42087D01*
X38047Y-40261D02*
X36220Y-42087D01*
X38047Y-40007D02*
X38047Y-40261D01*
X37047Y-40261D02*
X37047Y-40007D01*
X36510Y-40798D02*
X37047Y-40261D01*
X35791Y-40798D02*
X36510Y-40798D01*
X34501Y-42087D02*
X35791Y-40798D01*
X30235Y-42087D02*
X34501Y-42087D01*
X29593Y-42729D02*
X30235Y-42087D01*
X29593Y-42988D02*
X29593Y-42729D01*
X29133Y-42988D02*
X29593Y-42988D01*
X37507Y-40007D02*
X37047Y-40007D01*
X27133Y-42988D02*
X27593Y-42988D01*
X36507Y-40007D02*
X36047Y-40007D01*
X27593Y-42731D02*
X27593Y-42988D01*
X28521Y-41804D02*
X27593Y-42731D01*
X34501Y-41804D02*
X28521Y-41804D01*
X36047Y-40258D02*
X34501Y-41804D01*
X36047Y-40007D02*
X36047Y-40258D01*
X88476Y-76696D02*
X88016Y-76696D01*
X71877Y-76696D02*
X72338Y-76696D01*
X55169Y-69047D02*
X54709Y-69047D01*
X71877Y-76696D02*
X71417Y-76696D01*
X72338Y-76955D02*
X72338Y-76696D01*
X73044Y-77661D02*
X72338Y-76955D01*
X73990Y-77661D02*
X73044Y-77661D01*
X74099Y-77770D02*
X73990Y-77661D01*
X83218Y-77770D02*
X74099Y-77770D01*
X83399Y-77951D02*
X83218Y-77770D01*
X88016Y-77122D02*
X88016Y-76696D01*
X87187Y-77951D02*
X88016Y-77122D01*
X83399Y-77951D02*
X87187Y-77951D01*
X31507Y-40007D02*
X31967Y-40007D01*
X31967Y-39754D02*
X31967Y-40007D01*
X32728Y-38994D02*
X31967Y-39754D01*
X42802Y-38994D02*
X32728Y-38994D01*
X42910Y-39101D02*
X42802Y-38994D01*
X49707Y-68705D02*
X49707Y-72802D01*
X50311Y-68100D02*
X49707Y-68705D01*
X54050Y-68100D02*
X50311Y-68100D01*
X54709Y-68759D02*
X54050Y-68100D01*
X54709Y-69047D02*
X54709Y-68759D01*
X48108Y-75950D02*
X47699Y-75950D01*
X48709Y-75350D02*
X48108Y-75950D01*
X48709Y-73800D02*
X48709Y-75350D01*
X49707Y-72802D02*
X48709Y-73800D01*
X55915Y-57343D02*
X55629Y-57629D01*
X61636Y-57343D02*
X55915Y-57343D01*
X62141Y-56838D02*
X61636Y-57343D01*
X62141Y-56247D02*
X62141Y-56838D01*
X62464Y-55924D02*
X62141Y-56247D01*
X63850Y-55924D02*
X62464Y-55924D01*
X64181Y-56255D02*
X63850Y-55924D01*
X64181Y-56543D02*
X64181Y-56255D01*
X64641Y-56543D02*
X64181Y-56543D01*
X55169Y-57629D02*
X55629Y-57629D01*
X70467Y-75746D02*
X71417Y-76696D01*
X68277Y-75746D02*
X70467Y-75746D01*
X68242Y-75782D02*
X68277Y-75746D01*
X61719Y-75782D02*
X68242Y-75782D01*
X60858Y-76643D02*
X61719Y-75782D01*
X55577Y-76643D02*
X60858Y-76643D01*
X55240Y-76306D02*
X55577Y-76643D01*
X54607Y-76306D02*
X55240Y-76306D01*
X53656Y-75355D02*
X54607Y-76306D01*
X53656Y-74729D02*
X53656Y-75355D01*
X51729Y-72802D02*
X53656Y-74729D01*
X49707Y-72802D02*
X51729Y-72802D01*
X74417Y-63561D02*
X74417Y-63311D01*
X74068Y-63911D02*
X74417Y-63561D01*
X73011Y-63911D02*
X74068Y-63911D01*
X72476Y-64445D02*
X73011Y-63911D01*
X66173Y-64445D02*
X72476Y-64445D01*
X64322Y-66296D02*
X66173Y-64445D01*
X64322Y-66926D02*
X64322Y-66296D01*
X63465Y-67783D02*
X64322Y-66926D01*
X58909Y-67783D02*
X63465Y-67783D01*
X58814Y-67688D02*
X58909Y-67783D01*
X48733Y-67688D02*
X58814Y-67688D01*
X47669Y-68752D02*
X48733Y-67688D01*
X47669Y-69343D02*
X47669Y-68752D01*
X45346Y-71666D02*
X47669Y-69343D01*
X36898Y-71666D02*
X45346Y-71666D01*
X74877Y-63311D02*
X74417Y-63311D01*
X41169Y-57629D02*
X40709Y-57629D01*
X26133Y-45988D02*
X26593Y-45988D01*
X85326Y-61995D02*
X85675Y-62344D01*
X80769Y-61995D02*
X85326Y-61995D01*
X79377Y-60604D02*
X80769Y-61995D01*
X79377Y-60017D02*
X79377Y-60604D01*
X76994Y-57634D02*
X79377Y-60017D01*
X75648Y-57634D02*
X76994Y-57634D01*
X27163Y-45160D02*
X33755Y-45160D01*
X26593Y-45729D02*
X27163Y-45160D01*
X26593Y-45988D02*
X26593Y-45729D01*
X70641Y-50543D02*
X70181Y-50543D01*
X40709Y-57629D02*
X40709Y-57376D01*
X38406Y-55074D02*
X34643Y-55074D01*
X40709Y-57376D02*
X38406Y-55074D01*
X44835Y-53249D02*
X40709Y-57376D01*
X62728Y-53249D02*
X44835Y-53249D01*
X65141Y-50836D02*
X62728Y-53249D01*
X65141Y-50237D02*
X65141Y-50836D01*
X65436Y-49942D02*
X65141Y-50237D01*
X68851Y-49942D02*
X65436Y-49942D01*
X69141Y-50232D02*
X68851Y-49942D01*
X69141Y-50860D02*
X69141Y-50232D01*
X69441Y-51160D02*
X69141Y-50860D01*
X69823Y-51160D02*
X69441Y-51160D01*
X70181Y-50802D02*
X69823Y-51160D01*
X70181Y-50543D02*
X70181Y-50802D01*
X30584Y-77377D02*
X20972Y-77377D01*
X33027Y-74934D02*
X30584Y-77377D01*
X33027Y-74334D02*
X33027Y-74934D01*
X32633Y-62917D02*
X32633Y-63517D01*
X21546Y-68142D02*
X20972Y-68716D01*
X21546Y-68142D02*
X21546Y-68142D01*
X28008Y-68142D02*
X21546Y-68142D01*
X32633Y-63517D02*
X28008Y-68142D01*
X59523Y-32964D02*
X59523Y-33964D01*
X24991Y-76377D02*
X20972Y-76377D01*
X26487Y-74881D02*
X24991Y-76377D01*
X26487Y-74082D02*
X26487Y-74881D01*
X26842Y-73727D02*
X26487Y-74082D01*
X31219Y-73727D02*
X26842Y-73727D01*
X31567Y-74075D02*
X31219Y-73727D01*
X31567Y-74334D02*
X31567Y-74075D01*
X32027Y-74334D02*
X31567Y-74334D01*
X24499Y-64189D02*
X20972Y-67716D01*
X30160Y-64189D02*
X24499Y-64189D01*
X31173Y-63176D02*
X30160Y-64189D01*
X31173Y-62917D02*
X31173Y-63176D01*
X31633Y-62917D02*
X31173Y-62917D01*
X71877Y-63311D02*
X71417Y-63311D01*
X44051Y-80783D02*
X44511Y-80783D01*
X90476Y-76696D02*
X90936Y-76696D01*
X44511Y-81042D02*
X44511Y-80783D01*
X45216Y-81747D02*
X44511Y-81042D01*
X58742Y-81747D02*
X45216Y-81747D01*
X59385Y-81103D02*
X58742Y-81747D01*
X59385Y-80445D02*
X59385Y-81103D01*
X59684Y-80147D02*
X59385Y-80445D01*
X62242Y-80147D02*
X59684Y-80147D01*
X62417Y-79972D02*
X62242Y-80147D01*
X69924Y-79972D02*
X62417Y-79972D01*
X71369Y-81416D02*
X69924Y-79972D01*
X79042Y-81416D02*
X71369Y-81416D01*
X79377Y-81081D02*
X79042Y-81416D01*
X79377Y-80485D02*
X79377Y-81081D01*
X79691Y-80171D02*
X79377Y-80485D01*
X81080Y-80171D02*
X79691Y-80171D01*
X81508Y-80600D02*
X81080Y-80171D01*
X81508Y-81034D02*
X81508Y-80600D01*
X82415Y-81940D02*
X81508Y-81034D01*
X93716Y-81940D02*
X82415Y-81940D01*
X94414Y-81242D02*
X93716Y-81940D01*
X94414Y-79168D02*
X94414Y-81242D01*
X92963Y-77716D02*
X94414Y-79168D01*
X92963Y-76391D02*
X92963Y-77716D01*
X92668Y-76096D02*
X92963Y-76391D01*
X92272Y-76096D02*
X92668Y-76096D01*
X91976Y-76393D02*
X92272Y-76096D01*
X91976Y-77007D02*
X91976Y-76393D01*
X91678Y-77304D02*
X91976Y-77007D01*
X91291Y-77304D02*
X91678Y-77304D01*
X90936Y-76950D02*
X91291Y-77304D01*
X90936Y-76696D02*
X90936Y-76950D01*
X70783Y-63945D02*
X71417Y-63311D01*
X68081Y-63945D02*
X70783Y-63945D01*
X67766Y-63630D02*
X68081Y-63945D01*
X67766Y-62988D02*
X67766Y-63630D01*
X66941Y-62164D02*
X67766Y-62988D01*
X63392Y-62164D02*
X66941Y-62164D01*
X63248Y-62308D02*
X63392Y-62164D01*
X62979Y-62308D02*
X63248Y-62308D01*
X62708Y-62036D02*
X62979Y-62308D01*
X55848Y-62036D02*
X62708Y-62036D01*
X55578Y-62306D02*
X55848Y-62036D01*
X54665Y-62306D02*
X55578Y-62306D01*
X53629Y-63342D02*
X54665Y-62306D01*
X53629Y-63629D02*
X53629Y-63342D01*
X53169Y-63629D02*
X53629Y-63629D01*
X22209Y-33070D02*
X21422Y-33858D01*
X22728Y-33070D02*
X22209Y-33070D01*
X20972Y-33858D02*
X21197Y-33858D01*
X21197Y-33858D02*
X21422Y-33858D01*
X18885Y-56050D02*
X19972Y-57137D01*
X18885Y-36170D02*
X18885Y-56050D01*
X21197Y-33858D02*
X18885Y-36170D01*
X29237Y-49285D02*
X28377Y-48425D01*
X29237Y-53495D02*
X29237Y-49285D01*
X28731Y-54002D02*
X29237Y-53495D01*
X24299Y-54002D02*
X28731Y-54002D01*
X22947Y-52650D02*
X24299Y-54002D01*
X20485Y-52650D02*
X22947Y-52650D01*
X19972Y-52137D02*
X20485Y-52650D01*
X31518Y-43603D02*
X32133Y-42988D01*
X26951Y-43603D02*
X31518Y-43603D01*
X26646Y-43298D02*
X26951Y-43603D01*
X26646Y-42680D02*
X26646Y-43298D01*
X26335Y-42369D02*
X26646Y-42680D01*
X24879Y-42369D02*
X26335Y-42369D01*
X21561Y-45688D02*
X24879Y-42369D01*
X21561Y-46187D02*
X21561Y-45688D01*
X21124Y-46624D02*
X21561Y-46187D01*
X19795Y-46624D02*
X21124Y-46624D01*
X19307Y-47112D02*
X19795Y-46624D01*
X19307Y-48472D02*
X19307Y-47112D01*
X19972Y-49137D02*
X19307Y-48472D01*
X60952Y-77767D02*
X60885Y-77834D01*
X70028Y-77767D02*
X60952Y-77767D01*
X70122Y-77862D02*
X70028Y-77767D01*
X73908Y-77862D02*
X70122Y-77862D01*
X74016Y-77970D02*
X73908Y-77862D01*
X81991Y-77970D02*
X74016Y-77970D01*
X82310Y-78288D02*
X81991Y-77970D01*
X87686Y-78288D02*
X82310Y-78288D01*
X88962Y-77012D02*
X87686Y-78288D01*
X88962Y-76384D02*
X88962Y-77012D01*
X88670Y-76092D02*
X88962Y-76384D01*
X88080Y-76092D02*
X88670Y-76092D01*
X87476Y-76696D02*
X88080Y-76092D01*
X48169Y-73150D02*
X48169Y-69047D01*
X46682Y-74637D02*
X48169Y-73150D01*
X46682Y-75404D02*
X46682Y-74637D01*
X49111Y-77834D02*
X46682Y-75404D01*
X60885Y-77834D02*
X49111Y-77834D01*
X88539Y-48275D02*
X88079Y-48275D01*
X87572Y-51374D02*
X88029Y-51374D01*
X87039Y-50841D02*
X87572Y-51374D01*
X87039Y-49775D02*
X87039Y-50841D01*
X88079Y-48735D02*
X87039Y-49775D01*
X88079Y-48275D02*
X88079Y-48735D01*
X70661Y-49523D02*
X69641Y-50543D01*
X84335Y-49523D02*
X70661Y-49523D01*
X85039Y-50226D02*
X84335Y-49523D01*
X85039Y-50837D02*
X85039Y-50226D01*
X85347Y-51146D02*
X85039Y-50837D01*
X86734Y-51146D02*
X85347Y-51146D01*
X87039Y-50841D02*
X86734Y-51146D01*
X88539Y-40007D02*
X88999Y-40007D01*
X88999Y-42757D02*
X88999Y-40007D01*
X88742Y-43014D02*
X88999Y-42757D01*
X48169Y-57629D02*
X48399Y-57629D01*
X39993Y-59008D02*
X37085Y-59008D01*
X40180Y-58821D02*
X39993Y-59008D01*
X47207Y-58821D02*
X40180Y-58821D01*
X48399Y-57629D02*
X47207Y-58821D01*
X48399Y-57531D02*
X48399Y-57629D01*
X50775Y-55155D02*
X48399Y-57531D01*
X53347Y-55155D02*
X50775Y-55155D01*
X54523Y-53978D02*
X53347Y-55155D01*
X65388Y-53978D02*
X54523Y-53978D01*
X67550Y-51816D02*
X65388Y-53978D01*
X87076Y-57606D02*
X85876Y-57606D01*
X87539Y-57143D02*
X87076Y-57606D01*
X87539Y-56543D02*
X87539Y-57143D01*
X88167Y-47647D02*
X87539Y-48275D01*
X87999Y-47480D02*
X87999Y-40007D01*
X88167Y-47647D02*
X87999Y-47480D01*
X87539Y-40007D02*
X87999Y-40007D01*
X49169Y-69047D02*
X49169Y-68447D01*
X57654Y-67889D02*
X58564Y-68799D01*
X49727Y-67889D02*
X57654Y-67889D01*
X49169Y-68447D02*
X49727Y-67889D01*
X88710Y-47647D02*
X88167Y-47647D01*
X89002Y-47939D02*
X88710Y-47647D01*
X89002Y-50873D02*
X89002Y-47939D01*
X88123Y-51752D02*
X89002Y-50873D01*
X87638Y-51752D02*
X88123Y-51752D01*
X68641Y-50543D02*
X68641Y-51143D01*
X49169Y-57629D02*
X49629Y-57629D01*
X48709Y-57883D02*
X48709Y-57629D01*
X47555Y-59036D02*
X48709Y-57883D01*
X40452Y-59036D02*
X47555Y-59036D01*
X40130Y-59358D02*
X40452Y-59036D01*
X36026Y-59358D02*
X40130Y-59358D01*
X35994Y-59326D02*
X36026Y-59358D01*
X49169Y-57629D02*
X48709Y-57629D01*
X65661Y-54503D02*
X68831Y-51333D01*
X55849Y-54503D02*
X65661Y-54503D01*
X54362Y-55990D02*
X55849Y-54503D01*
X51003Y-55990D02*
X54362Y-55990D01*
X49629Y-57365D02*
X51003Y-55990D01*
X49629Y-57629D02*
X49629Y-57365D01*
X68641Y-51143D02*
X68831Y-51333D01*
X84929Y-51752D02*
X87638Y-51752D01*
X84039Y-50862D02*
X84929Y-51752D01*
X84039Y-50245D02*
X84039Y-50862D01*
X83521Y-49728D02*
X84039Y-50245D01*
X71664Y-49728D02*
X83521Y-49728D01*
X71141Y-50250D02*
X71664Y-49728D01*
X71141Y-50842D02*
X71141Y-50250D01*
X70623Y-51360D02*
X71141Y-50842D01*
X68859Y-51360D02*
X70623Y-51360D01*
X68831Y-51333D02*
X68859Y-51360D01*
X86999Y-34261D02*
X86999Y-34007D01*
X91723Y-38985D02*
X86999Y-34261D01*
X92510Y-38985D02*
X91723Y-38985D01*
X86539Y-34007D02*
X86999Y-34007D01*
X77877Y-80783D02*
X78338Y-80783D01*
X78338Y-80524D02*
X78338Y-80783D01*
X78891Y-79971D02*
X78338Y-80524D01*
X81163Y-79971D02*
X78891Y-79971D01*
X82021Y-80829D02*
X81163Y-79971D01*
X82021Y-81255D02*
X82021Y-80829D01*
X82495Y-81730D02*
X82021Y-81255D01*
X93643Y-81730D02*
X82495Y-81730D01*
X94188Y-81184D02*
X93643Y-81730D01*
X94188Y-79410D02*
X94188Y-81184D01*
X94088Y-79310D02*
X94188Y-79410D01*
X84999Y-34467D02*
X84999Y-34007D01*
X87000Y-36469D02*
X84999Y-34467D01*
X87000Y-40352D02*
X87000Y-36469D01*
X86655Y-40698D02*
X87000Y-40352D01*
X86024Y-40698D02*
X86655Y-40698D01*
X85047Y-41675D02*
X86024Y-40698D01*
X84539Y-41675D02*
X85047Y-41675D01*
X84539Y-42275D02*
X84539Y-41675D01*
X84539Y-34007D02*
X84999Y-34007D01*
X86263Y-69610D02*
X85803Y-69610D01*
X75240Y-69610D02*
X75700Y-69610D01*
X79417Y-83530D02*
X79417Y-83783D01*
X78156Y-82269D02*
X79417Y-83530D01*
X72662Y-82269D02*
X78156Y-82269D01*
X79877Y-83783D02*
X79417Y-83783D01*
X84657Y-68463D02*
X85803Y-69610D01*
X78501Y-68463D02*
X84657Y-68463D01*
X78409Y-68555D02*
X78501Y-68463D01*
X76495Y-68555D02*
X78409Y-68555D01*
X75700Y-69351D02*
X76495Y-68555D01*
X75700Y-69610D02*
X75700Y-69351D01*
X69635Y-71641D02*
X69609Y-71615D01*
X74292Y-71641D02*
X69635Y-71641D01*
X74318Y-71614D02*
X74292Y-71641D01*
X87263Y-66610D02*
X86803Y-66610D01*
X76240Y-66610D02*
X76700Y-66610D01*
X77630Y-67793D02*
X78108Y-67793D01*
X76700Y-66863D02*
X77630Y-67793D01*
X76700Y-66610D02*
X76700Y-66863D01*
X86803Y-66897D02*
X86803Y-66610D01*
X85872Y-67829D02*
X86803Y-66897D01*
X78144Y-67829D02*
X85872Y-67829D01*
X78108Y-67793D02*
X78144Y-67829D01*
X88263Y-66610D02*
X87803Y-66610D01*
X77240Y-66610D02*
X77700Y-66610D01*
X75877Y-83783D02*
X76338Y-83783D01*
X87803Y-66351D02*
X87803Y-66610D01*
X87429Y-65977D02*
X87803Y-66351D01*
X84737Y-65977D02*
X87429Y-65977D01*
X83085Y-67629D02*
X84737Y-65977D01*
X78433Y-67629D02*
X83085Y-67629D01*
X77700Y-66895D02*
X78433Y-67629D01*
X77700Y-66610D02*
X77700Y-66895D01*
X76338Y-84036D02*
X76338Y-83783D01*
X77300Y-84999D02*
X76338Y-84036D01*
X78750Y-84999D02*
X77300Y-84999D01*
X79921Y-86170D02*
X78750Y-84999D01*
X79921Y-87050D02*
X79921Y-86170D01*
X80435Y-87564D02*
X79921Y-87050D01*
X91425Y-87564D02*
X80435Y-87564D01*
X93998Y-84991D02*
X91425Y-87564D01*
X93998Y-81942D02*
X93998Y-84991D01*
X94616Y-81324D02*
X93998Y-81942D01*
X94616Y-76912D02*
X94616Y-81324D01*
X91976Y-74272D02*
X94616Y-76912D01*
X91976Y-73401D02*
X91976Y-74272D01*
X91184Y-72609D02*
X91976Y-73401D01*
X88193Y-72609D02*
X91184Y-72609D01*
X88148Y-72564D02*
X88193Y-72609D01*
X73877Y-83783D02*
X74338Y-83783D01*
X88803Y-66357D02*
X88803Y-66610D01*
X88223Y-65777D02*
X88803Y-66357D01*
X84418Y-65777D02*
X88223Y-65777D01*
X82766Y-67429D02*
X84418Y-65777D01*
X79260Y-67429D02*
X82766Y-67429D01*
X78700Y-66869D02*
X79260Y-67429D01*
X78700Y-66610D02*
X78700Y-66869D01*
X78240Y-66610D02*
X78700Y-66610D01*
X89263Y-66610D02*
X88803Y-66610D01*
X74338Y-84036D02*
X74338Y-83783D01*
X75890Y-85589D02*
X74338Y-84036D01*
X78338Y-85589D02*
X75890Y-85589D01*
X78921Y-86172D02*
X78338Y-85589D01*
X78921Y-87062D02*
X78921Y-86172D01*
X79637Y-87778D02*
X78921Y-87062D01*
X91494Y-87778D02*
X79637Y-87778D01*
X94398Y-84874D02*
X91494Y-87778D01*
X94398Y-81824D02*
X94398Y-84874D01*
X94819Y-81404D02*
X94398Y-81824D01*
X94819Y-76205D02*
X94819Y-81404D01*
X93000Y-74387D02*
X94819Y-76205D01*
X93000Y-73429D02*
X93000Y-74387D01*
X91855Y-72284D02*
X93000Y-73429D01*
X88803Y-72284D02*
X91855Y-72284D01*
X86539Y-56543D02*
X86539Y-55943D01*
X50169Y-57629D02*
X50629Y-57629D01*
X86539Y-54907D02*
X86539Y-55943D01*
X85538Y-53906D02*
X86539Y-54907D01*
X50629Y-69336D02*
X50629Y-69047D01*
X57035Y-75742D02*
X50629Y-69336D01*
X60997Y-75742D02*
X57035Y-75742D01*
X61070Y-75815D02*
X60997Y-75742D01*
X50169Y-69047D02*
X50629Y-69047D01*
X85413Y-53781D02*
X85538Y-53906D01*
X76273Y-53781D02*
X85413Y-53781D01*
X74013Y-56041D02*
X76273Y-53781D01*
X74013Y-57028D02*
X74013Y-56041D01*
X73511Y-57530D02*
X74013Y-57028D01*
X73235Y-57530D02*
X73511Y-57530D01*
X73027Y-57322D02*
X73235Y-57530D01*
X73027Y-57066D02*
X73027Y-57322D01*
X73104Y-56989D02*
X73027Y-57066D01*
X73104Y-56213D02*
X73104Y-56989D01*
X71957Y-55066D02*
X73104Y-56213D01*
X57999Y-55066D02*
X71957Y-55066D01*
X57962Y-55103D02*
X57999Y-55066D01*
X57430Y-55103D02*
X57962Y-55103D01*
X57180Y-55354D02*
X57430Y-55103D01*
X55565Y-55354D02*
X57180Y-55354D01*
X54728Y-56190D02*
X55565Y-55354D01*
X51780Y-56190D02*
X54728Y-56190D01*
X50629Y-57342D02*
X51780Y-56190D01*
X50629Y-57629D02*
X50629Y-57342D01*
X52937Y-39688D02*
X53397Y-39688D01*
X85539Y-40007D02*
X85079Y-40007D01*
X77311Y-41653D02*
X76610Y-42354D01*
X80508Y-41653D02*
X77311Y-41653D01*
X81339Y-40822D02*
X80508Y-41653D01*
X84523Y-40822D02*
X81339Y-40822D01*
X85079Y-40266D02*
X84523Y-40822D01*
X85079Y-40007D02*
X85079Y-40266D01*
X85539Y-48275D02*
X85079Y-48275D01*
X85539Y-56543D02*
X85079Y-56543D01*
X76018Y-41762D02*
X76610Y-42354D01*
X62612Y-41762D02*
X76018Y-41762D01*
X61845Y-40996D02*
X62612Y-41762D01*
X54445Y-40996D02*
X61845Y-40996D01*
X53397Y-39947D02*
X54445Y-40996D01*
X53397Y-39688D02*
X53397Y-39947D01*
X83482Y-54688D02*
X78422Y-54688D01*
X85079Y-56284D02*
X83482Y-54688D01*
X85079Y-56543D02*
X85079Y-56284D01*
X90476Y-73696D02*
X90016Y-73696D01*
X84127Y-47070D02*
X76986Y-47070D01*
X85079Y-48022D02*
X84127Y-47070D01*
X85079Y-48275D02*
X85079Y-48022D01*
X76610Y-46694D02*
X76986Y-47070D01*
X76610Y-42354D02*
X76610Y-46694D01*
X69296Y-74640D02*
X69193Y-74537D01*
X89323Y-74640D02*
X69296Y-74640D01*
X90016Y-73947D02*
X89323Y-74640D01*
X90016Y-73696D02*
X90016Y-73947D01*
X84539Y-40007D02*
X84079Y-40007D01*
X83717Y-40622D02*
X81070Y-40622D01*
X84079Y-40261D02*
X83717Y-40622D01*
X84079Y-40007D02*
X84079Y-40261D01*
X80239Y-41452D02*
X81070Y-40622D01*
X72917Y-41452D02*
X80239Y-41452D01*
X72808Y-41562D02*
X72917Y-41452D01*
X63620Y-41562D02*
X72808Y-41562D01*
X62629Y-40571D02*
X63620Y-41562D01*
X57226Y-40571D02*
X62629Y-40571D01*
X66885Y-83783D02*
X67345Y-83783D01*
X67345Y-84072D02*
X67345Y-83783D01*
X67880Y-84607D02*
X67345Y-84072D01*
X71362Y-84607D02*
X67880Y-84607D01*
X72921Y-86166D02*
X71362Y-84607D01*
X72921Y-87055D02*
X72921Y-86166D01*
X73861Y-87995D02*
X72921Y-87055D01*
X91561Y-87995D02*
X73861Y-87995D01*
X95224Y-84332D02*
X91561Y-87995D01*
X95224Y-73284D02*
X95224Y-84332D01*
X93899Y-71959D02*
X95224Y-73284D01*
X88275Y-71959D02*
X93899Y-71959D01*
X87476Y-72758D02*
X88275Y-71959D01*
X87476Y-73696D02*
X87476Y-72758D01*
X81070Y-33658D02*
X81070Y-40622D01*
X81739Y-32989D02*
X81070Y-33658D01*
X92909Y-32989D02*
X81739Y-32989D01*
X94970Y-35050D02*
X92909Y-32989D01*
X94970Y-70888D02*
X94970Y-35050D01*
X93899Y-71959D02*
X94970Y-70888D01*
X83539Y-56543D02*
X83999Y-56543D01*
X36657Y-45988D02*
X37117Y-45988D01*
X83539Y-48275D02*
X83079Y-48275D01*
X83079Y-48528D02*
X83079Y-48275D01*
X82284Y-49323D02*
X83079Y-48528D01*
X58261Y-49323D02*
X82284Y-49323D01*
X58073Y-49510D02*
X58261Y-49323D01*
X54913Y-49510D02*
X58073Y-49510D01*
X53608Y-48205D02*
X54913Y-49510D01*
X39075Y-48205D02*
X53608Y-48205D01*
X37117Y-46247D02*
X39075Y-48205D01*
X37117Y-45988D02*
X37117Y-46247D01*
X85544Y-58347D02*
X85955Y-58347D01*
X83999Y-56802D02*
X85544Y-58347D01*
X83999Y-56543D02*
X83999Y-56802D01*
X62880Y-72148D02*
X62714Y-71983D01*
X75562Y-72148D02*
X62880Y-72148D01*
X76283Y-72869D02*
X75562Y-72148D01*
X85447Y-72869D02*
X76283Y-72869D01*
X86016Y-73438D02*
X85447Y-72869D01*
X86016Y-73696D02*
X86016Y-73438D01*
X86476Y-73696D02*
X86016Y-73696D01*
X37657Y-45988D02*
X38117Y-45988D01*
X82539Y-48275D02*
X82079Y-48275D01*
X93476Y-73696D02*
X93476Y-74296D01*
X82539Y-56543D02*
X82539Y-55943D01*
X83004Y-43151D02*
X82853Y-43302D01*
X83004Y-41840D02*
X83004Y-43151D01*
X82705Y-41540D02*
X83004Y-41840D01*
X73523Y-49123D02*
X73398Y-48998D01*
X81484Y-49123D02*
X73523Y-49123D01*
X82079Y-48528D02*
X81484Y-49123D01*
X82079Y-48275D02*
X82079Y-48528D01*
X56429Y-49215D02*
X56458Y-49185D01*
X54901Y-49215D02*
X56429Y-49215D01*
X53691Y-48005D02*
X54901Y-49215D01*
X39875Y-48005D02*
X53691Y-48005D01*
X38117Y-46247D02*
X39875Y-48005D01*
X38117Y-45988D02*
X38117Y-46247D01*
X58303Y-48998D02*
X73398Y-48998D01*
X58115Y-49185D02*
X58303Y-48998D01*
X56458Y-49185D02*
X58115Y-49185D01*
X76224Y-55138D02*
X76039Y-55324D01*
X81735Y-55138D02*
X76224Y-55138D01*
X82539Y-55943D02*
X81735Y-55138D01*
X95019Y-81664D02*
X94723Y-81959D01*
X95019Y-75839D02*
X95019Y-81664D01*
X93476Y-74296D02*
X95019Y-75839D01*
X92476Y-76696D02*
X92476Y-77296D01*
X91281Y-78491D02*
X92476Y-77296D01*
X82230Y-78491D02*
X91281Y-78491D01*
X81909Y-78170D02*
X82230Y-78491D01*
X73933Y-78170D02*
X81909Y-78170D01*
X73825Y-78062D02*
X73933Y-78170D01*
X61434Y-78062D02*
X73825Y-78062D01*
X61400Y-78096D02*
X61434Y-78062D01*
X81539Y-48275D02*
X81079Y-48275D01*
X76369Y-48886D02*
X76281Y-48798D01*
X80721Y-48886D02*
X76369Y-48886D01*
X81079Y-48528D02*
X80721Y-48886D01*
X81079Y-48275D02*
X81079Y-48528D01*
X38657Y-45988D02*
X39117Y-45988D01*
X55871Y-48860D02*
X57926Y-48860D01*
X55719Y-49013D02*
X55871Y-48860D01*
X55211Y-49013D02*
X55719Y-49013D01*
X53563Y-47364D02*
X55211Y-49013D01*
X40234Y-47364D02*
X53563Y-47364D01*
X39117Y-46247D02*
X40234Y-47364D01*
X39117Y-45988D02*
X39117Y-46247D01*
X76156Y-48673D02*
X76281Y-48798D01*
X58114Y-48673D02*
X76156Y-48673D01*
X57926Y-48860D02*
X58114Y-48673D01*
X81078Y-42793D02*
X81334Y-43049D01*
X81078Y-41669D02*
X81078Y-42793D01*
X81339Y-41408D02*
X81078Y-41669D01*
X81079Y-56290D02*
X81079Y-56543D01*
X80328Y-55539D02*
X81079Y-56290D01*
X76868Y-55539D02*
X80328Y-55539D01*
X76305Y-56102D02*
X76868Y-55539D01*
X75959Y-56102D02*
X76305Y-56102D01*
X75690Y-55834D02*
X75959Y-56102D01*
X75690Y-55213D02*
X75690Y-55834D01*
X76351Y-54552D02*
X75690Y-55213D01*
X76573Y-54552D02*
X76351Y-54552D01*
X76573Y-54552D02*
X76573Y-54552D01*
X81539Y-56543D02*
X81079Y-56543D01*
X74881Y-79988D02*
X73027Y-79988D01*
X75417Y-80524D02*
X74881Y-79988D01*
X75417Y-80783D02*
X75417Y-80524D01*
X83539Y-50543D02*
X83079Y-50543D01*
X75877Y-80783D02*
X75417Y-80783D01*
X83999Y-47598D02*
X83809Y-47408D01*
X83999Y-48761D02*
X83999Y-47598D01*
X83741Y-49018D02*
X83999Y-48761D01*
X73363Y-55645D02*
X73363Y-57190D01*
X78052Y-50956D02*
X73363Y-55645D01*
X78052Y-50217D02*
X78052Y-50956D01*
X78341Y-49928D02*
X78052Y-50217D01*
X82717Y-49928D02*
X78341Y-49928D01*
X83079Y-50290D02*
X82717Y-49928D01*
X83079Y-50543D02*
X83079Y-50290D01*
X40051Y-83783D02*
X40511Y-83783D01*
X72641Y-50543D02*
X72181Y-50543D01*
X55594Y-84416D02*
X55808Y-84202D01*
X43878Y-84416D02*
X55594Y-84416D01*
X43551Y-84089D02*
X43878Y-84416D01*
X43551Y-83466D02*
X43551Y-84089D01*
X43257Y-83172D02*
X43551Y-83466D01*
X40869Y-83172D02*
X43257Y-83172D01*
X40511Y-83530D02*
X40869Y-83172D01*
X40511Y-83783D02*
X40511Y-83530D01*
X72181Y-50802D02*
X72181Y-50543D01*
X68280Y-54703D02*
X72181Y-50802D01*
X57371Y-54703D02*
X68280Y-54703D01*
X57046Y-55028D02*
X57371Y-54703D01*
X64822Y-69610D02*
X65282Y-69610D01*
X77621Y-70229D02*
X78240Y-69610D01*
X74497Y-70229D02*
X77621Y-70229D01*
X74444Y-70175D02*
X74497Y-70229D01*
X65282Y-69863D02*
X65282Y-69610D01*
X66606Y-71186D02*
X65282Y-69863D01*
X73427Y-71186D02*
X66606Y-71186D01*
X73557Y-71315D02*
X73427Y-71186D01*
X86476Y-83783D02*
X86936Y-83783D01*
X90421Y-85602D02*
X90421Y-86614D01*
X88976Y-84157D02*
X90421Y-85602D01*
X88976Y-83486D02*
X88976Y-84157D01*
X88668Y-83178D02*
X88976Y-83486D01*
X87282Y-83178D02*
X88668Y-83178D01*
X86936Y-83524D02*
X87282Y-83178D01*
X86936Y-83783D02*
X86936Y-83524D01*
X80240Y-69610D02*
X79780Y-69610D01*
X66822Y-69610D02*
X67282Y-69610D01*
X81056Y-75588D02*
X79858Y-75588D01*
X81877Y-76410D02*
X81056Y-75588D01*
X79638Y-75369D02*
X73877Y-75369D01*
X79858Y-75588D02*
X79638Y-75369D01*
X67282Y-69863D02*
X67282Y-69610D01*
X68198Y-70778D02*
X67282Y-69863D01*
X74301Y-70778D02*
X68198Y-70778D01*
X74650Y-70429D02*
X74301Y-70778D01*
X79219Y-70429D02*
X74650Y-70429D01*
X79780Y-69869D02*
X79219Y-70429D01*
X79780Y-69610D02*
X79780Y-69869D01*
X87936Y-84379D02*
X89421Y-85864D01*
X87936Y-83783D02*
X87936Y-84379D01*
X87476Y-83783D02*
X87936Y-83783D01*
X89421Y-86614D02*
X89421Y-85864D01*
X68822Y-69610D02*
X69282Y-69610D01*
X81240Y-66610D02*
X81700Y-66610D01*
X82085Y-65972D02*
X82719Y-65972D01*
X81700Y-66357D02*
X82085Y-65972D01*
X81700Y-66610D02*
X81700Y-66357D01*
X80421Y-65791D02*
X81240Y-66610D01*
X73819Y-65791D02*
X80421Y-65791D01*
X71244Y-68366D02*
X73819Y-65791D01*
X70267Y-68366D02*
X71244Y-68366D01*
X69282Y-69351D02*
X70267Y-68366D01*
X69282Y-69610D02*
X69282Y-69351D01*
X74877Y-76696D02*
X74417Y-76696D01*
X74417Y-76947D02*
X74417Y-76696D01*
X74068Y-77296D02*
X74417Y-76947D01*
X73687Y-77296D02*
X74068Y-77296D01*
X73417Y-77027D02*
X73687Y-77296D01*
X73417Y-76425D02*
X73417Y-77027D01*
X72786Y-75794D02*
X73417Y-76425D01*
X70981Y-75794D02*
X72786Y-75794D01*
X70822Y-69610D02*
X70822Y-69010D01*
X75877Y-76696D02*
X76338Y-76696D01*
X78621Y-65991D02*
X79240Y-66610D01*
X74094Y-65991D02*
X78621Y-65991D01*
X71076Y-69010D02*
X74094Y-65991D01*
X70822Y-69010D02*
X71076Y-69010D01*
X88421Y-86614D02*
X88421Y-85864D01*
X83176Y-85864D02*
X82535Y-85222D01*
X88421Y-85864D02*
X83176Y-85864D01*
X76810Y-77433D02*
X77940Y-77433D01*
X76338Y-76961D02*
X76810Y-77433D01*
X76338Y-76696D02*
X76338Y-76961D01*
X89263Y-69610D02*
X88803Y-69610D01*
X88035Y-70631D02*
X85314Y-70631D01*
X88803Y-69863D02*
X88035Y-70631D01*
X88803Y-69610D02*
X88803Y-69863D01*
X78086Y-71737D02*
X78305Y-71518D01*
X74919Y-71737D02*
X78086Y-71737D01*
X74166Y-70985D02*
X74919Y-71737D01*
X67397Y-70985D02*
X74166Y-70985D01*
X66355Y-69943D02*
X67397Y-70985D01*
X66355Y-69271D02*
X66355Y-69943D01*
X66617Y-69010D02*
X66355Y-69271D01*
X67832Y-69010D02*
X66617Y-69010D01*
X69577Y-67264D02*
X67832Y-69010D01*
X70168Y-67264D02*
X69577Y-67264D01*
X70822Y-66610D02*
X70168Y-67264D01*
X80844Y-71936D02*
X84933Y-71936D01*
X80426Y-71518D02*
X80844Y-71936D01*
X78305Y-71518D02*
X80426Y-71518D01*
X78338Y-76950D02*
X78338Y-76696D01*
X78924Y-77536D02*
X78338Y-76950D01*
X87142Y-77536D02*
X78924Y-77536D01*
X87243Y-77435D02*
X87142Y-77536D01*
X77877Y-76696D02*
X78338Y-76696D01*
X90662Y-70211D02*
X91263Y-69610D01*
X90070Y-70211D02*
X90662Y-70211D01*
X89763Y-69904D02*
X90070Y-70211D01*
X89763Y-69317D02*
X89763Y-69904D01*
X88708Y-68262D02*
X89763Y-69317D01*
X78419Y-68262D02*
X88708Y-68262D01*
X78326Y-68355D02*
X78419Y-68262D01*
X75290Y-68355D02*
X78326Y-68355D01*
X73209Y-70436D02*
X75290Y-68355D01*
X68362Y-70436D02*
X73209Y-70436D01*
X79338Y-76950D02*
X79338Y-76696D01*
X79724Y-77336D02*
X79338Y-76950D01*
X86667Y-77336D02*
X79724Y-77336D01*
X86976Y-77027D02*
X86667Y-77336D01*
X86976Y-76386D02*
X86976Y-77027D01*
X87486Y-75876D02*
X86976Y-76386D01*
X89448Y-75876D02*
X87486Y-75876D01*
X89976Y-76404D02*
X89448Y-75876D01*
X89976Y-77141D02*
X89976Y-76404D01*
X90642Y-77807D02*
X89976Y-77141D01*
X78992Y-76696D02*
X79338Y-76696D01*
X78877Y-76696D02*
X78992Y-76696D01*
X78175Y-75994D02*
X78877Y-76696D01*
X73645Y-75994D02*
X78175Y-75994D01*
X73120Y-75469D02*
X73645Y-75994D01*
X68119Y-75469D02*
X73120Y-75469D01*
X68107Y-75457D02*
X68119Y-75469D01*
X92016Y-84243D02*
X92016Y-83783D01*
X90921Y-85338D02*
X92016Y-84243D01*
X90921Y-87051D02*
X90921Y-85338D01*
X90608Y-87364D02*
X90921Y-87051D01*
X84421Y-87364D02*
X90608Y-87364D01*
X84421Y-86614D02*
X84421Y-87364D01*
X92476Y-83783D02*
X92016Y-83783D01*
X66707Y-74566D02*
X65427Y-74566D01*
X67272Y-75131D02*
X66707Y-74566D01*
X68242Y-75131D02*
X67272Y-75131D01*
X68373Y-75263D02*
X68242Y-75131D01*
X73297Y-75263D02*
X68373Y-75263D01*
X73728Y-75694D02*
X73297Y-75263D01*
X78875Y-75694D02*
X73728Y-75694D01*
X79877Y-76696D02*
X78875Y-75694D01*
G54D23*
X75590Y-36039D02*
X75311Y-36039D01*
X35358Y-86933D02*
X35358Y-86614D01*
X37401Y-88976D02*
X35358Y-86933D01*
X75311Y-36039D02*
X74114Y-34842D01*
X36358Y-85795D02*
X35358Y-85795D01*
X35358Y-86614D02*
X35358Y-85795D01*
X36358Y-86614D02*
X36358Y-85795D01*
X34809Y-83070D02*
X35522Y-83783D01*
X32389Y-83070D02*
X34809Y-83070D01*
X36051Y-83783D02*
X35522Y-83783D01*
X71866Y-39763D02*
X71866Y-40551D01*
X75590Y-36039D02*
X71866Y-39763D01*
X68279Y-63311D02*
X68808Y-63311D01*
X80877Y-83783D02*
X81406Y-83783D01*
X55169Y-75047D02*
X54169Y-75047D01*
X55169Y-63629D02*
X54169Y-63629D01*
X31727Y-69560D02*
X32389Y-68897D01*
X28801Y-69560D02*
X31727Y-69560D01*
X27027Y-71334D02*
X28801Y-69560D01*
X28633Y-65354D02*
X28090Y-65354D01*
X26484Y-65354D02*
X28090Y-65354D01*
X47212Y-52287D02*
X47741Y-52287D01*
X59885Y-80783D02*
X59885Y-81452D01*
X67885Y-83783D02*
X68414Y-83783D01*
X70078Y-83283D02*
X70078Y-83533D01*
X70328Y-83783D02*
X70078Y-83533D01*
X71877Y-83783D02*
X70328Y-83783D01*
X70564Y-44307D02*
X69276Y-45594D01*
X75590Y-44307D02*
X70564Y-44307D01*
X68748Y-45594D02*
X69276Y-45594D01*
X69828Y-83783D02*
X70078Y-83533D01*
X68414Y-83783D02*
X69828Y-83783D01*
X42370Y-52287D02*
X42370Y-52908D01*
X47212Y-52287D02*
X47212Y-52956D01*
X45051Y-83783D02*
X45579Y-83783D01*
X46079Y-83283D02*
X45579Y-83783D01*
X47244Y-83283D02*
X46079Y-83283D01*
X52212Y-52287D02*
X52741Y-52287D01*
X80877Y-63311D02*
X81406Y-63311D01*
X82677Y-62811D02*
X82677Y-63061D01*
X82927Y-63311D02*
X83947Y-63311D01*
X82677Y-63061D02*
X82927Y-63311D01*
X84476Y-63311D02*
X83947Y-63311D01*
X28298Y-57634D02*
X28846Y-57086D01*
X27300Y-57634D02*
X28298Y-57634D01*
X26608Y-59223D02*
X26633Y-59248D01*
X26608Y-58326D02*
X26608Y-59223D01*
X27300Y-57634D02*
X26608Y-58326D01*
X22160Y-58326D02*
X20972Y-57137D01*
X26608Y-58326D02*
X22160Y-58326D01*
X26633Y-59917D02*
X26633Y-59248D01*
X42370Y-52956D02*
X47212Y-52956D01*
X42370Y-52908D02*
X42370Y-52956D01*
X41207Y-54118D02*
X36220Y-54118D01*
X42370Y-52956D02*
X41207Y-54118D01*
X53028Y-52574D02*
X57480Y-52574D01*
X52741Y-52287D02*
X53028Y-52574D01*
X81906Y-83283D02*
X82677Y-83283D01*
X81406Y-83783D02*
X81906Y-83283D01*
X92601Y-82908D02*
X93476Y-83783D01*
X83052Y-82908D02*
X92601Y-82908D01*
X82677Y-83283D02*
X83052Y-82908D01*
X31464Y-46657D02*
X32133Y-45988D01*
X25578Y-46657D02*
X31464Y-46657D01*
X24409Y-45488D02*
X25578Y-46657D01*
X72851Y-69110D02*
X73622Y-69110D01*
X72351Y-69610D02*
X72851Y-69110D01*
X71822Y-69610D02*
X72351Y-69610D01*
X68074Y-44920D02*
X68748Y-45594D01*
X60409Y-44920D02*
X68074Y-44920D01*
X60236Y-45094D02*
X60409Y-44920D01*
X48212Y-52287D02*
X47741Y-52287D01*
X50541Y-52958D02*
X51212Y-52287D01*
X48883Y-52958D02*
X50541Y-52958D01*
X48212Y-52287D02*
X48883Y-52958D01*
X82427Y-63311D02*
X82677Y-63061D01*
X81406Y-63311D02*
X82427Y-63311D01*
X56847Y-76196D02*
X55697Y-75047D01*
X59842Y-76196D02*
X56847Y-76196D01*
X55169Y-75047D02*
X55697Y-75047D01*
X60415Y-69718D02*
X61023Y-69110D01*
X54840Y-69718D02*
X60415Y-69718D01*
X54169Y-69047D02*
X54840Y-69718D01*
X53496Y-68374D02*
X54169Y-69047D01*
X51842Y-68374D02*
X53496Y-68374D01*
X51169Y-69047D02*
X51842Y-68374D01*
X21110Y-50000D02*
X20972Y-50137D01*
X24377Y-50000D02*
X21110Y-50000D01*
X46686Y-43488D02*
X49212Y-43488D01*
X44186Y-45988D02*
X46686Y-43488D01*
X43657Y-45988D02*
X44186Y-45988D01*
X55594Y-59055D02*
X54169Y-57629D01*
X58448Y-59055D02*
X55594Y-59055D01*
X39034Y-82767D02*
X37051Y-80783D01*
X44034Y-82767D02*
X39034Y-82767D01*
X45051Y-83783D02*
X44034Y-82767D01*
X58886Y-83114D02*
X58885Y-83114D01*
X59885Y-82115D02*
X58886Y-83114D01*
X59885Y-81452D02*
X59885Y-82115D01*
X66217Y-82115D02*
X67885Y-83783D01*
X59885Y-82115D02*
X66217Y-82115D01*
X58885Y-83783D02*
X58885Y-83283D01*
X58885Y-83283D02*
X58885Y-83114D01*
X68989Y-76196D02*
X68489Y-76696D01*
X70078Y-76196D02*
X68989Y-76196D01*
X67960Y-76696D02*
X68489Y-76696D01*
X83268Y-69110D02*
X82768Y-69610D01*
X84251Y-69110D02*
X83268Y-69110D01*
X82240Y-69610D02*
X82768Y-69610D01*
X58885Y-83283D02*
X57086Y-83283D01*
X47425Y-83101D02*
X47244Y-83283D01*
X54286Y-83101D02*
X47425Y-83101D01*
X54968Y-83783D02*
X54286Y-83101D01*
X55997Y-83283D02*
X55497Y-83783D01*
X57086Y-83283D02*
X55997Y-83283D01*
X54968Y-83783D02*
X55497Y-83783D01*
X62572Y-57612D02*
X63641Y-56543D01*
X59891Y-57612D02*
X62572Y-57612D01*
X58448Y-59055D02*
X59891Y-57612D01*
X69308Y-62811D02*
X70078Y-62811D01*
X68808Y-63311D02*
X69308Y-62811D01*
X80209Y-62642D02*
X80877Y-63311D01*
X70247Y-62642D02*
X80209Y-62642D01*
X70078Y-62811D02*
X70247Y-62642D01*
X24133Y-74228D02*
X24015Y-74228D01*
X27027Y-71334D02*
X24133Y-74228D01*
X21122Y-74228D02*
X20972Y-74377D01*
X24015Y-74228D02*
X21122Y-74228D01*
X24133Y-62417D02*
X26633Y-59917D01*
X23622Y-62417D02*
X24133Y-62417D01*
X20972Y-65322D02*
X20972Y-65716D01*
X23622Y-62673D02*
X20972Y-65322D01*
X23622Y-62417D02*
X23622Y-62673D01*
X29855Y-54118D02*
X36220Y-54118D01*
X27300Y-56673D02*
X29855Y-54118D01*
X27300Y-57634D02*
X27300Y-56673D01*
G54D24*
X36591Y-84243D02*
X36591Y-83783D01*
X35307Y-85526D02*
X36591Y-84243D01*
X25695Y-85526D02*
X35307Y-85526D01*
X25358Y-85864D02*
X25695Y-85526D01*
X25358Y-86614D02*
X25358Y-85864D01*
X37051Y-83783D02*
X36591Y-83783D01*
X46672Y-51827D02*
X46672Y-52287D01*
X47752Y-50747D02*
X46672Y-51827D01*
X47752Y-49287D02*
X47752Y-50747D01*
X48212Y-49287D02*
X47752Y-49287D01*
X46212Y-52287D02*
X46672Y-52287D01*
X45087Y-48622D02*
X42370Y-48622D01*
X45752Y-49287D02*
X45087Y-48622D01*
X42370Y-49287D02*
X42370Y-48622D01*
X46212Y-49287D02*
X45752Y-49287D01*
X30027Y-71334D02*
X30487Y-71334D01*
X40169Y-69047D02*
X39709Y-69047D01*
X39709Y-69300D02*
X39709Y-69047D01*
X38977Y-70032D02*
X39709Y-69300D01*
X31531Y-70032D02*
X38977Y-70032D01*
X30487Y-71075D02*
X31531Y-70032D01*
X30487Y-71334D02*
X30487Y-71075D01*
X43709Y-69300D02*
X43709Y-69047D01*
X42496Y-70513D02*
X43709Y-69300D01*
X32050Y-70513D02*
X42496Y-70513D01*
X31487Y-71075D02*
X32050Y-70513D01*
X31487Y-71334D02*
X31487Y-71075D01*
X31027Y-71334D02*
X31487Y-71334D01*
X44169Y-69047D02*
X43709Y-69047D01*
X44709Y-74794D02*
X44709Y-75047D01*
X44195Y-74280D02*
X44709Y-74794D01*
X36433Y-74280D02*
X44195Y-74280D01*
X33487Y-71334D02*
X36433Y-74280D01*
X33027Y-71334D02*
X33487Y-71334D01*
X45169Y-75047D02*
X44709Y-75047D01*
X32027Y-71334D02*
X32487Y-71334D01*
X46169Y-75047D02*
X45709Y-75047D01*
X45709Y-74794D02*
X45709Y-75047D01*
X42906Y-71991D02*
X45709Y-74794D01*
X36764Y-71991D02*
X42906Y-71991D01*
X35506Y-70734D02*
X36764Y-71991D01*
X32829Y-70734D02*
X35506Y-70734D01*
X32487Y-71075D02*
X32829Y-70734D01*
X32487Y-71334D02*
X32487Y-71075D01*
X42591Y-84631D02*
X42591Y-83783D01*
X41358Y-85864D02*
X42591Y-84631D01*
X43051Y-83783D02*
X42591Y-83783D01*
X41358Y-86614D02*
X41358Y-85864D01*
X43061Y-85161D02*
X43061Y-84943D01*
X42358Y-85864D02*
X43061Y-85161D01*
X42358Y-86614D02*
X42358Y-85864D01*
X82240Y-66610D02*
X82700Y-66610D01*
X89476Y-63311D02*
X89016Y-63311D01*
X89016Y-63563D02*
X89016Y-63311D01*
X87367Y-65212D02*
X89016Y-63563D01*
X84154Y-65212D02*
X87367Y-65212D01*
X82756Y-66610D02*
X84154Y-65212D01*
X82700Y-66610D02*
X82756Y-66610D01*
X86683Y-64703D02*
X87476Y-63911D01*
X83477Y-64703D02*
X86683Y-64703D01*
X82914Y-65266D02*
X83477Y-64703D01*
X87476Y-63311D02*
X87476Y-63911D01*
X85476Y-63311D02*
X85016Y-63311D01*
X84522Y-62357D02*
X81579Y-62357D01*
X85016Y-62850D02*
X84522Y-62357D01*
X85016Y-63311D02*
X85016Y-62850D01*
X64345Y-81036D02*
X64345Y-80783D01*
X64995Y-81685D02*
X64345Y-81036D01*
X67025Y-81685D02*
X64995Y-81685D01*
X68164Y-82823D02*
X67025Y-81685D01*
X71932Y-82823D02*
X68164Y-82823D01*
X72416Y-83308D02*
X71932Y-82823D01*
X72416Y-84126D02*
X72416Y-83308D01*
X74153Y-85864D02*
X72416Y-84126D01*
X74421Y-85864D02*
X74153Y-85864D01*
X74421Y-86614D02*
X74421Y-85864D01*
X63885Y-80783D02*
X64345Y-80783D01*
X62345Y-80530D02*
X62345Y-80783D01*
X62704Y-80172D02*
X62345Y-80530D01*
X67079Y-80172D02*
X62704Y-80172D01*
X67385Y-80478D02*
X67079Y-80172D01*
X67385Y-81105D02*
X67385Y-80478D01*
X68231Y-81951D02*
X67385Y-81105D01*
X71863Y-81951D02*
X68231Y-81951D01*
X73377Y-83465D02*
X71863Y-81951D01*
X73377Y-84079D02*
X73377Y-83465D01*
X75162Y-85864D02*
X73377Y-84079D01*
X75421Y-85864D02*
X75162Y-85864D01*
X75421Y-86614D02*
X75421Y-85864D01*
X61885Y-80783D02*
X62345Y-80783D01*
X80393Y-80808D02*
X80417Y-80783D01*
X80393Y-85835D02*
X80393Y-80808D01*
X80421Y-85864D02*
X80393Y-85835D01*
X80421Y-86614D02*
X80421Y-85864D01*
X80877Y-80783D02*
X80417Y-80783D01*
X60345Y-84036D02*
X60345Y-83783D01*
X62923Y-86614D02*
X60345Y-84036D01*
X68421Y-86614D02*
X62923Y-86614D01*
X59885Y-83783D02*
X60345Y-83783D01*
X69421Y-86614D02*
X69421Y-85864D01*
X61885Y-83783D02*
X62345Y-83783D01*
X62345Y-84036D02*
X62345Y-83783D01*
X64173Y-85864D02*
X62345Y-84036D01*
X69421Y-85864D02*
X64173Y-85864D01*
X70421Y-86614D02*
X70421Y-85864D01*
X63885Y-83783D02*
X64345Y-83783D01*
X69628Y-85071D02*
X70421Y-85864D01*
X65380Y-85071D02*
X69628Y-85071D01*
X64345Y-84036D02*
X65380Y-85071D01*
X64345Y-83783D02*
X64345Y-84036D01*
X71421Y-86614D02*
X71421Y-85864D01*
X65885Y-83783D02*
X66345Y-83783D01*
X70428Y-84871D02*
X71421Y-85864D01*
X67180Y-84871D02*
X70428Y-84871D01*
X66345Y-84036D02*
X67180Y-84871D01*
X66345Y-83783D02*
X66345Y-84036D01*
X73877Y-60311D02*
X73877Y-59710D01*
X73877Y-59427D02*
X73877Y-59710D01*
X74750Y-58555D02*
X73877Y-59427D01*
X74750Y-55870D02*
X74750Y-58555D01*
X76402Y-54218D02*
X74750Y-55870D01*
X83917Y-54218D02*
X76402Y-54218D01*
X84131Y-54431D02*
X83917Y-54218D01*
X85489Y-54431D02*
X84131Y-54431D01*
X85500Y-54421D02*
X85489Y-54431D01*
X90263Y-69610D02*
X90723Y-69610D01*
X93476Y-60311D02*
X93016Y-60311D01*
X92936Y-60390D02*
X93016Y-60311D01*
X92936Y-64141D02*
X92936Y-60390D01*
X90723Y-66354D02*
X92936Y-64141D01*
X90723Y-69610D02*
X90723Y-66354D01*
X80240Y-66610D02*
X80700Y-66610D01*
X91476Y-63311D02*
X91016Y-63311D01*
X91016Y-63564D02*
X91016Y-63311D01*
X89003Y-65577D02*
X91016Y-63564D01*
X84299Y-65577D02*
X89003Y-65577D01*
X82647Y-67229D02*
X84299Y-65577D01*
X81060Y-67229D02*
X82647Y-67229D01*
X80700Y-66869D02*
X81060Y-67229D01*
X80700Y-66610D02*
X80700Y-66869D01*
X77877Y-60311D02*
X77417Y-60311D01*
X77417Y-59863D02*
X77417Y-60311D01*
X75323Y-57769D02*
X77417Y-59863D01*
X75323Y-57081D02*
X75323Y-57769D01*
X75439Y-56964D02*
X75323Y-57081D01*
X28346Y-81133D02*
X28346Y-82464D01*
X29559Y-79921D02*
X28346Y-81133D01*
X87079Y-42022D02*
X87079Y-42275D01*
X86732Y-41675D02*
X87079Y-42022D01*
X85330Y-41675D02*
X86732Y-41675D01*
X85039Y-41966D02*
X85330Y-41675D01*
X85039Y-42600D02*
X85039Y-41966D01*
X81431Y-46208D02*
X85039Y-42600D01*
X76960Y-46208D02*
X81431Y-46208D01*
X87539Y-42275D02*
X87079Y-42275D01*
X27487Y-74587D02*
X27487Y-74334D01*
X28496Y-75596D02*
X27487Y-74587D01*
X28852Y-75596D02*
X28496Y-75596D01*
X30027Y-76771D02*
X28852Y-75596D01*
X27027Y-74334D02*
X27487Y-74334D01*
X26093Y-62658D02*
X26093Y-62917D01*
X26727Y-62025D02*
X26093Y-62658D01*
X27319Y-62025D02*
X26727Y-62025D01*
X29133Y-60211D02*
X27319Y-62025D01*
X29133Y-59612D02*
X29133Y-60211D01*
X31184Y-57561D02*
X29133Y-59612D01*
X31226Y-57561D02*
X31184Y-57561D01*
X31520Y-57267D02*
X31226Y-57561D01*
X31520Y-57086D02*
X31520Y-57267D01*
X31996Y-57086D02*
X31520Y-57086D01*
X25633Y-62917D02*
X26093Y-62917D01*
X61191Y-45594D02*
X62748Y-45594D01*
X59333Y-47451D02*
X61191Y-45594D01*
X59333Y-47818D02*
X59333Y-47451D01*
X59614Y-48098D02*
X59333Y-47818D01*
X62042Y-48098D02*
X59614Y-48098D01*
X64287Y-45853D02*
X62042Y-48098D01*
X64287Y-45594D02*
X64287Y-45853D01*
X64748Y-45594D02*
X64287Y-45594D01*
X65208Y-45847D02*
X65208Y-45594D01*
X65557Y-46197D02*
X65208Y-45847D01*
X66943Y-46197D02*
X65557Y-46197D01*
X67287Y-45853D02*
X66943Y-46197D01*
X67287Y-45594D02*
X67287Y-45853D01*
X67748Y-45594D02*
X67287Y-45594D01*
X64748Y-45594D02*
X65208Y-45594D01*
X43709Y-57883D02*
X43709Y-57629D01*
X43280Y-58311D02*
X43709Y-57883D01*
X39563Y-58311D02*
X43280Y-58311D01*
X39391Y-58483D02*
X39563Y-58311D01*
X32268Y-58483D02*
X39391Y-58483D01*
X31093Y-59658D02*
X32268Y-58483D01*
X31093Y-59917D02*
X31093Y-59658D01*
X30633Y-59917D02*
X31093Y-59917D01*
X44169Y-57629D02*
X43709Y-57629D01*
X31633Y-59917D02*
X32093Y-59917D01*
X46169Y-63629D02*
X45709Y-63629D01*
X45709Y-63376D02*
X45709Y-63629D01*
X44829Y-62497D02*
X45709Y-63376D01*
X44319Y-62497D02*
X44829Y-62497D01*
X41509Y-59686D02*
X44319Y-62497D01*
X33545Y-59686D02*
X41509Y-59686D01*
X33171Y-59311D02*
X33545Y-59686D01*
X32440Y-59311D02*
X33171Y-59311D01*
X32093Y-59658D02*
X32440Y-59311D01*
X32093Y-59917D02*
X32093Y-59658D01*
X32633Y-59917D02*
X33093Y-59917D01*
X41456Y-59917D02*
X45169Y-63629D01*
X33093Y-59917D02*
X41456Y-59917D01*
X39709Y-57883D02*
X39709Y-57629D01*
X39316Y-58275D02*
X39709Y-57883D01*
X31476Y-58275D02*
X39316Y-58275D01*
X30093Y-59658D02*
X31476Y-58275D01*
X30093Y-59917D02*
X30093Y-59658D01*
X29633Y-59917D02*
X30093Y-59917D01*
X40169Y-57629D02*
X39709Y-57629D01*
X44629Y-63883D02*
X44629Y-63629D01*
X44997Y-64251D02*
X44629Y-63883D01*
X49346Y-64251D02*
X44997Y-64251D01*
X49709Y-63888D02*
X49346Y-64251D01*
X49709Y-63629D02*
X49709Y-63888D01*
X50169Y-63629D02*
X49709Y-63629D01*
X44169Y-63629D02*
X44629Y-63629D01*
X50968Y-80783D02*
X51428Y-80783D01*
X85476Y-80783D02*
X85016Y-80783D01*
X85016Y-80494D02*
X85016Y-80783D01*
X84685Y-80163D02*
X85016Y-80494D01*
X81637Y-80163D02*
X84685Y-80163D01*
X81246Y-79771D02*
X81637Y-80163D01*
X73270Y-79771D02*
X81246Y-79771D01*
X73162Y-79663D02*
X73270Y-79771D01*
X62443Y-79663D02*
X73162Y-79663D01*
X62199Y-79907D02*
X62443Y-79663D01*
X52045Y-79907D02*
X62199Y-79907D01*
X51428Y-80524D02*
X52045Y-79907D01*
X51428Y-80783D02*
X51428Y-80524D01*
X40657Y-45988D02*
X39657Y-45988D01*
X41117Y-46241D02*
X41117Y-45988D01*
X42040Y-47164D02*
X41117Y-46241D01*
X54557Y-47164D02*
X42040Y-47164D01*
X55437Y-46284D02*
X54557Y-47164D01*
X55437Y-44488D02*
X55437Y-46284D01*
X56476Y-43448D02*
X55437Y-44488D01*
X56476Y-42988D02*
X56476Y-43448D01*
X56937Y-42988D02*
X56476Y-42988D01*
X40657Y-45988D02*
X41117Y-45988D01*
G54D10*
G36*
X34416Y-86664D02*
X34408Y-86664D01*
X34408Y-86672D01*
X34308Y-86672D01*
X34308Y-86664D01*
X33908Y-86664D01*
X33808Y-86664D01*
X33408Y-86664D01*
X33408Y-86672D01*
X33308Y-86672D01*
X33308Y-86664D01*
X33300Y-86664D01*
X33300Y-86564D01*
X33308Y-86564D01*
X33308Y-86556D01*
X33408Y-86556D01*
X33408Y-86564D01*
X33808Y-86564D01*
X33908Y-86564D01*
X34308Y-86564D01*
X34308Y-86556D01*
X34408Y-86556D01*
X34408Y-86564D01*
X34416Y-86564D01*
X34416Y-86664D01*
X34416Y-86664D01*
G37*
G54D24*
X34416Y-86664D02*
X34408Y-86664D01*
X34408Y-86672D01*
X34308Y-86672D01*
X34308Y-86664D01*
X33908Y-86664D01*
X33808Y-86664D01*
X33408Y-86664D01*
X33408Y-86672D01*
X33308Y-86672D01*
X33308Y-86664D01*
X33300Y-86664D01*
X33300Y-86564D01*
X33308Y-86564D01*
X33308Y-86556D01*
X33408Y-86556D01*
X33408Y-86564D01*
X33808Y-86564D01*
X33908Y-86564D01*
X34308Y-86564D01*
X34308Y-86556D01*
X34408Y-86556D01*
X34408Y-86564D01*
X34416Y-86564D01*
X34416Y-86664D01*
G54D10*
G36*
X36416Y-86664D02*
X36408Y-86664D01*
X36408Y-86672D01*
X36308Y-86672D01*
X36308Y-86664D01*
X35908Y-86664D01*
X35808Y-86664D01*
X35408Y-86664D01*
X35408Y-86672D01*
X35308Y-86672D01*
X35308Y-86664D01*
X35300Y-86664D01*
X35300Y-86564D01*
X35308Y-86564D01*
X35308Y-86556D01*
X35408Y-86556D01*
X35408Y-86564D01*
X35808Y-86564D01*
X35908Y-86564D01*
X36308Y-86564D01*
X36308Y-86556D01*
X36408Y-86556D01*
X36408Y-86564D01*
X36416Y-86564D01*
X36416Y-86664D01*
X36416Y-86664D01*
G37*
G54D24*
X36416Y-86664D02*
X36408Y-86664D01*
X36408Y-86672D01*
X36308Y-86672D01*
X36308Y-86664D01*
X35908Y-86664D01*
X35808Y-86664D01*
X35408Y-86664D01*
X35408Y-86672D01*
X35308Y-86672D01*
X35308Y-86664D01*
X35300Y-86664D01*
X35300Y-86564D01*
X35308Y-86564D01*
X35308Y-86556D01*
X35408Y-86556D01*
X35408Y-86564D01*
X35808Y-86564D01*
X35908Y-86564D01*
X36308Y-86564D01*
X36308Y-86556D01*
X36408Y-86556D01*
X36408Y-86564D01*
X36416Y-86564D01*
X36416Y-86664D01*
M02*
