G04 (created by PCBNEW (2013-dec-23)-stable) date dom 04 gen 2015 17:22:54 CET*
%MOIN*%
G04 Gerber Fmt 3.4, Leading zero omitted, Abs format*
%FSLAX34Y34*%
G01*
G70*
G90*
G04 APERTURE LIST*
%ADD10C,0.00590551*%
%ADD11C,0.066*%
%ADD12R,0.062X0.09*%
%ADD13O,0.062X0.09*%
%ADD14C,0.055*%
%ADD15R,0.065X0.065*%
%ADD16C,0.065*%
%ADD17C,0.06*%
G04 APERTURE END LIST*
G54D10*
G54D11*
X23728Y-33070D03*
X22728Y-33070D03*
G54D12*
X36169Y-63629D03*
G54D13*
X37169Y-63629D03*
X38169Y-63629D03*
X39169Y-63629D03*
X40169Y-63629D03*
X41169Y-63629D03*
X42169Y-63629D03*
X43169Y-63629D03*
X44169Y-63629D03*
X45169Y-63629D03*
X46169Y-63629D03*
X47169Y-63629D03*
X48169Y-63629D03*
X49169Y-63629D03*
X50169Y-63629D03*
X51169Y-63629D03*
X52169Y-63629D03*
X53169Y-63629D03*
X54169Y-63629D03*
X55169Y-63629D03*
X55169Y-57629D03*
X54169Y-57629D03*
X53169Y-57629D03*
X52169Y-57629D03*
X51169Y-57629D03*
X50169Y-57629D03*
X49169Y-57629D03*
X48169Y-57629D03*
X47169Y-57629D03*
X46169Y-57629D03*
X45169Y-57629D03*
X44169Y-57629D03*
X43169Y-57629D03*
X42169Y-57629D03*
X41169Y-57629D03*
X40169Y-57629D03*
X39169Y-57629D03*
X38169Y-57629D03*
X37169Y-57629D03*
X36169Y-57629D03*
G54D12*
X27507Y-40007D03*
G54D13*
X28507Y-40007D03*
X29507Y-40007D03*
X30507Y-40007D03*
X31507Y-40007D03*
X32507Y-40007D03*
X33507Y-40007D03*
X34507Y-40007D03*
X35507Y-40007D03*
X36507Y-40007D03*
X37507Y-40007D03*
X38507Y-40007D03*
X39507Y-40007D03*
X40507Y-40007D03*
X41507Y-40007D03*
X42507Y-40007D03*
X43507Y-40007D03*
X44507Y-40007D03*
X45507Y-40007D03*
X46507Y-40007D03*
X46507Y-34007D03*
X45507Y-34007D03*
X44507Y-34007D03*
X43507Y-34007D03*
X42507Y-34007D03*
X41507Y-34007D03*
X40507Y-34007D03*
X39507Y-34007D03*
X38507Y-34007D03*
X37507Y-34007D03*
X36507Y-34007D03*
X35507Y-34007D03*
X34507Y-34007D03*
X33507Y-34007D03*
X32507Y-34007D03*
X31507Y-34007D03*
X30507Y-34007D03*
X29507Y-34007D03*
X28507Y-34007D03*
X27507Y-34007D03*
G54D12*
X36169Y-75047D03*
G54D13*
X37169Y-75047D03*
X38169Y-75047D03*
X39169Y-75047D03*
X40169Y-75047D03*
X41169Y-75047D03*
X42169Y-75047D03*
X43169Y-75047D03*
X44169Y-75047D03*
X45169Y-75047D03*
X46169Y-75047D03*
X47169Y-75047D03*
X48169Y-75047D03*
X49169Y-75047D03*
X50169Y-75047D03*
X51169Y-75047D03*
X52169Y-75047D03*
X53169Y-75047D03*
X54169Y-75047D03*
X55169Y-75047D03*
X55169Y-69047D03*
X54169Y-69047D03*
X53169Y-69047D03*
X52169Y-69047D03*
X51169Y-69047D03*
X50169Y-69047D03*
X49169Y-69047D03*
X48169Y-69047D03*
X47169Y-69047D03*
X46169Y-69047D03*
X45169Y-69047D03*
X44169Y-69047D03*
X43169Y-69047D03*
X42169Y-69047D03*
X41169Y-69047D03*
X40169Y-69047D03*
X39169Y-69047D03*
X38169Y-69047D03*
X37169Y-69047D03*
X36169Y-69047D03*
G54D12*
X77539Y-56543D03*
G54D13*
X78539Y-56543D03*
X79539Y-56543D03*
X80539Y-56543D03*
X81539Y-56543D03*
X82539Y-56543D03*
X83539Y-56543D03*
X84539Y-56543D03*
X85539Y-56543D03*
X86539Y-56543D03*
X87539Y-56543D03*
X88539Y-56543D03*
X89539Y-56543D03*
X90539Y-56543D03*
X91539Y-56543D03*
X92539Y-56543D03*
X92539Y-50543D03*
X91539Y-50543D03*
X90539Y-50543D03*
X89539Y-50543D03*
X88539Y-50543D03*
X87539Y-50543D03*
X86539Y-50543D03*
X85539Y-50543D03*
X84539Y-50543D03*
X83539Y-50543D03*
X82539Y-50543D03*
X81539Y-50543D03*
X80539Y-50543D03*
X79539Y-50543D03*
X78539Y-50543D03*
X77539Y-50543D03*
G54D12*
X77539Y-40007D03*
G54D13*
X78539Y-40007D03*
X79539Y-40007D03*
X80539Y-40007D03*
X81539Y-40007D03*
X82539Y-40007D03*
X83539Y-40007D03*
X84539Y-40007D03*
X85539Y-40007D03*
X86539Y-40007D03*
X87539Y-40007D03*
X88539Y-40007D03*
X89539Y-40007D03*
X90539Y-40007D03*
X91539Y-40007D03*
X92539Y-40007D03*
X92539Y-34007D03*
X91539Y-34007D03*
X90539Y-34007D03*
X89539Y-34007D03*
X88539Y-34007D03*
X87539Y-34007D03*
X86539Y-34007D03*
X85539Y-34007D03*
X84539Y-34007D03*
X83539Y-34007D03*
X82539Y-34007D03*
X81539Y-34007D03*
X80539Y-34007D03*
X79539Y-34007D03*
X78539Y-34007D03*
X77539Y-34007D03*
G54D12*
X77539Y-48275D03*
G54D13*
X78539Y-48275D03*
X79539Y-48275D03*
X80539Y-48275D03*
X81539Y-48275D03*
X82539Y-48275D03*
X83539Y-48275D03*
X84539Y-48275D03*
X85539Y-48275D03*
X86539Y-48275D03*
X87539Y-48275D03*
X88539Y-48275D03*
X89539Y-48275D03*
X90539Y-48275D03*
X91539Y-48275D03*
X92539Y-48275D03*
X92539Y-42275D03*
X91539Y-42275D03*
X90539Y-42275D03*
X89539Y-42275D03*
X88539Y-42275D03*
X87539Y-42275D03*
X86539Y-42275D03*
X85539Y-42275D03*
X84539Y-42275D03*
X83539Y-42275D03*
X82539Y-42275D03*
X81539Y-42275D03*
X80539Y-42275D03*
X79539Y-42275D03*
X78539Y-42275D03*
X77539Y-42275D03*
G54D12*
X84476Y-83783D03*
G54D13*
X85476Y-83783D03*
X86476Y-83783D03*
X87476Y-83783D03*
X88476Y-83783D03*
X89476Y-83783D03*
X90476Y-83783D03*
X91476Y-83783D03*
X92476Y-83783D03*
X93476Y-83783D03*
X93476Y-80783D03*
X92476Y-80783D03*
X91476Y-80783D03*
X90476Y-80783D03*
X89476Y-80783D03*
X88476Y-80783D03*
X87476Y-80783D03*
X86476Y-80783D03*
X85476Y-80783D03*
X84476Y-80783D03*
G54D12*
X59279Y-63311D03*
G54D13*
X60279Y-63311D03*
X61279Y-63311D03*
X62279Y-63311D03*
X63279Y-63311D03*
X64279Y-63311D03*
X65279Y-63311D03*
X66279Y-63311D03*
X67279Y-63311D03*
X68279Y-63311D03*
X68279Y-60311D03*
X67279Y-60311D03*
X66279Y-60311D03*
X65279Y-60311D03*
X64279Y-60311D03*
X63279Y-60311D03*
X62279Y-60311D03*
X61279Y-60311D03*
X60279Y-60311D03*
X59279Y-60311D03*
G54D12*
X71877Y-63311D03*
G54D13*
X72877Y-63311D03*
X73877Y-63311D03*
X74877Y-63311D03*
X75877Y-63311D03*
X76877Y-63311D03*
X77877Y-63311D03*
X78877Y-63311D03*
X79877Y-63311D03*
X80877Y-63311D03*
X80877Y-60311D03*
X79877Y-60311D03*
X78877Y-60311D03*
X77877Y-60311D03*
X76877Y-60311D03*
X75877Y-60311D03*
X74877Y-60311D03*
X73877Y-60311D03*
X72877Y-60311D03*
X71877Y-60311D03*
G54D12*
X71877Y-76696D03*
G54D13*
X72877Y-76696D03*
X73877Y-76696D03*
X74877Y-76696D03*
X75877Y-76696D03*
X76877Y-76696D03*
X77877Y-76696D03*
X78877Y-76696D03*
X79877Y-76696D03*
X80877Y-76696D03*
X80877Y-73696D03*
X79877Y-73696D03*
X78877Y-73696D03*
X77877Y-73696D03*
X76877Y-73696D03*
X75877Y-73696D03*
X74877Y-73696D03*
X73877Y-73696D03*
X72877Y-73696D03*
X71877Y-73696D03*
G54D12*
X62822Y-69610D03*
G54D13*
X63822Y-69610D03*
X64822Y-69610D03*
X65822Y-69610D03*
X66822Y-69610D03*
X67822Y-69610D03*
X68822Y-69610D03*
X69822Y-69610D03*
X70822Y-69610D03*
X71822Y-69610D03*
X71822Y-66610D03*
X70822Y-66610D03*
X69822Y-66610D03*
X68822Y-66610D03*
X67822Y-66610D03*
X66822Y-66610D03*
X65822Y-66610D03*
X64822Y-66610D03*
X63822Y-66610D03*
X62822Y-66610D03*
G54D12*
X84476Y-63311D03*
G54D13*
X85476Y-63311D03*
X86476Y-63311D03*
X87476Y-63311D03*
X88476Y-63311D03*
X89476Y-63311D03*
X90476Y-63311D03*
X91476Y-63311D03*
X92476Y-63311D03*
X93476Y-63311D03*
X93476Y-60311D03*
X92476Y-60311D03*
X91476Y-60311D03*
X90476Y-60311D03*
X89476Y-60311D03*
X88476Y-60311D03*
X87476Y-60311D03*
X86476Y-60311D03*
X85476Y-60311D03*
X84476Y-60311D03*
G54D12*
X84476Y-76696D03*
G54D13*
X85476Y-76696D03*
X86476Y-76696D03*
X87476Y-76696D03*
X88476Y-76696D03*
X89476Y-76696D03*
X90476Y-76696D03*
X91476Y-76696D03*
X92476Y-76696D03*
X93476Y-76696D03*
X93476Y-73696D03*
X92476Y-73696D03*
X91476Y-73696D03*
X90476Y-73696D03*
X89476Y-73696D03*
X88476Y-73696D03*
X87476Y-73696D03*
X86476Y-73696D03*
X85476Y-73696D03*
X84476Y-73696D03*
G54D12*
X36051Y-83783D03*
G54D13*
X37051Y-83783D03*
X38051Y-83783D03*
X39051Y-83783D03*
X40051Y-83783D03*
X41051Y-83783D03*
X42051Y-83783D03*
X43051Y-83783D03*
X44051Y-83783D03*
X45051Y-83783D03*
X45051Y-80783D03*
X44051Y-80783D03*
X43051Y-80783D03*
X42051Y-80783D03*
X41051Y-80783D03*
X40051Y-80783D03*
X39051Y-80783D03*
X38051Y-80783D03*
X37051Y-80783D03*
X36051Y-80783D03*
G54D12*
X58885Y-83783D03*
G54D13*
X59885Y-83783D03*
X60885Y-83783D03*
X61885Y-83783D03*
X62885Y-83783D03*
X63885Y-83783D03*
X64885Y-83783D03*
X65885Y-83783D03*
X66885Y-83783D03*
X67885Y-83783D03*
X67885Y-80783D03*
X66885Y-80783D03*
X65885Y-80783D03*
X64885Y-80783D03*
X63885Y-80783D03*
X62885Y-80783D03*
X61885Y-80783D03*
X60885Y-80783D03*
X59885Y-80783D03*
X58885Y-80783D03*
G54D12*
X71877Y-83783D03*
G54D13*
X72877Y-83783D03*
X73877Y-83783D03*
X74877Y-83783D03*
X75877Y-83783D03*
X76877Y-83783D03*
X77877Y-83783D03*
X78877Y-83783D03*
X79877Y-83783D03*
X80877Y-83783D03*
X80877Y-80783D03*
X79877Y-80783D03*
X78877Y-80783D03*
X77877Y-80783D03*
X76877Y-80783D03*
X75877Y-80783D03*
X74877Y-80783D03*
X73877Y-80783D03*
X72877Y-80783D03*
X71877Y-80783D03*
G54D12*
X26027Y-74334D03*
G54D13*
X27027Y-74334D03*
X28027Y-74334D03*
X29027Y-74334D03*
X30027Y-74334D03*
X31027Y-74334D03*
X32027Y-74334D03*
X33027Y-74334D03*
X33027Y-71334D03*
X32027Y-71334D03*
X31027Y-71334D03*
X30027Y-71334D03*
X29027Y-71334D03*
X28027Y-71334D03*
X27027Y-71334D03*
X26027Y-71334D03*
G54D12*
X25633Y-62917D03*
G54D13*
X26633Y-62917D03*
X27633Y-62917D03*
X28633Y-62917D03*
X29633Y-62917D03*
X30633Y-62917D03*
X31633Y-62917D03*
X32633Y-62917D03*
X32633Y-59917D03*
X31633Y-59917D03*
X30633Y-59917D03*
X29633Y-59917D03*
X28633Y-59917D03*
X27633Y-59917D03*
X26633Y-59917D03*
X25633Y-59917D03*
G54D12*
X36657Y-45988D03*
G54D13*
X37657Y-45988D03*
X38657Y-45988D03*
X39657Y-45988D03*
X40657Y-45988D03*
X41657Y-45988D03*
X42657Y-45988D03*
X43657Y-45988D03*
X43657Y-42988D03*
X42657Y-42988D03*
X41657Y-42988D03*
X40657Y-42988D03*
X39657Y-42988D03*
X38657Y-42988D03*
X37657Y-42988D03*
X36657Y-42988D03*
G54D12*
X75240Y-69610D03*
G54D13*
X76240Y-69610D03*
X77240Y-69610D03*
X78240Y-69610D03*
X79240Y-69610D03*
X80240Y-69610D03*
X81240Y-69610D03*
X82240Y-69610D03*
X82240Y-66610D03*
X81240Y-66610D03*
X80240Y-66610D03*
X79240Y-66610D03*
X78240Y-66610D03*
X77240Y-66610D03*
X76240Y-66610D03*
X75240Y-66610D03*
G54D12*
X86263Y-69610D03*
G54D13*
X87263Y-69610D03*
X88263Y-69610D03*
X89263Y-69610D03*
X90263Y-69610D03*
X91263Y-69610D03*
X92263Y-69610D03*
X93263Y-69610D03*
X93263Y-66610D03*
X92263Y-66610D03*
X91263Y-66610D03*
X90263Y-66610D03*
X89263Y-66610D03*
X88263Y-66610D03*
X87263Y-66610D03*
X86263Y-66610D03*
G54D12*
X61960Y-76696D03*
G54D13*
X62960Y-76696D03*
X63960Y-76696D03*
X64960Y-76696D03*
X65960Y-76696D03*
X66960Y-76696D03*
X67960Y-76696D03*
X67960Y-73696D03*
X66960Y-73696D03*
X65960Y-73696D03*
X64960Y-73696D03*
X63960Y-73696D03*
X62960Y-73696D03*
X61960Y-73696D03*
G54D12*
X50937Y-39688D03*
G54D13*
X51937Y-39688D03*
X52937Y-39688D03*
X53937Y-39688D03*
X54937Y-39688D03*
X55937Y-39688D03*
X56937Y-39688D03*
X56937Y-36688D03*
X55937Y-36688D03*
X54937Y-36688D03*
X53937Y-36688D03*
X52937Y-36688D03*
X51937Y-36688D03*
X50937Y-36688D03*
G54D12*
X46212Y-52287D03*
G54D13*
X47212Y-52287D03*
X48212Y-52287D03*
X49212Y-52287D03*
X50212Y-52287D03*
X51212Y-52287D03*
X52212Y-52287D03*
X52212Y-49287D03*
X51212Y-49287D03*
X50212Y-49287D03*
X49212Y-49287D03*
X48212Y-49287D03*
X47212Y-49287D03*
X46212Y-49287D03*
G54D12*
X48968Y-83783D03*
G54D13*
X49968Y-83783D03*
X50968Y-83783D03*
X51968Y-83783D03*
X52968Y-83783D03*
X53968Y-83783D03*
X54968Y-83783D03*
X54968Y-80783D03*
X53968Y-80783D03*
X52968Y-80783D03*
X51968Y-80783D03*
X50968Y-80783D03*
X49968Y-80783D03*
X48968Y-80783D03*
G54D12*
X62748Y-45594D03*
G54D13*
X63748Y-45594D03*
X64748Y-45594D03*
X65748Y-45594D03*
X66748Y-45594D03*
X67748Y-45594D03*
X68748Y-45594D03*
X68748Y-42594D03*
X67748Y-42594D03*
X66748Y-42594D03*
X65748Y-42594D03*
X64748Y-42594D03*
X63748Y-42594D03*
X62748Y-42594D03*
G54D12*
X50937Y-45988D03*
G54D13*
X51937Y-45988D03*
X52937Y-45988D03*
X53937Y-45988D03*
X54937Y-45988D03*
X55937Y-45988D03*
X56937Y-45988D03*
X56937Y-42988D03*
X55937Y-42988D03*
X54937Y-42988D03*
X53937Y-42988D03*
X52937Y-42988D03*
X51937Y-42988D03*
X50937Y-42988D03*
G54D12*
X26133Y-45988D03*
G54D13*
X27133Y-45988D03*
X28133Y-45988D03*
X29133Y-45988D03*
X30133Y-45988D03*
X31133Y-45988D03*
X32133Y-45988D03*
X32133Y-42988D03*
X31133Y-42988D03*
X30133Y-42988D03*
X29133Y-42988D03*
X28133Y-42988D03*
X27133Y-42988D03*
X26133Y-42988D03*
G54D14*
X41519Y-32677D03*
X43519Y-32677D03*
X24409Y-43488D03*
X24409Y-45488D03*
X50181Y-53937D03*
X52181Y-53937D03*
X36220Y-56118D03*
X36220Y-54118D03*
X24015Y-72228D03*
X24015Y-74228D03*
X75590Y-42307D03*
X75590Y-44307D03*
X61023Y-67110D03*
X61023Y-69110D03*
X35826Y-79346D03*
X35826Y-77346D03*
X57086Y-81283D03*
X57086Y-83283D03*
X70078Y-81283D03*
X70078Y-83283D03*
X82677Y-81283D03*
X82677Y-83283D03*
X60236Y-43094D03*
X60236Y-45094D03*
X59842Y-74196D03*
X59842Y-76196D03*
X60448Y-59055D03*
X58448Y-59055D03*
X36220Y-67535D03*
X36220Y-65535D03*
X23622Y-60417D03*
X23622Y-62417D03*
X70078Y-60811D03*
X70078Y-62811D03*
X82677Y-60811D03*
X82677Y-62811D03*
X73622Y-67110D03*
X73622Y-69110D03*
X84251Y-67110D03*
X84251Y-69110D03*
X70078Y-74196D03*
X70078Y-76196D03*
X82677Y-74196D03*
X82677Y-76196D03*
X35039Y-45488D03*
X35039Y-43488D03*
X49212Y-39188D03*
X49212Y-37188D03*
X49212Y-45488D03*
X49212Y-43488D03*
X47244Y-81283D03*
X47244Y-83283D03*
X57480Y-50574D03*
X57480Y-52574D03*
X75590Y-34039D03*
X75590Y-36039D03*
X75590Y-50574D03*
X75590Y-52574D03*
G54D15*
X24696Y-57086D03*
G54D16*
X25696Y-57086D03*
G54D15*
X32389Y-68897D03*
G54D16*
X31389Y-68897D03*
G54D15*
X27846Y-57086D03*
G54D16*
X28846Y-57086D03*
G54D15*
X25090Y-68897D03*
G54D16*
X26090Y-68897D03*
G54D15*
X28240Y-68897D03*
G54D16*
X29240Y-68897D03*
G54D15*
X31996Y-57086D03*
G54D16*
X30996Y-57086D03*
G54D15*
X28633Y-65354D03*
G54D16*
X29633Y-65354D03*
G54D15*
X25484Y-65354D03*
G54D16*
X26484Y-65354D03*
G54D15*
X29027Y-76771D03*
G54D16*
X30027Y-76771D03*
G54D15*
X25877Y-76771D03*
G54D16*
X26877Y-76771D03*
G54D12*
X59641Y-56543D03*
G54D13*
X60641Y-56543D03*
X61641Y-56543D03*
X62641Y-56543D03*
X63641Y-56543D03*
X64641Y-56543D03*
X65641Y-56543D03*
X66641Y-56543D03*
X67641Y-56543D03*
X68641Y-56543D03*
X69641Y-56543D03*
X70641Y-56543D03*
X71641Y-56543D03*
X72641Y-56543D03*
X72641Y-50543D03*
X71641Y-50543D03*
X70641Y-50543D03*
X69641Y-50543D03*
X68641Y-50543D03*
X67641Y-50543D03*
X66641Y-50543D03*
X65641Y-50543D03*
X64641Y-50543D03*
X63641Y-50543D03*
X62641Y-50543D03*
X61641Y-50543D03*
X60641Y-50543D03*
X59641Y-50543D03*
G54D17*
X59811Y-47637D03*
X63811Y-47637D03*
X24377Y-51574D03*
X28377Y-51574D03*
X24377Y-50000D03*
X28377Y-50000D03*
X25196Y-39401D03*
X25196Y-35401D03*
X24015Y-39401D03*
X24015Y-35401D03*
X24377Y-48425D03*
X28377Y-48425D03*
X24377Y-53149D03*
X28377Y-53149D03*
X65716Y-47637D03*
X69716Y-47637D03*
X25559Y-79921D03*
X29559Y-79921D03*
X63354Y-40551D03*
X67354Y-40551D03*
G54D14*
X69866Y-40551D03*
X71866Y-40551D03*
G54D15*
X72728Y-46850D03*
G54D16*
X73728Y-46850D03*
G54D15*
X31389Y-83070D03*
G54D16*
X32389Y-83070D03*
M02*
