<?xml version="1.0" standalone="no"?>
 <!DOCTYPE svg PUBLIC "-//W3C//DTD SVG 1.1//EN" 
 "http://www.w3.org/Graphics/SVG/1.1/DTD/svg11.dtd"> 
<svg xmlns="http://www.w3.org/2000/svg" version="1.1" 
    width="41.9989cm" height="29.7002cm" viewBox="0 0 165350 116930 ">
<title>SVG Picture created as MultiF-Board-B_Mask.svg date 2015/06/15 14:09:00 </title>
  <desc>Picture generated by PCBNEW </desc>
<g style="fill:#000000; fill-opacity:1;stroke:#000000; stroke-opacity:1;
stroke-linecap:round; stroke-linejoin:round; "
 transform="translate(0 0) scale(1 1)">
</g>
<g style="fill:#000000; fill-opacity:0.0; 
stroke:#000000; stroke-width:59.0551; stroke-opacity:1; 
stroke-linecap:round; stroke-linejoin:round;">
</g>
<g style="fill:#000000; fill-opacity:1.0; 
stroke:#000000; stroke-width:59.0551; stroke-opacity:1; 
stroke-linecap:round; stroke-linejoin:round;">
<circle cx="23728.3" cy="33070.9" r="300.472" /> 
<circle cx="22728.3" cy="33070.9" r="300.472" /> 
<polyline style="fill-rule:evenodd;"
points="35888,64050
35888,63209
36449,63209
36449,64050
35888,64050
" /> 
</g>
<g style="fill:#000000; fill-opacity:1.0; 
stroke:#000000; stroke-width:620; stroke-opacity:1; 
stroke-linecap:round; stroke-linejoin:round;">
<path d="M37169 63489
L37169 63769
" />
<path d="M38169 63489
L38169 63769
" />
<path d="M39169 63489
L39169 63769
" />
<path d="M40169 63489
L40169 63769
" />
<path d="M41169 63489
L41169 63769
" />
<path d="M42169 63489
L42169 63769
" />
<path d="M43169 63489
L43169 63769
" />
<path d="M44169 63489
L44169 63769
" />
<path d="M45169 63489
L45169 63769
" />
<path d="M46169 63489
L46169 63769
" />
<path d="M47169 63489
L47169 63769
" />
<path d="M48169 63489
L48169 63769
" />
<path d="M49169 63489
L49169 63769
" />
<path d="M50169 63489
L50169 63769
" />
<path d="M51169 63489
L51169 63769
" />
<path d="M52169 63489
L52169 63769
" />
<path d="M53169 63489
L53169 63769
" />
<path d="M54169 63489
L54169 63769
" />
<path d="M55169 63489
L55169 63769
" />
<path d="M55169 57489
L55169 57769
" />
<path d="M54169 57489
L54169 57769
" />
<path d="M53169 57489
L53169 57769
" />
<path d="M52169 57489
L52169 57769
" />
<path d="M51169 57489
L51169 57769
" />
<path d="M50169 57489
L50169 57769
" />
<path d="M49169 57489
L49169 57769
" />
<path d="M48169 57489
L48169 57769
" />
<path d="M47169 57489
L47169 57769
" />
<path d="M46169 57489
L46169 57769
" />
<path d="M45169 57489
L45169 57769
" />
<path d="M44169 57489
L44169 57769
" />
<path d="M43169 57489
L43169 57769
" />
<path d="M42169 57489
L42169 57769
" />
<path d="M41169 57489
L41169 57769
" />
<path d="M40169 57489
L40169 57769
" />
<path d="M39169 57489
L39169 57769
" />
<path d="M38169 57489
L38169 57769
" />
<path d="M37169 57489
L37169 57769
" />
<path d="M36169 57489
L36169 57769
" />
</g>
<g style="fill:#000000; fill-opacity:1.0; 
stroke:#000000; stroke-width:59.0551; stroke-opacity:1; 
stroke-linecap:round; stroke-linejoin:round;">
<polyline style="fill-rule:evenodd;"
points="27227,40428
27227,39587
27788,39587
27788,40428
27227,40428
" /> 
</g>
<g style="fill:#000000; fill-opacity:1.0; 
stroke:#000000; stroke-width:620; stroke-opacity:1; 
stroke-linecap:round; stroke-linejoin:round;">
<path d="M28507 39867
L28507 40147
" />
<path d="M29507 39867
L29507 40147
" />
<path d="M30507 39867
L30507 40147
" />
<path d="M31507 39867
L31507 40147
" />
<path d="M32507 39867
L32507 40147
" />
<path d="M33507 39867
L33507 40147
" />
<path d="M34507 39867
L34507 40147
" />
<path d="M35507 39867
L35507 40147
" />
<path d="M36507 39867
L36507 40147
" />
<path d="M37507 39867
L37507 40147
" />
<path d="M38507 39867
L38507 40147
" />
<path d="M39507 39867
L39507 40147
" />
<path d="M40507 39867
L40507 40147
" />
<path d="M41507 39867
L41507 40147
" />
<path d="M42507 39867
L42507 40147
" />
<path d="M43507 39867
L43507 40147
" />
<path d="M44507 39867
L44507 40147
" />
<path d="M45507 39867
L45507 40147
" />
<path d="M46507 39867
L46507 40147
" />
<path d="M46507 33867
L46507 34147
" />
<path d="M45507 33867
L45507 34147
" />
<path d="M44507 33867
L44507 34147
" />
<path d="M43507 33867
L43507 34147
" />
<path d="M42507 33867
L42507 34147
" />
<path d="M41507 33867
L41507 34147
" />
<path d="M40507 33867
L40507 34147
" />
<path d="M39507 33867
L39507 34147
" />
<path d="M38507 33867
L38507 34147
" />
<path d="M37507 33867
L37507 34147
" />
<path d="M36507 33867
L36507 34147
" />
<path d="M35507 33867
L35507 34147
" />
<path d="M34507 33867
L34507 34147
" />
<path d="M33507 33867
L33507 34147
" />
<path d="M32507 33867
L32507 34147
" />
<path d="M31507 33867
L31507 34147
" />
<path d="M30507 33867
L30507 34147
" />
<path d="M29507 33867
L29507 34147
" />
<path d="M28507 33867
L28507 34147
" />
<path d="M27507 33867
L27507 34147
" />
</g>
<g style="fill:#000000; fill-opacity:1.0; 
stroke:#000000; stroke-width:59.0551; stroke-opacity:1; 
stroke-linecap:round; stroke-linejoin:round;">
<polyline style="fill-rule:evenodd;"
points="35888,75467
35888,74626
36449,74626
36449,75467
35888,75467
" /> 
</g>
<g style="fill:#000000; fill-opacity:1.0; 
stroke:#000000; stroke-width:620; stroke-opacity:1; 
stroke-linecap:round; stroke-linejoin:round;">
<path d="M37169 74907
L37169 75187
" />
<path d="M38169 74907
L38169 75187
" />
<path d="M39169 74907
L39169 75187
" />
<path d="M40169 74907
L40169 75187
" />
<path d="M41169 74907
L41169 75187
" />
<path d="M42169 74907
L42169 75187
" />
<path d="M43169 74907
L43169 75187
" />
<path d="M44169 74907
L44169 75187
" />
<path d="M45169 74907
L45169 75187
" />
<path d="M46169 74907
L46169 75187
" />
<path d="M47169 74907
L47169 75187
" />
<path d="M48169 74907
L48169 75187
" />
<path d="M49169 74907
L49169 75187
" />
<path d="M50169 74907
L50169 75187
" />
<path d="M51169 74907
L51169 75187
" />
<path d="M52169 74907
L52169 75187
" />
<path d="M53169 74907
L53169 75187
" />
<path d="M54169 74907
L54169 75187
" />
<path d="M55169 74907
L55169 75187
" />
<path d="M55169 68907
L55169 69187
" />
<path d="M54169 68907
L54169 69187
" />
<path d="M53169 68907
L53169 69187
" />
<path d="M52169 68907
L52169 69187
" />
<path d="M51169 68907
L51169 69187
" />
<path d="M50169 68907
L50169 69187
" />
<path d="M49169 68907
L49169 69187
" />
<path d="M48169 68907
L48169 69187
" />
<path d="M47169 68907
L47169 69187
" />
<path d="M46169 68907
L46169 69187
" />
<path d="M45169 68907
L45169 69187
" />
<path d="M44169 68907
L44169 69187
" />
<path d="M43169 68907
L43169 69187
" />
<path d="M42169 68907
L42169 69187
" />
<path d="M41169 68907
L41169 69187
" />
<path d="M40169 68907
L40169 69187
" />
<path d="M39169 68907
L39169 69187
" />
<path d="M38169 68907
L38169 69187
" />
<path d="M37169 68907
L37169 69187
" />
<path d="M36169 68907
L36169 69187
" />
</g>
<g style="fill:#000000; fill-opacity:1.0; 
stroke:#000000; stroke-width:59.0551; stroke-opacity:1; 
stroke-linecap:round; stroke-linejoin:round;">
<polyline style="fill-rule:evenodd;"
points="77258,56963
77258,56122
77819,56122
77819,56963
77258,56963
" /> 
</g>
<g style="fill:#000000; fill-opacity:1.0; 
stroke:#000000; stroke-width:620; stroke-opacity:1; 
stroke-linecap:round; stroke-linejoin:round;">
<path d="M78539 56403
L78539 56683
" />
<path d="M79539 56403
L79539 56683
" />
<path d="M80539 56403
L80539 56683
" />
<path d="M81539 56403
L81539 56683
" />
<path d="M82539 56403
L82539 56683
" />
<path d="M83539 56403
L83539 56683
" />
<path d="M84539 56403
L84539 56683
" />
<path d="M85539 56403
L85539 56683
" />
<path d="M86539 56403
L86539 56683
" />
<path d="M87539 56403
L87539 56683
" />
<path d="M88539 56403
L88539 56683
" />
<path d="M89539 56403
L89539 56683
" />
<path d="M90539 56403
L90539 56683
" />
<path d="M91539 56403
L91539 56683
" />
<path d="M92539 56403
L92539 56683
" />
<path d="M92539 50403
L92539 50683
" />
<path d="M91539 50403
L91539 50683
" />
<path d="M90539 50403
L90539 50683
" />
<path d="M89539 50403
L89539 50683
" />
<path d="M88539 50403
L88539 50683
" />
<path d="M87539 50403
L87539 50683
" />
<path d="M86539 50403
L86539 50683
" />
<path d="M85539 50403
L85539 50683
" />
<path d="M84539 50403
L84539 50683
" />
<path d="M83539 50403
L83539 50683
" />
<path d="M82539 50403
L82539 50683
" />
<path d="M81539 50403
L81539 50683
" />
<path d="M80539 50403
L80539 50683
" />
<path d="M79539 50403
L79539 50683
" />
<path d="M78539 50403
L78539 50683
" />
<path d="M77539 50403
L77539 50683
" />
</g>
<g style="fill:#000000; fill-opacity:1.0; 
stroke:#000000; stroke-width:59.0551; stroke-opacity:1; 
stroke-linecap:round; stroke-linejoin:round;">
<polyline style="fill-rule:evenodd;"
points="77258,40428
77258,39587
77819,39587
77819,40428
77258,40428
" /> 
</g>
<g style="fill:#000000; fill-opacity:1.0; 
stroke:#000000; stroke-width:620; stroke-opacity:1; 
stroke-linecap:round; stroke-linejoin:round;">
<path d="M78539 39867
L78539 40147
" />
<path d="M79539 39867
L79539 40147
" />
<path d="M80539 39867
L80539 40147
" />
<path d="M81539 39867
L81539 40147
" />
<path d="M82539 39867
L82539 40147
" />
<path d="M83539 39867
L83539 40147
" />
<path d="M84539 39867
L84539 40147
" />
<path d="M85539 39867
L85539 40147
" />
<path d="M86539 39867
L86539 40147
" />
<path d="M87539 39867
L87539 40147
" />
<path d="M88539 39867
L88539 40147
" />
<path d="M89539 39867
L89539 40147
" />
<path d="M90539 39867
L90539 40147
" />
<path d="M91539 39867
L91539 40147
" />
<path d="M92539 39867
L92539 40147
" />
<path d="M92539 33867
L92539 34147
" />
<path d="M91539 33867
L91539 34147
" />
<path d="M90539 33867
L90539 34147
" />
<path d="M89539 33867
L89539 34147
" />
<path d="M88539 33867
L88539 34147
" />
<path d="M87539 33867
L87539 34147
" />
<path d="M86539 33867
L86539 34147
" />
<path d="M85539 33867
L85539 34147
" />
<path d="M84539 33867
L84539 34147
" />
<path d="M83539 33867
L83539 34147
" />
<path d="M82539 33867
L82539 34147
" />
<path d="M81539 33867
L81539 34147
" />
<path d="M80539 33867
L80539 34147
" />
<path d="M79539 33867
L79539 34147
" />
<path d="M78539 33867
L78539 34147
" />
<path d="M77539 33867
L77539 34147
" />
</g>
<g style="fill:#000000; fill-opacity:1.0; 
stroke:#000000; stroke-width:59.0551; stroke-opacity:1; 
stroke-linecap:round; stroke-linejoin:round;">
<polyline style="fill-rule:evenodd;"
points="77258,48696
77258,47855
77819,47855
77819,48696
77258,48696
" /> 
</g>
<g style="fill:#000000; fill-opacity:1.0; 
stroke:#000000; stroke-width:620; stroke-opacity:1; 
stroke-linecap:round; stroke-linejoin:round;">
<path d="M78539 48135
L78539 48415
" />
<path d="M79539 48135
L79539 48415
" />
<path d="M80539 48135
L80539 48415
" />
<path d="M81539 48135
L81539 48415
" />
<path d="M82539 48135
L82539 48415
" />
<path d="M83539 48135
L83539 48415
" />
<path d="M84539 48135
L84539 48415
" />
<path d="M85539 48135
L85539 48415
" />
<path d="M86539 48135
L86539 48415
" />
<path d="M87539 48135
L87539 48415
" />
<path d="M88539 48135
L88539 48415
" />
<path d="M89539 48135
L89539 48415
" />
<path d="M90539 48135
L90539 48415
" />
<path d="M91539 48135
L91539 48415
" />
<path d="M92539 48135
L92539 48415
" />
<path d="M92539 42135
L92539 42415
" />
<path d="M91539 42135
L91539 42415
" />
<path d="M90539 42135
L90539 42415
" />
<path d="M89539 42135
L89539 42415
" />
<path d="M88539 42135
L88539 42415
" />
<path d="M87539 42135
L87539 42415
" />
<path d="M86539 42135
L86539 42415
" />
<path d="M85539 42135
L85539 42415
" />
<path d="M84539 42135
L84539 42415
" />
<path d="M83539 42135
L83539 42415
" />
<path d="M82539 42135
L82539 42415
" />
<path d="M81539 42135
L81539 42415
" />
<path d="M80539 42135
L80539 42415
" />
<path d="M79539 42135
L79539 42415
" />
<path d="M78539 42135
L78539 42415
" />
<path d="M77539 42135
L77539 42415
" />
</g>
<g style="fill:#000000; fill-opacity:1.0; 
stroke:#000000; stroke-width:59.0551; stroke-opacity:1; 
stroke-linecap:round; stroke-linejoin:round;">
<polyline style="fill-rule:evenodd;"
points="84195,84203
84195,83362
84756,83362
84756,84203
84195,84203
" /> 
</g>
<g style="fill:#000000; fill-opacity:1.0; 
stroke:#000000; stroke-width:620; stroke-opacity:1; 
stroke-linecap:round; stroke-linejoin:round;">
<path d="M85476 83643
L85476 83923
" />
<path d="M86476 83643
L86476 83923
" />
<path d="M87476 83643
L87476 83923
" />
<path d="M88476 83643
L88476 83923
" />
<path d="M89476 83643
L89476 83923
" />
<path d="M90476 83643
L90476 83923
" />
<path d="M91476 83643
L91476 83923
" />
<path d="M92476 83643
L92476 83923
" />
<path d="M93476 83643
L93476 83923
" />
<path d="M93476 80643
L93476 80923
" />
<path d="M92476 80643
L92476 80923
" />
<path d="M91476 80643
L91476 80923
" />
<path d="M90476 80643
L90476 80923
" />
<path d="M89476 80643
L89476 80923
" />
<path d="M88476 80643
L88476 80923
" />
<path d="M87476 80643
L87476 80923
" />
<path d="M86476 80643
L86476 80923
" />
<path d="M85476 80643
L85476 80923
" />
<path d="M84476 80643
L84476 80923
" />
</g>
<g style="fill:#000000; fill-opacity:1.0; 
stroke:#000000; stroke-width:59.0551; stroke-opacity:1; 
stroke-linecap:round; stroke-linejoin:round;">
<polyline style="fill-rule:evenodd;"
points="58999,63731
58999,62890
59560,62890
59560,63731
58999,63731
" /> 
</g>
<g style="fill:#000000; fill-opacity:1.0; 
stroke:#000000; stroke-width:620; stroke-opacity:1; 
stroke-linecap:round; stroke-linejoin:round;">
<path d="M60279 63171
L60279 63451
" />
<path d="M61279 63171
L61279 63451
" />
<path d="M62279 63171
L62279 63451
" />
<path d="M63279 63171
L63279 63451
" />
<path d="M64279 63171
L64279 63451
" />
<path d="M65279 63171
L65279 63451
" />
<path d="M66279 63171
L66279 63451
" />
<path d="M67279 63171
L67279 63451
" />
<path d="M68279 63171
L68279 63451
" />
<path d="M68279 60171
L68279 60451
" />
<path d="M67279 60171
L67279 60451
" />
<path d="M66279 60171
L66279 60451
" />
<path d="M65279 60171
L65279 60451
" />
<path d="M64279 60171
L64279 60451
" />
<path d="M63279 60171
L63279 60451
" />
<path d="M62279 60171
L62279 60451
" />
<path d="M61279 60171
L61279 60451
" />
<path d="M60279 60171
L60279 60451
" />
<path d="M59279 60171
L59279 60451
" />
</g>
<g style="fill:#000000; fill-opacity:1.0; 
stroke:#000000; stroke-width:59.0551; stroke-opacity:1; 
stroke-linecap:round; stroke-linejoin:round;">
<polyline style="fill-rule:evenodd;"
points="71597,63731
71597,62890
72158,62890
72158,63731
71597,63731
" /> 
</g>
<g style="fill:#000000; fill-opacity:1.0; 
stroke:#000000; stroke-width:620; stroke-opacity:1; 
stroke-linecap:round; stroke-linejoin:round;">
<path d="M72877 63171
L72877 63451
" />
<path d="M73877 63171
L73877 63451
" />
<path d="M74877 63171
L74877 63451
" />
<path d="M75877 63171
L75877 63451
" />
<path d="M76877 63171
L76877 63451
" />
<path d="M77877 63171
L77877 63451
" />
<path d="M78877 63171
L78877 63451
" />
<path d="M79877 63171
L79877 63451
" />
<path d="M80877 63171
L80877 63451
" />
<path d="M80877 60171
L80877 60451
" />
<path d="M79877 60171
L79877 60451
" />
<path d="M78877 60171
L78877 60451
" />
<path d="M77877 60171
L77877 60451
" />
<path d="M76877 60171
L76877 60451
" />
<path d="M75877 60171
L75877 60451
" />
<path d="M74877 60171
L74877 60451
" />
<path d="M73877 60171
L73877 60451
" />
<path d="M72877 60171
L72877 60451
" />
<path d="M71877 60171
L71877 60451
" />
</g>
<g style="fill:#000000; fill-opacity:1.0; 
stroke:#000000; stroke-width:59.0551; stroke-opacity:1; 
stroke-linecap:round; stroke-linejoin:round;">
<polyline style="fill-rule:evenodd;"
points="71597,77117
71597,76276
72158,76276
72158,77117
71597,77117
" /> 
</g>
<g style="fill:#000000; fill-opacity:1.0; 
stroke:#000000; stroke-width:620; stroke-opacity:1; 
stroke-linecap:round; stroke-linejoin:round;">
<path d="M72877 76556
L72877 76836
" />
<path d="M73877 76556
L73877 76836
" />
<path d="M74877 76556
L74877 76836
" />
<path d="M75877 76556
L75877 76836
" />
<path d="M76877 76556
L76877 76836
" />
<path d="M77877 76556
L77877 76836
" />
<path d="M78877 76556
L78877 76836
" />
<path d="M79877 76556
L79877 76836
" />
<path d="M80877 76556
L80877 76836
" />
<path d="M80877 73556
L80877 73836
" />
<path d="M79877 73556
L79877 73836
" />
<path d="M78877 73556
L78877 73836
" />
<path d="M77877 73556
L77877 73836
" />
<path d="M76877 73556
L76877 73836
" />
<path d="M75877 73556
L75877 73836
" />
<path d="M74877 73556
L74877 73836
" />
<path d="M73877 73556
L73877 73836
" />
<path d="M72877 73556
L72877 73836
" />
<path d="M71877 73556
L71877 73836
" />
</g>
<g style="fill:#000000; fill-opacity:1.0; 
stroke:#000000; stroke-width:59.0551; stroke-opacity:1; 
stroke-linecap:round; stroke-linejoin:round;">
<polyline style="fill-rule:evenodd;"
points="62542,70030
62542,69189
63103,69189
63103,70030
62542,70030
" /> 
</g>
<g style="fill:#000000; fill-opacity:1.0; 
stroke:#000000; stroke-width:620; stroke-opacity:1; 
stroke-linecap:round; stroke-linejoin:round;">
<path d="M63822 69470
L63822 69750
" />
<path d="M64822 69470
L64822 69750
" />
<path d="M65822 69470
L65822 69750
" />
<path d="M66822 69470
L66822 69750
" />
<path d="M67822 69470
L67822 69750
" />
<path d="M68822 69470
L68822 69750
" />
<path d="M69822 69470
L69822 69750
" />
<path d="M70822 69470
L70822 69750
" />
<path d="M71822 69470
L71822 69750
" />
<path d="M71822 66470
L71822 66750
" />
<path d="M70822 66470
L70822 66750
" />
<path d="M69822 66470
L69822 66750
" />
<path d="M68822 66470
L68822 66750
" />
<path d="M67822 66470
L67822 66750
" />
<path d="M66822 66470
L66822 66750
" />
<path d="M65822 66470
L65822 66750
" />
<path d="M64822 66470
L64822 66750
" />
<path d="M63822 66470
L63822 66750
" />
<path d="M62822 66470
L62822 66750
" />
</g>
<g style="fill:#000000; fill-opacity:1.0; 
stroke:#000000; stroke-width:59.0551; stroke-opacity:1; 
stroke-linecap:round; stroke-linejoin:round;">
<polyline style="fill-rule:evenodd;"
points="84195,63731
84195,62890
84756,62890
84756,63731
84195,63731
" /> 
</g>
<g style="fill:#000000; fill-opacity:1.0; 
stroke:#000000; stroke-width:620; stroke-opacity:1; 
stroke-linecap:round; stroke-linejoin:round;">
<path d="M85476 63171
L85476 63451
" />
<path d="M86476 63171
L86476 63451
" />
<path d="M87476 63171
L87476 63451
" />
<path d="M88476 63171
L88476 63451
" />
<path d="M89476 63171
L89476 63451
" />
<path d="M90476 63171
L90476 63451
" />
<path d="M91476 63171
L91476 63451
" />
<path d="M92476 63171
L92476 63451
" />
<path d="M93476 63171
L93476 63451
" />
<path d="M93476 60171
L93476 60451
" />
<path d="M92476 60171
L92476 60451
" />
<path d="M91476 60171
L91476 60451
" />
<path d="M90476 60171
L90476 60451
" />
<path d="M89476 60171
L89476 60451
" />
<path d="M88476 60171
L88476 60451
" />
<path d="M87476 60171
L87476 60451
" />
<path d="M86476 60171
L86476 60451
" />
<path d="M85476 60171
L85476 60451
" />
<path d="M84476 60171
L84476 60451
" />
</g>
<g style="fill:#000000; fill-opacity:1.0; 
stroke:#000000; stroke-width:59.0551; stroke-opacity:1; 
stroke-linecap:round; stroke-linejoin:round;">
<polyline style="fill-rule:evenodd;"
points="84195,77117
84195,76276
84756,76276
84756,77117
84195,77117
" /> 
</g>
<g style="fill:#000000; fill-opacity:1.0; 
stroke:#000000; stroke-width:620; stroke-opacity:1; 
stroke-linecap:round; stroke-linejoin:round;">
<path d="M85476 76556
L85476 76836
" />
<path d="M86476 76556
L86476 76836
" />
<path d="M87476 76556
L87476 76836
" />
<path d="M88476 76556
L88476 76836
" />
<path d="M89476 76556
L89476 76836
" />
<path d="M90476 76556
L90476 76836
" />
<path d="M91476 76556
L91476 76836
" />
<path d="M92476 76556
L92476 76836
" />
<path d="M93476 76556
L93476 76836
" />
<path d="M93476 73556
L93476 73836
" />
<path d="M92476 73556
L92476 73836
" />
<path d="M91476 73556
L91476 73836
" />
<path d="M90476 73556
L90476 73836
" />
<path d="M89476 73556
L89476 73836
" />
<path d="M88476 73556
L88476 73836
" />
<path d="M87476 73556
L87476 73836
" />
<path d="M86476 73556
L86476 73836
" />
<path d="M85476 73556
L85476 73836
" />
<path d="M84476 73556
L84476 73836
" />
</g>
<g style="fill:#000000; fill-opacity:1.0; 
stroke:#000000; stroke-width:59.0551; stroke-opacity:1; 
stroke-linecap:round; stroke-linejoin:round;">
<polyline style="fill-rule:evenodd;"
points="35770,84203
35770,83362
36331,83362
36331,84203
35770,84203
" /> 
</g>
<g style="fill:#000000; fill-opacity:1.0; 
stroke:#000000; stroke-width:620; stroke-opacity:1; 
stroke-linecap:round; stroke-linejoin:round;">
<path d="M37051 83643
L37051 83923
" />
<path d="M38051 83643
L38051 83923
" />
<path d="M39051 83643
L39051 83923
" />
<path d="M40051 83643
L40051 83923
" />
<path d="M41051 83643
L41051 83923
" />
<path d="M42051 83643
L42051 83923
" />
<path d="M43051 83643
L43051 83923
" />
<path d="M44051 83643
L44051 83923
" />
<path d="M45051 83643
L45051 83923
" />
<path d="M45051 80643
L45051 80923
" />
<path d="M44051 80643
L44051 80923
" />
<path d="M43051 80643
L43051 80923
" />
<path d="M42051 80643
L42051 80923
" />
<path d="M41051 80643
L41051 80923
" />
<path d="M40051 80643
L40051 80923
" />
<path d="M39051 80643
L39051 80923
" />
<path d="M38051 80643
L38051 80923
" />
<path d="M37051 80643
L37051 80923
" />
<path d="M36051 80643
L36051 80923
" />
</g>
<g style="fill:#000000; fill-opacity:1.0; 
stroke:#000000; stroke-width:59.0551; stroke-opacity:1; 
stroke-linecap:round; stroke-linejoin:round;">
<polyline style="fill-rule:evenodd;"
points="58605,84203
58605,83362
59166,83362
59166,84203
58605,84203
" /> 
</g>
<g style="fill:#000000; fill-opacity:1.0; 
stroke:#000000; stroke-width:620; stroke-opacity:1; 
stroke-linecap:round; stroke-linejoin:round;">
<path d="M59885 83643
L59885 83923
" />
<path d="M60885 83643
L60885 83923
" />
<path d="M61885 83643
L61885 83923
" />
<path d="M62885 83643
L62885 83923
" />
<path d="M63885 83643
L63885 83923
" />
<path d="M64885 83643
L64885 83923
" />
<path d="M65885 83643
L65885 83923
" />
<path d="M66885 83643
L66885 83923
" />
<path d="M67885 83643
L67885 83923
" />
<path d="M67885 80643
L67885 80923
" />
<path d="M66885 80643
L66885 80923
" />
<path d="M65885 80643
L65885 80923
" />
<path d="M64885 80643
L64885 80923
" />
<path d="M63885 80643
L63885 80923
" />
<path d="M62885 80643
L62885 80923
" />
<path d="M61885 80643
L61885 80923
" />
<path d="M60885 80643
L60885 80923
" />
<path d="M59885 80643
L59885 80923
" />
<path d="M58885 80643
L58885 80923
" />
</g>
<g style="fill:#000000; fill-opacity:1.0; 
stroke:#000000; stroke-width:59.0551; stroke-opacity:1; 
stroke-linecap:round; stroke-linejoin:round;">
<polyline style="fill-rule:evenodd;"
points="71597,84203
71597,83362
72158,83362
72158,84203
71597,84203
" /> 
</g>
<g style="fill:#000000; fill-opacity:1.0; 
stroke:#000000; stroke-width:620; stroke-opacity:1; 
stroke-linecap:round; stroke-linejoin:round;">
<path d="M72877 83643
L72877 83923
" />
<path d="M73877 83643
L73877 83923
" />
<path d="M74877 83643
L74877 83923
" />
<path d="M75877 83643
L75877 83923
" />
<path d="M76877 83643
L76877 83923
" />
<path d="M77877 83643
L77877 83923
" />
<path d="M78877 83643
L78877 83923
" />
<path d="M79877 83643
L79877 83923
" />
<path d="M80877 83643
L80877 83923
" />
<path d="M80877 80643
L80877 80923
" />
<path d="M79877 80643
L79877 80923
" />
<path d="M78877 80643
L78877 80923
" />
<path d="M77877 80643
L77877 80923
" />
<path d="M76877 80643
L76877 80923
" />
<path d="M75877 80643
L75877 80923
" />
<path d="M74877 80643
L74877 80923
" />
<path d="M73877 80643
L73877 80923
" />
<path d="M72877 80643
L72877 80923
" />
<path d="M71877 80643
L71877 80923
" />
</g>
<g style="fill:#000000; fill-opacity:1.0; 
stroke:#000000; stroke-width:59.0551; stroke-opacity:1; 
stroke-linecap:round; stroke-linejoin:round;">
<polyline style="fill-rule:evenodd;"
points="25747,74755
25747,73914
26308,73914
26308,74755
25747,74755
" /> 
</g>
<g style="fill:#000000; fill-opacity:1.0; 
stroke:#000000; stroke-width:620; stroke-opacity:1; 
stroke-linecap:round; stroke-linejoin:round;">
<path d="M27027 74194
L27027 74474
" />
<path d="M28027 74194
L28027 74474
" />
<path d="M29027 74194
L29027 74474
" />
<path d="M30027 74194
L30027 74474
" />
<path d="M31027 74194
L31027 74474
" />
<path d="M32027 74194
L32027 74474
" />
<path d="M33027 74194
L33027 74474
" />
<path d="M33027 71194
L33027 71474
" />
<path d="M32027 71194
L32027 71474
" />
<path d="M31027 71194
L31027 71474
" />
<path d="M30027 71194
L30027 71474
" />
<path d="M29027 71194
L29027 71474
" />
<path d="M28027 71194
L28027 71474
" />
<path d="M27027 71194
L27027 71474
" />
<path d="M26027 71194
L26027 71474
" />
</g>
<g style="fill:#000000; fill-opacity:1.0; 
stroke:#000000; stroke-width:59.0551; stroke-opacity:1; 
stroke-linecap:round; stroke-linejoin:round;">
<polyline style="fill-rule:evenodd;"
points="25353,63337
25353,62496
25914,62496
25914,63337
25353,63337
" /> 
</g>
<g style="fill:#000000; fill-opacity:1.0; 
stroke:#000000; stroke-width:620; stroke-opacity:1; 
stroke-linecap:round; stroke-linejoin:round;">
<path d="M26633 62777
L26633 63057
" />
<path d="M27633 62777
L27633 63057
" />
<path d="M28633 62777
L28633 63057
" />
<path d="M29633 62777
L29633 63057
" />
<path d="M30633 62777
L30633 63057
" />
<path d="M31633 62777
L31633 63057
" />
<path d="M32633 62777
L32633 63057
" />
<path d="M32633 59777
L32633 60057
" />
<path d="M31633 59777
L31633 60057
" />
<path d="M30633 59777
L30633 60057
" />
<path d="M29633 59777
L29633 60057
" />
<path d="M28633 59777
L28633 60057
" />
<path d="M27633 59777
L27633 60057
" />
<path d="M26633 59777
L26633 60057
" />
<path d="M25633 59777
L25633 60057
" />
</g>
<g style="fill:#000000; fill-opacity:1.0; 
stroke:#000000; stroke-width:59.0551; stroke-opacity:1; 
stroke-linecap:round; stroke-linejoin:round;">
<polyline style="fill-rule:evenodd;"
points="36377,46408
36377,45567
36937,45567
36937,46408
36377,46408
" /> 
</g>
<g style="fill:#000000; fill-opacity:1.0; 
stroke:#000000; stroke-width:620; stroke-opacity:1; 
stroke-linecap:round; stroke-linejoin:round;">
<path d="M37657 45848
L37657 46128
" />
<path d="M38657 45848
L38657 46128
" />
<path d="M39657 45848
L39657 46128
" />
<path d="M40657 45848
L40657 46128
" />
<path d="M41657 45848
L41657 46128
" />
<path d="M42657 45848
L42657 46128
" />
<path d="M43657 45848
L43657 46128
" />
<path d="M43657 42848
L43657 43128
" />
<path d="M42657 42848
L42657 43128
" />
<path d="M41657 42848
L41657 43128
" />
<path d="M40657 42848
L40657 43128
" />
<path d="M39657 42848
L39657 43128
" />
<path d="M38657 42848
L38657 43128
" />
<path d="M37657 42848
L37657 43128
" />
<path d="M36657 42848
L36657 43128
" />
</g>
<g style="fill:#000000; fill-opacity:1.0; 
stroke:#000000; stroke-width:59.0551; stroke-opacity:1; 
stroke-linecap:round; stroke-linejoin:round;">
<polyline style="fill-rule:evenodd;"
points="74959,70030
74959,69189
75520,69189
75520,70030
74959,70030
" /> 
</g>
<g style="fill:#000000; fill-opacity:1.0; 
stroke:#000000; stroke-width:620; stroke-opacity:1; 
stroke-linecap:round; stroke-linejoin:round;">
<path d="M76240 69470
L76240 69750
" />
<path d="M77240 69470
L77240 69750
" />
<path d="M78240 69470
L78240 69750
" />
<path d="M79240 69470
L79240 69750
" />
<path d="M80240 69470
L80240 69750
" />
<path d="M81240 69470
L81240 69750
" />
<path d="M82240 69470
L82240 69750
" />
<path d="M82240 66470
L82240 66750
" />
<path d="M81240 66470
L81240 66750
" />
<path d="M80240 66470
L80240 66750
" />
<path d="M79240 66470
L79240 66750
" />
<path d="M78240 66470
L78240 66750
" />
<path d="M77240 66470
L77240 66750
" />
<path d="M76240 66470
L76240 66750
" />
<path d="M75240 66470
L75240 66750
" />
</g>
<g style="fill:#000000; fill-opacity:1.0; 
stroke:#000000; stroke-width:59.0551; stroke-opacity:1; 
stroke-linecap:round; stroke-linejoin:round;">
<polyline style="fill-rule:evenodd;"
points="85983,70030
85983,69189
86544,69189
86544,70030
85983,70030
" /> 
</g>
<g style="fill:#000000; fill-opacity:1.0; 
stroke:#000000; stroke-width:620; stroke-opacity:1; 
stroke-linecap:round; stroke-linejoin:round;">
<path d="M87263 69470
L87263 69750
" />
<path d="M88263 69470
L88263 69750
" />
<path d="M89263 69470
L89263 69750
" />
<path d="M90263 69470
L90263 69750
" />
<path d="M91263 69470
L91263 69750
" />
<path d="M92263 69470
L92263 69750
" />
<path d="M93263 69470
L93263 69750
" />
<path d="M93263 66470
L93263 66750
" />
<path d="M92263 66470
L92263 66750
" />
<path d="M91263 66470
L91263 66750
" />
<path d="M90263 66470
L90263 66750
" />
<path d="M89263 66470
L89263 66750
" />
<path d="M88263 66470
L88263 66750
" />
<path d="M87263 66470
L87263 66750
" />
<path d="M86263 66470
L86263 66750
" />
</g>
<g style="fill:#000000; fill-opacity:1.0; 
stroke:#000000; stroke-width:59.0551; stroke-opacity:1; 
stroke-linecap:round; stroke-linejoin:round;">
<polyline style="fill-rule:evenodd;"
points="61680,77117
61680,76276
62241,76276
62241,77117
61680,77117
" /> 
</g>
<g style="fill:#000000; fill-opacity:1.0; 
stroke:#000000; stroke-width:620; stroke-opacity:1; 
stroke-linecap:round; stroke-linejoin:round;">
<path d="M62960 76556
L62960 76836
" />
<path d="M63960 76556
L63960 76836
" />
<path d="M64960 76556
L64960 76836
" />
<path d="M65960 76556
L65960 76836
" />
<path d="M66960 76556
L66960 76836
" />
<path d="M67960 76556
L67960 76836
" />
<path d="M67960 73556
L67960 73836
" />
<path d="M66960 73556
L66960 73836
" />
<path d="M65960 73556
L65960 73836
" />
<path d="M64960 73556
L64960 73836
" />
<path d="M63960 73556
L63960 73836
" />
<path d="M62960 73556
L62960 73836
" />
<path d="M61960 73556
L61960 73836
" />
</g>
<g style="fill:#000000; fill-opacity:1.0; 
stroke:#000000; stroke-width:59.0551; stroke-opacity:1; 
stroke-linecap:round; stroke-linejoin:round;">
<polyline style="fill-rule:evenodd;"
points="50656,40109
50656,39268
51217,39268
51217,40109
50656,40109
" /> 
</g>
<g style="fill:#000000; fill-opacity:1.0; 
stroke:#000000; stroke-width:620; stroke-opacity:1; 
stroke-linecap:round; stroke-linejoin:round;">
<path d="M51937 39548
L51937 39828
" />
<path d="M52937 39548
L52937 39828
" />
<path d="M53937 39548
L53937 39828
" />
<path d="M54937 39548
L54937 39828
" />
<path d="M55937 39548
L55937 39828
" />
<path d="M56937 39548
L56937 39828
" />
<path d="M56937 36548
L56937 36828
" />
<path d="M55937 36548
L55937 36828
" />
<path d="M54937 36548
L54937 36828
" />
<path d="M53937 36548
L53937 36828
" />
<path d="M52937 36548
L52937 36828
" />
<path d="M51937 36548
L51937 36828
" />
<path d="M50937 36548
L50937 36828
" />
</g>
<g style="fill:#000000; fill-opacity:1.0; 
stroke:#000000; stroke-width:59.0551; stroke-opacity:1; 
stroke-linecap:round; stroke-linejoin:round;">
<polyline style="fill-rule:evenodd;"
points="45932,52707
45932,51866
46493,51866
46493,52707
45932,52707
" /> 
</g>
<g style="fill:#000000; fill-opacity:1.0; 
stroke:#000000; stroke-width:620; stroke-opacity:1; 
stroke-linecap:round; stroke-linejoin:round;">
<path d="M47212 52147
L47212 52427
" />
<path d="M48212 52147
L48212 52427
" />
<path d="M49212 52147
L49212 52427
" />
<path d="M50212 52147
L50212 52427
" />
<path d="M51212 52147
L51212 52427
" />
<path d="M52212 52147
L52212 52427
" />
<path d="M52212 49147
L52212 49427
" />
<path d="M51212 49147
L51212 49427
" />
<path d="M50212 49147
L50212 49427
" />
<path d="M49212 49147
L49212 49427
" />
<path d="M48212 49147
L48212 49427
" />
<path d="M47212 49147
L47212 49427
" />
<path d="M46212 49147
L46212 49427
" />
</g>
<g style="fill:#000000; fill-opacity:1.0; 
stroke:#000000; stroke-width:59.0551; stroke-opacity:1; 
stroke-linecap:round; stroke-linejoin:round;">
<polyline style="fill-rule:evenodd;"
points="48688,84203
48688,83362
49248,83362
49248,84203
48688,84203
" /> 
</g>
<g style="fill:#000000; fill-opacity:1.0; 
stroke:#000000; stroke-width:620; stroke-opacity:1; 
stroke-linecap:round; stroke-linejoin:round;">
<path d="M49968 83643
L49968 83923
" />
<path d="M50968 83643
L50968 83923
" />
<path d="M51968 83643
L51968 83923
" />
<path d="M52968 83643
L52968 83923
" />
<path d="M53968 83643
L53968 83923
" />
<path d="M54968 83643
L54968 83923
" />
<path d="M54968 80643
L54968 80923
" />
<path d="M53968 80643
L53968 80923
" />
<path d="M52968 80643
L52968 80923
" />
<path d="M51968 80643
L51968 80923
" />
<path d="M50968 80643
L50968 80923
" />
<path d="M49968 80643
L49968 80923
" />
<path d="M48968 80643
L48968 80923
" />
</g>
<g style="fill:#000000; fill-opacity:1.0; 
stroke:#000000; stroke-width:59.0551; stroke-opacity:1; 
stroke-linecap:round; stroke-linejoin:round;">
<polyline style="fill-rule:evenodd;"
points="62467,46014
62467,45174
63028,45174
63028,46014
62467,46014
" /> 
</g>
<g style="fill:#000000; fill-opacity:1.0; 
stroke:#000000; stroke-width:620; stroke-opacity:1; 
stroke-linecap:round; stroke-linejoin:round;">
<path d="M63748 45454
L63748 45734
" />
<path d="M64748 45454
L64748 45734
" />
<path d="M65748 45454
L65748 45734
" />
<path d="M66748 45454
L66748 45734
" />
<path d="M67748 45454
L67748 45734
" />
<path d="M68748 45454
L68748 45734
" />
<path d="M68748 42454
L68748 42734
" />
<path d="M67748 42454
L67748 42734
" />
<path d="M66748 42454
L66748 42734
" />
<path d="M65748 42454
L65748 42734
" />
<path d="M64748 42454
L64748 42734
" />
<path d="M63748 42454
L63748 42734
" />
<path d="M62748 42454
L62748 42734
" />
</g>
<g style="fill:#000000; fill-opacity:1.0; 
stroke:#000000; stroke-width:59.0551; stroke-opacity:1; 
stroke-linecap:round; stroke-linejoin:round;">
<polyline style="fill-rule:evenodd;"
points="50656,46408
50656,45567
51217,45567
51217,46408
50656,46408
" /> 
</g>
<g style="fill:#000000; fill-opacity:1.0; 
stroke:#000000; stroke-width:620; stroke-opacity:1; 
stroke-linecap:round; stroke-linejoin:round;">
<path d="M51937 45848
L51937 46128
" />
<path d="M52937 45848
L52937 46128
" />
<path d="M53937 45848
L53937 46128
" />
<path d="M54937 45848
L54937 46128
" />
<path d="M55937 45848
L55937 46128
" />
<path d="M56937 45848
L56937 46128
" />
<path d="M56937 42848
L56937 43128
" />
<path d="M55937 42848
L55937 43128
" />
<path d="M54937 42848
L54937 43128
" />
<path d="M53937 42848
L53937 43128
" />
<path d="M52937 42848
L52937 43128
" />
<path d="M51937 42848
L51937 43128
" />
<path d="M50937 42848
L50937 43128
" />
</g>
<g style="fill:#000000; fill-opacity:1.0; 
stroke:#000000; stroke-width:59.0551; stroke-opacity:1; 
stroke-linecap:round; stroke-linejoin:round;">
<polyline style="fill-rule:evenodd;"
points="25853,46408
25853,45567
26414,45567
26414,46408
25853,46408
" /> 
</g>
<g style="fill:#000000; fill-opacity:1.0; 
stroke:#000000; stroke-width:620; stroke-opacity:1; 
stroke-linecap:round; stroke-linejoin:round;">
<path d="M27133 45848
L27133 46128
" />
<path d="M28133 45848
L28133 46128
" />
<path d="M29133 45848
L29133 46128
" />
<path d="M30133 45848
L30133 46128
" />
<path d="M31133 45848
L31133 46128
" />
<path d="M32133 45848
L32133 46128
" />
<path d="M32133 42848
L32133 43128
" />
<path d="M31133 42848
L31133 43128
" />
<path d="M30133 42848
L30133 43128
" />
<path d="M29133 42848
L29133 43128
" />
<path d="M28133 42848
L28133 43128
" />
<path d="M27133 42848
L27133 43128
" />
<path d="M26133 42848
L26133 43128
" />
</g>
<g style="fill:#000000; fill-opacity:1.0; 
stroke:#000000; stroke-width:59.0551; stroke-opacity:1; 
stroke-linecap:round; stroke-linejoin:round;">
<circle cx="41519.7" cy="32677.2" r="245.472" /> 
<circle cx="43519.7" cy="32677.2" r="245.472" /> 
<circle cx="24409.4" cy="43488.2" r="245.472" /> 
<circle cx="24409.4" cy="45488.2" r="245.472" /> 
<circle cx="50181.1" cy="53937" r="245.472" /> 
<circle cx="52181.1" cy="53937" r="245.472" /> 
<circle cx="36220.5" cy="56118.1" r="245.472" /> 
<circle cx="36220.5" cy="54118.1" r="245.472" /> 
<circle cx="24015.7" cy="72228.3" r="245.472" /> 
<circle cx="24015.7" cy="74228.3" r="245.472" /> 
<circle cx="75590.6" cy="42307.1" r="245.472" /> 
<circle cx="75590.6" cy="44307.1" r="245.472" /> 
<circle cx="61023.6" cy="67110.2" r="245.472" /> 
<circle cx="61023.6" cy="69110.2" r="245.472" /> 
<circle cx="35826.8" cy="79346.5" r="245.472" /> 
<circle cx="35826.8" cy="77346.5" r="245.472" /> 
<circle cx="57086.6" cy="81283.5" r="245.472" /> 
<circle cx="57086.6" cy="83283.5" r="245.472" /> 
<circle cx="70078.7" cy="81283.5" r="245.472" /> 
<circle cx="70078.7" cy="83283.5" r="245.472" /> 
<circle cx="82677.2" cy="81283.5" r="245.472" /> 
<circle cx="82677.2" cy="83283.5" r="245.472" /> 
<circle cx="60236.2" cy="43094.5" r="245.472" /> 
<circle cx="60236.2" cy="45094.5" r="245.472" /> 
<circle cx="59842.5" cy="74196.9" r="245.472" /> 
<circle cx="59842.5" cy="76196.9" r="245.472" /> 
<circle cx="60448.8" cy="59055.1" r="245.472" /> 
<circle cx="58448.8" cy="59055.1" r="245.472" /> 
<circle cx="36220.5" cy="67535.4" r="245.472" /> 
<circle cx="36220.5" cy="65535.4" r="245.472" /> 
<circle cx="23622" cy="60417.3" r="245.472" /> 
<circle cx="23622" cy="62417.3" r="245.472" /> 
<circle cx="70078.7" cy="60811" r="245.472" /> 
<circle cx="70078.7" cy="62811" r="245.472" /> 
<circle cx="82677.2" cy="60811" r="245.472" /> 
<circle cx="82677.2" cy="62811" r="245.472" /> 
<circle cx="73622" cy="67110.2" r="245.472" /> 
<circle cx="73622" cy="69110.2" r="245.472" /> 
<circle cx="84252" cy="67110.2" r="245.472" /> 
<circle cx="84252" cy="69110.2" r="245.472" /> 
<circle cx="70078.7" cy="74196.9" r="245.472" /> 
<circle cx="70078.7" cy="76196.9" r="245.472" /> 
<circle cx="82677.2" cy="74196.9" r="245.472" /> 
<circle cx="82677.2" cy="76196.9" r="245.472" /> 
<circle cx="35039.4" cy="45488.2" r="245.472" /> 
<circle cx="35039.4" cy="43488.2" r="245.472" /> 
<circle cx="49212.6" cy="39189" r="245.472" /> 
<circle cx="49212.6" cy="37189" r="245.472" /> 
<circle cx="49212.6" cy="45488.2" r="245.472" /> 
<circle cx="49212.6" cy="43488.2" r="245.472" /> 
<circle cx="47244.1" cy="81283.5" r="245.472" /> 
<circle cx="47244.1" cy="83283.5" r="245.472" /> 
<circle cx="57480.3" cy="50574.8" r="245.472" /> 
<circle cx="57480.3" cy="52574.8" r="245.472" /> 
<circle cx="75590.6" cy="34039.4" r="245.472" /> 
<circle cx="75590.6" cy="36039.4" r="245.472" /> 
<circle cx="75590.6" cy="50574.8" r="245.472" /> 
<circle cx="75590.6" cy="52574.8" r="245.472" /> 
<polyline style="fill-rule:evenodd;"
points="24401,57382
24401,56791
24992,56791
24992,57382
24401,57382
" /> 
<circle cx="25696.9" cy="57086.6" r="295.472" /> 
<polyline style="fill-rule:evenodd;"
points="32685,68602
32685,69193
32094,69193
32094,68602
32685,68602
" /> 
<circle cx="31389.8" cy="68897.6" r="295.472" /> 
<polyline style="fill-rule:evenodd;"
points="27550,57382
27550,56791
28141,56791
28141,57382
27550,57382
" /> 
<circle cx="28846.5" cy="57086.6" r="295.472" /> 
<polyline style="fill-rule:evenodd;"
points="24795,69193
24795,68602
25386,68602
25386,69193
24795,69193
" /> 
<circle cx="26090.6" cy="68897.6" r="295.472" /> 
<polyline style="fill-rule:evenodd;"
points="27944,69193
27944,68602
28535,68602
28535,69193
27944,69193
" /> 
<circle cx="29240.2" cy="68897.6" r="295.472" /> 
<polyline style="fill-rule:evenodd;"
points="32291,56791
32291,57382
31700,57382
31700,56791
32291,56791
" /> 
<circle cx="30996.1" cy="57086.6" r="295.472" /> 
<polyline style="fill-rule:evenodd;"
points="28338,65649
28338,65058
28929,65058
28929,65649
28338,65649
" /> 
<circle cx="29633.9" cy="65354.3" r="295.472" /> 
<polyline style="fill-rule:evenodd;"
points="25188,65649
25188,65058
25779,65058
25779,65649
25188,65649
" /> 
<circle cx="26484.3" cy="65354.3" r="295.472" /> 
<polyline style="fill-rule:evenodd;"
points="28732,77067
28732,76476
29323,76476
29323,77067
28732,77067
" /> 
<circle cx="30027.6" cy="76771.7" r="295.472" /> 
<polyline style="fill-rule:evenodd;"
points="25582,77067
25582,76476
26173,76476
26173,77067
25582,77067
" /> 
<circle cx="26878" cy="76771.7" r="295.472" /> 
<polyline style="fill-rule:evenodd;"
points="59361,56963
59361,56122
59922,56122
59922,56963
59361,56963
" /> 
</g>
<g style="fill:#000000; fill-opacity:1.0; 
stroke:#000000; stroke-width:620; stroke-opacity:1; 
stroke-linecap:round; stroke-linejoin:round;">
<path d="M60641 56403
L60641 56683
" />
<path d="M61641 56403
L61641 56683
" />
<path d="M62641 56403
L62641 56683
" />
<path d="M63641 56403
L63641 56683
" />
<path d="M64641 56403
L64641 56683
" />
<path d="M65641 56403
L65641 56683
" />
<path d="M66641 56403
L66641 56683
" />
<path d="M67641 56403
L67641 56683
" />
<path d="M68641 56403
L68641 56683
" />
<path d="M69641 56403
L69641 56683
" />
<path d="M70641 56403
L70641 56683
" />
<path d="M71641 56403
L71641 56683
" />
<path d="M72641 56403
L72641 56683
" />
<path d="M72641 50403
L72641 50683
" />
<path d="M71641 50403
L71641 50683
" />
<path d="M70641 50403
L70641 50683
" />
<path d="M69641 50403
L69641 50683
" />
<path d="M68641 50403
L68641 50683
" />
<path d="M67641 50403
L67641 50683
" />
<path d="M66641 50403
L66641 50683
" />
<path d="M65641 50403
L65641 50683
" />
<path d="M64641 50403
L64641 50683
" />
<path d="M63641 50403
L63641 50683
" />
<path d="M62641 50403
L62641 50683
" />
<path d="M61641 50403
L61641 50683
" />
<path d="M60641 50403
L60641 50683
" />
<path d="M59641 50403
L59641 50683
" />
</g>
<g style="fill:#000000; fill-opacity:1.0; 
stroke:#000000; stroke-width:59.0551; stroke-opacity:1; 
stroke-linecap:round; stroke-linejoin:round;">
<circle cx="59811" cy="47637.8" r="270.472" /> 
<circle cx="63811" cy="47637.8" r="270.472" /> 
<circle cx="24378" cy="51574.8" r="270.472" /> 
<circle cx="28378" cy="51574.8" r="270.472" /> 
<circle cx="24378" cy="50000" r="270.472" /> 
<circle cx="28378" cy="50000" r="270.472" /> 
<circle cx="25196.9" cy="39401.6" r="270.472" /> 
<circle cx="25196.9" cy="35401.6" r="270.472" /> 
<circle cx="24015.7" cy="39401.6" r="270.472" /> 
<circle cx="24015.7" cy="35401.6" r="270.472" /> 
<circle cx="24378" cy="48425.2" r="270.472" /> 
<circle cx="28378" cy="48425.2" r="270.472" /> 
<circle cx="24378" cy="53149.6" r="270.472" /> 
<circle cx="28378" cy="53149.6" r="270.472" /> 
<circle cx="65716.5" cy="47637.8" r="270.472" /> 
<circle cx="69716.5" cy="47637.8" r="270.472" /> 
<circle cx="25559.1" cy="79921.3" r="270.472" /> 
<circle cx="29559.1" cy="79921.3" r="270.472" /> 
<circle cx="63354.3" cy="40551.2" r="270.472" /> 
<circle cx="67354.3" cy="40551.2" r="270.472" /> 
<circle cx="69866.1" cy="40551.2" r="245.472" /> 
<circle cx="71866.1" cy="40551.2" r="245.472" /> 
<polyline style="fill-rule:evenodd;"
points="72432,47145
72432,46554
73023,46554
73023,47145
72432,47145
" /> 
<circle cx="73728.3" cy="46850.4" r="295.472" /> 
<polyline style="fill-rule:evenodd;"
points="31094,83366
31094,82775
31685,82775
31685,83366
31094,83366
" /> 
<circle cx="32389.8" cy="83070.9" r="295.472" /> 
</g> 
</svg>
