G04 (created by PCBNEW (2013-07-07 BZR 4022)-stable) date 2/23/2014 9:12:01 AM*
%MOIN*%
G04 Gerber Fmt 3.4, Leading zero omitted, Abs format*
%FSLAX34Y34*%
G01*
G70*
G90*
G04 APERTURE LIST*
%ADD10C,0.00590551*%
%ADD11C,0.012*%
%ADD12C,0.0075*%
%ADD13C,0.006*%
%ADD14C,0.015*%
%ADD15C,0.008*%
%ADD16C,0.01*%
%ADD17C,0.005*%
%ADD18C,0.0107*%
%ADD19C,0.01125*%
G04 APERTURE END LIST*
G54D10*
G54D11*
X55350Y-33823D02*
X55350Y-33023D01*
X55578Y-33023D01*
X55635Y-33061D01*
X55664Y-33100D01*
X55692Y-33176D01*
X55692Y-33290D01*
X55664Y-33366D01*
X55635Y-33404D01*
X55578Y-33442D01*
X55350Y-33442D01*
X55950Y-33823D02*
X55950Y-33290D01*
X55950Y-33442D02*
X55978Y-33366D01*
X56007Y-33328D01*
X56064Y-33290D01*
X56121Y-33290D01*
X56407Y-33823D02*
X56350Y-33785D01*
X56321Y-33747D01*
X56292Y-33671D01*
X56292Y-33442D01*
X56321Y-33366D01*
X56350Y-33328D01*
X56407Y-33290D01*
X56492Y-33290D01*
X56550Y-33328D01*
X56578Y-33366D01*
X56607Y-33442D01*
X56607Y-33671D01*
X56578Y-33747D01*
X56550Y-33785D01*
X56492Y-33823D01*
X56407Y-33823D01*
X56864Y-33290D02*
X56864Y-34090D01*
X56864Y-33328D02*
X56921Y-33290D01*
X57035Y-33290D01*
X57092Y-33328D01*
X57121Y-33366D01*
X57150Y-33442D01*
X57150Y-33671D01*
X57121Y-33747D01*
X57092Y-33785D01*
X57035Y-33823D01*
X56921Y-33823D01*
X56864Y-33785D01*
X57835Y-33595D02*
X58121Y-33595D01*
X57778Y-33823D02*
X57978Y-33023D01*
X58178Y-33823D01*
X58721Y-33747D02*
X58692Y-33785D01*
X58607Y-33823D01*
X58550Y-33823D01*
X58464Y-33785D01*
X58407Y-33709D01*
X58378Y-33633D01*
X58350Y-33480D01*
X58350Y-33366D01*
X58378Y-33214D01*
X58407Y-33138D01*
X58464Y-33061D01*
X58550Y-33023D01*
X58607Y-33023D01*
X58692Y-33061D01*
X58721Y-33100D01*
X58892Y-33023D02*
X59235Y-33023D01*
X59064Y-33823D02*
X59064Y-33023D01*
G54D12*
X35071Y-49661D02*
X35071Y-49261D01*
X35185Y-49261D01*
X35214Y-49280D01*
X35228Y-49300D01*
X35242Y-49338D01*
X35242Y-49395D01*
X35228Y-49433D01*
X35214Y-49452D01*
X35185Y-49471D01*
X35071Y-49471D01*
X35414Y-49433D02*
X35385Y-49414D01*
X35371Y-49395D01*
X35357Y-49357D01*
X35357Y-49338D01*
X35371Y-49300D01*
X35385Y-49280D01*
X35414Y-49261D01*
X35471Y-49261D01*
X35500Y-49280D01*
X35514Y-49300D01*
X35528Y-49338D01*
X35528Y-49357D01*
X35514Y-49395D01*
X35500Y-49414D01*
X35471Y-49433D01*
X35414Y-49433D01*
X35385Y-49452D01*
X35371Y-49471D01*
X35357Y-49509D01*
X35357Y-49585D01*
X35371Y-49623D01*
X35385Y-49642D01*
X35414Y-49661D01*
X35471Y-49661D01*
X35500Y-49642D01*
X35514Y-49623D01*
X35528Y-49585D01*
X35528Y-49509D01*
X35514Y-49471D01*
X35500Y-49452D01*
X35471Y-49433D01*
X35885Y-49661D02*
X35885Y-49395D01*
X35885Y-49261D02*
X35871Y-49280D01*
X35885Y-49300D01*
X35899Y-49280D01*
X35885Y-49261D01*
X35885Y-49300D01*
X36014Y-49642D02*
X36042Y-49661D01*
X36099Y-49661D01*
X36128Y-49642D01*
X36142Y-49604D01*
X36142Y-49585D01*
X36128Y-49547D01*
X36099Y-49528D01*
X36057Y-49528D01*
X36028Y-49509D01*
X36014Y-49471D01*
X36014Y-49452D01*
X36028Y-49414D01*
X36057Y-49395D01*
X36099Y-49395D01*
X36128Y-49414D01*
X36457Y-49395D02*
X36571Y-49395D01*
X36499Y-49661D02*
X36499Y-49319D01*
X36514Y-49280D01*
X36542Y-49261D01*
X36571Y-49261D01*
X36714Y-49661D02*
X36685Y-49642D01*
X36671Y-49623D01*
X36657Y-49585D01*
X36657Y-49471D01*
X36671Y-49433D01*
X36685Y-49414D01*
X36714Y-49395D01*
X36757Y-49395D01*
X36785Y-49414D01*
X36799Y-49433D01*
X36814Y-49471D01*
X36814Y-49585D01*
X36799Y-49623D01*
X36785Y-49642D01*
X36757Y-49661D01*
X36714Y-49661D01*
X36942Y-49661D02*
X36942Y-49395D01*
X36942Y-49471D02*
X36957Y-49433D01*
X36971Y-49414D01*
X36999Y-49395D01*
X37028Y-49395D01*
X37342Y-49642D02*
X37371Y-49661D01*
X37428Y-49661D01*
X37457Y-49642D01*
X37471Y-49604D01*
X37471Y-49585D01*
X37457Y-49547D01*
X37428Y-49528D01*
X37385Y-49528D01*
X37357Y-49509D01*
X37342Y-49471D01*
X37342Y-49452D01*
X37357Y-49414D01*
X37385Y-49395D01*
X37428Y-49395D01*
X37457Y-49414D01*
X37557Y-49395D02*
X37671Y-49395D01*
X37599Y-49261D02*
X37599Y-49604D01*
X37614Y-49642D01*
X37642Y-49661D01*
X37671Y-49661D01*
X37899Y-49661D02*
X37899Y-49452D01*
X37885Y-49414D01*
X37857Y-49395D01*
X37799Y-49395D01*
X37771Y-49414D01*
X37899Y-49642D02*
X37871Y-49661D01*
X37799Y-49661D01*
X37771Y-49642D01*
X37757Y-49604D01*
X37757Y-49566D01*
X37771Y-49528D01*
X37799Y-49509D01*
X37871Y-49509D01*
X37899Y-49490D01*
X38042Y-49395D02*
X38042Y-49661D01*
X38042Y-49433D02*
X38057Y-49414D01*
X38085Y-49395D01*
X38128Y-49395D01*
X38157Y-49414D01*
X38171Y-49452D01*
X38171Y-49661D01*
X38442Y-49661D02*
X38442Y-49261D01*
X38442Y-49642D02*
X38414Y-49661D01*
X38357Y-49661D01*
X38328Y-49642D01*
X38314Y-49623D01*
X38300Y-49585D01*
X38300Y-49471D01*
X38314Y-49433D01*
X38328Y-49414D01*
X38357Y-49395D01*
X38414Y-49395D01*
X38442Y-49414D01*
X38714Y-49661D02*
X38714Y-49452D01*
X38700Y-49414D01*
X38671Y-49395D01*
X38614Y-49395D01*
X38585Y-49414D01*
X38714Y-49642D02*
X38685Y-49661D01*
X38614Y-49661D01*
X38585Y-49642D01*
X38571Y-49604D01*
X38571Y-49566D01*
X38585Y-49528D01*
X38614Y-49509D01*
X38685Y-49509D01*
X38714Y-49490D01*
X38900Y-49661D02*
X38871Y-49642D01*
X38857Y-49604D01*
X38857Y-49261D01*
X39057Y-49661D02*
X39028Y-49642D01*
X39014Y-49623D01*
X39000Y-49585D01*
X39000Y-49471D01*
X39014Y-49433D01*
X39028Y-49414D01*
X39057Y-49395D01*
X39100Y-49395D01*
X39128Y-49414D01*
X39142Y-49433D01*
X39157Y-49471D01*
X39157Y-49585D01*
X39142Y-49623D01*
X39128Y-49642D01*
X39100Y-49661D01*
X39057Y-49661D01*
X39285Y-49395D02*
X39285Y-49661D01*
X39285Y-49433D02*
X39300Y-49414D01*
X39328Y-49395D01*
X39371Y-49395D01*
X39400Y-49414D01*
X39414Y-49452D01*
X39414Y-49661D01*
X39671Y-49642D02*
X39642Y-49661D01*
X39585Y-49661D01*
X39557Y-49642D01*
X39542Y-49604D01*
X39542Y-49452D01*
X39557Y-49414D01*
X39585Y-49395D01*
X39642Y-49395D01*
X39671Y-49414D01*
X39685Y-49452D01*
X39685Y-49490D01*
X39542Y-49528D01*
X40085Y-49661D02*
X40057Y-49642D01*
X40042Y-49623D01*
X40028Y-49585D01*
X40028Y-49471D01*
X40042Y-49433D01*
X40057Y-49414D01*
X40085Y-49395D01*
X40128Y-49395D01*
X40157Y-49414D01*
X40171Y-49433D01*
X40185Y-49471D01*
X40185Y-49585D01*
X40171Y-49623D01*
X40157Y-49642D01*
X40128Y-49661D01*
X40085Y-49661D01*
X40314Y-49395D02*
X40314Y-49795D01*
X40314Y-49414D02*
X40342Y-49395D01*
X40400Y-49395D01*
X40428Y-49414D01*
X40442Y-49433D01*
X40457Y-49471D01*
X40457Y-49585D01*
X40442Y-49623D01*
X40428Y-49642D01*
X40400Y-49661D01*
X40342Y-49661D01*
X40314Y-49642D01*
X40700Y-49642D02*
X40671Y-49661D01*
X40614Y-49661D01*
X40585Y-49642D01*
X40571Y-49604D01*
X40571Y-49452D01*
X40585Y-49414D01*
X40614Y-49395D01*
X40671Y-49395D01*
X40700Y-49414D01*
X40714Y-49452D01*
X40714Y-49490D01*
X40571Y-49528D01*
X40842Y-49661D02*
X40842Y-49395D01*
X40842Y-49471D02*
X40857Y-49433D01*
X40871Y-49414D01*
X40900Y-49395D01*
X40928Y-49395D01*
X41157Y-49661D02*
X41157Y-49452D01*
X41142Y-49414D01*
X41114Y-49395D01*
X41057Y-49395D01*
X41028Y-49414D01*
X41157Y-49642D02*
X41128Y-49661D01*
X41057Y-49661D01*
X41028Y-49642D01*
X41014Y-49604D01*
X41014Y-49566D01*
X41028Y-49528D01*
X41057Y-49509D01*
X41128Y-49509D01*
X41157Y-49490D01*
X41257Y-49395D02*
X41371Y-49395D01*
X41300Y-49261D02*
X41300Y-49604D01*
X41314Y-49642D01*
X41342Y-49661D01*
X41371Y-49661D01*
X41471Y-49661D02*
X41471Y-49395D01*
X41471Y-49261D02*
X41457Y-49280D01*
X41471Y-49300D01*
X41485Y-49280D01*
X41471Y-49261D01*
X41471Y-49300D01*
X41657Y-49661D02*
X41628Y-49642D01*
X41614Y-49623D01*
X41600Y-49585D01*
X41600Y-49471D01*
X41614Y-49433D01*
X41628Y-49414D01*
X41657Y-49395D01*
X41700Y-49395D01*
X41728Y-49414D01*
X41742Y-49433D01*
X41757Y-49471D01*
X41757Y-49585D01*
X41742Y-49623D01*
X41728Y-49642D01*
X41700Y-49661D01*
X41657Y-49661D01*
X41885Y-49395D02*
X41885Y-49661D01*
X41885Y-49433D02*
X41900Y-49414D01*
X41928Y-49395D01*
X41971Y-49395D01*
X42000Y-49414D01*
X42014Y-49452D01*
X42014Y-49661D01*
X42428Y-49661D02*
X42400Y-49642D01*
X42385Y-49623D01*
X42371Y-49585D01*
X42371Y-49471D01*
X42385Y-49433D01*
X42400Y-49414D01*
X42428Y-49395D01*
X42471Y-49395D01*
X42500Y-49414D01*
X42514Y-49433D01*
X42528Y-49471D01*
X42528Y-49585D01*
X42514Y-49623D01*
X42500Y-49642D01*
X42471Y-49661D01*
X42428Y-49661D01*
X42657Y-49395D02*
X42657Y-49661D01*
X42657Y-49433D02*
X42671Y-49414D01*
X42700Y-49395D01*
X42742Y-49395D01*
X42771Y-49414D01*
X42785Y-49452D01*
X42785Y-49661D01*
X42971Y-49661D02*
X42942Y-49642D01*
X42928Y-49604D01*
X42928Y-49261D01*
X43057Y-49395D02*
X43128Y-49661D01*
X43200Y-49395D02*
X43128Y-49661D01*
X43100Y-49757D01*
X43085Y-49776D01*
X43057Y-49795D01*
X35071Y-50296D02*
X35071Y-49896D01*
X35142Y-49896D01*
X35185Y-49915D01*
X35214Y-49954D01*
X35228Y-49992D01*
X35242Y-50068D01*
X35242Y-50125D01*
X35228Y-50201D01*
X35214Y-50239D01*
X35185Y-50277D01*
X35142Y-50296D01*
X35071Y-50296D01*
X35414Y-50296D02*
X35385Y-50277D01*
X35371Y-50258D01*
X35357Y-50220D01*
X35357Y-50106D01*
X35371Y-50068D01*
X35385Y-50049D01*
X35414Y-50030D01*
X35457Y-50030D01*
X35485Y-50049D01*
X35500Y-50068D01*
X35514Y-50106D01*
X35514Y-50220D01*
X35500Y-50258D01*
X35485Y-50277D01*
X35457Y-50296D01*
X35414Y-50296D01*
X35871Y-50030D02*
X35871Y-50296D01*
X35871Y-50068D02*
X35885Y-50049D01*
X35914Y-50030D01*
X35957Y-50030D01*
X35985Y-50049D01*
X36000Y-50087D01*
X36000Y-50296D01*
X36185Y-50296D02*
X36157Y-50277D01*
X36142Y-50258D01*
X36128Y-50220D01*
X36128Y-50106D01*
X36142Y-50068D01*
X36157Y-50049D01*
X36185Y-50030D01*
X36228Y-50030D01*
X36257Y-50049D01*
X36271Y-50068D01*
X36285Y-50106D01*
X36285Y-50220D01*
X36271Y-50258D01*
X36257Y-50277D01*
X36228Y-50296D01*
X36185Y-50296D01*
X36371Y-50030D02*
X36485Y-50030D01*
X36414Y-49896D02*
X36414Y-50239D01*
X36428Y-50277D01*
X36457Y-50296D01*
X36485Y-50296D01*
X36814Y-50030D02*
X36814Y-50430D01*
X36814Y-50049D02*
X36842Y-50030D01*
X36900Y-50030D01*
X36928Y-50049D01*
X36942Y-50068D01*
X36957Y-50106D01*
X36957Y-50220D01*
X36942Y-50258D01*
X36928Y-50277D01*
X36900Y-50296D01*
X36842Y-50296D01*
X36814Y-50277D01*
X37128Y-50296D02*
X37100Y-50277D01*
X37085Y-50258D01*
X37071Y-50220D01*
X37071Y-50106D01*
X37085Y-50068D01*
X37100Y-50049D01*
X37128Y-50030D01*
X37171Y-50030D01*
X37200Y-50049D01*
X37214Y-50068D01*
X37228Y-50106D01*
X37228Y-50220D01*
X37214Y-50258D01*
X37200Y-50277D01*
X37171Y-50296D01*
X37128Y-50296D01*
X37328Y-50030D02*
X37385Y-50296D01*
X37442Y-50106D01*
X37500Y-50296D01*
X37557Y-50030D01*
X37785Y-50277D02*
X37757Y-50296D01*
X37700Y-50296D01*
X37671Y-50277D01*
X37657Y-50239D01*
X37657Y-50087D01*
X37671Y-50049D01*
X37700Y-50030D01*
X37757Y-50030D01*
X37785Y-50049D01*
X37800Y-50087D01*
X37800Y-50125D01*
X37657Y-50163D01*
X37928Y-50296D02*
X37928Y-50030D01*
X37928Y-50106D02*
X37942Y-50068D01*
X37957Y-50049D01*
X37985Y-50030D01*
X38014Y-50030D01*
X38314Y-50030D02*
X38371Y-50296D01*
X38428Y-50106D01*
X38485Y-50296D01*
X38542Y-50030D01*
X38657Y-50296D02*
X38657Y-49896D01*
X38785Y-50296D02*
X38785Y-50087D01*
X38771Y-50049D01*
X38742Y-50030D01*
X38700Y-50030D01*
X38671Y-50049D01*
X38657Y-50068D01*
X39042Y-50277D02*
X39014Y-50296D01*
X38957Y-50296D01*
X38928Y-50277D01*
X38914Y-50239D01*
X38914Y-50087D01*
X38928Y-50049D01*
X38957Y-50030D01*
X39014Y-50030D01*
X39042Y-50049D01*
X39057Y-50087D01*
X39057Y-50125D01*
X38914Y-50163D01*
X39185Y-50030D02*
X39185Y-50296D01*
X39185Y-50068D02*
X39200Y-50049D01*
X39228Y-50030D01*
X39271Y-50030D01*
X39300Y-50049D01*
X39314Y-50087D01*
X39314Y-50296D01*
X39814Y-50277D02*
X39785Y-50296D01*
X39728Y-50296D01*
X39700Y-50277D01*
X39685Y-50258D01*
X39671Y-50220D01*
X39671Y-50106D01*
X39685Y-50068D01*
X39700Y-50049D01*
X39728Y-50030D01*
X39785Y-50030D01*
X39814Y-50049D01*
X39985Y-50296D02*
X39957Y-50277D01*
X39942Y-50258D01*
X39928Y-50220D01*
X39928Y-50106D01*
X39942Y-50068D01*
X39957Y-50049D01*
X39985Y-50030D01*
X40028Y-50030D01*
X40057Y-50049D01*
X40071Y-50068D01*
X40085Y-50106D01*
X40085Y-50220D01*
X40071Y-50258D01*
X40057Y-50277D01*
X40028Y-50296D01*
X39985Y-50296D01*
X40214Y-50030D02*
X40214Y-50296D01*
X40214Y-50068D02*
X40228Y-50049D01*
X40257Y-50030D01*
X40300Y-50030D01*
X40328Y-50049D01*
X40342Y-50087D01*
X40342Y-50296D01*
X40485Y-50030D02*
X40485Y-50296D01*
X40485Y-50068D02*
X40500Y-50049D01*
X40528Y-50030D01*
X40571Y-50030D01*
X40600Y-50049D01*
X40614Y-50087D01*
X40614Y-50296D01*
X40871Y-50277D02*
X40842Y-50296D01*
X40785Y-50296D01*
X40757Y-50277D01*
X40742Y-50239D01*
X40742Y-50087D01*
X40757Y-50049D01*
X40785Y-50030D01*
X40842Y-50030D01*
X40871Y-50049D01*
X40885Y-50087D01*
X40885Y-50125D01*
X40742Y-50163D01*
X41142Y-50277D02*
X41114Y-50296D01*
X41057Y-50296D01*
X41028Y-50277D01*
X41014Y-50258D01*
X41000Y-50220D01*
X41000Y-50106D01*
X41014Y-50068D01*
X41028Y-50049D01*
X41057Y-50030D01*
X41114Y-50030D01*
X41142Y-50049D01*
X41228Y-50030D02*
X41342Y-50030D01*
X41271Y-49896D02*
X41271Y-50239D01*
X41285Y-50277D01*
X41314Y-50296D01*
X41342Y-50296D01*
X41557Y-50277D02*
X41528Y-50296D01*
X41471Y-50296D01*
X41442Y-50277D01*
X41428Y-50239D01*
X41428Y-50087D01*
X41442Y-50049D01*
X41471Y-50030D01*
X41528Y-50030D01*
X41557Y-50049D01*
X41571Y-50087D01*
X41571Y-50125D01*
X41428Y-50163D01*
X41828Y-50296D02*
X41828Y-49896D01*
X41828Y-50277D02*
X41800Y-50296D01*
X41742Y-50296D01*
X41714Y-50277D01*
X41700Y-50258D01*
X41685Y-50220D01*
X41685Y-50106D01*
X41700Y-50068D01*
X41714Y-50049D01*
X41742Y-50030D01*
X41800Y-50030D01*
X41828Y-50049D01*
X42157Y-50030D02*
X42271Y-50030D01*
X42200Y-49896D02*
X42200Y-50239D01*
X42214Y-50277D01*
X42242Y-50296D01*
X42271Y-50296D01*
X42414Y-50296D02*
X42385Y-50277D01*
X42371Y-50258D01*
X42357Y-50220D01*
X42357Y-50106D01*
X42371Y-50068D01*
X42385Y-50049D01*
X42414Y-50030D01*
X42457Y-50030D01*
X42485Y-50049D01*
X42500Y-50068D01*
X42514Y-50106D01*
X42514Y-50220D01*
X42500Y-50258D01*
X42485Y-50277D01*
X42457Y-50296D01*
X42414Y-50296D01*
X42871Y-50087D02*
X42971Y-50087D01*
X43014Y-50296D02*
X42871Y-50296D01*
X42871Y-49896D01*
X43014Y-49896D01*
X43314Y-50258D02*
X43300Y-50277D01*
X43257Y-50296D01*
X43228Y-50296D01*
X43185Y-50277D01*
X43157Y-50239D01*
X43142Y-50201D01*
X43128Y-50125D01*
X43128Y-50068D01*
X43142Y-49992D01*
X43157Y-49954D01*
X43185Y-49915D01*
X43228Y-49896D01*
X43257Y-49896D01*
X43300Y-49915D01*
X43314Y-49935D01*
X43542Y-50087D02*
X43585Y-50106D01*
X43600Y-50125D01*
X43614Y-50163D01*
X43614Y-50220D01*
X43600Y-50258D01*
X43585Y-50277D01*
X43557Y-50296D01*
X43442Y-50296D01*
X43442Y-49896D01*
X43542Y-49896D01*
X43571Y-49915D01*
X43585Y-49935D01*
X43600Y-49973D01*
X43600Y-50011D01*
X43585Y-50049D01*
X43571Y-50068D01*
X43542Y-50087D01*
X43442Y-50087D01*
X43971Y-50296D02*
X43971Y-49896D01*
X43971Y-50049D02*
X44000Y-50030D01*
X44057Y-50030D01*
X44085Y-50049D01*
X44100Y-50068D01*
X44114Y-50106D01*
X44114Y-50220D01*
X44100Y-50258D01*
X44085Y-50277D01*
X44057Y-50296D01*
X44000Y-50296D01*
X43971Y-50277D01*
X44371Y-50030D02*
X44371Y-50296D01*
X44242Y-50030D02*
X44242Y-50239D01*
X44257Y-50277D01*
X44285Y-50296D01*
X44328Y-50296D01*
X44357Y-50277D01*
X44371Y-50258D01*
X44500Y-50277D02*
X44528Y-50296D01*
X44585Y-50296D01*
X44614Y-50277D01*
X44628Y-50239D01*
X44628Y-50220D01*
X44614Y-50182D01*
X44585Y-50163D01*
X44542Y-50163D01*
X44514Y-50144D01*
X44500Y-50106D01*
X44500Y-50087D01*
X44514Y-50049D01*
X44542Y-50030D01*
X44585Y-50030D01*
X44614Y-50049D01*
G54D13*
X28657Y-35261D02*
X28657Y-35547D01*
X28642Y-35604D01*
X28614Y-35642D01*
X28571Y-35661D01*
X28542Y-35661D01*
X28800Y-35661D02*
X28800Y-35261D01*
X28914Y-35261D01*
X28942Y-35280D01*
X28957Y-35300D01*
X28971Y-35338D01*
X28971Y-35395D01*
X28957Y-35433D01*
X28942Y-35452D01*
X28914Y-35471D01*
X28800Y-35471D01*
X29257Y-35661D02*
X29085Y-35661D01*
X29171Y-35661D02*
X29171Y-35261D01*
X29142Y-35319D01*
X29114Y-35357D01*
X29085Y-35376D01*
X29385Y-35623D02*
X29399Y-35642D01*
X29385Y-35661D01*
X29371Y-35642D01*
X29385Y-35623D01*
X29385Y-35661D01*
X29385Y-35414D02*
X29399Y-35433D01*
X29385Y-35452D01*
X29371Y-35433D01*
X29385Y-35414D01*
X29385Y-35452D01*
X29757Y-35661D02*
X29757Y-35261D01*
X29871Y-35261D01*
X29899Y-35280D01*
X29914Y-35300D01*
X29928Y-35338D01*
X29928Y-35395D01*
X29914Y-35433D01*
X29899Y-35452D01*
X29871Y-35471D01*
X29757Y-35471D01*
X30057Y-35661D02*
X30057Y-35395D01*
X30057Y-35471D02*
X30071Y-35433D01*
X30085Y-35414D01*
X30114Y-35395D01*
X30142Y-35395D01*
X30285Y-35661D02*
X30257Y-35642D01*
X30242Y-35623D01*
X30228Y-35585D01*
X30228Y-35471D01*
X30242Y-35433D01*
X30257Y-35414D01*
X30285Y-35395D01*
X30328Y-35395D01*
X30357Y-35414D01*
X30371Y-35433D01*
X30385Y-35471D01*
X30385Y-35585D01*
X30371Y-35623D01*
X30357Y-35642D01*
X30328Y-35661D01*
X30285Y-35661D01*
X30514Y-35395D02*
X30514Y-35795D01*
X30514Y-35414D02*
X30542Y-35395D01*
X30599Y-35395D01*
X30628Y-35414D01*
X30642Y-35433D01*
X30657Y-35471D01*
X30657Y-35585D01*
X30642Y-35623D01*
X30628Y-35642D01*
X30599Y-35661D01*
X30542Y-35661D01*
X30514Y-35642D01*
X30899Y-35642D02*
X30871Y-35661D01*
X30814Y-35661D01*
X30785Y-35642D01*
X30771Y-35604D01*
X30771Y-35452D01*
X30785Y-35414D01*
X30814Y-35395D01*
X30871Y-35395D01*
X30899Y-35414D01*
X30914Y-35452D01*
X30914Y-35490D01*
X30771Y-35528D01*
X31085Y-35661D02*
X31057Y-35642D01*
X31042Y-35604D01*
X31042Y-35261D01*
X31242Y-35661D02*
X31214Y-35642D01*
X31200Y-35604D01*
X31200Y-35261D01*
X31471Y-35642D02*
X31442Y-35661D01*
X31385Y-35661D01*
X31357Y-35642D01*
X31342Y-35604D01*
X31342Y-35452D01*
X31357Y-35414D01*
X31385Y-35395D01*
X31442Y-35395D01*
X31471Y-35414D01*
X31485Y-35452D01*
X31485Y-35490D01*
X31342Y-35528D01*
X31614Y-35661D02*
X31614Y-35395D01*
X31614Y-35471D02*
X31628Y-35433D01*
X31642Y-35414D01*
X31671Y-35395D01*
X31700Y-35395D01*
X32128Y-35452D02*
X32028Y-35452D01*
X32028Y-35661D02*
X32028Y-35261D01*
X32171Y-35261D01*
X32285Y-35661D02*
X32285Y-35395D01*
X32285Y-35261D02*
X32271Y-35280D01*
X32285Y-35300D01*
X32299Y-35280D01*
X32285Y-35261D01*
X32285Y-35300D01*
X32428Y-35661D02*
X32428Y-35395D01*
X32428Y-35471D02*
X32442Y-35433D01*
X32457Y-35414D01*
X32485Y-35395D01*
X32514Y-35395D01*
X32614Y-35661D02*
X32614Y-35395D01*
X32614Y-35433D02*
X32628Y-35414D01*
X32657Y-35395D01*
X32699Y-35395D01*
X32728Y-35414D01*
X32742Y-35452D01*
X32742Y-35661D01*
X32742Y-35452D02*
X32757Y-35414D01*
X32785Y-35395D01*
X32828Y-35395D01*
X32857Y-35414D01*
X32871Y-35452D01*
X32871Y-35661D01*
X32985Y-35395D02*
X33042Y-35661D01*
X33099Y-35471D01*
X33157Y-35661D01*
X33214Y-35395D01*
X33457Y-35661D02*
X33457Y-35452D01*
X33442Y-35414D01*
X33414Y-35395D01*
X33357Y-35395D01*
X33328Y-35414D01*
X33457Y-35642D02*
X33428Y-35661D01*
X33357Y-35661D01*
X33328Y-35642D01*
X33314Y-35604D01*
X33314Y-35566D01*
X33328Y-35528D01*
X33357Y-35509D01*
X33428Y-35509D01*
X33457Y-35490D01*
X33600Y-35661D02*
X33600Y-35395D01*
X33600Y-35471D02*
X33614Y-35433D01*
X33628Y-35414D01*
X33657Y-35395D01*
X33685Y-35395D01*
X33899Y-35642D02*
X33871Y-35661D01*
X33814Y-35661D01*
X33785Y-35642D01*
X33771Y-35604D01*
X33771Y-35452D01*
X33785Y-35414D01*
X33814Y-35395D01*
X33871Y-35395D01*
X33899Y-35414D01*
X33914Y-35452D01*
X33914Y-35490D01*
X33771Y-35528D01*
X34414Y-35661D02*
X34271Y-35661D01*
X34271Y-35261D01*
X34557Y-35661D02*
X34528Y-35642D01*
X34514Y-35623D01*
X34499Y-35585D01*
X34499Y-35471D01*
X34514Y-35433D01*
X34528Y-35414D01*
X34557Y-35395D01*
X34599Y-35395D01*
X34628Y-35414D01*
X34642Y-35433D01*
X34657Y-35471D01*
X34657Y-35585D01*
X34642Y-35623D01*
X34628Y-35642D01*
X34599Y-35661D01*
X34557Y-35661D01*
X34914Y-35661D02*
X34914Y-35452D01*
X34899Y-35414D01*
X34871Y-35395D01*
X34814Y-35395D01*
X34785Y-35414D01*
X34914Y-35642D02*
X34885Y-35661D01*
X34814Y-35661D01*
X34785Y-35642D01*
X34771Y-35604D01*
X34771Y-35566D01*
X34785Y-35528D01*
X34814Y-35509D01*
X34885Y-35509D01*
X34914Y-35490D01*
X35185Y-35661D02*
X35185Y-35261D01*
X35185Y-35642D02*
X35157Y-35661D01*
X35100Y-35661D01*
X35071Y-35642D01*
X35057Y-35623D01*
X35042Y-35585D01*
X35042Y-35471D01*
X35057Y-35433D01*
X35071Y-35414D01*
X35100Y-35395D01*
X35157Y-35395D01*
X35185Y-35414D01*
X29185Y-36281D02*
X29014Y-36281D01*
X29099Y-36281D02*
X29099Y-35881D01*
X29071Y-35939D01*
X29042Y-35977D01*
X29014Y-35996D01*
X29314Y-36129D02*
X29542Y-36129D01*
X29671Y-35920D02*
X29685Y-35900D01*
X29714Y-35881D01*
X29785Y-35881D01*
X29814Y-35900D01*
X29828Y-35920D01*
X29842Y-35958D01*
X29842Y-35996D01*
X29828Y-36053D01*
X29657Y-36281D01*
X29842Y-36281D01*
X29971Y-36072D02*
X30199Y-36072D01*
X30199Y-36186D02*
X29971Y-36186D01*
X30342Y-36281D02*
X30342Y-35881D01*
X30457Y-35881D01*
X30485Y-35900D01*
X30499Y-35920D01*
X30514Y-35958D01*
X30514Y-36015D01*
X30499Y-36053D01*
X30485Y-36072D01*
X30457Y-36091D01*
X30342Y-36091D01*
X30642Y-36281D02*
X30642Y-36015D01*
X30642Y-36091D02*
X30657Y-36053D01*
X30671Y-36034D01*
X30699Y-36015D01*
X30728Y-36015D01*
X30871Y-36281D02*
X30842Y-36262D01*
X30828Y-36243D01*
X30814Y-36205D01*
X30814Y-36091D01*
X30828Y-36053D01*
X30842Y-36034D01*
X30871Y-36015D01*
X30914Y-36015D01*
X30942Y-36034D01*
X30957Y-36053D01*
X30971Y-36091D01*
X30971Y-36205D01*
X30957Y-36243D01*
X30942Y-36262D01*
X30914Y-36281D01*
X30871Y-36281D01*
X31100Y-36015D02*
X31100Y-36415D01*
X31100Y-36034D02*
X31128Y-36015D01*
X31185Y-36015D01*
X31214Y-36034D01*
X31228Y-36053D01*
X31242Y-36091D01*
X31242Y-36205D01*
X31228Y-36243D01*
X31214Y-36262D01*
X31185Y-36281D01*
X31128Y-36281D01*
X31100Y-36262D01*
X31371Y-36281D02*
X31371Y-35881D01*
X31485Y-35881D01*
X31514Y-35900D01*
X31528Y-35920D01*
X31542Y-35958D01*
X31542Y-36015D01*
X31528Y-36053D01*
X31514Y-36072D01*
X31485Y-36091D01*
X31371Y-36091D01*
X31714Y-36281D02*
X31685Y-36262D01*
X31671Y-36224D01*
X31671Y-35881D01*
X31957Y-36015D02*
X31957Y-36281D01*
X31828Y-36015D02*
X31828Y-36224D01*
X31842Y-36262D01*
X31871Y-36281D01*
X31914Y-36281D01*
X31942Y-36262D01*
X31957Y-36243D01*
X32228Y-36015D02*
X32228Y-36339D01*
X32214Y-36377D01*
X32200Y-36396D01*
X32171Y-36415D01*
X32128Y-36415D01*
X32100Y-36396D01*
X32228Y-36262D02*
X32200Y-36281D01*
X32142Y-36281D01*
X32114Y-36262D01*
X32100Y-36243D01*
X32085Y-36205D01*
X32085Y-36091D01*
X32100Y-36053D01*
X32114Y-36034D01*
X32142Y-36015D01*
X32200Y-36015D01*
X32228Y-36034D01*
X32814Y-35862D02*
X32557Y-36377D01*
X33142Y-36281D02*
X33142Y-35881D01*
X33314Y-36281D01*
X33314Y-35881D01*
X33500Y-36281D02*
X33471Y-36262D01*
X33457Y-36243D01*
X33442Y-36205D01*
X33442Y-36091D01*
X33457Y-36053D01*
X33471Y-36034D01*
X33500Y-36015D01*
X33542Y-36015D01*
X33571Y-36034D01*
X33585Y-36053D01*
X33600Y-36091D01*
X33600Y-36205D01*
X33585Y-36243D01*
X33571Y-36262D01*
X33542Y-36281D01*
X33500Y-36281D01*
X33728Y-36281D02*
X33728Y-36015D01*
X33728Y-36091D02*
X33742Y-36053D01*
X33757Y-36034D01*
X33785Y-36015D01*
X33814Y-36015D01*
X33914Y-36281D02*
X33914Y-36015D01*
X33914Y-36053D02*
X33928Y-36034D01*
X33957Y-36015D01*
X34000Y-36015D01*
X34028Y-36034D01*
X34042Y-36072D01*
X34042Y-36281D01*
X34042Y-36072D02*
X34057Y-36034D01*
X34085Y-36015D01*
X34128Y-36015D01*
X34157Y-36034D01*
X34171Y-36072D01*
X34171Y-36281D01*
X34442Y-36281D02*
X34442Y-36072D01*
X34428Y-36034D01*
X34400Y-36015D01*
X34342Y-36015D01*
X34314Y-36034D01*
X34442Y-36262D02*
X34414Y-36281D01*
X34342Y-36281D01*
X34314Y-36262D01*
X34300Y-36224D01*
X34300Y-36186D01*
X34314Y-36148D01*
X34342Y-36129D01*
X34414Y-36129D01*
X34442Y-36110D01*
X34628Y-36281D02*
X34600Y-36262D01*
X34585Y-36224D01*
X34585Y-35881D01*
X35028Y-35881D02*
X35085Y-35881D01*
X35114Y-35900D01*
X35142Y-35939D01*
X35157Y-36015D01*
X35157Y-36148D01*
X35142Y-36224D01*
X35114Y-36262D01*
X35085Y-36281D01*
X35028Y-36281D01*
X35000Y-36262D01*
X34971Y-36224D01*
X34957Y-36148D01*
X34957Y-36015D01*
X34971Y-35939D01*
X35000Y-35900D01*
X35028Y-35881D01*
X35285Y-36015D02*
X35285Y-36415D01*
X35285Y-36034D02*
X35314Y-36015D01*
X35371Y-36015D01*
X35400Y-36034D01*
X35414Y-36053D01*
X35428Y-36091D01*
X35428Y-36205D01*
X35414Y-36243D01*
X35400Y-36262D01*
X35371Y-36281D01*
X35314Y-36281D01*
X35285Y-36262D01*
X35600Y-35881D02*
X35600Y-35977D01*
X35528Y-35939D02*
X35600Y-35977D01*
X35671Y-35939D01*
X35557Y-36053D02*
X35600Y-35977D01*
X35642Y-36053D01*
X29014Y-36540D02*
X29028Y-36520D01*
X29057Y-36501D01*
X29128Y-36501D01*
X29157Y-36520D01*
X29171Y-36540D01*
X29185Y-36578D01*
X29185Y-36616D01*
X29171Y-36673D01*
X28999Y-36901D01*
X29185Y-36901D01*
X29314Y-36749D02*
X29542Y-36749D01*
X29657Y-36501D02*
X29842Y-36501D01*
X29742Y-36654D01*
X29785Y-36654D01*
X29814Y-36673D01*
X29828Y-36692D01*
X29842Y-36730D01*
X29842Y-36825D01*
X29828Y-36863D01*
X29814Y-36882D01*
X29785Y-36901D01*
X29699Y-36901D01*
X29671Y-36882D01*
X29657Y-36863D01*
X29971Y-36692D02*
X30199Y-36692D01*
X30199Y-36806D02*
X29971Y-36806D01*
X30328Y-36882D02*
X30371Y-36901D01*
X30442Y-36901D01*
X30471Y-36882D01*
X30485Y-36863D01*
X30499Y-36825D01*
X30499Y-36787D01*
X30485Y-36749D01*
X30471Y-36730D01*
X30442Y-36711D01*
X30385Y-36692D01*
X30357Y-36673D01*
X30342Y-36654D01*
X30328Y-36616D01*
X30328Y-36578D01*
X30342Y-36540D01*
X30357Y-36520D01*
X30385Y-36501D01*
X30457Y-36501D01*
X30499Y-36520D01*
X30742Y-36882D02*
X30714Y-36901D01*
X30657Y-36901D01*
X30628Y-36882D01*
X30614Y-36844D01*
X30614Y-36692D01*
X30628Y-36654D01*
X30657Y-36635D01*
X30714Y-36635D01*
X30742Y-36654D01*
X30757Y-36692D01*
X30757Y-36730D01*
X30614Y-36768D01*
X30885Y-36901D02*
X30885Y-36635D01*
X30885Y-36711D02*
X30899Y-36673D01*
X30914Y-36654D01*
X30942Y-36635D01*
X30971Y-36635D01*
X31071Y-36901D02*
X31071Y-36635D01*
X31071Y-36501D02*
X31057Y-36520D01*
X31071Y-36540D01*
X31085Y-36520D01*
X31071Y-36501D01*
X31071Y-36540D01*
X31342Y-36901D02*
X31342Y-36692D01*
X31328Y-36654D01*
X31299Y-36635D01*
X31242Y-36635D01*
X31214Y-36654D01*
X31342Y-36882D02*
X31314Y-36901D01*
X31242Y-36901D01*
X31214Y-36882D01*
X31199Y-36844D01*
X31199Y-36806D01*
X31214Y-36768D01*
X31242Y-36749D01*
X31314Y-36749D01*
X31342Y-36730D01*
X31528Y-36901D02*
X31499Y-36882D01*
X31485Y-36844D01*
X31485Y-36501D01*
X31871Y-36901D02*
X31871Y-36501D01*
X31985Y-36501D01*
X32014Y-36520D01*
X32028Y-36540D01*
X32042Y-36578D01*
X32042Y-36635D01*
X32028Y-36673D01*
X32014Y-36692D01*
X31985Y-36711D01*
X31871Y-36711D01*
X32214Y-36901D02*
X32185Y-36882D01*
X32171Y-36863D01*
X32157Y-36825D01*
X32157Y-36711D01*
X32171Y-36673D01*
X32185Y-36654D01*
X32214Y-36635D01*
X32257Y-36635D01*
X32285Y-36654D01*
X32299Y-36673D01*
X32314Y-36711D01*
X32314Y-36825D01*
X32299Y-36863D01*
X32285Y-36882D01*
X32257Y-36901D01*
X32214Y-36901D01*
X32442Y-36901D02*
X32442Y-36635D01*
X32442Y-36711D02*
X32457Y-36673D01*
X32471Y-36654D01*
X32499Y-36635D01*
X32528Y-36635D01*
X32585Y-36635D02*
X32699Y-36635D01*
X32628Y-36501D02*
X32628Y-36844D01*
X32642Y-36882D01*
X32671Y-36901D01*
X32699Y-36901D01*
X28657Y-37741D02*
X28657Y-38027D01*
X28642Y-38084D01*
X28614Y-38122D01*
X28571Y-38141D01*
X28542Y-38141D01*
X28800Y-38141D02*
X28800Y-37741D01*
X28914Y-37741D01*
X28942Y-37760D01*
X28957Y-37780D01*
X28971Y-37818D01*
X28971Y-37875D01*
X28957Y-37913D01*
X28942Y-37932D01*
X28914Y-37951D01*
X28800Y-37951D01*
X29085Y-37780D02*
X29100Y-37760D01*
X29128Y-37741D01*
X29200Y-37741D01*
X29228Y-37760D01*
X29242Y-37780D01*
X29257Y-37818D01*
X29257Y-37856D01*
X29242Y-37913D01*
X29071Y-38141D01*
X29257Y-38141D01*
X29385Y-38103D02*
X29399Y-38122D01*
X29385Y-38141D01*
X29371Y-38122D01*
X29385Y-38103D01*
X29385Y-38141D01*
X29385Y-37894D02*
X29399Y-37913D01*
X29385Y-37932D01*
X29371Y-37913D01*
X29385Y-37894D01*
X29385Y-37932D01*
X29857Y-37932D02*
X29899Y-37951D01*
X29914Y-37970D01*
X29928Y-38008D01*
X29928Y-38065D01*
X29914Y-38103D01*
X29899Y-38122D01*
X29871Y-38141D01*
X29757Y-38141D01*
X29757Y-37741D01*
X29857Y-37741D01*
X29885Y-37760D01*
X29899Y-37780D01*
X29914Y-37818D01*
X29914Y-37856D01*
X29899Y-37894D01*
X29885Y-37913D01*
X29857Y-37932D01*
X29757Y-37932D01*
X30185Y-37875D02*
X30185Y-38141D01*
X30057Y-37875D02*
X30057Y-38084D01*
X30071Y-38122D01*
X30099Y-38141D01*
X30142Y-38141D01*
X30171Y-38122D01*
X30185Y-38103D01*
X30314Y-38122D02*
X30342Y-38141D01*
X30399Y-38141D01*
X30428Y-38122D01*
X30442Y-38084D01*
X30442Y-38065D01*
X30428Y-38027D01*
X30399Y-38008D01*
X30357Y-38008D01*
X30328Y-37989D01*
X30314Y-37951D01*
X30314Y-37932D01*
X30328Y-37894D01*
X30357Y-37875D01*
X30399Y-37875D01*
X30428Y-37894D01*
X30971Y-38141D02*
X30871Y-37951D01*
X30799Y-38141D02*
X30799Y-37741D01*
X30914Y-37741D01*
X30942Y-37760D01*
X30957Y-37780D01*
X30971Y-37818D01*
X30971Y-37875D01*
X30957Y-37913D01*
X30942Y-37932D01*
X30914Y-37951D01*
X30799Y-37951D01*
X31214Y-38122D02*
X31185Y-38141D01*
X31128Y-38141D01*
X31099Y-38122D01*
X31085Y-38084D01*
X31085Y-37932D01*
X31099Y-37894D01*
X31128Y-37875D01*
X31185Y-37875D01*
X31214Y-37894D01*
X31228Y-37932D01*
X31228Y-37970D01*
X31085Y-38008D01*
X31342Y-38122D02*
X31371Y-38141D01*
X31428Y-38141D01*
X31457Y-38122D01*
X31471Y-38084D01*
X31471Y-38065D01*
X31457Y-38027D01*
X31428Y-38008D01*
X31385Y-38008D01*
X31357Y-37989D01*
X31342Y-37951D01*
X31342Y-37932D01*
X31357Y-37894D01*
X31385Y-37875D01*
X31428Y-37875D01*
X31457Y-37894D01*
X31714Y-38122D02*
X31685Y-38141D01*
X31628Y-38141D01*
X31599Y-38122D01*
X31585Y-38084D01*
X31585Y-37932D01*
X31599Y-37894D01*
X31628Y-37875D01*
X31685Y-37875D01*
X31714Y-37894D01*
X31728Y-37932D01*
X31728Y-37970D01*
X31585Y-38008D01*
X31814Y-37875D02*
X31928Y-37875D01*
X31857Y-37741D02*
X31857Y-38084D01*
X31871Y-38122D01*
X31899Y-38141D01*
X31928Y-38141D01*
X32242Y-38122D02*
X32285Y-38141D01*
X32357Y-38141D01*
X32385Y-38122D01*
X32399Y-38103D01*
X32414Y-38065D01*
X32414Y-38027D01*
X32399Y-37989D01*
X32385Y-37970D01*
X32357Y-37951D01*
X32299Y-37932D01*
X32271Y-37913D01*
X32257Y-37894D01*
X32242Y-37856D01*
X32242Y-37818D01*
X32257Y-37780D01*
X32271Y-37760D01*
X32299Y-37741D01*
X32371Y-37741D01*
X32414Y-37760D01*
X32542Y-38141D02*
X32542Y-37875D01*
X32542Y-37741D02*
X32528Y-37760D01*
X32542Y-37780D01*
X32557Y-37760D01*
X32542Y-37741D01*
X32542Y-37780D01*
X32814Y-37875D02*
X32814Y-38199D01*
X32799Y-38237D01*
X32785Y-38256D01*
X32757Y-38275D01*
X32714Y-38275D01*
X32685Y-38256D01*
X32814Y-38122D02*
X32785Y-38141D01*
X32728Y-38141D01*
X32699Y-38122D01*
X32685Y-38103D01*
X32671Y-38065D01*
X32671Y-37951D01*
X32685Y-37913D01*
X32699Y-37894D01*
X32728Y-37875D01*
X32785Y-37875D01*
X32814Y-37894D01*
X32957Y-37875D02*
X32957Y-38141D01*
X32957Y-37913D02*
X32971Y-37894D01*
X32999Y-37875D01*
X33042Y-37875D01*
X33071Y-37894D01*
X33085Y-37932D01*
X33085Y-38141D01*
X33357Y-38141D02*
X33357Y-37932D01*
X33342Y-37894D01*
X33314Y-37875D01*
X33257Y-37875D01*
X33228Y-37894D01*
X33357Y-38122D02*
X33328Y-38141D01*
X33257Y-38141D01*
X33228Y-38122D01*
X33214Y-38084D01*
X33214Y-38046D01*
X33228Y-38008D01*
X33257Y-37989D01*
X33328Y-37989D01*
X33357Y-37970D01*
X33542Y-38141D02*
X33514Y-38122D01*
X33500Y-38084D01*
X33500Y-37741D01*
X29185Y-38761D02*
X29014Y-38761D01*
X29099Y-38761D02*
X29099Y-38361D01*
X29071Y-38419D01*
X29042Y-38457D01*
X29014Y-38476D01*
X29314Y-38609D02*
X29542Y-38609D01*
X29671Y-38400D02*
X29685Y-38380D01*
X29714Y-38361D01*
X29785Y-38361D01*
X29814Y-38380D01*
X29828Y-38400D01*
X29842Y-38438D01*
X29842Y-38476D01*
X29828Y-38533D01*
X29657Y-38761D01*
X29842Y-38761D01*
X29971Y-38552D02*
X30199Y-38552D01*
X30199Y-38666D02*
X29971Y-38666D01*
X30342Y-38761D02*
X30342Y-38361D01*
X30514Y-38761D01*
X30514Y-38361D01*
X30700Y-38533D02*
X30671Y-38514D01*
X30657Y-38495D01*
X30642Y-38457D01*
X30642Y-38438D01*
X30657Y-38400D01*
X30671Y-38380D01*
X30700Y-38361D01*
X30757Y-38361D01*
X30785Y-38380D01*
X30800Y-38400D01*
X30814Y-38438D01*
X30814Y-38457D01*
X30800Y-38495D01*
X30785Y-38514D01*
X30757Y-38533D01*
X30700Y-38533D01*
X30671Y-38552D01*
X30657Y-38571D01*
X30642Y-38609D01*
X30642Y-38685D01*
X30657Y-38723D01*
X30671Y-38742D01*
X30700Y-38761D01*
X30757Y-38761D01*
X30785Y-38742D01*
X30800Y-38723D01*
X30814Y-38685D01*
X30814Y-38609D01*
X30800Y-38571D01*
X30785Y-38552D01*
X30757Y-38533D01*
X30899Y-38361D02*
X30999Y-38761D01*
X31099Y-38361D01*
X31200Y-38552D02*
X31300Y-38552D01*
X31342Y-38761D02*
X31200Y-38761D01*
X31200Y-38361D01*
X31342Y-38361D01*
X31471Y-38761D02*
X31471Y-38361D01*
X31571Y-38647D01*
X31671Y-38361D01*
X31671Y-38761D01*
X32028Y-38742D02*
X32071Y-38761D01*
X32142Y-38761D01*
X32171Y-38742D01*
X32185Y-38723D01*
X32199Y-38685D01*
X32199Y-38647D01*
X32185Y-38609D01*
X32171Y-38590D01*
X32142Y-38571D01*
X32085Y-38552D01*
X32057Y-38533D01*
X32042Y-38514D01*
X32028Y-38476D01*
X32028Y-38438D01*
X32042Y-38400D01*
X32057Y-38380D01*
X32085Y-38361D01*
X32157Y-38361D01*
X32199Y-38380D01*
X32285Y-38495D02*
X32399Y-38495D01*
X32328Y-38361D02*
X32328Y-38704D01*
X32342Y-38742D01*
X32371Y-38761D01*
X32399Y-38761D01*
X32628Y-38761D02*
X32628Y-38361D01*
X32628Y-38742D02*
X32600Y-38761D01*
X32542Y-38761D01*
X32514Y-38742D01*
X32500Y-38723D01*
X32485Y-38685D01*
X32485Y-38571D01*
X32500Y-38533D01*
X32514Y-38514D01*
X32542Y-38495D01*
X32600Y-38495D01*
X32628Y-38514D01*
X32814Y-38361D02*
X32814Y-38457D01*
X32742Y-38419D02*
X32814Y-38457D01*
X32885Y-38419D01*
X32771Y-38533D02*
X32814Y-38457D01*
X32857Y-38533D01*
X29014Y-39020D02*
X29028Y-39000D01*
X29057Y-38981D01*
X29128Y-38981D01*
X29157Y-39000D01*
X29171Y-39020D01*
X29185Y-39058D01*
X29185Y-39096D01*
X29171Y-39153D01*
X28999Y-39381D01*
X29185Y-39381D01*
X29314Y-39229D02*
X29542Y-39229D01*
X29657Y-38981D02*
X29842Y-38981D01*
X29742Y-39134D01*
X29785Y-39134D01*
X29814Y-39153D01*
X29828Y-39172D01*
X29842Y-39210D01*
X29842Y-39305D01*
X29828Y-39343D01*
X29814Y-39362D01*
X29785Y-39381D01*
X29699Y-39381D01*
X29671Y-39362D01*
X29657Y-39343D01*
X29971Y-39172D02*
X30199Y-39172D01*
X30199Y-39286D02*
X29971Y-39286D01*
X30342Y-39381D02*
X30342Y-38981D01*
X30514Y-39381D02*
X30385Y-39153D01*
X30514Y-38981D02*
X30342Y-39210D01*
X30685Y-39381D02*
X30657Y-39362D01*
X30642Y-39343D01*
X30628Y-39305D01*
X30628Y-39191D01*
X30642Y-39153D01*
X30657Y-39134D01*
X30685Y-39115D01*
X30728Y-39115D01*
X30757Y-39134D01*
X30771Y-39153D01*
X30785Y-39191D01*
X30785Y-39305D01*
X30771Y-39343D01*
X30757Y-39362D01*
X30728Y-39381D01*
X30685Y-39381D01*
X30914Y-39115D02*
X30914Y-39381D01*
X30914Y-39153D02*
X30928Y-39134D01*
X30957Y-39115D01*
X31000Y-39115D01*
X31028Y-39134D01*
X31042Y-39172D01*
X31042Y-39381D01*
X31142Y-39115D02*
X31257Y-39115D01*
X31185Y-38981D02*
X31185Y-39324D01*
X31200Y-39362D01*
X31228Y-39381D01*
X31257Y-39381D01*
X31357Y-39381D02*
X31357Y-39115D01*
X31357Y-39191D02*
X31371Y-39153D01*
X31385Y-39134D01*
X31414Y-39115D01*
X31442Y-39115D01*
X31585Y-39381D02*
X31557Y-39362D01*
X31542Y-39343D01*
X31528Y-39305D01*
X31528Y-39191D01*
X31542Y-39153D01*
X31557Y-39134D01*
X31585Y-39115D01*
X31628Y-39115D01*
X31657Y-39134D01*
X31671Y-39153D01*
X31685Y-39191D01*
X31685Y-39305D01*
X31671Y-39343D01*
X31657Y-39362D01*
X31628Y-39381D01*
X31585Y-39381D01*
X31814Y-39115D02*
X31814Y-39381D01*
X31814Y-39153D02*
X31828Y-39134D01*
X31857Y-39115D01*
X31900Y-39115D01*
X31928Y-39134D01*
X31942Y-39172D01*
X31942Y-39381D01*
X32300Y-39362D02*
X32342Y-39381D01*
X32414Y-39381D01*
X32442Y-39362D01*
X32457Y-39343D01*
X32471Y-39305D01*
X32471Y-39267D01*
X32457Y-39229D01*
X32442Y-39210D01*
X32414Y-39191D01*
X32357Y-39172D01*
X32328Y-39153D01*
X32314Y-39134D01*
X32300Y-39096D01*
X32300Y-39058D01*
X32314Y-39020D01*
X32328Y-39000D01*
X32357Y-38981D01*
X32428Y-38981D01*
X32471Y-39000D01*
X32557Y-39115D02*
X32671Y-39115D01*
X32600Y-38981D02*
X32600Y-39324D01*
X32614Y-39362D01*
X32642Y-39381D01*
X32671Y-39381D01*
X32900Y-39381D02*
X32900Y-38981D01*
X32900Y-39362D02*
X32871Y-39381D01*
X32814Y-39381D01*
X32785Y-39362D01*
X32771Y-39343D01*
X32757Y-39305D01*
X32757Y-39191D01*
X32771Y-39153D01*
X32785Y-39134D01*
X32814Y-39115D01*
X32871Y-39115D01*
X32900Y-39134D01*
G54D11*
X59942Y-51019D02*
X60400Y-51019D01*
X60171Y-51323D02*
X60171Y-50714D01*
X60628Y-50523D02*
X61000Y-50523D01*
X60800Y-50828D01*
X60885Y-50828D01*
X60942Y-50866D01*
X60971Y-50904D01*
X61000Y-50980D01*
X61000Y-51171D01*
X60971Y-51247D01*
X60942Y-51285D01*
X60885Y-51323D01*
X60714Y-51323D01*
X60657Y-51285D01*
X60628Y-51247D01*
X61171Y-50523D02*
X61371Y-51323D01*
X61571Y-50523D01*
X61714Y-50523D02*
X62085Y-50523D01*
X61885Y-50828D01*
X61971Y-50828D01*
X62028Y-50866D01*
X62057Y-50904D01*
X62085Y-50980D01*
X62085Y-51171D01*
X62057Y-51247D01*
X62028Y-51285D01*
X61971Y-51323D01*
X61800Y-51323D01*
X61742Y-51285D01*
X61714Y-51247D01*
X56228Y-51019D02*
X56685Y-51019D01*
X56457Y-51323D02*
X56457Y-50714D01*
X57257Y-50523D02*
X56971Y-50523D01*
X56942Y-50904D01*
X56971Y-50866D01*
X57028Y-50828D01*
X57171Y-50828D01*
X57228Y-50866D01*
X57257Y-50904D01*
X57285Y-50980D01*
X57285Y-51171D01*
X57257Y-51247D01*
X57228Y-51285D01*
X57171Y-51323D01*
X57028Y-51323D01*
X56971Y-51285D01*
X56942Y-51247D01*
X57457Y-50523D02*
X57657Y-51323D01*
X57857Y-50523D01*
X24114Y-57285D02*
X24200Y-57323D01*
X24342Y-57323D01*
X24400Y-57285D01*
X24428Y-57247D01*
X24457Y-57171D01*
X24457Y-57095D01*
X24428Y-57019D01*
X24400Y-56980D01*
X24342Y-56942D01*
X24228Y-56904D01*
X24171Y-56866D01*
X24142Y-56828D01*
X24114Y-56752D01*
X24114Y-56676D01*
X24142Y-56600D01*
X24171Y-56561D01*
X24228Y-56523D01*
X24371Y-56523D01*
X24457Y-56561D01*
X24714Y-57323D02*
X24714Y-56523D01*
X24857Y-56523D01*
X24942Y-56561D01*
X25000Y-56638D01*
X25028Y-56714D01*
X25057Y-56866D01*
X25057Y-56980D01*
X25028Y-57133D01*
X25000Y-57209D01*
X24942Y-57285D01*
X24857Y-57323D01*
X24714Y-57323D01*
X25742Y-57095D02*
X26028Y-57095D01*
X25685Y-57323D02*
X25885Y-56523D01*
X26085Y-57323D01*
X26542Y-57285D02*
X26485Y-57323D01*
X26371Y-57323D01*
X26314Y-57285D01*
X26285Y-57247D01*
X26257Y-57171D01*
X26257Y-56942D01*
X26285Y-56866D01*
X26314Y-56828D01*
X26371Y-56790D01*
X26485Y-56790D01*
X26542Y-56828D01*
X26714Y-56790D02*
X26942Y-56790D01*
X26800Y-56523D02*
X26800Y-57209D01*
X26828Y-57285D01*
X26885Y-57323D01*
X26942Y-57323D01*
G54D14*
X30000Y-24000D02*
X29500Y-24500D01*
X29500Y-23500D02*
X30000Y-24000D01*
X29500Y-24500D02*
X29500Y-23500D01*
X49500Y-21500D02*
X49500Y-25500D01*
X50500Y-21500D02*
X50500Y-25500D01*
X51500Y-21500D02*
X51500Y-25500D01*
X52500Y-25500D02*
X52500Y-21500D01*
X52500Y-21500D02*
X52500Y-25500D01*
X49000Y-25500D02*
X48500Y-25000D01*
X48500Y-26000D02*
X49000Y-25500D01*
X48500Y-25000D02*
X48500Y-26000D01*
G54D15*
X35347Y-33259D02*
X35652Y-33259D01*
X35500Y-33411D02*
X35500Y-33107D01*
X35347Y-31259D02*
X35652Y-31259D01*
X35500Y-31411D02*
X35500Y-31107D01*
X30347Y-33259D02*
X30652Y-33259D01*
X30500Y-33411D02*
X30500Y-33107D01*
X30347Y-31259D02*
X30652Y-31259D01*
X30500Y-31411D02*
X30500Y-31107D01*
X29097Y-26509D02*
X29402Y-26509D01*
X29250Y-26661D02*
X29250Y-26357D01*
G54D11*
X43885Y-56523D02*
X43600Y-56523D01*
X43571Y-56904D01*
X43600Y-56866D01*
X43657Y-56828D01*
X43800Y-56828D01*
X43857Y-56866D01*
X43885Y-56904D01*
X43914Y-56980D01*
X43914Y-57171D01*
X43885Y-57247D01*
X43857Y-57285D01*
X43800Y-57323D01*
X43657Y-57323D01*
X43600Y-57285D01*
X43571Y-57247D01*
X44085Y-56523D02*
X44285Y-57323D01*
X44485Y-56523D01*
G54D14*
X39500Y-59000D02*
X39500Y-58500D01*
X39750Y-58750D02*
X39250Y-58750D01*
X42750Y-58750D02*
X42250Y-58750D01*
X40000Y-58750D02*
X41000Y-58750D01*
X41183Y-58754D02*
G75*
G03X41183Y-58754I-189J0D01*
G74*
G01*
X41067Y-58756D02*
G75*
G03X41067Y-58756I-75J0D01*
G74*
G01*
X40000Y-58750D02*
G75*
G03X40000Y-58750I-500J0D01*
G74*
G01*
X41000Y-59250D02*
G75*
G03X41500Y-58750I0J500D01*
G74*
G01*
X41500Y-58750D02*
G75*
G03X41000Y-58250I-500J0D01*
G74*
G01*
X42000Y-58750D02*
X41500Y-58750D01*
X43000Y-58750D02*
G75*
G03X43000Y-58750I-500J0D01*
G74*
G01*
G54D15*
X72011Y-24209D02*
X72011Y-24171D01*
X72030Y-24133D01*
X72050Y-24114D01*
X72088Y-24095D01*
X72164Y-24076D01*
X72259Y-24076D01*
X72335Y-24095D01*
X72373Y-24114D01*
X72392Y-24133D01*
X72411Y-24171D01*
X72411Y-24209D01*
X72392Y-24247D01*
X72373Y-24266D01*
X72335Y-24285D01*
X72259Y-24304D01*
X72164Y-24304D01*
X72088Y-24285D01*
X72050Y-24266D01*
X72030Y-24247D01*
X72011Y-24209D01*
X72145Y-23733D02*
X72411Y-23733D01*
X71992Y-23828D02*
X72278Y-23923D01*
X72278Y-23676D01*
X71011Y-24209D02*
X71011Y-24171D01*
X71030Y-24133D01*
X71050Y-24114D01*
X71088Y-24095D01*
X71164Y-24076D01*
X71259Y-24076D01*
X71335Y-24095D01*
X71373Y-24114D01*
X71392Y-24133D01*
X71411Y-24171D01*
X71411Y-24209D01*
X71392Y-24247D01*
X71373Y-24266D01*
X71335Y-24285D01*
X71259Y-24304D01*
X71164Y-24304D01*
X71088Y-24285D01*
X71050Y-24266D01*
X71030Y-24247D01*
X71011Y-24209D01*
X71183Y-23847D02*
X71164Y-23885D01*
X71145Y-23904D01*
X71107Y-23923D01*
X71088Y-23923D01*
X71050Y-23904D01*
X71030Y-23885D01*
X71011Y-23847D01*
X71011Y-23771D01*
X71030Y-23733D01*
X71050Y-23714D01*
X71088Y-23695D01*
X71107Y-23695D01*
X71145Y-23714D01*
X71164Y-23733D01*
X71183Y-23771D01*
X71183Y-23847D01*
X71202Y-23885D01*
X71221Y-23904D01*
X71259Y-23923D01*
X71335Y-23923D01*
X71373Y-23904D01*
X71392Y-23885D01*
X71411Y-23847D01*
X71411Y-23771D01*
X71392Y-23733D01*
X71373Y-23714D01*
X71335Y-23695D01*
X71259Y-23695D01*
X71221Y-23714D01*
X71202Y-23733D01*
X71183Y-23771D01*
X70411Y-24076D02*
X70411Y-24304D01*
X70411Y-24190D02*
X70011Y-24190D01*
X70069Y-24228D01*
X70107Y-24266D01*
X70126Y-24304D01*
X70011Y-23828D02*
X70011Y-23790D01*
X70030Y-23752D01*
X70050Y-23733D01*
X70088Y-23714D01*
X70164Y-23695D01*
X70259Y-23695D01*
X70335Y-23714D01*
X70373Y-23733D01*
X70392Y-23752D01*
X70411Y-23790D01*
X70411Y-23828D01*
X70392Y-23866D01*
X70373Y-23885D01*
X70335Y-23904D01*
X70259Y-23923D01*
X70164Y-23923D01*
X70088Y-23904D01*
X70050Y-23885D01*
X70030Y-23866D01*
X70011Y-23828D01*
X69050Y-24304D02*
X69030Y-24285D01*
X69011Y-24247D01*
X69011Y-24152D01*
X69030Y-24114D01*
X69050Y-24095D01*
X69088Y-24076D01*
X69126Y-24076D01*
X69183Y-24095D01*
X69411Y-24323D01*
X69411Y-24076D01*
X69011Y-23828D02*
X69011Y-23790D01*
X69030Y-23752D01*
X69050Y-23733D01*
X69088Y-23714D01*
X69164Y-23695D01*
X69259Y-23695D01*
X69335Y-23714D01*
X69373Y-23733D01*
X69392Y-23752D01*
X69411Y-23790D01*
X69411Y-23828D01*
X69392Y-23866D01*
X69373Y-23885D01*
X69335Y-23904D01*
X69259Y-23923D01*
X69164Y-23923D01*
X69088Y-23904D01*
X69050Y-23885D01*
X69030Y-23866D01*
X69011Y-23828D01*
X68145Y-24114D02*
X68411Y-24114D01*
X67992Y-24209D02*
X68278Y-24304D01*
X68278Y-24057D01*
X68011Y-23828D02*
X68011Y-23790D01*
X68030Y-23752D01*
X68050Y-23733D01*
X68088Y-23714D01*
X68164Y-23695D01*
X68259Y-23695D01*
X68335Y-23714D01*
X68373Y-23733D01*
X68392Y-23752D01*
X68411Y-23790D01*
X68411Y-23828D01*
X68392Y-23866D01*
X68373Y-23885D01*
X68335Y-23904D01*
X68259Y-23923D01*
X68164Y-23923D01*
X68088Y-23904D01*
X68050Y-23885D01*
X68030Y-23866D01*
X68011Y-23828D01*
X67183Y-24228D02*
X67164Y-24266D01*
X67145Y-24285D01*
X67107Y-24304D01*
X67088Y-24304D01*
X67050Y-24285D01*
X67030Y-24266D01*
X67011Y-24228D01*
X67011Y-24152D01*
X67030Y-24114D01*
X67050Y-24095D01*
X67088Y-24076D01*
X67107Y-24076D01*
X67145Y-24095D01*
X67164Y-24114D01*
X67183Y-24152D01*
X67183Y-24228D01*
X67202Y-24266D01*
X67221Y-24285D01*
X67259Y-24304D01*
X67335Y-24304D01*
X67373Y-24285D01*
X67392Y-24266D01*
X67411Y-24228D01*
X67411Y-24152D01*
X67392Y-24114D01*
X67373Y-24095D01*
X67335Y-24076D01*
X67259Y-24076D01*
X67221Y-24095D01*
X67202Y-24114D01*
X67183Y-24152D01*
X67011Y-23828D02*
X67011Y-23790D01*
X67030Y-23752D01*
X67050Y-23733D01*
X67088Y-23714D01*
X67164Y-23695D01*
X67259Y-23695D01*
X67335Y-23714D01*
X67373Y-23733D01*
X67392Y-23752D01*
X67411Y-23790D01*
X67411Y-23828D01*
X67392Y-23866D01*
X67373Y-23885D01*
X67335Y-23904D01*
X67259Y-23923D01*
X67164Y-23923D01*
X67088Y-23904D01*
X67050Y-23885D01*
X67030Y-23866D01*
X67011Y-23828D01*
G54D11*
X52371Y-56723D02*
X52371Y-55923D01*
X52714Y-56723D01*
X52714Y-55923D01*
X53085Y-56266D02*
X53028Y-56228D01*
X52999Y-56190D01*
X52971Y-56114D01*
X52971Y-56076D01*
X52999Y-56000D01*
X53028Y-55961D01*
X53085Y-55923D01*
X53199Y-55923D01*
X53257Y-55961D01*
X53285Y-56000D01*
X53314Y-56076D01*
X53314Y-56114D01*
X53285Y-56190D01*
X53257Y-56228D01*
X53199Y-56266D01*
X53085Y-56266D01*
X53028Y-56304D01*
X52999Y-56342D01*
X52971Y-56419D01*
X52971Y-56571D01*
X52999Y-56647D01*
X53028Y-56685D01*
X53085Y-56723D01*
X53199Y-56723D01*
X53257Y-56685D01*
X53285Y-56647D01*
X53314Y-56571D01*
X53314Y-56419D01*
X53285Y-56342D01*
X53257Y-56304D01*
X53199Y-56266D01*
X53485Y-55923D02*
X53685Y-56723D01*
X53885Y-55923D01*
X54085Y-56304D02*
X54285Y-56304D01*
X54371Y-56723D02*
X54085Y-56723D01*
X54085Y-55923D01*
X54371Y-55923D01*
X54628Y-56723D02*
X54628Y-55923D01*
X54828Y-56495D01*
X55028Y-55923D01*
X55028Y-56723D01*
X55771Y-56723D02*
X55771Y-55923D01*
X56000Y-55923D01*
X56057Y-55961D01*
X56085Y-56000D01*
X56114Y-56076D01*
X56114Y-56190D01*
X56085Y-56266D01*
X56057Y-56304D01*
X56000Y-56342D01*
X55771Y-56342D01*
X56371Y-56723D02*
X56371Y-56190D01*
X56371Y-56342D02*
X56400Y-56266D01*
X56428Y-56228D01*
X56485Y-56190D01*
X56542Y-56190D01*
X56828Y-56723D02*
X56771Y-56685D01*
X56742Y-56647D01*
X56714Y-56571D01*
X56714Y-56342D01*
X56742Y-56266D01*
X56771Y-56228D01*
X56828Y-56190D01*
X56914Y-56190D01*
X56971Y-56228D01*
X57000Y-56266D01*
X57028Y-56342D01*
X57028Y-56571D01*
X57000Y-56647D01*
X56971Y-56685D01*
X56914Y-56723D01*
X56828Y-56723D01*
X57285Y-56190D02*
X57285Y-56876D01*
X57257Y-56952D01*
X57200Y-56990D01*
X57171Y-56990D01*
X57285Y-55923D02*
X57257Y-55961D01*
X57285Y-56000D01*
X57314Y-55961D01*
X57285Y-55923D01*
X57285Y-56000D01*
X57800Y-56685D02*
X57742Y-56723D01*
X57628Y-56723D01*
X57571Y-56685D01*
X57542Y-56609D01*
X57542Y-56304D01*
X57571Y-56228D01*
X57628Y-56190D01*
X57742Y-56190D01*
X57800Y-56228D01*
X57828Y-56304D01*
X57828Y-56380D01*
X57542Y-56457D01*
X58342Y-56685D02*
X58285Y-56723D01*
X58171Y-56723D01*
X58114Y-56685D01*
X58085Y-56647D01*
X58057Y-56571D01*
X58057Y-56342D01*
X58085Y-56266D01*
X58114Y-56228D01*
X58171Y-56190D01*
X58285Y-56190D01*
X58342Y-56228D01*
X58514Y-56190D02*
X58742Y-56190D01*
X58600Y-55923D02*
X58600Y-56609D01*
X58628Y-56685D01*
X58685Y-56723D01*
X58742Y-56723D01*
X59400Y-56419D02*
X59857Y-56419D01*
X60600Y-56723D02*
X60600Y-55923D01*
X60828Y-55923D01*
X60885Y-55961D01*
X60914Y-56000D01*
X60942Y-56076D01*
X60942Y-56190D01*
X60914Y-56266D01*
X60885Y-56304D01*
X60828Y-56342D01*
X60600Y-56342D01*
X61200Y-56723D02*
X61200Y-56190D01*
X61200Y-56342D02*
X61228Y-56266D01*
X61257Y-56228D01*
X61314Y-56190D01*
X61371Y-56190D01*
X61657Y-56723D02*
X61600Y-56685D01*
X61571Y-56647D01*
X61542Y-56571D01*
X61542Y-56342D01*
X61571Y-56266D01*
X61600Y-56228D01*
X61657Y-56190D01*
X61742Y-56190D01*
X61800Y-56228D01*
X61828Y-56266D01*
X61857Y-56342D01*
X61857Y-56571D01*
X61828Y-56647D01*
X61800Y-56685D01*
X61742Y-56723D01*
X61657Y-56723D01*
X62114Y-56190D02*
X62114Y-56990D01*
X62114Y-56228D02*
X62171Y-56190D01*
X62285Y-56190D01*
X62342Y-56228D01*
X62371Y-56266D01*
X62400Y-56342D01*
X62400Y-56571D01*
X62371Y-56647D01*
X62342Y-56685D01*
X62285Y-56723D01*
X62171Y-56723D01*
X62114Y-56685D01*
X62657Y-56723D02*
X62657Y-55923D01*
X63057Y-55923D02*
X63171Y-55923D01*
X63228Y-55961D01*
X63285Y-56038D01*
X63314Y-56190D01*
X63314Y-56457D01*
X63285Y-56609D01*
X63228Y-56685D01*
X63171Y-56723D01*
X63057Y-56723D01*
X63000Y-56685D01*
X62942Y-56609D01*
X62914Y-56457D01*
X62914Y-56190D01*
X62942Y-56038D01*
X63000Y-55961D01*
X63057Y-55923D01*
X63942Y-55923D02*
X64142Y-56723D01*
X64342Y-55923D01*
X64514Y-56000D02*
X64542Y-55961D01*
X64600Y-55923D01*
X64742Y-55923D01*
X64800Y-55961D01*
X64828Y-56000D01*
X64857Y-56076D01*
X64857Y-56152D01*
X64828Y-56266D01*
X64485Y-56723D01*
X64857Y-56723D01*
X52571Y-57240D02*
X52599Y-57201D01*
X52657Y-57163D01*
X52799Y-57163D01*
X52857Y-57201D01*
X52885Y-57240D01*
X52914Y-57316D01*
X52914Y-57392D01*
X52885Y-57506D01*
X52542Y-57963D01*
X52914Y-57963D01*
X53171Y-57887D02*
X53199Y-57925D01*
X53171Y-57963D01*
X53142Y-57925D01*
X53171Y-57887D01*
X53171Y-57963D01*
X53571Y-57163D02*
X53628Y-57163D01*
X53685Y-57201D01*
X53714Y-57240D01*
X53742Y-57316D01*
X53771Y-57468D01*
X53771Y-57659D01*
X53742Y-57811D01*
X53714Y-57887D01*
X53685Y-57925D01*
X53628Y-57963D01*
X53571Y-57963D01*
X53514Y-57925D01*
X53485Y-57887D01*
X53457Y-57811D01*
X53428Y-57659D01*
X53428Y-57468D01*
X53457Y-57316D01*
X53485Y-57240D01*
X53514Y-57201D01*
X53571Y-57163D01*
X54342Y-57963D02*
X53999Y-57963D01*
X54171Y-57963D02*
X54171Y-57163D01*
X54114Y-57278D01*
X54057Y-57354D01*
X53999Y-57392D01*
X55628Y-57163D02*
X55685Y-57163D01*
X55742Y-57201D01*
X55771Y-57240D01*
X55799Y-57316D01*
X55828Y-57468D01*
X55828Y-57659D01*
X55799Y-57811D01*
X55771Y-57887D01*
X55742Y-57925D01*
X55685Y-57963D01*
X55628Y-57963D01*
X55571Y-57925D01*
X55542Y-57887D01*
X55514Y-57811D01*
X55485Y-57659D01*
X55485Y-57468D01*
X55514Y-57316D01*
X55542Y-57240D01*
X55571Y-57201D01*
X55628Y-57163D01*
X56114Y-57963D02*
X56228Y-57963D01*
X56285Y-57925D01*
X56314Y-57887D01*
X56371Y-57773D01*
X56400Y-57620D01*
X56400Y-57316D01*
X56371Y-57240D01*
X56342Y-57201D01*
X56285Y-57163D01*
X56171Y-57163D01*
X56114Y-57201D01*
X56085Y-57240D01*
X56057Y-57316D01*
X56057Y-57506D01*
X56085Y-57582D01*
X56114Y-57620D01*
X56171Y-57659D01*
X56285Y-57659D01*
X56342Y-57620D01*
X56371Y-57582D01*
X56400Y-57506D01*
X56657Y-57659D02*
X57114Y-57659D01*
X57600Y-57544D02*
X57400Y-57544D01*
X57400Y-57963D02*
X57400Y-57163D01*
X57685Y-57163D01*
X58142Y-57925D02*
X58085Y-57963D01*
X57971Y-57963D01*
X57914Y-57925D01*
X57885Y-57849D01*
X57885Y-57544D01*
X57914Y-57468D01*
X57971Y-57430D01*
X58085Y-57430D01*
X58142Y-57468D01*
X58171Y-57544D01*
X58171Y-57620D01*
X57885Y-57697D01*
X58428Y-57963D02*
X58428Y-57163D01*
X58428Y-57468D02*
X58485Y-57430D01*
X58600Y-57430D01*
X58657Y-57468D01*
X58685Y-57506D01*
X58714Y-57582D01*
X58714Y-57811D01*
X58685Y-57887D01*
X58657Y-57925D01*
X58600Y-57963D01*
X58485Y-57963D01*
X58428Y-57925D01*
X58971Y-57659D02*
X59428Y-57659D01*
X59685Y-57240D02*
X59714Y-57201D01*
X59771Y-57163D01*
X59914Y-57163D01*
X59971Y-57201D01*
X60000Y-57240D01*
X60028Y-57316D01*
X60028Y-57392D01*
X60000Y-57506D01*
X59657Y-57963D01*
X60028Y-57963D01*
X60400Y-57163D02*
X60457Y-57163D01*
X60514Y-57201D01*
X60542Y-57240D01*
X60571Y-57316D01*
X60600Y-57468D01*
X60600Y-57659D01*
X60571Y-57811D01*
X60542Y-57887D01*
X60514Y-57925D01*
X60457Y-57963D01*
X60400Y-57963D01*
X60342Y-57925D01*
X60314Y-57887D01*
X60285Y-57811D01*
X60257Y-57659D01*
X60257Y-57468D01*
X60285Y-57316D01*
X60314Y-57240D01*
X60342Y-57201D01*
X60400Y-57163D01*
X61171Y-57963D02*
X60828Y-57963D01*
X61000Y-57963D02*
X61000Y-57163D01*
X60942Y-57278D01*
X60885Y-57354D01*
X60828Y-57392D01*
X61685Y-57430D02*
X61685Y-57963D01*
X61542Y-57125D02*
X61400Y-57697D01*
X61771Y-57697D01*
X62857Y-57163D02*
X63000Y-57963D01*
X63114Y-57392D01*
X63228Y-57963D01*
X63371Y-57163D01*
X63800Y-57544D02*
X63885Y-57582D01*
X63914Y-57620D01*
X63942Y-57697D01*
X63942Y-57811D01*
X63914Y-57887D01*
X63885Y-57925D01*
X63828Y-57963D01*
X63600Y-57963D01*
X63600Y-57163D01*
X63800Y-57163D01*
X63857Y-57201D01*
X63885Y-57240D01*
X63914Y-57316D01*
X63914Y-57392D01*
X63885Y-57468D01*
X63857Y-57506D01*
X63800Y-57544D01*
X63600Y-57544D01*
X64142Y-57163D02*
X64285Y-57963D01*
X64400Y-57392D01*
X64514Y-57963D01*
X64657Y-57163D01*
G54D15*
X51895Y-23542D02*
X52009Y-23238D01*
X52123Y-23542D01*
X52161Y-22819D02*
X51971Y-22952D01*
X52161Y-23047D02*
X51761Y-23047D01*
X51761Y-22895D01*
X51780Y-22857D01*
X51800Y-22838D01*
X51838Y-22819D01*
X51895Y-22819D01*
X51933Y-22838D01*
X51952Y-22857D01*
X51971Y-22895D01*
X51971Y-23047D01*
X51761Y-22685D02*
X52161Y-22419D01*
X51761Y-22419D02*
X52161Y-22685D01*
X50895Y-23190D02*
X51009Y-23495D01*
X51123Y-23190D01*
X50761Y-23057D02*
X50761Y-22828D01*
X51161Y-22942D02*
X50761Y-22942D01*
X50761Y-22733D02*
X51161Y-22466D01*
X50761Y-22466D02*
X51161Y-22733D01*
X50161Y-23247D02*
X49971Y-23380D01*
X50161Y-23476D02*
X49761Y-23476D01*
X49761Y-23323D01*
X49780Y-23285D01*
X49800Y-23266D01*
X49838Y-23247D01*
X49895Y-23247D01*
X49933Y-23266D01*
X49952Y-23285D01*
X49971Y-23323D01*
X49971Y-23476D01*
X49952Y-23076D02*
X49952Y-22942D01*
X50161Y-22885D02*
X50161Y-23076D01*
X49761Y-23076D01*
X49761Y-22885D01*
X50142Y-22733D02*
X50161Y-22676D01*
X50161Y-22580D01*
X50142Y-22542D01*
X50123Y-22523D01*
X50085Y-22504D01*
X50047Y-22504D01*
X50009Y-22523D01*
X49990Y-22542D01*
X49971Y-22580D01*
X49952Y-22657D01*
X49933Y-22695D01*
X49914Y-22714D01*
X49876Y-22733D01*
X49838Y-22733D01*
X49800Y-22714D01*
X49780Y-22695D01*
X49761Y-22657D01*
X49761Y-22561D01*
X49780Y-22504D01*
X49640Y-23571D02*
X49640Y-22428D01*
X48761Y-23514D02*
X49161Y-23380D01*
X48761Y-23247D01*
X49142Y-23133D02*
X49161Y-23076D01*
X49161Y-22980D01*
X49142Y-22942D01*
X49123Y-22923D01*
X49085Y-22904D01*
X49047Y-22904D01*
X49009Y-22923D01*
X48990Y-22942D01*
X48971Y-22980D01*
X48952Y-23057D01*
X48933Y-23095D01*
X48914Y-23114D01*
X48876Y-23133D01*
X48838Y-23133D01*
X48800Y-23114D01*
X48780Y-23095D01*
X48761Y-23057D01*
X48761Y-22961D01*
X48780Y-22904D01*
X49142Y-22752D02*
X49161Y-22695D01*
X49161Y-22600D01*
X49142Y-22561D01*
X49123Y-22542D01*
X49085Y-22523D01*
X49047Y-22523D01*
X49009Y-22542D01*
X48990Y-22561D01*
X48971Y-22600D01*
X48952Y-22676D01*
X48933Y-22714D01*
X48914Y-22733D01*
X48876Y-22752D01*
X48838Y-22752D01*
X48800Y-22733D01*
X48780Y-22714D01*
X48761Y-22676D01*
X48761Y-22580D01*
X48780Y-22523D01*
G54D14*
X20000Y-59700D02*
X83000Y-59700D01*
X20000Y-20300D02*
X20000Y-59700D01*
X83000Y-20300D02*
X20000Y-20300D01*
X83000Y-59700D02*
X83000Y-20300D01*
G54D13*
X53362Y-53000D02*
G75*
G03X53362Y-53000I-2362J0D01*
G74*
G01*
G54D11*
X37000Y-48500D02*
X36000Y-48500D01*
X36000Y-48500D02*
X36000Y-38500D01*
X36000Y-38500D02*
X37000Y-38500D01*
X37000Y-38500D02*
X37000Y-48500D01*
X37000Y-47500D02*
X36000Y-47500D01*
G54D15*
X41500Y-39000D02*
X41300Y-39000D01*
X38500Y-39000D02*
X38700Y-39000D01*
X38700Y-39000D02*
X38700Y-39400D01*
X38700Y-39400D02*
X41300Y-39400D01*
X41300Y-39400D02*
X41300Y-38600D01*
X41300Y-38600D02*
X38700Y-38600D01*
X38700Y-38600D02*
X38700Y-39000D01*
X41300Y-39200D02*
X41100Y-39400D01*
X41500Y-43000D02*
X41300Y-43000D01*
X38500Y-43000D02*
X38700Y-43000D01*
X38700Y-43000D02*
X38700Y-43400D01*
X38700Y-43400D02*
X41300Y-43400D01*
X41300Y-43400D02*
X41300Y-42600D01*
X41300Y-42600D02*
X38700Y-42600D01*
X38700Y-42600D02*
X38700Y-43000D01*
X41300Y-43200D02*
X41100Y-43400D01*
X41500Y-40000D02*
X41300Y-40000D01*
X38500Y-40000D02*
X38700Y-40000D01*
X38700Y-40000D02*
X38700Y-40400D01*
X38700Y-40400D02*
X41300Y-40400D01*
X41300Y-40400D02*
X41300Y-39600D01*
X41300Y-39600D02*
X38700Y-39600D01*
X38700Y-39600D02*
X38700Y-40000D01*
X41300Y-40200D02*
X41100Y-40400D01*
X41500Y-41000D02*
X41300Y-41000D01*
X38500Y-41000D02*
X38700Y-41000D01*
X38700Y-41000D02*
X38700Y-41400D01*
X38700Y-41400D02*
X41300Y-41400D01*
X41300Y-41400D02*
X41300Y-40600D01*
X41300Y-40600D02*
X38700Y-40600D01*
X38700Y-40600D02*
X38700Y-41000D01*
X41300Y-41200D02*
X41100Y-41400D01*
X41500Y-42000D02*
X41300Y-42000D01*
X38500Y-42000D02*
X38700Y-42000D01*
X38700Y-42000D02*
X38700Y-42400D01*
X38700Y-42400D02*
X41300Y-42400D01*
X41300Y-42400D02*
X41300Y-41600D01*
X41300Y-41600D02*
X38700Y-41600D01*
X38700Y-41600D02*
X38700Y-42000D01*
X41300Y-42200D02*
X41100Y-42400D01*
X41500Y-44000D02*
X41300Y-44000D01*
X38500Y-44000D02*
X38700Y-44000D01*
X38700Y-44000D02*
X38700Y-44400D01*
X38700Y-44400D02*
X41300Y-44400D01*
X41300Y-44400D02*
X41300Y-43600D01*
X41300Y-43600D02*
X38700Y-43600D01*
X38700Y-43600D02*
X38700Y-44000D01*
X41300Y-44200D02*
X41100Y-44400D01*
X41500Y-45000D02*
X41300Y-45000D01*
X38500Y-45000D02*
X38700Y-45000D01*
X38700Y-45000D02*
X38700Y-45400D01*
X38700Y-45400D02*
X41300Y-45400D01*
X41300Y-45400D02*
X41300Y-44600D01*
X41300Y-44600D02*
X38700Y-44600D01*
X38700Y-44600D02*
X38700Y-45000D01*
X41300Y-45200D02*
X41100Y-45400D01*
X41500Y-46000D02*
X41300Y-46000D01*
X38500Y-46000D02*
X38700Y-46000D01*
X38700Y-46000D02*
X38700Y-46400D01*
X38700Y-46400D02*
X41300Y-46400D01*
X41300Y-46400D02*
X41300Y-45600D01*
X41300Y-45600D02*
X38700Y-45600D01*
X38700Y-45600D02*
X38700Y-46000D01*
X41300Y-46200D02*
X41100Y-46400D01*
X41500Y-47000D02*
X41300Y-47000D01*
X38500Y-47000D02*
X38700Y-47000D01*
X38700Y-47000D02*
X38700Y-47400D01*
X38700Y-47400D02*
X41300Y-47400D01*
X41300Y-47400D02*
X41300Y-46600D01*
X41300Y-46600D02*
X38700Y-46600D01*
X38700Y-46600D02*
X38700Y-47000D01*
X41300Y-47200D02*
X41100Y-47400D01*
X41500Y-48000D02*
X41300Y-48000D01*
X38500Y-48000D02*
X38700Y-48000D01*
X38700Y-48000D02*
X38700Y-48400D01*
X38700Y-48400D02*
X41300Y-48400D01*
X41300Y-48400D02*
X41300Y-47600D01*
X41300Y-47600D02*
X38700Y-47600D01*
X38700Y-47600D02*
X38700Y-48000D01*
X41300Y-48200D02*
X41100Y-48400D01*
X45500Y-40000D02*
X45300Y-40000D01*
X42500Y-40000D02*
X42700Y-40000D01*
X42700Y-40000D02*
X42700Y-40400D01*
X42700Y-40400D02*
X45300Y-40400D01*
X45300Y-40400D02*
X45300Y-39600D01*
X45300Y-39600D02*
X42700Y-39600D01*
X42700Y-39600D02*
X42700Y-40000D01*
X45300Y-40200D02*
X45100Y-40400D01*
X45500Y-41000D02*
X45300Y-41000D01*
X42500Y-41000D02*
X42700Y-41000D01*
X42700Y-41000D02*
X42700Y-41400D01*
X42700Y-41400D02*
X45300Y-41400D01*
X45300Y-41400D02*
X45300Y-40600D01*
X45300Y-40600D02*
X42700Y-40600D01*
X42700Y-40600D02*
X42700Y-41000D01*
X45300Y-41200D02*
X45100Y-41400D01*
X42500Y-42000D02*
X42700Y-42000D01*
X45500Y-42000D02*
X45300Y-42000D01*
X45300Y-42000D02*
X45300Y-41600D01*
X45300Y-41600D02*
X42700Y-41600D01*
X42700Y-41600D02*
X42700Y-42400D01*
X42700Y-42400D02*
X45300Y-42400D01*
X45300Y-42400D02*
X45300Y-42000D01*
X42700Y-41800D02*
X42900Y-41600D01*
X45500Y-43000D02*
X45300Y-43000D01*
X42500Y-43000D02*
X42700Y-43000D01*
X42700Y-43000D02*
X42700Y-43400D01*
X42700Y-43400D02*
X45300Y-43400D01*
X45300Y-43400D02*
X45300Y-42600D01*
X45300Y-42600D02*
X42700Y-42600D01*
X42700Y-42600D02*
X42700Y-43000D01*
X45300Y-43200D02*
X45100Y-43400D01*
X42500Y-44000D02*
X42700Y-44000D01*
X45500Y-44000D02*
X45300Y-44000D01*
X45300Y-44000D02*
X45300Y-43600D01*
X45300Y-43600D02*
X42700Y-43600D01*
X42700Y-43600D02*
X42700Y-44400D01*
X42700Y-44400D02*
X45300Y-44400D01*
X45300Y-44400D02*
X45300Y-44000D01*
X42700Y-43800D02*
X42900Y-43600D01*
X45500Y-45000D02*
X45300Y-45000D01*
X42500Y-45000D02*
X42700Y-45000D01*
X42700Y-45000D02*
X42700Y-45400D01*
X42700Y-45400D02*
X45300Y-45400D01*
X45300Y-45400D02*
X45300Y-44600D01*
X45300Y-44600D02*
X42700Y-44600D01*
X42700Y-44600D02*
X42700Y-45000D01*
X45300Y-45200D02*
X45100Y-45400D01*
X45500Y-46000D02*
X45300Y-46000D01*
X42500Y-46000D02*
X42700Y-46000D01*
X42700Y-46000D02*
X42700Y-46400D01*
X42700Y-46400D02*
X45300Y-46400D01*
X45300Y-46400D02*
X45300Y-45600D01*
X45300Y-45600D02*
X42700Y-45600D01*
X42700Y-45600D02*
X42700Y-46000D01*
X45300Y-46200D02*
X45100Y-46400D01*
X42500Y-47000D02*
X42700Y-47000D01*
X45500Y-47000D02*
X45300Y-47000D01*
X45300Y-47000D02*
X45300Y-46600D01*
X45300Y-46600D02*
X42700Y-46600D01*
X42700Y-46600D02*
X42700Y-47400D01*
X42700Y-47400D02*
X45300Y-47400D01*
X45300Y-47400D02*
X45300Y-47000D01*
X42700Y-46800D02*
X42900Y-46600D01*
X42500Y-48000D02*
X42700Y-48000D01*
X45500Y-48000D02*
X45300Y-48000D01*
X45300Y-48000D02*
X45300Y-47600D01*
X45300Y-47600D02*
X42700Y-47600D01*
X42700Y-47600D02*
X42700Y-48400D01*
X42700Y-48400D02*
X45300Y-48400D01*
X45300Y-48400D02*
X45300Y-48000D01*
X42700Y-47800D02*
X42900Y-47600D01*
X41500Y-38000D02*
X41300Y-38000D01*
X38500Y-38000D02*
X38700Y-38000D01*
X38700Y-38000D02*
X38700Y-38400D01*
X38700Y-38400D02*
X41300Y-38400D01*
X41300Y-38400D02*
X41300Y-37600D01*
X41300Y-37600D02*
X38700Y-37600D01*
X38700Y-37600D02*
X38700Y-38000D01*
X41300Y-38200D02*
X41100Y-38400D01*
G54D11*
X66750Y-21500D02*
X72750Y-21500D01*
X72750Y-21500D02*
X72750Y-23500D01*
X72750Y-23500D02*
X66750Y-23500D01*
X66750Y-23500D02*
X66750Y-21500D01*
G54D16*
X53000Y-26000D02*
X49000Y-26000D01*
X53000Y-25000D02*
X49000Y-25000D01*
X49000Y-25000D02*
X49000Y-26000D01*
X53000Y-26000D02*
X53000Y-25000D01*
G54D13*
X55500Y-25000D02*
X55500Y-24000D01*
X55500Y-24000D02*
X58500Y-24000D01*
X58500Y-24000D02*
X58500Y-25000D01*
X58500Y-25000D02*
X55500Y-25000D01*
X56500Y-24000D02*
X56500Y-25000D01*
X55500Y-22500D02*
X55500Y-21500D01*
X55500Y-21500D02*
X58500Y-21500D01*
X58500Y-21500D02*
X58500Y-22500D01*
X58500Y-22500D02*
X55500Y-22500D01*
X56500Y-21500D02*
X56500Y-22500D01*
G54D11*
X43000Y-31500D02*
X43000Y-29500D01*
X44000Y-31500D02*
X44000Y-29500D01*
X45000Y-31500D02*
X45000Y-29500D01*
X42500Y-29500D02*
X46000Y-29500D01*
X46000Y-29500D02*
X46000Y-23500D01*
X46000Y-23500D02*
X42000Y-23500D01*
X42500Y-29500D02*
X42000Y-29500D01*
X45500Y-26500D02*
X42000Y-26500D01*
X45500Y-26500D02*
X46000Y-26500D01*
X42000Y-29500D02*
X42000Y-23500D01*
G54D16*
X57500Y-28500D02*
X57500Y-29000D01*
X57500Y-29000D02*
X56500Y-29000D01*
X56500Y-29000D02*
X56500Y-28500D01*
X58000Y-28500D02*
X58000Y-32500D01*
X58000Y-32500D02*
X56000Y-32500D01*
X56000Y-32500D02*
X56000Y-28500D01*
X56000Y-28500D02*
X58000Y-28500D01*
G54D14*
X51500Y-28000D02*
X51500Y-28500D01*
X51500Y-28500D02*
X50500Y-28500D01*
X50500Y-28500D02*
X50500Y-28000D01*
X53500Y-28000D02*
X53500Y-49000D01*
X53500Y-49000D02*
X48500Y-49000D01*
X48500Y-49000D02*
X48500Y-28000D01*
X48500Y-28000D02*
X53500Y-28000D01*
X66000Y-26000D02*
X66500Y-26000D01*
X66500Y-26000D02*
X66500Y-27000D01*
X66500Y-27000D02*
X66000Y-27000D01*
X66000Y-25500D02*
X77000Y-25500D01*
X77000Y-25500D02*
X77000Y-27500D01*
X77000Y-27500D02*
X66000Y-27500D01*
X66000Y-27500D02*
X66000Y-25500D01*
X66000Y-36000D02*
X66500Y-36000D01*
X66500Y-36000D02*
X66500Y-37000D01*
X66500Y-37000D02*
X66000Y-37000D01*
X66000Y-35500D02*
X77000Y-35500D01*
X77000Y-35500D02*
X77000Y-37500D01*
X77000Y-37500D02*
X66000Y-37500D01*
X66000Y-37500D02*
X66000Y-35500D01*
X66000Y-31000D02*
X66500Y-31000D01*
X66500Y-31000D02*
X66500Y-32000D01*
X66500Y-32000D02*
X66000Y-32000D01*
X66000Y-30500D02*
X77000Y-30500D01*
X77000Y-30500D02*
X77000Y-32500D01*
X77000Y-32500D02*
X66000Y-32500D01*
X66000Y-32500D02*
X66000Y-30500D01*
X66000Y-41000D02*
X66500Y-41000D01*
X66500Y-41000D02*
X66500Y-42000D01*
X66500Y-42000D02*
X66000Y-42000D01*
X66000Y-40500D02*
X77000Y-40500D01*
X77000Y-40500D02*
X77000Y-42500D01*
X77000Y-42500D02*
X66000Y-42500D01*
X66000Y-42500D02*
X66000Y-40500D01*
X30500Y-28000D02*
X30500Y-28000D01*
X30500Y-28000D02*
X31000Y-28000D01*
X31000Y-28000D02*
X31000Y-29000D01*
X31000Y-29000D02*
X30500Y-29000D01*
X30500Y-27500D02*
X39500Y-27500D01*
X39500Y-27500D02*
X39500Y-29500D01*
X39500Y-29500D02*
X30500Y-29500D01*
X30500Y-29500D02*
X30500Y-27500D01*
X69000Y-50500D02*
X77000Y-50500D01*
X77000Y-52500D02*
X69000Y-52500D01*
X69000Y-52500D02*
X69000Y-50500D01*
X69000Y-51000D02*
X69500Y-51000D01*
X69500Y-51000D02*
X69500Y-52000D01*
X69500Y-52000D02*
X69000Y-52000D01*
X77000Y-50500D02*
X77000Y-52500D01*
X69000Y-55500D02*
X77000Y-55500D01*
X77000Y-57500D02*
X69000Y-57500D01*
X69000Y-57500D02*
X69000Y-55500D01*
X69000Y-56000D02*
X69500Y-56000D01*
X69500Y-56000D02*
X69500Y-57000D01*
X69500Y-57000D02*
X69000Y-57000D01*
X77000Y-55500D02*
X77000Y-57500D01*
X69000Y-45500D02*
X77000Y-45500D01*
X77000Y-47500D02*
X69000Y-47500D01*
X69000Y-47500D02*
X69000Y-45500D01*
X69000Y-46000D02*
X69500Y-46000D01*
X69500Y-46000D02*
X69500Y-47000D01*
X69500Y-47000D02*
X69000Y-47000D01*
X77000Y-45500D02*
X77000Y-47500D01*
X63000Y-25500D02*
X63000Y-33500D01*
X61000Y-33500D02*
X61000Y-25500D01*
X61000Y-25500D02*
X63000Y-25500D01*
X62500Y-25500D02*
X62500Y-26000D01*
X62500Y-26000D02*
X61500Y-26000D01*
X61500Y-26000D02*
X61500Y-25500D01*
X63000Y-33500D02*
X61000Y-33500D01*
X63000Y-35000D02*
X63000Y-43000D01*
X61000Y-43000D02*
X61000Y-35000D01*
X61000Y-35000D02*
X63000Y-35000D01*
X62500Y-35000D02*
X62500Y-35500D01*
X62500Y-35500D02*
X61500Y-35500D01*
X61500Y-35500D02*
X61500Y-35000D01*
X63000Y-43000D02*
X61000Y-43000D01*
X59567Y-47496D02*
X59567Y-42280D01*
X55433Y-47496D02*
X55433Y-42280D01*
X55250Y-42250D02*
X59750Y-42250D01*
X59750Y-42250D02*
X59750Y-42000D01*
X55250Y-42000D02*
X55250Y-42250D01*
X55433Y-47535D02*
X59567Y-47535D01*
X58469Y-41000D02*
X58469Y-42000D01*
X56540Y-41000D02*
X56540Y-42000D01*
X55250Y-42000D02*
X59750Y-42000D01*
X20000Y-35744D02*
X25118Y-35744D01*
X25118Y-35744D02*
X25118Y-41256D01*
X25118Y-41256D02*
X20000Y-41256D01*
X20000Y-41256D02*
X20000Y-35744D01*
X26400Y-34100D02*
X20000Y-34100D01*
X26400Y-21900D02*
X20000Y-21900D01*
X26400Y-34100D02*
X26400Y-21900D01*
X20000Y-31400D02*
X17600Y-31400D01*
X17600Y-31400D02*
X17600Y-24600D01*
X17600Y-24600D02*
X20000Y-24600D01*
X20000Y-34100D02*
X20000Y-21900D01*
G54D11*
X68900Y-55100D02*
X68900Y-57900D01*
X68900Y-57900D02*
X68100Y-57900D01*
X68100Y-57900D02*
X68100Y-55100D01*
X68100Y-55100D02*
X68900Y-55100D01*
X68700Y-55100D02*
X68900Y-55300D01*
X55400Y-36600D02*
X55400Y-39400D01*
X55400Y-39400D02*
X54600Y-39400D01*
X54600Y-39400D02*
X54600Y-36600D01*
X54600Y-36600D02*
X55400Y-36600D01*
X55200Y-36600D02*
X55400Y-36800D01*
X65100Y-42900D02*
X65100Y-40100D01*
X65100Y-40100D02*
X65900Y-40100D01*
X65900Y-40100D02*
X65900Y-42900D01*
X65900Y-42900D02*
X65100Y-42900D01*
X65300Y-42900D02*
X65100Y-42700D01*
X46600Y-40400D02*
X46600Y-37600D01*
X46600Y-37600D02*
X47400Y-37600D01*
X47400Y-37600D02*
X47400Y-40400D01*
X47400Y-40400D02*
X46600Y-40400D01*
X46800Y-40400D02*
X46600Y-40200D01*
X68900Y-50100D02*
X68900Y-52900D01*
X68900Y-52900D02*
X68100Y-52900D01*
X68100Y-52900D02*
X68100Y-50100D01*
X68100Y-50100D02*
X68900Y-50100D01*
X68700Y-50100D02*
X68900Y-50300D01*
X68900Y-45100D02*
X68900Y-47900D01*
X68900Y-47900D02*
X68100Y-47900D01*
X68100Y-47900D02*
X68100Y-45100D01*
X68100Y-45100D02*
X68900Y-45100D01*
X68700Y-45100D02*
X68900Y-45300D01*
X58400Y-28400D02*
X55600Y-28400D01*
X55600Y-28400D02*
X55600Y-27600D01*
X55600Y-27600D02*
X58400Y-27600D01*
X58400Y-27600D02*
X58400Y-28400D01*
X58400Y-28200D02*
X58200Y-28400D01*
X26600Y-39900D02*
X26600Y-37100D01*
X26600Y-37100D02*
X27400Y-37100D01*
X27400Y-37100D02*
X27400Y-39900D01*
X27400Y-39900D02*
X26600Y-39900D01*
X26800Y-39900D02*
X26600Y-39700D01*
X43400Y-33100D02*
X43400Y-35900D01*
X43400Y-35900D02*
X42600Y-35900D01*
X42600Y-35900D02*
X42600Y-33100D01*
X42600Y-33100D02*
X43400Y-33100D01*
X43200Y-33100D02*
X43400Y-33300D01*
X45100Y-54100D02*
X47900Y-54100D01*
X47900Y-54100D02*
X47900Y-54900D01*
X47900Y-54900D02*
X45100Y-54900D01*
X45100Y-54900D02*
X45100Y-54100D01*
X45100Y-54300D02*
X45300Y-54100D01*
G54D17*
X77250Y-23000D02*
G75*
G03X77250Y-23000I-1250J0D01*
G74*
G01*
X47501Y-51500D02*
G75*
G03X47501Y-51500I-1001J0D01*
G74*
G01*
X58501Y-38000D02*
G75*
G03X58501Y-38000I-1001J0D01*
G74*
G01*
X37501Y-53000D02*
G75*
G03X37501Y-53000I-1001J0D01*
G74*
G01*
G54D11*
X31100Y-33100D02*
X33900Y-33100D01*
X33900Y-33100D02*
X33900Y-33900D01*
X33900Y-33900D02*
X31100Y-33900D01*
X31100Y-33900D02*
X31100Y-33100D01*
X31100Y-33300D02*
X31300Y-33100D01*
X36100Y-31100D02*
X38900Y-31100D01*
X38900Y-31100D02*
X38900Y-31900D01*
X38900Y-31900D02*
X36100Y-31900D01*
X36100Y-31900D02*
X36100Y-31100D01*
X36100Y-31300D02*
X36300Y-31100D01*
X65900Y-30100D02*
X65900Y-32900D01*
X65900Y-32900D02*
X65100Y-32900D01*
X65100Y-32900D02*
X65100Y-30100D01*
X65100Y-30100D02*
X65900Y-30100D01*
X65700Y-30100D02*
X65900Y-30300D01*
X36100Y-33100D02*
X38900Y-33100D01*
X38900Y-33100D02*
X38900Y-33900D01*
X38900Y-33900D02*
X36100Y-33900D01*
X36100Y-33900D02*
X36100Y-33100D01*
X36100Y-33300D02*
X36300Y-33100D01*
X65900Y-25100D02*
X65900Y-27900D01*
X65900Y-27900D02*
X65100Y-27900D01*
X65100Y-27900D02*
X65100Y-25100D01*
X65100Y-25100D02*
X65900Y-25100D01*
X65700Y-25100D02*
X65900Y-25300D01*
X31100Y-31100D02*
X33900Y-31100D01*
X33900Y-31100D02*
X33900Y-31900D01*
X33900Y-31900D02*
X31100Y-31900D01*
X31100Y-31900D02*
X31100Y-31100D01*
X31100Y-31300D02*
X31300Y-31100D01*
X65900Y-35100D02*
X65900Y-37900D01*
X65900Y-37900D02*
X65100Y-37900D01*
X65100Y-37900D02*
X65100Y-35100D01*
X65100Y-35100D02*
X65900Y-35100D01*
X65700Y-35100D02*
X65900Y-35300D01*
G54D14*
X31215Y-54908D02*
X31215Y-53057D01*
X31215Y-43490D02*
X31215Y-43943D01*
X31215Y-43943D02*
X31215Y-43982D01*
X31215Y-43490D02*
X19995Y-43490D01*
X19995Y-43490D02*
X19995Y-54908D01*
X19995Y-54908D02*
X31215Y-54908D01*
G54D11*
X29900Y-27100D02*
X29900Y-29900D01*
X29900Y-29900D02*
X29100Y-29900D01*
X29100Y-29900D02*
X29100Y-27100D01*
X29100Y-27100D02*
X29900Y-27100D01*
X29700Y-27100D02*
X29900Y-27300D01*
G54D14*
X30000Y-25250D02*
X30000Y-21750D01*
X38000Y-21750D02*
X38000Y-25250D01*
X30000Y-21750D02*
X38000Y-21750D01*
X38000Y-25250D02*
X30000Y-25250D01*
X39300Y-57300D02*
X39300Y-57600D01*
X39300Y-57600D02*
X42700Y-57600D01*
X42700Y-57600D02*
X42700Y-57300D01*
X39300Y-56100D02*
X42700Y-56100D01*
X39300Y-52300D02*
X42700Y-52300D01*
X42700Y-57300D02*
X42700Y-52300D01*
X39300Y-57300D02*
X39300Y-52300D01*
G54D17*
X37750Y-56000D02*
G75*
G03X37750Y-56000I-1250J0D01*
G74*
G01*
G54D11*
X81000Y-58500D02*
X83500Y-58500D01*
X83500Y-58500D02*
X83500Y-57000D01*
X83500Y-57000D02*
X85000Y-57000D01*
X85000Y-57000D02*
X85000Y-23000D01*
X85000Y-23000D02*
X83500Y-23000D01*
X83500Y-23000D02*
X83500Y-21500D01*
X83500Y-21500D02*
X81000Y-21500D01*
X81000Y-21500D02*
X81000Y-23500D01*
X81000Y-23500D02*
X82000Y-23500D01*
X82000Y-23500D02*
X82000Y-56500D01*
X82000Y-56500D02*
X81000Y-56500D01*
X81000Y-56500D02*
X81000Y-58500D01*
X81000Y-21500D02*
X78000Y-21500D01*
X78000Y-21500D02*
X78000Y-58500D01*
X78000Y-58500D02*
X81000Y-58500D01*
G54D15*
X59000Y-51500D02*
X59000Y-51700D01*
X59000Y-54500D02*
X59000Y-54300D01*
X59000Y-54300D02*
X59400Y-54300D01*
X59400Y-54300D02*
X59400Y-51700D01*
X59400Y-51700D02*
X58600Y-51700D01*
X58600Y-51700D02*
X58600Y-54300D01*
X58600Y-54300D02*
X59000Y-54300D01*
X59200Y-51700D02*
X59400Y-51900D01*
X63000Y-51500D02*
X63000Y-51700D01*
X63000Y-54500D02*
X63000Y-54300D01*
X63000Y-54300D02*
X63400Y-54300D01*
X63400Y-54300D02*
X63400Y-51700D01*
X63400Y-51700D02*
X62600Y-51700D01*
X62600Y-51700D02*
X62600Y-54300D01*
X62600Y-54300D02*
X63000Y-54300D01*
X63200Y-51700D02*
X63400Y-51900D01*
X59250Y-35000D02*
X59250Y-35200D01*
X59250Y-38000D02*
X59250Y-37800D01*
X59250Y-37800D02*
X59650Y-37800D01*
X59650Y-37800D02*
X59650Y-35200D01*
X59650Y-35200D02*
X58850Y-35200D01*
X58850Y-35200D02*
X58850Y-37800D01*
X58850Y-37800D02*
X59250Y-37800D01*
X59450Y-35200D02*
X59650Y-35400D01*
G54D17*
X64500Y-46500D02*
G75*
G03X64500Y-46500I-1000J0D01*
G74*
G01*
X65000Y-48000D02*
X62000Y-48000D01*
X62000Y-48000D02*
X62000Y-45000D01*
X62000Y-45000D02*
X65000Y-45000D01*
X65000Y-48000D02*
X65000Y-45000D01*
G54D11*
X23500Y-57000D02*
G75*
G03X23500Y-57000I-1000J0D01*
G74*
G01*
X23500Y-56750D02*
X23250Y-56750D01*
X23250Y-56750D02*
X23250Y-57250D01*
X23250Y-57250D02*
X23500Y-57250D01*
X58000Y-53000D02*
G75*
G03X58000Y-53000I-1000J0D01*
G74*
G01*
X58000Y-52750D02*
X57750Y-52750D01*
X57750Y-52750D02*
X57750Y-53250D01*
X57750Y-53250D02*
X58000Y-53250D01*
X62000Y-53000D02*
G75*
G03X62000Y-53000I-1000J0D01*
G74*
G01*
X62000Y-52750D02*
X61750Y-52750D01*
X61750Y-52750D02*
X61750Y-53250D01*
X61750Y-53250D02*
X62000Y-53250D01*
X58000Y-35500D02*
G75*
G03X58000Y-35500I-1000J0D01*
G74*
G01*
X58000Y-35250D02*
X57750Y-35250D01*
X57750Y-35250D02*
X57750Y-35750D01*
X57750Y-35750D02*
X58000Y-35750D01*
G54D15*
X47100Y-34500D02*
G75*
G03X47100Y-34500I-1600J0D01*
G74*
G01*
X50495Y-55892D02*
X50552Y-55911D01*
X50647Y-55911D01*
X50685Y-55892D01*
X50704Y-55873D01*
X50723Y-55835D01*
X50723Y-55797D01*
X50704Y-55759D01*
X50685Y-55740D01*
X50647Y-55721D01*
X50571Y-55702D01*
X50533Y-55683D01*
X50514Y-55664D01*
X50495Y-55626D01*
X50495Y-55588D01*
X50514Y-55550D01*
X50533Y-55530D01*
X50571Y-55511D01*
X50666Y-55511D01*
X50723Y-55530D01*
X50895Y-55911D02*
X50895Y-55511D01*
X51047Y-55511D01*
X51085Y-55530D01*
X51104Y-55550D01*
X51123Y-55588D01*
X51123Y-55645D01*
X51104Y-55683D01*
X51085Y-55702D01*
X51047Y-55721D01*
X50895Y-55721D01*
X51504Y-55911D02*
X51276Y-55911D01*
X51390Y-55911D02*
X51390Y-55511D01*
X51352Y-55569D01*
X51314Y-55607D01*
X51276Y-55626D01*
G54D13*
X50052Y-50392D02*
X50093Y-50411D01*
X50164Y-50411D01*
X50195Y-50392D01*
X50212Y-50373D01*
X50231Y-50335D01*
X50236Y-50297D01*
X50226Y-50259D01*
X50214Y-50240D01*
X50188Y-50221D01*
X50133Y-50202D01*
X50107Y-50183D01*
X50095Y-50164D01*
X50086Y-50126D01*
X50090Y-50088D01*
X50109Y-50050D01*
X50126Y-50030D01*
X50157Y-50011D01*
X50228Y-50011D01*
X50269Y-50030D01*
X50350Y-50411D02*
X50400Y-50011D01*
X50514Y-50011D01*
X50540Y-50030D01*
X50552Y-50050D01*
X50562Y-50088D01*
X50555Y-50145D01*
X50536Y-50183D01*
X50519Y-50202D01*
X50488Y-50221D01*
X50374Y-50221D01*
X50676Y-50202D02*
X50776Y-50202D01*
X50793Y-50411D02*
X50650Y-50411D01*
X50700Y-50011D01*
X50843Y-50011D01*
X50921Y-50297D02*
X51064Y-50297D01*
X50878Y-50411D02*
X51028Y-50011D01*
X51078Y-50411D01*
X51178Y-50411D02*
X51228Y-50011D01*
X51350Y-50411D02*
X51250Y-50183D01*
X51400Y-50011D02*
X51200Y-50240D01*
X51505Y-50202D02*
X51605Y-50202D01*
X51621Y-50411D02*
X51478Y-50411D01*
X51528Y-50011D01*
X51671Y-50011D01*
X51921Y-50411D02*
X51845Y-50221D01*
X51750Y-50411D02*
X51800Y-50011D01*
X51914Y-50011D01*
X51940Y-50030D01*
X51952Y-50050D01*
X51962Y-50088D01*
X51955Y-50145D01*
X51936Y-50183D01*
X51919Y-50202D01*
X51888Y-50221D01*
X51774Y-50221D01*
G54D15*
X53597Y-53009D02*
X53902Y-53009D01*
X53750Y-53161D02*
X53750Y-52857D01*
G54D18*
X35775Y-46285D02*
X35451Y-46428D01*
X35775Y-46529D02*
X35094Y-46529D01*
X35094Y-46366D01*
X35127Y-46326D01*
X35159Y-46305D01*
X35224Y-46285D01*
X35321Y-46285D01*
X35386Y-46305D01*
X35418Y-46326D01*
X35451Y-46366D01*
X35451Y-46529D01*
X35775Y-45857D02*
X35451Y-46000D01*
X35775Y-46101D02*
X35094Y-46101D01*
X35094Y-45938D01*
X35127Y-45898D01*
X35159Y-45877D01*
X35224Y-45857D01*
X35321Y-45857D01*
X35386Y-45877D01*
X35418Y-45898D01*
X35451Y-45938D01*
X35451Y-46101D01*
X35775Y-45449D02*
X35775Y-45694D01*
X35775Y-45572D02*
X35094Y-45572D01*
X35191Y-45612D01*
X35256Y-45653D01*
X35289Y-45694D01*
G54D11*
G54D16*
X35742Y-41276D02*
X35742Y-41504D01*
X35742Y-41390D02*
X35142Y-41390D01*
X35228Y-41428D01*
X35285Y-41466D01*
X35314Y-41504D01*
X35142Y-41028D02*
X35142Y-40990D01*
X35171Y-40952D01*
X35200Y-40933D01*
X35257Y-40914D01*
X35371Y-40895D01*
X35514Y-40895D01*
X35628Y-40914D01*
X35685Y-40933D01*
X35714Y-40952D01*
X35742Y-40990D01*
X35742Y-41028D01*
X35714Y-41066D01*
X35685Y-41085D01*
X35628Y-41104D01*
X35514Y-41123D01*
X35371Y-41123D01*
X35257Y-41104D01*
X35200Y-41085D01*
X35171Y-41066D01*
X35142Y-41028D01*
X35742Y-40723D02*
X35142Y-40723D01*
X35742Y-40495D02*
X35400Y-40666D01*
X35142Y-40495D02*
X35485Y-40723D01*
G54D11*
G54D17*
X39358Y-39101D02*
X39275Y-38982D01*
X39215Y-39101D02*
X39215Y-38851D01*
X39310Y-38851D01*
X39334Y-38863D01*
X39346Y-38875D01*
X39358Y-38898D01*
X39358Y-38934D01*
X39346Y-38958D01*
X39334Y-38970D01*
X39310Y-38982D01*
X39215Y-38982D01*
X39453Y-38875D02*
X39465Y-38863D01*
X39489Y-38851D01*
X39548Y-38851D01*
X39572Y-38863D01*
X39584Y-38875D01*
X39596Y-38898D01*
X39596Y-38922D01*
X39584Y-38958D01*
X39441Y-39101D01*
X39596Y-39101D01*
X40290Y-38875D02*
X40302Y-38863D01*
X40326Y-38851D01*
X40385Y-38851D01*
X40409Y-38863D01*
X40421Y-38875D01*
X40433Y-38898D01*
X40433Y-38922D01*
X40421Y-38958D01*
X40278Y-39101D01*
X40433Y-39101D01*
X40516Y-38851D02*
X40683Y-38851D01*
X40576Y-39101D01*
X40826Y-38851D02*
X40850Y-38851D01*
X40873Y-38863D01*
X40885Y-38875D01*
X40897Y-38898D01*
X40909Y-38946D01*
X40909Y-39005D01*
X40897Y-39053D01*
X40885Y-39077D01*
X40873Y-39089D01*
X40850Y-39101D01*
X40826Y-39101D01*
X40802Y-39089D01*
X40790Y-39077D01*
X40778Y-39053D01*
X40766Y-39005D01*
X40766Y-38946D01*
X40778Y-38898D01*
X40790Y-38875D01*
X40802Y-38863D01*
X40826Y-38851D01*
X39358Y-43101D02*
X39275Y-42982D01*
X39215Y-43101D02*
X39215Y-42851D01*
X39310Y-42851D01*
X39334Y-42863D01*
X39346Y-42875D01*
X39358Y-42898D01*
X39358Y-42934D01*
X39346Y-42958D01*
X39334Y-42970D01*
X39310Y-42982D01*
X39215Y-42982D01*
X39572Y-42851D02*
X39525Y-42851D01*
X39501Y-42863D01*
X39489Y-42875D01*
X39465Y-42910D01*
X39453Y-42958D01*
X39453Y-43053D01*
X39465Y-43077D01*
X39477Y-43089D01*
X39501Y-43101D01*
X39548Y-43101D01*
X39572Y-43089D01*
X39584Y-43077D01*
X39596Y-43053D01*
X39596Y-42994D01*
X39584Y-42970D01*
X39572Y-42958D01*
X39548Y-42946D01*
X39501Y-42946D01*
X39477Y-42958D01*
X39465Y-42970D01*
X39453Y-42994D01*
X40421Y-42851D02*
X40302Y-42851D01*
X40290Y-42970D01*
X40302Y-42958D01*
X40326Y-42946D01*
X40385Y-42946D01*
X40409Y-42958D01*
X40421Y-42970D01*
X40433Y-42994D01*
X40433Y-43053D01*
X40421Y-43077D01*
X40409Y-43089D01*
X40385Y-43101D01*
X40326Y-43101D01*
X40302Y-43089D01*
X40290Y-43077D01*
X40671Y-43101D02*
X40528Y-43101D01*
X40600Y-43101D02*
X40600Y-42851D01*
X40576Y-42886D01*
X40552Y-42910D01*
X40528Y-42922D01*
X40826Y-42851D02*
X40850Y-42851D01*
X40873Y-42863D01*
X40885Y-42875D01*
X40897Y-42898D01*
X40909Y-42946D01*
X40909Y-43005D01*
X40897Y-43053D01*
X40885Y-43077D01*
X40873Y-43089D01*
X40850Y-43101D01*
X40826Y-43101D01*
X40802Y-43089D01*
X40790Y-43077D01*
X40778Y-43053D01*
X40766Y-43005D01*
X40766Y-42946D01*
X40778Y-42898D01*
X40790Y-42875D01*
X40802Y-42863D01*
X40826Y-42851D01*
X39358Y-40101D02*
X39275Y-39982D01*
X39215Y-40101D02*
X39215Y-39851D01*
X39310Y-39851D01*
X39334Y-39863D01*
X39346Y-39875D01*
X39358Y-39898D01*
X39358Y-39934D01*
X39346Y-39958D01*
X39334Y-39970D01*
X39310Y-39982D01*
X39215Y-39982D01*
X39441Y-39851D02*
X39596Y-39851D01*
X39513Y-39946D01*
X39548Y-39946D01*
X39572Y-39958D01*
X39584Y-39970D01*
X39596Y-39994D01*
X39596Y-40053D01*
X39584Y-40077D01*
X39572Y-40089D01*
X39548Y-40101D01*
X39477Y-40101D01*
X39453Y-40089D01*
X39441Y-40077D01*
X40290Y-39875D02*
X40302Y-39863D01*
X40326Y-39851D01*
X40385Y-39851D01*
X40409Y-39863D01*
X40421Y-39875D01*
X40433Y-39898D01*
X40433Y-39922D01*
X40421Y-39958D01*
X40278Y-40101D01*
X40433Y-40101D01*
X40516Y-39851D02*
X40683Y-39851D01*
X40576Y-40101D01*
X40826Y-39851D02*
X40850Y-39851D01*
X40873Y-39863D01*
X40885Y-39875D01*
X40897Y-39898D01*
X40909Y-39946D01*
X40909Y-40005D01*
X40897Y-40053D01*
X40885Y-40077D01*
X40873Y-40089D01*
X40850Y-40101D01*
X40826Y-40101D01*
X40802Y-40089D01*
X40790Y-40077D01*
X40778Y-40053D01*
X40766Y-40005D01*
X40766Y-39946D01*
X40778Y-39898D01*
X40790Y-39875D01*
X40802Y-39863D01*
X40826Y-39851D01*
X39358Y-41101D02*
X39275Y-40982D01*
X39215Y-41101D02*
X39215Y-40851D01*
X39310Y-40851D01*
X39334Y-40863D01*
X39346Y-40875D01*
X39358Y-40898D01*
X39358Y-40934D01*
X39346Y-40958D01*
X39334Y-40970D01*
X39310Y-40982D01*
X39215Y-40982D01*
X39572Y-40934D02*
X39572Y-41101D01*
X39513Y-40839D02*
X39453Y-41017D01*
X39608Y-41017D01*
X40290Y-40875D02*
X40302Y-40863D01*
X40326Y-40851D01*
X40385Y-40851D01*
X40409Y-40863D01*
X40421Y-40875D01*
X40433Y-40898D01*
X40433Y-40922D01*
X40421Y-40958D01*
X40278Y-41101D01*
X40433Y-41101D01*
X40516Y-40851D02*
X40683Y-40851D01*
X40576Y-41101D01*
X40826Y-40851D02*
X40850Y-40851D01*
X40873Y-40863D01*
X40885Y-40875D01*
X40897Y-40898D01*
X40909Y-40946D01*
X40909Y-41005D01*
X40897Y-41053D01*
X40885Y-41077D01*
X40873Y-41089D01*
X40850Y-41101D01*
X40826Y-41101D01*
X40802Y-41089D01*
X40790Y-41077D01*
X40778Y-41053D01*
X40766Y-41005D01*
X40766Y-40946D01*
X40778Y-40898D01*
X40790Y-40875D01*
X40802Y-40863D01*
X40826Y-40851D01*
X39358Y-42101D02*
X39275Y-41982D01*
X39215Y-42101D02*
X39215Y-41851D01*
X39310Y-41851D01*
X39334Y-41863D01*
X39346Y-41875D01*
X39358Y-41898D01*
X39358Y-41934D01*
X39346Y-41958D01*
X39334Y-41970D01*
X39310Y-41982D01*
X39215Y-41982D01*
X39584Y-41851D02*
X39465Y-41851D01*
X39453Y-41970D01*
X39465Y-41958D01*
X39489Y-41946D01*
X39548Y-41946D01*
X39572Y-41958D01*
X39584Y-41970D01*
X39596Y-41994D01*
X39596Y-42053D01*
X39584Y-42077D01*
X39572Y-42089D01*
X39548Y-42101D01*
X39489Y-42101D01*
X39465Y-42089D01*
X39453Y-42077D01*
X40290Y-41875D02*
X40302Y-41863D01*
X40326Y-41851D01*
X40385Y-41851D01*
X40409Y-41863D01*
X40421Y-41875D01*
X40433Y-41898D01*
X40433Y-41922D01*
X40421Y-41958D01*
X40278Y-42101D01*
X40433Y-42101D01*
X40516Y-41851D02*
X40683Y-41851D01*
X40576Y-42101D01*
X40826Y-41851D02*
X40850Y-41851D01*
X40873Y-41863D01*
X40885Y-41875D01*
X40897Y-41898D01*
X40909Y-41946D01*
X40909Y-42005D01*
X40897Y-42053D01*
X40885Y-42077D01*
X40873Y-42089D01*
X40850Y-42101D01*
X40826Y-42101D01*
X40802Y-42089D01*
X40790Y-42077D01*
X40778Y-42053D01*
X40766Y-42005D01*
X40766Y-41946D01*
X40778Y-41898D01*
X40790Y-41875D01*
X40802Y-41863D01*
X40826Y-41851D01*
X39358Y-44101D02*
X39275Y-43982D01*
X39215Y-44101D02*
X39215Y-43851D01*
X39310Y-43851D01*
X39334Y-43863D01*
X39346Y-43875D01*
X39358Y-43898D01*
X39358Y-43934D01*
X39346Y-43958D01*
X39334Y-43970D01*
X39310Y-43982D01*
X39215Y-43982D01*
X39441Y-43851D02*
X39608Y-43851D01*
X39501Y-44101D01*
X40421Y-43851D02*
X40302Y-43851D01*
X40290Y-43970D01*
X40302Y-43958D01*
X40326Y-43946D01*
X40385Y-43946D01*
X40409Y-43958D01*
X40421Y-43970D01*
X40433Y-43994D01*
X40433Y-44053D01*
X40421Y-44077D01*
X40409Y-44089D01*
X40385Y-44101D01*
X40326Y-44101D01*
X40302Y-44089D01*
X40290Y-44077D01*
X40671Y-44101D02*
X40528Y-44101D01*
X40600Y-44101D02*
X40600Y-43851D01*
X40576Y-43886D01*
X40552Y-43910D01*
X40528Y-43922D01*
X40826Y-43851D02*
X40850Y-43851D01*
X40873Y-43863D01*
X40885Y-43875D01*
X40897Y-43898D01*
X40909Y-43946D01*
X40909Y-44005D01*
X40897Y-44053D01*
X40885Y-44077D01*
X40873Y-44089D01*
X40850Y-44101D01*
X40826Y-44101D01*
X40802Y-44089D01*
X40790Y-44077D01*
X40778Y-44053D01*
X40766Y-44005D01*
X40766Y-43946D01*
X40778Y-43898D01*
X40790Y-43875D01*
X40802Y-43863D01*
X40826Y-43851D01*
X39358Y-45101D02*
X39275Y-44982D01*
X39215Y-45101D02*
X39215Y-44851D01*
X39310Y-44851D01*
X39334Y-44863D01*
X39346Y-44875D01*
X39358Y-44898D01*
X39358Y-44934D01*
X39346Y-44958D01*
X39334Y-44970D01*
X39310Y-44982D01*
X39215Y-44982D01*
X39501Y-44958D02*
X39477Y-44946D01*
X39465Y-44934D01*
X39453Y-44910D01*
X39453Y-44898D01*
X39465Y-44875D01*
X39477Y-44863D01*
X39501Y-44851D01*
X39548Y-44851D01*
X39572Y-44863D01*
X39584Y-44875D01*
X39596Y-44898D01*
X39596Y-44910D01*
X39584Y-44934D01*
X39572Y-44946D01*
X39548Y-44958D01*
X39501Y-44958D01*
X39477Y-44970D01*
X39465Y-44982D01*
X39453Y-45005D01*
X39453Y-45053D01*
X39465Y-45077D01*
X39477Y-45089D01*
X39501Y-45101D01*
X39548Y-45101D01*
X39572Y-45089D01*
X39584Y-45077D01*
X39596Y-45053D01*
X39596Y-45005D01*
X39584Y-44982D01*
X39572Y-44970D01*
X39548Y-44958D01*
X40421Y-44851D02*
X40302Y-44851D01*
X40290Y-44970D01*
X40302Y-44958D01*
X40326Y-44946D01*
X40385Y-44946D01*
X40409Y-44958D01*
X40421Y-44970D01*
X40433Y-44994D01*
X40433Y-45053D01*
X40421Y-45077D01*
X40409Y-45089D01*
X40385Y-45101D01*
X40326Y-45101D01*
X40302Y-45089D01*
X40290Y-45077D01*
X40671Y-45101D02*
X40528Y-45101D01*
X40600Y-45101D02*
X40600Y-44851D01*
X40576Y-44886D01*
X40552Y-44910D01*
X40528Y-44922D01*
X40826Y-44851D02*
X40850Y-44851D01*
X40873Y-44863D01*
X40885Y-44875D01*
X40897Y-44898D01*
X40909Y-44946D01*
X40909Y-45005D01*
X40897Y-45053D01*
X40885Y-45077D01*
X40873Y-45089D01*
X40850Y-45101D01*
X40826Y-45101D01*
X40802Y-45089D01*
X40790Y-45077D01*
X40778Y-45053D01*
X40766Y-45005D01*
X40766Y-44946D01*
X40778Y-44898D01*
X40790Y-44875D01*
X40802Y-44863D01*
X40826Y-44851D01*
X39358Y-46101D02*
X39275Y-45982D01*
X39215Y-46101D02*
X39215Y-45851D01*
X39310Y-45851D01*
X39334Y-45863D01*
X39346Y-45875D01*
X39358Y-45898D01*
X39358Y-45934D01*
X39346Y-45958D01*
X39334Y-45970D01*
X39310Y-45982D01*
X39215Y-45982D01*
X39477Y-46101D02*
X39525Y-46101D01*
X39548Y-46089D01*
X39560Y-46077D01*
X39584Y-46041D01*
X39596Y-45994D01*
X39596Y-45898D01*
X39584Y-45875D01*
X39572Y-45863D01*
X39548Y-45851D01*
X39501Y-45851D01*
X39477Y-45863D01*
X39465Y-45875D01*
X39453Y-45898D01*
X39453Y-45958D01*
X39465Y-45982D01*
X39477Y-45994D01*
X39501Y-46005D01*
X39548Y-46005D01*
X39572Y-45994D01*
X39584Y-45982D01*
X39596Y-45958D01*
X40433Y-46101D02*
X40290Y-46101D01*
X40361Y-46101D02*
X40361Y-45851D01*
X40338Y-45886D01*
X40314Y-45910D01*
X40290Y-45922D01*
X40516Y-45851D02*
X40671Y-45851D01*
X40588Y-45946D01*
X40623Y-45946D01*
X40647Y-45958D01*
X40659Y-45970D01*
X40671Y-45994D01*
X40671Y-46053D01*
X40659Y-46077D01*
X40647Y-46089D01*
X40623Y-46101D01*
X40552Y-46101D01*
X40528Y-46089D01*
X40516Y-46077D01*
X40826Y-45851D02*
X40850Y-45851D01*
X40873Y-45863D01*
X40885Y-45875D01*
X40897Y-45898D01*
X40909Y-45946D01*
X40909Y-46005D01*
X40897Y-46053D01*
X40885Y-46077D01*
X40873Y-46089D01*
X40850Y-46101D01*
X40826Y-46101D01*
X40802Y-46089D01*
X40790Y-46077D01*
X40778Y-46053D01*
X40766Y-46005D01*
X40766Y-45946D01*
X40778Y-45898D01*
X40790Y-45875D01*
X40802Y-45863D01*
X40826Y-45851D01*
X39239Y-47101D02*
X39155Y-46982D01*
X39096Y-47101D02*
X39096Y-46851D01*
X39191Y-46851D01*
X39215Y-46863D01*
X39227Y-46875D01*
X39239Y-46898D01*
X39239Y-46934D01*
X39227Y-46958D01*
X39215Y-46970D01*
X39191Y-46982D01*
X39096Y-46982D01*
X39477Y-47101D02*
X39334Y-47101D01*
X39405Y-47101D02*
X39405Y-46851D01*
X39382Y-46886D01*
X39358Y-46910D01*
X39334Y-46922D01*
X39632Y-46851D02*
X39655Y-46851D01*
X39679Y-46863D01*
X39691Y-46875D01*
X39703Y-46898D01*
X39715Y-46946D01*
X39715Y-47005D01*
X39703Y-47053D01*
X39691Y-47077D01*
X39679Y-47089D01*
X39655Y-47101D01*
X39632Y-47101D01*
X39608Y-47089D01*
X39596Y-47077D01*
X39584Y-47053D01*
X39572Y-47005D01*
X39572Y-46946D01*
X39584Y-46898D01*
X39596Y-46875D01*
X39608Y-46863D01*
X39632Y-46851D01*
X40433Y-47101D02*
X40290Y-47101D01*
X40361Y-47101D02*
X40361Y-46851D01*
X40338Y-46886D01*
X40314Y-46910D01*
X40290Y-46922D01*
X40516Y-46851D02*
X40671Y-46851D01*
X40588Y-46946D01*
X40623Y-46946D01*
X40647Y-46958D01*
X40659Y-46970D01*
X40671Y-46994D01*
X40671Y-47053D01*
X40659Y-47077D01*
X40647Y-47089D01*
X40623Y-47101D01*
X40552Y-47101D01*
X40528Y-47089D01*
X40516Y-47077D01*
X40826Y-46851D02*
X40850Y-46851D01*
X40873Y-46863D01*
X40885Y-46875D01*
X40897Y-46898D01*
X40909Y-46946D01*
X40909Y-47005D01*
X40897Y-47053D01*
X40885Y-47077D01*
X40873Y-47089D01*
X40850Y-47101D01*
X40826Y-47101D01*
X40802Y-47089D01*
X40790Y-47077D01*
X40778Y-47053D01*
X40766Y-47005D01*
X40766Y-46946D01*
X40778Y-46898D01*
X40790Y-46875D01*
X40802Y-46863D01*
X40826Y-46851D01*
X39239Y-48101D02*
X39155Y-47982D01*
X39096Y-48101D02*
X39096Y-47851D01*
X39191Y-47851D01*
X39215Y-47863D01*
X39227Y-47875D01*
X39239Y-47898D01*
X39239Y-47934D01*
X39227Y-47958D01*
X39215Y-47970D01*
X39191Y-47982D01*
X39096Y-47982D01*
X39477Y-48101D02*
X39334Y-48101D01*
X39405Y-48101D02*
X39405Y-47851D01*
X39382Y-47886D01*
X39358Y-47910D01*
X39334Y-47922D01*
X39715Y-48101D02*
X39572Y-48101D01*
X39644Y-48101D02*
X39644Y-47851D01*
X39620Y-47886D01*
X39596Y-47910D01*
X39572Y-47922D01*
X40533Y-48101D02*
X40390Y-48101D01*
X40461Y-48101D02*
X40461Y-47851D01*
X40438Y-47886D01*
X40414Y-47910D01*
X40390Y-47922D01*
X40616Y-47851D02*
X40771Y-47851D01*
X40688Y-47946D01*
X40723Y-47946D01*
X40747Y-47958D01*
X40759Y-47970D01*
X40771Y-47994D01*
X40771Y-48053D01*
X40759Y-48077D01*
X40747Y-48089D01*
X40723Y-48101D01*
X40652Y-48101D01*
X40628Y-48089D01*
X40616Y-48077D01*
X40926Y-47851D02*
X40950Y-47851D01*
X40973Y-47863D01*
X40985Y-47875D01*
X40997Y-47898D01*
X41009Y-47946D01*
X41009Y-48005D01*
X40997Y-48053D01*
X40985Y-48077D01*
X40973Y-48089D01*
X40950Y-48101D01*
X40926Y-48101D01*
X40902Y-48089D01*
X40890Y-48077D01*
X40878Y-48053D01*
X40866Y-48005D01*
X40866Y-47946D01*
X40878Y-47898D01*
X40890Y-47875D01*
X40902Y-47863D01*
X40926Y-47851D01*
X43239Y-40101D02*
X43155Y-39982D01*
X43096Y-40101D02*
X43096Y-39851D01*
X43191Y-39851D01*
X43215Y-39863D01*
X43227Y-39875D01*
X43239Y-39898D01*
X43239Y-39934D01*
X43227Y-39958D01*
X43215Y-39970D01*
X43191Y-39982D01*
X43096Y-39982D01*
X43477Y-40101D02*
X43334Y-40101D01*
X43405Y-40101D02*
X43405Y-39851D01*
X43382Y-39886D01*
X43358Y-39910D01*
X43334Y-39922D01*
X43572Y-39875D02*
X43584Y-39863D01*
X43608Y-39851D01*
X43667Y-39851D01*
X43691Y-39863D01*
X43703Y-39875D01*
X43715Y-39898D01*
X43715Y-39922D01*
X43703Y-39958D01*
X43560Y-40101D01*
X43715Y-40101D01*
X44433Y-40101D02*
X44290Y-40101D01*
X44361Y-40101D02*
X44361Y-39851D01*
X44338Y-39886D01*
X44314Y-39910D01*
X44290Y-39922D01*
X44588Y-39851D02*
X44611Y-39851D01*
X44635Y-39863D01*
X44647Y-39875D01*
X44659Y-39898D01*
X44671Y-39946D01*
X44671Y-40005D01*
X44659Y-40053D01*
X44647Y-40077D01*
X44635Y-40089D01*
X44611Y-40101D01*
X44588Y-40101D01*
X44564Y-40089D01*
X44552Y-40077D01*
X44540Y-40053D01*
X44528Y-40005D01*
X44528Y-39946D01*
X44540Y-39898D01*
X44552Y-39875D01*
X44564Y-39863D01*
X44588Y-39851D01*
X44826Y-39851D02*
X44850Y-39851D01*
X44873Y-39863D01*
X44885Y-39875D01*
X44897Y-39898D01*
X44909Y-39946D01*
X44909Y-40005D01*
X44897Y-40053D01*
X44885Y-40077D01*
X44873Y-40089D01*
X44850Y-40101D01*
X44826Y-40101D01*
X44802Y-40089D01*
X44790Y-40077D01*
X44778Y-40053D01*
X44766Y-40005D01*
X44766Y-39946D01*
X44778Y-39898D01*
X44790Y-39875D01*
X44802Y-39863D01*
X44826Y-39851D01*
X43239Y-41101D02*
X43155Y-40982D01*
X43096Y-41101D02*
X43096Y-40851D01*
X43191Y-40851D01*
X43215Y-40863D01*
X43227Y-40875D01*
X43239Y-40898D01*
X43239Y-40934D01*
X43227Y-40958D01*
X43215Y-40970D01*
X43191Y-40982D01*
X43096Y-40982D01*
X43477Y-41101D02*
X43334Y-41101D01*
X43405Y-41101D02*
X43405Y-40851D01*
X43382Y-40886D01*
X43358Y-40910D01*
X43334Y-40922D01*
X43560Y-40851D02*
X43715Y-40851D01*
X43632Y-40946D01*
X43667Y-40946D01*
X43691Y-40958D01*
X43703Y-40970D01*
X43715Y-40994D01*
X43715Y-41053D01*
X43703Y-41077D01*
X43691Y-41089D01*
X43667Y-41101D01*
X43596Y-41101D01*
X43572Y-41089D01*
X43560Y-41077D01*
X44433Y-41101D02*
X44290Y-41101D01*
X44361Y-41101D02*
X44361Y-40851D01*
X44338Y-40886D01*
X44314Y-40910D01*
X44290Y-40922D01*
X44588Y-40851D02*
X44611Y-40851D01*
X44635Y-40863D01*
X44647Y-40875D01*
X44659Y-40898D01*
X44671Y-40946D01*
X44671Y-41005D01*
X44659Y-41053D01*
X44647Y-41077D01*
X44635Y-41089D01*
X44611Y-41101D01*
X44588Y-41101D01*
X44564Y-41089D01*
X44552Y-41077D01*
X44540Y-41053D01*
X44528Y-41005D01*
X44528Y-40946D01*
X44540Y-40898D01*
X44552Y-40875D01*
X44564Y-40863D01*
X44588Y-40851D01*
X44826Y-40851D02*
X44850Y-40851D01*
X44873Y-40863D01*
X44885Y-40875D01*
X44897Y-40898D01*
X44909Y-40946D01*
X44909Y-41005D01*
X44897Y-41053D01*
X44885Y-41077D01*
X44873Y-41089D01*
X44850Y-41101D01*
X44826Y-41101D01*
X44802Y-41089D01*
X44790Y-41077D01*
X44778Y-41053D01*
X44766Y-41005D01*
X44766Y-40946D01*
X44778Y-40898D01*
X44790Y-40875D01*
X44802Y-40863D01*
X44826Y-40851D01*
X43239Y-42101D02*
X43155Y-41982D01*
X43096Y-42101D02*
X43096Y-41851D01*
X43191Y-41851D01*
X43215Y-41863D01*
X43227Y-41875D01*
X43239Y-41898D01*
X43239Y-41934D01*
X43227Y-41958D01*
X43215Y-41970D01*
X43191Y-41982D01*
X43096Y-41982D01*
X43477Y-42101D02*
X43334Y-42101D01*
X43405Y-42101D02*
X43405Y-41851D01*
X43382Y-41886D01*
X43358Y-41910D01*
X43334Y-41922D01*
X43691Y-41934D02*
X43691Y-42101D01*
X43632Y-41839D02*
X43572Y-42017D01*
X43727Y-42017D01*
X44290Y-41875D02*
X44302Y-41863D01*
X44326Y-41851D01*
X44385Y-41851D01*
X44409Y-41863D01*
X44421Y-41875D01*
X44433Y-41898D01*
X44433Y-41922D01*
X44421Y-41958D01*
X44278Y-42101D01*
X44433Y-42101D01*
X44647Y-41934D02*
X44647Y-42101D01*
X44588Y-41839D02*
X44528Y-42017D01*
X44683Y-42017D01*
X44826Y-41851D02*
X44850Y-41851D01*
X44873Y-41863D01*
X44885Y-41875D01*
X44897Y-41898D01*
X44909Y-41946D01*
X44909Y-42005D01*
X44897Y-42053D01*
X44885Y-42077D01*
X44873Y-42089D01*
X44850Y-42101D01*
X44826Y-42101D01*
X44802Y-42089D01*
X44790Y-42077D01*
X44778Y-42053D01*
X44766Y-42005D01*
X44766Y-41946D01*
X44778Y-41898D01*
X44790Y-41875D01*
X44802Y-41863D01*
X44826Y-41851D01*
X43239Y-43101D02*
X43155Y-42982D01*
X43096Y-43101D02*
X43096Y-42851D01*
X43191Y-42851D01*
X43215Y-42863D01*
X43227Y-42875D01*
X43239Y-42898D01*
X43239Y-42934D01*
X43227Y-42958D01*
X43215Y-42970D01*
X43191Y-42982D01*
X43096Y-42982D01*
X43477Y-43101D02*
X43334Y-43101D01*
X43405Y-43101D02*
X43405Y-42851D01*
X43382Y-42886D01*
X43358Y-42910D01*
X43334Y-42922D01*
X43703Y-42851D02*
X43584Y-42851D01*
X43572Y-42970D01*
X43584Y-42958D01*
X43608Y-42946D01*
X43667Y-42946D01*
X43691Y-42958D01*
X43703Y-42970D01*
X43715Y-42994D01*
X43715Y-43053D01*
X43703Y-43077D01*
X43691Y-43089D01*
X43667Y-43101D01*
X43608Y-43101D01*
X43584Y-43089D01*
X43572Y-43077D01*
X44278Y-42851D02*
X44433Y-42851D01*
X44350Y-42946D01*
X44385Y-42946D01*
X44409Y-42958D01*
X44421Y-42970D01*
X44433Y-42994D01*
X44433Y-43053D01*
X44421Y-43077D01*
X44409Y-43089D01*
X44385Y-43101D01*
X44314Y-43101D01*
X44290Y-43089D01*
X44278Y-43077D01*
X44516Y-42851D02*
X44671Y-42851D01*
X44588Y-42946D01*
X44623Y-42946D01*
X44647Y-42958D01*
X44659Y-42970D01*
X44671Y-42994D01*
X44671Y-43053D01*
X44659Y-43077D01*
X44647Y-43089D01*
X44623Y-43101D01*
X44552Y-43101D01*
X44528Y-43089D01*
X44516Y-43077D01*
X44826Y-42851D02*
X44850Y-42851D01*
X44873Y-42863D01*
X44885Y-42875D01*
X44897Y-42898D01*
X44909Y-42946D01*
X44909Y-43005D01*
X44897Y-43053D01*
X44885Y-43077D01*
X44873Y-43089D01*
X44850Y-43101D01*
X44826Y-43101D01*
X44802Y-43089D01*
X44790Y-43077D01*
X44778Y-43053D01*
X44766Y-43005D01*
X44766Y-42946D01*
X44778Y-42898D01*
X44790Y-42875D01*
X44802Y-42863D01*
X44826Y-42851D01*
X43239Y-44101D02*
X43155Y-43982D01*
X43096Y-44101D02*
X43096Y-43851D01*
X43191Y-43851D01*
X43215Y-43863D01*
X43227Y-43875D01*
X43239Y-43898D01*
X43239Y-43934D01*
X43227Y-43958D01*
X43215Y-43970D01*
X43191Y-43982D01*
X43096Y-43982D01*
X43477Y-44101D02*
X43334Y-44101D01*
X43405Y-44101D02*
X43405Y-43851D01*
X43382Y-43886D01*
X43358Y-43910D01*
X43334Y-43922D01*
X43691Y-43851D02*
X43644Y-43851D01*
X43620Y-43863D01*
X43608Y-43875D01*
X43584Y-43910D01*
X43572Y-43958D01*
X43572Y-44053D01*
X43584Y-44077D01*
X43596Y-44089D01*
X43620Y-44101D01*
X43667Y-44101D01*
X43691Y-44089D01*
X43703Y-44077D01*
X43715Y-44053D01*
X43715Y-43994D01*
X43703Y-43970D01*
X43691Y-43958D01*
X43667Y-43946D01*
X43620Y-43946D01*
X43596Y-43958D01*
X43584Y-43970D01*
X43572Y-43994D01*
X44546Y-44101D02*
X44403Y-44101D01*
X44475Y-44101D02*
X44475Y-43851D01*
X44451Y-43886D01*
X44427Y-43910D01*
X44403Y-43922D01*
X44653Y-44101D02*
X44653Y-43851D01*
X44796Y-44101D02*
X44689Y-43958D01*
X44796Y-43851D02*
X44653Y-43994D01*
X43239Y-45101D02*
X43155Y-44982D01*
X43096Y-45101D02*
X43096Y-44851D01*
X43191Y-44851D01*
X43215Y-44863D01*
X43227Y-44875D01*
X43239Y-44898D01*
X43239Y-44934D01*
X43227Y-44958D01*
X43215Y-44970D01*
X43191Y-44982D01*
X43096Y-44982D01*
X43477Y-45101D02*
X43334Y-45101D01*
X43405Y-45101D02*
X43405Y-44851D01*
X43382Y-44886D01*
X43358Y-44910D01*
X43334Y-44922D01*
X43560Y-44851D02*
X43727Y-44851D01*
X43620Y-45101D01*
X44427Y-45101D02*
X44284Y-45101D01*
X44355Y-45101D02*
X44355Y-44851D01*
X44332Y-44886D01*
X44308Y-44910D01*
X44284Y-44922D01*
X44582Y-44851D02*
X44605Y-44851D01*
X44629Y-44863D01*
X44641Y-44875D01*
X44653Y-44898D01*
X44665Y-44946D01*
X44665Y-45005D01*
X44653Y-45053D01*
X44641Y-45077D01*
X44629Y-45089D01*
X44605Y-45101D01*
X44582Y-45101D01*
X44558Y-45089D01*
X44546Y-45077D01*
X44534Y-45053D01*
X44522Y-45005D01*
X44522Y-44946D01*
X44534Y-44898D01*
X44546Y-44875D01*
X44558Y-44863D01*
X44582Y-44851D01*
X44772Y-45101D02*
X44772Y-44851D01*
X44915Y-45101D02*
X44808Y-44958D01*
X44915Y-44851D02*
X44772Y-44994D01*
X43239Y-46101D02*
X43155Y-45982D01*
X43096Y-46101D02*
X43096Y-45851D01*
X43191Y-45851D01*
X43215Y-45863D01*
X43227Y-45875D01*
X43239Y-45898D01*
X43239Y-45934D01*
X43227Y-45958D01*
X43215Y-45970D01*
X43191Y-45982D01*
X43096Y-45982D01*
X43477Y-46101D02*
X43334Y-46101D01*
X43405Y-46101D02*
X43405Y-45851D01*
X43382Y-45886D01*
X43358Y-45910D01*
X43334Y-45922D01*
X43620Y-45958D02*
X43596Y-45946D01*
X43584Y-45934D01*
X43572Y-45910D01*
X43572Y-45898D01*
X43584Y-45875D01*
X43596Y-45863D01*
X43620Y-45851D01*
X43667Y-45851D01*
X43691Y-45863D01*
X43703Y-45875D01*
X43715Y-45898D01*
X43715Y-45910D01*
X43703Y-45934D01*
X43691Y-45946D01*
X43667Y-45958D01*
X43620Y-45958D01*
X43596Y-45970D01*
X43584Y-45982D01*
X43572Y-46005D01*
X43572Y-46053D01*
X43584Y-46077D01*
X43596Y-46089D01*
X43620Y-46101D01*
X43667Y-46101D01*
X43691Y-46089D01*
X43703Y-46077D01*
X43715Y-46053D01*
X43715Y-46005D01*
X43703Y-45982D01*
X43691Y-45970D01*
X43667Y-45958D01*
X44427Y-46101D02*
X44284Y-46101D01*
X44355Y-46101D02*
X44355Y-45851D01*
X44332Y-45886D01*
X44308Y-45910D01*
X44284Y-45922D01*
X44582Y-45851D02*
X44605Y-45851D01*
X44629Y-45863D01*
X44641Y-45875D01*
X44653Y-45898D01*
X44665Y-45946D01*
X44665Y-46005D01*
X44653Y-46053D01*
X44641Y-46077D01*
X44629Y-46089D01*
X44605Y-46101D01*
X44582Y-46101D01*
X44558Y-46089D01*
X44546Y-46077D01*
X44534Y-46053D01*
X44522Y-46005D01*
X44522Y-45946D01*
X44534Y-45898D01*
X44546Y-45875D01*
X44558Y-45863D01*
X44582Y-45851D01*
X44772Y-46101D02*
X44772Y-45851D01*
X44915Y-46101D02*
X44808Y-45958D01*
X44915Y-45851D02*
X44772Y-45994D01*
X43239Y-47101D02*
X43155Y-46982D01*
X43096Y-47101D02*
X43096Y-46851D01*
X43191Y-46851D01*
X43215Y-46863D01*
X43227Y-46875D01*
X43239Y-46898D01*
X43239Y-46934D01*
X43227Y-46958D01*
X43215Y-46970D01*
X43191Y-46982D01*
X43096Y-46982D01*
X43477Y-47101D02*
X43334Y-47101D01*
X43405Y-47101D02*
X43405Y-46851D01*
X43382Y-46886D01*
X43358Y-46910D01*
X43334Y-46922D01*
X43596Y-47101D02*
X43644Y-47101D01*
X43667Y-47089D01*
X43679Y-47077D01*
X43703Y-47041D01*
X43715Y-46994D01*
X43715Y-46898D01*
X43703Y-46875D01*
X43691Y-46863D01*
X43667Y-46851D01*
X43620Y-46851D01*
X43596Y-46863D01*
X43584Y-46875D01*
X43572Y-46898D01*
X43572Y-46958D01*
X43584Y-46982D01*
X43596Y-46994D01*
X43620Y-47005D01*
X43667Y-47005D01*
X43691Y-46994D01*
X43703Y-46982D01*
X43715Y-46958D01*
X44427Y-47101D02*
X44284Y-47101D01*
X44355Y-47101D02*
X44355Y-46851D01*
X44332Y-46886D01*
X44308Y-46910D01*
X44284Y-46922D01*
X44582Y-46851D02*
X44605Y-46851D01*
X44629Y-46863D01*
X44641Y-46875D01*
X44653Y-46898D01*
X44665Y-46946D01*
X44665Y-47005D01*
X44653Y-47053D01*
X44641Y-47077D01*
X44629Y-47089D01*
X44605Y-47101D01*
X44582Y-47101D01*
X44558Y-47089D01*
X44546Y-47077D01*
X44534Y-47053D01*
X44522Y-47005D01*
X44522Y-46946D01*
X44534Y-46898D01*
X44546Y-46875D01*
X44558Y-46863D01*
X44582Y-46851D01*
X44772Y-47101D02*
X44772Y-46851D01*
X44915Y-47101D02*
X44808Y-46958D01*
X44915Y-46851D02*
X44772Y-46994D01*
X43239Y-48101D02*
X43155Y-47982D01*
X43096Y-48101D02*
X43096Y-47851D01*
X43191Y-47851D01*
X43215Y-47863D01*
X43227Y-47875D01*
X43239Y-47898D01*
X43239Y-47934D01*
X43227Y-47958D01*
X43215Y-47970D01*
X43191Y-47982D01*
X43096Y-47982D01*
X43334Y-47875D02*
X43346Y-47863D01*
X43370Y-47851D01*
X43429Y-47851D01*
X43453Y-47863D01*
X43465Y-47875D01*
X43477Y-47898D01*
X43477Y-47922D01*
X43465Y-47958D01*
X43322Y-48101D01*
X43477Y-48101D01*
X43632Y-47851D02*
X43655Y-47851D01*
X43679Y-47863D01*
X43691Y-47875D01*
X43703Y-47898D01*
X43715Y-47946D01*
X43715Y-48005D01*
X43703Y-48053D01*
X43691Y-48077D01*
X43679Y-48089D01*
X43655Y-48101D01*
X43632Y-48101D01*
X43608Y-48089D01*
X43596Y-48077D01*
X43584Y-48053D01*
X43572Y-48005D01*
X43572Y-47946D01*
X43584Y-47898D01*
X43596Y-47875D01*
X43608Y-47863D01*
X43632Y-47851D01*
X44427Y-48101D02*
X44284Y-48101D01*
X44355Y-48101D02*
X44355Y-47851D01*
X44332Y-47886D01*
X44308Y-47910D01*
X44284Y-47922D01*
X44582Y-47851D02*
X44605Y-47851D01*
X44629Y-47863D01*
X44641Y-47875D01*
X44653Y-47898D01*
X44665Y-47946D01*
X44665Y-48005D01*
X44653Y-48053D01*
X44641Y-48077D01*
X44629Y-48089D01*
X44605Y-48101D01*
X44582Y-48101D01*
X44558Y-48089D01*
X44546Y-48077D01*
X44534Y-48053D01*
X44522Y-48005D01*
X44522Y-47946D01*
X44534Y-47898D01*
X44546Y-47875D01*
X44558Y-47863D01*
X44582Y-47851D01*
X44772Y-48101D02*
X44772Y-47851D01*
X44915Y-48101D02*
X44808Y-47958D01*
X44915Y-47851D02*
X44772Y-47994D01*
X39358Y-38101D02*
X39275Y-37982D01*
X39215Y-38101D02*
X39215Y-37851D01*
X39310Y-37851D01*
X39334Y-37863D01*
X39346Y-37875D01*
X39358Y-37898D01*
X39358Y-37934D01*
X39346Y-37958D01*
X39334Y-37970D01*
X39310Y-37982D01*
X39215Y-37982D01*
X39596Y-38101D02*
X39453Y-38101D01*
X39525Y-38101D02*
X39525Y-37851D01*
X39501Y-37886D01*
X39477Y-37910D01*
X39453Y-37922D01*
X40290Y-37875D02*
X40302Y-37863D01*
X40326Y-37851D01*
X40385Y-37851D01*
X40409Y-37863D01*
X40421Y-37875D01*
X40433Y-37898D01*
X40433Y-37922D01*
X40421Y-37958D01*
X40278Y-38101D01*
X40433Y-38101D01*
X40516Y-37851D02*
X40683Y-37851D01*
X40576Y-38101D01*
X40826Y-37851D02*
X40850Y-37851D01*
X40873Y-37863D01*
X40885Y-37875D01*
X40897Y-37898D01*
X40909Y-37946D01*
X40909Y-38005D01*
X40897Y-38053D01*
X40885Y-38077D01*
X40873Y-38089D01*
X40850Y-38101D01*
X40826Y-38101D01*
X40802Y-38089D01*
X40790Y-38077D01*
X40778Y-38053D01*
X40766Y-38005D01*
X40766Y-37946D01*
X40778Y-37898D01*
X40790Y-37875D01*
X40802Y-37863D01*
X40826Y-37851D01*
G54D16*
X65954Y-22161D02*
X65954Y-21761D01*
X66107Y-21761D01*
X66145Y-21780D01*
X66164Y-21800D01*
X66183Y-21838D01*
X66183Y-21895D01*
X66164Y-21933D01*
X66145Y-21952D01*
X66107Y-21971D01*
X65954Y-21971D01*
X66526Y-21761D02*
X66450Y-21761D01*
X66411Y-21780D01*
X66392Y-21800D01*
X66354Y-21857D01*
X66335Y-21933D01*
X66335Y-22085D01*
X66354Y-22123D01*
X66373Y-22142D01*
X66411Y-22161D01*
X66488Y-22161D01*
X66526Y-22142D01*
X66545Y-22123D01*
X66564Y-22085D01*
X66564Y-21990D01*
X66545Y-21952D01*
X66526Y-21933D01*
X66488Y-21914D01*
X66411Y-21914D01*
X66373Y-21933D01*
X66354Y-21952D01*
X66335Y-21990D01*
G54D15*
X64050Y-22952D02*
X64107Y-22971D01*
X64126Y-22990D01*
X64145Y-23028D01*
X64145Y-23085D01*
X64126Y-23123D01*
X64107Y-23142D01*
X64069Y-23161D01*
X63916Y-23161D01*
X63916Y-22761D01*
X64050Y-22761D01*
X64088Y-22780D01*
X64107Y-22800D01*
X64126Y-22838D01*
X64126Y-22876D01*
X64107Y-22914D01*
X64088Y-22933D01*
X64050Y-22952D01*
X63916Y-22952D01*
X64392Y-22761D02*
X64469Y-22761D01*
X64507Y-22780D01*
X64545Y-22819D01*
X64564Y-22895D01*
X64564Y-23028D01*
X64545Y-23104D01*
X64507Y-23142D01*
X64469Y-23161D01*
X64392Y-23161D01*
X64354Y-23142D01*
X64316Y-23104D01*
X64297Y-23028D01*
X64297Y-22895D01*
X64316Y-22819D01*
X64354Y-22780D01*
X64392Y-22761D01*
X64716Y-23047D02*
X64907Y-23047D01*
X64678Y-23161D02*
X64811Y-22761D01*
X64945Y-23161D01*
X65307Y-23161D02*
X65173Y-22971D01*
X65078Y-23161D02*
X65078Y-22761D01*
X65230Y-22761D01*
X65269Y-22780D01*
X65288Y-22800D01*
X65307Y-22838D01*
X65307Y-22895D01*
X65288Y-22933D01*
X65269Y-22952D01*
X65230Y-22971D01*
X65078Y-22971D01*
X65478Y-23161D02*
X65478Y-22761D01*
X65573Y-22761D01*
X65630Y-22780D01*
X65669Y-22819D01*
X65688Y-22857D01*
X65707Y-22933D01*
X65707Y-22990D01*
X65688Y-23066D01*
X65669Y-23104D01*
X65630Y-23142D01*
X65573Y-23161D01*
X65478Y-23161D01*
X65783Y-23200D02*
X66088Y-23200D01*
X66183Y-23161D02*
X66183Y-22761D01*
X66373Y-23161D02*
X66373Y-22761D01*
X66469Y-22761D01*
X66526Y-22780D01*
X66564Y-22819D01*
X66583Y-22857D01*
X66602Y-22933D01*
X66602Y-22990D01*
X66583Y-23066D01*
X66564Y-23104D01*
X66526Y-23142D01*
X66469Y-23161D01*
X66373Y-23161D01*
X48704Y-26661D02*
X48704Y-26261D01*
X48857Y-26261D01*
X48895Y-26280D01*
X48914Y-26300D01*
X48933Y-26338D01*
X48933Y-26395D01*
X48914Y-26433D01*
X48895Y-26452D01*
X48857Y-26471D01*
X48704Y-26471D01*
X49066Y-26261D02*
X49333Y-26261D01*
X49161Y-26661D01*
X50514Y-26661D02*
X50514Y-26261D01*
X50666Y-26261D01*
X50704Y-26280D01*
X50723Y-26300D01*
X50742Y-26338D01*
X50742Y-26395D01*
X50723Y-26433D01*
X50704Y-26452D01*
X50666Y-26471D01*
X50514Y-26471D01*
X51142Y-26661D02*
X51009Y-26471D01*
X50914Y-26661D02*
X50914Y-26261D01*
X51066Y-26261D01*
X51104Y-26280D01*
X51123Y-26300D01*
X51142Y-26338D01*
X51142Y-26395D01*
X51123Y-26433D01*
X51104Y-26452D01*
X51066Y-26471D01*
X50914Y-26471D01*
X51390Y-26261D02*
X51466Y-26261D01*
X51504Y-26280D01*
X51542Y-26319D01*
X51561Y-26395D01*
X51561Y-26528D01*
X51542Y-26604D01*
X51504Y-26642D01*
X51466Y-26661D01*
X51390Y-26661D01*
X51352Y-26642D01*
X51314Y-26604D01*
X51295Y-26528D01*
X51295Y-26395D01*
X51314Y-26319D01*
X51352Y-26280D01*
X51390Y-26261D01*
X51733Y-26661D02*
X51733Y-26261D01*
X51885Y-26261D01*
X51923Y-26280D01*
X51942Y-26300D01*
X51961Y-26338D01*
X51961Y-26395D01*
X51942Y-26433D01*
X51923Y-26452D01*
X51885Y-26471D01*
X51733Y-26471D01*
X52133Y-26661D02*
X52133Y-26261D01*
X52285Y-26261D01*
X52323Y-26280D01*
X52342Y-26300D01*
X52361Y-26338D01*
X52361Y-26395D01*
X52342Y-26433D01*
X52323Y-26452D01*
X52285Y-26471D01*
X52133Y-26471D01*
X52723Y-26661D02*
X52533Y-26661D01*
X52533Y-26261D01*
X52857Y-26261D02*
X52857Y-26585D01*
X52876Y-26623D01*
X52895Y-26642D01*
X52933Y-26661D01*
X53009Y-26661D01*
X53047Y-26642D01*
X53066Y-26623D01*
X53085Y-26585D01*
X53085Y-26261D01*
X53485Y-26280D02*
X53447Y-26261D01*
X53390Y-26261D01*
X53333Y-26280D01*
X53295Y-26319D01*
X53276Y-26357D01*
X53257Y-26433D01*
X53257Y-26490D01*
X53276Y-26566D01*
X53295Y-26604D01*
X53333Y-26642D01*
X53390Y-26661D01*
X53428Y-26661D01*
X53485Y-26642D01*
X53504Y-26623D01*
X53504Y-26490D01*
X53428Y-26490D01*
G54D13*
X55666Y-25261D02*
X55666Y-25547D01*
X55647Y-25604D01*
X55609Y-25642D01*
X55552Y-25661D01*
X55514Y-25661D01*
X55857Y-25661D02*
X55857Y-25261D01*
X56009Y-25261D01*
X56047Y-25280D01*
X56066Y-25300D01*
X56085Y-25338D01*
X56085Y-25395D01*
X56066Y-25433D01*
X56047Y-25452D01*
X56009Y-25471D01*
X55857Y-25471D01*
X56238Y-25300D02*
X56257Y-25280D01*
X56295Y-25261D01*
X56390Y-25261D01*
X56428Y-25280D01*
X56447Y-25300D01*
X56466Y-25338D01*
X56466Y-25376D01*
X56447Y-25433D01*
X56219Y-25661D01*
X56466Y-25661D01*
X57233Y-25661D02*
X57100Y-25471D01*
X57004Y-25661D02*
X57004Y-25261D01*
X57157Y-25261D01*
X57195Y-25280D01*
X57214Y-25300D01*
X57233Y-25338D01*
X57233Y-25395D01*
X57214Y-25433D01*
X57195Y-25452D01*
X57157Y-25471D01*
X57004Y-25471D01*
X57404Y-25452D02*
X57538Y-25452D01*
X57595Y-25661D02*
X57404Y-25661D01*
X57404Y-25261D01*
X57595Y-25261D01*
X57747Y-25642D02*
X57804Y-25661D01*
X57900Y-25661D01*
X57938Y-25642D01*
X57957Y-25623D01*
X57976Y-25585D01*
X57976Y-25547D01*
X57957Y-25509D01*
X57938Y-25490D01*
X57900Y-25471D01*
X57823Y-25452D01*
X57785Y-25433D01*
X57766Y-25414D01*
X57747Y-25376D01*
X57747Y-25338D01*
X57766Y-25300D01*
X57785Y-25280D01*
X57823Y-25261D01*
X57919Y-25261D01*
X57976Y-25280D01*
X58147Y-25452D02*
X58280Y-25452D01*
X58338Y-25661D02*
X58147Y-25661D01*
X58147Y-25261D01*
X58338Y-25261D01*
X58452Y-25261D02*
X58680Y-25261D01*
X58566Y-25661D02*
X58566Y-25261D01*
X58719Y-25700D02*
X59023Y-25700D01*
X59100Y-25642D02*
X59157Y-25661D01*
X59252Y-25661D01*
X59290Y-25642D01*
X59309Y-25623D01*
X59328Y-25585D01*
X59328Y-25547D01*
X59309Y-25509D01*
X59290Y-25490D01*
X59252Y-25471D01*
X59176Y-25452D01*
X59138Y-25433D01*
X59119Y-25414D01*
X59100Y-25376D01*
X59100Y-25338D01*
X59119Y-25300D01*
X59138Y-25280D01*
X59176Y-25261D01*
X59271Y-25261D01*
X59328Y-25280D01*
X59500Y-25452D02*
X59633Y-25452D01*
X59690Y-25661D02*
X59500Y-25661D01*
X59500Y-25261D01*
X59690Y-25261D01*
X60052Y-25661D02*
X59861Y-25661D01*
X59861Y-25261D01*
X55666Y-22761D02*
X55666Y-23047D01*
X55647Y-23104D01*
X55609Y-23142D01*
X55552Y-23161D01*
X55514Y-23161D01*
X55857Y-23161D02*
X55857Y-22761D01*
X56009Y-22761D01*
X56047Y-22780D01*
X56066Y-22800D01*
X56085Y-22838D01*
X56085Y-22895D01*
X56066Y-22933D01*
X56047Y-22952D01*
X56009Y-22971D01*
X55857Y-22971D01*
X56466Y-23161D02*
X56238Y-23161D01*
X56352Y-23161D02*
X56352Y-22761D01*
X56314Y-22819D01*
X56276Y-22857D01*
X56238Y-22876D01*
X56795Y-23161D02*
X56795Y-22761D01*
X57023Y-23161D01*
X57023Y-22761D01*
X57290Y-22761D02*
X57366Y-22761D01*
X57404Y-22780D01*
X57442Y-22819D01*
X57461Y-22895D01*
X57461Y-23028D01*
X57442Y-23104D01*
X57404Y-23142D01*
X57366Y-23161D01*
X57290Y-23161D01*
X57252Y-23142D01*
X57214Y-23104D01*
X57195Y-23028D01*
X57195Y-22895D01*
X57214Y-22819D01*
X57252Y-22780D01*
X57290Y-22761D01*
X57861Y-23161D02*
X57728Y-22971D01*
X57633Y-23161D02*
X57633Y-22761D01*
X57785Y-22761D01*
X57823Y-22780D01*
X57842Y-22800D01*
X57861Y-22838D01*
X57861Y-22895D01*
X57842Y-22933D01*
X57823Y-22952D01*
X57785Y-22971D01*
X57633Y-22971D01*
X58033Y-23161D02*
X58033Y-22761D01*
X58166Y-23047D01*
X58300Y-22761D01*
X58300Y-23161D01*
X58776Y-22742D02*
X58433Y-23257D01*
X59100Y-23161D02*
X58909Y-23161D01*
X58909Y-22761D01*
X59309Y-22761D02*
X59385Y-22761D01*
X59423Y-22780D01*
X59461Y-22819D01*
X59480Y-22895D01*
X59480Y-23028D01*
X59461Y-23104D01*
X59423Y-23142D01*
X59385Y-23161D01*
X59309Y-23161D01*
X59271Y-23142D01*
X59233Y-23104D01*
X59214Y-23028D01*
X59214Y-22895D01*
X59233Y-22819D01*
X59271Y-22780D01*
X59309Y-22761D01*
X59633Y-23047D02*
X59823Y-23047D01*
X59595Y-23161D02*
X59728Y-22761D01*
X59861Y-23161D01*
X59995Y-23161D02*
X59995Y-22761D01*
X60090Y-22761D01*
X60147Y-22780D01*
X60185Y-22819D01*
X60204Y-22857D01*
X60223Y-22933D01*
X60223Y-22990D01*
X60204Y-23066D01*
X60185Y-23104D01*
X60147Y-23142D01*
X60090Y-23161D01*
X59995Y-23161D01*
G54D15*
X45504Y-30142D02*
X45504Y-30628D01*
X45523Y-30685D01*
X45542Y-30714D01*
X45580Y-30742D01*
X45657Y-30742D01*
X45695Y-30714D01*
X45714Y-30685D01*
X45733Y-30628D01*
X45733Y-30142D01*
X46133Y-30742D02*
X45904Y-30742D01*
X46019Y-30742D02*
X46019Y-30142D01*
X45980Y-30228D01*
X45942Y-30285D01*
X45904Y-30314D01*
X46514Y-30742D02*
X46285Y-30742D01*
X46400Y-30742D02*
X46400Y-30142D01*
X46361Y-30228D01*
X46323Y-30285D01*
X46285Y-30314D01*
X43133Y-22742D02*
X42942Y-22742D01*
X42942Y-22142D01*
X43266Y-22742D02*
X43266Y-22142D01*
X43400Y-22571D01*
X43533Y-22142D01*
X43533Y-22742D01*
X43685Y-22142D02*
X43933Y-22142D01*
X43800Y-22371D01*
X43857Y-22371D01*
X43895Y-22400D01*
X43914Y-22428D01*
X43933Y-22485D01*
X43933Y-22628D01*
X43914Y-22685D01*
X43895Y-22714D01*
X43857Y-22742D01*
X43742Y-22742D01*
X43704Y-22714D01*
X43685Y-22685D01*
X44123Y-22742D02*
X44200Y-22742D01*
X44238Y-22714D01*
X44257Y-22685D01*
X44295Y-22600D01*
X44314Y-22485D01*
X44314Y-22257D01*
X44295Y-22200D01*
X44276Y-22171D01*
X44238Y-22142D01*
X44161Y-22142D01*
X44123Y-22171D01*
X44104Y-22200D01*
X44085Y-22257D01*
X44085Y-22400D01*
X44104Y-22457D01*
X44123Y-22485D01*
X44161Y-22514D01*
X44238Y-22514D01*
X44276Y-22485D01*
X44295Y-22457D01*
X44314Y-22400D01*
X44657Y-22342D02*
X44657Y-22742D01*
X44561Y-22114D02*
X44466Y-22542D01*
X44714Y-22542D01*
X44942Y-22142D02*
X44980Y-22142D01*
X45019Y-22171D01*
X45038Y-22200D01*
X45057Y-22257D01*
X45076Y-22371D01*
X45076Y-22514D01*
X45057Y-22628D01*
X45038Y-22685D01*
X45019Y-22714D01*
X44980Y-22742D01*
X44942Y-22742D01*
X44904Y-22714D01*
X44885Y-22685D01*
X44866Y-22628D01*
X44847Y-22514D01*
X44847Y-22371D01*
X44866Y-22257D01*
X44885Y-22200D01*
X44904Y-22171D01*
X44942Y-22142D01*
X56202Y-31842D02*
X56607Y-31842D01*
X56654Y-31821D01*
X56678Y-31800D01*
X56702Y-31757D01*
X56702Y-31671D01*
X56678Y-31628D01*
X56654Y-31607D01*
X56607Y-31585D01*
X56202Y-31585D01*
X56250Y-31392D02*
X56226Y-31371D01*
X56202Y-31328D01*
X56202Y-31221D01*
X56226Y-31178D01*
X56250Y-31157D01*
X56297Y-31135D01*
X56345Y-31135D01*
X56416Y-31157D01*
X56702Y-31414D01*
X56702Y-31135D01*
X57250Y-31576D02*
X57226Y-31557D01*
X57202Y-31519D01*
X57202Y-31423D01*
X57226Y-31385D01*
X57250Y-31366D01*
X57297Y-31347D01*
X57345Y-31347D01*
X57416Y-31366D01*
X57702Y-31595D01*
X57702Y-31347D01*
X57369Y-31004D02*
X57702Y-31004D01*
X57178Y-31099D02*
X57535Y-31195D01*
X57535Y-30947D01*
X57654Y-30566D02*
X57678Y-30585D01*
X57702Y-30642D01*
X57702Y-30680D01*
X57678Y-30738D01*
X57630Y-30776D01*
X57583Y-30795D01*
X57488Y-30814D01*
X57416Y-30814D01*
X57321Y-30795D01*
X57273Y-30776D01*
X57226Y-30738D01*
X57202Y-30680D01*
X57202Y-30642D01*
X57226Y-30585D01*
X57250Y-30566D01*
X57202Y-30204D02*
X57202Y-30395D01*
X57440Y-30414D01*
X57416Y-30395D01*
X57392Y-30357D01*
X57392Y-30261D01*
X57416Y-30223D01*
X57440Y-30204D01*
X57488Y-30185D01*
X57607Y-30185D01*
X57654Y-30204D01*
X57678Y-30223D01*
X57702Y-30261D01*
X57702Y-30357D01*
X57678Y-30395D01*
X57654Y-30414D01*
X57702Y-29804D02*
X57702Y-30033D01*
X57702Y-29919D02*
X57202Y-29919D01*
X57273Y-29957D01*
X57321Y-29995D01*
X57345Y-30033D01*
X57250Y-29652D02*
X57226Y-29633D01*
X57202Y-29595D01*
X57202Y-29500D01*
X57226Y-29461D01*
X57250Y-29442D01*
X57297Y-29423D01*
X57345Y-29423D01*
X57416Y-29442D01*
X57702Y-29671D01*
X57702Y-29423D01*
G54D19*
X49583Y-41342D02*
X50150Y-41342D01*
X50216Y-41321D01*
X50250Y-41300D01*
X50283Y-41257D01*
X50283Y-41171D01*
X50250Y-41128D01*
X50216Y-41107D01*
X50150Y-41085D01*
X49583Y-41085D01*
X50283Y-40635D02*
X50283Y-40892D01*
X50283Y-40764D02*
X49583Y-40764D01*
X49683Y-40807D01*
X49750Y-40850D01*
X49783Y-40892D01*
G54D11*
X52283Y-36816D02*
X51583Y-36816D01*
X51583Y-36549D01*
X51616Y-36483D01*
X51650Y-36449D01*
X51716Y-36416D01*
X51816Y-36416D01*
X51883Y-36449D01*
X51916Y-36483D01*
X51950Y-36549D01*
X51950Y-36816D01*
X51883Y-36016D02*
X51850Y-36083D01*
X51816Y-36116D01*
X51750Y-36149D01*
X51716Y-36149D01*
X51650Y-36116D01*
X51616Y-36083D01*
X51583Y-36016D01*
X51583Y-35883D01*
X51616Y-35816D01*
X51650Y-35783D01*
X51716Y-35749D01*
X51750Y-35749D01*
X51816Y-35783D01*
X51850Y-35816D01*
X51883Y-35883D01*
X51883Y-36016D01*
X51916Y-36083D01*
X51950Y-36116D01*
X52016Y-36149D01*
X52150Y-36149D01*
X52216Y-36116D01*
X52250Y-36083D01*
X52283Y-36016D01*
X52283Y-35883D01*
X52250Y-35816D01*
X52216Y-35783D01*
X52150Y-35749D01*
X52016Y-35749D01*
X51950Y-35783D01*
X51916Y-35816D01*
X51883Y-35883D01*
X51583Y-35516D02*
X52283Y-35050D01*
X51583Y-35050D02*
X52283Y-35516D01*
X51583Y-34850D02*
X51583Y-34416D01*
X51850Y-34650D01*
X51850Y-34550D01*
X51883Y-34483D01*
X51916Y-34450D01*
X51983Y-34416D01*
X52150Y-34416D01*
X52216Y-34450D01*
X52250Y-34483D01*
X52283Y-34550D01*
X52283Y-34750D01*
X52250Y-34816D01*
X52216Y-34850D01*
X51650Y-34150D02*
X51616Y-34116D01*
X51583Y-34050D01*
X51583Y-33883D01*
X51616Y-33816D01*
X51650Y-33783D01*
X51716Y-33750D01*
X51783Y-33750D01*
X51883Y-33783D01*
X52283Y-34183D01*
X52283Y-33750D01*
X52083Y-33483D02*
X52083Y-33150D01*
X52283Y-33550D02*
X51583Y-33316D01*
X52283Y-33083D01*
G54D19*
X67657Y-25583D02*
X67657Y-26150D01*
X67678Y-26216D01*
X67700Y-26250D01*
X67742Y-26283D01*
X67828Y-26283D01*
X67871Y-26250D01*
X67892Y-26216D01*
X67914Y-26150D01*
X67914Y-25583D01*
X68321Y-25816D02*
X68321Y-26283D01*
X68214Y-25550D02*
X68107Y-26050D01*
X68385Y-26050D01*
G54D11*
G54D19*
X72596Y-26583D02*
X72896Y-26583D01*
X72703Y-27283D01*
X73260Y-26816D02*
X73260Y-27283D01*
X73153Y-26550D02*
X73046Y-27050D01*
X73325Y-27050D01*
X73710Y-27283D02*
X73496Y-27283D01*
X73496Y-26583D01*
X73839Y-27250D02*
X73903Y-27283D01*
X74010Y-27283D01*
X74053Y-27250D01*
X74075Y-27216D01*
X74096Y-27150D01*
X74096Y-27083D01*
X74075Y-27016D01*
X74053Y-26983D01*
X74010Y-26950D01*
X73925Y-26916D01*
X73882Y-26883D01*
X73860Y-26850D01*
X73839Y-26783D01*
X73839Y-26716D01*
X73860Y-26650D01*
X73882Y-26616D01*
X73925Y-26583D01*
X74032Y-26583D01*
X74096Y-26616D01*
X74267Y-26650D02*
X74289Y-26616D01*
X74332Y-26583D01*
X74439Y-26583D01*
X74482Y-26616D01*
X74503Y-26650D01*
X74525Y-26716D01*
X74525Y-26783D01*
X74503Y-26883D01*
X74246Y-27283D01*
X74525Y-27283D01*
X74910Y-26816D02*
X74910Y-27283D01*
X74803Y-26550D02*
X74696Y-27050D01*
X74975Y-27050D01*
X75360Y-26583D02*
X75146Y-26583D01*
X75124Y-26916D01*
X75146Y-26883D01*
X75189Y-26850D01*
X75296Y-26850D01*
X75339Y-26883D01*
X75360Y-26916D01*
X75382Y-26983D01*
X75382Y-27150D01*
X75360Y-27216D01*
X75339Y-27250D01*
X75296Y-27283D01*
X75189Y-27283D01*
X75146Y-27250D01*
X75124Y-27216D01*
G54D11*
G54D19*
X67657Y-35583D02*
X67657Y-36150D01*
X67678Y-36216D01*
X67700Y-36250D01*
X67742Y-36283D01*
X67828Y-36283D01*
X67871Y-36250D01*
X67892Y-36216D01*
X67914Y-36150D01*
X67914Y-35583D01*
X68321Y-35583D02*
X68235Y-35583D01*
X68192Y-35616D01*
X68171Y-35650D01*
X68128Y-35750D01*
X68107Y-35883D01*
X68107Y-36150D01*
X68128Y-36216D01*
X68150Y-36250D01*
X68192Y-36283D01*
X68278Y-36283D01*
X68321Y-36250D01*
X68342Y-36216D01*
X68364Y-36150D01*
X68364Y-35983D01*
X68342Y-35916D01*
X68321Y-35883D01*
X68278Y-35850D01*
X68192Y-35850D01*
X68150Y-35883D01*
X68128Y-35916D01*
X68107Y-35983D01*
G54D11*
G54D19*
X72596Y-36583D02*
X72896Y-36583D01*
X72703Y-37283D01*
X73260Y-36816D02*
X73260Y-37283D01*
X73153Y-36550D02*
X73046Y-37050D01*
X73325Y-37050D01*
X73710Y-37283D02*
X73496Y-37283D01*
X73496Y-36583D01*
X73839Y-37250D02*
X73903Y-37283D01*
X74010Y-37283D01*
X74053Y-37250D01*
X74075Y-37216D01*
X74096Y-37150D01*
X74096Y-37083D01*
X74075Y-37016D01*
X74053Y-36983D01*
X74010Y-36950D01*
X73925Y-36916D01*
X73882Y-36883D01*
X73860Y-36850D01*
X73839Y-36783D01*
X73839Y-36716D01*
X73860Y-36650D01*
X73882Y-36616D01*
X73925Y-36583D01*
X74032Y-36583D01*
X74096Y-36616D01*
X74267Y-36650D02*
X74289Y-36616D01*
X74332Y-36583D01*
X74439Y-36583D01*
X74482Y-36616D01*
X74503Y-36650D01*
X74525Y-36716D01*
X74525Y-36783D01*
X74503Y-36883D01*
X74246Y-37283D01*
X74525Y-37283D01*
X74910Y-36816D02*
X74910Y-37283D01*
X74803Y-36550D02*
X74696Y-37050D01*
X74975Y-37050D01*
X75382Y-37283D02*
X75124Y-37283D01*
X75253Y-37283D02*
X75253Y-36583D01*
X75210Y-36683D01*
X75167Y-36750D01*
X75124Y-36783D01*
G54D11*
G54D19*
X67657Y-30583D02*
X67657Y-31150D01*
X67678Y-31216D01*
X67700Y-31250D01*
X67742Y-31283D01*
X67828Y-31283D01*
X67871Y-31250D01*
X67892Y-31216D01*
X67914Y-31150D01*
X67914Y-30583D01*
X68085Y-30583D02*
X68364Y-30583D01*
X68214Y-30850D01*
X68278Y-30850D01*
X68321Y-30883D01*
X68342Y-30916D01*
X68364Y-30983D01*
X68364Y-31150D01*
X68342Y-31216D01*
X68321Y-31250D01*
X68278Y-31283D01*
X68150Y-31283D01*
X68107Y-31250D01*
X68085Y-31216D01*
G54D11*
G54D19*
X72596Y-31583D02*
X72896Y-31583D01*
X72703Y-32283D01*
X73260Y-31816D02*
X73260Y-32283D01*
X73153Y-31550D02*
X73046Y-32050D01*
X73325Y-32050D01*
X73710Y-32283D02*
X73496Y-32283D01*
X73496Y-31583D01*
X73839Y-32250D02*
X73903Y-32283D01*
X74010Y-32283D01*
X74053Y-32250D01*
X74075Y-32216D01*
X74096Y-32150D01*
X74096Y-32083D01*
X74075Y-32016D01*
X74053Y-31983D01*
X74010Y-31950D01*
X73925Y-31916D01*
X73882Y-31883D01*
X73860Y-31850D01*
X73839Y-31783D01*
X73839Y-31716D01*
X73860Y-31650D01*
X73882Y-31616D01*
X73925Y-31583D01*
X74032Y-31583D01*
X74096Y-31616D01*
X74482Y-31583D02*
X74396Y-31583D01*
X74353Y-31616D01*
X74332Y-31650D01*
X74289Y-31750D01*
X74267Y-31883D01*
X74267Y-32150D01*
X74289Y-32216D01*
X74310Y-32250D01*
X74353Y-32283D01*
X74439Y-32283D01*
X74482Y-32250D01*
X74503Y-32216D01*
X74525Y-32150D01*
X74525Y-31983D01*
X74503Y-31916D01*
X74482Y-31883D01*
X74439Y-31850D01*
X74353Y-31850D01*
X74310Y-31883D01*
X74289Y-31916D01*
X74267Y-31983D01*
X74782Y-31883D02*
X74739Y-31850D01*
X74717Y-31816D01*
X74696Y-31750D01*
X74696Y-31716D01*
X74717Y-31650D01*
X74739Y-31616D01*
X74782Y-31583D01*
X74867Y-31583D01*
X74910Y-31616D01*
X74932Y-31650D01*
X74953Y-31716D01*
X74953Y-31750D01*
X74932Y-31816D01*
X74910Y-31850D01*
X74867Y-31883D01*
X74782Y-31883D01*
X74739Y-31916D01*
X74717Y-31950D01*
X74696Y-32016D01*
X74696Y-32150D01*
X74717Y-32216D01*
X74739Y-32250D01*
X74782Y-32283D01*
X74867Y-32283D01*
X74910Y-32250D01*
X74932Y-32216D01*
X74953Y-32150D01*
X74953Y-32016D01*
X74932Y-31950D01*
X74910Y-31916D01*
X74867Y-31883D01*
X75124Y-31650D02*
X75146Y-31616D01*
X75189Y-31583D01*
X75296Y-31583D01*
X75339Y-31616D01*
X75360Y-31650D01*
X75382Y-31716D01*
X75382Y-31783D01*
X75360Y-31883D01*
X75103Y-32283D01*
X75382Y-32283D01*
G54D11*
G54D19*
X67657Y-40583D02*
X67657Y-41150D01*
X67678Y-41216D01*
X67700Y-41250D01*
X67742Y-41283D01*
X67828Y-41283D01*
X67871Y-41250D01*
X67892Y-41216D01*
X67914Y-41150D01*
X67914Y-40583D01*
X68342Y-40583D02*
X68128Y-40583D01*
X68107Y-40916D01*
X68128Y-40883D01*
X68171Y-40850D01*
X68278Y-40850D01*
X68321Y-40883D01*
X68342Y-40916D01*
X68364Y-40983D01*
X68364Y-41150D01*
X68342Y-41216D01*
X68321Y-41250D01*
X68278Y-41283D01*
X68171Y-41283D01*
X68128Y-41250D01*
X68107Y-41216D01*
G54D11*
G54D19*
X72596Y-41583D02*
X72896Y-41583D01*
X72703Y-42283D01*
X73260Y-41816D02*
X73260Y-42283D01*
X73153Y-41550D02*
X73046Y-42050D01*
X73325Y-42050D01*
X73710Y-42283D02*
X73496Y-42283D01*
X73496Y-41583D01*
X73839Y-42250D02*
X73903Y-42283D01*
X74010Y-42283D01*
X74053Y-42250D01*
X74075Y-42216D01*
X74096Y-42150D01*
X74096Y-42083D01*
X74075Y-42016D01*
X74053Y-41983D01*
X74010Y-41950D01*
X73925Y-41916D01*
X73882Y-41883D01*
X73860Y-41850D01*
X73839Y-41783D01*
X73839Y-41716D01*
X73860Y-41650D01*
X73882Y-41616D01*
X73925Y-41583D01*
X74032Y-41583D01*
X74096Y-41616D01*
X74267Y-41650D02*
X74289Y-41616D01*
X74332Y-41583D01*
X74439Y-41583D01*
X74482Y-41616D01*
X74503Y-41650D01*
X74525Y-41716D01*
X74525Y-41783D01*
X74503Y-41883D01*
X74246Y-42283D01*
X74525Y-42283D01*
X74910Y-41816D02*
X74910Y-42283D01*
X74803Y-41550D02*
X74696Y-42050D01*
X74975Y-42050D01*
X75382Y-42283D02*
X75124Y-42283D01*
X75253Y-42283D02*
X75253Y-41583D01*
X75210Y-41683D01*
X75167Y-41750D01*
X75124Y-41783D01*
G54D11*
G54D19*
X31942Y-27642D02*
X31942Y-28128D01*
X31964Y-28185D01*
X31985Y-28214D01*
X32028Y-28242D01*
X32114Y-28242D01*
X32157Y-28214D01*
X32178Y-28185D01*
X32200Y-28128D01*
X32200Y-27642D01*
X32650Y-28242D02*
X32392Y-28242D01*
X32521Y-28242D02*
X32521Y-27642D01*
X32478Y-27728D01*
X32435Y-27785D01*
X32392Y-27814D01*
X32928Y-27642D02*
X32971Y-27642D01*
X33014Y-27671D01*
X33035Y-27700D01*
X33057Y-27757D01*
X33078Y-27871D01*
X33078Y-28014D01*
X33057Y-28128D01*
X33035Y-28185D01*
X33014Y-28214D01*
X32971Y-28242D01*
X32928Y-28242D01*
X32885Y-28214D01*
X32864Y-28185D01*
X32842Y-28128D01*
X32821Y-28014D01*
X32821Y-27871D01*
X32842Y-27757D01*
X32864Y-27700D01*
X32885Y-27671D01*
X32928Y-27642D01*
G54D11*
G54D19*
X34607Y-29242D02*
X34607Y-28642D01*
X34757Y-29071D01*
X34907Y-28642D01*
X34907Y-29242D01*
X35100Y-29071D02*
X35314Y-29071D01*
X35057Y-29242D02*
X35207Y-28642D01*
X35357Y-29242D01*
X35464Y-28642D02*
X35764Y-29242D01*
X35764Y-28642D02*
X35464Y-29242D01*
X35914Y-28700D02*
X35935Y-28671D01*
X35978Y-28642D01*
X36085Y-28642D01*
X36128Y-28671D01*
X36150Y-28700D01*
X36171Y-28757D01*
X36171Y-28814D01*
X36150Y-28900D01*
X35892Y-29242D01*
X36171Y-29242D01*
X36321Y-28642D02*
X36600Y-28642D01*
X36450Y-28871D01*
X36514Y-28871D01*
X36557Y-28900D01*
X36578Y-28928D01*
X36600Y-28985D01*
X36600Y-29128D01*
X36578Y-29185D01*
X36557Y-29214D01*
X36514Y-29242D01*
X36385Y-29242D01*
X36342Y-29214D01*
X36321Y-29185D01*
X36771Y-28700D02*
X36792Y-28671D01*
X36835Y-28642D01*
X36942Y-28642D01*
X36985Y-28671D01*
X37007Y-28700D01*
X37028Y-28757D01*
X37028Y-28814D01*
X37007Y-28900D01*
X36750Y-29242D01*
X37028Y-29242D01*
X37199Y-29071D02*
X37414Y-29071D01*
X37157Y-29242D02*
X37307Y-28642D01*
X37457Y-29242D01*
G54D11*
G54D19*
X70657Y-50642D02*
X70657Y-51128D01*
X70678Y-51185D01*
X70700Y-51214D01*
X70742Y-51242D01*
X70828Y-51242D01*
X70871Y-51214D01*
X70892Y-51185D01*
X70914Y-51128D01*
X70914Y-50642D01*
X71192Y-50900D02*
X71150Y-50871D01*
X71128Y-50842D01*
X71107Y-50785D01*
X71107Y-50757D01*
X71128Y-50700D01*
X71150Y-50671D01*
X71192Y-50642D01*
X71278Y-50642D01*
X71321Y-50671D01*
X71342Y-50700D01*
X71364Y-50757D01*
X71364Y-50785D01*
X71342Y-50842D01*
X71321Y-50871D01*
X71278Y-50900D01*
X71192Y-50900D01*
X71150Y-50928D01*
X71128Y-50957D01*
X71107Y-51014D01*
X71107Y-51128D01*
X71128Y-51185D01*
X71150Y-51214D01*
X71192Y-51242D01*
X71278Y-51242D01*
X71321Y-51214D01*
X71342Y-51185D01*
X71364Y-51128D01*
X71364Y-51014D01*
X71342Y-50957D01*
X71321Y-50928D01*
X71278Y-50900D01*
G54D11*
G54D19*
X72310Y-51642D02*
X72610Y-51642D01*
X72417Y-52242D01*
X72975Y-51842D02*
X72975Y-52242D01*
X72867Y-51614D02*
X72760Y-52042D01*
X73039Y-52042D01*
X73425Y-52242D02*
X73210Y-52242D01*
X73210Y-51642D01*
X73553Y-52214D02*
X73617Y-52242D01*
X73725Y-52242D01*
X73767Y-52214D01*
X73789Y-52185D01*
X73810Y-52128D01*
X73810Y-52071D01*
X73789Y-52014D01*
X73767Y-51985D01*
X73725Y-51957D01*
X73639Y-51928D01*
X73596Y-51900D01*
X73575Y-51871D01*
X73553Y-51814D01*
X73553Y-51757D01*
X73575Y-51700D01*
X73596Y-51671D01*
X73639Y-51642D01*
X73746Y-51642D01*
X73810Y-51671D01*
X74089Y-51642D02*
X74132Y-51642D01*
X74175Y-51671D01*
X74196Y-51700D01*
X74217Y-51757D01*
X74239Y-51871D01*
X74239Y-52014D01*
X74217Y-52128D01*
X74196Y-52185D01*
X74175Y-52214D01*
X74132Y-52242D01*
X74089Y-52242D01*
X74046Y-52214D01*
X74025Y-52185D01*
X74003Y-52128D01*
X73982Y-52014D01*
X73982Y-51871D01*
X74003Y-51757D01*
X74025Y-51700D01*
X74046Y-51671D01*
X74089Y-51642D01*
X74625Y-51842D02*
X74625Y-52242D01*
X74517Y-51614D02*
X74410Y-52042D01*
X74689Y-52042D01*
G54D11*
G54D19*
X70657Y-55642D02*
X70657Y-56128D01*
X70678Y-56185D01*
X70700Y-56214D01*
X70742Y-56242D01*
X70828Y-56242D01*
X70871Y-56214D01*
X70892Y-56185D01*
X70914Y-56128D01*
X70914Y-55642D01*
X71150Y-56242D02*
X71235Y-56242D01*
X71278Y-56214D01*
X71300Y-56185D01*
X71342Y-56100D01*
X71364Y-55985D01*
X71364Y-55757D01*
X71342Y-55700D01*
X71321Y-55671D01*
X71278Y-55642D01*
X71192Y-55642D01*
X71150Y-55671D01*
X71128Y-55700D01*
X71107Y-55757D01*
X71107Y-55900D01*
X71128Y-55957D01*
X71150Y-55985D01*
X71192Y-56014D01*
X71278Y-56014D01*
X71321Y-55985D01*
X71342Y-55957D01*
X71364Y-55900D01*
G54D11*
G54D19*
X72310Y-56642D02*
X72610Y-56642D01*
X72417Y-57242D01*
X72975Y-56842D02*
X72975Y-57242D01*
X72867Y-56614D02*
X72760Y-57042D01*
X73039Y-57042D01*
X73425Y-57242D02*
X73210Y-57242D01*
X73210Y-56642D01*
X73553Y-57214D02*
X73617Y-57242D01*
X73725Y-57242D01*
X73767Y-57214D01*
X73789Y-57185D01*
X73810Y-57128D01*
X73810Y-57071D01*
X73789Y-57014D01*
X73767Y-56985D01*
X73725Y-56957D01*
X73639Y-56928D01*
X73596Y-56900D01*
X73575Y-56871D01*
X73553Y-56814D01*
X73553Y-56757D01*
X73575Y-56700D01*
X73596Y-56671D01*
X73639Y-56642D01*
X73746Y-56642D01*
X73810Y-56671D01*
X73960Y-56642D02*
X74260Y-56642D01*
X74067Y-57242D01*
X74625Y-56842D02*
X74625Y-57242D01*
X74517Y-56614D02*
X74410Y-57042D01*
X74689Y-57042D01*
G54D11*
G54D19*
X70657Y-45642D02*
X70657Y-46128D01*
X70678Y-46185D01*
X70700Y-46214D01*
X70742Y-46242D01*
X70828Y-46242D01*
X70871Y-46214D01*
X70892Y-46185D01*
X70914Y-46128D01*
X70914Y-45642D01*
X71085Y-45642D02*
X71385Y-45642D01*
X71192Y-46242D01*
G54D11*
G54D19*
X72310Y-46642D02*
X72610Y-46642D01*
X72417Y-47242D01*
X72975Y-46842D02*
X72975Y-47242D01*
X72867Y-46614D02*
X72760Y-47042D01*
X73039Y-47042D01*
X73425Y-47242D02*
X73210Y-47242D01*
X73210Y-46642D01*
X73553Y-47214D02*
X73617Y-47242D01*
X73725Y-47242D01*
X73767Y-47214D01*
X73789Y-47185D01*
X73810Y-47128D01*
X73810Y-47071D01*
X73789Y-47014D01*
X73767Y-46985D01*
X73725Y-46957D01*
X73639Y-46928D01*
X73596Y-46900D01*
X73575Y-46871D01*
X73553Y-46814D01*
X73553Y-46757D01*
X73575Y-46700D01*
X73596Y-46671D01*
X73639Y-46642D01*
X73746Y-46642D01*
X73810Y-46671D01*
X74089Y-46642D02*
X74132Y-46642D01*
X74175Y-46671D01*
X74196Y-46700D01*
X74217Y-46757D01*
X74239Y-46871D01*
X74239Y-47014D01*
X74217Y-47128D01*
X74196Y-47185D01*
X74175Y-47214D01*
X74132Y-47242D01*
X74089Y-47242D01*
X74046Y-47214D01*
X74025Y-47185D01*
X74003Y-47128D01*
X73982Y-47014D01*
X73982Y-46871D01*
X74003Y-46757D01*
X74025Y-46700D01*
X74046Y-46671D01*
X74089Y-46642D01*
X74625Y-46642D02*
X74539Y-46642D01*
X74496Y-46671D01*
X74475Y-46700D01*
X74432Y-46785D01*
X74410Y-46900D01*
X74410Y-47128D01*
X74432Y-47185D01*
X74453Y-47214D01*
X74496Y-47242D01*
X74582Y-47242D01*
X74625Y-47214D01*
X74646Y-47185D01*
X74667Y-47128D01*
X74667Y-46985D01*
X74646Y-46928D01*
X74625Y-46900D01*
X74582Y-46871D01*
X74496Y-46871D01*
X74453Y-46900D01*
X74432Y-46928D01*
X74410Y-46985D01*
G54D11*
G54D19*
X61742Y-31799D02*
X61457Y-31949D01*
X61742Y-32057D02*
X61142Y-32057D01*
X61142Y-31885D01*
X61171Y-31842D01*
X61200Y-31821D01*
X61257Y-31799D01*
X61342Y-31799D01*
X61400Y-31821D01*
X61428Y-31842D01*
X61457Y-31885D01*
X61457Y-32057D01*
X61742Y-31607D02*
X61142Y-31607D01*
X61142Y-31435D01*
X61171Y-31392D01*
X61200Y-31371D01*
X61257Y-31349D01*
X61342Y-31349D01*
X61400Y-31371D01*
X61428Y-31392D01*
X61457Y-31435D01*
X61457Y-31607D01*
X61742Y-30921D02*
X61742Y-31178D01*
X61742Y-31049D02*
X61142Y-31049D01*
X61228Y-31092D01*
X61285Y-31135D01*
X61314Y-31178D01*
G54D11*
G54D19*
X62742Y-27596D02*
X62742Y-27853D01*
X62742Y-27724D02*
X62142Y-27724D01*
X62228Y-27767D01*
X62285Y-27810D01*
X62314Y-27853D01*
X62742Y-27403D02*
X62142Y-27403D01*
X62742Y-27146D02*
X62400Y-27339D01*
X62142Y-27146D02*
X62485Y-27403D01*
G54D11*
G54D19*
X61742Y-41299D02*
X61457Y-41449D01*
X61742Y-41557D02*
X61142Y-41557D01*
X61142Y-41385D01*
X61171Y-41342D01*
X61200Y-41321D01*
X61257Y-41299D01*
X61342Y-41299D01*
X61400Y-41321D01*
X61428Y-41342D01*
X61457Y-41385D01*
X61457Y-41557D01*
X61742Y-41107D02*
X61142Y-41107D01*
X61142Y-40935D01*
X61171Y-40892D01*
X61200Y-40871D01*
X61257Y-40849D01*
X61342Y-40849D01*
X61400Y-40871D01*
X61428Y-40892D01*
X61457Y-40935D01*
X61457Y-41107D01*
X61200Y-40678D02*
X61171Y-40657D01*
X61142Y-40614D01*
X61142Y-40507D01*
X61171Y-40464D01*
X61200Y-40442D01*
X61257Y-40421D01*
X61314Y-40421D01*
X61400Y-40442D01*
X61742Y-40699D01*
X61742Y-40421D01*
G54D11*
G54D19*
X62742Y-37096D02*
X62742Y-37353D01*
X62742Y-37224D02*
X62142Y-37224D01*
X62228Y-37267D01*
X62285Y-37310D01*
X62314Y-37353D01*
X62742Y-36903D02*
X62142Y-36903D01*
X62742Y-36646D02*
X62400Y-36839D01*
X62142Y-36646D02*
X62485Y-36903D01*
G54D11*
G54D15*
X56176Y-40011D02*
X56442Y-40411D01*
X56442Y-40011D02*
X56176Y-40411D01*
X56804Y-40411D02*
X56576Y-40411D01*
X56690Y-40411D02*
X56690Y-40011D01*
X56652Y-40069D01*
X56614Y-40107D01*
X56576Y-40126D01*
G54D13*
X58157Y-40011D02*
X58014Y-40011D01*
X57976Y-40202D01*
X57993Y-40183D01*
X58024Y-40164D01*
X58095Y-40164D01*
X58121Y-40183D01*
X58133Y-40202D01*
X58143Y-40240D01*
X58131Y-40335D01*
X58112Y-40373D01*
X58095Y-40392D01*
X58064Y-40411D01*
X57993Y-40411D01*
X57966Y-40392D01*
X57955Y-40373D01*
X58250Y-40411D02*
X58300Y-40011D01*
X58364Y-40297D01*
X58500Y-40011D01*
X58450Y-40411D01*
X58593Y-40411D02*
X58643Y-40011D01*
X58619Y-40202D02*
X58790Y-40202D01*
X58764Y-40411D02*
X58814Y-40011D01*
X58912Y-40145D02*
X59069Y-40145D01*
X58878Y-40411D01*
X59036Y-40411D01*
G54D15*
X25661Y-40795D02*
X25261Y-40795D01*
X25261Y-40642D01*
X25280Y-40604D01*
X25300Y-40585D01*
X25338Y-40566D01*
X25395Y-40566D01*
X25433Y-40585D01*
X25452Y-40604D01*
X25471Y-40642D01*
X25471Y-40795D01*
X25395Y-40223D02*
X25661Y-40223D01*
X25242Y-40319D02*
X25528Y-40414D01*
X25528Y-40166D01*
G54D13*
X25661Y-38092D02*
X25261Y-38042D01*
X25661Y-37921D02*
X25433Y-38021D01*
X25261Y-37871D02*
X25490Y-38071D01*
X25452Y-37766D02*
X25452Y-37666D01*
X25661Y-37649D02*
X25661Y-37792D01*
X25261Y-37742D01*
X25261Y-37599D01*
X25471Y-37440D02*
X25661Y-37463D01*
X25261Y-37513D02*
X25471Y-37440D01*
X25261Y-37313D01*
X25452Y-37137D02*
X25471Y-37097D01*
X25490Y-37085D01*
X25528Y-37075D01*
X25585Y-37083D01*
X25623Y-37102D01*
X25642Y-37118D01*
X25661Y-37149D01*
X25661Y-37263D01*
X25261Y-37213D01*
X25261Y-37113D01*
X25280Y-37087D01*
X25300Y-37075D01*
X25338Y-37066D01*
X25376Y-37071D01*
X25414Y-37090D01*
X25433Y-37106D01*
X25452Y-37137D01*
X25452Y-37237D01*
X25261Y-36856D02*
X25261Y-36799D01*
X25280Y-36773D01*
X25319Y-36749D01*
X25395Y-36744D01*
X25528Y-36761D01*
X25604Y-36785D01*
X25642Y-36818D01*
X25661Y-36849D01*
X25661Y-36906D01*
X25642Y-36933D01*
X25604Y-36956D01*
X25528Y-36961D01*
X25395Y-36944D01*
X25319Y-36921D01*
X25280Y-36887D01*
X25261Y-36856D01*
X25547Y-36649D02*
X25547Y-36506D01*
X25661Y-36692D02*
X25261Y-36542D01*
X25661Y-36492D01*
X25661Y-36221D02*
X25471Y-36297D01*
X25661Y-36392D02*
X25261Y-36342D01*
X25261Y-36228D01*
X25280Y-36202D01*
X25300Y-36190D01*
X25338Y-36180D01*
X25395Y-36187D01*
X25433Y-36206D01*
X25452Y-36223D01*
X25471Y-36254D01*
X25471Y-36368D01*
X25661Y-36092D02*
X25261Y-36042D01*
X25261Y-35971D01*
X25280Y-35930D01*
X25319Y-35906D01*
X25357Y-35897D01*
X25433Y-35892D01*
X25490Y-35899D01*
X25566Y-35923D01*
X25604Y-35942D01*
X25642Y-35975D01*
X25661Y-36021D01*
X25661Y-36092D01*
G54D11*
X27242Y-33442D02*
X26642Y-33442D01*
X26642Y-33214D01*
X26671Y-33157D01*
X26700Y-33128D01*
X26757Y-33100D01*
X26842Y-33100D01*
X26900Y-33128D01*
X26928Y-33157D01*
X26957Y-33214D01*
X26957Y-33442D01*
X26642Y-32557D02*
X26642Y-32842D01*
X26928Y-32871D01*
X26900Y-32842D01*
X26871Y-32785D01*
X26871Y-32642D01*
X26900Y-32585D01*
X26928Y-32557D01*
X26985Y-32528D01*
X27128Y-32528D01*
X27185Y-32557D01*
X27214Y-32585D01*
X27242Y-32642D01*
X27242Y-32785D01*
X27214Y-32842D01*
X27185Y-32871D01*
G54D16*
X26642Y-23580D02*
X27242Y-23488D01*
X26642Y-23246D01*
X26671Y-22821D02*
X26642Y-22865D01*
X26642Y-22937D01*
X26671Y-23012D01*
X26728Y-23066D01*
X26785Y-23097D01*
X26900Y-23136D01*
X26985Y-23146D01*
X27100Y-23137D01*
X27157Y-23120D01*
X27214Y-23080D01*
X27242Y-23012D01*
X27242Y-22964D01*
X27214Y-22889D01*
X27185Y-22862D01*
X26985Y-22837D01*
X26985Y-22932D01*
X27071Y-22657D02*
X27071Y-22419D01*
X27242Y-22726D02*
X26642Y-22484D01*
X27242Y-22393D01*
G54D15*
X67623Y-57566D02*
X67642Y-57585D01*
X67661Y-57642D01*
X67661Y-57680D01*
X67642Y-57738D01*
X67604Y-57776D01*
X67566Y-57795D01*
X67490Y-57814D01*
X67433Y-57814D01*
X67357Y-57795D01*
X67319Y-57776D01*
X67280Y-57738D01*
X67261Y-57680D01*
X67261Y-57642D01*
X67280Y-57585D01*
X67300Y-57566D01*
X67261Y-57433D02*
X67261Y-57166D01*
X67661Y-57338D01*
X67261Y-56657D02*
X67261Y-56619D01*
X67280Y-56580D01*
X67300Y-56561D01*
X67338Y-56542D01*
X67414Y-56523D01*
X67509Y-56523D01*
X67585Y-56542D01*
X67623Y-56561D01*
X67642Y-56580D01*
X67661Y-56619D01*
X67661Y-56657D01*
X67642Y-56695D01*
X67623Y-56714D01*
X67585Y-56733D01*
X67509Y-56752D01*
X67414Y-56752D01*
X67338Y-56733D01*
X67300Y-56714D01*
X67280Y-56695D01*
X67261Y-56657D01*
X67623Y-56352D02*
X67642Y-56333D01*
X67661Y-56352D01*
X67642Y-56371D01*
X67623Y-56352D01*
X67661Y-56352D01*
X67661Y-55952D02*
X67661Y-56180D01*
X67661Y-56066D02*
X67261Y-56066D01*
X67319Y-56104D01*
X67357Y-56142D01*
X67376Y-56180D01*
X67395Y-55609D02*
X67661Y-55609D01*
X67395Y-55780D02*
X67604Y-55780D01*
X67642Y-55761D01*
X67661Y-55723D01*
X67661Y-55666D01*
X67642Y-55628D01*
X67623Y-55609D01*
X67452Y-55285D02*
X67452Y-55419D01*
X67661Y-55419D02*
X67261Y-55419D01*
X67261Y-55228D01*
X56123Y-39066D02*
X56142Y-39085D01*
X56161Y-39142D01*
X56161Y-39180D01*
X56142Y-39238D01*
X56104Y-39276D01*
X56066Y-39295D01*
X55990Y-39314D01*
X55933Y-39314D01*
X55857Y-39295D01*
X55819Y-39276D01*
X55780Y-39238D01*
X55761Y-39180D01*
X55761Y-39142D01*
X55780Y-39085D01*
X55800Y-39066D01*
X56161Y-38876D02*
X56161Y-38799D01*
X56142Y-38761D01*
X56123Y-38742D01*
X56066Y-38704D01*
X55990Y-38685D01*
X55838Y-38685D01*
X55800Y-38704D01*
X55780Y-38723D01*
X55761Y-38761D01*
X55761Y-38838D01*
X55780Y-38876D01*
X55800Y-38895D01*
X55838Y-38914D01*
X55933Y-38914D01*
X55971Y-38895D01*
X55990Y-38876D01*
X56009Y-38838D01*
X56009Y-38761D01*
X55990Y-38723D01*
X55971Y-38704D01*
X55933Y-38685D01*
X55761Y-38157D02*
X55761Y-38119D01*
X55780Y-38080D01*
X55800Y-38061D01*
X55838Y-38042D01*
X55914Y-38023D01*
X56009Y-38023D01*
X56085Y-38042D01*
X56123Y-38061D01*
X56142Y-38080D01*
X56161Y-38119D01*
X56161Y-38157D01*
X56142Y-38195D01*
X56123Y-38214D01*
X56085Y-38233D01*
X56009Y-38252D01*
X55914Y-38252D01*
X55838Y-38233D01*
X55800Y-38214D01*
X55780Y-38195D01*
X55761Y-38157D01*
X56123Y-37852D02*
X56142Y-37833D01*
X56161Y-37852D01*
X56142Y-37871D01*
X56123Y-37852D01*
X56161Y-37852D01*
X56161Y-37452D02*
X56161Y-37680D01*
X56161Y-37566D02*
X55761Y-37566D01*
X55819Y-37604D01*
X55857Y-37642D01*
X55876Y-37680D01*
X55895Y-37109D02*
X56161Y-37109D01*
X55895Y-37280D02*
X56104Y-37280D01*
X56142Y-37261D01*
X56161Y-37223D01*
X56161Y-37166D01*
X56142Y-37128D01*
X56123Y-37109D01*
X55952Y-36785D02*
X55952Y-36919D01*
X56161Y-36919D02*
X55761Y-36919D01*
X55761Y-36728D01*
X64623Y-42566D02*
X64642Y-42585D01*
X64661Y-42642D01*
X64661Y-42680D01*
X64642Y-42738D01*
X64604Y-42776D01*
X64566Y-42795D01*
X64490Y-42814D01*
X64433Y-42814D01*
X64357Y-42795D01*
X64319Y-42776D01*
X64280Y-42738D01*
X64261Y-42680D01*
X64261Y-42642D01*
X64280Y-42585D01*
X64300Y-42566D01*
X64261Y-42433D02*
X64261Y-42185D01*
X64414Y-42319D01*
X64414Y-42261D01*
X64433Y-42223D01*
X64452Y-42204D01*
X64490Y-42185D01*
X64585Y-42185D01*
X64623Y-42204D01*
X64642Y-42223D01*
X64661Y-42261D01*
X64661Y-42376D01*
X64642Y-42414D01*
X64623Y-42433D01*
X64261Y-41657D02*
X64261Y-41619D01*
X64280Y-41580D01*
X64300Y-41561D01*
X64338Y-41542D01*
X64414Y-41523D01*
X64509Y-41523D01*
X64585Y-41542D01*
X64623Y-41561D01*
X64642Y-41580D01*
X64661Y-41619D01*
X64661Y-41657D01*
X64642Y-41695D01*
X64623Y-41714D01*
X64585Y-41733D01*
X64509Y-41752D01*
X64414Y-41752D01*
X64338Y-41733D01*
X64300Y-41714D01*
X64280Y-41695D01*
X64261Y-41657D01*
X64623Y-41352D02*
X64642Y-41333D01*
X64661Y-41352D01*
X64642Y-41371D01*
X64623Y-41352D01*
X64661Y-41352D01*
X64661Y-40952D02*
X64661Y-41180D01*
X64661Y-41066D02*
X64261Y-41066D01*
X64319Y-41104D01*
X64357Y-41142D01*
X64376Y-41180D01*
X64395Y-40609D02*
X64661Y-40609D01*
X64395Y-40780D02*
X64604Y-40780D01*
X64642Y-40761D01*
X64661Y-40723D01*
X64661Y-40666D01*
X64642Y-40628D01*
X64623Y-40609D01*
X64452Y-40285D02*
X64452Y-40419D01*
X64661Y-40419D02*
X64261Y-40419D01*
X64261Y-40228D01*
X46123Y-40066D02*
X46142Y-40085D01*
X46161Y-40142D01*
X46161Y-40180D01*
X46142Y-40238D01*
X46104Y-40276D01*
X46066Y-40295D01*
X45990Y-40314D01*
X45933Y-40314D01*
X45857Y-40295D01*
X45819Y-40276D01*
X45780Y-40238D01*
X45761Y-40180D01*
X45761Y-40142D01*
X45780Y-40085D01*
X45800Y-40066D01*
X45933Y-39838D02*
X45914Y-39876D01*
X45895Y-39895D01*
X45857Y-39914D01*
X45838Y-39914D01*
X45800Y-39895D01*
X45780Y-39876D01*
X45761Y-39838D01*
X45761Y-39761D01*
X45780Y-39723D01*
X45800Y-39704D01*
X45838Y-39685D01*
X45857Y-39685D01*
X45895Y-39704D01*
X45914Y-39723D01*
X45933Y-39761D01*
X45933Y-39838D01*
X45952Y-39876D01*
X45971Y-39895D01*
X46009Y-39914D01*
X46085Y-39914D01*
X46123Y-39895D01*
X46142Y-39876D01*
X46161Y-39838D01*
X46161Y-39761D01*
X46142Y-39723D01*
X46123Y-39704D01*
X46085Y-39685D01*
X46009Y-39685D01*
X45971Y-39704D01*
X45952Y-39723D01*
X45933Y-39761D01*
X45761Y-39157D02*
X45761Y-39119D01*
X45780Y-39080D01*
X45800Y-39061D01*
X45838Y-39042D01*
X45914Y-39023D01*
X46009Y-39023D01*
X46085Y-39042D01*
X46123Y-39061D01*
X46142Y-39080D01*
X46161Y-39119D01*
X46161Y-39157D01*
X46142Y-39195D01*
X46123Y-39214D01*
X46085Y-39233D01*
X46009Y-39252D01*
X45914Y-39252D01*
X45838Y-39233D01*
X45800Y-39214D01*
X45780Y-39195D01*
X45761Y-39157D01*
X46123Y-38852D02*
X46142Y-38833D01*
X46161Y-38852D01*
X46142Y-38871D01*
X46123Y-38852D01*
X46161Y-38852D01*
X46161Y-38452D02*
X46161Y-38680D01*
X46161Y-38566D02*
X45761Y-38566D01*
X45819Y-38604D01*
X45857Y-38642D01*
X45876Y-38680D01*
X45895Y-38109D02*
X46161Y-38109D01*
X45895Y-38280D02*
X46104Y-38280D01*
X46142Y-38261D01*
X46161Y-38223D01*
X46161Y-38166D01*
X46142Y-38128D01*
X46123Y-38109D01*
X45952Y-37785D02*
X45952Y-37919D01*
X46161Y-37919D02*
X45761Y-37919D01*
X45761Y-37728D01*
X67623Y-52566D02*
X67642Y-52585D01*
X67661Y-52642D01*
X67661Y-52680D01*
X67642Y-52738D01*
X67604Y-52776D01*
X67566Y-52795D01*
X67490Y-52814D01*
X67433Y-52814D01*
X67357Y-52795D01*
X67319Y-52776D01*
X67280Y-52738D01*
X67261Y-52680D01*
X67261Y-52642D01*
X67280Y-52585D01*
X67300Y-52566D01*
X67261Y-52223D02*
X67261Y-52299D01*
X67280Y-52338D01*
X67300Y-52357D01*
X67357Y-52395D01*
X67433Y-52414D01*
X67585Y-52414D01*
X67623Y-52395D01*
X67642Y-52376D01*
X67661Y-52338D01*
X67661Y-52261D01*
X67642Y-52223D01*
X67623Y-52204D01*
X67585Y-52185D01*
X67490Y-52185D01*
X67452Y-52204D01*
X67433Y-52223D01*
X67414Y-52261D01*
X67414Y-52338D01*
X67433Y-52376D01*
X67452Y-52395D01*
X67490Y-52414D01*
X67261Y-51657D02*
X67261Y-51619D01*
X67280Y-51580D01*
X67300Y-51561D01*
X67338Y-51542D01*
X67414Y-51523D01*
X67509Y-51523D01*
X67585Y-51542D01*
X67623Y-51561D01*
X67642Y-51580D01*
X67661Y-51619D01*
X67661Y-51657D01*
X67642Y-51695D01*
X67623Y-51714D01*
X67585Y-51733D01*
X67509Y-51752D01*
X67414Y-51752D01*
X67338Y-51733D01*
X67300Y-51714D01*
X67280Y-51695D01*
X67261Y-51657D01*
X67623Y-51352D02*
X67642Y-51333D01*
X67661Y-51352D01*
X67642Y-51371D01*
X67623Y-51352D01*
X67661Y-51352D01*
X67661Y-50952D02*
X67661Y-51180D01*
X67661Y-51066D02*
X67261Y-51066D01*
X67319Y-51104D01*
X67357Y-51142D01*
X67376Y-51180D01*
X67395Y-50609D02*
X67661Y-50609D01*
X67395Y-50780D02*
X67604Y-50780D01*
X67642Y-50761D01*
X67661Y-50723D01*
X67661Y-50666D01*
X67642Y-50628D01*
X67623Y-50609D01*
X67452Y-50285D02*
X67452Y-50419D01*
X67661Y-50419D02*
X67261Y-50419D01*
X67261Y-50228D01*
X67623Y-47566D02*
X67642Y-47585D01*
X67661Y-47642D01*
X67661Y-47680D01*
X67642Y-47738D01*
X67604Y-47776D01*
X67566Y-47795D01*
X67490Y-47814D01*
X67433Y-47814D01*
X67357Y-47795D01*
X67319Y-47776D01*
X67280Y-47738D01*
X67261Y-47680D01*
X67261Y-47642D01*
X67280Y-47585D01*
X67300Y-47566D01*
X67261Y-47204D02*
X67261Y-47395D01*
X67452Y-47414D01*
X67433Y-47395D01*
X67414Y-47357D01*
X67414Y-47261D01*
X67433Y-47223D01*
X67452Y-47204D01*
X67490Y-47185D01*
X67585Y-47185D01*
X67623Y-47204D01*
X67642Y-47223D01*
X67661Y-47261D01*
X67661Y-47357D01*
X67642Y-47395D01*
X67623Y-47414D01*
X67261Y-46657D02*
X67261Y-46619D01*
X67280Y-46580D01*
X67300Y-46561D01*
X67338Y-46542D01*
X67414Y-46523D01*
X67509Y-46523D01*
X67585Y-46542D01*
X67623Y-46561D01*
X67642Y-46580D01*
X67661Y-46619D01*
X67661Y-46657D01*
X67642Y-46695D01*
X67623Y-46714D01*
X67585Y-46733D01*
X67509Y-46752D01*
X67414Y-46752D01*
X67338Y-46733D01*
X67300Y-46714D01*
X67280Y-46695D01*
X67261Y-46657D01*
X67623Y-46352D02*
X67642Y-46333D01*
X67661Y-46352D01*
X67642Y-46371D01*
X67623Y-46352D01*
X67661Y-46352D01*
X67661Y-45952D02*
X67661Y-46180D01*
X67661Y-46066D02*
X67261Y-46066D01*
X67319Y-46104D01*
X67357Y-46142D01*
X67376Y-46180D01*
X67395Y-45609D02*
X67661Y-45609D01*
X67395Y-45780D02*
X67604Y-45780D01*
X67642Y-45761D01*
X67661Y-45723D01*
X67661Y-45666D01*
X67642Y-45628D01*
X67623Y-45609D01*
X67452Y-45285D02*
X67452Y-45419D01*
X67661Y-45419D02*
X67261Y-45419D01*
X67261Y-45228D01*
X55742Y-27123D02*
X55723Y-27142D01*
X55666Y-27161D01*
X55628Y-27161D01*
X55571Y-27142D01*
X55533Y-27104D01*
X55514Y-27066D01*
X55495Y-26990D01*
X55495Y-26933D01*
X55514Y-26857D01*
X55533Y-26819D01*
X55571Y-26780D01*
X55628Y-26761D01*
X55666Y-26761D01*
X55723Y-26780D01*
X55742Y-26800D01*
X56123Y-27161D02*
X55895Y-27161D01*
X56009Y-27161D02*
X56009Y-26761D01*
X55971Y-26819D01*
X55933Y-26857D01*
X55895Y-26876D01*
X56371Y-26761D02*
X56409Y-26761D01*
X56447Y-26780D01*
X56466Y-26800D01*
X56485Y-26838D01*
X56504Y-26914D01*
X56504Y-27009D01*
X56485Y-27085D01*
X56466Y-27123D01*
X56447Y-27142D01*
X56409Y-27161D01*
X56371Y-27161D01*
X56333Y-27142D01*
X56314Y-27123D01*
X56295Y-27085D01*
X56276Y-27009D01*
X56276Y-26914D01*
X56295Y-26838D01*
X56314Y-26800D01*
X56333Y-26780D01*
X56371Y-26761D01*
X57342Y-26761D02*
X57380Y-26761D01*
X57419Y-26780D01*
X57438Y-26800D01*
X57457Y-26838D01*
X57476Y-26914D01*
X57476Y-27009D01*
X57457Y-27085D01*
X57438Y-27123D01*
X57419Y-27142D01*
X57380Y-27161D01*
X57342Y-27161D01*
X57304Y-27142D01*
X57285Y-27123D01*
X57266Y-27085D01*
X57247Y-27009D01*
X57247Y-26914D01*
X57266Y-26838D01*
X57285Y-26800D01*
X57304Y-26780D01*
X57342Y-26761D01*
X57647Y-27123D02*
X57666Y-27142D01*
X57647Y-27161D01*
X57628Y-27142D01*
X57647Y-27123D01*
X57647Y-27161D01*
X58047Y-27161D02*
X57819Y-27161D01*
X57933Y-27161D02*
X57933Y-26761D01*
X57895Y-26819D01*
X57857Y-26857D01*
X57819Y-26876D01*
X58390Y-26895D02*
X58390Y-27161D01*
X58219Y-26895D02*
X58219Y-27104D01*
X58238Y-27142D01*
X58276Y-27161D01*
X58333Y-27161D01*
X58371Y-27142D01*
X58390Y-27123D01*
X58714Y-26952D02*
X58580Y-26952D01*
X58580Y-27161D02*
X58580Y-26761D01*
X58771Y-26761D01*
X27952Y-39633D02*
X27952Y-39766D01*
X28161Y-39766D02*
X27761Y-39766D01*
X27761Y-39576D01*
X28161Y-39214D02*
X28161Y-39442D01*
X28161Y-39328D02*
X27761Y-39328D01*
X27819Y-39366D01*
X27857Y-39404D01*
X27876Y-39442D01*
X28161Y-38342D02*
X28161Y-38571D01*
X28161Y-38457D02*
X27761Y-38457D01*
X27819Y-38495D01*
X27857Y-38533D01*
X27876Y-38571D01*
X28123Y-38171D02*
X28142Y-38152D01*
X28161Y-38171D01*
X28142Y-38190D01*
X28123Y-38171D01*
X28161Y-38171D01*
X28161Y-37771D02*
X28161Y-37999D01*
X28161Y-37885D02*
X27761Y-37885D01*
X27819Y-37923D01*
X27857Y-37961D01*
X27876Y-37999D01*
X28047Y-37619D02*
X28047Y-37428D01*
X28161Y-37657D02*
X27761Y-37523D01*
X28161Y-37390D01*
X42123Y-35757D02*
X42142Y-35776D01*
X42161Y-35833D01*
X42161Y-35871D01*
X42142Y-35928D01*
X42104Y-35966D01*
X42066Y-35985D01*
X41990Y-36004D01*
X41933Y-36004D01*
X41857Y-35985D01*
X41819Y-35966D01*
X41780Y-35928D01*
X41761Y-35871D01*
X41761Y-35833D01*
X41780Y-35776D01*
X41800Y-35757D01*
X42161Y-35376D02*
X42161Y-35604D01*
X42161Y-35490D02*
X41761Y-35490D01*
X41819Y-35528D01*
X41857Y-35566D01*
X41876Y-35604D01*
X41761Y-35242D02*
X41761Y-34976D01*
X42161Y-35147D01*
X41761Y-34347D02*
X41761Y-34309D01*
X41780Y-34271D01*
X41800Y-34252D01*
X41838Y-34233D01*
X41914Y-34214D01*
X42009Y-34214D01*
X42085Y-34233D01*
X42123Y-34252D01*
X42142Y-34271D01*
X42161Y-34309D01*
X42161Y-34347D01*
X42142Y-34385D01*
X42123Y-34404D01*
X42085Y-34423D01*
X42009Y-34442D01*
X41914Y-34442D01*
X41838Y-34423D01*
X41800Y-34404D01*
X41780Y-34385D01*
X41761Y-34347D01*
X42123Y-34042D02*
X42142Y-34023D01*
X42161Y-34042D01*
X42142Y-34061D01*
X42123Y-34042D01*
X42161Y-34042D01*
X41895Y-33680D02*
X42161Y-33680D01*
X41742Y-33776D02*
X42028Y-33871D01*
X42028Y-33623D01*
X41761Y-33509D02*
X41761Y-33242D01*
X42161Y-33414D01*
X41895Y-32919D02*
X42161Y-32919D01*
X41895Y-33090D02*
X42104Y-33090D01*
X42142Y-33071D01*
X42161Y-33033D01*
X42161Y-32976D01*
X42142Y-32938D01*
X42123Y-32919D01*
X41952Y-32595D02*
X41952Y-32728D01*
X42161Y-32728D02*
X41761Y-32728D01*
X41761Y-32538D01*
X45242Y-53623D02*
X45223Y-53642D01*
X45166Y-53661D01*
X45128Y-53661D01*
X45071Y-53642D01*
X45033Y-53604D01*
X45014Y-53566D01*
X44995Y-53490D01*
X44995Y-53433D01*
X45014Y-53357D01*
X45033Y-53319D01*
X45071Y-53280D01*
X45128Y-53261D01*
X45166Y-53261D01*
X45223Y-53280D01*
X45242Y-53300D01*
X45623Y-53661D02*
X45395Y-53661D01*
X45509Y-53661D02*
X45509Y-53261D01*
X45471Y-53319D01*
X45433Y-53357D01*
X45395Y-53376D01*
X46004Y-53661D02*
X45776Y-53661D01*
X45890Y-53661D02*
X45890Y-53261D01*
X45852Y-53319D01*
X45814Y-53357D01*
X45776Y-53376D01*
X46842Y-53261D02*
X46880Y-53261D01*
X46919Y-53280D01*
X46938Y-53300D01*
X46957Y-53338D01*
X46976Y-53414D01*
X46976Y-53509D01*
X46957Y-53585D01*
X46938Y-53623D01*
X46919Y-53642D01*
X46880Y-53661D01*
X46842Y-53661D01*
X46804Y-53642D01*
X46785Y-53623D01*
X46766Y-53585D01*
X46747Y-53509D01*
X46747Y-53414D01*
X46766Y-53338D01*
X46785Y-53300D01*
X46804Y-53280D01*
X46842Y-53261D01*
X47147Y-53623D02*
X47166Y-53642D01*
X47147Y-53661D01*
X47128Y-53642D01*
X47147Y-53623D01*
X47147Y-53661D01*
X47547Y-53661D02*
X47319Y-53661D01*
X47433Y-53661D02*
X47433Y-53261D01*
X47395Y-53319D01*
X47357Y-53357D01*
X47319Y-53376D01*
X47890Y-53395D02*
X47890Y-53661D01*
X47719Y-53395D02*
X47719Y-53604D01*
X47738Y-53642D01*
X47776Y-53661D01*
X47833Y-53661D01*
X47871Y-53642D01*
X47890Y-53623D01*
X48214Y-53452D02*
X48080Y-53452D01*
X48080Y-53661D02*
X48080Y-53261D01*
X48271Y-53261D01*
X75775Y-22539D02*
X75758Y-22560D01*
X75708Y-22582D01*
X75675Y-22582D01*
X75625Y-22560D01*
X75591Y-22517D01*
X75575Y-22475D01*
X75558Y-22389D01*
X75558Y-22325D01*
X75575Y-22239D01*
X75591Y-22196D01*
X75625Y-22153D01*
X75675Y-22132D01*
X75708Y-22132D01*
X75758Y-22153D01*
X75775Y-22175D01*
X75908Y-22175D02*
X75925Y-22153D01*
X75958Y-22132D01*
X76041Y-22132D01*
X76075Y-22153D01*
X76091Y-22175D01*
X76108Y-22217D01*
X76108Y-22260D01*
X76091Y-22325D01*
X75891Y-22582D01*
X76108Y-22582D01*
X76241Y-22175D02*
X76258Y-22153D01*
X76291Y-22132D01*
X76375Y-22132D01*
X76408Y-22153D01*
X76425Y-22175D01*
X76441Y-22217D01*
X76441Y-22260D01*
X76425Y-22325D01*
X76225Y-22582D01*
X76441Y-22582D01*
X75425Y-23375D02*
X75441Y-23353D01*
X75475Y-23332D01*
X75558Y-23332D01*
X75591Y-23353D01*
X75608Y-23375D01*
X75625Y-23417D01*
X75625Y-23460D01*
X75608Y-23525D01*
X75408Y-23782D01*
X75625Y-23782D01*
X75758Y-23375D02*
X75775Y-23353D01*
X75808Y-23332D01*
X75891Y-23332D01*
X75925Y-23353D01*
X75941Y-23375D01*
X75958Y-23417D01*
X75958Y-23460D01*
X75941Y-23525D01*
X75741Y-23782D01*
X75958Y-23782D01*
X76258Y-23482D02*
X76258Y-23782D01*
X76108Y-23482D02*
X76108Y-23717D01*
X76125Y-23760D01*
X76158Y-23782D01*
X76208Y-23782D01*
X76241Y-23760D01*
X76258Y-23739D01*
X76541Y-23546D02*
X76425Y-23546D01*
X76425Y-23782D02*
X76425Y-23332D01*
X76591Y-23332D01*
G54D19*
X76828Y-23010D02*
X77171Y-23010D01*
X77000Y-23182D02*
X77000Y-22839D01*
G54D11*
G54D17*
X46307Y-51093D02*
X46292Y-51108D01*
X46250Y-51122D01*
X46221Y-51122D01*
X46178Y-51108D01*
X46150Y-51079D01*
X46135Y-51051D01*
X46121Y-50993D01*
X46121Y-50951D01*
X46135Y-50893D01*
X46150Y-50865D01*
X46178Y-50836D01*
X46221Y-50822D01*
X46250Y-50822D01*
X46292Y-50836D01*
X46307Y-50851D01*
X46592Y-51122D02*
X46421Y-51122D01*
X46507Y-51122D02*
X46507Y-50822D01*
X46478Y-50865D01*
X46450Y-50893D01*
X46421Y-50908D01*
X46764Y-50951D02*
X46735Y-50936D01*
X46721Y-50922D01*
X46707Y-50893D01*
X46707Y-50879D01*
X46721Y-50851D01*
X46735Y-50836D01*
X46764Y-50822D01*
X46821Y-50822D01*
X46850Y-50836D01*
X46864Y-50851D01*
X46878Y-50879D01*
X46878Y-50893D01*
X46864Y-50922D01*
X46850Y-50936D01*
X46821Y-50951D01*
X46764Y-50951D01*
X46735Y-50965D01*
X46721Y-50979D01*
X46707Y-51008D01*
X46707Y-51065D01*
X46721Y-51093D01*
X46735Y-51108D01*
X46764Y-51122D01*
X46821Y-51122D01*
X46850Y-51108D01*
X46864Y-51093D01*
X46878Y-51065D01*
X46878Y-51008D01*
X46864Y-50979D01*
X46850Y-50965D01*
X46821Y-50951D01*
X46232Y-52121D02*
X46089Y-52121D01*
X46160Y-52121D02*
X46160Y-51821D01*
X46136Y-51864D01*
X46113Y-51892D01*
X46089Y-51907D01*
X46386Y-51821D02*
X46410Y-51821D01*
X46434Y-51835D01*
X46446Y-51850D01*
X46458Y-51878D01*
X46470Y-51935D01*
X46470Y-52007D01*
X46458Y-52064D01*
X46446Y-52092D01*
X46434Y-52107D01*
X46410Y-52121D01*
X46386Y-52121D01*
X46363Y-52107D01*
X46351Y-52092D01*
X46339Y-52064D01*
X46327Y-52007D01*
X46327Y-51935D01*
X46339Y-51878D01*
X46351Y-51850D01*
X46363Y-51835D01*
X46386Y-51821D01*
X46684Y-51921D02*
X46684Y-52121D01*
X46577Y-51921D02*
X46577Y-52078D01*
X46589Y-52107D01*
X46613Y-52121D01*
X46648Y-52121D01*
X46672Y-52107D01*
X46684Y-52092D01*
X46886Y-51964D02*
X46803Y-51964D01*
X46803Y-52121D02*
X46803Y-51821D01*
X46922Y-51821D01*
G54D12*
X45485Y-51507D02*
X45714Y-51507D01*
X45600Y-51621D02*
X45600Y-51392D01*
G54D15*
G54D17*
X57092Y-38192D02*
X57107Y-38207D01*
X57121Y-38250D01*
X57121Y-38278D01*
X57107Y-38321D01*
X57078Y-38350D01*
X57050Y-38364D01*
X56992Y-38378D01*
X56950Y-38378D01*
X56892Y-38364D01*
X56864Y-38350D01*
X56835Y-38321D01*
X56821Y-38278D01*
X56821Y-38250D01*
X56835Y-38207D01*
X56850Y-38192D01*
X57121Y-37907D02*
X57121Y-38078D01*
X57121Y-37992D02*
X56821Y-37992D01*
X56864Y-38021D01*
X56892Y-38050D01*
X56907Y-38078D01*
X57121Y-37764D02*
X57121Y-37707D01*
X57107Y-37678D01*
X57092Y-37664D01*
X57050Y-37635D01*
X56992Y-37621D01*
X56878Y-37621D01*
X56850Y-37635D01*
X56835Y-37650D01*
X56821Y-37678D01*
X56821Y-37735D01*
X56835Y-37764D01*
X56850Y-37778D01*
X56878Y-37792D01*
X56950Y-37792D01*
X56978Y-37778D01*
X56992Y-37764D01*
X57007Y-37735D01*
X57007Y-37678D01*
X56992Y-37650D01*
X56978Y-37635D01*
X56950Y-37621D01*
X58121Y-38267D02*
X58121Y-38410D01*
X58121Y-38339D02*
X57821Y-38339D01*
X57864Y-38363D01*
X57892Y-38386D01*
X57907Y-38410D01*
X57821Y-38113D02*
X57821Y-38089D01*
X57835Y-38065D01*
X57850Y-38053D01*
X57878Y-38041D01*
X57935Y-38029D01*
X58007Y-38029D01*
X58064Y-38041D01*
X58092Y-38053D01*
X58107Y-38065D01*
X58121Y-38089D01*
X58121Y-38113D01*
X58107Y-38136D01*
X58092Y-38148D01*
X58064Y-38160D01*
X58007Y-38172D01*
X57935Y-38172D01*
X57878Y-38160D01*
X57850Y-38148D01*
X57835Y-38136D01*
X57821Y-38113D01*
X57921Y-37815D02*
X58121Y-37815D01*
X57921Y-37922D02*
X58078Y-37922D01*
X58107Y-37910D01*
X58121Y-37886D01*
X58121Y-37851D01*
X58107Y-37827D01*
X58092Y-37815D01*
X57964Y-37613D02*
X57964Y-37696D01*
X58121Y-37696D02*
X57821Y-37696D01*
X57821Y-37577D01*
G54D12*
X57507Y-37214D02*
X57507Y-36985D01*
X57621Y-37100D02*
X57392Y-37100D01*
G54D15*
G54D17*
X36092Y-53192D02*
X36107Y-53207D01*
X36121Y-53250D01*
X36121Y-53278D01*
X36107Y-53321D01*
X36078Y-53350D01*
X36050Y-53364D01*
X35992Y-53378D01*
X35950Y-53378D01*
X35892Y-53364D01*
X35864Y-53350D01*
X35835Y-53321D01*
X35821Y-53278D01*
X35821Y-53250D01*
X35835Y-53207D01*
X35850Y-53192D01*
X35850Y-53078D02*
X35835Y-53064D01*
X35821Y-53035D01*
X35821Y-52964D01*
X35835Y-52935D01*
X35850Y-52921D01*
X35878Y-52907D01*
X35907Y-52907D01*
X35950Y-52921D01*
X36121Y-53092D01*
X36121Y-52907D01*
X35821Y-52721D02*
X35821Y-52692D01*
X35835Y-52664D01*
X35850Y-52650D01*
X35878Y-52635D01*
X35935Y-52621D01*
X36007Y-52621D01*
X36064Y-52635D01*
X36092Y-52650D01*
X36107Y-52664D01*
X36121Y-52692D01*
X36121Y-52721D01*
X36107Y-52750D01*
X36092Y-52764D01*
X36064Y-52778D01*
X36007Y-52792D01*
X35935Y-52792D01*
X35878Y-52778D01*
X35850Y-52764D01*
X35835Y-52750D01*
X35821Y-52721D01*
X37121Y-53267D02*
X37121Y-53410D01*
X37121Y-53339D02*
X36821Y-53339D01*
X36864Y-53363D01*
X36892Y-53386D01*
X36907Y-53410D01*
X36821Y-53113D02*
X36821Y-53089D01*
X36835Y-53065D01*
X36850Y-53053D01*
X36878Y-53041D01*
X36935Y-53029D01*
X37007Y-53029D01*
X37064Y-53041D01*
X37092Y-53053D01*
X37107Y-53065D01*
X37121Y-53089D01*
X37121Y-53113D01*
X37107Y-53136D01*
X37092Y-53148D01*
X37064Y-53160D01*
X37007Y-53172D01*
X36935Y-53172D01*
X36878Y-53160D01*
X36850Y-53148D01*
X36835Y-53136D01*
X36821Y-53113D01*
X36921Y-52815D02*
X37121Y-52815D01*
X36921Y-52922D02*
X37078Y-52922D01*
X37107Y-52910D01*
X37121Y-52886D01*
X37121Y-52851D01*
X37107Y-52827D01*
X37092Y-52815D01*
X36964Y-52613D02*
X36964Y-52696D01*
X37121Y-52696D02*
X36821Y-52696D01*
X36821Y-52577D01*
G54D12*
X36507Y-52214D02*
X36507Y-51985D01*
X36621Y-52100D02*
X36392Y-52100D01*
G54D15*
X31242Y-34623D02*
X31223Y-34642D01*
X31166Y-34661D01*
X31128Y-34661D01*
X31071Y-34642D01*
X31033Y-34604D01*
X31014Y-34566D01*
X30995Y-34490D01*
X30995Y-34433D01*
X31014Y-34357D01*
X31033Y-34319D01*
X31071Y-34280D01*
X31128Y-34261D01*
X31166Y-34261D01*
X31223Y-34280D01*
X31242Y-34300D01*
X31623Y-34661D02*
X31395Y-34661D01*
X31509Y-34661D02*
X31509Y-34261D01*
X31471Y-34319D01*
X31433Y-34357D01*
X31395Y-34376D01*
X31985Y-34261D02*
X31795Y-34261D01*
X31776Y-34452D01*
X31795Y-34433D01*
X31833Y-34414D01*
X31928Y-34414D01*
X31966Y-34433D01*
X31985Y-34452D01*
X32004Y-34490D01*
X32004Y-34585D01*
X31985Y-34623D01*
X31966Y-34642D01*
X31928Y-34661D01*
X31833Y-34661D01*
X31795Y-34642D01*
X31776Y-34623D01*
X32842Y-34261D02*
X32880Y-34261D01*
X32919Y-34280D01*
X32938Y-34300D01*
X32957Y-34338D01*
X32976Y-34414D01*
X32976Y-34509D01*
X32957Y-34585D01*
X32938Y-34623D01*
X32919Y-34642D01*
X32880Y-34661D01*
X32842Y-34661D01*
X32804Y-34642D01*
X32785Y-34623D01*
X32766Y-34585D01*
X32747Y-34509D01*
X32747Y-34414D01*
X32766Y-34338D01*
X32785Y-34300D01*
X32804Y-34280D01*
X32842Y-34261D01*
X33147Y-34623D02*
X33166Y-34642D01*
X33147Y-34661D01*
X33128Y-34642D01*
X33147Y-34623D01*
X33147Y-34661D01*
X33547Y-34661D02*
X33319Y-34661D01*
X33433Y-34661D02*
X33433Y-34261D01*
X33395Y-34319D01*
X33357Y-34357D01*
X33319Y-34376D01*
X33890Y-34395D02*
X33890Y-34661D01*
X33719Y-34395D02*
X33719Y-34604D01*
X33738Y-34642D01*
X33776Y-34661D01*
X33833Y-34661D01*
X33871Y-34642D01*
X33890Y-34623D01*
X34214Y-34452D02*
X34080Y-34452D01*
X34080Y-34661D02*
X34080Y-34261D01*
X34271Y-34261D01*
X36242Y-32623D02*
X36223Y-32642D01*
X36166Y-32661D01*
X36128Y-32661D01*
X36071Y-32642D01*
X36033Y-32604D01*
X36014Y-32566D01*
X35995Y-32490D01*
X35995Y-32433D01*
X36014Y-32357D01*
X36033Y-32319D01*
X36071Y-32280D01*
X36128Y-32261D01*
X36166Y-32261D01*
X36223Y-32280D01*
X36242Y-32300D01*
X36623Y-32661D02*
X36395Y-32661D01*
X36509Y-32661D02*
X36509Y-32261D01*
X36471Y-32319D01*
X36433Y-32357D01*
X36395Y-32376D01*
X36966Y-32395D02*
X36966Y-32661D01*
X36871Y-32242D02*
X36776Y-32528D01*
X37023Y-32528D01*
X37842Y-32261D02*
X37880Y-32261D01*
X37919Y-32280D01*
X37938Y-32300D01*
X37957Y-32338D01*
X37976Y-32414D01*
X37976Y-32509D01*
X37957Y-32585D01*
X37938Y-32623D01*
X37919Y-32642D01*
X37880Y-32661D01*
X37842Y-32661D01*
X37804Y-32642D01*
X37785Y-32623D01*
X37766Y-32585D01*
X37747Y-32509D01*
X37747Y-32414D01*
X37766Y-32338D01*
X37785Y-32300D01*
X37804Y-32280D01*
X37842Y-32261D01*
X38147Y-32623D02*
X38166Y-32642D01*
X38147Y-32661D01*
X38128Y-32642D01*
X38147Y-32623D01*
X38147Y-32661D01*
X38547Y-32661D02*
X38319Y-32661D01*
X38433Y-32661D02*
X38433Y-32261D01*
X38395Y-32319D01*
X38357Y-32357D01*
X38319Y-32376D01*
X38890Y-32395D02*
X38890Y-32661D01*
X38719Y-32395D02*
X38719Y-32604D01*
X38738Y-32642D01*
X38776Y-32661D01*
X38833Y-32661D01*
X38871Y-32642D01*
X38890Y-32623D01*
X39214Y-32452D02*
X39080Y-32452D01*
X39080Y-32661D02*
X39080Y-32261D01*
X39271Y-32261D01*
X64623Y-32566D02*
X64642Y-32585D01*
X64661Y-32642D01*
X64661Y-32680D01*
X64642Y-32738D01*
X64604Y-32776D01*
X64566Y-32795D01*
X64490Y-32814D01*
X64433Y-32814D01*
X64357Y-32795D01*
X64319Y-32776D01*
X64280Y-32738D01*
X64261Y-32680D01*
X64261Y-32642D01*
X64280Y-32585D01*
X64300Y-32566D01*
X64395Y-32223D02*
X64661Y-32223D01*
X64242Y-32319D02*
X64528Y-32414D01*
X64528Y-32166D01*
X64261Y-31657D02*
X64261Y-31619D01*
X64280Y-31580D01*
X64300Y-31561D01*
X64338Y-31542D01*
X64414Y-31523D01*
X64509Y-31523D01*
X64585Y-31542D01*
X64623Y-31561D01*
X64642Y-31580D01*
X64661Y-31619D01*
X64661Y-31657D01*
X64642Y-31695D01*
X64623Y-31714D01*
X64585Y-31733D01*
X64509Y-31752D01*
X64414Y-31752D01*
X64338Y-31733D01*
X64300Y-31714D01*
X64280Y-31695D01*
X64261Y-31657D01*
X64623Y-31352D02*
X64642Y-31333D01*
X64661Y-31352D01*
X64642Y-31371D01*
X64623Y-31352D01*
X64661Y-31352D01*
X64661Y-30952D02*
X64661Y-31180D01*
X64661Y-31066D02*
X64261Y-31066D01*
X64319Y-31104D01*
X64357Y-31142D01*
X64376Y-31180D01*
X64395Y-30609D02*
X64661Y-30609D01*
X64395Y-30780D02*
X64604Y-30780D01*
X64642Y-30761D01*
X64661Y-30723D01*
X64661Y-30666D01*
X64642Y-30628D01*
X64623Y-30609D01*
X64452Y-30285D02*
X64452Y-30419D01*
X64661Y-30419D02*
X64261Y-30419D01*
X64261Y-30228D01*
X36242Y-34623D02*
X36223Y-34642D01*
X36166Y-34661D01*
X36128Y-34661D01*
X36071Y-34642D01*
X36033Y-34604D01*
X36014Y-34566D01*
X35995Y-34490D01*
X35995Y-34433D01*
X36014Y-34357D01*
X36033Y-34319D01*
X36071Y-34280D01*
X36128Y-34261D01*
X36166Y-34261D01*
X36223Y-34280D01*
X36242Y-34300D01*
X36623Y-34661D02*
X36395Y-34661D01*
X36509Y-34661D02*
X36509Y-34261D01*
X36471Y-34319D01*
X36433Y-34357D01*
X36395Y-34376D01*
X36966Y-34261D02*
X36890Y-34261D01*
X36852Y-34280D01*
X36833Y-34300D01*
X36795Y-34357D01*
X36776Y-34433D01*
X36776Y-34585D01*
X36795Y-34623D01*
X36814Y-34642D01*
X36852Y-34661D01*
X36928Y-34661D01*
X36966Y-34642D01*
X36985Y-34623D01*
X37004Y-34585D01*
X37004Y-34490D01*
X36985Y-34452D01*
X36966Y-34433D01*
X36928Y-34414D01*
X36852Y-34414D01*
X36814Y-34433D01*
X36795Y-34452D01*
X36776Y-34490D01*
X37842Y-34261D02*
X37880Y-34261D01*
X37919Y-34280D01*
X37938Y-34300D01*
X37957Y-34338D01*
X37976Y-34414D01*
X37976Y-34509D01*
X37957Y-34585D01*
X37938Y-34623D01*
X37919Y-34642D01*
X37880Y-34661D01*
X37842Y-34661D01*
X37804Y-34642D01*
X37785Y-34623D01*
X37766Y-34585D01*
X37747Y-34509D01*
X37747Y-34414D01*
X37766Y-34338D01*
X37785Y-34300D01*
X37804Y-34280D01*
X37842Y-34261D01*
X38147Y-34623D02*
X38166Y-34642D01*
X38147Y-34661D01*
X38128Y-34642D01*
X38147Y-34623D01*
X38147Y-34661D01*
X38547Y-34661D02*
X38319Y-34661D01*
X38433Y-34661D02*
X38433Y-34261D01*
X38395Y-34319D01*
X38357Y-34357D01*
X38319Y-34376D01*
X38890Y-34395D02*
X38890Y-34661D01*
X38719Y-34395D02*
X38719Y-34604D01*
X38738Y-34642D01*
X38776Y-34661D01*
X38833Y-34661D01*
X38871Y-34642D01*
X38890Y-34623D01*
X39214Y-34452D02*
X39080Y-34452D01*
X39080Y-34661D02*
X39080Y-34261D01*
X39271Y-34261D01*
X64623Y-27566D02*
X64642Y-27585D01*
X64661Y-27642D01*
X64661Y-27680D01*
X64642Y-27738D01*
X64604Y-27776D01*
X64566Y-27795D01*
X64490Y-27814D01*
X64433Y-27814D01*
X64357Y-27795D01*
X64319Y-27776D01*
X64280Y-27738D01*
X64261Y-27680D01*
X64261Y-27642D01*
X64280Y-27585D01*
X64300Y-27566D01*
X64300Y-27414D02*
X64280Y-27395D01*
X64261Y-27357D01*
X64261Y-27261D01*
X64280Y-27223D01*
X64300Y-27204D01*
X64338Y-27185D01*
X64376Y-27185D01*
X64433Y-27204D01*
X64661Y-27433D01*
X64661Y-27185D01*
X64261Y-26657D02*
X64261Y-26619D01*
X64280Y-26580D01*
X64300Y-26561D01*
X64338Y-26542D01*
X64414Y-26523D01*
X64509Y-26523D01*
X64585Y-26542D01*
X64623Y-26561D01*
X64642Y-26580D01*
X64661Y-26619D01*
X64661Y-26657D01*
X64642Y-26695D01*
X64623Y-26714D01*
X64585Y-26733D01*
X64509Y-26752D01*
X64414Y-26752D01*
X64338Y-26733D01*
X64300Y-26714D01*
X64280Y-26695D01*
X64261Y-26657D01*
X64623Y-26352D02*
X64642Y-26333D01*
X64661Y-26352D01*
X64642Y-26371D01*
X64623Y-26352D01*
X64661Y-26352D01*
X64661Y-25952D02*
X64661Y-26180D01*
X64661Y-26066D02*
X64261Y-26066D01*
X64319Y-26104D01*
X64357Y-26142D01*
X64376Y-26180D01*
X64395Y-25609D02*
X64661Y-25609D01*
X64395Y-25780D02*
X64604Y-25780D01*
X64642Y-25761D01*
X64661Y-25723D01*
X64661Y-25666D01*
X64642Y-25628D01*
X64623Y-25609D01*
X64452Y-25285D02*
X64452Y-25419D01*
X64661Y-25419D02*
X64261Y-25419D01*
X64261Y-25228D01*
X31242Y-32623D02*
X31223Y-32642D01*
X31166Y-32661D01*
X31128Y-32661D01*
X31071Y-32642D01*
X31033Y-32604D01*
X31014Y-32566D01*
X30995Y-32490D01*
X30995Y-32433D01*
X31014Y-32357D01*
X31033Y-32319D01*
X31071Y-32280D01*
X31128Y-32261D01*
X31166Y-32261D01*
X31223Y-32280D01*
X31242Y-32300D01*
X31623Y-32661D02*
X31395Y-32661D01*
X31509Y-32661D02*
X31509Y-32261D01*
X31471Y-32319D01*
X31433Y-32357D01*
X31395Y-32376D01*
X31757Y-32261D02*
X32004Y-32261D01*
X31871Y-32414D01*
X31928Y-32414D01*
X31966Y-32433D01*
X31985Y-32452D01*
X32004Y-32490D01*
X32004Y-32585D01*
X31985Y-32623D01*
X31966Y-32642D01*
X31928Y-32661D01*
X31814Y-32661D01*
X31776Y-32642D01*
X31757Y-32623D01*
X32842Y-32261D02*
X32880Y-32261D01*
X32919Y-32280D01*
X32938Y-32300D01*
X32957Y-32338D01*
X32976Y-32414D01*
X32976Y-32509D01*
X32957Y-32585D01*
X32938Y-32623D01*
X32919Y-32642D01*
X32880Y-32661D01*
X32842Y-32661D01*
X32804Y-32642D01*
X32785Y-32623D01*
X32766Y-32585D01*
X32747Y-32509D01*
X32747Y-32414D01*
X32766Y-32338D01*
X32785Y-32300D01*
X32804Y-32280D01*
X32842Y-32261D01*
X33147Y-32623D02*
X33166Y-32642D01*
X33147Y-32661D01*
X33128Y-32642D01*
X33147Y-32623D01*
X33147Y-32661D01*
X33547Y-32661D02*
X33319Y-32661D01*
X33433Y-32661D02*
X33433Y-32261D01*
X33395Y-32319D01*
X33357Y-32357D01*
X33319Y-32376D01*
X33890Y-32395D02*
X33890Y-32661D01*
X33719Y-32395D02*
X33719Y-32604D01*
X33738Y-32642D01*
X33776Y-32661D01*
X33833Y-32661D01*
X33871Y-32642D01*
X33890Y-32623D01*
X34214Y-32452D02*
X34080Y-32452D01*
X34080Y-32661D02*
X34080Y-32261D01*
X34271Y-32261D01*
X64623Y-37566D02*
X64642Y-37585D01*
X64661Y-37642D01*
X64661Y-37680D01*
X64642Y-37738D01*
X64604Y-37776D01*
X64566Y-37795D01*
X64490Y-37814D01*
X64433Y-37814D01*
X64357Y-37795D01*
X64319Y-37776D01*
X64280Y-37738D01*
X64261Y-37680D01*
X64261Y-37642D01*
X64280Y-37585D01*
X64300Y-37566D01*
X64661Y-37185D02*
X64661Y-37414D01*
X64661Y-37299D02*
X64261Y-37299D01*
X64319Y-37338D01*
X64357Y-37376D01*
X64376Y-37414D01*
X64261Y-36657D02*
X64261Y-36619D01*
X64280Y-36580D01*
X64300Y-36561D01*
X64338Y-36542D01*
X64414Y-36523D01*
X64509Y-36523D01*
X64585Y-36542D01*
X64623Y-36561D01*
X64642Y-36580D01*
X64661Y-36619D01*
X64661Y-36657D01*
X64642Y-36695D01*
X64623Y-36714D01*
X64585Y-36733D01*
X64509Y-36752D01*
X64414Y-36752D01*
X64338Y-36733D01*
X64300Y-36714D01*
X64280Y-36695D01*
X64261Y-36657D01*
X64623Y-36352D02*
X64642Y-36333D01*
X64661Y-36352D01*
X64642Y-36371D01*
X64623Y-36352D01*
X64661Y-36352D01*
X64661Y-35952D02*
X64661Y-36180D01*
X64661Y-36066D02*
X64261Y-36066D01*
X64319Y-36104D01*
X64357Y-36142D01*
X64376Y-36180D01*
X64395Y-35609D02*
X64661Y-35609D01*
X64395Y-35780D02*
X64604Y-35780D01*
X64642Y-35761D01*
X64661Y-35723D01*
X64661Y-35666D01*
X64642Y-35628D01*
X64623Y-35609D01*
X64452Y-35285D02*
X64452Y-35419D01*
X64661Y-35419D02*
X64261Y-35419D01*
X64261Y-35228D01*
G54D11*
X32692Y-54442D02*
X32092Y-54442D01*
X32092Y-54214D01*
X32121Y-54157D01*
X32150Y-54128D01*
X32207Y-54100D01*
X32292Y-54100D01*
X32350Y-54128D01*
X32378Y-54157D01*
X32407Y-54214D01*
X32407Y-54442D01*
X32092Y-53900D02*
X32092Y-53528D01*
X32321Y-53728D01*
X32321Y-53642D01*
X32350Y-53585D01*
X32378Y-53557D01*
X32435Y-53528D01*
X32578Y-53528D01*
X32635Y-53557D01*
X32664Y-53585D01*
X32692Y-53642D01*
X32692Y-53814D01*
X32664Y-53871D01*
X32635Y-53900D01*
X32664Y-47857D02*
X32692Y-47771D01*
X32692Y-47628D01*
X32664Y-47571D01*
X32635Y-47542D01*
X32578Y-47514D01*
X32521Y-47514D01*
X32464Y-47542D01*
X32435Y-47571D01*
X32407Y-47628D01*
X32378Y-47742D01*
X32350Y-47800D01*
X32321Y-47828D01*
X32264Y-47857D01*
X32207Y-47857D01*
X32150Y-47828D01*
X32121Y-47800D01*
X32092Y-47742D01*
X32092Y-47600D01*
X32121Y-47514D01*
X32692Y-47257D02*
X32092Y-47257D01*
X32092Y-47114D01*
X32121Y-47028D01*
X32178Y-46971D01*
X32235Y-46942D01*
X32350Y-46914D01*
X32435Y-46914D01*
X32550Y-46942D01*
X32607Y-46971D01*
X32664Y-47028D01*
X32692Y-47114D01*
X32692Y-47257D01*
X32635Y-45857D02*
X32664Y-45885D01*
X32692Y-45971D01*
X32692Y-46028D01*
X32664Y-46114D01*
X32607Y-46171D01*
X32550Y-46200D01*
X32435Y-46228D01*
X32350Y-46228D01*
X32235Y-46200D01*
X32178Y-46171D01*
X32121Y-46114D01*
X32092Y-46028D01*
X32092Y-45971D01*
X32121Y-45885D01*
X32150Y-45857D01*
X32521Y-45628D02*
X32521Y-45342D01*
X32692Y-45685D02*
X32092Y-45485D01*
X32692Y-45285D01*
X32692Y-44742D02*
X32407Y-44942D01*
X32692Y-45085D02*
X32092Y-45085D01*
X32092Y-44857D01*
X32121Y-44800D01*
X32150Y-44771D01*
X32207Y-44742D01*
X32292Y-44742D01*
X32350Y-44771D01*
X32378Y-44800D01*
X32407Y-44857D01*
X32407Y-45085D01*
X32692Y-44485D02*
X32092Y-44485D01*
X32092Y-44342D01*
X32121Y-44257D01*
X32178Y-44200D01*
X32235Y-44171D01*
X32350Y-44142D01*
X32435Y-44142D01*
X32550Y-44171D01*
X32607Y-44200D01*
X32664Y-44257D01*
X32692Y-44342D01*
X32692Y-44485D01*
G54D15*
X28623Y-29757D02*
X28642Y-29776D01*
X28661Y-29833D01*
X28661Y-29871D01*
X28642Y-29928D01*
X28604Y-29966D01*
X28566Y-29985D01*
X28490Y-30004D01*
X28433Y-30004D01*
X28357Y-29985D01*
X28319Y-29966D01*
X28280Y-29928D01*
X28261Y-29871D01*
X28261Y-29833D01*
X28280Y-29776D01*
X28300Y-29757D01*
X28661Y-29376D02*
X28661Y-29604D01*
X28661Y-29490D02*
X28261Y-29490D01*
X28319Y-29528D01*
X28357Y-29566D01*
X28376Y-29604D01*
X28300Y-29223D02*
X28280Y-29204D01*
X28261Y-29166D01*
X28261Y-29071D01*
X28280Y-29033D01*
X28300Y-29014D01*
X28338Y-28995D01*
X28376Y-28995D01*
X28433Y-29014D01*
X28661Y-29242D01*
X28661Y-28995D01*
X28261Y-28157D02*
X28261Y-28119D01*
X28280Y-28080D01*
X28300Y-28061D01*
X28338Y-28042D01*
X28414Y-28023D01*
X28509Y-28023D01*
X28585Y-28042D01*
X28623Y-28061D01*
X28642Y-28080D01*
X28661Y-28119D01*
X28661Y-28157D01*
X28642Y-28195D01*
X28623Y-28214D01*
X28585Y-28233D01*
X28509Y-28252D01*
X28414Y-28252D01*
X28338Y-28233D01*
X28300Y-28214D01*
X28280Y-28195D01*
X28261Y-28157D01*
X28623Y-27852D02*
X28642Y-27833D01*
X28661Y-27852D01*
X28642Y-27871D01*
X28623Y-27852D01*
X28661Y-27852D01*
X28661Y-27452D02*
X28661Y-27680D01*
X28661Y-27566D02*
X28261Y-27566D01*
X28319Y-27604D01*
X28357Y-27642D01*
X28376Y-27680D01*
X28395Y-27109D02*
X28661Y-27109D01*
X28395Y-27280D02*
X28604Y-27280D01*
X28642Y-27261D01*
X28661Y-27223D01*
X28661Y-27166D01*
X28642Y-27128D01*
X28623Y-27109D01*
X28452Y-26785D02*
X28452Y-26919D01*
X28661Y-26919D02*
X28261Y-26919D01*
X28261Y-26728D01*
X30454Y-25911D02*
X30454Y-25511D01*
X30607Y-25511D01*
X30645Y-25530D01*
X30664Y-25550D01*
X30683Y-25588D01*
X30683Y-25645D01*
X30664Y-25683D01*
X30645Y-25702D01*
X30607Y-25721D01*
X30454Y-25721D01*
X30835Y-25550D02*
X30854Y-25530D01*
X30892Y-25511D01*
X30988Y-25511D01*
X31026Y-25530D01*
X31045Y-25550D01*
X31064Y-25588D01*
X31064Y-25626D01*
X31045Y-25683D01*
X30816Y-25911D01*
X31064Y-25911D01*
X36076Y-25892D02*
X36133Y-25911D01*
X36228Y-25911D01*
X36266Y-25892D01*
X36285Y-25873D01*
X36304Y-25835D01*
X36304Y-25797D01*
X36285Y-25759D01*
X36266Y-25740D01*
X36228Y-25721D01*
X36152Y-25702D01*
X36114Y-25683D01*
X36095Y-25664D01*
X36076Y-25626D01*
X36076Y-25588D01*
X36095Y-25550D01*
X36114Y-25530D01*
X36152Y-25511D01*
X36247Y-25511D01*
X36304Y-25530D01*
X36476Y-25702D02*
X36609Y-25702D01*
X36666Y-25911D02*
X36476Y-25911D01*
X36476Y-25511D01*
X36666Y-25511D01*
X37066Y-25911D02*
X36933Y-25721D01*
X36838Y-25911D02*
X36838Y-25511D01*
X36990Y-25511D01*
X37028Y-25530D01*
X37047Y-25550D01*
X37066Y-25588D01*
X37066Y-25645D01*
X37047Y-25683D01*
X37028Y-25702D01*
X36990Y-25721D01*
X36838Y-25721D01*
X37238Y-25911D02*
X37238Y-25511D01*
X37409Y-25797D02*
X37600Y-25797D01*
X37371Y-25911D02*
X37504Y-25511D01*
X37638Y-25911D01*
X37961Y-25911D02*
X37771Y-25911D01*
X37771Y-25511D01*
G54D16*
X38911Y-53395D02*
X38511Y-53395D01*
X38511Y-53242D01*
X38530Y-53204D01*
X38550Y-53185D01*
X38588Y-53166D01*
X38645Y-53166D01*
X38683Y-53185D01*
X38702Y-53204D01*
X38721Y-53242D01*
X38721Y-53395D01*
X38683Y-52938D02*
X38664Y-52976D01*
X38645Y-52995D01*
X38607Y-53014D01*
X38588Y-53014D01*
X38550Y-52995D01*
X38530Y-52976D01*
X38511Y-52938D01*
X38511Y-52861D01*
X38530Y-52823D01*
X38550Y-52804D01*
X38588Y-52785D01*
X38607Y-52785D01*
X38645Y-52804D01*
X38664Y-52823D01*
X38683Y-52861D01*
X38683Y-52938D01*
X38702Y-52976D01*
X38721Y-52995D01*
X38759Y-53014D01*
X38835Y-53014D01*
X38873Y-52995D01*
X38892Y-52976D01*
X38911Y-52938D01*
X38911Y-52861D01*
X38892Y-52823D01*
X38873Y-52804D01*
X38835Y-52785D01*
X38759Y-52785D01*
X38721Y-52804D01*
X38702Y-52823D01*
X38683Y-52861D01*
X38911Y-57023D02*
X38511Y-57023D01*
X38511Y-56871D01*
X38530Y-56833D01*
X38550Y-56814D01*
X38588Y-56795D01*
X38645Y-56795D01*
X38683Y-56814D01*
X38702Y-56833D01*
X38721Y-56871D01*
X38721Y-57023D01*
X38511Y-56547D02*
X38511Y-56471D01*
X38530Y-56433D01*
X38569Y-56395D01*
X38645Y-56376D01*
X38778Y-56376D01*
X38854Y-56395D01*
X38892Y-56433D01*
X38911Y-56471D01*
X38911Y-56547D01*
X38892Y-56585D01*
X38854Y-56623D01*
X38778Y-56642D01*
X38645Y-56642D01*
X38569Y-56623D01*
X38530Y-56585D01*
X38511Y-56547D01*
X38511Y-56242D02*
X38911Y-56147D01*
X38626Y-56071D01*
X38911Y-55995D01*
X38511Y-55900D01*
X38702Y-55747D02*
X38702Y-55614D01*
X38911Y-55557D02*
X38911Y-55747D01*
X38511Y-55747D01*
X38511Y-55557D01*
X38911Y-55157D02*
X38721Y-55290D01*
X38911Y-55385D02*
X38511Y-55385D01*
X38511Y-55233D01*
X38530Y-55195D01*
X38550Y-55176D01*
X38588Y-55157D01*
X38645Y-55157D01*
X38683Y-55176D01*
X38702Y-55195D01*
X38721Y-55233D01*
X38721Y-55385D01*
G54D15*
X36275Y-55539D02*
X36258Y-55560D01*
X36208Y-55582D01*
X36175Y-55582D01*
X36125Y-55560D01*
X36091Y-55517D01*
X36075Y-55475D01*
X36058Y-55389D01*
X36058Y-55325D01*
X36075Y-55239D01*
X36091Y-55196D01*
X36125Y-55153D01*
X36175Y-55132D01*
X36208Y-55132D01*
X36258Y-55153D01*
X36275Y-55175D01*
X36408Y-55175D02*
X36425Y-55153D01*
X36458Y-55132D01*
X36541Y-55132D01*
X36575Y-55153D01*
X36591Y-55175D01*
X36608Y-55217D01*
X36608Y-55260D01*
X36591Y-55325D01*
X36391Y-55582D01*
X36608Y-55582D01*
X36725Y-55132D02*
X36941Y-55132D01*
X36825Y-55303D01*
X36875Y-55303D01*
X36908Y-55325D01*
X36925Y-55346D01*
X36941Y-55389D01*
X36941Y-55496D01*
X36925Y-55539D01*
X36908Y-55560D01*
X36875Y-55582D01*
X36775Y-55582D01*
X36741Y-55560D01*
X36725Y-55539D01*
X35925Y-56375D02*
X35941Y-56353D01*
X35975Y-56332D01*
X36058Y-56332D01*
X36091Y-56353D01*
X36108Y-56375D01*
X36125Y-56417D01*
X36125Y-56460D01*
X36108Y-56525D01*
X35908Y-56782D01*
X36125Y-56782D01*
X36258Y-56375D02*
X36275Y-56353D01*
X36308Y-56332D01*
X36391Y-56332D01*
X36425Y-56353D01*
X36441Y-56375D01*
X36458Y-56417D01*
X36458Y-56460D01*
X36441Y-56525D01*
X36241Y-56782D01*
X36458Y-56782D01*
X36758Y-56482D02*
X36758Y-56782D01*
X36608Y-56482D02*
X36608Y-56717D01*
X36625Y-56760D01*
X36658Y-56782D01*
X36708Y-56782D01*
X36741Y-56760D01*
X36758Y-56739D01*
X37041Y-56546D02*
X36925Y-56546D01*
X36925Y-56782D02*
X36925Y-56332D01*
X37091Y-56332D01*
G54D19*
X37328Y-56010D02*
X37671Y-56010D01*
X37500Y-56182D02*
X37500Y-55839D01*
G54D11*
X79533Y-23016D02*
X78833Y-23016D01*
X78833Y-22749D01*
X78866Y-22683D01*
X78900Y-22649D01*
X78966Y-22616D01*
X79066Y-22616D01*
X79133Y-22649D01*
X79166Y-22683D01*
X79200Y-22749D01*
X79200Y-23016D01*
X79533Y-21949D02*
X79533Y-22349D01*
X79533Y-22149D02*
X78833Y-22149D01*
X78933Y-22216D01*
X79000Y-22283D01*
X79033Y-22349D01*
X78550Y-21216D02*
X78516Y-21250D01*
X78416Y-21283D01*
X78350Y-21283D01*
X78250Y-21250D01*
X78183Y-21183D01*
X78150Y-21116D01*
X78116Y-20983D01*
X78116Y-20883D01*
X78150Y-20750D01*
X78183Y-20683D01*
X78250Y-20616D01*
X78350Y-20583D01*
X78416Y-20583D01*
X78516Y-20616D01*
X78550Y-20650D01*
X78883Y-21283D02*
X79016Y-21283D01*
X79083Y-21250D01*
X79116Y-21216D01*
X79183Y-21116D01*
X79216Y-20983D01*
X79216Y-20716D01*
X79183Y-20650D01*
X79150Y-20616D01*
X79083Y-20583D01*
X78950Y-20583D01*
X78883Y-20616D01*
X78850Y-20650D01*
X78816Y-20716D01*
X78816Y-20883D01*
X78850Y-20950D01*
X78883Y-20983D01*
X78950Y-21016D01*
X79083Y-21016D01*
X79150Y-20983D01*
X79183Y-20950D01*
X79216Y-20883D01*
X79816Y-20583D02*
X79683Y-20583D01*
X79616Y-20616D01*
X79583Y-20650D01*
X79516Y-20750D01*
X79483Y-20883D01*
X79483Y-21150D01*
X79516Y-21216D01*
X79550Y-21250D01*
X79616Y-21283D01*
X79750Y-21283D01*
X79816Y-21250D01*
X79850Y-21216D01*
X79883Y-21150D01*
X79883Y-20983D01*
X79850Y-20916D01*
X79816Y-20883D01*
X79750Y-20850D01*
X79616Y-20850D01*
X79550Y-20883D01*
X79516Y-20916D01*
X79483Y-20983D01*
X80150Y-21083D02*
X80483Y-21083D01*
X80083Y-21283D02*
X80316Y-20583D01*
X80550Y-21283D01*
X81016Y-20916D02*
X81116Y-20950D01*
X81150Y-20983D01*
X81183Y-21050D01*
X81183Y-21150D01*
X81150Y-21216D01*
X81116Y-21250D01*
X81050Y-21283D01*
X80783Y-21283D01*
X80783Y-20583D01*
X81016Y-20583D01*
X81083Y-20616D01*
X81116Y-20650D01*
X81150Y-20716D01*
X81150Y-20783D01*
X81116Y-20850D01*
X81083Y-20883D01*
X81016Y-20916D01*
X80783Y-20916D01*
X81883Y-21216D02*
X81850Y-21250D01*
X81750Y-21283D01*
X81683Y-21283D01*
X81583Y-21250D01*
X81516Y-21183D01*
X81483Y-21116D01*
X81450Y-20983D01*
X81450Y-20883D01*
X81483Y-20750D01*
X81516Y-20683D01*
X81583Y-20616D01*
X81683Y-20583D01*
X81750Y-20583D01*
X81850Y-20616D01*
X81883Y-20650D01*
G54D17*
X59101Y-53760D02*
X58982Y-53844D01*
X59101Y-53903D02*
X58851Y-53903D01*
X58851Y-53808D01*
X58863Y-53784D01*
X58875Y-53772D01*
X58898Y-53760D01*
X58934Y-53760D01*
X58958Y-53772D01*
X58970Y-53784D01*
X58982Y-53808D01*
X58982Y-53903D01*
X58875Y-53665D02*
X58863Y-53653D01*
X58851Y-53629D01*
X58851Y-53570D01*
X58863Y-53546D01*
X58875Y-53534D01*
X58898Y-53522D01*
X58922Y-53522D01*
X58958Y-53534D01*
X59101Y-53677D01*
X59101Y-53522D01*
X59101Y-53284D02*
X59101Y-53427D01*
X59101Y-53355D02*
X58851Y-53355D01*
X58886Y-53379D01*
X58910Y-53403D01*
X58922Y-53427D01*
X58851Y-52721D02*
X58851Y-52566D01*
X58946Y-52650D01*
X58946Y-52614D01*
X58958Y-52590D01*
X58970Y-52578D01*
X58994Y-52566D01*
X59053Y-52566D01*
X59077Y-52578D01*
X59089Y-52590D01*
X59101Y-52614D01*
X59101Y-52685D01*
X59089Y-52709D01*
X59077Y-52721D01*
X58851Y-52483D02*
X58851Y-52328D01*
X58946Y-52411D01*
X58946Y-52376D01*
X58958Y-52352D01*
X58970Y-52340D01*
X58994Y-52328D01*
X59053Y-52328D01*
X59077Y-52340D01*
X59089Y-52352D01*
X59101Y-52376D01*
X59101Y-52447D01*
X59089Y-52471D01*
X59077Y-52483D01*
X58851Y-52173D02*
X58851Y-52150D01*
X58863Y-52126D01*
X58875Y-52114D01*
X58898Y-52102D01*
X58946Y-52090D01*
X59005Y-52090D01*
X59053Y-52102D01*
X59077Y-52114D01*
X59089Y-52126D01*
X59101Y-52150D01*
X59101Y-52173D01*
X59089Y-52197D01*
X59077Y-52209D01*
X59053Y-52221D01*
X59005Y-52233D01*
X58946Y-52233D01*
X58898Y-52221D01*
X58875Y-52209D01*
X58863Y-52197D01*
X58851Y-52173D01*
X63101Y-53760D02*
X62982Y-53844D01*
X63101Y-53903D02*
X62851Y-53903D01*
X62851Y-53808D01*
X62863Y-53784D01*
X62875Y-53772D01*
X62898Y-53760D01*
X62934Y-53760D01*
X62958Y-53772D01*
X62970Y-53784D01*
X62982Y-53808D01*
X62982Y-53903D01*
X62875Y-53665D02*
X62863Y-53653D01*
X62851Y-53629D01*
X62851Y-53570D01*
X62863Y-53546D01*
X62875Y-53534D01*
X62898Y-53522D01*
X62922Y-53522D01*
X62958Y-53534D01*
X63101Y-53677D01*
X63101Y-53522D01*
X62875Y-53427D02*
X62863Y-53415D01*
X62851Y-53391D01*
X62851Y-53332D01*
X62863Y-53308D01*
X62875Y-53296D01*
X62898Y-53284D01*
X62922Y-53284D01*
X62958Y-53296D01*
X63101Y-53439D01*
X63101Y-53284D01*
X63101Y-52566D02*
X63101Y-52709D01*
X63101Y-52638D02*
X62851Y-52638D01*
X62886Y-52661D01*
X62910Y-52685D01*
X62922Y-52709D01*
X62851Y-52340D02*
X62851Y-52459D01*
X62970Y-52471D01*
X62958Y-52459D01*
X62946Y-52435D01*
X62946Y-52376D01*
X62958Y-52352D01*
X62970Y-52340D01*
X62994Y-52328D01*
X63053Y-52328D01*
X63077Y-52340D01*
X63089Y-52352D01*
X63101Y-52376D01*
X63101Y-52435D01*
X63089Y-52459D01*
X63077Y-52471D01*
X62851Y-52173D02*
X62851Y-52150D01*
X62863Y-52126D01*
X62875Y-52114D01*
X62898Y-52102D01*
X62946Y-52090D01*
X63005Y-52090D01*
X63053Y-52102D01*
X63077Y-52114D01*
X63089Y-52126D01*
X63101Y-52150D01*
X63101Y-52173D01*
X63089Y-52197D01*
X63077Y-52209D01*
X63053Y-52221D01*
X63005Y-52233D01*
X62946Y-52233D01*
X62898Y-52221D01*
X62875Y-52209D01*
X62863Y-52197D01*
X62851Y-52173D01*
X59351Y-37160D02*
X59232Y-37244D01*
X59351Y-37303D02*
X59101Y-37303D01*
X59101Y-37208D01*
X59113Y-37184D01*
X59125Y-37172D01*
X59148Y-37160D01*
X59184Y-37160D01*
X59208Y-37172D01*
X59220Y-37184D01*
X59232Y-37208D01*
X59232Y-37303D01*
X59125Y-37065D02*
X59113Y-37053D01*
X59101Y-37029D01*
X59101Y-36970D01*
X59113Y-36946D01*
X59125Y-36934D01*
X59148Y-36922D01*
X59172Y-36922D01*
X59208Y-36934D01*
X59351Y-37077D01*
X59351Y-36922D01*
X59101Y-36839D02*
X59101Y-36684D01*
X59196Y-36767D01*
X59196Y-36732D01*
X59208Y-36708D01*
X59220Y-36696D01*
X59244Y-36684D01*
X59303Y-36684D01*
X59327Y-36696D01*
X59339Y-36708D01*
X59351Y-36732D01*
X59351Y-36803D01*
X59339Y-36827D01*
X59327Y-36839D01*
X59101Y-36121D02*
X59101Y-35966D01*
X59196Y-36050D01*
X59196Y-36014D01*
X59208Y-35990D01*
X59220Y-35978D01*
X59244Y-35966D01*
X59303Y-35966D01*
X59327Y-35978D01*
X59339Y-35990D01*
X59351Y-36014D01*
X59351Y-36085D01*
X59339Y-36109D01*
X59327Y-36121D01*
X59101Y-35883D02*
X59101Y-35728D01*
X59196Y-35811D01*
X59196Y-35776D01*
X59208Y-35752D01*
X59220Y-35740D01*
X59244Y-35728D01*
X59303Y-35728D01*
X59327Y-35740D01*
X59339Y-35752D01*
X59351Y-35776D01*
X59351Y-35847D01*
X59339Y-35871D01*
X59327Y-35883D01*
X59101Y-35573D02*
X59101Y-35550D01*
X59113Y-35526D01*
X59125Y-35514D01*
X59148Y-35502D01*
X59196Y-35490D01*
X59255Y-35490D01*
X59303Y-35502D01*
X59327Y-35514D01*
X59339Y-35526D01*
X59351Y-35550D01*
X59351Y-35573D01*
X59339Y-35597D01*
X59327Y-35609D01*
X59303Y-35621D01*
X59255Y-35633D01*
X59196Y-35633D01*
X59148Y-35621D01*
X59125Y-35609D01*
X59113Y-35597D01*
X59101Y-35573D01*
G54D15*
X62966Y-48642D02*
X63023Y-48661D01*
X63119Y-48661D01*
X63157Y-48642D01*
X63176Y-48623D01*
X63195Y-48585D01*
X63195Y-48547D01*
X63176Y-48509D01*
X63157Y-48490D01*
X63119Y-48471D01*
X63042Y-48452D01*
X63004Y-48433D01*
X62985Y-48414D01*
X62966Y-48376D01*
X62966Y-48338D01*
X62985Y-48300D01*
X63004Y-48280D01*
X63042Y-48261D01*
X63138Y-48261D01*
X63195Y-48280D01*
X63328Y-48261D02*
X63423Y-48661D01*
X63500Y-48376D01*
X63576Y-48661D01*
X63671Y-48261D01*
X64033Y-48661D02*
X63804Y-48661D01*
X63919Y-48661D02*
X63919Y-48261D01*
X63880Y-48319D01*
X63842Y-48357D01*
X63804Y-48376D01*
X62919Y-44661D02*
X62785Y-44471D01*
X62690Y-44661D02*
X62690Y-44261D01*
X62842Y-44261D01*
X62880Y-44280D01*
X62900Y-44300D01*
X62919Y-44338D01*
X62919Y-44395D01*
X62900Y-44433D01*
X62880Y-44452D01*
X62842Y-44471D01*
X62690Y-44471D01*
X63090Y-44452D02*
X63223Y-44452D01*
X63280Y-44661D02*
X63090Y-44661D01*
X63090Y-44261D01*
X63280Y-44261D01*
X63433Y-44642D02*
X63490Y-44661D01*
X63585Y-44661D01*
X63623Y-44642D01*
X63642Y-44623D01*
X63661Y-44585D01*
X63661Y-44547D01*
X63642Y-44509D01*
X63623Y-44490D01*
X63585Y-44471D01*
X63509Y-44452D01*
X63471Y-44433D01*
X63452Y-44414D01*
X63433Y-44376D01*
X63433Y-44338D01*
X63452Y-44300D01*
X63471Y-44280D01*
X63509Y-44261D01*
X63604Y-44261D01*
X63661Y-44280D01*
X63833Y-44452D02*
X63966Y-44452D01*
X64023Y-44661D02*
X63833Y-44661D01*
X63833Y-44261D01*
X64023Y-44261D01*
X64138Y-44261D02*
X64366Y-44261D01*
X64252Y-44661D02*
X64252Y-44261D01*
G54D13*
X22278Y-56621D02*
X22278Y-56321D01*
X22350Y-56321D01*
X22392Y-56335D01*
X22421Y-56364D01*
X22435Y-56392D01*
X22450Y-56450D01*
X22450Y-56492D01*
X22435Y-56550D01*
X22421Y-56578D01*
X22392Y-56607D01*
X22350Y-56621D01*
X22278Y-56621D01*
X22735Y-56621D02*
X22564Y-56621D01*
X22650Y-56621D02*
X22650Y-56321D01*
X22621Y-56364D01*
X22592Y-56392D01*
X22564Y-56407D01*
X56778Y-52621D02*
X56778Y-52321D01*
X56850Y-52321D01*
X56892Y-52335D01*
X56921Y-52364D01*
X56935Y-52392D01*
X56950Y-52450D01*
X56950Y-52492D01*
X56935Y-52550D01*
X56921Y-52578D01*
X56892Y-52607D01*
X56850Y-52621D01*
X56778Y-52621D01*
X57064Y-52350D02*
X57078Y-52335D01*
X57107Y-52321D01*
X57178Y-52321D01*
X57207Y-52335D01*
X57221Y-52350D01*
X57235Y-52378D01*
X57235Y-52407D01*
X57221Y-52450D01*
X57050Y-52621D01*
X57235Y-52621D01*
X60778Y-52621D02*
X60778Y-52321D01*
X60850Y-52321D01*
X60892Y-52335D01*
X60921Y-52364D01*
X60935Y-52392D01*
X60950Y-52450D01*
X60950Y-52492D01*
X60935Y-52550D01*
X60921Y-52578D01*
X60892Y-52607D01*
X60850Y-52621D01*
X60778Y-52621D01*
X61050Y-52321D02*
X61235Y-52321D01*
X61135Y-52435D01*
X61178Y-52435D01*
X61207Y-52450D01*
X61221Y-52464D01*
X61235Y-52492D01*
X61235Y-52564D01*
X61221Y-52592D01*
X61207Y-52607D01*
X61178Y-52621D01*
X61092Y-52621D01*
X61064Y-52607D01*
X61050Y-52592D01*
X56778Y-35121D02*
X56778Y-34821D01*
X56850Y-34821D01*
X56892Y-34835D01*
X56921Y-34864D01*
X56935Y-34892D01*
X56950Y-34950D01*
X56950Y-34992D01*
X56935Y-35050D01*
X56921Y-35078D01*
X56892Y-35107D01*
X56850Y-35121D01*
X56778Y-35121D01*
X57207Y-34921D02*
X57207Y-35121D01*
X57135Y-34807D02*
X57064Y-35021D01*
X57250Y-35021D01*
G54D15*
X44823Y-34725D02*
X44842Y-34741D01*
X44861Y-34791D01*
X44861Y-34825D01*
X44842Y-34875D01*
X44804Y-34908D01*
X44766Y-34925D01*
X44690Y-34941D01*
X44633Y-34941D01*
X44557Y-34925D01*
X44519Y-34908D01*
X44480Y-34875D01*
X44461Y-34825D01*
X44461Y-34791D01*
X44480Y-34741D01*
X44500Y-34725D01*
X44500Y-34591D02*
X44480Y-34575D01*
X44461Y-34541D01*
X44461Y-34458D01*
X44480Y-34425D01*
X44500Y-34408D01*
X44538Y-34391D01*
X44576Y-34391D01*
X44633Y-34408D01*
X44861Y-34608D01*
X44861Y-34391D01*
X44861Y-34058D02*
X44861Y-34258D01*
X44861Y-34158D02*
X44461Y-34158D01*
X44519Y-34191D01*
X44557Y-34225D01*
X44576Y-34258D01*
X45999Y-35241D02*
X45979Y-35225D01*
X45960Y-35191D01*
X45960Y-35108D01*
X45979Y-35075D01*
X45999Y-35058D01*
X46037Y-35041D01*
X46075Y-35041D01*
X46132Y-35058D01*
X46360Y-35258D01*
X46360Y-35041D01*
X45999Y-34908D02*
X45979Y-34891D01*
X45960Y-34858D01*
X45960Y-34775D01*
X45979Y-34741D01*
X45999Y-34725D01*
X46037Y-34708D01*
X46075Y-34708D01*
X46132Y-34725D01*
X46360Y-34925D01*
X46360Y-34708D01*
X45960Y-34491D02*
X45960Y-34458D01*
X45979Y-34425D01*
X45999Y-34408D01*
X46037Y-34391D01*
X46113Y-34375D01*
X46208Y-34375D01*
X46284Y-34391D01*
X46322Y-34408D01*
X46341Y-34425D01*
X46360Y-34458D01*
X46360Y-34491D01*
X46341Y-34525D01*
X46322Y-34541D01*
X46284Y-34558D01*
X46208Y-34575D01*
X46113Y-34575D01*
X46037Y-34558D01*
X45999Y-34541D01*
X45979Y-34525D01*
X45960Y-34491D01*
X46094Y-34074D02*
X46360Y-34074D01*
X46094Y-34224D02*
X46303Y-34224D01*
X46341Y-34208D01*
X46360Y-34174D01*
X46360Y-34124D01*
X46341Y-34091D01*
X46322Y-34074D01*
X46151Y-33791D02*
X46151Y-33908D01*
X46360Y-33908D02*
X45960Y-33908D01*
X45960Y-33741D01*
X45514Y-33529D02*
X45514Y-33072D01*
X45742Y-33300D02*
X45285Y-33300D01*
M02*
