; Drill file
; Format: 2.4 (00.0000)
M48
INCH
T01C0.0217
T02C0.0315
T03C0.0335
T04C0.0354
T05C0.0394
T06C0.0413
T07C0.0433
T08C0.0787
T09C0.1339
T10C0.1378
%
G05
G90
T01
X013930Y-049540
X035180Y-049540
X056800Y-049540
X079800Y-049670
X045180Y-027790
X045180Y-008290
X045180Y010330
X048050Y028640
X042050Y028640
X037430Y028640
X037430Y032210
X037430Y038330
X057600Y034850
X061550Y038330
X072990Y035460
X077000Y038270
X080990Y035390
X013800Y037710
X005180Y033830
T02
X012930Y029020
X013930Y029020
X014930Y029020
X015930Y029020
X016930Y029020
X017930Y029020
X018930Y029020
X019930Y029020
X020930Y029020
X027930Y029020
X028930Y029020
X029930Y029020
X030930Y029020
X031930Y029020
X032930Y029020
X033930Y029020
X034930Y029020
X035930Y029020
X055990Y028640
X056990Y028640
X057990Y028640
X058990Y028640
X059990Y028640
X060990Y028640
X061990Y028640
X062990Y028640
X063990Y028640
X064990Y030020
X065990Y030020
X066990Y030020
X067990Y030020
X068990Y030020
X069990Y030020
X070990Y030020
X071990Y030020
X072990Y030020
X073010Y028710
X074010Y028710
X075010Y028710
X076010Y028710
X077010Y028710
X078010Y028710
X079010Y028710
X080010Y028710
X081010Y028710
T03
X011010Y034710
X011010Y036710
X035930Y033080
X035930Y031080
X051540Y028630
X053540Y028630
X053570Y035980
X053570Y037980
X073010Y033480
X073010Y031480
X081010Y031480
X081010Y033480
T04
X012920Y031090
X035920Y025470
X038450Y035930
X056060Y035940
X057640Y035940
X057590Y032740
X056020Y032740
T05
X010870Y-047740
X013250Y-047740
X015960Y-047810
X021900Y-047810
X028840Y-047810
X034210Y-047810
X042340Y-046430
X042340Y-045180
X042340Y-043930
X047710Y-043930
X047710Y-045180
X047710Y-046430
X024470Y-038830
X022470Y-037460
X022490Y-035860
X024490Y-035860
X024470Y-029330
X022470Y-027960
X022490Y-026360
X024490Y-026360
X024470Y-019580
X022470Y-018210
X022490Y-016610
X024490Y-016610
X024470Y-010080
X022470Y-008710
X022490Y-007110
X024490Y-007110
X024470Y-000460
X022470Y000920
X022490Y002520
X024490Y002520
X024470Y009540
X022470Y010920
X022490Y012520
X024490Y012520
X024470Y019290
X022470Y020670
X022490Y022270
X024490Y022270
X011010Y029060
X009370Y029020
X009370Y033520
X011010Y033560
X050680Y033710
X050680Y032710
X050680Y031710
X050650Y029820
X053550Y030710
X055960Y029820
X053510Y025470
X053510Y020470
X053550Y034830
T06
X010940Y-042510
X011940Y-042510
X012940Y-042510
X013940Y-042510
X014940Y-042510
X015940Y-042510
X016940Y-042510
X017940Y-042510
X018940Y-042510
X019940Y-042510
X020940Y-042510
X021940Y-042510
X022940Y-042510
X023940Y-042510
X024940Y-042510
X025940Y-042510
X026940Y-042510
X027940Y-042510
X028940Y-042510
X029940Y-042510
X030940Y-042510
X031940Y-042510
X032940Y-042510
X033940Y-042510
X037980Y-047770
X038980Y-047770
X033940Y-032700
X032940Y-032700
X031940Y-032700
X030940Y-032700
X029940Y-032700
X028940Y-032700
X027940Y-032700
X026940Y-032700
X025940Y-032700
X024940Y-032700
X023940Y-032700
X022940Y-032700
X021940Y-032700
X020940Y-032700
X019940Y-032700
X018940Y-032700
X017940Y-032700
X016940Y-032700
X015940Y-032700
X014940Y-032700
X013940Y-032700
X012940Y-032700
X011940Y-032700
X010940Y-032700
X010940Y-023010
X011940Y-023010
X012940Y-023010
X013940Y-023010
X014940Y-023010
X015940Y-023010
X016940Y-023010
X017940Y-023010
X018940Y-023010
X019940Y-023010
X020940Y-023010
X021940Y-023010
X022940Y-023010
X023940Y-023010
X024940Y-023010
X025940Y-023010
X026940Y-023010
X027940Y-023010
X028940Y-023010
X029940Y-023010
X030940Y-023010
X031940Y-023010
X032940Y-023010
X033940Y-023010
X033940Y-013260
X032940Y-013260
X031940Y-013260
X030940Y-013260
X029940Y-013260
X028940Y-013260
X027940Y-013260
X026940Y-013260
X025940Y-013260
X024940Y-013260
X023940Y-013260
X022940Y-013260
X021940Y-013260
X020940Y-013260
X019940Y-013260
X018940Y-013260
X017940Y-013260
X016940Y-013260
X015940Y-013260
X014940Y-013260
X013940Y-013260
X012940Y-013260
X011940Y-013260
X010940Y-013260
X010940Y-003510
X011940Y-003510
X012940Y-003510
X013940Y-003510
X014940Y-003510
X015940Y-003510
X016940Y-003510
X017940Y-003510
X018940Y-003510
X019940Y-003510
X020940Y-003510
X021940Y-003510
X022940Y-003510
X023940Y-003510
X024940Y-003510
X025940Y-003510
X026940Y-003510
X027940Y-003510
X028940Y-003510
X029940Y-003510
X030940Y-003510
X031940Y-003510
X032940Y-003510
X033940Y-003510
X033940Y006300
X032940Y006300
X031940Y006300
X030940Y006300
X029940Y006300
X028940Y006300
X027940Y006300
X026940Y006300
X025940Y006300
X024940Y006300
X023940Y006300
X022940Y006300
X021940Y006300
X020940Y006300
X019940Y006300
X018940Y006300
X017940Y006300
X016940Y006300
X015940Y006300
X014940Y006300
X013940Y006300
X012940Y006300
X011940Y006300
X010940Y006300
X010940Y016120
X011940Y016120
X012940Y016120
X013940Y016120
X014940Y016120
X015940Y016120
X016940Y016120
X017940Y016120
X018940Y016120
X019940Y016120
X020940Y016120
X021940Y016120
X022940Y016120
X023940Y016120
X024940Y016120
X025940Y016120
X026940Y016120
X027940Y016120
X028940Y016120
X029940Y016120
X030940Y016120
X031940Y016120
X032940Y016120
X033940Y016120
X033940Y025800
X032940Y025800
X031940Y025800
X030940Y025800
X029940Y025800
X028940Y025800
X027940Y025800
X026940Y025800
X025940Y025800
X024940Y025800
X023940Y025800
X022940Y025800
X021940Y025800
X020940Y025800
X019940Y025800
X018940Y025800
X017940Y025800
X016940Y025800
X015940Y025800
X014940Y025800
X013940Y025800
X012940Y025800
X011940Y025800
X010940Y025800
X056980Y025800
X057980Y025800
X058980Y025800
X059980Y025800
X060980Y025800
X061980Y025800
X062980Y025800
X063980Y025800
X064980Y025800
X065980Y025800
X066980Y025800
X067980Y025800
X068980Y025800
X069980Y025800
X070980Y025800
X071980Y025800
X072980Y025800
X073980Y025800
X074980Y025800
X075980Y025800
X076980Y025800
X077980Y025800
X078980Y025800
X079980Y025800
X079980Y016120
X078980Y016120
X077980Y016120
X076980Y016120
X075980Y016120
X074980Y016120
X073980Y016120
X072980Y016120
X071980Y016120
X070980Y016120
X069980Y016120
X068980Y016120
X067980Y016120
X066980Y016120
X065980Y016120
X064980Y016120
X063980Y016120
X062980Y016120
X061980Y016120
X060980Y016120
X059980Y016120
X058980Y016120
X057980Y016120
X056980Y016120
X056980Y006300
X057980Y006300
X058980Y006300
X059980Y006300
X060980Y006300
X061980Y006300
X062980Y006300
X063980Y006300
X064980Y006300
X065980Y006300
X066980Y006300
X067980Y006300
X068980Y006300
X069980Y006300
X070980Y006300
X071980Y006300
X072980Y006300
X073980Y006300
X074980Y006300
X075980Y006300
X076980Y006300
X077980Y006300
X078980Y006300
X079980Y006300
X079980Y-003510
X078980Y-003510
X077980Y-003510
X076980Y-003510
X075980Y-003510
X074980Y-003510
X073980Y-003510
X072980Y-003510
X071980Y-003510
X070980Y-003510
X069980Y-003510
X068980Y-003510
X067980Y-003510
X066980Y-003510
X065980Y-003510
X064980Y-003510
X063980Y-003510
X062980Y-003510
X061980Y-003510
X060980Y-003510
X059980Y-003510
X058980Y-003510
X057980Y-003510
X056980Y-003510
X056980Y-013260
X057980Y-013260
X058980Y-013260
X059980Y-013260
X060980Y-013260
X061980Y-013260
X062980Y-013260
X063980Y-013260
X064980Y-013260
X065980Y-013260
X066980Y-013260
X067980Y-013260
X068980Y-013260
X069980Y-013260
X070980Y-013260
X071980Y-013260
X072980Y-013260
X073980Y-013260
X074980Y-013260
X075980Y-013260
X076980Y-013260
X077980Y-013260
X078980Y-013260
X079980Y-013260
X079980Y-023010
X078980Y-023010
X077980Y-023010
X076980Y-023010
X075980Y-023010
X074980Y-023010
X073980Y-023010
X072980Y-023010
X071980Y-023010
X070980Y-023010
X069980Y-023010
X068980Y-023010
X067980Y-023010
X066980Y-023010
X065980Y-023010
X064980Y-023010
X063980Y-023010
X062980Y-023010
X061980Y-023010
X060980Y-023010
X059980Y-023010
X058980Y-023010
X057980Y-023010
X056980Y-023010
X056980Y-032700
X057980Y-032700
X058980Y-032700
X059980Y-032700
X060980Y-032700
X061980Y-032700
X062980Y-032700
X063980Y-032700
X064980Y-032700
X065980Y-032700
X066980Y-032700
X067980Y-032700
X068980Y-032700
X069980Y-032700
X070980Y-032700
X071980Y-032700
X072980Y-032700
X073980Y-032700
X074980Y-032700
X075980Y-032700
X076980Y-032700
X077980Y-032700
X078980Y-032700
X079980Y-032700
X079980Y-042510
X078980Y-042510
X077980Y-042510
X076980Y-042510
X075980Y-042510
X074980Y-042510
X073980Y-042510
X072980Y-042510
X071980Y-042510
X070980Y-042510
X069980Y-042510
X068980Y-042510
X067980Y-042510
X066980Y-042510
X065980Y-042510
X064980Y-042510
X063980Y-042510
X062980Y-042510
X061980Y-042510
X060980Y-042510
X059980Y-042510
X058980Y-042510
X057980Y-042510
X056980Y-042510
T07
X049570Y-047410
X049570Y-046410
X051870Y-046430
X051870Y-047430
X054030Y-047390
X054030Y-046390
X056170Y-046390
X056170Y-047390
T08
X022450Y035030
X024440Y035030
X026370Y035030
X028270Y035030
T09
X005240Y-044230
X005240Y-039230
X005240Y-034420
X005240Y-029420
X005240Y-024730
X005240Y-019730
X005240Y-014980
X005240Y-009980
X005240Y-005230
X005240Y-000230
X005240Y004580
X005240Y009580
X005240Y014390
X005240Y019390
X005240Y024080
X005240Y029080
X085360Y028960
X085360Y023960
X085360Y019270
X085360Y014270
X085360Y009460
X085360Y004460
X085360Y-000360
X085360Y-005360
X085360Y-010110
X085360Y-015110
X085360Y-019860
X085360Y-024860
X085360Y-029540
X085360Y-034540
X085360Y-039360
X085360Y-044360
X101110Y-044360
X101110Y-039360
X101110Y-034540
X101110Y-029540
X101110Y-024860
X101110Y-019860
X101110Y-015110
X101110Y-010110
X101110Y-005360
X101110Y-000360
X101110Y004460
X101110Y009460
X101110Y014270
X101110Y019270
X101110Y023960
X101110Y028960
T10
X001680Y-048480
X001550Y-036860
X001550Y-017360
X001550Y002210
X001550Y021710
X001650Y037550
X043430Y032710
X045180Y021710
X045180Y002210
X045180Y-017360
X045180Y-036860
X045180Y-048610
X104930Y-048610
X104800Y-036860
X104800Y-017360
X104800Y002210
X104800Y021710
X104840Y037800
X065090Y037920
M30
