%FSLAX34Y34*%
%MOMM*%
%LNSOLDERMASK_BOTTOM*%
G71*
G01*
%ADD10C, 2.600*%
%ADD11C, 2.600*%
%ADD12C, 5.550*%
%ADD13C, 2.200*%
%ADD14C, 2.100*%
%ADD15C, 2.250*%
%ADD16C, 5.600*%
%ADD17C, 2.400*%
%ADD18C, 2.300*%
%ADD19C, 2.400*%
%ADD20C, 2.300*%
%ADD21C, 1.900*%
%ADD22R, 8.200X8.200*%
%LPD*%
X1317389Y-1179251D02*
G54D10*
D03*
X1317389Y-1204652D02*
G54D10*
D03*
X1372307Y-1203781D02*
G54D10*
D03*
X1372307Y-1178381D02*
G54D10*
D03*
X1259091Y-1178920D02*
G54D10*
D03*
X1259091Y-1204321D02*
G54D10*
D03*
G36*
X258218Y-1194478D02*
X294218Y-1194478D01*
X294218Y-1230478D01*
X258218Y-1230478D01*
X258218Y-1194478D01*
G37*
G36*
X2637175Y-1206613D02*
X2693175Y-1206613D01*
X2693175Y-1262613D01*
X2637175Y-1262613D01*
X2637175Y-1206613D01*
G37*
G36*
X14625Y-1203438D02*
X70625Y-1203438D01*
X70625Y-1259438D01*
X14625Y-1259438D01*
X14625Y-1203438D01*
G37*
G36*
X1119525Y-1206612D02*
X1175525Y-1206612D01*
X1175525Y-1262612D01*
X1119525Y-1262612D01*
X1119525Y-1206612D01*
G37*
G36*
X2634830Y988081D02*
X2690830Y988081D01*
X2690830Y932081D01*
X2634830Y932081D01*
X2634830Y988081D01*
G37*
G36*
X13868Y925732D02*
X13868Y981732D01*
X69868Y981732D01*
X69868Y925732D01*
X13868Y925732D01*
G37*
G36*
X547018Y933366D02*
X593518Y933366D01*
X593518Y846366D01*
X547018Y846366D01*
X547018Y933366D01*
G37*
G36*
X597480Y933241D02*
X643980Y933241D01*
X643980Y846241D01*
X597480Y846241D01*
X597480Y933241D01*
G37*
G36*
X646493Y933240D02*
X692993Y933240D01*
X692993Y846240D01*
X646493Y846240D01*
X646493Y933240D01*
G37*
G36*
X694743Y933240D02*
X741243Y933240D01*
X741243Y846240D01*
X694743Y846240D01*
X694743Y933240D01*
G37*
X1211903Y-1147582D02*
G54D11*
D03*
X1075378Y-1147582D02*
G54D11*
D03*
X1211903Y-1115832D02*
G54D11*
D03*
X1075378Y-1115832D02*
G54D11*
D03*
X1211903Y-1179332D02*
G54D11*
D03*
X1075378Y-1179332D02*
G54D11*
D03*
G36*
X1625180Y991257D02*
X1681180Y991257D01*
X1681180Y935257D01*
X1625180Y935257D01*
X1625180Y991257D01*
G37*
G36*
X1435430Y-1059198D02*
X1458930Y-1059198D01*
X1458930Y-1100198D01*
X1435430Y-1100198D01*
X1435430Y-1059198D01*
G37*
G36*
X1460830Y-1059198D02*
X1484330Y-1059198D01*
X1484330Y-1100198D01*
X1460830Y-1100198D01*
X1460830Y-1059198D01*
G37*
G36*
X1486230Y-1059198D02*
X1509730Y-1059198D01*
X1509730Y-1100198D01*
X1486230Y-1100198D01*
X1486230Y-1059198D01*
G37*
G36*
X1511630Y-1059198D02*
X1535130Y-1059198D01*
X1535130Y-1100198D01*
X1511630Y-1100198D01*
X1511630Y-1059198D01*
G37*
G36*
X1537030Y-1059198D02*
X1560530Y-1059198D01*
X1560530Y-1100198D01*
X1537030Y-1100198D01*
X1537030Y-1059198D01*
G37*
G36*
X1562430Y-1059198D02*
X1585930Y-1059198D01*
X1585930Y-1100198D01*
X1562430Y-1100198D01*
X1562430Y-1059198D01*
G37*
G36*
X1587830Y-1059198D02*
X1611330Y-1059198D01*
X1611330Y-1100198D01*
X1587830Y-1100198D01*
X1587830Y-1059198D01*
G37*
G36*
X1613230Y-1059198D02*
X1636730Y-1059198D01*
X1636730Y-1100198D01*
X1613230Y-1100198D01*
X1613230Y-1059198D01*
G37*
G36*
X1638630Y-1059198D02*
X1662130Y-1059198D01*
X1662130Y-1100198D01*
X1638630Y-1100198D01*
X1638630Y-1059198D01*
G37*
G36*
X1664030Y-1059198D02*
X1687530Y-1059198D01*
X1687530Y-1100198D01*
X1664030Y-1100198D01*
X1664030Y-1059198D01*
G37*
G36*
X1689430Y-1059198D02*
X1712930Y-1059198D01*
X1712930Y-1100198D01*
X1689430Y-1100198D01*
X1689430Y-1059198D01*
G37*
G36*
X1714830Y-1059198D02*
X1738330Y-1059198D01*
X1738330Y-1100198D01*
X1714830Y-1100198D01*
X1714830Y-1059198D01*
G37*
G36*
X1740230Y-1059198D02*
X1763730Y-1059198D01*
X1763730Y-1100198D01*
X1740230Y-1100198D01*
X1740230Y-1059198D01*
G37*
G36*
X1765630Y-1059198D02*
X1789130Y-1059198D01*
X1789130Y-1100198D01*
X1765630Y-1100198D01*
X1765630Y-1059198D01*
G37*
G36*
X1791030Y-1059198D02*
X1814530Y-1059198D01*
X1814530Y-1100198D01*
X1791030Y-1100198D01*
X1791030Y-1059198D01*
G37*
G36*
X1816430Y-1059198D02*
X1839930Y-1059198D01*
X1839930Y-1100198D01*
X1816430Y-1100198D01*
X1816430Y-1059198D01*
G37*
G36*
X1841830Y-1059198D02*
X1865330Y-1059198D01*
X1865330Y-1100198D01*
X1841830Y-1100198D01*
X1841830Y-1059198D01*
G37*
G36*
X1867230Y-1059198D02*
X1890730Y-1059198D01*
X1890730Y-1100198D01*
X1867230Y-1100198D01*
X1867230Y-1059198D01*
G37*
G36*
X1892630Y-1059198D02*
X1916130Y-1059198D01*
X1916130Y-1100198D01*
X1892630Y-1100198D01*
X1892630Y-1059198D01*
G37*
G36*
X1918030Y-1059198D02*
X1941530Y-1059198D01*
X1941530Y-1100198D01*
X1918030Y-1100198D01*
X1918030Y-1059198D01*
G37*
G36*
X1943430Y-1059198D02*
X1966930Y-1059198D01*
X1966930Y-1100198D01*
X1943430Y-1100198D01*
X1943430Y-1059198D01*
G37*
G36*
X1968830Y-1059198D02*
X1992330Y-1059198D01*
X1992330Y-1100198D01*
X1968830Y-1100198D01*
X1968830Y-1059198D01*
G37*
G36*
X1994230Y-1059198D02*
X2017730Y-1059198D01*
X2017730Y-1100198D01*
X1994230Y-1100198D01*
X1994230Y-1059198D01*
G37*
G36*
X2019630Y-1059198D02*
X2043130Y-1059198D01*
X2043130Y-1100198D01*
X2019630Y-1100198D01*
X2019630Y-1059198D01*
G37*
G36*
X266236Y-1059198D02*
X289736Y-1059198D01*
X289736Y-1100198D01*
X266236Y-1100198D01*
X266236Y-1059198D01*
G37*
G36*
X291636Y-1059198D02*
X315136Y-1059198D01*
X315136Y-1100198D01*
X291636Y-1100198D01*
X291636Y-1059198D01*
G37*
G36*
X317036Y-1059198D02*
X340536Y-1059198D01*
X340536Y-1100198D01*
X317036Y-1100198D01*
X317036Y-1059198D01*
G37*
G36*
X342436Y-1059198D02*
X365936Y-1059198D01*
X365936Y-1100198D01*
X342436Y-1100198D01*
X342436Y-1059198D01*
G37*
G36*
X367836Y-1059198D02*
X391336Y-1059198D01*
X391336Y-1100198D01*
X367836Y-1100198D01*
X367836Y-1059198D01*
G37*
G36*
X393236Y-1059198D02*
X416736Y-1059198D01*
X416736Y-1100198D01*
X393236Y-1100198D01*
X393236Y-1059198D01*
G37*
G36*
X418636Y-1059198D02*
X442136Y-1059198D01*
X442136Y-1100198D01*
X418636Y-1100198D01*
X418636Y-1059198D01*
G37*
G36*
X444036Y-1059198D02*
X467536Y-1059198D01*
X467536Y-1100198D01*
X444036Y-1100198D01*
X444036Y-1059198D01*
G37*
G36*
X469436Y-1059198D02*
X492936Y-1059198D01*
X492936Y-1100198D01*
X469436Y-1100198D01*
X469436Y-1059198D01*
G37*
G36*
X494836Y-1059198D02*
X518336Y-1059198D01*
X518336Y-1100198D01*
X494836Y-1100198D01*
X494836Y-1059198D01*
G37*
G36*
X520236Y-1059198D02*
X543736Y-1059198D01*
X543736Y-1100198D01*
X520236Y-1100198D01*
X520236Y-1059198D01*
G37*
G36*
X545636Y-1059198D02*
X569136Y-1059198D01*
X569136Y-1100198D01*
X545636Y-1100198D01*
X545636Y-1059198D01*
G37*
G36*
X571036Y-1059198D02*
X594536Y-1059198D01*
X594536Y-1100198D01*
X571036Y-1100198D01*
X571036Y-1059198D01*
G37*
G36*
X596436Y-1059199D02*
X619936Y-1059199D01*
X619936Y-1100199D01*
X596436Y-1100199D01*
X596436Y-1059199D01*
G37*
G36*
X621836Y-1059199D02*
X645336Y-1059199D01*
X645336Y-1100199D01*
X621836Y-1100199D01*
X621836Y-1059199D01*
G37*
G36*
X647236Y-1059198D02*
X670736Y-1059198D01*
X670736Y-1100198D01*
X647236Y-1100198D01*
X647236Y-1059198D01*
G37*
G36*
X672636Y-1059198D02*
X696136Y-1059198D01*
X696136Y-1100198D01*
X672636Y-1100198D01*
X672636Y-1059198D01*
G37*
G36*
X698036Y-1059198D02*
X721536Y-1059198D01*
X721536Y-1100198D01*
X698036Y-1100198D01*
X698036Y-1059198D01*
G37*
G36*
X723436Y-1059198D02*
X746936Y-1059198D01*
X746936Y-1100198D01*
X723436Y-1100198D01*
X723436Y-1059198D01*
G37*
G36*
X748836Y-1059198D02*
X772336Y-1059198D01*
X772336Y-1100198D01*
X748836Y-1100198D01*
X748836Y-1059198D01*
G37*
G36*
X774236Y-1059198D02*
X797736Y-1059198D01*
X797736Y-1100198D01*
X774236Y-1100198D01*
X774236Y-1059198D01*
G37*
G36*
X799636Y-1059198D02*
X823136Y-1059198D01*
X823136Y-1100198D01*
X799636Y-1100198D01*
X799636Y-1059198D01*
G37*
G36*
X825036Y-1059198D02*
X848536Y-1059198D01*
X848536Y-1100198D01*
X825036Y-1100198D01*
X825036Y-1059198D01*
G37*
G36*
X850436Y-1059198D02*
X873936Y-1059198D01*
X873936Y-1100198D01*
X850436Y-1100198D01*
X850436Y-1059198D01*
G37*
X2168268Y-999662D02*
G54D12*
D03*
X2168268Y-1126662D02*
G54D12*
D03*
X2568318Y-999662D02*
G54D12*
D03*
X2568318Y-1126662D02*
G54D12*
D03*
X133113Y-1123518D02*
G54D12*
D03*
X133113Y-996518D02*
G54D12*
D03*
X571262Y565612D02*
G54D11*
D03*
X622063Y565612D02*
G54D11*
D03*
G36*
X583692Y537980D02*
X583692Y511980D01*
X557692Y511980D01*
X557692Y537980D01*
X583692Y537980D01*
G37*
X621492Y490054D02*
G54D11*
D03*
G36*
X1411162Y738538D02*
X1433162Y738538D01*
X1433162Y716538D01*
X1411162Y716538D01*
X1411162Y738538D01*
G37*
X1447562Y727538D02*
G54D13*
D03*
X1472962Y727538D02*
G54D13*
D03*
X1498362Y727538D02*
G54D13*
D03*
X1523762Y727538D02*
G54D13*
D03*
X1549162Y727538D02*
G54D13*
D03*
X1574562Y727538D02*
G54D13*
D03*
X1599962Y727538D02*
G54D13*
D03*
X1625362Y727538D02*
G54D13*
D03*
X571262Y317962D02*
G54D11*
D03*
X622063Y317962D02*
G54D11*
D03*
G36*
X583692Y290330D02*
X583692Y264330D01*
X557692Y264330D01*
X557692Y290330D01*
X583692Y290330D01*
G37*
X621492Y242404D02*
G54D11*
D03*
X571262Y63962D02*
G54D11*
D03*
X622063Y63962D02*
G54D11*
D03*
G36*
X583692Y36330D02*
X583692Y10330D01*
X557692Y10330D01*
X557692Y36330D01*
X583692Y36330D01*
G37*
X621492Y-11596D02*
G54D11*
D03*
X571262Y-180512D02*
G54D11*
D03*
X622063Y-180513D02*
G54D11*
D03*
G36*
X583692Y-208146D02*
X583692Y-234146D01*
X557692Y-234146D01*
X557692Y-208146D01*
X583692Y-208146D01*
G37*
X621492Y-256071D02*
G54D11*
D03*
X571262Y-421812D02*
G54D11*
D03*
X622063Y-421813D02*
G54D11*
D03*
G36*
X583692Y-449446D02*
X583692Y-475446D01*
X557692Y-475446D01*
X557692Y-449446D01*
X583692Y-449446D01*
G37*
X621492Y-497371D02*
G54D11*
D03*
X571262Y-669462D02*
G54D11*
D03*
X622063Y-669463D02*
G54D11*
D03*
G36*
X583692Y-697096D02*
X583692Y-723096D01*
X557692Y-723096D01*
X557692Y-697096D01*
X583692Y-697096D01*
G37*
X621492Y-745021D02*
G54D11*
D03*
X571262Y-910762D02*
G54D11*
D03*
X622063Y-910763D02*
G54D11*
D03*
G36*
X583692Y-938396D02*
X583692Y-964396D01*
X557692Y-964396D01*
X557692Y-938396D01*
X583692Y-938396D01*
G37*
X621492Y-986321D02*
G54D11*
D03*
G36*
X923574Y726064D02*
X901574Y726064D01*
X901574Y748064D01*
X923574Y748064D01*
X923574Y726064D01*
G37*
X887174Y737064D02*
G54D13*
D03*
X861774Y737064D02*
G54D13*
D03*
X836374Y737064D02*
G54D13*
D03*
X810974Y737064D02*
G54D13*
D03*
X785574Y737064D02*
G54D13*
D03*
X760174Y737064D02*
G54D13*
D03*
X734774Y737064D02*
G54D13*
D03*
X709374Y737064D02*
G54D13*
D03*
G36*
X317873Y747564D02*
X338873Y747564D01*
X338873Y726564D01*
X317873Y726564D01*
X317873Y747564D01*
G37*
X353773Y737064D02*
G54D14*
D03*
X379173Y737064D02*
G54D14*
D03*
X404573Y737064D02*
G54D14*
D03*
X429973Y737064D02*
G54D14*
D03*
X455373Y737064D02*
G54D14*
D03*
X480773Y737064D02*
G54D14*
D03*
X506173Y737064D02*
G54D14*
D03*
X531573Y737064D02*
G54D14*
D03*
G54D15*
X1279038Y805414D02*
X1295538Y805414D01*
G54D15*
X1279038Y830814D02*
X1295538Y830814D01*
G54D15*
X1279038Y856214D02*
X1295538Y856214D01*
X1103138Y830814D02*
G54D16*
D03*
X1421440Y757434D02*
G54D17*
D03*
X1286503Y757434D02*
G54D17*
D03*
X1309111Y727234D02*
G54D18*
D03*
X1359911Y727234D02*
G54D18*
D03*
X1464030Y912838D02*
G54D19*
D03*
G36*
X1436030Y900838D02*
X1412030Y900838D01*
X1412030Y924838D01*
X1436030Y924838D01*
X1436030Y900838D01*
G37*
X1360642Y964795D02*
G54D18*
D03*
X1360641Y913995D02*
G54D18*
D03*
G36*
X318570Y-1194478D02*
X354570Y-1194478D01*
X354570Y-1230478D01*
X318570Y-1230478D01*
X318570Y-1194478D01*
G37*
X279768Y932317D02*
G54D18*
D03*
X279767Y881517D02*
G54D18*
D03*
X1854354Y850495D02*
G54D18*
D03*
X1854354Y799695D02*
G54D18*
D03*
X1426696Y-1178319D02*
G54D10*
D03*
X1426695Y-1203719D02*
G54D10*
D03*
X976690Y912744D02*
G54D20*
D03*
X1360250Y884700D02*
G54D17*
D03*
X1360250Y779925D02*
G54D17*
D03*
X912725Y840175D02*
G54D18*
D03*
X912724Y789375D02*
G54D18*
D03*
X950675Y727538D02*
G54D21*
D03*
X1068150Y727538D02*
G54D21*
D03*
X1220550Y727538D02*
G54D21*
D03*
X950675Y818025D02*
G54D21*
D03*
X131525Y859300D02*
G54D21*
D03*
X350600Y957725D02*
G54D21*
D03*
X950675Y973600D02*
G54D21*
D03*
X1563450Y973600D02*
G54D21*
D03*
X353775Y-1258425D02*
G54D21*
D03*
X893525Y-1258425D02*
G54D21*
D03*
X1442800Y-1258425D02*
G54D21*
D03*
X2027000Y-1261600D02*
G54D21*
D03*
X1462950Y885275D02*
G54D21*
D03*
X1853962Y900575D02*
G54D21*
D03*
X1359276Y646924D02*
G54D11*
D03*
X1359276Y519924D02*
G54D11*
D03*
X2057554Y850495D02*
G54D18*
D03*
X2057554Y799695D02*
G54D18*
D03*
X2057162Y898988D02*
G54D21*
D03*
X1955893Y972013D02*
G54D21*
D03*
X1103075Y830725D02*
G54D22*
D03*
G36*
X976765Y-1192285D02*
X976765Y-1234285D01*
X952765Y-1234285D01*
X952765Y-1192285D01*
X976765Y-1192285D01*
G37*
G36*
X1002165Y-1192285D02*
X1002165Y-1234285D01*
X978165Y-1234285D01*
X978165Y-1192285D01*
X1002165Y-1192285D01*
G37*
X869003Y-1214257D02*
G54D11*
D03*
X732478Y-1214257D02*
G54D11*
D03*
X556266Y-1214257D02*
G54D11*
D03*
X405453Y-1214257D02*
G54D11*
D03*
X237888Y851362D02*
G54D17*
D03*
X237888Y737062D02*
G54D17*
D03*
G36*
X11450Y579326D02*
X67450Y579326D01*
X67450Y523326D01*
X11450Y523326D01*
X11450Y579326D01*
G37*
G36*
X11450Y84026D02*
X67450Y84026D01*
X67450Y28026D01*
X11450Y28026D01*
X11450Y84026D01*
G37*
G36*
X11450Y-908162D02*
X67450Y-908162D01*
X67450Y-964162D01*
X11450Y-964162D01*
X11450Y-908162D01*
G37*
G36*
X2068766Y718114D02*
X2046766Y718114D01*
X2046766Y740114D01*
X2068766Y740114D01*
X2068766Y718114D01*
G37*
X2032366Y729114D02*
G54D13*
D03*
X2006967Y729114D02*
G54D13*
D03*
X1981567Y729114D02*
G54D13*
D03*
X1956167Y729114D02*
G54D13*
D03*
X1930767Y729114D02*
G54D13*
D03*
X1905367Y729114D02*
G54D13*
D03*
X1879967Y729114D02*
G54D13*
D03*
X1854567Y729114D02*
G54D13*
D03*
G36*
X1864960Y751464D02*
X1842960Y751464D01*
X1842960Y773464D01*
X1864960Y773464D01*
X1864960Y751464D01*
G37*
X1828560Y762464D02*
G54D13*
D03*
X1803160Y762464D02*
G54D13*
D03*
X1777760Y762464D02*
G54D13*
D03*
X1752360Y762464D02*
G54D13*
D03*
X1726960Y762464D02*
G54D13*
D03*
X1701560Y762464D02*
G54D13*
D03*
X1676160Y762464D02*
G54D13*
D03*
X1650760Y762464D02*
G54D13*
D03*
G36*
X11450Y-412862D02*
X67450Y-412862D01*
X67450Y-468862D01*
X11450Y-468862D01*
X11450Y-412862D01*
G37*
X1147525Y-705975D02*
G54D21*
D03*
X1147525Y-210675D02*
G54D21*
D03*
X1147525Y262400D02*
G54D21*
D03*
G36*
X1435430Y-809961D02*
X1458930Y-809961D01*
X1458930Y-850961D01*
X1435430Y-850961D01*
X1435430Y-809961D01*
G37*
G36*
X1460830Y-809961D02*
X1484330Y-809961D01*
X1484330Y-850961D01*
X1460830Y-850961D01*
X1460830Y-809961D01*
G37*
G36*
X1486230Y-809961D02*
X1509730Y-809961D01*
X1509730Y-850961D01*
X1486230Y-850961D01*
X1486230Y-809961D01*
G37*
G36*
X1511630Y-809961D02*
X1535130Y-809961D01*
X1535130Y-850961D01*
X1511630Y-850961D01*
X1511630Y-809961D01*
G37*
G36*
X1537030Y-809961D02*
X1560530Y-809961D01*
X1560530Y-850961D01*
X1537030Y-850961D01*
X1537030Y-809961D01*
G37*
G36*
X1562430Y-809961D02*
X1585930Y-809961D01*
X1585930Y-850961D01*
X1562430Y-850961D01*
X1562430Y-809961D01*
G37*
G36*
X1587830Y-809961D02*
X1611330Y-809961D01*
X1611330Y-850961D01*
X1587830Y-850961D01*
X1587830Y-809961D01*
G37*
G36*
X1613230Y-809961D02*
X1636730Y-809961D01*
X1636730Y-850961D01*
X1613230Y-850961D01*
X1613230Y-809961D01*
G37*
G36*
X1638630Y-809961D02*
X1662130Y-809961D01*
X1662130Y-850961D01*
X1638630Y-850961D01*
X1638630Y-809961D01*
G37*
G36*
X1664030Y-809961D02*
X1687530Y-809961D01*
X1687530Y-850961D01*
X1664030Y-850961D01*
X1664030Y-809961D01*
G37*
G36*
X1689430Y-809961D02*
X1712930Y-809961D01*
X1712930Y-850961D01*
X1689430Y-850961D01*
X1689430Y-809961D01*
G37*
G36*
X1714830Y-809961D02*
X1738330Y-809961D01*
X1738330Y-850961D01*
X1714830Y-850961D01*
X1714830Y-809961D01*
G37*
G36*
X1740230Y-809961D02*
X1763730Y-809961D01*
X1763730Y-850961D01*
X1740230Y-850961D01*
X1740230Y-809961D01*
G37*
G36*
X1765630Y-809961D02*
X1789130Y-809961D01*
X1789130Y-850961D01*
X1765630Y-850961D01*
X1765630Y-809961D01*
G37*
G36*
X1791030Y-809961D02*
X1814530Y-809961D01*
X1814530Y-850961D01*
X1791030Y-850961D01*
X1791030Y-809961D01*
G37*
G36*
X1816430Y-809961D02*
X1839930Y-809961D01*
X1839930Y-850961D01*
X1816430Y-850961D01*
X1816430Y-809961D01*
G37*
G36*
X1841830Y-809961D02*
X1865330Y-809961D01*
X1865330Y-850961D01*
X1841830Y-850961D01*
X1841830Y-809961D01*
G37*
G36*
X1867230Y-809961D02*
X1890730Y-809961D01*
X1890730Y-850961D01*
X1867230Y-850961D01*
X1867230Y-809961D01*
G37*
G36*
X1892630Y-809961D02*
X1916130Y-809961D01*
X1916130Y-850961D01*
X1892630Y-850961D01*
X1892630Y-809961D01*
G37*
G36*
X1918030Y-809961D02*
X1941530Y-809961D01*
X1941530Y-850961D01*
X1918030Y-850961D01*
X1918030Y-809961D01*
G37*
G36*
X1943430Y-809961D02*
X1966930Y-809961D01*
X1966930Y-850961D01*
X1943430Y-850961D01*
X1943430Y-809961D01*
G37*
G36*
X1968830Y-809961D02*
X1992330Y-809961D01*
X1992330Y-850961D01*
X1968830Y-850961D01*
X1968830Y-809961D01*
G37*
G36*
X1994230Y-809961D02*
X2017730Y-809961D01*
X2017730Y-850961D01*
X1994230Y-850961D01*
X1994230Y-809961D01*
G37*
G36*
X2019630Y-809961D02*
X2043130Y-809961D01*
X2043130Y-850961D01*
X2019630Y-850961D01*
X2019630Y-809961D01*
G37*
G36*
X266236Y-809961D02*
X289736Y-809961D01*
X289736Y-850961D01*
X266236Y-850961D01*
X266236Y-809961D01*
G37*
G36*
X291636Y-809961D02*
X315136Y-809961D01*
X315136Y-850961D01*
X291636Y-850961D01*
X291636Y-809961D01*
G37*
G36*
X317036Y-809961D02*
X340536Y-809961D01*
X340536Y-850961D01*
X317036Y-850961D01*
X317036Y-809961D01*
G37*
G36*
X342436Y-809961D02*
X365936Y-809961D01*
X365936Y-850961D01*
X342436Y-850961D01*
X342436Y-809961D01*
G37*
G36*
X367836Y-809961D02*
X391336Y-809961D01*
X391336Y-850961D01*
X367836Y-850961D01*
X367836Y-809961D01*
G37*
G36*
X393236Y-809961D02*
X416736Y-809961D01*
X416736Y-850961D01*
X393236Y-850961D01*
X393236Y-809961D01*
G37*
G36*
X418636Y-809961D02*
X442136Y-809961D01*
X442136Y-850961D01*
X418636Y-850961D01*
X418636Y-809961D01*
G37*
G36*
X444036Y-809961D02*
X467536Y-809961D01*
X467536Y-850961D01*
X444036Y-850961D01*
X444036Y-809961D01*
G37*
G36*
X469436Y-809961D02*
X492936Y-809961D01*
X492936Y-850961D01*
X469436Y-850961D01*
X469436Y-809961D01*
G37*
G36*
X494836Y-809961D02*
X518336Y-809961D01*
X518336Y-850961D01*
X494836Y-850961D01*
X494836Y-809961D01*
G37*
G36*
X520236Y-809961D02*
X543736Y-809961D01*
X543736Y-850961D01*
X520236Y-850961D01*
X520236Y-809961D01*
G37*
G36*
X545636Y-809961D02*
X569136Y-809961D01*
X569136Y-850961D01*
X545636Y-850961D01*
X545636Y-809961D01*
G37*
G36*
X571036Y-809961D02*
X594536Y-809961D01*
X594536Y-850961D01*
X571036Y-850961D01*
X571036Y-809961D01*
G37*
G36*
X596436Y-809962D02*
X619936Y-809962D01*
X619936Y-850962D01*
X596436Y-850962D01*
X596436Y-809962D01*
G37*
G36*
X621836Y-809962D02*
X645336Y-809962D01*
X645336Y-850962D01*
X621836Y-850962D01*
X621836Y-809962D01*
G37*
G36*
X647236Y-809961D02*
X670736Y-809961D01*
X670736Y-850961D01*
X647236Y-850961D01*
X647236Y-809961D01*
G37*
G36*
X672636Y-809961D02*
X696136Y-809961D01*
X696136Y-850961D01*
X672636Y-850961D01*
X672636Y-809961D01*
G37*
G36*
X698036Y-809961D02*
X721536Y-809961D01*
X721536Y-850961D01*
X698036Y-850961D01*
X698036Y-809961D01*
G37*
G36*
X723436Y-809961D02*
X746936Y-809961D01*
X746936Y-850961D01*
X723436Y-850961D01*
X723436Y-809961D01*
G37*
G36*
X748836Y-809961D02*
X772336Y-809961D01*
X772336Y-850961D01*
X748836Y-850961D01*
X748836Y-809961D01*
G37*
G36*
X774236Y-809961D02*
X797736Y-809961D01*
X797736Y-850961D01*
X774236Y-850961D01*
X774236Y-809961D01*
G37*
G36*
X799636Y-809961D02*
X823136Y-809961D01*
X823136Y-850961D01*
X799636Y-850961D01*
X799636Y-809961D01*
G37*
G36*
X825036Y-809961D02*
X848536Y-809961D01*
X848536Y-850961D01*
X825036Y-850961D01*
X825036Y-809961D01*
G37*
G36*
X850436Y-809961D02*
X873936Y-809961D01*
X873936Y-850961D01*
X850436Y-850961D01*
X850436Y-809961D01*
G37*
X2168268Y-750425D02*
G54D12*
D03*
X2168268Y-877425D02*
G54D12*
D03*
X2568318Y-750425D02*
G54D12*
D03*
X2568318Y-877425D02*
G54D12*
D03*
X133113Y-874281D02*
G54D12*
D03*
X133113Y-747281D02*
G54D12*
D03*
G36*
X1435430Y-563898D02*
X1458930Y-563898D01*
X1458930Y-604898D01*
X1435430Y-604898D01*
X1435430Y-563898D01*
G37*
G36*
X1460830Y-563898D02*
X1484330Y-563898D01*
X1484330Y-604898D01*
X1460830Y-604898D01*
X1460830Y-563898D01*
G37*
G36*
X1486230Y-563898D02*
X1509730Y-563898D01*
X1509730Y-604898D01*
X1486230Y-604898D01*
X1486230Y-563898D01*
G37*
G36*
X1511630Y-563898D02*
X1535130Y-563898D01*
X1535130Y-604898D01*
X1511630Y-604898D01*
X1511630Y-563898D01*
G37*
G36*
X1537030Y-563898D02*
X1560530Y-563898D01*
X1560530Y-604898D01*
X1537030Y-604898D01*
X1537030Y-563898D01*
G37*
G36*
X1562430Y-563898D02*
X1585930Y-563898D01*
X1585930Y-604898D01*
X1562430Y-604898D01*
X1562430Y-563898D01*
G37*
G36*
X1587830Y-563898D02*
X1611330Y-563898D01*
X1611330Y-604898D01*
X1587830Y-604898D01*
X1587830Y-563898D01*
G37*
G36*
X1613230Y-563898D02*
X1636730Y-563898D01*
X1636730Y-604898D01*
X1613230Y-604898D01*
X1613230Y-563898D01*
G37*
G36*
X1638630Y-563898D02*
X1662130Y-563898D01*
X1662130Y-604898D01*
X1638630Y-604898D01*
X1638630Y-563898D01*
G37*
G36*
X1664030Y-563898D02*
X1687530Y-563898D01*
X1687530Y-604898D01*
X1664030Y-604898D01*
X1664030Y-563898D01*
G37*
G36*
X1689430Y-563898D02*
X1712930Y-563898D01*
X1712930Y-604898D01*
X1689430Y-604898D01*
X1689430Y-563898D01*
G37*
G36*
X1714830Y-563898D02*
X1738330Y-563898D01*
X1738330Y-604898D01*
X1714830Y-604898D01*
X1714830Y-563898D01*
G37*
G36*
X1740230Y-563898D02*
X1763730Y-563898D01*
X1763730Y-604898D01*
X1740230Y-604898D01*
X1740230Y-563898D01*
G37*
G36*
X1765630Y-563898D02*
X1789130Y-563898D01*
X1789130Y-604898D01*
X1765630Y-604898D01*
X1765630Y-563898D01*
G37*
G36*
X1791030Y-563898D02*
X1814530Y-563898D01*
X1814530Y-604898D01*
X1791030Y-604898D01*
X1791030Y-563898D01*
G37*
G36*
X1816430Y-563898D02*
X1839930Y-563898D01*
X1839930Y-604898D01*
X1816430Y-604898D01*
X1816430Y-563898D01*
G37*
G36*
X1841830Y-563898D02*
X1865330Y-563898D01*
X1865330Y-604898D01*
X1841830Y-604898D01*
X1841830Y-563898D01*
G37*
G36*
X1867230Y-563898D02*
X1890730Y-563898D01*
X1890730Y-604898D01*
X1867230Y-604898D01*
X1867230Y-563898D01*
G37*
G36*
X1892630Y-563898D02*
X1916130Y-563898D01*
X1916130Y-604898D01*
X1892630Y-604898D01*
X1892630Y-563898D01*
G37*
G36*
X1918030Y-563898D02*
X1941530Y-563898D01*
X1941530Y-604898D01*
X1918030Y-604898D01*
X1918030Y-563898D01*
G37*
G36*
X1943430Y-563898D02*
X1966930Y-563898D01*
X1966930Y-604898D01*
X1943430Y-604898D01*
X1943430Y-563898D01*
G37*
G36*
X1968830Y-563898D02*
X1992330Y-563898D01*
X1992330Y-604898D01*
X1968830Y-604898D01*
X1968830Y-563898D01*
G37*
G36*
X1994230Y-563898D02*
X2017730Y-563898D01*
X2017730Y-604898D01*
X1994230Y-604898D01*
X1994230Y-563898D01*
G37*
G36*
X2019630Y-563898D02*
X2043130Y-563898D01*
X2043130Y-604898D01*
X2019630Y-604898D01*
X2019630Y-563898D01*
G37*
G36*
X266236Y-563898D02*
X289736Y-563898D01*
X289736Y-604898D01*
X266236Y-604898D01*
X266236Y-563898D01*
G37*
G36*
X291636Y-563898D02*
X315136Y-563898D01*
X315136Y-604898D01*
X291636Y-604898D01*
X291636Y-563898D01*
G37*
G36*
X317036Y-563898D02*
X340536Y-563898D01*
X340536Y-604898D01*
X317036Y-604898D01*
X317036Y-563898D01*
G37*
G36*
X342436Y-563898D02*
X365936Y-563898D01*
X365936Y-604898D01*
X342436Y-604898D01*
X342436Y-563898D01*
G37*
G36*
X367836Y-563898D02*
X391336Y-563898D01*
X391336Y-604898D01*
X367836Y-604898D01*
X367836Y-563898D01*
G37*
G36*
X393236Y-563898D02*
X416736Y-563898D01*
X416736Y-604898D01*
X393236Y-604898D01*
X393236Y-563898D01*
G37*
G36*
X418636Y-563898D02*
X442136Y-563898D01*
X442136Y-604898D01*
X418636Y-604898D01*
X418636Y-563898D01*
G37*
G36*
X444036Y-563898D02*
X467536Y-563898D01*
X467536Y-604898D01*
X444036Y-604898D01*
X444036Y-563898D01*
G37*
G36*
X469436Y-563898D02*
X492936Y-563898D01*
X492936Y-604898D01*
X469436Y-604898D01*
X469436Y-563898D01*
G37*
G36*
X494836Y-563898D02*
X518336Y-563898D01*
X518336Y-604898D01*
X494836Y-604898D01*
X494836Y-563898D01*
G37*
G36*
X520236Y-563898D02*
X543736Y-563898D01*
X543736Y-604898D01*
X520236Y-604898D01*
X520236Y-563898D01*
G37*
G36*
X545636Y-563898D02*
X569136Y-563898D01*
X569136Y-604898D01*
X545636Y-604898D01*
X545636Y-563898D01*
G37*
G36*
X571036Y-563898D02*
X594536Y-563898D01*
X594536Y-604898D01*
X571036Y-604898D01*
X571036Y-563898D01*
G37*
G36*
X596436Y-563899D02*
X619936Y-563899D01*
X619936Y-604899D01*
X596436Y-604899D01*
X596436Y-563899D01*
G37*
G36*
X621836Y-563899D02*
X645336Y-563899D01*
X645336Y-604899D01*
X621836Y-604899D01*
X621836Y-563899D01*
G37*
G36*
X647236Y-563898D02*
X670736Y-563898D01*
X670736Y-604898D01*
X647236Y-604898D01*
X647236Y-563898D01*
G37*
G36*
X672636Y-563898D02*
X696136Y-563898D01*
X696136Y-604898D01*
X672636Y-604898D01*
X672636Y-563898D01*
G37*
G36*
X698036Y-563898D02*
X721536Y-563898D01*
X721536Y-604898D01*
X698036Y-604898D01*
X698036Y-563898D01*
G37*
G36*
X723436Y-563898D02*
X746936Y-563898D01*
X746936Y-604898D01*
X723436Y-604898D01*
X723436Y-563898D01*
G37*
G36*
X748836Y-563898D02*
X772336Y-563898D01*
X772336Y-604898D01*
X748836Y-604898D01*
X748836Y-563898D01*
G37*
G36*
X774236Y-563898D02*
X797736Y-563898D01*
X797736Y-604898D01*
X774236Y-604898D01*
X774236Y-563898D01*
G37*
G36*
X799636Y-563898D02*
X823136Y-563898D01*
X823136Y-604898D01*
X799636Y-604898D01*
X799636Y-563898D01*
G37*
G36*
X825036Y-563898D02*
X848536Y-563898D01*
X848536Y-604898D01*
X825036Y-604898D01*
X825036Y-563898D01*
G37*
G36*
X850436Y-563898D02*
X873936Y-563898D01*
X873936Y-604898D01*
X850436Y-604898D01*
X850436Y-563898D01*
G37*
X2168268Y-504362D02*
G54D12*
D03*
X2168268Y-631362D02*
G54D12*
D03*
X2568318Y-504362D02*
G54D12*
D03*
X2568318Y-631362D02*
G54D12*
D03*
X133113Y-628218D02*
G54D12*
D03*
X133113Y-501218D02*
G54D12*
D03*
G36*
X1435430Y-316248D02*
X1458930Y-316248D01*
X1458930Y-357248D01*
X1435430Y-357248D01*
X1435430Y-316248D01*
G37*
G36*
X1460830Y-316248D02*
X1484330Y-316248D01*
X1484330Y-357248D01*
X1460830Y-357248D01*
X1460830Y-316248D01*
G37*
G36*
X1486230Y-316248D02*
X1509730Y-316248D01*
X1509730Y-357248D01*
X1486230Y-357248D01*
X1486230Y-316248D01*
G37*
G36*
X1511630Y-316248D02*
X1535130Y-316248D01*
X1535130Y-357248D01*
X1511630Y-357248D01*
X1511630Y-316248D01*
G37*
G36*
X1537030Y-316248D02*
X1560530Y-316248D01*
X1560530Y-357248D01*
X1537030Y-357248D01*
X1537030Y-316248D01*
G37*
G36*
X1562430Y-316248D02*
X1585930Y-316248D01*
X1585930Y-357248D01*
X1562430Y-357248D01*
X1562430Y-316248D01*
G37*
G36*
X1587830Y-316248D02*
X1611330Y-316248D01*
X1611330Y-357248D01*
X1587830Y-357248D01*
X1587830Y-316248D01*
G37*
G36*
X1613230Y-316248D02*
X1636730Y-316248D01*
X1636730Y-357248D01*
X1613230Y-357248D01*
X1613230Y-316248D01*
G37*
G36*
X1638630Y-316248D02*
X1662130Y-316248D01*
X1662130Y-357248D01*
X1638630Y-357248D01*
X1638630Y-316248D01*
G37*
G36*
X1664030Y-316248D02*
X1687530Y-316248D01*
X1687530Y-357248D01*
X1664030Y-357248D01*
X1664030Y-316248D01*
G37*
G36*
X1689430Y-316248D02*
X1712930Y-316248D01*
X1712930Y-357248D01*
X1689430Y-357248D01*
X1689430Y-316248D01*
G37*
G36*
X1714830Y-316248D02*
X1738330Y-316248D01*
X1738330Y-357248D01*
X1714830Y-357248D01*
X1714830Y-316248D01*
G37*
G36*
X1740230Y-316248D02*
X1763730Y-316248D01*
X1763730Y-357248D01*
X1740230Y-357248D01*
X1740230Y-316248D01*
G37*
G36*
X1765630Y-316248D02*
X1789130Y-316248D01*
X1789130Y-357248D01*
X1765630Y-357248D01*
X1765630Y-316248D01*
G37*
G36*
X1791030Y-316248D02*
X1814530Y-316248D01*
X1814530Y-357248D01*
X1791030Y-357248D01*
X1791030Y-316248D01*
G37*
G36*
X1816430Y-316248D02*
X1839930Y-316248D01*
X1839930Y-357248D01*
X1816430Y-357248D01*
X1816430Y-316248D01*
G37*
G36*
X1841830Y-316248D02*
X1865330Y-316248D01*
X1865330Y-357248D01*
X1841830Y-357248D01*
X1841830Y-316248D01*
G37*
G36*
X1867230Y-316248D02*
X1890730Y-316248D01*
X1890730Y-357248D01*
X1867230Y-357248D01*
X1867230Y-316248D01*
G37*
G36*
X1892630Y-316248D02*
X1916130Y-316248D01*
X1916130Y-357248D01*
X1892630Y-357248D01*
X1892630Y-316248D01*
G37*
G36*
X1918030Y-316248D02*
X1941530Y-316248D01*
X1941530Y-357248D01*
X1918030Y-357248D01*
X1918030Y-316248D01*
G37*
G36*
X1943430Y-316248D02*
X1966930Y-316248D01*
X1966930Y-357248D01*
X1943430Y-357248D01*
X1943430Y-316248D01*
G37*
G36*
X1968830Y-316248D02*
X1992330Y-316248D01*
X1992330Y-357248D01*
X1968830Y-357248D01*
X1968830Y-316248D01*
G37*
G36*
X1994230Y-316248D02*
X2017730Y-316248D01*
X2017730Y-357248D01*
X1994230Y-357248D01*
X1994230Y-316248D01*
G37*
G36*
X2019630Y-316248D02*
X2043130Y-316248D01*
X2043130Y-357248D01*
X2019630Y-357248D01*
X2019630Y-316248D01*
G37*
G36*
X266236Y-316248D02*
X289736Y-316248D01*
X289736Y-357248D01*
X266236Y-357248D01*
X266236Y-316248D01*
G37*
G36*
X291636Y-316248D02*
X315136Y-316248D01*
X315136Y-357248D01*
X291636Y-357248D01*
X291636Y-316248D01*
G37*
G36*
X317036Y-316248D02*
X340536Y-316248D01*
X340536Y-357248D01*
X317036Y-357248D01*
X317036Y-316248D01*
G37*
G36*
X342436Y-316248D02*
X365936Y-316248D01*
X365936Y-357248D01*
X342436Y-357248D01*
X342436Y-316248D01*
G37*
G36*
X367836Y-316248D02*
X391336Y-316248D01*
X391336Y-357248D01*
X367836Y-357248D01*
X367836Y-316248D01*
G37*
G36*
X393236Y-316248D02*
X416736Y-316248D01*
X416736Y-357248D01*
X393236Y-357248D01*
X393236Y-316248D01*
G37*
G36*
X418636Y-316248D02*
X442136Y-316248D01*
X442136Y-357248D01*
X418636Y-357248D01*
X418636Y-316248D01*
G37*
G36*
X444036Y-316248D02*
X467536Y-316248D01*
X467536Y-357248D01*
X444036Y-357248D01*
X444036Y-316248D01*
G37*
G36*
X469436Y-316248D02*
X492936Y-316248D01*
X492936Y-357248D01*
X469436Y-357248D01*
X469436Y-316248D01*
G37*
G36*
X494836Y-316248D02*
X518336Y-316248D01*
X518336Y-357248D01*
X494836Y-357248D01*
X494836Y-316248D01*
G37*
G36*
X520236Y-316248D02*
X543736Y-316248D01*
X543736Y-357248D01*
X520236Y-357248D01*
X520236Y-316248D01*
G37*
G36*
X545636Y-316248D02*
X569136Y-316248D01*
X569136Y-357248D01*
X545636Y-357248D01*
X545636Y-316248D01*
G37*
G36*
X571036Y-316248D02*
X594536Y-316248D01*
X594536Y-357248D01*
X571036Y-357248D01*
X571036Y-316248D01*
G37*
G36*
X596436Y-316249D02*
X619936Y-316249D01*
X619936Y-357249D01*
X596436Y-357249D01*
X596436Y-316249D01*
G37*
G36*
X621836Y-316249D02*
X645336Y-316249D01*
X645336Y-357249D01*
X621836Y-357249D01*
X621836Y-316249D01*
G37*
G36*
X647236Y-316248D02*
X670736Y-316248D01*
X670736Y-357248D01*
X647236Y-357248D01*
X647236Y-316248D01*
G37*
G36*
X672636Y-316248D02*
X696136Y-316248D01*
X696136Y-357248D01*
X672636Y-357248D01*
X672636Y-316248D01*
G37*
G36*
X698036Y-316248D02*
X721536Y-316248D01*
X721536Y-357248D01*
X698036Y-357248D01*
X698036Y-316248D01*
G37*
G36*
X723436Y-316248D02*
X746936Y-316248D01*
X746936Y-357248D01*
X723436Y-357248D01*
X723436Y-316248D01*
G37*
G36*
X748836Y-316248D02*
X772336Y-316248D01*
X772336Y-357248D01*
X748836Y-357248D01*
X748836Y-316248D01*
G37*
G36*
X774236Y-316248D02*
X797736Y-316248D01*
X797736Y-357248D01*
X774236Y-357248D01*
X774236Y-316248D01*
G37*
G36*
X799636Y-316248D02*
X823136Y-316248D01*
X823136Y-357248D01*
X799636Y-357248D01*
X799636Y-316248D01*
G37*
G36*
X825036Y-316248D02*
X848536Y-316248D01*
X848536Y-357248D01*
X825036Y-357248D01*
X825036Y-316248D01*
G37*
G36*
X850436Y-316248D02*
X873936Y-316248D01*
X873936Y-357248D01*
X850436Y-357248D01*
X850436Y-316248D01*
G37*
X2168268Y-256712D02*
G54D12*
D03*
X2168268Y-383712D02*
G54D12*
D03*
X2568318Y-256712D02*
G54D12*
D03*
X2568318Y-383712D02*
G54D12*
D03*
X133113Y-380568D02*
G54D12*
D03*
X133113Y-253568D02*
G54D12*
D03*
G36*
X1435430Y-68598D02*
X1458930Y-68598D01*
X1458930Y-109598D01*
X1435430Y-109598D01*
X1435430Y-68598D01*
G37*
G36*
X1460830Y-68598D02*
X1484330Y-68598D01*
X1484330Y-109598D01*
X1460830Y-109598D01*
X1460830Y-68598D01*
G37*
G36*
X1486230Y-68598D02*
X1509730Y-68598D01*
X1509730Y-109598D01*
X1486230Y-109598D01*
X1486230Y-68598D01*
G37*
G36*
X1511630Y-68598D02*
X1535130Y-68598D01*
X1535130Y-109598D01*
X1511630Y-109598D01*
X1511630Y-68598D01*
G37*
G36*
X1537030Y-68598D02*
X1560530Y-68598D01*
X1560530Y-109598D01*
X1537030Y-109598D01*
X1537030Y-68598D01*
G37*
G36*
X1562430Y-68598D02*
X1585930Y-68598D01*
X1585930Y-109598D01*
X1562430Y-109598D01*
X1562430Y-68598D01*
G37*
G36*
X1587830Y-68598D02*
X1611330Y-68598D01*
X1611330Y-109598D01*
X1587830Y-109598D01*
X1587830Y-68598D01*
G37*
G36*
X1613230Y-68598D02*
X1636730Y-68598D01*
X1636730Y-109598D01*
X1613230Y-109598D01*
X1613230Y-68598D01*
G37*
G36*
X1638630Y-68598D02*
X1662130Y-68598D01*
X1662130Y-109598D01*
X1638630Y-109598D01*
X1638630Y-68598D01*
G37*
G36*
X1664030Y-68598D02*
X1687530Y-68598D01*
X1687530Y-109598D01*
X1664030Y-109598D01*
X1664030Y-68598D01*
G37*
G36*
X1689430Y-68598D02*
X1712930Y-68598D01*
X1712930Y-109598D01*
X1689430Y-109598D01*
X1689430Y-68598D01*
G37*
G36*
X1714830Y-68598D02*
X1738330Y-68598D01*
X1738330Y-109598D01*
X1714830Y-109598D01*
X1714830Y-68598D01*
G37*
G36*
X1740230Y-68598D02*
X1763730Y-68598D01*
X1763730Y-109598D01*
X1740230Y-109598D01*
X1740230Y-68598D01*
G37*
G36*
X1765630Y-68598D02*
X1789130Y-68598D01*
X1789130Y-109598D01*
X1765630Y-109598D01*
X1765630Y-68598D01*
G37*
G36*
X1791030Y-68598D02*
X1814530Y-68598D01*
X1814530Y-109598D01*
X1791030Y-109598D01*
X1791030Y-68598D01*
G37*
G36*
X1816430Y-68598D02*
X1839930Y-68598D01*
X1839930Y-109598D01*
X1816430Y-109598D01*
X1816430Y-68598D01*
G37*
G36*
X1841830Y-68598D02*
X1865330Y-68598D01*
X1865330Y-109598D01*
X1841830Y-109598D01*
X1841830Y-68598D01*
G37*
G36*
X1867230Y-68598D02*
X1890730Y-68598D01*
X1890730Y-109598D01*
X1867230Y-109598D01*
X1867230Y-68598D01*
G37*
G36*
X1892630Y-68598D02*
X1916130Y-68598D01*
X1916130Y-109598D01*
X1892630Y-109598D01*
X1892630Y-68598D01*
G37*
G36*
X1918030Y-68598D02*
X1941530Y-68598D01*
X1941530Y-109598D01*
X1918030Y-109598D01*
X1918030Y-68598D01*
G37*
G36*
X1943430Y-68598D02*
X1966930Y-68598D01*
X1966930Y-109598D01*
X1943430Y-109598D01*
X1943430Y-68598D01*
G37*
G36*
X1968830Y-68598D02*
X1992330Y-68598D01*
X1992330Y-109598D01*
X1968830Y-109598D01*
X1968830Y-68598D01*
G37*
G36*
X1994230Y-68598D02*
X2017730Y-68598D01*
X2017730Y-109598D01*
X1994230Y-109598D01*
X1994230Y-68598D01*
G37*
G36*
X2019630Y-68598D02*
X2043130Y-68598D01*
X2043130Y-109598D01*
X2019630Y-109598D01*
X2019630Y-68598D01*
G37*
G36*
X266236Y-68598D02*
X289736Y-68598D01*
X289736Y-109598D01*
X266236Y-109598D01*
X266236Y-68598D01*
G37*
G36*
X291636Y-68598D02*
X315136Y-68598D01*
X315136Y-109598D01*
X291636Y-109598D01*
X291636Y-68598D01*
G37*
G36*
X317036Y-68598D02*
X340536Y-68598D01*
X340536Y-109598D01*
X317036Y-109598D01*
X317036Y-68598D01*
G37*
G36*
X342436Y-68598D02*
X365936Y-68598D01*
X365936Y-109598D01*
X342436Y-109598D01*
X342436Y-68598D01*
G37*
G36*
X367836Y-68598D02*
X391336Y-68598D01*
X391336Y-109598D01*
X367836Y-109598D01*
X367836Y-68598D01*
G37*
G36*
X393236Y-68598D02*
X416736Y-68598D01*
X416736Y-109598D01*
X393236Y-109598D01*
X393236Y-68598D01*
G37*
G36*
X418636Y-68598D02*
X442136Y-68598D01*
X442136Y-109598D01*
X418636Y-109598D01*
X418636Y-68598D01*
G37*
G36*
X444036Y-68598D02*
X467536Y-68598D01*
X467536Y-109598D01*
X444036Y-109598D01*
X444036Y-68598D01*
G37*
G36*
X469436Y-68598D02*
X492936Y-68598D01*
X492936Y-109598D01*
X469436Y-109598D01*
X469436Y-68598D01*
G37*
G36*
X494836Y-68598D02*
X518336Y-68598D01*
X518336Y-109598D01*
X494836Y-109598D01*
X494836Y-68598D01*
G37*
G36*
X520236Y-68598D02*
X543736Y-68598D01*
X543736Y-109598D01*
X520236Y-109598D01*
X520236Y-68598D01*
G37*
G36*
X545636Y-68598D02*
X569136Y-68598D01*
X569136Y-109598D01*
X545636Y-109598D01*
X545636Y-68598D01*
G37*
G36*
X571036Y-68598D02*
X594536Y-68598D01*
X594536Y-109598D01*
X571036Y-109598D01*
X571036Y-68598D01*
G37*
G36*
X596436Y-68599D02*
X619936Y-68599D01*
X619936Y-109599D01*
X596436Y-109599D01*
X596436Y-68599D01*
G37*
G36*
X621836Y-68599D02*
X645336Y-68599D01*
X645336Y-109599D01*
X621836Y-109599D01*
X621836Y-68599D01*
G37*
G36*
X647236Y-68598D02*
X670736Y-68598D01*
X670736Y-109598D01*
X647236Y-109598D01*
X647236Y-68598D01*
G37*
G36*
X672636Y-68598D02*
X696136Y-68598D01*
X696136Y-109598D01*
X672636Y-109598D01*
X672636Y-68598D01*
G37*
G36*
X698036Y-68598D02*
X721536Y-68598D01*
X721536Y-109598D01*
X698036Y-109598D01*
X698036Y-68598D01*
G37*
G36*
X723436Y-68598D02*
X746936Y-68598D01*
X746936Y-109598D01*
X723436Y-109598D01*
X723436Y-68598D01*
G37*
G36*
X748836Y-68598D02*
X772336Y-68598D01*
X772336Y-109598D01*
X748836Y-109598D01*
X748836Y-68598D01*
G37*
G36*
X774236Y-68598D02*
X797736Y-68598D01*
X797736Y-109598D01*
X774236Y-109598D01*
X774236Y-68598D01*
G37*
G36*
X799636Y-68598D02*
X823136Y-68598D01*
X823136Y-109598D01*
X799636Y-109598D01*
X799636Y-68598D01*
G37*
G36*
X825036Y-68598D02*
X848536Y-68598D01*
X848536Y-109598D01*
X825036Y-109598D01*
X825036Y-68598D01*
G37*
G36*
X850436Y-68598D02*
X873936Y-68598D01*
X873936Y-109598D01*
X850436Y-109598D01*
X850436Y-68598D01*
G37*
X2168268Y-9062D02*
G54D12*
D03*
X2168268Y-136062D02*
G54D12*
D03*
X2568318Y-9062D02*
G54D12*
D03*
X2568318Y-136062D02*
G54D12*
D03*
X133113Y-132918D02*
G54D12*
D03*
X133113Y-5918D02*
G54D12*
D03*
G36*
X1435430Y180639D02*
X1458930Y180639D01*
X1458930Y139639D01*
X1435430Y139639D01*
X1435430Y180639D01*
G37*
G36*
X1460830Y180639D02*
X1484330Y180639D01*
X1484330Y139639D01*
X1460830Y139639D01*
X1460830Y180639D01*
G37*
G36*
X1486230Y180639D02*
X1509730Y180639D01*
X1509730Y139639D01*
X1486230Y139639D01*
X1486230Y180639D01*
G37*
G36*
X1511630Y180639D02*
X1535130Y180639D01*
X1535130Y139639D01*
X1511630Y139639D01*
X1511630Y180639D01*
G37*
G36*
X1537030Y180639D02*
X1560530Y180639D01*
X1560530Y139639D01*
X1537030Y139639D01*
X1537030Y180639D01*
G37*
G36*
X1562430Y180639D02*
X1585930Y180639D01*
X1585930Y139639D01*
X1562430Y139639D01*
X1562430Y180639D01*
G37*
G36*
X1587830Y180639D02*
X1611330Y180639D01*
X1611330Y139639D01*
X1587830Y139639D01*
X1587830Y180639D01*
G37*
G36*
X1613230Y180639D02*
X1636730Y180639D01*
X1636730Y139639D01*
X1613230Y139639D01*
X1613230Y180639D01*
G37*
G36*
X1638630Y180639D02*
X1662130Y180639D01*
X1662130Y139639D01*
X1638630Y139639D01*
X1638630Y180639D01*
G37*
G36*
X1664030Y180639D02*
X1687530Y180639D01*
X1687530Y139639D01*
X1664030Y139639D01*
X1664030Y180639D01*
G37*
G36*
X1689430Y180639D02*
X1712930Y180639D01*
X1712930Y139639D01*
X1689430Y139639D01*
X1689430Y180639D01*
G37*
G36*
X1714830Y180639D02*
X1738330Y180639D01*
X1738330Y139639D01*
X1714830Y139639D01*
X1714830Y180639D01*
G37*
G36*
X1740230Y180639D02*
X1763730Y180639D01*
X1763730Y139639D01*
X1740230Y139639D01*
X1740230Y180639D01*
G37*
G36*
X1765630Y180639D02*
X1789130Y180639D01*
X1789130Y139639D01*
X1765630Y139639D01*
X1765630Y180639D01*
G37*
G36*
X1791030Y180639D02*
X1814530Y180639D01*
X1814530Y139639D01*
X1791030Y139639D01*
X1791030Y180639D01*
G37*
G36*
X1816430Y180639D02*
X1839930Y180639D01*
X1839930Y139639D01*
X1816430Y139639D01*
X1816430Y180639D01*
G37*
G36*
X1841830Y180639D02*
X1865330Y180639D01*
X1865330Y139639D01*
X1841830Y139639D01*
X1841830Y180639D01*
G37*
G36*
X1867230Y180639D02*
X1890730Y180639D01*
X1890730Y139639D01*
X1867230Y139639D01*
X1867230Y180639D01*
G37*
G36*
X1892630Y180639D02*
X1916130Y180639D01*
X1916130Y139639D01*
X1892630Y139639D01*
X1892630Y180639D01*
G37*
G36*
X1918030Y180639D02*
X1941530Y180639D01*
X1941530Y139639D01*
X1918030Y139639D01*
X1918030Y180639D01*
G37*
G36*
X1943430Y180639D02*
X1966930Y180639D01*
X1966930Y139639D01*
X1943430Y139639D01*
X1943430Y180639D01*
G37*
G36*
X1968830Y180639D02*
X1992330Y180639D01*
X1992330Y139639D01*
X1968830Y139639D01*
X1968830Y180639D01*
G37*
G36*
X1994230Y180639D02*
X2017730Y180639D01*
X2017730Y139639D01*
X1994230Y139639D01*
X1994230Y180639D01*
G37*
G36*
X2019630Y180639D02*
X2043130Y180639D01*
X2043130Y139639D01*
X2019630Y139639D01*
X2019630Y180639D01*
G37*
G36*
X266236Y180639D02*
X289736Y180639D01*
X289736Y139639D01*
X266236Y139639D01*
X266236Y180639D01*
G37*
G36*
X291636Y180639D02*
X315136Y180639D01*
X315136Y139639D01*
X291636Y139639D01*
X291636Y180639D01*
G37*
G36*
X317036Y180639D02*
X340536Y180639D01*
X340536Y139639D01*
X317036Y139639D01*
X317036Y180639D01*
G37*
G36*
X342436Y180639D02*
X365936Y180639D01*
X365936Y139639D01*
X342436Y139639D01*
X342436Y180639D01*
G37*
G36*
X367836Y180639D02*
X391336Y180639D01*
X391336Y139639D01*
X367836Y139639D01*
X367836Y180639D01*
G37*
G36*
X393236Y180639D02*
X416736Y180639D01*
X416736Y139639D01*
X393236Y139639D01*
X393236Y180639D01*
G37*
G36*
X418636Y180639D02*
X442136Y180639D01*
X442136Y139639D01*
X418636Y139639D01*
X418636Y180639D01*
G37*
G36*
X444036Y180639D02*
X467536Y180639D01*
X467536Y139639D01*
X444036Y139639D01*
X444036Y180639D01*
G37*
G36*
X469436Y180639D02*
X492936Y180639D01*
X492936Y139639D01*
X469436Y139639D01*
X469436Y180639D01*
G37*
G36*
X494836Y180639D02*
X518336Y180639D01*
X518336Y139639D01*
X494836Y139639D01*
X494836Y180639D01*
G37*
G36*
X520236Y180639D02*
X543736Y180639D01*
X543736Y139639D01*
X520236Y139639D01*
X520236Y180639D01*
G37*
G36*
X545636Y180639D02*
X569136Y180639D01*
X569136Y139639D01*
X545636Y139639D01*
X545636Y180639D01*
G37*
G36*
X571036Y180639D02*
X594536Y180639D01*
X594536Y139639D01*
X571036Y139639D01*
X571036Y180639D01*
G37*
G36*
X596436Y180638D02*
X619936Y180638D01*
X619936Y139638D01*
X596436Y139638D01*
X596436Y180638D01*
G37*
G36*
X621836Y180638D02*
X645336Y180638D01*
X645336Y139638D01*
X621836Y139638D01*
X621836Y180638D01*
G37*
G36*
X647236Y180639D02*
X670736Y180639D01*
X670736Y139639D01*
X647236Y139639D01*
X647236Y180639D01*
G37*
G36*
X672636Y180639D02*
X696136Y180639D01*
X696136Y139639D01*
X672636Y139639D01*
X672636Y180639D01*
G37*
G36*
X698036Y180639D02*
X721536Y180639D01*
X721536Y139639D01*
X698036Y139639D01*
X698036Y180639D01*
G37*
G36*
X723436Y180639D02*
X746936Y180639D01*
X746936Y139639D01*
X723436Y139639D01*
X723436Y180639D01*
G37*
G36*
X748836Y180639D02*
X772336Y180639D01*
X772336Y139639D01*
X748836Y139639D01*
X748836Y180639D01*
G37*
G36*
X774236Y180639D02*
X797736Y180639D01*
X797736Y139639D01*
X774236Y139639D01*
X774236Y180639D01*
G37*
G36*
X799636Y180639D02*
X823136Y180639D01*
X823136Y139639D01*
X799636Y139639D01*
X799636Y180639D01*
G37*
G36*
X825036Y180639D02*
X848536Y180639D01*
X848536Y139639D01*
X825036Y139639D01*
X825036Y180639D01*
G37*
G36*
X850436Y180639D02*
X873936Y180639D01*
X873936Y139639D01*
X850436Y139639D01*
X850436Y180639D01*
G37*
X2168268Y240175D02*
G54D12*
D03*
X2168268Y113175D02*
G54D12*
D03*
X2568318Y240175D02*
G54D12*
D03*
X2568318Y113175D02*
G54D12*
D03*
X133113Y116319D02*
G54D12*
D03*
X133113Y243319D02*
G54D12*
D03*
G36*
X1435430Y429876D02*
X1458930Y429876D01*
X1458930Y388876D01*
X1435430Y388876D01*
X1435430Y429876D01*
G37*
G36*
X1460830Y429876D02*
X1484330Y429876D01*
X1484330Y388876D01*
X1460830Y388876D01*
X1460830Y429876D01*
G37*
G36*
X1486230Y429876D02*
X1509730Y429876D01*
X1509730Y388876D01*
X1486230Y388876D01*
X1486230Y429876D01*
G37*
G36*
X1511630Y429876D02*
X1535130Y429876D01*
X1535130Y388876D01*
X1511630Y388876D01*
X1511630Y429876D01*
G37*
G36*
X1537030Y429876D02*
X1560530Y429876D01*
X1560530Y388876D01*
X1537030Y388876D01*
X1537030Y429876D01*
G37*
G36*
X1562430Y429876D02*
X1585930Y429876D01*
X1585930Y388876D01*
X1562430Y388876D01*
X1562430Y429876D01*
G37*
G36*
X1587830Y429876D02*
X1611330Y429876D01*
X1611330Y388876D01*
X1587830Y388876D01*
X1587830Y429876D01*
G37*
G36*
X1613230Y429876D02*
X1636730Y429876D01*
X1636730Y388876D01*
X1613230Y388876D01*
X1613230Y429876D01*
G37*
G36*
X1638630Y429876D02*
X1662130Y429876D01*
X1662130Y388876D01*
X1638630Y388876D01*
X1638630Y429876D01*
G37*
G36*
X1664030Y429876D02*
X1687530Y429876D01*
X1687530Y388876D01*
X1664030Y388876D01*
X1664030Y429876D01*
G37*
G36*
X1689430Y429876D02*
X1712930Y429876D01*
X1712930Y388876D01*
X1689430Y388876D01*
X1689430Y429876D01*
G37*
G36*
X1714830Y429876D02*
X1738330Y429876D01*
X1738330Y388876D01*
X1714830Y388876D01*
X1714830Y429876D01*
G37*
G36*
X1740230Y429876D02*
X1763730Y429876D01*
X1763730Y388876D01*
X1740230Y388876D01*
X1740230Y429876D01*
G37*
G36*
X1765630Y429876D02*
X1789130Y429876D01*
X1789130Y388876D01*
X1765630Y388876D01*
X1765630Y429876D01*
G37*
G36*
X1791030Y429876D02*
X1814530Y429876D01*
X1814530Y388876D01*
X1791030Y388876D01*
X1791030Y429876D01*
G37*
G36*
X1816430Y429876D02*
X1839930Y429876D01*
X1839930Y388876D01*
X1816430Y388876D01*
X1816430Y429876D01*
G37*
G36*
X1841830Y429876D02*
X1865330Y429876D01*
X1865330Y388876D01*
X1841830Y388876D01*
X1841830Y429876D01*
G37*
G36*
X1867230Y429876D02*
X1890730Y429876D01*
X1890730Y388876D01*
X1867230Y388876D01*
X1867230Y429876D01*
G37*
G36*
X1892630Y429876D02*
X1916130Y429876D01*
X1916130Y388876D01*
X1892630Y388876D01*
X1892630Y429876D01*
G37*
G36*
X1918030Y429876D02*
X1941530Y429876D01*
X1941530Y388876D01*
X1918030Y388876D01*
X1918030Y429876D01*
G37*
G36*
X1943430Y429876D02*
X1966930Y429876D01*
X1966930Y388876D01*
X1943430Y388876D01*
X1943430Y429876D01*
G37*
G36*
X1968830Y429876D02*
X1992330Y429876D01*
X1992330Y388876D01*
X1968830Y388876D01*
X1968830Y429876D01*
G37*
G36*
X1994230Y429876D02*
X2017730Y429876D01*
X2017730Y388876D01*
X1994230Y388876D01*
X1994230Y429876D01*
G37*
G36*
X2019630Y429876D02*
X2043130Y429876D01*
X2043130Y388876D01*
X2019630Y388876D01*
X2019630Y429876D01*
G37*
G36*
X266236Y429876D02*
X289736Y429876D01*
X289736Y388876D01*
X266236Y388876D01*
X266236Y429876D01*
G37*
G36*
X291636Y429876D02*
X315136Y429876D01*
X315136Y388876D01*
X291636Y388876D01*
X291636Y429876D01*
G37*
G36*
X317036Y429876D02*
X340536Y429876D01*
X340536Y388876D01*
X317036Y388876D01*
X317036Y429876D01*
G37*
G36*
X342436Y429876D02*
X365936Y429876D01*
X365936Y388876D01*
X342436Y388876D01*
X342436Y429876D01*
G37*
G36*
X367836Y429876D02*
X391336Y429876D01*
X391336Y388876D01*
X367836Y388876D01*
X367836Y429876D01*
G37*
G36*
X393236Y429876D02*
X416736Y429876D01*
X416736Y388876D01*
X393236Y388876D01*
X393236Y429876D01*
G37*
G36*
X418636Y429876D02*
X442136Y429876D01*
X442136Y388876D01*
X418636Y388876D01*
X418636Y429876D01*
G37*
G36*
X444036Y429876D02*
X467536Y429876D01*
X467536Y388876D01*
X444036Y388876D01*
X444036Y429876D01*
G37*
G36*
X469436Y429876D02*
X492936Y429876D01*
X492936Y388876D01*
X469436Y388876D01*
X469436Y429876D01*
G37*
G36*
X494836Y429876D02*
X518336Y429876D01*
X518336Y388876D01*
X494836Y388876D01*
X494836Y429876D01*
G37*
G36*
X520236Y429876D02*
X543736Y429876D01*
X543736Y388876D01*
X520236Y388876D01*
X520236Y429876D01*
G37*
G36*
X545636Y429876D02*
X569136Y429876D01*
X569136Y388876D01*
X545636Y388876D01*
X545636Y429876D01*
G37*
G36*
X571036Y429876D02*
X594536Y429876D01*
X594536Y388876D01*
X571036Y388876D01*
X571036Y429876D01*
G37*
G36*
X596436Y429876D02*
X619936Y429876D01*
X619936Y388876D01*
X596436Y388876D01*
X596436Y429876D01*
G37*
G36*
X621836Y429876D02*
X645336Y429876D01*
X645336Y388876D01*
X621836Y388876D01*
X621836Y429876D01*
G37*
G36*
X647236Y429876D02*
X670736Y429876D01*
X670736Y388876D01*
X647236Y388876D01*
X647236Y429876D01*
G37*
G36*
X672636Y429876D02*
X696136Y429876D01*
X696136Y388876D01*
X672636Y388876D01*
X672636Y429876D01*
G37*
G36*
X698036Y429876D02*
X721536Y429876D01*
X721536Y388876D01*
X698036Y388876D01*
X698036Y429876D01*
G37*
G36*
X723436Y429876D02*
X746936Y429876D01*
X746936Y388876D01*
X723436Y388876D01*
X723436Y429876D01*
G37*
G36*
X748836Y429876D02*
X772336Y429876D01*
X772336Y388876D01*
X748836Y388876D01*
X748836Y429876D01*
G37*
G36*
X774236Y429876D02*
X797736Y429876D01*
X797736Y388876D01*
X774236Y388876D01*
X774236Y429876D01*
G37*
G36*
X799636Y429876D02*
X823136Y429876D01*
X823136Y388876D01*
X799636Y388876D01*
X799636Y429876D01*
G37*
G36*
X825036Y429876D02*
X848536Y429876D01*
X848536Y388876D01*
X825036Y388876D01*
X825036Y429876D01*
G37*
G36*
X850436Y429876D02*
X873936Y429876D01*
X873936Y388876D01*
X850436Y388876D01*
X850436Y429876D01*
G37*
X2168268Y489412D02*
G54D12*
D03*
X2168268Y362412D02*
G54D12*
D03*
X2568318Y489412D02*
G54D12*
D03*
X2568318Y362412D02*
G54D12*
D03*
X133113Y365556D02*
G54D12*
D03*
X133113Y492556D02*
G54D12*
D03*
G36*
X1435430Y675939D02*
X1458930Y675939D01*
X1458930Y634939D01*
X1435430Y634939D01*
X1435430Y675939D01*
G37*
G36*
X1460830Y675939D02*
X1484330Y675939D01*
X1484330Y634939D01*
X1460830Y634939D01*
X1460830Y675939D01*
G37*
G36*
X1486230Y675939D02*
X1509730Y675939D01*
X1509730Y634939D01*
X1486230Y634939D01*
X1486230Y675939D01*
G37*
G36*
X1511630Y675939D02*
X1535130Y675939D01*
X1535130Y634939D01*
X1511630Y634939D01*
X1511630Y675939D01*
G37*
G36*
X1537030Y675939D02*
X1560530Y675939D01*
X1560530Y634939D01*
X1537030Y634939D01*
X1537030Y675939D01*
G37*
G36*
X1562430Y675939D02*
X1585930Y675939D01*
X1585930Y634939D01*
X1562430Y634939D01*
X1562430Y675939D01*
G37*
G36*
X1587830Y675939D02*
X1611330Y675939D01*
X1611330Y634939D01*
X1587830Y634939D01*
X1587830Y675939D01*
G37*
G36*
X1613230Y675939D02*
X1636730Y675939D01*
X1636730Y634939D01*
X1613230Y634939D01*
X1613230Y675939D01*
G37*
G36*
X1638630Y675939D02*
X1662130Y675939D01*
X1662130Y634939D01*
X1638630Y634939D01*
X1638630Y675939D01*
G37*
G36*
X1664030Y675939D02*
X1687530Y675939D01*
X1687530Y634939D01*
X1664030Y634939D01*
X1664030Y675939D01*
G37*
G36*
X1689430Y675939D02*
X1712930Y675939D01*
X1712930Y634939D01*
X1689430Y634939D01*
X1689430Y675939D01*
G37*
G36*
X1714830Y675939D02*
X1738330Y675939D01*
X1738330Y634939D01*
X1714830Y634939D01*
X1714830Y675939D01*
G37*
G36*
X1740230Y675939D02*
X1763730Y675939D01*
X1763730Y634939D01*
X1740230Y634939D01*
X1740230Y675939D01*
G37*
G36*
X1765630Y675939D02*
X1789130Y675939D01*
X1789130Y634939D01*
X1765630Y634939D01*
X1765630Y675939D01*
G37*
G36*
X1791030Y675939D02*
X1814530Y675939D01*
X1814530Y634939D01*
X1791030Y634939D01*
X1791030Y675939D01*
G37*
G36*
X1816430Y675939D02*
X1839930Y675939D01*
X1839930Y634939D01*
X1816430Y634939D01*
X1816430Y675939D01*
G37*
G36*
X1841830Y675939D02*
X1865330Y675939D01*
X1865330Y634939D01*
X1841830Y634939D01*
X1841830Y675939D01*
G37*
G36*
X1867230Y675939D02*
X1890730Y675939D01*
X1890730Y634939D01*
X1867230Y634939D01*
X1867230Y675939D01*
G37*
G36*
X1892630Y675939D02*
X1916130Y675939D01*
X1916130Y634939D01*
X1892630Y634939D01*
X1892630Y675939D01*
G37*
G36*
X1918030Y675939D02*
X1941530Y675939D01*
X1941530Y634939D01*
X1918030Y634939D01*
X1918030Y675939D01*
G37*
G36*
X1943430Y675939D02*
X1966930Y675939D01*
X1966930Y634939D01*
X1943430Y634939D01*
X1943430Y675939D01*
G37*
G36*
X1968830Y675939D02*
X1992330Y675939D01*
X1992330Y634939D01*
X1968830Y634939D01*
X1968830Y675939D01*
G37*
G36*
X1994230Y675939D02*
X2017730Y675939D01*
X2017730Y634939D01*
X1994230Y634939D01*
X1994230Y675939D01*
G37*
G36*
X2019630Y675939D02*
X2043130Y675939D01*
X2043130Y634939D01*
X2019630Y634939D01*
X2019630Y675939D01*
G37*
G36*
X266236Y675939D02*
X289736Y675939D01*
X289736Y634939D01*
X266236Y634939D01*
X266236Y675939D01*
G37*
G36*
X291636Y675939D02*
X315136Y675939D01*
X315136Y634939D01*
X291636Y634939D01*
X291636Y675939D01*
G37*
G36*
X317036Y675939D02*
X340536Y675939D01*
X340536Y634939D01*
X317036Y634939D01*
X317036Y675939D01*
G37*
G36*
X342436Y675939D02*
X365936Y675939D01*
X365936Y634939D01*
X342436Y634939D01*
X342436Y675939D01*
G37*
G36*
X367836Y675939D02*
X391336Y675939D01*
X391336Y634939D01*
X367836Y634939D01*
X367836Y675939D01*
G37*
G36*
X393236Y675939D02*
X416736Y675939D01*
X416736Y634939D01*
X393236Y634939D01*
X393236Y675939D01*
G37*
G36*
X418636Y675939D02*
X442136Y675939D01*
X442136Y634939D01*
X418636Y634939D01*
X418636Y675939D01*
G37*
G36*
X444036Y675939D02*
X467536Y675939D01*
X467536Y634939D01*
X444036Y634939D01*
X444036Y675939D01*
G37*
G36*
X469436Y675939D02*
X492936Y675939D01*
X492936Y634939D01*
X469436Y634939D01*
X469436Y675939D01*
G37*
G36*
X494836Y675939D02*
X518336Y675939D01*
X518336Y634939D01*
X494836Y634939D01*
X494836Y675939D01*
G37*
G36*
X520236Y675939D02*
X543736Y675939D01*
X543736Y634939D01*
X520236Y634939D01*
X520236Y675939D01*
G37*
G36*
X545636Y675939D02*
X569136Y675939D01*
X569136Y634939D01*
X545636Y634939D01*
X545636Y675939D01*
G37*
G36*
X571036Y675939D02*
X594536Y675939D01*
X594536Y634939D01*
X571036Y634939D01*
X571036Y675939D01*
G37*
G36*
X596436Y675938D02*
X619936Y675938D01*
X619936Y634938D01*
X596436Y634938D01*
X596436Y675938D01*
G37*
G36*
X621836Y675938D02*
X645336Y675938D01*
X645336Y634938D01*
X621836Y634938D01*
X621836Y675938D01*
G37*
G36*
X647236Y675939D02*
X670736Y675939D01*
X670736Y634939D01*
X647236Y634939D01*
X647236Y675939D01*
G37*
G36*
X672636Y675939D02*
X696136Y675939D01*
X696136Y634939D01*
X672636Y634939D01*
X672636Y675939D01*
G37*
G36*
X698036Y675939D02*
X721536Y675939D01*
X721536Y634939D01*
X698036Y634939D01*
X698036Y675939D01*
G37*
G36*
X723436Y675939D02*
X746936Y675939D01*
X746936Y634939D01*
X723436Y634939D01*
X723436Y675939D01*
G37*
G36*
X748836Y675939D02*
X772336Y675939D01*
X772336Y634939D01*
X748836Y634939D01*
X748836Y675939D01*
G37*
G36*
X774236Y675939D02*
X797736Y675939D01*
X797736Y634939D01*
X774236Y634939D01*
X774236Y675939D01*
G37*
G36*
X799636Y675939D02*
X823136Y675939D01*
X823136Y634939D01*
X799636Y634939D01*
X799636Y675939D01*
G37*
G36*
X825036Y675939D02*
X848536Y675939D01*
X848536Y634939D01*
X825036Y634939D01*
X825036Y675939D01*
G37*
G36*
X850436Y675939D02*
X873936Y675939D01*
X873936Y634939D01*
X850436Y634939D01*
X850436Y675939D01*
G37*
X2168268Y735475D02*
G54D12*
D03*
X2168268Y608475D02*
G54D12*
D03*
X2568318Y735475D02*
G54D12*
D03*
X2568318Y608475D02*
G54D12*
D03*
X133113Y611619D02*
G54D12*
D03*
X133113Y738619D02*
G54D12*
D03*
G36*
X1119525Y579326D02*
X1175525Y579326D01*
X1175525Y523326D01*
X1119525Y523326D01*
X1119525Y579326D01*
G37*
G36*
X1119525Y84026D02*
X1175525Y84026D01*
X1175525Y28026D01*
X1119525Y28026D01*
X1119525Y84026D01*
G37*
G36*
X1119525Y-908162D02*
X1175525Y-908162D01*
X1175525Y-964162D01*
X1119525Y-964162D01*
X1119525Y-908162D01*
G37*
G36*
X1119525Y-412862D02*
X1175525Y-412862D01*
X1175525Y-468862D01*
X1119525Y-468862D01*
X1119525Y-412862D01*
G37*
G36*
X2634000Y579326D02*
X2690000Y579326D01*
X2690000Y523326D01*
X2634000Y523326D01*
X2634000Y579326D01*
G37*
G36*
X2634000Y84026D02*
X2690000Y84026D01*
X2690000Y28026D01*
X2634000Y28026D01*
X2634000Y84026D01*
G37*
G36*
X2634000Y-908162D02*
X2690000Y-908162D01*
X2690000Y-964162D01*
X2634000Y-964162D01*
X2634000Y-908162D01*
G37*
G36*
X2634000Y-412862D02*
X2690000Y-412862D01*
X2690000Y-468862D01*
X2634000Y-468862D01*
X2634000Y-412862D01*
G37*
X1462792Y831624D02*
G54D19*
D03*
G36*
X1434792Y819624D02*
X1410792Y819624D01*
X1410792Y843624D01*
X1434792Y843624D01*
X1434792Y819624D01*
G37*
X912332Y646917D02*
G54D20*
D03*
X279692Y852308D02*
G54D17*
D03*
X279692Y738008D02*
G54D17*
D03*
X328132Y789792D02*
G54D20*
D03*
M02*
