%FSLAX34Y34*%
%MOMM*%
%LNCOPPER_BOTTOM*%
G71*
G01*
%ADD10C, 1.000*%
%ADD11C, 0.500*%
%ADD12C, 2.000*%
%ADD13C, 0.100*%
%ADD14C, 2.000*%
%ADD15C, 0.450*%
%ADD16C, 0.400*%
%ADD17C, 0.150*%
%ADD18C, 0.850*%
%ADD19C, 4.950*%
%ADD20C, 1.600*%
%ADD21C, 1.400*%
%ADD22C, 1.100*%
%ADD23C, 1.500*%
%ADD24C, 0.700*%
%ADD25C, 1.650*%
%ADD26C, 5.000*%
%ADD27C, 1.800*%
%ADD28C, 1.250*%
%ADD29C, 1.300*%
%ADD30C, 1.700*%
%ADD31C, 1.800*%
%ADD32C, 0.600*%
%ADD33C, 1.700*%
%ADD34C, 0.650*%
%ADD35C, 1.300*%
%ADD36R, 8.000X8.000*%
%ADD37C, 0.550*%
%LPD*%
G54D10*
X657576Y903750D02*
X659163Y-1079038D01*
G54D10*
X717135Y887875D02*
X717135Y808500D01*
X683798Y775162D01*
X685385Y-1080625D01*
G54D11*
X406162Y-1080625D02*
X406162Y-1213975D01*
X1317389Y-1179251D02*
G54D12*
D03*
X1317389Y-1204652D02*
G54D12*
D03*
X1372307Y-1203781D02*
G54D12*
D03*
X1372307Y-1178381D02*
G54D12*
D03*
X1259091Y-1178920D02*
G54D12*
D03*
X1259091Y-1204321D02*
G54D12*
D03*
G36*
X261218Y-1197478D02*
X291218Y-1197478D01*
X291218Y-1227478D01*
X261218Y-1227478D01*
X261218Y-1197478D01*
G37*
G36*
X598694Y979240D02*
X601869Y-1255960D01*
X643144Y-1255960D01*
X639969Y979240D01*
X598694Y979240D01*
G37*
G54D13*
X598694Y979240D02*
X601869Y-1255960D01*
X643144Y-1255960D01*
X639969Y979240D01*
X598694Y979240D01*
G36*
X2640175Y-1209613D02*
X2690175Y-1209613D01*
X2690175Y-1259613D01*
X2640175Y-1259613D01*
X2640175Y-1209613D01*
G37*
G36*
X17625Y-1206438D02*
X67625Y-1206438D01*
X67625Y-1256438D01*
X17625Y-1256438D01*
X17625Y-1206438D01*
G37*
G36*
X1122525Y-1209612D02*
X1172525Y-1209612D01*
X1172525Y-1259612D01*
X1122525Y-1259612D01*
X1122525Y-1209612D01*
G37*
G36*
X2637830Y985081D02*
X2687830Y985081D01*
X2687830Y935081D01*
X2637830Y935081D01*
X2637830Y985081D01*
G37*
G36*
X16868Y928732D02*
X16868Y978732D01*
X66868Y978732D01*
X66868Y928732D01*
X16868Y928732D01*
G37*
G36*
X550018Y930366D02*
X590518Y930366D01*
X590518Y849366D01*
X550018Y849366D01*
X550018Y930366D01*
G37*
G36*
X600480Y930241D02*
X640980Y930241D01*
X640980Y849241D01*
X600480Y849241D01*
X600480Y930241D01*
G37*
G36*
X649493Y930240D02*
X689993Y930240D01*
X689993Y849240D01*
X649493Y849240D01*
X649493Y930240D01*
G37*
G36*
X697743Y930240D02*
X738243Y930240D01*
X738243Y849240D01*
X697743Y849240D01*
X697743Y930240D01*
G37*
G36*
X549537Y861995D02*
X549537Y-1095392D01*
X590812Y-1095392D01*
X590812Y861995D01*
X549537Y861995D01*
G37*
G54D13*
X549537Y861995D02*
X549537Y-1095392D01*
X590812Y-1095392D01*
X590812Y861995D01*
X549537Y861995D01*
X1211903Y-1147582D02*
G54D14*
D03*
X1075378Y-1147582D02*
G54D14*
D03*
X1211903Y-1115832D02*
G54D14*
D03*
X1075378Y-1115832D02*
G54D14*
D03*
X1211903Y-1179332D02*
G54D14*
D03*
X1075378Y-1179332D02*
G54D14*
D03*
G54D15*
X238125Y735012D02*
X277812Y654050D01*
X277812Y-1212850D01*
G54D15*
X304562Y-1080625D02*
X302975Y656100D01*
G54D15*
X328375Y-1080625D02*
X329962Y657688D01*
G54D15*
X354012Y-1077912D02*
X354012Y657225D01*
X381000Y738188D01*
G54D16*
X1074738Y-1116012D02*
X1049338Y-1116012D01*
X1028700Y-1136650D01*
X684212Y-1136650D01*
X684212Y-1079500D01*
G54D16*
X1076088Y-1147300D02*
X658575Y-1147300D01*
X658575Y-1079038D01*
G36*
X750Y999250D02*
X750Y-1274050D01*
X175375Y-1274050D01*
X175375Y999250D01*
X750Y999250D01*
G37*
G54D17*
X750Y999250D02*
X750Y-1274050D01*
X175375Y-1274050D01*
X175375Y999250D01*
X750Y999250D01*
G36*
X51176Y942100D02*
X2699126Y938925D01*
X2699126Y999250D01*
X51176Y999250D01*
X51176Y942100D01*
G37*
G54D17*
X51176Y942100D02*
X2699126Y938925D01*
X2699126Y999250D01*
X51176Y999250D01*
X51176Y942100D01*
G36*
X1628180Y988257D02*
X1678180Y988257D01*
X1678180Y938257D01*
X1628180Y938257D01*
X1628180Y988257D01*
G37*
G36*
X1438430Y-1062198D02*
X1455930Y-1062198D01*
X1455930Y-1097198D01*
X1438430Y-1097198D01*
X1438430Y-1062198D01*
G37*
G36*
X1463830Y-1062198D02*
X1481330Y-1062198D01*
X1481330Y-1097198D01*
X1463830Y-1097198D01*
X1463830Y-1062198D01*
G37*
G36*
X1489230Y-1062198D02*
X1506730Y-1062198D01*
X1506730Y-1097198D01*
X1489230Y-1097198D01*
X1489230Y-1062198D01*
G37*
G36*
X1514630Y-1062198D02*
X1532130Y-1062198D01*
X1532130Y-1097198D01*
X1514630Y-1097198D01*
X1514630Y-1062198D01*
G37*
G36*
X1540030Y-1062198D02*
X1557530Y-1062198D01*
X1557530Y-1097198D01*
X1540030Y-1097198D01*
X1540030Y-1062198D01*
G37*
G36*
X1565430Y-1062198D02*
X1582930Y-1062198D01*
X1582930Y-1097198D01*
X1565430Y-1097198D01*
X1565430Y-1062198D01*
G37*
G36*
X1590830Y-1062198D02*
X1608330Y-1062198D01*
X1608330Y-1097198D01*
X1590830Y-1097198D01*
X1590830Y-1062198D01*
G37*
G36*
X1616230Y-1062198D02*
X1633730Y-1062198D01*
X1633730Y-1097198D01*
X1616230Y-1097198D01*
X1616230Y-1062198D01*
G37*
G36*
X1641630Y-1062198D02*
X1659130Y-1062198D01*
X1659130Y-1097198D01*
X1641630Y-1097198D01*
X1641630Y-1062198D01*
G37*
G36*
X1667030Y-1062198D02*
X1684530Y-1062198D01*
X1684530Y-1097198D01*
X1667030Y-1097198D01*
X1667030Y-1062198D01*
G37*
G36*
X1692430Y-1062198D02*
X1709930Y-1062198D01*
X1709930Y-1097198D01*
X1692430Y-1097198D01*
X1692430Y-1062198D01*
G37*
G36*
X1717830Y-1062198D02*
X1735330Y-1062198D01*
X1735330Y-1097198D01*
X1717830Y-1097198D01*
X1717830Y-1062198D01*
G37*
G36*
X1743230Y-1062198D02*
X1760730Y-1062198D01*
X1760730Y-1097198D01*
X1743230Y-1097198D01*
X1743230Y-1062198D01*
G37*
G36*
X1768630Y-1062198D02*
X1786130Y-1062198D01*
X1786130Y-1097198D01*
X1768630Y-1097198D01*
X1768630Y-1062198D01*
G37*
G36*
X1794030Y-1062198D02*
X1811530Y-1062198D01*
X1811530Y-1097198D01*
X1794030Y-1097198D01*
X1794030Y-1062198D01*
G37*
G36*
X1819430Y-1062198D02*
X1836930Y-1062198D01*
X1836930Y-1097198D01*
X1819430Y-1097198D01*
X1819430Y-1062198D01*
G37*
G36*
X1844830Y-1062198D02*
X1862330Y-1062198D01*
X1862330Y-1097198D01*
X1844830Y-1097198D01*
X1844830Y-1062198D01*
G37*
G36*
X1870230Y-1062198D02*
X1887730Y-1062198D01*
X1887730Y-1097198D01*
X1870230Y-1097198D01*
X1870230Y-1062198D01*
G37*
G36*
X1895630Y-1062198D02*
X1913130Y-1062198D01*
X1913130Y-1097198D01*
X1895630Y-1097198D01*
X1895630Y-1062198D01*
G37*
G36*
X1921030Y-1062198D02*
X1938530Y-1062198D01*
X1938530Y-1097198D01*
X1921030Y-1097198D01*
X1921030Y-1062198D01*
G37*
G36*
X1946430Y-1062198D02*
X1963930Y-1062198D01*
X1963930Y-1097198D01*
X1946430Y-1097198D01*
X1946430Y-1062198D01*
G37*
G36*
X1971830Y-1062198D02*
X1989330Y-1062198D01*
X1989330Y-1097198D01*
X1971830Y-1097198D01*
X1971830Y-1062198D01*
G37*
G36*
X1997230Y-1062198D02*
X2014730Y-1062198D01*
X2014730Y-1097198D01*
X1997230Y-1097198D01*
X1997230Y-1062198D01*
G37*
G36*
X2022630Y-1062198D02*
X2040130Y-1062198D01*
X2040130Y-1097198D01*
X2022630Y-1097198D01*
X2022630Y-1062198D01*
G37*
G36*
X269236Y-1062198D02*
X286736Y-1062198D01*
X286736Y-1097198D01*
X269236Y-1097198D01*
X269236Y-1062198D01*
G37*
G36*
X294636Y-1062198D02*
X312136Y-1062198D01*
X312136Y-1097198D01*
X294636Y-1097198D01*
X294636Y-1062198D01*
G37*
G36*
X320036Y-1062198D02*
X337536Y-1062198D01*
X337536Y-1097198D01*
X320036Y-1097198D01*
X320036Y-1062198D01*
G37*
G36*
X345436Y-1062198D02*
X362936Y-1062198D01*
X362936Y-1097198D01*
X345436Y-1097198D01*
X345436Y-1062198D01*
G37*
G36*
X370836Y-1062198D02*
X388336Y-1062198D01*
X388336Y-1097198D01*
X370836Y-1097198D01*
X370836Y-1062198D01*
G37*
G36*
X396236Y-1062198D02*
X413736Y-1062198D01*
X413736Y-1097198D01*
X396236Y-1097198D01*
X396236Y-1062198D01*
G37*
G36*
X421636Y-1062198D02*
X439136Y-1062198D01*
X439136Y-1097198D01*
X421636Y-1097198D01*
X421636Y-1062198D01*
G37*
G36*
X447036Y-1062198D02*
X464536Y-1062198D01*
X464536Y-1097198D01*
X447036Y-1097198D01*
X447036Y-1062198D01*
G37*
G36*
X472436Y-1062198D02*
X489936Y-1062198D01*
X489936Y-1097198D01*
X472436Y-1097198D01*
X472436Y-1062198D01*
G37*
G36*
X497836Y-1062198D02*
X515336Y-1062198D01*
X515336Y-1097198D01*
X497836Y-1097198D01*
X497836Y-1062198D01*
G37*
G36*
X523236Y-1062198D02*
X540736Y-1062198D01*
X540736Y-1097198D01*
X523236Y-1097198D01*
X523236Y-1062198D01*
G37*
G36*
X548636Y-1062198D02*
X566136Y-1062198D01*
X566136Y-1097198D01*
X548636Y-1097198D01*
X548636Y-1062198D01*
G37*
G36*
X574036Y-1062198D02*
X591536Y-1062198D01*
X591536Y-1097198D01*
X574036Y-1097198D01*
X574036Y-1062198D01*
G37*
G36*
X599436Y-1062199D02*
X616936Y-1062199D01*
X616936Y-1097199D01*
X599436Y-1097199D01*
X599436Y-1062199D01*
G37*
G36*
X624836Y-1062199D02*
X642336Y-1062199D01*
X642336Y-1097199D01*
X624836Y-1097199D01*
X624836Y-1062199D01*
G37*
G36*
X650236Y-1062198D02*
X667736Y-1062198D01*
X667736Y-1097198D01*
X650236Y-1097198D01*
X650236Y-1062198D01*
G37*
G36*
X675636Y-1062198D02*
X693136Y-1062198D01*
X693136Y-1097198D01*
X675636Y-1097198D01*
X675636Y-1062198D01*
G37*
G36*
X701036Y-1062198D02*
X718536Y-1062198D01*
X718536Y-1097198D01*
X701036Y-1097198D01*
X701036Y-1062198D01*
G37*
G36*
X726436Y-1062198D02*
X743936Y-1062198D01*
X743936Y-1097198D01*
X726436Y-1097198D01*
X726436Y-1062198D01*
G37*
G36*
X751836Y-1062198D02*
X769336Y-1062198D01*
X769336Y-1097198D01*
X751836Y-1097198D01*
X751836Y-1062198D01*
G37*
G36*
X777236Y-1062198D02*
X794736Y-1062198D01*
X794736Y-1097198D01*
X777236Y-1097198D01*
X777236Y-1062198D01*
G37*
G36*
X802636Y-1062198D02*
X820136Y-1062198D01*
X820136Y-1097198D01*
X802636Y-1097198D01*
X802636Y-1062198D01*
G37*
G36*
X828036Y-1062198D02*
X845536Y-1062198D01*
X845536Y-1097198D01*
X828036Y-1097198D01*
X828036Y-1062198D01*
G37*
G36*
X853436Y-1062198D02*
X870936Y-1062198D01*
X870936Y-1097198D01*
X853436Y-1097198D01*
X853436Y-1062198D01*
G37*
G54D18*
X1258650Y-1204450D02*
X1258650Y-1267950D01*
G54D18*
X1317388Y-1204450D02*
X1317388Y-1267950D01*
G54D18*
X1372950Y-1202862D02*
X1372950Y-1266362D01*
G54D16*
X733425Y-1216025D02*
X733425Y-1158875D01*
X1025525Y-1158875D01*
X1046162Y-1179512D01*
X1074738Y-1179512D01*
X2168268Y-999662D02*
G54D19*
D03*
X2168268Y-1126662D02*
G54D19*
D03*
X2568318Y-999662D02*
G54D19*
D03*
X2568318Y-1126662D02*
G54D19*
D03*
X133113Y-1123518D02*
G54D19*
D03*
X133113Y-996518D02*
G54D19*
D03*
X571262Y565612D02*
G54D14*
D03*
X622063Y565612D02*
G54D14*
D03*
G36*
X580692Y534980D02*
X580692Y514980D01*
X560692Y514980D01*
X560692Y534980D01*
X580692Y534980D01*
G37*
X621492Y490054D02*
G54D14*
D03*
G36*
X1414162Y735538D02*
X1430162Y735538D01*
X1430162Y719538D01*
X1414162Y719538D01*
X1414162Y735538D01*
G37*
X1447562Y727538D02*
G54D20*
D03*
X1472962Y727538D02*
G54D20*
D03*
X1498362Y727538D02*
G54D20*
D03*
X1523762Y727538D02*
G54D20*
D03*
X1549162Y727538D02*
G54D20*
D03*
X1574562Y727538D02*
G54D20*
D03*
X1599962Y727538D02*
G54D20*
D03*
X1625362Y727538D02*
G54D20*
D03*
G54D21*
X1421180Y727530D02*
X1359267Y727530D01*
G54D22*
X2057162Y798975D02*
X1853962Y798975D01*
G54D22*
X2057162Y729125D02*
X2057162Y800562D01*
X571262Y317962D02*
G54D14*
D03*
X622063Y317962D02*
G54D14*
D03*
G36*
X580692Y287330D02*
X580692Y267330D01*
X560692Y267330D01*
X560692Y287330D01*
X580692Y287330D01*
G37*
X621492Y242404D02*
G54D14*
D03*
X571262Y63962D02*
G54D14*
D03*
X622063Y63962D02*
G54D14*
D03*
G36*
X580692Y33330D02*
X580692Y13330D01*
X560692Y13330D01*
X560692Y33330D01*
X580692Y33330D01*
G37*
X621492Y-11596D02*
G54D14*
D03*
X571262Y-180512D02*
G54D14*
D03*
X622063Y-180513D02*
G54D14*
D03*
G36*
X580692Y-211146D02*
X580692Y-231146D01*
X560692Y-231146D01*
X560692Y-211146D01*
X580692Y-211146D01*
G37*
X621492Y-256071D02*
G54D14*
D03*
X571262Y-421812D02*
G54D14*
D03*
X622063Y-421813D02*
G54D14*
D03*
G36*
X580692Y-452446D02*
X580692Y-472446D01*
X560692Y-472446D01*
X560692Y-452446D01*
X580692Y-452446D01*
G37*
X621492Y-497371D02*
G54D14*
D03*
X571262Y-669462D02*
G54D14*
D03*
X622063Y-669463D02*
G54D14*
D03*
G36*
X580692Y-700096D02*
X580692Y-720096D01*
X560692Y-720096D01*
X560692Y-700096D01*
X580692Y-700096D01*
G37*
X621492Y-745021D02*
G54D14*
D03*
X571262Y-910762D02*
G54D14*
D03*
X622063Y-910763D02*
G54D14*
D03*
G36*
X580692Y-941396D02*
X580692Y-961396D01*
X560692Y-961396D01*
X560692Y-941396D01*
X580692Y-941396D01*
G37*
X621492Y-986321D02*
G54D14*
D03*
G54D22*
X1422162Y798975D02*
X1853962Y798975D01*
X1853962Y765638D01*
G36*
X920574Y729064D02*
X904574Y729064D01*
X904574Y745064D01*
X920574Y745064D01*
X920574Y729064D01*
G37*
X887174Y737064D02*
G54D20*
D03*
X861774Y737064D02*
G54D20*
D03*
X836374Y737064D02*
G54D20*
D03*
X810974Y737064D02*
G54D20*
D03*
X785574Y737064D02*
G54D20*
D03*
X760174Y737064D02*
G54D20*
D03*
X734774Y737064D02*
G54D20*
D03*
X709374Y737064D02*
G54D20*
D03*
G36*
X320873Y744564D02*
X335873Y744564D01*
X335873Y729564D01*
X320873Y729564D01*
X320873Y744564D01*
G37*
X353773Y737064D02*
G54D23*
D03*
X379173Y737064D02*
G54D23*
D03*
X404573Y737064D02*
G54D23*
D03*
X429973Y737064D02*
G54D23*
D03*
X455373Y737064D02*
G54D23*
D03*
X480773Y737064D02*
G54D23*
D03*
X506173Y737064D02*
G54D23*
D03*
X531573Y737064D02*
G54D23*
D03*
G54D10*
X299800Y973600D02*
X279162Y932325D01*
G54D15*
X353775Y737062D02*
X328375Y656100D01*
G54D15*
X379412Y655638D02*
X404812Y738188D01*
G54D24*
X328612Y736600D02*
X328612Y852488D01*
X280988Y852488D01*
G54D25*
X1279038Y805414D02*
X1295538Y805414D01*
G54D25*
X1279038Y830814D02*
X1295538Y830814D01*
G54D25*
X1279038Y856214D02*
X1295538Y856214D01*
X1103138Y830814D02*
G54D26*
D03*
X1421440Y757434D02*
G54D27*
D03*
X1286503Y757434D02*
G54D27*
D03*
G54D28*
X1287225Y805325D02*
X1287225Y757700D01*
G54D28*
X1417400Y830725D02*
X1287225Y830725D01*
G54D29*
X976075Y913275D02*
X1425338Y913275D01*
X1309111Y727234D02*
G54D30*
D03*
X1359911Y727234D02*
G54D30*
D03*
G54D29*
X1463071Y831132D02*
X1463071Y974007D01*
G54D29*
X1422162Y830725D02*
X1422162Y727538D01*
X1464030Y912838D02*
G54D31*
D03*
G36*
X1433030Y903838D02*
X1415030Y903838D01*
X1415030Y921838D01*
X1433030Y921838D01*
X1433030Y903838D01*
G37*
G54D29*
X1287225Y856125D02*
X1287225Y906925D01*
X1360642Y964795D02*
G54D30*
D03*
X1360641Y913995D02*
G54D30*
D03*
G36*
X321570Y-1197478D02*
X351570Y-1197478D01*
X351570Y-1227478D01*
X321570Y-1227478D01*
X321570Y-1197478D01*
G37*
G54D11*
X337900Y-1213975D02*
X407750Y-1213975D01*
G54D32*
X555388Y-1213975D02*
X556975Y-1213975D01*
X556975Y-1080625D01*
G54D18*
X1426925Y-1202862D02*
X1426925Y-1275888D01*
G54D15*
X1427162Y-1177925D02*
X1427162Y-1135062D01*
X1362075Y-1069975D01*
X1358900Y520700D01*
X279768Y932317D02*
G54D30*
D03*
X279767Y881517D02*
G54D30*
D03*
G54D10*
X279400Y882650D02*
X279400Y850900D01*
X236538Y850900D01*
X1854354Y850495D02*
G54D30*
D03*
X1854354Y799695D02*
G54D30*
D03*
G54D21*
X1853962Y849775D02*
X1853962Y983125D01*
X1426696Y-1178319D02*
G54D12*
D03*
X1426695Y-1203719D02*
G54D12*
D03*
G54D29*
X1288812Y779925D02*
X1360250Y779925D01*
X976690Y912744D02*
G54D33*
D03*
G54D34*
X950675Y840250D02*
X912575Y840250D01*
X1360250Y884700D02*
G54D27*
D03*
X1360250Y779925D02*
G54D27*
D03*
G54D29*
X1360250Y884700D02*
X1461850Y884700D01*
X912725Y840175D02*
G54D30*
D03*
X912724Y789375D02*
G54D30*
D03*
X950675Y727538D02*
G54D35*
D03*
X1068150Y727538D02*
G54D35*
D03*
X1220550Y727538D02*
G54D35*
D03*
X950675Y818025D02*
G54D35*
D03*
X131525Y859300D02*
G54D35*
D03*
X350600Y957725D02*
G54D35*
D03*
X950675Y973600D02*
G54D35*
D03*
X1563450Y973600D02*
G54D35*
D03*
X353775Y-1258425D02*
G54D35*
D03*
X893525Y-1258425D02*
G54D35*
D03*
X1442800Y-1258425D02*
G54D35*
D03*
X2027000Y-1261600D02*
G54D35*
D03*
G54D29*
X1309450Y727538D02*
X950675Y727538D01*
X950675Y979950D01*
X1462950Y885275D02*
G54D35*
D03*
X1853962Y900575D02*
G54D35*
D03*
X1359276Y646924D02*
G54D14*
D03*
X1359276Y519924D02*
G54D14*
D03*
X2057554Y850495D02*
G54D30*
D03*
X2057554Y799695D02*
G54D30*
D03*
G54D21*
X2057162Y849775D02*
X2057162Y979950D01*
X2057162Y898988D02*
G54D35*
D03*
X1955893Y972013D02*
G54D35*
D03*
G36*
X1122569Y728415D02*
X1122569Y-1271835D01*
X1173369Y-1271835D01*
X1173369Y728415D01*
X1122569Y728415D01*
G37*
G54D13*
X1122569Y728415D02*
X1122569Y-1271835D01*
X1173369Y-1271835D01*
X1173369Y728415D01*
X1122569Y728415D01*
G54D28*
X912575Y789450D02*
X912575Y646575D01*
X1103075Y830725D02*
G54D36*
D03*
G36*
X0Y-1246000D02*
X2701926Y-1246000D01*
X2701926Y-1280925D01*
X0Y-1277750D01*
X0Y-1246000D01*
G37*
G54D15*
X0Y-1246000D02*
X2701926Y-1246000D01*
X2701926Y-1280925D01*
X0Y-1277750D01*
X0Y-1246000D01*
G36*
X973765Y-1195285D02*
X973765Y-1231285D01*
X955765Y-1231285D01*
X955765Y-1195285D01*
X973765Y-1195285D01*
G37*
G36*
X999165Y-1195285D02*
X999165Y-1231285D01*
X981165Y-1231285D01*
X981165Y-1195285D01*
X999165Y-1195285D01*
G37*
X869003Y-1214257D02*
G54D14*
D03*
X732478Y-1214257D02*
G54D14*
D03*
G54D16*
X1212850Y-1116012D02*
X1371600Y-1116012D01*
X1371600Y-1179512D01*
G54D16*
X1209675Y-1149350D02*
X1317625Y-1149350D01*
X1317625Y-1181100D01*
G54D16*
X1211262Y-1179512D02*
X1260475Y-1179512D01*
G54D16*
X868362Y-1214438D02*
X966788Y-1214438D01*
G54D37*
X990600Y-1212850D02*
X990600Y-1276350D01*
X556266Y-1214257D02*
G54D14*
D03*
X405453Y-1214257D02*
G54D14*
D03*
X237888Y851362D02*
G54D27*
D03*
X237888Y737062D02*
G54D27*
D03*
G36*
X14450Y576326D02*
X64450Y576326D01*
X64450Y526326D01*
X14450Y526326D01*
X14450Y576326D01*
G37*
G36*
X14450Y81026D02*
X64450Y81026D01*
X64450Y31026D01*
X14450Y31026D01*
X14450Y81026D01*
G37*
G36*
X14450Y-911162D02*
X64450Y-911162D01*
X64450Y-961162D01*
X14450Y-961162D01*
X14450Y-911162D01*
G37*
G36*
X2065766Y721114D02*
X2049766Y721114D01*
X2049766Y737114D01*
X2065766Y737114D01*
X2065766Y721114D01*
G37*
X2032366Y729114D02*
G54D20*
D03*
X2006967Y729114D02*
G54D20*
D03*
X1981567Y729114D02*
G54D20*
D03*
X1956167Y729114D02*
G54D20*
D03*
X1930767Y729114D02*
G54D20*
D03*
X1905367Y729114D02*
G54D20*
D03*
X1879967Y729114D02*
G54D20*
D03*
X1854567Y729114D02*
G54D20*
D03*
G36*
X1861960Y754464D02*
X1845960Y754464D01*
X1845960Y770464D01*
X1861960Y770464D01*
X1861960Y754464D01*
G37*
X1828560Y762464D02*
G54D20*
D03*
X1803160Y762464D02*
G54D20*
D03*
X1777760Y762464D02*
G54D20*
D03*
X1752360Y762464D02*
G54D20*
D03*
X1726960Y762464D02*
G54D20*
D03*
X1701560Y762464D02*
G54D20*
D03*
X1676160Y762464D02*
G54D20*
D03*
X1650760Y762464D02*
G54D20*
D03*
G54D15*
X381000Y409575D02*
X404812Y655638D01*
G54D15*
X379412Y158750D02*
X404812Y409575D01*
G54D15*
X381000Y-88900D02*
X404812Y160338D01*
G54D15*
X379412Y-338138D02*
X404812Y-88900D01*
G54D15*
X379412Y-584200D02*
X404812Y-336550D01*
G54D15*
X379412Y-830262D02*
X404812Y-584200D01*
G54D15*
X379412Y-1079500D02*
X404812Y-830262D01*
G36*
X14450Y-415862D02*
X64450Y-415862D01*
X64450Y-465862D01*
X14450Y-465862D01*
X14450Y-415862D01*
G37*
X1147525Y-705975D02*
G54D35*
D03*
X1147525Y-210675D02*
G54D35*
D03*
X1147525Y262400D02*
G54D35*
D03*
G36*
X1438430Y-812961D02*
X1455930Y-812961D01*
X1455930Y-847961D01*
X1438430Y-847961D01*
X1438430Y-812961D01*
G37*
G36*
X1463830Y-812961D02*
X1481330Y-812961D01*
X1481330Y-847961D01*
X1463830Y-847961D01*
X1463830Y-812961D01*
G37*
G36*
X1489230Y-812961D02*
X1506730Y-812961D01*
X1506730Y-847961D01*
X1489230Y-847961D01*
X1489230Y-812961D01*
G37*
G36*
X1514630Y-812961D02*
X1532130Y-812961D01*
X1532130Y-847961D01*
X1514630Y-847961D01*
X1514630Y-812961D01*
G37*
G36*
X1540030Y-812961D02*
X1557530Y-812961D01*
X1557530Y-847961D01*
X1540030Y-847961D01*
X1540030Y-812961D01*
G37*
G36*
X1565430Y-812961D02*
X1582930Y-812961D01*
X1582930Y-847961D01*
X1565430Y-847961D01*
X1565430Y-812961D01*
G37*
G36*
X1590830Y-812961D02*
X1608330Y-812961D01*
X1608330Y-847961D01*
X1590830Y-847961D01*
X1590830Y-812961D01*
G37*
G36*
X1616230Y-812961D02*
X1633730Y-812961D01*
X1633730Y-847961D01*
X1616230Y-847961D01*
X1616230Y-812961D01*
G37*
G36*
X1641630Y-812961D02*
X1659130Y-812961D01*
X1659130Y-847961D01*
X1641630Y-847961D01*
X1641630Y-812961D01*
G37*
G36*
X1667030Y-812961D02*
X1684530Y-812961D01*
X1684530Y-847961D01*
X1667030Y-847961D01*
X1667030Y-812961D01*
G37*
G36*
X1692430Y-812961D02*
X1709930Y-812961D01*
X1709930Y-847961D01*
X1692430Y-847961D01*
X1692430Y-812961D01*
G37*
G36*
X1717830Y-812961D02*
X1735330Y-812961D01*
X1735330Y-847961D01*
X1717830Y-847961D01*
X1717830Y-812961D01*
G37*
G36*
X1743230Y-812961D02*
X1760730Y-812961D01*
X1760730Y-847961D01*
X1743230Y-847961D01*
X1743230Y-812961D01*
G37*
G36*
X1768630Y-812961D02*
X1786130Y-812961D01*
X1786130Y-847961D01*
X1768630Y-847961D01*
X1768630Y-812961D01*
G37*
G36*
X1794030Y-812961D02*
X1811530Y-812961D01*
X1811530Y-847961D01*
X1794030Y-847961D01*
X1794030Y-812961D01*
G37*
G36*
X1819430Y-812961D02*
X1836930Y-812961D01*
X1836930Y-847961D01*
X1819430Y-847961D01*
X1819430Y-812961D01*
G37*
G36*
X1844830Y-812961D02*
X1862330Y-812961D01*
X1862330Y-847961D01*
X1844830Y-847961D01*
X1844830Y-812961D01*
G37*
G36*
X1870230Y-812961D02*
X1887730Y-812961D01*
X1887730Y-847961D01*
X1870230Y-847961D01*
X1870230Y-812961D01*
G37*
G36*
X1895630Y-812961D02*
X1913130Y-812961D01*
X1913130Y-847961D01*
X1895630Y-847961D01*
X1895630Y-812961D01*
G37*
G36*
X1921030Y-812961D02*
X1938530Y-812961D01*
X1938530Y-847961D01*
X1921030Y-847961D01*
X1921030Y-812961D01*
G37*
G36*
X1946430Y-812961D02*
X1963930Y-812961D01*
X1963930Y-847961D01*
X1946430Y-847961D01*
X1946430Y-812961D01*
G37*
G36*
X1971830Y-812961D02*
X1989330Y-812961D01*
X1989330Y-847961D01*
X1971830Y-847961D01*
X1971830Y-812961D01*
G37*
G36*
X1997230Y-812961D02*
X2014730Y-812961D01*
X2014730Y-847961D01*
X1997230Y-847961D01*
X1997230Y-812961D01*
G37*
G36*
X2022630Y-812961D02*
X2040130Y-812961D01*
X2040130Y-847961D01*
X2022630Y-847961D01*
X2022630Y-812961D01*
G37*
G36*
X269236Y-812961D02*
X286736Y-812961D01*
X286736Y-847961D01*
X269236Y-847961D01*
X269236Y-812961D01*
G37*
G36*
X294636Y-812961D02*
X312136Y-812961D01*
X312136Y-847961D01*
X294636Y-847961D01*
X294636Y-812961D01*
G37*
G36*
X320036Y-812961D02*
X337536Y-812961D01*
X337536Y-847961D01*
X320036Y-847961D01*
X320036Y-812961D01*
G37*
G36*
X345436Y-812961D02*
X362936Y-812961D01*
X362936Y-847961D01*
X345436Y-847961D01*
X345436Y-812961D01*
G37*
G36*
X370836Y-812961D02*
X388336Y-812961D01*
X388336Y-847961D01*
X370836Y-847961D01*
X370836Y-812961D01*
G37*
G36*
X396236Y-812961D02*
X413736Y-812961D01*
X413736Y-847961D01*
X396236Y-847961D01*
X396236Y-812961D01*
G37*
G36*
X421636Y-812961D02*
X439136Y-812961D01*
X439136Y-847961D01*
X421636Y-847961D01*
X421636Y-812961D01*
G37*
G36*
X447036Y-812961D02*
X464536Y-812961D01*
X464536Y-847961D01*
X447036Y-847961D01*
X447036Y-812961D01*
G37*
G36*
X472436Y-812961D02*
X489936Y-812961D01*
X489936Y-847961D01*
X472436Y-847961D01*
X472436Y-812961D01*
G37*
G36*
X497836Y-812961D02*
X515336Y-812961D01*
X515336Y-847961D01*
X497836Y-847961D01*
X497836Y-812961D01*
G37*
G36*
X523236Y-812961D02*
X540736Y-812961D01*
X540736Y-847961D01*
X523236Y-847961D01*
X523236Y-812961D01*
G37*
G36*
X548636Y-812961D02*
X566136Y-812961D01*
X566136Y-847961D01*
X548636Y-847961D01*
X548636Y-812961D01*
G37*
G36*
X574036Y-812961D02*
X591536Y-812961D01*
X591536Y-847961D01*
X574036Y-847961D01*
X574036Y-812961D01*
G37*
G36*
X599436Y-812962D02*
X616936Y-812962D01*
X616936Y-847962D01*
X599436Y-847962D01*
X599436Y-812962D01*
G37*
G36*
X624836Y-812962D02*
X642336Y-812962D01*
X642336Y-847962D01*
X624836Y-847962D01*
X624836Y-812962D01*
G37*
G36*
X650236Y-812961D02*
X667736Y-812961D01*
X667736Y-847961D01*
X650236Y-847961D01*
X650236Y-812961D01*
G37*
G36*
X675636Y-812961D02*
X693136Y-812961D01*
X693136Y-847961D01*
X675636Y-847961D01*
X675636Y-812961D01*
G37*
G36*
X701036Y-812961D02*
X718536Y-812961D01*
X718536Y-847961D01*
X701036Y-847961D01*
X701036Y-812961D01*
G37*
G36*
X726436Y-812961D02*
X743936Y-812961D01*
X743936Y-847961D01*
X726436Y-847961D01*
X726436Y-812961D01*
G37*
G36*
X751836Y-812961D02*
X769336Y-812961D01*
X769336Y-847961D01*
X751836Y-847961D01*
X751836Y-812961D01*
G37*
G36*
X777236Y-812961D02*
X794736Y-812961D01*
X794736Y-847961D01*
X777236Y-847961D01*
X777236Y-812961D01*
G37*
G36*
X802636Y-812961D02*
X820136Y-812961D01*
X820136Y-847961D01*
X802636Y-847961D01*
X802636Y-812961D01*
G37*
G36*
X828036Y-812961D02*
X845536Y-812961D01*
X845536Y-847961D01*
X828036Y-847961D01*
X828036Y-812961D01*
G37*
G36*
X853436Y-812961D02*
X870936Y-812961D01*
X870936Y-847961D01*
X853436Y-847961D01*
X853436Y-812961D01*
G37*
X2168268Y-750425D02*
G54D19*
D03*
X2168268Y-877425D02*
G54D19*
D03*
X2568318Y-750425D02*
G54D19*
D03*
X2568318Y-877425D02*
G54D19*
D03*
X133113Y-874281D02*
G54D19*
D03*
X133113Y-747281D02*
G54D19*
D03*
G36*
X1438430Y-566898D02*
X1455930Y-566898D01*
X1455930Y-601898D01*
X1438430Y-601898D01*
X1438430Y-566898D01*
G37*
G36*
X1463830Y-566898D02*
X1481330Y-566898D01*
X1481330Y-601898D01*
X1463830Y-601898D01*
X1463830Y-566898D01*
G37*
G36*
X1489230Y-566898D02*
X1506730Y-566898D01*
X1506730Y-601898D01*
X1489230Y-601898D01*
X1489230Y-566898D01*
G37*
G36*
X1514630Y-566898D02*
X1532130Y-566898D01*
X1532130Y-601898D01*
X1514630Y-601898D01*
X1514630Y-566898D01*
G37*
G36*
X1540030Y-566898D02*
X1557530Y-566898D01*
X1557530Y-601898D01*
X1540030Y-601898D01*
X1540030Y-566898D01*
G37*
G36*
X1565430Y-566898D02*
X1582930Y-566898D01*
X1582930Y-601898D01*
X1565430Y-601898D01*
X1565430Y-566898D01*
G37*
G36*
X1590830Y-566898D02*
X1608330Y-566898D01*
X1608330Y-601898D01*
X1590830Y-601898D01*
X1590830Y-566898D01*
G37*
G36*
X1616230Y-566898D02*
X1633730Y-566898D01*
X1633730Y-601898D01*
X1616230Y-601898D01*
X1616230Y-566898D01*
G37*
G36*
X1641630Y-566898D02*
X1659130Y-566898D01*
X1659130Y-601898D01*
X1641630Y-601898D01*
X1641630Y-566898D01*
G37*
G36*
X1667030Y-566898D02*
X1684530Y-566898D01*
X1684530Y-601898D01*
X1667030Y-601898D01*
X1667030Y-566898D01*
G37*
G36*
X1692430Y-566898D02*
X1709930Y-566898D01*
X1709930Y-601898D01*
X1692430Y-601898D01*
X1692430Y-566898D01*
G37*
G36*
X1717830Y-566898D02*
X1735330Y-566898D01*
X1735330Y-601898D01*
X1717830Y-601898D01*
X1717830Y-566898D01*
G37*
G36*
X1743230Y-566898D02*
X1760730Y-566898D01*
X1760730Y-601898D01*
X1743230Y-601898D01*
X1743230Y-566898D01*
G37*
G36*
X1768630Y-566898D02*
X1786130Y-566898D01*
X1786130Y-601898D01*
X1768630Y-601898D01*
X1768630Y-566898D01*
G37*
G36*
X1794030Y-566898D02*
X1811530Y-566898D01*
X1811530Y-601898D01*
X1794030Y-601898D01*
X1794030Y-566898D01*
G37*
G36*
X1819430Y-566898D02*
X1836930Y-566898D01*
X1836930Y-601898D01*
X1819430Y-601898D01*
X1819430Y-566898D01*
G37*
G36*
X1844830Y-566898D02*
X1862330Y-566898D01*
X1862330Y-601898D01*
X1844830Y-601898D01*
X1844830Y-566898D01*
G37*
G36*
X1870230Y-566898D02*
X1887730Y-566898D01*
X1887730Y-601898D01*
X1870230Y-601898D01*
X1870230Y-566898D01*
G37*
G36*
X1895630Y-566898D02*
X1913130Y-566898D01*
X1913130Y-601898D01*
X1895630Y-601898D01*
X1895630Y-566898D01*
G37*
G36*
X1921030Y-566898D02*
X1938530Y-566898D01*
X1938530Y-601898D01*
X1921030Y-601898D01*
X1921030Y-566898D01*
G37*
G36*
X1946430Y-566898D02*
X1963930Y-566898D01*
X1963930Y-601898D01*
X1946430Y-601898D01*
X1946430Y-566898D01*
G37*
G36*
X1971830Y-566898D02*
X1989330Y-566898D01*
X1989330Y-601898D01*
X1971830Y-601898D01*
X1971830Y-566898D01*
G37*
G36*
X1997230Y-566898D02*
X2014730Y-566898D01*
X2014730Y-601898D01*
X1997230Y-601898D01*
X1997230Y-566898D01*
G37*
G36*
X2022630Y-566898D02*
X2040130Y-566898D01*
X2040130Y-601898D01*
X2022630Y-601898D01*
X2022630Y-566898D01*
G37*
G36*
X269236Y-566898D02*
X286736Y-566898D01*
X286736Y-601898D01*
X269236Y-601898D01*
X269236Y-566898D01*
G37*
G36*
X294636Y-566898D02*
X312136Y-566898D01*
X312136Y-601898D01*
X294636Y-601898D01*
X294636Y-566898D01*
G37*
G36*
X320036Y-566898D02*
X337536Y-566898D01*
X337536Y-601898D01*
X320036Y-601898D01*
X320036Y-566898D01*
G37*
G36*
X345436Y-566898D02*
X362936Y-566898D01*
X362936Y-601898D01*
X345436Y-601898D01*
X345436Y-566898D01*
G37*
G36*
X370836Y-566898D02*
X388336Y-566898D01*
X388336Y-601898D01*
X370836Y-601898D01*
X370836Y-566898D01*
G37*
G36*
X396236Y-566898D02*
X413736Y-566898D01*
X413736Y-601898D01*
X396236Y-601898D01*
X396236Y-566898D01*
G37*
G36*
X421636Y-566898D02*
X439136Y-566898D01*
X439136Y-601898D01*
X421636Y-601898D01*
X421636Y-566898D01*
G37*
G36*
X447036Y-566898D02*
X464536Y-566898D01*
X464536Y-601898D01*
X447036Y-601898D01*
X447036Y-566898D01*
G37*
G36*
X472436Y-566898D02*
X489936Y-566898D01*
X489936Y-601898D01*
X472436Y-601898D01*
X472436Y-566898D01*
G37*
G36*
X497836Y-566898D02*
X515336Y-566898D01*
X515336Y-601898D01*
X497836Y-601898D01*
X497836Y-566898D01*
G37*
G36*
X523236Y-566898D02*
X540736Y-566898D01*
X540736Y-601898D01*
X523236Y-601898D01*
X523236Y-566898D01*
G37*
G36*
X548636Y-566898D02*
X566136Y-566898D01*
X566136Y-601898D01*
X548636Y-601898D01*
X548636Y-566898D01*
G37*
G36*
X574036Y-566898D02*
X591536Y-566898D01*
X591536Y-601898D01*
X574036Y-601898D01*
X574036Y-566898D01*
G37*
G36*
X599436Y-566899D02*
X616936Y-566899D01*
X616936Y-601899D01*
X599436Y-601899D01*
X599436Y-566899D01*
G37*
G36*
X624836Y-566899D02*
X642336Y-566899D01*
X642336Y-601899D01*
X624836Y-601899D01*
X624836Y-566899D01*
G37*
G36*
X650236Y-566898D02*
X667736Y-566898D01*
X667736Y-601898D01*
X650236Y-601898D01*
X650236Y-566898D01*
G37*
G36*
X675636Y-566898D02*
X693136Y-566898D01*
X693136Y-601898D01*
X675636Y-601898D01*
X675636Y-566898D01*
G37*
G36*
X701036Y-566898D02*
X718536Y-566898D01*
X718536Y-601898D01*
X701036Y-601898D01*
X701036Y-566898D01*
G37*
G36*
X726436Y-566898D02*
X743936Y-566898D01*
X743936Y-601898D01*
X726436Y-601898D01*
X726436Y-566898D01*
G37*
G36*
X751836Y-566898D02*
X769336Y-566898D01*
X769336Y-601898D01*
X751836Y-601898D01*
X751836Y-566898D01*
G37*
G36*
X777236Y-566898D02*
X794736Y-566898D01*
X794736Y-601898D01*
X777236Y-601898D01*
X777236Y-566898D01*
G37*
G36*
X802636Y-566898D02*
X820136Y-566898D01*
X820136Y-601898D01*
X802636Y-601898D01*
X802636Y-566898D01*
G37*
G36*
X828036Y-566898D02*
X845536Y-566898D01*
X845536Y-601898D01*
X828036Y-601898D01*
X828036Y-566898D01*
G37*
G36*
X853436Y-566898D02*
X870936Y-566898D01*
X870936Y-601898D01*
X853436Y-601898D01*
X853436Y-566898D01*
G37*
X2168268Y-504362D02*
G54D19*
D03*
X2168268Y-631362D02*
G54D19*
D03*
X2568318Y-504362D02*
G54D19*
D03*
X2568318Y-631362D02*
G54D19*
D03*
X133113Y-628218D02*
G54D19*
D03*
X133113Y-501218D02*
G54D19*
D03*
G36*
X1438430Y-319248D02*
X1455930Y-319248D01*
X1455930Y-354248D01*
X1438430Y-354248D01*
X1438430Y-319248D01*
G37*
G36*
X1463830Y-319248D02*
X1481330Y-319248D01*
X1481330Y-354248D01*
X1463830Y-354248D01*
X1463830Y-319248D01*
G37*
G36*
X1489230Y-319248D02*
X1506730Y-319248D01*
X1506730Y-354248D01*
X1489230Y-354248D01*
X1489230Y-319248D01*
G37*
G36*
X1514630Y-319248D02*
X1532130Y-319248D01*
X1532130Y-354248D01*
X1514630Y-354248D01*
X1514630Y-319248D01*
G37*
G36*
X1540030Y-319248D02*
X1557530Y-319248D01*
X1557530Y-354248D01*
X1540030Y-354248D01*
X1540030Y-319248D01*
G37*
G36*
X1565430Y-319248D02*
X1582930Y-319248D01*
X1582930Y-354248D01*
X1565430Y-354248D01*
X1565430Y-319248D01*
G37*
G36*
X1590830Y-319248D02*
X1608330Y-319248D01*
X1608330Y-354248D01*
X1590830Y-354248D01*
X1590830Y-319248D01*
G37*
G36*
X1616230Y-319248D02*
X1633730Y-319248D01*
X1633730Y-354248D01*
X1616230Y-354248D01*
X1616230Y-319248D01*
G37*
G36*
X1641630Y-319248D02*
X1659130Y-319248D01*
X1659130Y-354248D01*
X1641630Y-354248D01*
X1641630Y-319248D01*
G37*
G36*
X1667030Y-319248D02*
X1684530Y-319248D01*
X1684530Y-354248D01*
X1667030Y-354248D01*
X1667030Y-319248D01*
G37*
G36*
X1692430Y-319248D02*
X1709930Y-319248D01*
X1709930Y-354248D01*
X1692430Y-354248D01*
X1692430Y-319248D01*
G37*
G36*
X1717830Y-319248D02*
X1735330Y-319248D01*
X1735330Y-354248D01*
X1717830Y-354248D01*
X1717830Y-319248D01*
G37*
G36*
X1743230Y-319248D02*
X1760730Y-319248D01*
X1760730Y-354248D01*
X1743230Y-354248D01*
X1743230Y-319248D01*
G37*
G36*
X1768630Y-319248D02*
X1786130Y-319248D01*
X1786130Y-354248D01*
X1768630Y-354248D01*
X1768630Y-319248D01*
G37*
G36*
X1794030Y-319248D02*
X1811530Y-319248D01*
X1811530Y-354248D01*
X1794030Y-354248D01*
X1794030Y-319248D01*
G37*
G36*
X1819430Y-319248D02*
X1836930Y-319248D01*
X1836930Y-354248D01*
X1819430Y-354248D01*
X1819430Y-319248D01*
G37*
G36*
X1844830Y-319248D02*
X1862330Y-319248D01*
X1862330Y-354248D01*
X1844830Y-354248D01*
X1844830Y-319248D01*
G37*
G36*
X1870230Y-319248D02*
X1887730Y-319248D01*
X1887730Y-354248D01*
X1870230Y-354248D01*
X1870230Y-319248D01*
G37*
G36*
X1895630Y-319248D02*
X1913130Y-319248D01*
X1913130Y-354248D01*
X1895630Y-354248D01*
X1895630Y-319248D01*
G37*
G36*
X1921030Y-319248D02*
X1938530Y-319248D01*
X1938530Y-354248D01*
X1921030Y-354248D01*
X1921030Y-319248D01*
G37*
G36*
X1946430Y-319248D02*
X1963930Y-319248D01*
X1963930Y-354248D01*
X1946430Y-354248D01*
X1946430Y-319248D01*
G37*
G36*
X1971830Y-319248D02*
X1989330Y-319248D01*
X1989330Y-354248D01*
X1971830Y-354248D01*
X1971830Y-319248D01*
G37*
G36*
X1997230Y-319248D02*
X2014730Y-319248D01*
X2014730Y-354248D01*
X1997230Y-354248D01*
X1997230Y-319248D01*
G37*
G36*
X2022630Y-319248D02*
X2040130Y-319248D01*
X2040130Y-354248D01*
X2022630Y-354248D01*
X2022630Y-319248D01*
G37*
G36*
X269236Y-319248D02*
X286736Y-319248D01*
X286736Y-354248D01*
X269236Y-354248D01*
X269236Y-319248D01*
G37*
G36*
X294636Y-319248D02*
X312136Y-319248D01*
X312136Y-354248D01*
X294636Y-354248D01*
X294636Y-319248D01*
G37*
G36*
X320036Y-319248D02*
X337536Y-319248D01*
X337536Y-354248D01*
X320036Y-354248D01*
X320036Y-319248D01*
G37*
G36*
X345436Y-319248D02*
X362936Y-319248D01*
X362936Y-354248D01*
X345436Y-354248D01*
X345436Y-319248D01*
G37*
G36*
X370836Y-319248D02*
X388336Y-319248D01*
X388336Y-354248D01*
X370836Y-354248D01*
X370836Y-319248D01*
G37*
G36*
X396236Y-319248D02*
X413736Y-319248D01*
X413736Y-354248D01*
X396236Y-354248D01*
X396236Y-319248D01*
G37*
G36*
X421636Y-319248D02*
X439136Y-319248D01*
X439136Y-354248D01*
X421636Y-354248D01*
X421636Y-319248D01*
G37*
G36*
X447036Y-319248D02*
X464536Y-319248D01*
X464536Y-354248D01*
X447036Y-354248D01*
X447036Y-319248D01*
G37*
G36*
X472436Y-319248D02*
X489936Y-319248D01*
X489936Y-354248D01*
X472436Y-354248D01*
X472436Y-319248D01*
G37*
G36*
X497836Y-319248D02*
X515336Y-319248D01*
X515336Y-354248D01*
X497836Y-354248D01*
X497836Y-319248D01*
G37*
G36*
X523236Y-319248D02*
X540736Y-319248D01*
X540736Y-354248D01*
X523236Y-354248D01*
X523236Y-319248D01*
G37*
G36*
X548636Y-319248D02*
X566136Y-319248D01*
X566136Y-354248D01*
X548636Y-354248D01*
X548636Y-319248D01*
G37*
G36*
X574036Y-319248D02*
X591536Y-319248D01*
X591536Y-354248D01*
X574036Y-354248D01*
X574036Y-319248D01*
G37*
G36*
X599436Y-319249D02*
X616936Y-319249D01*
X616936Y-354249D01*
X599436Y-354249D01*
X599436Y-319249D01*
G37*
G36*
X624836Y-319249D02*
X642336Y-319249D01*
X642336Y-354249D01*
X624836Y-354249D01*
X624836Y-319249D01*
G37*
G36*
X650236Y-319248D02*
X667736Y-319248D01*
X667736Y-354248D01*
X650236Y-354248D01*
X650236Y-319248D01*
G37*
G36*
X675636Y-319248D02*
X693136Y-319248D01*
X693136Y-354248D01*
X675636Y-354248D01*
X675636Y-319248D01*
G37*
G36*
X701036Y-319248D02*
X718536Y-319248D01*
X718536Y-354248D01*
X701036Y-354248D01*
X701036Y-319248D01*
G37*
G36*
X726436Y-319248D02*
X743936Y-319248D01*
X743936Y-354248D01*
X726436Y-354248D01*
X726436Y-319248D01*
G37*
G36*
X751836Y-319248D02*
X769336Y-319248D01*
X769336Y-354248D01*
X751836Y-354248D01*
X751836Y-319248D01*
G37*
G36*
X777236Y-319248D02*
X794736Y-319248D01*
X794736Y-354248D01*
X777236Y-354248D01*
X777236Y-319248D01*
G37*
G36*
X802636Y-319248D02*
X820136Y-319248D01*
X820136Y-354248D01*
X802636Y-354248D01*
X802636Y-319248D01*
G37*
G36*
X828036Y-319248D02*
X845536Y-319248D01*
X845536Y-354248D01*
X828036Y-354248D01*
X828036Y-319248D01*
G37*
G36*
X853436Y-319248D02*
X870936Y-319248D01*
X870936Y-354248D01*
X853436Y-354248D01*
X853436Y-319248D01*
G37*
X2168268Y-256712D02*
G54D19*
D03*
X2168268Y-383712D02*
G54D19*
D03*
X2568318Y-256712D02*
G54D19*
D03*
X2568318Y-383712D02*
G54D19*
D03*
X133113Y-380568D02*
G54D19*
D03*
X133113Y-253568D02*
G54D19*
D03*
G36*
X1438430Y-71598D02*
X1455930Y-71598D01*
X1455930Y-106598D01*
X1438430Y-106598D01*
X1438430Y-71598D01*
G37*
G36*
X1463830Y-71598D02*
X1481330Y-71598D01*
X1481330Y-106598D01*
X1463830Y-106598D01*
X1463830Y-71598D01*
G37*
G36*
X1489230Y-71598D02*
X1506730Y-71598D01*
X1506730Y-106598D01*
X1489230Y-106598D01*
X1489230Y-71598D01*
G37*
G36*
X1514630Y-71598D02*
X1532130Y-71598D01*
X1532130Y-106598D01*
X1514630Y-106598D01*
X1514630Y-71598D01*
G37*
G36*
X1540030Y-71598D02*
X1557530Y-71598D01*
X1557530Y-106598D01*
X1540030Y-106598D01*
X1540030Y-71598D01*
G37*
G36*
X1565430Y-71598D02*
X1582930Y-71598D01*
X1582930Y-106598D01*
X1565430Y-106598D01*
X1565430Y-71598D01*
G37*
G36*
X1590830Y-71598D02*
X1608330Y-71598D01*
X1608330Y-106598D01*
X1590830Y-106598D01*
X1590830Y-71598D01*
G37*
G36*
X1616230Y-71598D02*
X1633730Y-71598D01*
X1633730Y-106598D01*
X1616230Y-106598D01*
X1616230Y-71598D01*
G37*
G36*
X1641630Y-71598D02*
X1659130Y-71598D01*
X1659130Y-106598D01*
X1641630Y-106598D01*
X1641630Y-71598D01*
G37*
G36*
X1667030Y-71598D02*
X1684530Y-71598D01*
X1684530Y-106598D01*
X1667030Y-106598D01*
X1667030Y-71598D01*
G37*
G36*
X1692430Y-71598D02*
X1709930Y-71598D01*
X1709930Y-106598D01*
X1692430Y-106598D01*
X1692430Y-71598D01*
G37*
G36*
X1717830Y-71598D02*
X1735330Y-71598D01*
X1735330Y-106598D01*
X1717830Y-106598D01*
X1717830Y-71598D01*
G37*
G36*
X1743230Y-71598D02*
X1760730Y-71598D01*
X1760730Y-106598D01*
X1743230Y-106598D01*
X1743230Y-71598D01*
G37*
G36*
X1768630Y-71598D02*
X1786130Y-71598D01*
X1786130Y-106598D01*
X1768630Y-106598D01*
X1768630Y-71598D01*
G37*
G36*
X1794030Y-71598D02*
X1811530Y-71598D01*
X1811530Y-106598D01*
X1794030Y-106598D01*
X1794030Y-71598D01*
G37*
G36*
X1819430Y-71598D02*
X1836930Y-71598D01*
X1836930Y-106598D01*
X1819430Y-106598D01*
X1819430Y-71598D01*
G37*
G36*
X1844830Y-71598D02*
X1862330Y-71598D01*
X1862330Y-106598D01*
X1844830Y-106598D01*
X1844830Y-71598D01*
G37*
G36*
X1870230Y-71598D02*
X1887730Y-71598D01*
X1887730Y-106598D01*
X1870230Y-106598D01*
X1870230Y-71598D01*
G37*
G36*
X1895630Y-71598D02*
X1913130Y-71598D01*
X1913130Y-106598D01*
X1895630Y-106598D01*
X1895630Y-71598D01*
G37*
G36*
X1921030Y-71598D02*
X1938530Y-71598D01*
X1938530Y-106598D01*
X1921030Y-106598D01*
X1921030Y-71598D01*
G37*
G36*
X1946430Y-71598D02*
X1963930Y-71598D01*
X1963930Y-106598D01*
X1946430Y-106598D01*
X1946430Y-71598D01*
G37*
G36*
X1971830Y-71598D02*
X1989330Y-71598D01*
X1989330Y-106598D01*
X1971830Y-106598D01*
X1971830Y-71598D01*
G37*
G36*
X1997230Y-71598D02*
X2014730Y-71598D01*
X2014730Y-106598D01*
X1997230Y-106598D01*
X1997230Y-71598D01*
G37*
G36*
X2022630Y-71598D02*
X2040130Y-71598D01*
X2040130Y-106598D01*
X2022630Y-106598D01*
X2022630Y-71598D01*
G37*
G36*
X269236Y-71598D02*
X286736Y-71598D01*
X286736Y-106598D01*
X269236Y-106598D01*
X269236Y-71598D01*
G37*
G36*
X294636Y-71598D02*
X312136Y-71598D01*
X312136Y-106598D01*
X294636Y-106598D01*
X294636Y-71598D01*
G37*
G36*
X320036Y-71598D02*
X337536Y-71598D01*
X337536Y-106598D01*
X320036Y-106598D01*
X320036Y-71598D01*
G37*
G36*
X345436Y-71598D02*
X362936Y-71598D01*
X362936Y-106598D01*
X345436Y-106598D01*
X345436Y-71598D01*
G37*
G36*
X370836Y-71598D02*
X388336Y-71598D01*
X388336Y-106598D01*
X370836Y-106598D01*
X370836Y-71598D01*
G37*
G36*
X396236Y-71598D02*
X413736Y-71598D01*
X413736Y-106598D01*
X396236Y-106598D01*
X396236Y-71598D01*
G37*
G36*
X421636Y-71598D02*
X439136Y-71598D01*
X439136Y-106598D01*
X421636Y-106598D01*
X421636Y-71598D01*
G37*
G36*
X447036Y-71598D02*
X464536Y-71598D01*
X464536Y-106598D01*
X447036Y-106598D01*
X447036Y-71598D01*
G37*
G36*
X472436Y-71598D02*
X489936Y-71598D01*
X489936Y-106598D01*
X472436Y-106598D01*
X472436Y-71598D01*
G37*
G36*
X497836Y-71598D02*
X515336Y-71598D01*
X515336Y-106598D01*
X497836Y-106598D01*
X497836Y-71598D01*
G37*
G36*
X523236Y-71598D02*
X540736Y-71598D01*
X540736Y-106598D01*
X523236Y-106598D01*
X523236Y-71598D01*
G37*
G36*
X548636Y-71598D02*
X566136Y-71598D01*
X566136Y-106598D01*
X548636Y-106598D01*
X548636Y-71598D01*
G37*
G36*
X574036Y-71598D02*
X591536Y-71598D01*
X591536Y-106598D01*
X574036Y-106598D01*
X574036Y-71598D01*
G37*
G36*
X599436Y-71599D02*
X616936Y-71599D01*
X616936Y-106599D01*
X599436Y-106599D01*
X599436Y-71599D01*
G37*
G36*
X624836Y-71599D02*
X642336Y-71599D01*
X642336Y-106599D01*
X624836Y-106599D01*
X624836Y-71599D01*
G37*
G36*
X650236Y-71598D02*
X667736Y-71598D01*
X667736Y-106598D01*
X650236Y-106598D01*
X650236Y-71598D01*
G37*
G36*
X675636Y-71598D02*
X693136Y-71598D01*
X693136Y-106598D01*
X675636Y-106598D01*
X675636Y-71598D01*
G37*
G36*
X701036Y-71598D02*
X718536Y-71598D01*
X718536Y-106598D01*
X701036Y-106598D01*
X701036Y-71598D01*
G37*
G36*
X726436Y-71598D02*
X743936Y-71598D01*
X743936Y-106598D01*
X726436Y-106598D01*
X726436Y-71598D01*
G37*
G36*
X751836Y-71598D02*
X769336Y-71598D01*
X769336Y-106598D01*
X751836Y-106598D01*
X751836Y-71598D01*
G37*
G36*
X777236Y-71598D02*
X794736Y-71598D01*
X794736Y-106598D01*
X777236Y-106598D01*
X777236Y-71598D01*
G37*
G36*
X802636Y-71598D02*
X820136Y-71598D01*
X820136Y-106598D01*
X802636Y-106598D01*
X802636Y-71598D01*
G37*
G36*
X828036Y-71598D02*
X845536Y-71598D01*
X845536Y-106598D01*
X828036Y-106598D01*
X828036Y-71598D01*
G37*
G36*
X853436Y-71598D02*
X870936Y-71598D01*
X870936Y-106598D01*
X853436Y-106598D01*
X853436Y-71598D01*
G37*
X2168268Y-9062D02*
G54D19*
D03*
X2168268Y-136062D02*
G54D19*
D03*
X2568318Y-9062D02*
G54D19*
D03*
X2568318Y-136062D02*
G54D19*
D03*
X133113Y-132918D02*
G54D19*
D03*
X133113Y-5918D02*
G54D19*
D03*
G36*
X1438430Y177639D02*
X1455930Y177639D01*
X1455930Y142639D01*
X1438430Y142639D01*
X1438430Y177639D01*
G37*
G36*
X1463830Y177639D02*
X1481330Y177639D01*
X1481330Y142639D01*
X1463830Y142639D01*
X1463830Y177639D01*
G37*
G36*
X1489230Y177639D02*
X1506730Y177639D01*
X1506730Y142639D01*
X1489230Y142639D01*
X1489230Y177639D01*
G37*
G36*
X1514630Y177639D02*
X1532130Y177639D01*
X1532130Y142639D01*
X1514630Y142639D01*
X1514630Y177639D01*
G37*
G36*
X1540030Y177639D02*
X1557530Y177639D01*
X1557530Y142639D01*
X1540030Y142639D01*
X1540030Y177639D01*
G37*
G36*
X1565430Y177639D02*
X1582930Y177639D01*
X1582930Y142639D01*
X1565430Y142639D01*
X1565430Y177639D01*
G37*
G36*
X1590830Y177639D02*
X1608330Y177639D01*
X1608330Y142639D01*
X1590830Y142639D01*
X1590830Y177639D01*
G37*
G36*
X1616230Y177639D02*
X1633730Y177639D01*
X1633730Y142639D01*
X1616230Y142639D01*
X1616230Y177639D01*
G37*
G36*
X1641630Y177639D02*
X1659130Y177639D01*
X1659130Y142639D01*
X1641630Y142639D01*
X1641630Y177639D01*
G37*
G36*
X1667030Y177639D02*
X1684530Y177639D01*
X1684530Y142639D01*
X1667030Y142639D01*
X1667030Y177639D01*
G37*
G36*
X1692430Y177639D02*
X1709930Y177639D01*
X1709930Y142639D01*
X1692430Y142639D01*
X1692430Y177639D01*
G37*
G36*
X1717830Y177639D02*
X1735330Y177639D01*
X1735330Y142639D01*
X1717830Y142639D01*
X1717830Y177639D01*
G37*
G36*
X1743230Y177639D02*
X1760730Y177639D01*
X1760730Y142639D01*
X1743230Y142639D01*
X1743230Y177639D01*
G37*
G36*
X1768630Y177639D02*
X1786130Y177639D01*
X1786130Y142639D01*
X1768630Y142639D01*
X1768630Y177639D01*
G37*
G36*
X1794030Y177639D02*
X1811530Y177639D01*
X1811530Y142639D01*
X1794030Y142639D01*
X1794030Y177639D01*
G37*
G36*
X1819430Y177639D02*
X1836930Y177639D01*
X1836930Y142639D01*
X1819430Y142639D01*
X1819430Y177639D01*
G37*
G36*
X1844830Y177639D02*
X1862330Y177639D01*
X1862330Y142639D01*
X1844830Y142639D01*
X1844830Y177639D01*
G37*
G36*
X1870230Y177639D02*
X1887730Y177639D01*
X1887730Y142639D01*
X1870230Y142639D01*
X1870230Y177639D01*
G37*
G36*
X1895630Y177639D02*
X1913130Y177639D01*
X1913130Y142639D01*
X1895630Y142639D01*
X1895630Y177639D01*
G37*
G36*
X1921030Y177639D02*
X1938530Y177639D01*
X1938530Y142639D01*
X1921030Y142639D01*
X1921030Y177639D01*
G37*
G36*
X1946430Y177639D02*
X1963930Y177639D01*
X1963930Y142639D01*
X1946430Y142639D01*
X1946430Y177639D01*
G37*
G36*
X1971830Y177639D02*
X1989330Y177639D01*
X1989330Y142639D01*
X1971830Y142639D01*
X1971830Y177639D01*
G37*
G36*
X1997230Y177639D02*
X2014730Y177639D01*
X2014730Y142639D01*
X1997230Y142639D01*
X1997230Y177639D01*
G37*
G36*
X2022630Y177639D02*
X2040130Y177639D01*
X2040130Y142639D01*
X2022630Y142639D01*
X2022630Y177639D01*
G37*
G36*
X269236Y177639D02*
X286736Y177639D01*
X286736Y142639D01*
X269236Y142639D01*
X269236Y177639D01*
G37*
G36*
X294636Y177639D02*
X312136Y177639D01*
X312136Y142639D01*
X294636Y142639D01*
X294636Y177639D01*
G37*
G36*
X320036Y177639D02*
X337536Y177639D01*
X337536Y142639D01*
X320036Y142639D01*
X320036Y177639D01*
G37*
G36*
X345436Y177639D02*
X362936Y177639D01*
X362936Y142639D01*
X345436Y142639D01*
X345436Y177639D01*
G37*
G36*
X370836Y177639D02*
X388336Y177639D01*
X388336Y142639D01*
X370836Y142639D01*
X370836Y177639D01*
G37*
G36*
X396236Y177639D02*
X413736Y177639D01*
X413736Y142639D01*
X396236Y142639D01*
X396236Y177639D01*
G37*
G36*
X421636Y177639D02*
X439136Y177639D01*
X439136Y142639D01*
X421636Y142639D01*
X421636Y177639D01*
G37*
G36*
X447036Y177639D02*
X464536Y177639D01*
X464536Y142639D01*
X447036Y142639D01*
X447036Y177639D01*
G37*
G36*
X472436Y177639D02*
X489936Y177639D01*
X489936Y142639D01*
X472436Y142639D01*
X472436Y177639D01*
G37*
G36*
X497836Y177639D02*
X515336Y177639D01*
X515336Y142639D01*
X497836Y142639D01*
X497836Y177639D01*
G37*
G36*
X523236Y177639D02*
X540736Y177639D01*
X540736Y142639D01*
X523236Y142639D01*
X523236Y177639D01*
G37*
G36*
X548636Y177639D02*
X566136Y177639D01*
X566136Y142639D01*
X548636Y142639D01*
X548636Y177639D01*
G37*
G36*
X574036Y177639D02*
X591536Y177639D01*
X591536Y142639D01*
X574036Y142639D01*
X574036Y177639D01*
G37*
G36*
X599436Y177638D02*
X616936Y177638D01*
X616936Y142638D01*
X599436Y142638D01*
X599436Y177638D01*
G37*
G36*
X624836Y177638D02*
X642336Y177638D01*
X642336Y142638D01*
X624836Y142638D01*
X624836Y177638D01*
G37*
G36*
X650236Y177639D02*
X667736Y177639D01*
X667736Y142639D01*
X650236Y142639D01*
X650236Y177639D01*
G37*
G36*
X675636Y177639D02*
X693136Y177639D01*
X693136Y142639D01*
X675636Y142639D01*
X675636Y177639D01*
G37*
G36*
X701036Y177639D02*
X718536Y177639D01*
X718536Y142639D01*
X701036Y142639D01*
X701036Y177639D01*
G37*
G36*
X726436Y177639D02*
X743936Y177639D01*
X743936Y142639D01*
X726436Y142639D01*
X726436Y177639D01*
G37*
G36*
X751836Y177639D02*
X769336Y177639D01*
X769336Y142639D01*
X751836Y142639D01*
X751836Y177639D01*
G37*
G36*
X777236Y177639D02*
X794736Y177639D01*
X794736Y142639D01*
X777236Y142639D01*
X777236Y177639D01*
G37*
G36*
X802636Y177639D02*
X820136Y177639D01*
X820136Y142639D01*
X802636Y142639D01*
X802636Y177639D01*
G37*
G36*
X828036Y177639D02*
X845536Y177639D01*
X845536Y142639D01*
X828036Y142639D01*
X828036Y177639D01*
G37*
G36*
X853436Y177639D02*
X870936Y177639D01*
X870936Y142639D01*
X853436Y142639D01*
X853436Y177639D01*
G37*
X2168268Y240175D02*
G54D19*
D03*
X2168268Y113175D02*
G54D19*
D03*
X2568318Y240175D02*
G54D19*
D03*
X2568318Y113175D02*
G54D19*
D03*
X133113Y116319D02*
G54D19*
D03*
X133113Y243319D02*
G54D19*
D03*
G36*
X1438430Y426876D02*
X1455930Y426876D01*
X1455930Y391876D01*
X1438430Y391876D01*
X1438430Y426876D01*
G37*
G36*
X1463830Y426876D02*
X1481330Y426876D01*
X1481330Y391876D01*
X1463830Y391876D01*
X1463830Y426876D01*
G37*
G36*
X1489230Y426876D02*
X1506730Y426876D01*
X1506730Y391876D01*
X1489230Y391876D01*
X1489230Y426876D01*
G37*
G36*
X1514630Y426876D02*
X1532130Y426876D01*
X1532130Y391876D01*
X1514630Y391876D01*
X1514630Y426876D01*
G37*
G36*
X1540030Y426876D02*
X1557530Y426876D01*
X1557530Y391876D01*
X1540030Y391876D01*
X1540030Y426876D01*
G37*
G36*
X1565430Y426876D02*
X1582930Y426876D01*
X1582930Y391876D01*
X1565430Y391876D01*
X1565430Y426876D01*
G37*
G36*
X1590830Y426876D02*
X1608330Y426876D01*
X1608330Y391876D01*
X1590830Y391876D01*
X1590830Y426876D01*
G37*
G36*
X1616230Y426876D02*
X1633730Y426876D01*
X1633730Y391876D01*
X1616230Y391876D01*
X1616230Y426876D01*
G37*
G36*
X1641630Y426876D02*
X1659130Y426876D01*
X1659130Y391876D01*
X1641630Y391876D01*
X1641630Y426876D01*
G37*
G36*
X1667030Y426876D02*
X1684530Y426876D01*
X1684530Y391876D01*
X1667030Y391876D01*
X1667030Y426876D01*
G37*
G36*
X1692430Y426876D02*
X1709930Y426876D01*
X1709930Y391876D01*
X1692430Y391876D01*
X1692430Y426876D01*
G37*
G36*
X1717830Y426876D02*
X1735330Y426876D01*
X1735330Y391876D01*
X1717830Y391876D01*
X1717830Y426876D01*
G37*
G36*
X1743230Y426876D02*
X1760730Y426876D01*
X1760730Y391876D01*
X1743230Y391876D01*
X1743230Y426876D01*
G37*
G36*
X1768630Y426876D02*
X1786130Y426876D01*
X1786130Y391876D01*
X1768630Y391876D01*
X1768630Y426876D01*
G37*
G36*
X1794030Y426876D02*
X1811530Y426876D01*
X1811530Y391876D01*
X1794030Y391876D01*
X1794030Y426876D01*
G37*
G36*
X1819430Y426876D02*
X1836930Y426876D01*
X1836930Y391876D01*
X1819430Y391876D01*
X1819430Y426876D01*
G37*
G36*
X1844830Y426876D02*
X1862330Y426876D01*
X1862330Y391876D01*
X1844830Y391876D01*
X1844830Y426876D01*
G37*
G36*
X1870230Y426876D02*
X1887730Y426876D01*
X1887730Y391876D01*
X1870230Y391876D01*
X1870230Y426876D01*
G37*
G36*
X1895630Y426876D02*
X1913130Y426876D01*
X1913130Y391876D01*
X1895630Y391876D01*
X1895630Y426876D01*
G37*
G36*
X1921030Y426876D02*
X1938530Y426876D01*
X1938530Y391876D01*
X1921030Y391876D01*
X1921030Y426876D01*
G37*
G36*
X1946430Y426876D02*
X1963930Y426876D01*
X1963930Y391876D01*
X1946430Y391876D01*
X1946430Y426876D01*
G37*
G36*
X1971830Y426876D02*
X1989330Y426876D01*
X1989330Y391876D01*
X1971830Y391876D01*
X1971830Y426876D01*
G37*
G36*
X1997230Y426876D02*
X2014730Y426876D01*
X2014730Y391876D01*
X1997230Y391876D01*
X1997230Y426876D01*
G37*
G36*
X2022630Y426876D02*
X2040130Y426876D01*
X2040130Y391876D01*
X2022630Y391876D01*
X2022630Y426876D01*
G37*
G36*
X269236Y426876D02*
X286736Y426876D01*
X286736Y391876D01*
X269236Y391876D01*
X269236Y426876D01*
G37*
G36*
X294636Y426876D02*
X312136Y426876D01*
X312136Y391876D01*
X294636Y391876D01*
X294636Y426876D01*
G37*
G36*
X320036Y426876D02*
X337536Y426876D01*
X337536Y391876D01*
X320036Y391876D01*
X320036Y426876D01*
G37*
G36*
X345436Y426876D02*
X362936Y426876D01*
X362936Y391876D01*
X345436Y391876D01*
X345436Y426876D01*
G37*
G36*
X370836Y426876D02*
X388336Y426876D01*
X388336Y391876D01*
X370836Y391876D01*
X370836Y426876D01*
G37*
G36*
X396236Y426876D02*
X413736Y426876D01*
X413736Y391876D01*
X396236Y391876D01*
X396236Y426876D01*
G37*
G36*
X421636Y426876D02*
X439136Y426876D01*
X439136Y391876D01*
X421636Y391876D01*
X421636Y426876D01*
G37*
G36*
X447036Y426876D02*
X464536Y426876D01*
X464536Y391876D01*
X447036Y391876D01*
X447036Y426876D01*
G37*
G36*
X472436Y426876D02*
X489936Y426876D01*
X489936Y391876D01*
X472436Y391876D01*
X472436Y426876D01*
G37*
G36*
X497836Y426876D02*
X515336Y426876D01*
X515336Y391876D01*
X497836Y391876D01*
X497836Y426876D01*
G37*
G36*
X523236Y426876D02*
X540736Y426876D01*
X540736Y391876D01*
X523236Y391876D01*
X523236Y426876D01*
G37*
G36*
X548636Y426876D02*
X566136Y426876D01*
X566136Y391876D01*
X548636Y391876D01*
X548636Y426876D01*
G37*
G36*
X574036Y426876D02*
X591536Y426876D01*
X591536Y391876D01*
X574036Y391876D01*
X574036Y426876D01*
G37*
G36*
X599436Y426876D02*
X616936Y426876D01*
X616936Y391876D01*
X599436Y391876D01*
X599436Y426876D01*
G37*
G36*
X624836Y426876D02*
X642336Y426876D01*
X642336Y391876D01*
X624836Y391876D01*
X624836Y426876D01*
G37*
G36*
X650236Y426876D02*
X667736Y426876D01*
X667736Y391876D01*
X650236Y391876D01*
X650236Y426876D01*
G37*
G36*
X675636Y426876D02*
X693136Y426876D01*
X693136Y391876D01*
X675636Y391876D01*
X675636Y426876D01*
G37*
G36*
X701036Y426876D02*
X718536Y426876D01*
X718536Y391876D01*
X701036Y391876D01*
X701036Y426876D01*
G37*
G36*
X726436Y426876D02*
X743936Y426876D01*
X743936Y391876D01*
X726436Y391876D01*
X726436Y426876D01*
G37*
G36*
X751836Y426876D02*
X769336Y426876D01*
X769336Y391876D01*
X751836Y391876D01*
X751836Y426876D01*
G37*
G36*
X777236Y426876D02*
X794736Y426876D01*
X794736Y391876D01*
X777236Y391876D01*
X777236Y426876D01*
G37*
G36*
X802636Y426876D02*
X820136Y426876D01*
X820136Y391876D01*
X802636Y391876D01*
X802636Y426876D01*
G37*
G36*
X828036Y426876D02*
X845536Y426876D01*
X845536Y391876D01*
X828036Y391876D01*
X828036Y426876D01*
G37*
G36*
X853436Y426876D02*
X870936Y426876D01*
X870936Y391876D01*
X853436Y391876D01*
X853436Y426876D01*
G37*
X2168268Y489412D02*
G54D19*
D03*
X2168268Y362412D02*
G54D19*
D03*
X2568318Y489412D02*
G54D19*
D03*
X2568318Y362412D02*
G54D19*
D03*
X133113Y365556D02*
G54D19*
D03*
X133113Y492556D02*
G54D19*
D03*
G36*
X1438430Y672939D02*
X1455930Y672939D01*
X1455930Y637939D01*
X1438430Y637939D01*
X1438430Y672939D01*
G37*
G36*
X1463830Y672939D02*
X1481330Y672939D01*
X1481330Y637939D01*
X1463830Y637939D01*
X1463830Y672939D01*
G37*
G36*
X1489230Y672939D02*
X1506730Y672939D01*
X1506730Y637939D01*
X1489230Y637939D01*
X1489230Y672939D01*
G37*
G36*
X1514630Y672939D02*
X1532130Y672939D01*
X1532130Y637939D01*
X1514630Y637939D01*
X1514630Y672939D01*
G37*
G36*
X1540030Y672939D02*
X1557530Y672939D01*
X1557530Y637939D01*
X1540030Y637939D01*
X1540030Y672939D01*
G37*
G36*
X1565430Y672939D02*
X1582930Y672939D01*
X1582930Y637939D01*
X1565430Y637939D01*
X1565430Y672939D01*
G37*
G36*
X1590830Y672939D02*
X1608330Y672939D01*
X1608330Y637939D01*
X1590830Y637939D01*
X1590830Y672939D01*
G37*
G36*
X1616230Y672939D02*
X1633730Y672939D01*
X1633730Y637939D01*
X1616230Y637939D01*
X1616230Y672939D01*
G37*
G36*
X1641630Y672939D02*
X1659130Y672939D01*
X1659130Y637939D01*
X1641630Y637939D01*
X1641630Y672939D01*
G37*
G36*
X1667030Y672939D02*
X1684530Y672939D01*
X1684530Y637939D01*
X1667030Y637939D01*
X1667030Y672939D01*
G37*
G36*
X1692430Y672939D02*
X1709930Y672939D01*
X1709930Y637939D01*
X1692430Y637939D01*
X1692430Y672939D01*
G37*
G36*
X1717830Y672939D02*
X1735330Y672939D01*
X1735330Y637939D01*
X1717830Y637939D01*
X1717830Y672939D01*
G37*
G36*
X1743230Y672939D02*
X1760730Y672939D01*
X1760730Y637939D01*
X1743230Y637939D01*
X1743230Y672939D01*
G37*
G36*
X1768630Y672939D02*
X1786130Y672939D01*
X1786130Y637939D01*
X1768630Y637939D01*
X1768630Y672939D01*
G37*
G36*
X1794030Y672939D02*
X1811530Y672939D01*
X1811530Y637939D01*
X1794030Y637939D01*
X1794030Y672939D01*
G37*
G36*
X1819430Y672939D02*
X1836930Y672939D01*
X1836930Y637939D01*
X1819430Y637939D01*
X1819430Y672939D01*
G37*
G36*
X1844830Y672939D02*
X1862330Y672939D01*
X1862330Y637939D01*
X1844830Y637939D01*
X1844830Y672939D01*
G37*
G36*
X1870230Y672939D02*
X1887730Y672939D01*
X1887730Y637939D01*
X1870230Y637939D01*
X1870230Y672939D01*
G37*
G36*
X1895630Y672939D02*
X1913130Y672939D01*
X1913130Y637939D01*
X1895630Y637939D01*
X1895630Y672939D01*
G37*
G36*
X1921030Y672939D02*
X1938530Y672939D01*
X1938530Y637939D01*
X1921030Y637939D01*
X1921030Y672939D01*
G37*
G36*
X1946430Y672939D02*
X1963930Y672939D01*
X1963930Y637939D01*
X1946430Y637939D01*
X1946430Y672939D01*
G37*
G36*
X1971830Y672939D02*
X1989330Y672939D01*
X1989330Y637939D01*
X1971830Y637939D01*
X1971830Y672939D01*
G37*
G36*
X1997230Y672939D02*
X2014730Y672939D01*
X2014730Y637939D01*
X1997230Y637939D01*
X1997230Y672939D01*
G37*
G36*
X2022630Y672939D02*
X2040130Y672939D01*
X2040130Y637939D01*
X2022630Y637939D01*
X2022630Y672939D01*
G37*
G36*
X269236Y672939D02*
X286736Y672939D01*
X286736Y637939D01*
X269236Y637939D01*
X269236Y672939D01*
G37*
G36*
X294636Y672939D02*
X312136Y672939D01*
X312136Y637939D01*
X294636Y637939D01*
X294636Y672939D01*
G37*
G36*
X320036Y672939D02*
X337536Y672939D01*
X337536Y637939D01*
X320036Y637939D01*
X320036Y672939D01*
G37*
G36*
X345436Y672939D02*
X362936Y672939D01*
X362936Y637939D01*
X345436Y637939D01*
X345436Y672939D01*
G37*
G36*
X370836Y672939D02*
X388336Y672939D01*
X388336Y637939D01*
X370836Y637939D01*
X370836Y672939D01*
G37*
G36*
X396236Y672939D02*
X413736Y672939D01*
X413736Y637939D01*
X396236Y637939D01*
X396236Y672939D01*
G37*
G36*
X421636Y672939D02*
X439136Y672939D01*
X439136Y637939D01*
X421636Y637939D01*
X421636Y672939D01*
G37*
G36*
X447036Y672939D02*
X464536Y672939D01*
X464536Y637939D01*
X447036Y637939D01*
X447036Y672939D01*
G37*
G36*
X472436Y672939D02*
X489936Y672939D01*
X489936Y637939D01*
X472436Y637939D01*
X472436Y672939D01*
G37*
G36*
X497836Y672939D02*
X515336Y672939D01*
X515336Y637939D01*
X497836Y637939D01*
X497836Y672939D01*
G37*
G36*
X523236Y672939D02*
X540736Y672939D01*
X540736Y637939D01*
X523236Y637939D01*
X523236Y672939D01*
G37*
G36*
X548636Y672939D02*
X566136Y672939D01*
X566136Y637939D01*
X548636Y637939D01*
X548636Y672939D01*
G37*
G36*
X574036Y672939D02*
X591536Y672939D01*
X591536Y637939D01*
X574036Y637939D01*
X574036Y672939D01*
G37*
G36*
X599436Y672938D02*
X616936Y672938D01*
X616936Y637938D01*
X599436Y637938D01*
X599436Y672938D01*
G37*
G36*
X624836Y672938D02*
X642336Y672938D01*
X642336Y637938D01*
X624836Y637938D01*
X624836Y672938D01*
G37*
G36*
X650236Y672939D02*
X667736Y672939D01*
X667736Y637939D01*
X650236Y637939D01*
X650236Y672939D01*
G37*
G36*
X675636Y672939D02*
X693136Y672939D01*
X693136Y637939D01*
X675636Y637939D01*
X675636Y672939D01*
G37*
G36*
X701036Y672939D02*
X718536Y672939D01*
X718536Y637939D01*
X701036Y637939D01*
X701036Y672939D01*
G37*
G36*
X726436Y672939D02*
X743936Y672939D01*
X743936Y637939D01*
X726436Y637939D01*
X726436Y672939D01*
G37*
G36*
X751836Y672939D02*
X769336Y672939D01*
X769336Y637939D01*
X751836Y637939D01*
X751836Y672939D01*
G37*
G36*
X777236Y672939D02*
X794736Y672939D01*
X794736Y637939D01*
X777236Y637939D01*
X777236Y672939D01*
G37*
G36*
X802636Y672939D02*
X820136Y672939D01*
X820136Y637939D01*
X802636Y637939D01*
X802636Y672939D01*
G37*
G36*
X828036Y672939D02*
X845536Y672939D01*
X845536Y637939D01*
X828036Y637939D01*
X828036Y672939D01*
G37*
G36*
X853436Y672939D02*
X870936Y672939D01*
X870936Y637939D01*
X853436Y637939D01*
X853436Y672939D01*
G37*
X2168268Y735475D02*
G54D19*
D03*
X2168268Y608475D02*
G54D19*
D03*
X2568318Y735475D02*
G54D19*
D03*
X2568318Y608475D02*
G54D19*
D03*
X133113Y611619D02*
G54D19*
D03*
X133113Y738619D02*
G54D19*
D03*
G36*
X1122525Y576326D02*
X1172525Y576326D01*
X1172525Y526326D01*
X1122525Y526326D01*
X1122525Y576326D01*
G37*
G36*
X1122525Y81026D02*
X1172525Y81026D01*
X1172525Y31026D01*
X1122525Y31026D01*
X1122525Y81026D01*
G37*
G36*
X1122525Y-911162D02*
X1172525Y-911162D01*
X1172525Y-961162D01*
X1122525Y-961162D01*
X1122525Y-911162D01*
G37*
G36*
X1122525Y-415862D02*
X1172525Y-415862D01*
X1172525Y-465862D01*
X1122525Y-465862D01*
X1122525Y-415862D01*
G37*
G36*
X2637000Y576326D02*
X2687000Y576326D01*
X2687000Y526326D01*
X2637000Y526326D01*
X2637000Y576326D01*
G37*
G36*
X2637000Y81026D02*
X2687000Y81026D01*
X2687000Y31026D01*
X2637000Y31026D01*
X2637000Y81026D01*
G37*
G36*
X2637000Y-911162D02*
X2687000Y-911162D01*
X2687000Y-961162D01*
X2637000Y-961162D01*
X2637000Y-911162D01*
G37*
G36*
X2637000Y-415862D02*
X2687000Y-415862D01*
X2687000Y-465862D01*
X2637000Y-465862D01*
X2637000Y-415862D01*
G37*
G54D15*
X2032000Y730250D02*
X2032000Y-1079500D01*
G54D15*
X2006600Y730250D02*
X2006600Y-1079500D01*
G54D15*
X1981200Y730250D02*
X1981200Y-1079500D01*
G54D15*
X1955800Y730250D02*
X1955800Y-1079500D01*
G54D15*
X1930400Y730250D02*
X1930400Y-1079500D01*
G54D15*
X1905000Y730250D02*
X1905000Y-1079500D01*
G54D15*
X1879600Y730250D02*
X1879600Y-1079500D01*
G54D15*
X1854200Y730250D02*
X1854200Y-1079500D01*
G54D15*
X1828800Y763588D02*
X1828800Y-1081088D01*
G54D15*
X1803400Y763588D02*
X1803400Y-1081088D01*
G54D15*
X1778000Y763588D02*
X1778000Y-1081088D01*
G54D15*
X1752600Y763588D02*
X1752600Y-1081088D01*
G54D15*
X1727200Y763588D02*
X1727200Y-1081088D01*
G54D15*
X1701800Y763588D02*
X1701800Y-1081088D01*
G54D15*
X1676400Y763588D02*
X1676400Y-1081088D01*
G54D15*
X1651000Y763588D02*
X1651000Y-1081088D01*
G54D15*
X1625600Y728662D02*
X1625600Y-1081088D01*
G54D15*
X1600200Y728662D02*
X1600200Y-1081088D01*
G54D15*
X1574800Y728662D02*
X1574800Y-1081088D01*
G54D15*
X1549400Y728662D02*
X1549400Y-1081088D01*
G54D15*
X1524000Y728662D02*
X1524000Y-1081088D01*
G54D15*
X1498600Y728662D02*
X1498600Y-1081088D01*
G54D15*
X1473200Y728662D02*
X1473200Y-1081088D01*
G54D15*
X1447800Y728662D02*
X1447800Y-1081088D01*
X1462792Y831624D02*
G54D31*
D03*
G36*
X1431792Y822624D02*
X1413792Y822624D01*
X1413792Y840624D01*
X1431792Y840624D01*
X1431792Y822624D01*
G37*
G54D29*
X1360250Y729125D02*
X1360250Y646575D01*
X912332Y646917D02*
G54D33*
D03*
X279692Y852308D02*
G54D27*
D03*
X279692Y738008D02*
G54D27*
D03*
G54D15*
X280750Y737062D02*
X302975Y656100D01*
G54D15*
X531812Y738188D02*
X531812Y-1081088D01*
G54D15*
X506412Y738188D02*
X506412Y-1081088D01*
G54D15*
X481012Y738188D02*
X481012Y-1081088D01*
G54D15*
X455612Y738188D02*
X455612Y-1081088D01*
G54D15*
X430212Y738188D02*
X430212Y-1081088D01*
G54D15*
X709612Y738188D02*
X709612Y-1081088D01*
G54D15*
X735012Y738188D02*
X735012Y-1081088D01*
G54D15*
X760412Y738188D02*
X760412Y-1081088D01*
G54D15*
X785812Y738188D02*
X785812Y-1081088D01*
G54D15*
X811212Y738188D02*
X811212Y-1081088D01*
G54D15*
X836612Y738188D02*
X836612Y-1081088D01*
G54D15*
X862012Y738188D02*
X862012Y-1081088D01*
G36*
X2528050Y992900D02*
X2528050Y-1280400D01*
X2699500Y-1280400D01*
X2699500Y992900D01*
X2528050Y992900D01*
G37*
G54D17*
X2528050Y992900D02*
X2528050Y-1280400D01*
X2699500Y-1280400D01*
X2699500Y992900D01*
X2528050Y992900D01*
X328132Y789792D02*
G54D33*
D03*
M02*
