%FSLAX34Y34*%
%MOMM*%
%LNSILK_TOP*%
G71*
G01*
%ADD10C, 0.413*%
%ADD11C, 0.254*%
%ADD12C, 0.167*%
%ADD13C, 0.250*%
%ADD14C, 0.476*%
%ADD15C, 0.300*%
%ADD16C, 0.650*%
%ADD17C, 0.318*%
%ADD18C, 0.365*%
%ADD19C, 0.222*%
%ADD20C, 0.150*%
%ADD21C, 0.122*%
%ADD22C, 0.200*%
%ADD23C, 0.333*%
%ADD24C, 0.159*%
%ADD25C, 0.278*%
%ADD26C, 0.111*%
%ADD27C, 0.120*%
%ADD28C, 0.450*%
%ADD29C, 0.302*%
%LPD*%
G54D10*
X270804Y-946116D02*
X269071Y-949006D01*
X265604Y-950450D01*
X262138Y-950450D01*
X258671Y-949006D01*
X256938Y-946116D01*
X256938Y-931672D01*
X258671Y-928784D01*
X262138Y-927339D01*
X265604Y-927339D01*
X269071Y-928784D01*
X270804Y-931672D01*
G54D10*
X292760Y-931672D02*
X292760Y-946116D01*
X291027Y-949006D01*
X287560Y-950450D01*
X284094Y-950450D01*
X280627Y-949006D01*
X278894Y-946116D01*
X278894Y-931672D01*
X280627Y-928784D01*
X284094Y-927339D01*
X287560Y-927339D01*
X291027Y-928784D01*
X292760Y-931672D01*
G54D10*
X300850Y-950450D02*
X300850Y-927339D01*
X314716Y-950450D01*
X314716Y-927339D01*
G54D10*
X322806Y-950450D02*
X322806Y-927339D01*
X336672Y-950450D01*
X336672Y-927339D01*
G54D10*
X356895Y-950450D02*
X344762Y-950450D01*
X344762Y-927339D01*
X356895Y-927339D01*
G54D10*
X344762Y-938894D02*
X356895Y-938894D01*
G54D10*
X371917Y-950450D02*
X371917Y-927339D01*
G54D10*
X364984Y-927339D02*
X378850Y-927339D01*
G54D10*
X393873Y-950450D02*
X393873Y-927339D01*
G54D10*
X386940Y-927339D02*
X400806Y-927339D01*
G54D10*
X422762Y-931672D02*
X422762Y-946116D01*
X421029Y-949006D01*
X417562Y-950450D01*
X414096Y-950450D01*
X410629Y-949006D01*
X408896Y-946116D01*
X408896Y-931672D01*
X410629Y-928784D01*
X414096Y-927339D01*
X417562Y-927339D01*
X421029Y-928784D01*
X422762Y-931672D01*
G54D10*
X437785Y-938894D02*
X442985Y-941784D01*
X444718Y-944672D01*
X444718Y-950450D01*
G54D10*
X430852Y-950450D02*
X430852Y-927339D01*
X439518Y-927339D01*
X442985Y-928784D01*
X444718Y-931672D01*
X444718Y-934561D01*
X442985Y-937450D01*
X439518Y-938894D01*
X430852Y-938894D01*
G54D10*
X464941Y-950450D02*
X452808Y-950450D01*
X452808Y-927339D01*
X464941Y-927339D01*
G54D10*
X452808Y-938894D02*
X464941Y-938894D01*
G54D10*
X481466Y-950450D02*
X490132Y-927339D01*
X498799Y-950450D01*
G54D10*
X484932Y-941784D02*
X495332Y-941784D01*
G54D10*
X1657486Y-938179D02*
X1655752Y-941068D01*
X1652286Y-942512D01*
X1648819Y-942512D01*
X1645352Y-941068D01*
X1643619Y-938179D01*
X1643619Y-923735D01*
X1645352Y-920846D01*
X1648819Y-919402D01*
X1652286Y-919402D01*
X1655752Y-920846D01*
X1657486Y-923735D01*
G54D10*
X1679442Y-923735D02*
X1679442Y-938179D01*
X1677708Y-941068D01*
X1674242Y-942512D01*
X1670775Y-942512D01*
X1667308Y-941068D01*
X1665575Y-938179D01*
X1665575Y-923735D01*
X1667308Y-920846D01*
X1670775Y-919402D01*
X1674242Y-919402D01*
X1677708Y-920846D01*
X1679442Y-923735D01*
G54D10*
X1687531Y-942512D02*
X1687531Y-919402D01*
X1701398Y-942512D01*
X1701398Y-919402D01*
G54D10*
X1709487Y-942512D02*
X1709487Y-919402D01*
X1723354Y-942512D01*
X1723354Y-919402D01*
G54D10*
X1743576Y-942512D02*
X1731443Y-942512D01*
X1731443Y-919402D01*
X1743576Y-919402D01*
G54D10*
X1731443Y-930957D02*
X1743576Y-930957D01*
G54D10*
X1758598Y-942512D02*
X1758598Y-919402D01*
G54D10*
X1751665Y-919402D02*
X1765532Y-919402D01*
G54D10*
X1780554Y-942512D02*
X1780554Y-919402D01*
G54D10*
X1773621Y-919402D02*
X1787488Y-919402D01*
G54D10*
X1809444Y-923735D02*
X1809444Y-938179D01*
X1807710Y-941068D01*
X1804244Y-942512D01*
X1800777Y-942512D01*
X1797310Y-941068D01*
X1795577Y-938179D01*
X1795577Y-923735D01*
X1797310Y-920846D01*
X1800777Y-919402D01*
X1804244Y-919402D01*
X1807710Y-920846D01*
X1809444Y-923735D01*
G54D10*
X1824466Y-930957D02*
X1829666Y-933846D01*
X1831400Y-936735D01*
X1831400Y-942512D01*
G54D10*
X1817533Y-942512D02*
X1817533Y-919402D01*
X1826200Y-919402D01*
X1829666Y-920846D01*
X1831400Y-923735D01*
X1831400Y-926624D01*
X1829666Y-929512D01*
X1826200Y-930957D01*
X1817533Y-930957D01*
G54D10*
X1851622Y-942512D02*
X1839489Y-942512D01*
X1839489Y-919402D01*
X1851622Y-919402D01*
G54D10*
X1839489Y-930957D02*
X1851622Y-930957D01*
G54D10*
X1868147Y-942512D02*
X1868147Y-919402D01*
X1876814Y-919402D01*
X1880280Y-920846D01*
X1882014Y-923735D01*
X1882014Y-926624D01*
X1880280Y-929512D01*
X1876814Y-930957D01*
X1880280Y-932402D01*
X1882014Y-935290D01*
X1882014Y-938179D01*
X1880280Y-941068D01*
X1876814Y-942512D01*
X1868147Y-942512D01*
G54D10*
X1868147Y-930957D02*
X1876814Y-930957D01*
G54D11*
X1235224Y-1235291D02*
X1243757Y-1235291D01*
G54D11*
X1239490Y-1231736D02*
X1239490Y-1238846D01*
G54D11*
X1257268Y-1227291D02*
X1248734Y-1227291D01*
X1248734Y-1233513D01*
X1249801Y-1233513D01*
X1251934Y-1232624D01*
X1254068Y-1232624D01*
X1256201Y-1233513D01*
X1257268Y-1235291D01*
X1257268Y-1238846D01*
X1256201Y-1240624D01*
X1254068Y-1241513D01*
X1251934Y-1241513D01*
X1249801Y-1240624D01*
X1248734Y-1238846D01*
G54D11*
X1262246Y-1227291D02*
X1267579Y-1241513D01*
X1272912Y-1227291D01*
G54D11*
X1285104Y-1234370D02*
X1293637Y-1234370D01*
G54D11*
X1289370Y-1230814D02*
X1289370Y-1237925D01*
G54D11*
X1298614Y-1231703D02*
X1303948Y-1226370D01*
X1303948Y-1240592D01*
G54D11*
X1317459Y-1240592D02*
X1308926Y-1240592D01*
X1308926Y-1239703D01*
X1309992Y-1237925D01*
X1316392Y-1232592D01*
X1317459Y-1230814D01*
X1317459Y-1229036D01*
X1316392Y-1227259D01*
X1314259Y-1226370D01*
X1312126Y-1226370D01*
X1309992Y-1227259D01*
X1308926Y-1229036D01*
G54D11*
X1322436Y-1226370D02*
X1327770Y-1240592D01*
X1333103Y-1226370D01*
G54D11*
X1342348Y-1233372D02*
X1350882Y-1233372D01*
G54D11*
X1355859Y-1230705D02*
X1361193Y-1225372D01*
X1361193Y-1239594D01*
G54D11*
X1374704Y-1239594D02*
X1366170Y-1239594D01*
X1366170Y-1238705D01*
X1367237Y-1236928D01*
X1373637Y-1231594D01*
X1374704Y-1229816D01*
X1374704Y-1228039D01*
X1373637Y-1226261D01*
X1371504Y-1225372D01*
X1369370Y-1225372D01*
X1367237Y-1226261D01*
X1366170Y-1228039D01*
G54D11*
X1379681Y-1225372D02*
X1385015Y-1239594D01*
X1390348Y-1225372D01*
G54D12*
X1234878Y-1150215D02*
X1237878Y-1151882D01*
X1238878Y-1153549D01*
X1238878Y-1156882D01*
G54D12*
X1230878Y-1156882D02*
X1230878Y-1143549D01*
X1235878Y-1143549D01*
X1237878Y-1144382D01*
X1238878Y-1146049D01*
X1238878Y-1147715D01*
X1237878Y-1149382D01*
X1235878Y-1150215D01*
X1230878Y-1150215D01*
G54D12*
X1250546Y-1143549D02*
X1242546Y-1143549D01*
X1242546Y-1149382D01*
X1243546Y-1149382D01*
X1245546Y-1148549D01*
X1247546Y-1148549D01*
X1249546Y-1149382D01*
X1250546Y-1151049D01*
X1250546Y-1154382D01*
X1249546Y-1156049D01*
X1247546Y-1156882D01*
X1245546Y-1156882D01*
X1243546Y-1156049D01*
X1242546Y-1154382D01*
G54D12*
X1266946Y-1150215D02*
X1264946Y-1150215D01*
X1262946Y-1149382D01*
X1261946Y-1147715D01*
X1261946Y-1146049D01*
X1262946Y-1144382D01*
X1264946Y-1143549D01*
X1266946Y-1143549D01*
X1268946Y-1144382D01*
X1269946Y-1146049D01*
X1269946Y-1147715D01*
X1268946Y-1149382D01*
X1266946Y-1150215D01*
X1268946Y-1151049D01*
X1269946Y-1152715D01*
X1269946Y-1154382D01*
X1268946Y-1156049D01*
X1266946Y-1156882D01*
X1264946Y-1156882D01*
X1262946Y-1156049D01*
X1261946Y-1154382D01*
X1261946Y-1152715D01*
X1262946Y-1151049D01*
X1264946Y-1150215D01*
G54D12*
X1281614Y-1156882D02*
X1273614Y-1156882D01*
X1273614Y-1156049D01*
X1274614Y-1154382D01*
X1280614Y-1149382D01*
X1281614Y-1147715D01*
X1281614Y-1146049D01*
X1280614Y-1144382D01*
X1278614Y-1143549D01*
X1276614Y-1143549D01*
X1274614Y-1144382D01*
X1273614Y-1146049D01*
G54D12*
X1293280Y-1146049D02*
X1293280Y-1154382D01*
X1292280Y-1156049D01*
X1290280Y-1156882D01*
X1288280Y-1156882D01*
X1286280Y-1156049D01*
X1285280Y-1154382D01*
X1285280Y-1146049D01*
X1286280Y-1144382D01*
X1288280Y-1143549D01*
X1290280Y-1143549D01*
X1292280Y-1144382D01*
X1293280Y-1146049D01*
G54D12*
X1300948Y-1150215D02*
X1303948Y-1151882D01*
X1304948Y-1153549D01*
X1304948Y-1156882D01*
G54D12*
X1296948Y-1156882D02*
X1296948Y-1143549D01*
X1301948Y-1143549D01*
X1303948Y-1144382D01*
X1304948Y-1146049D01*
X1304948Y-1147715D01*
X1303948Y-1149382D01*
X1301948Y-1150215D01*
X1296948Y-1150215D01*
G54D13*
G75*
G01X1302694Y-1169326D02*
G03X1332083Y-1169326I14695J-20225D01*
G01*
G54D13*
X1331689Y-1169351D02*
X1303089Y-1169351D01*
G54D13*
G75*
G01X1387003Y-1213706D02*
G03X1357614Y-1213706I-14695J20225D01*
G01*
G54D13*
X1358007Y-1213681D02*
X1386607Y-1213681D01*
G54D13*
G75*
G01X1244396Y-1168994D02*
G03X1273786Y-1168994I14695J-20226D01*
G01*
G54D13*
X1273391Y-1169020D02*
X1244791Y-1169020D01*
G54D14*
X1898386Y-1221462D02*
X1914386Y-1221462D01*
X1898386Y-1248129D01*
X1914386Y-1248129D01*
G54D14*
X1933719Y-1234796D02*
X1929719Y-1234796D01*
X1925719Y-1233129D01*
X1923719Y-1229796D01*
X1923719Y-1226462D01*
X1925719Y-1223129D01*
X1929719Y-1221462D01*
X1933719Y-1221462D01*
X1937719Y-1223129D01*
X1939719Y-1226462D01*
X1939719Y-1229796D01*
X1937719Y-1233129D01*
X1933719Y-1234796D01*
X1937719Y-1236462D01*
X1939719Y-1239796D01*
X1939719Y-1243129D01*
X1937719Y-1246462D01*
X1933719Y-1248129D01*
X1929719Y-1248129D01*
X1925719Y-1246462D01*
X1923719Y-1243129D01*
X1923719Y-1239796D01*
X1925719Y-1236462D01*
X1929719Y-1234796D01*
G54D14*
X1965052Y-1226462D02*
X1965052Y-1243129D01*
X1963052Y-1246462D01*
X1959052Y-1248129D01*
X1955052Y-1248129D01*
X1951052Y-1246462D01*
X1949052Y-1243129D01*
X1949052Y-1226462D01*
X1951052Y-1223129D01*
X1955052Y-1221462D01*
X1959052Y-1221462D01*
X1963052Y-1223129D01*
X1965052Y-1226462D01*
G54D14*
X1974385Y-1248129D02*
X1974385Y-1221462D01*
X1990385Y-1248129D01*
X1990385Y-1221462D01*
G54D14*
X2013718Y-1248129D02*
X1999718Y-1248129D01*
X1999718Y-1221462D01*
X2013718Y-1221462D01*
G54D14*
X1999718Y-1234796D02*
X2013718Y-1234796D01*
G54D14*
X2032784Y-1248129D02*
X2032784Y-1221462D01*
X2042784Y-1221462D01*
X2046784Y-1223129D01*
X2048784Y-1226462D01*
X2048784Y-1243129D01*
X2046784Y-1246462D01*
X2042784Y-1248129D01*
X2032784Y-1248129D01*
G54D14*
X2058117Y-1234796D02*
X2062117Y-1233129D01*
X2066917Y-1233129D01*
X2070117Y-1236462D01*
X2070117Y-1248129D01*
G54D14*
X2070117Y-1243129D02*
X2068117Y-1239796D01*
X2064117Y-1239129D01*
X2060117Y-1239796D01*
X2058117Y-1243129D01*
X2058917Y-1246462D01*
X2062117Y-1248129D01*
X2064117Y-1248129D01*
X2064917Y-1248129D01*
X2068117Y-1246462D01*
X2070117Y-1243129D01*
G54D14*
X2079450Y-1248129D02*
X2079450Y-1233129D01*
G54D14*
X2079450Y-1236462D02*
X2083450Y-1233129D01*
X2087450Y-1233129D01*
G54D14*
X2096783Y-1248129D02*
X2096783Y-1221462D01*
G54D14*
X2102783Y-1238129D02*
X2108783Y-1248129D01*
G54D14*
X2096783Y-1241462D02*
X2108783Y-1233129D01*
G54D14*
X2118116Y-1243129D02*
X2120116Y-1246462D01*
X2124116Y-1248129D01*
X2128116Y-1248129D01*
X2132116Y-1246462D01*
X2134116Y-1243129D01*
X2134116Y-1239796D01*
X2132116Y-1236462D01*
X2128116Y-1234796D01*
X2124116Y-1234796D01*
X2120116Y-1233129D01*
X2118116Y-1229796D01*
X2118116Y-1226462D01*
X2120116Y-1223129D01*
X2124116Y-1221462D01*
X2128116Y-1221462D01*
X2132116Y-1223129D01*
X2134116Y-1226462D01*
G54D14*
X2147449Y-1221462D02*
X2147449Y-1246462D01*
X2149449Y-1248129D01*
X2151449Y-1247462D01*
G54D14*
X2143449Y-1233129D02*
X2151449Y-1233129D01*
G54D14*
X2160782Y-1234796D02*
X2164782Y-1233129D01*
X2169582Y-1233129D01*
X2172782Y-1236462D01*
X2172782Y-1248129D01*
G54D14*
X2172782Y-1243129D02*
X2170782Y-1239796D01*
X2166782Y-1239129D01*
X2162782Y-1239796D01*
X2160782Y-1243129D01*
X2161582Y-1246462D01*
X2164782Y-1248129D01*
X2166782Y-1248129D01*
X2167582Y-1248129D01*
X2170782Y-1246462D01*
X2172782Y-1243129D01*
G54D14*
X2182115Y-1248129D02*
X2182115Y-1233129D01*
G54D14*
X2182115Y-1236462D02*
X2186115Y-1233129D01*
X2190115Y-1233129D01*
G54D14*
X2279412Y-1248900D02*
X2279412Y-1222234D01*
X2289412Y-1222234D01*
X2293412Y-1223900D01*
X2295412Y-1227234D01*
X2295412Y-1230566D01*
X2293412Y-1233900D01*
X2289412Y-1235566D01*
X2293412Y-1237234D01*
X2295412Y-1240566D01*
X2295412Y-1243900D01*
X2293412Y-1247234D01*
X2289412Y-1248900D01*
X2279412Y-1248900D01*
G54D14*
X2279412Y-1235566D02*
X2289412Y-1235566D01*
G54D14*
X2304746Y-1222234D02*
X2304746Y-1243900D01*
X2306746Y-1247234D01*
X2310746Y-1248900D01*
X2314746Y-1248900D01*
X2318746Y-1247234D01*
X2320746Y-1243900D01*
X2320746Y-1222234D01*
G54D14*
X2330078Y-1243900D02*
X2332078Y-1247234D01*
X2336078Y-1248900D01*
X2340078Y-1248900D01*
X2344078Y-1247234D01*
X2346078Y-1243900D01*
X2346078Y-1240566D01*
X2344078Y-1237234D01*
X2340078Y-1235566D01*
X2336078Y-1235566D01*
X2332078Y-1233900D01*
X2330078Y-1230566D01*
X2330078Y-1227234D01*
X2332078Y-1223900D01*
X2336078Y-1222234D01*
X2340078Y-1222234D01*
X2344078Y-1223900D01*
X2346078Y-1227234D01*
G54D14*
X2365144Y-1248900D02*
X2365144Y-1222234D01*
X2375144Y-1222234D01*
X2379144Y-1223900D01*
X2381144Y-1227234D01*
X2381144Y-1230566D01*
X2379144Y-1233900D01*
X2375144Y-1235566D01*
X2379144Y-1237234D01*
X2381144Y-1240566D01*
X2381144Y-1243900D01*
X2379144Y-1247234D01*
X2375144Y-1248900D01*
X2365144Y-1248900D01*
G54D14*
X2365144Y-1235566D02*
X2375144Y-1235566D01*
G54D14*
X2402478Y-1244900D02*
X2402478Y-1238234D01*
X2400478Y-1234900D01*
X2396478Y-1233900D01*
X2392478Y-1234900D01*
X2390478Y-1238234D01*
X2390478Y-1244900D01*
X2392478Y-1248234D01*
X2396478Y-1248900D01*
X2400478Y-1248234D01*
X2402478Y-1244900D01*
G54D14*
X2411810Y-1235566D02*
X2415810Y-1233900D01*
X2420610Y-1233900D01*
X2423810Y-1237234D01*
X2423810Y-1248900D01*
G54D14*
X2423810Y-1243900D02*
X2421810Y-1240566D01*
X2417810Y-1239900D01*
X2413810Y-1240566D01*
X2411810Y-1243900D01*
X2412610Y-1247234D01*
X2415810Y-1248900D01*
X2417810Y-1248900D01*
X2418610Y-1248900D01*
X2421810Y-1247234D01*
X2423810Y-1243900D01*
G54D14*
X2433144Y-1248900D02*
X2433144Y-1233900D01*
G54D14*
X2433144Y-1237234D02*
X2437144Y-1233900D01*
X2441144Y-1233900D01*
G54D14*
X2462476Y-1248900D02*
X2462476Y-1222234D01*
G54D14*
X2462476Y-1238234D02*
X2460476Y-1234900D01*
X2456476Y-1233900D01*
X2452476Y-1234900D01*
X2450476Y-1238234D01*
X2450476Y-1244900D01*
X2452476Y-1248234D01*
X2456476Y-1248900D01*
X2460476Y-1248234D01*
X2462476Y-1244900D01*
G54D14*
X2481542Y-1248900D02*
X2481542Y-1233900D01*
G54D14*
X2481542Y-1237234D02*
X2485542Y-1233900D01*
X2489542Y-1233900D01*
G54D14*
X2510876Y-1247234D02*
X2507676Y-1248900D01*
X2503676Y-1248900D01*
X2499676Y-1247234D01*
X2498876Y-1243900D01*
X2498876Y-1238234D01*
X2500876Y-1234900D01*
X2504876Y-1233900D01*
X2508876Y-1234900D01*
X2510876Y-1237234D01*
X2510876Y-1240566D01*
X2498876Y-1240566D01*
G54D14*
X2520208Y-1233900D02*
X2528208Y-1248900D01*
X2536208Y-1233900D01*
G54D14*
X2545542Y-1248900D02*
X2545542Y-1248900D01*
G54D14*
X2564608Y-1232234D02*
X2574608Y-1222234D01*
X2574608Y-1248900D01*
G54D14*
X2583940Y-1248900D02*
X2583940Y-1248900D01*
G54D14*
X2609274Y-1227234D02*
X2609274Y-1243900D01*
X2607274Y-1247234D01*
X2603274Y-1248900D01*
X2599274Y-1248900D01*
X2595274Y-1247234D01*
X2593274Y-1243900D01*
X2593274Y-1227234D01*
X2595274Y-1223900D01*
X2599274Y-1222234D01*
X2603274Y-1222234D01*
X2607274Y-1223900D01*
X2609274Y-1227234D01*
G36*
X2217500Y-1255250D02*
X2231788Y-1213975D01*
X2246075Y-1255250D01*
X2231788Y-1247312D01*
X2217500Y-1255250D01*
G37*
G54D15*
X2217500Y-1255250D02*
X2231788Y-1213975D01*
X2246075Y-1255250D01*
X2231788Y-1247312D01*
X2217500Y-1255250D01*
G36*
X2208602Y-1231392D02*
X2254932Y-1231388D01*
X2219938Y-1252751D01*
X2224264Y-1239606D01*
X2208602Y-1231392D01*
G37*
G54D15*
X2208602Y-1231392D02*
X2254932Y-1231388D01*
X2219938Y-1252751D01*
X2224264Y-1239606D01*
X2208602Y-1231392D01*
G54D16*
X507868Y945146D02*
X768218Y945146D01*
X768218Y837196D01*
X507868Y837196D01*
X507868Y945146D01*
G54D15*
X1173753Y-1138082D02*
X1173754Y-1157082D01*
X1116703Y-1157082D01*
X1116704Y-1138082D01*
X1173753Y-1138082D01*
G54D15*
X1173853Y-1147582D02*
X1200804Y-1147582D01*
G54D15*
X1086478Y-1147582D02*
X1116604Y-1147582D01*
G54D15*
X1173753Y-1106332D02*
X1173754Y-1125332D01*
X1116703Y-1125332D01*
X1116704Y-1106332D01*
X1173753Y-1106332D01*
G54D15*
X1173853Y-1115832D02*
X1200803Y-1115832D01*
G54D15*
X1086478Y-1115832D02*
X1116603Y-1115832D01*
G54D15*
X1173753Y-1169832D02*
X1173753Y-1188832D01*
X1116704Y-1188832D01*
X1116704Y-1169832D01*
X1173753Y-1169832D01*
G54D15*
X1173853Y-1179332D02*
X1200804Y-1179332D01*
G54D15*
X1086478Y-1179332D02*
X1116603Y-1179332D01*
G54D12*
X1235274Y-1117493D02*
X1238274Y-1119160D01*
X1239274Y-1120826D01*
X1239274Y-1124160D01*
G54D12*
X1231274Y-1124160D02*
X1231274Y-1110826D01*
X1236274Y-1110826D01*
X1238274Y-1111660D01*
X1239274Y-1113326D01*
X1239274Y-1114993D01*
X1238274Y-1116660D01*
X1236274Y-1117493D01*
X1231274Y-1117493D01*
G54D12*
X1250941Y-1113326D02*
X1249941Y-1111660D01*
X1247941Y-1110826D01*
X1245941Y-1110826D01*
X1243941Y-1111660D01*
X1242941Y-1113326D01*
X1242941Y-1117493D01*
X1242941Y-1118326D01*
X1245941Y-1116660D01*
X1247941Y-1116660D01*
X1249941Y-1117493D01*
X1250941Y-1119160D01*
X1250941Y-1121660D01*
X1249941Y-1123326D01*
X1247941Y-1124160D01*
X1245941Y-1124160D01*
X1243941Y-1123326D01*
X1242941Y-1121660D01*
X1242941Y-1117493D01*
G54D12*
X1267342Y-1117493D02*
X1265342Y-1117493D01*
X1263342Y-1116660D01*
X1262342Y-1114993D01*
X1262342Y-1113326D01*
X1263342Y-1111660D01*
X1265342Y-1110826D01*
X1267342Y-1110826D01*
X1269342Y-1111660D01*
X1270342Y-1113326D01*
X1270342Y-1114993D01*
X1269342Y-1116660D01*
X1267342Y-1117493D01*
X1269342Y-1118326D01*
X1270342Y-1119993D01*
X1270342Y-1121660D01*
X1269342Y-1123326D01*
X1267342Y-1124160D01*
X1265342Y-1124160D01*
X1263342Y-1123326D01*
X1262342Y-1121660D01*
X1262342Y-1119993D01*
X1263342Y-1118326D01*
X1265342Y-1117493D01*
G54D12*
X1282009Y-1124160D02*
X1274009Y-1124160D01*
X1274009Y-1123326D01*
X1275009Y-1121660D01*
X1281009Y-1116660D01*
X1282009Y-1114993D01*
X1282009Y-1113326D01*
X1281009Y-1111660D01*
X1279009Y-1110826D01*
X1277009Y-1110826D01*
X1275009Y-1111660D01*
X1274009Y-1113326D01*
G54D12*
X1293676Y-1113326D02*
X1293676Y-1121660D01*
X1292676Y-1123326D01*
X1290676Y-1124160D01*
X1288676Y-1124160D01*
X1286676Y-1123326D01*
X1285676Y-1121660D01*
X1285676Y-1113326D01*
X1286676Y-1111660D01*
X1288676Y-1110826D01*
X1290676Y-1110826D01*
X1292676Y-1111660D01*
X1293676Y-1113326D01*
G54D12*
X1301343Y-1117493D02*
X1304343Y-1119160D01*
X1305343Y-1120826D01*
X1305343Y-1124160D01*
G54D12*
X1297343Y-1124160D02*
X1297343Y-1110826D01*
X1302343Y-1110826D01*
X1304343Y-1111660D01*
X1305343Y-1113326D01*
X1305343Y-1114993D01*
X1304343Y-1116660D01*
X1302343Y-1117493D01*
X1297343Y-1117493D01*
G54D12*
X1114624Y-1199194D02*
X1117624Y-1200861D01*
X1118624Y-1202528D01*
X1118624Y-1205861D01*
G54D12*
X1110624Y-1205861D02*
X1110624Y-1192528D01*
X1115624Y-1192528D01*
X1117624Y-1193361D01*
X1118624Y-1195028D01*
X1118624Y-1196694D01*
X1117624Y-1198361D01*
X1115624Y-1199194D01*
X1110624Y-1199194D01*
G54D12*
X1128290Y-1205861D02*
X1128290Y-1192528D01*
X1122290Y-1200861D01*
X1122290Y-1202528D01*
X1130290Y-1202528D01*
G54D12*
X1149692Y-1205861D02*
X1141692Y-1205861D01*
X1141692Y-1205028D01*
X1142692Y-1203361D01*
X1148692Y-1198361D01*
X1149692Y-1196694D01*
X1149692Y-1195028D01*
X1148692Y-1193361D01*
X1146692Y-1192528D01*
X1144692Y-1192528D01*
X1142692Y-1193361D01*
X1141692Y-1195028D01*
G54D12*
X1161358Y-1205861D02*
X1153358Y-1205861D01*
X1153358Y-1205028D01*
X1154358Y-1203361D01*
X1160358Y-1198361D01*
X1161358Y-1196694D01*
X1161358Y-1195028D01*
X1160358Y-1193361D01*
X1158358Y-1192528D01*
X1156358Y-1192528D01*
X1154358Y-1193361D01*
X1153358Y-1195028D01*
G54D12*
X1173026Y-1195028D02*
X1173026Y-1203361D01*
X1172026Y-1205028D01*
X1170026Y-1205861D01*
X1168026Y-1205861D01*
X1166026Y-1205028D01*
X1165026Y-1203361D01*
X1165026Y-1195028D01*
X1166026Y-1193361D01*
X1168026Y-1192528D01*
X1170026Y-1192528D01*
X1172026Y-1193361D01*
X1173026Y-1195028D01*
G54D12*
X1180692Y-1199194D02*
X1183692Y-1200861D01*
X1184692Y-1202528D01*
X1184692Y-1205861D01*
G54D12*
X1176692Y-1205861D02*
X1176692Y-1192528D01*
X1181692Y-1192528D01*
X1183692Y-1193361D01*
X1184692Y-1195028D01*
X1184692Y-1196694D01*
X1183692Y-1198361D01*
X1181692Y-1199194D01*
X1176692Y-1199194D01*
G54D17*
X567646Y751723D02*
X567646Y762390D01*
G54D17*
X563201Y757056D02*
X572090Y757056D01*
G54D17*
X557646Y779278D02*
X557646Y768612D01*
X565424Y768612D01*
X565424Y769945D01*
X564312Y772612D01*
X564312Y775278D01*
X565424Y777945D01*
X567646Y779278D01*
X572090Y779278D01*
X574312Y777945D01*
X575424Y775278D01*
X575424Y772612D01*
X574312Y769945D01*
X572090Y768612D01*
G54D17*
X557646Y785501D02*
X575424Y792168D01*
X557646Y798834D01*
G54D15*
X599838Y786275D02*
X631588Y786275D01*
G54D15*
X603012Y779925D02*
X628412Y779925D01*
G54D15*
X606188Y773575D02*
X625238Y773575D01*
G54D15*
X609362Y767225D02*
X622062Y767225D01*
G54D15*
X612538Y760875D02*
X618888Y760875D01*
G54D15*
X615712Y786275D02*
X615712Y798975D01*
G54D17*
X663956Y760186D02*
X663956Y770853D01*
G54D17*
X659512Y765520D02*
X668401Y765520D01*
G54D17*
X660623Y777076D02*
X653956Y783742D01*
X671734Y783742D01*
G54D17*
X671734Y800631D02*
X671734Y789964D01*
X670623Y789964D01*
X668401Y791298D01*
X661734Y799298D01*
X659512Y800631D01*
X657290Y800631D01*
X655067Y799298D01*
X653956Y796631D01*
X653956Y793964D01*
X655067Y791298D01*
X657290Y789964D01*
G54D17*
X653956Y806854D02*
X671734Y813520D01*
X653956Y820187D01*
G54D17*
X712138Y756456D02*
X712138Y767123D01*
G54D17*
X708805Y779834D02*
X702138Y786501D01*
X719916Y786501D01*
G54D17*
X719916Y803390D02*
X719916Y792723D01*
X718805Y792723D01*
X716583Y794056D01*
X709916Y802056D01*
X707694Y803390D01*
X705472Y803390D01*
X703250Y802056D01*
X702138Y799390D01*
X702138Y796723D01*
X703250Y794056D01*
X705472Y792723D01*
G54D17*
X702138Y809612D02*
X719916Y816279D01*
X702138Y822945D01*
G54D18*
X1408669Y-1099675D02*
X1408669Y-1079230D01*
X1416335Y-1079230D01*
X1419402Y-1080508D01*
X1420935Y-1083064D01*
X1420935Y-1085620D01*
X1419402Y-1088175D01*
X1416335Y-1089453D01*
X1419402Y-1090730D01*
X1420935Y-1093286D01*
X1420935Y-1095842D01*
X1419402Y-1098398D01*
X1416335Y-1099675D01*
X1408669Y-1099675D01*
G54D18*
X1408669Y-1089453D02*
X1416335Y-1089453D01*
G54D18*
X2059544Y-1099675D02*
X2059544Y-1079230D01*
X2067210Y-1079230D01*
X2070277Y-1080508D01*
X2071810Y-1083064D01*
X2071810Y-1085620D01*
X2070277Y-1088175D01*
X2067210Y-1089453D01*
X2070277Y-1090730D01*
X2071810Y-1093286D01*
X2071810Y-1095842D01*
X2070277Y-1098398D01*
X2067210Y-1099675D01*
X2059544Y-1099675D01*
G54D18*
X2059544Y-1089453D02*
X2067210Y-1089453D01*
G54D19*
X2032110Y-1039350D02*
X2021444Y-1039350D01*
X2021444Y-1038239D01*
X2022777Y-1036017D01*
X2030777Y-1029350D01*
X2032110Y-1027128D01*
X2032110Y-1024906D01*
X2030777Y-1022683D01*
X2028110Y-1021572D01*
X2025444Y-1021572D01*
X2022777Y-1022683D01*
X2021444Y-1024906D01*
G54D19*
X2045000Y-1039350D02*
X2045000Y-1021572D01*
X2037000Y-1032683D01*
X2037000Y-1034906D01*
X2047666Y-1034906D01*
G54D13*
X148988Y-1053638D02*
X2152412Y-1056812D01*
X2152412Y-1067925D01*
X148988Y-1067925D01*
X148988Y-1053638D01*
G54D15*
X1430894Y-1069512D02*
X2046844Y-1069512D01*
X2046844Y-1096500D01*
X1430894Y-1096500D01*
X1430894Y-1069512D01*
G54D19*
X272812Y-1028239D02*
X279479Y-1021572D01*
X279479Y-1039350D01*
G54D15*
X263288Y-1069512D02*
X877650Y-1069512D01*
X877650Y-1096500D01*
X263288Y-1096500D01*
X263288Y-1069512D01*
G54D19*
X858154Y-1039350D02*
X847488Y-1039350D01*
X847488Y-1038239D01*
X848821Y-1036017D01*
X856821Y-1029350D01*
X858154Y-1027128D01*
X858154Y-1024906D01*
X856821Y-1022683D01*
X854154Y-1021572D01*
X851488Y-1021572D01*
X848821Y-1022683D01*
X847488Y-1024906D01*
G54D19*
X871044Y-1039350D02*
X871044Y-1021572D01*
X863044Y-1032683D01*
X863044Y-1034906D01*
X873710Y-1034906D01*
G54D17*
X227775Y-1095166D02*
X234442Y-1077389D01*
X241108Y-1095166D01*
G54D17*
X230442Y-1088500D02*
X238442Y-1088500D01*
G54D18*
X893525Y-1099675D02*
X901192Y-1079230D01*
X908858Y-1099675D01*
G54D18*
X896592Y-1092008D02*
X905792Y-1092008D01*
G54D14*
X1093550Y-1094675D02*
X1094883Y-1098008D01*
X1097550Y-1099675D01*
X1100217Y-1099675D01*
X1102883Y-1098008D01*
X1104217Y-1094675D01*
X1104217Y-1091342D01*
X1102883Y-1088008D01*
X1100217Y-1086342D01*
X1097550Y-1086342D01*
X1094883Y-1084675D01*
X1093550Y-1081342D01*
X1093550Y-1078008D01*
X1094883Y-1074675D01*
X1097550Y-1073008D01*
X1100217Y-1073008D01*
X1102883Y-1074675D01*
X1104217Y-1078008D01*
G54D14*
X1113550Y-1073008D02*
X1113550Y-1099675D01*
X1122883Y-1099675D01*
G54D14*
X1142883Y-1078008D02*
X1142883Y-1094675D01*
X1141549Y-1098008D01*
X1138883Y-1099675D01*
X1136216Y-1099675D01*
X1133549Y-1098008D01*
X1132216Y-1094675D01*
X1132216Y-1078008D01*
X1133549Y-1074675D01*
X1136216Y-1073008D01*
X1138883Y-1073008D01*
X1141549Y-1074675D01*
X1142883Y-1078008D01*
G54D14*
X1157549Y-1099675D02*
X1157549Y-1073008D01*
G54D14*
X1152216Y-1073008D02*
X1162883Y-1073008D01*
G54D14*
X1192483Y-1078008D02*
X1192483Y-1094675D01*
X1191149Y-1098008D01*
X1188483Y-1099675D01*
X1185816Y-1099675D01*
X1183149Y-1098008D01*
X1181816Y-1094675D01*
X1181816Y-1078008D01*
X1183149Y-1074675D01*
X1185816Y-1073008D01*
X1188483Y-1073008D01*
X1191149Y-1074675D01*
X1192483Y-1078008D01*
G54D14*
X1090375Y-859725D02*
X1091708Y-863058D01*
X1094375Y-864725D01*
X1097042Y-864725D01*
X1099708Y-863058D01*
X1101042Y-859725D01*
X1101042Y-856392D01*
X1099708Y-853058D01*
X1097042Y-851392D01*
X1094375Y-851392D01*
X1091708Y-849725D01*
X1090375Y-846392D01*
X1090375Y-843058D01*
X1091708Y-839725D01*
X1094375Y-838058D01*
X1097042Y-838058D01*
X1099708Y-839725D01*
X1101042Y-843058D01*
G54D14*
X1110375Y-838058D02*
X1110375Y-864725D01*
X1119708Y-864725D01*
G54D14*
X1139708Y-843058D02*
X1139708Y-859725D01*
X1138374Y-863058D01*
X1135708Y-864725D01*
X1133041Y-864725D01*
X1130374Y-863058D01*
X1129041Y-859725D01*
X1129041Y-843058D01*
X1130374Y-839725D01*
X1133041Y-838058D01*
X1135708Y-838058D01*
X1138374Y-839725D01*
X1139708Y-843058D01*
G54D14*
X1154374Y-864725D02*
X1154374Y-838058D01*
G54D14*
X1149041Y-838058D02*
X1159708Y-838058D01*
G54D14*
X1178641Y-848058D02*
X1185308Y-838058D01*
X1185308Y-864725D01*
G54D14*
X1091962Y-612075D02*
X1093296Y-615408D01*
X1095962Y-617075D01*
X1098629Y-617075D01*
X1101296Y-615408D01*
X1102629Y-612075D01*
X1102629Y-608742D01*
X1101296Y-605408D01*
X1098629Y-603742D01*
X1095962Y-603742D01*
X1093296Y-602075D01*
X1091962Y-598742D01*
X1091962Y-595408D01*
X1093296Y-592075D01*
X1095962Y-590408D01*
X1098629Y-590408D01*
X1101296Y-592075D01*
X1102629Y-595408D01*
G54D14*
X1111962Y-590408D02*
X1111962Y-617075D01*
X1121296Y-617075D01*
G54D14*
X1141295Y-595408D02*
X1141295Y-612075D01*
X1139962Y-615408D01*
X1137295Y-617075D01*
X1134628Y-617075D01*
X1131962Y-615408D01*
X1130628Y-612075D01*
X1130628Y-595408D01*
X1131962Y-592075D01*
X1134628Y-590408D01*
X1137295Y-590408D01*
X1139962Y-592075D01*
X1141295Y-595408D01*
G54D14*
X1155962Y-617075D02*
X1155962Y-590408D01*
G54D14*
X1150628Y-590408D02*
X1161295Y-590408D01*
G54D14*
X1190895Y-617075D02*
X1180228Y-617075D01*
X1180228Y-615408D01*
X1181562Y-612075D01*
X1189562Y-602075D01*
X1190895Y-598742D01*
X1190895Y-595408D01*
X1189562Y-592075D01*
X1186895Y-590408D01*
X1184228Y-590408D01*
X1181562Y-592075D01*
X1180228Y-595408D01*
G54D14*
X1096725Y-364425D02*
X1098058Y-367758D01*
X1100725Y-369425D01*
X1103392Y-369425D01*
X1106058Y-367758D01*
X1107392Y-364425D01*
X1107392Y-361092D01*
X1106058Y-357758D01*
X1103392Y-356092D01*
X1100725Y-356092D01*
X1098058Y-354425D01*
X1096725Y-351092D01*
X1096725Y-347758D01*
X1098058Y-344425D01*
X1100725Y-342758D01*
X1103392Y-342758D01*
X1106058Y-344425D01*
X1107392Y-347758D01*
G54D14*
X1116725Y-342758D02*
X1116725Y-369425D01*
X1126058Y-369425D01*
G54D14*
X1146058Y-347758D02*
X1146058Y-364425D01*
X1144724Y-367758D01*
X1142058Y-369425D01*
X1139391Y-369425D01*
X1136724Y-367758D01*
X1135391Y-364425D01*
X1135391Y-347758D01*
X1136724Y-344425D01*
X1139391Y-342758D01*
X1142058Y-342758D01*
X1144724Y-344425D01*
X1146058Y-347758D01*
G54D14*
X1160724Y-369425D02*
X1160724Y-342758D01*
G54D14*
X1155391Y-342758D02*
X1166058Y-342758D01*
G54D14*
X1184991Y-347758D02*
X1186324Y-344425D01*
X1188991Y-342758D01*
X1191658Y-342758D01*
X1194324Y-344425D01*
X1195658Y-347758D01*
X1195658Y-351092D01*
X1194324Y-354425D01*
X1191658Y-356092D01*
X1194324Y-357758D01*
X1195658Y-361092D01*
X1195658Y-364425D01*
X1194324Y-367758D01*
X1191658Y-369425D01*
X1188991Y-369425D01*
X1186324Y-367758D01*
X1184991Y-364425D01*
G54D14*
X1096725Y-119950D02*
X1098058Y-123283D01*
X1100725Y-124950D01*
X1103392Y-124950D01*
X1106058Y-123283D01*
X1107392Y-119950D01*
X1107392Y-116617D01*
X1106058Y-113283D01*
X1103392Y-111617D01*
X1100725Y-111617D01*
X1098058Y-109950D01*
X1096725Y-106617D01*
X1096725Y-103283D01*
X1098058Y-99950D01*
X1100725Y-98283D01*
X1103392Y-98283D01*
X1106058Y-99950D01*
X1107392Y-103283D01*
G54D14*
X1116725Y-98283D02*
X1116725Y-124950D01*
X1126058Y-124950D01*
G54D14*
X1146058Y-103283D02*
X1146058Y-119950D01*
X1144724Y-123283D01*
X1142058Y-124950D01*
X1139391Y-124950D01*
X1136724Y-123283D01*
X1135391Y-119950D01*
X1135391Y-103283D01*
X1136724Y-99950D01*
X1139391Y-98283D01*
X1142058Y-98283D01*
X1144724Y-99950D01*
X1146058Y-103283D01*
G54D14*
X1160724Y-124950D02*
X1160724Y-98283D01*
G54D14*
X1155391Y-98283D02*
X1166058Y-98283D01*
G54D14*
X1192991Y-124950D02*
X1192991Y-98283D01*
X1184991Y-114950D01*
X1184991Y-118283D01*
X1195658Y-118283D01*
G54D14*
X1099900Y130875D02*
X1101233Y127542D01*
X1103900Y125875D01*
X1106567Y125875D01*
X1109233Y127542D01*
X1110567Y130875D01*
X1110567Y134208D01*
X1109233Y137542D01*
X1106567Y139208D01*
X1103900Y139208D01*
X1101233Y140875D01*
X1099900Y144208D01*
X1099900Y147542D01*
X1101233Y150875D01*
X1103900Y152542D01*
X1106567Y152542D01*
X1109233Y150875D01*
X1110567Y147542D01*
G54D14*
X1119900Y152542D02*
X1119900Y125875D01*
X1129233Y125875D01*
G54D14*
X1149233Y147542D02*
X1149233Y130875D01*
X1147899Y127542D01*
X1145233Y125875D01*
X1142566Y125875D01*
X1139899Y127542D01*
X1138566Y130875D01*
X1138566Y147542D01*
X1139899Y150875D01*
X1142566Y152542D01*
X1145233Y152542D01*
X1147899Y150875D01*
X1149233Y147542D01*
G54D14*
X1163899Y125875D02*
X1163899Y152542D01*
G54D14*
X1158566Y152542D02*
X1169233Y152542D01*
G54D14*
X1198833Y152542D02*
X1188166Y152542D01*
X1188166Y140875D01*
X1189499Y140875D01*
X1192166Y142542D01*
X1194833Y142542D01*
X1197499Y140875D01*
X1198833Y137542D01*
X1198833Y130875D01*
X1197499Y127542D01*
X1194833Y125875D01*
X1192166Y125875D01*
X1189499Y127542D01*
X1188166Y130875D01*
G54D14*
X1099900Y378525D02*
X1101233Y375192D01*
X1103900Y373525D01*
X1106567Y373525D01*
X1109233Y375192D01*
X1110567Y378525D01*
X1110567Y381858D01*
X1109233Y385192D01*
X1106567Y386858D01*
X1103900Y386858D01*
X1101233Y388525D01*
X1099900Y391858D01*
X1099900Y395192D01*
X1101233Y398525D01*
X1103900Y400192D01*
X1106567Y400192D01*
X1109233Y398525D01*
X1110567Y395192D01*
G54D14*
X1119900Y400192D02*
X1119900Y373525D01*
X1129233Y373525D01*
G54D14*
X1149233Y395192D02*
X1149233Y378525D01*
X1147899Y375192D01*
X1145233Y373525D01*
X1142566Y373525D01*
X1139899Y375192D01*
X1138566Y378525D01*
X1138566Y395192D01*
X1139899Y398525D01*
X1142566Y400192D01*
X1145233Y400192D01*
X1147899Y398525D01*
X1149233Y395192D01*
G54D14*
X1163899Y373525D02*
X1163899Y400192D01*
G54D14*
X1158566Y400192D02*
X1169233Y400192D01*
G54D14*
X1198833Y395192D02*
X1197499Y398525D01*
X1194833Y400192D01*
X1192166Y400192D01*
X1189499Y398525D01*
X1188166Y395192D01*
X1188166Y386858D01*
X1188166Y385192D01*
X1192166Y388525D01*
X1194833Y388525D01*
X1197499Y386858D01*
X1198833Y383525D01*
X1198833Y378525D01*
X1197499Y375192D01*
X1194833Y373525D01*
X1192166Y373525D01*
X1189499Y375192D01*
X1188166Y378525D01*
X1188166Y386858D01*
G54D14*
X1103075Y629350D02*
X1104408Y626017D01*
X1107075Y624350D01*
X1109742Y624350D01*
X1112408Y626017D01*
X1113742Y629350D01*
X1113742Y632683D01*
X1112408Y636017D01*
X1109742Y637683D01*
X1107075Y637683D01*
X1104408Y639350D01*
X1103075Y642683D01*
X1103075Y646017D01*
X1104408Y649350D01*
X1107075Y651017D01*
X1109742Y651017D01*
X1112408Y649350D01*
X1113742Y646017D01*
G54D14*
X1123075Y651017D02*
X1123075Y624350D01*
X1132408Y624350D01*
G54D14*
X1152408Y646017D02*
X1152408Y629350D01*
X1151074Y626017D01*
X1148408Y624350D01*
X1145741Y624350D01*
X1143074Y626017D01*
X1141741Y629350D01*
X1141741Y646017D01*
X1143074Y649350D01*
X1145741Y651017D01*
X1148408Y651017D01*
X1151074Y649350D01*
X1152408Y646017D01*
G54D14*
X1167074Y624350D02*
X1167074Y651017D01*
G54D14*
X1161741Y651017D02*
X1172408Y651017D01*
G54D14*
X1191341Y651017D02*
X1202008Y651017D01*
X1200674Y647683D01*
X1198008Y642683D01*
X1195341Y636017D01*
X1194008Y631017D01*
X1194008Y624350D01*
G54D12*
X278883Y-1169525D02*
X280550Y-1168525D01*
X281383Y-1166525D01*
X281383Y-1164525D01*
X280550Y-1162525D01*
X278883Y-1161525D01*
X277216Y-1161525D01*
X275550Y-1162525D01*
X274716Y-1164525D01*
X274716Y-1166525D01*
X273883Y-1168525D01*
X272216Y-1169525D01*
X270550Y-1169525D01*
X268883Y-1168525D01*
X268050Y-1166525D01*
X268050Y-1164525D01*
X268883Y-1162525D01*
X270550Y-1161525D01*
G54D12*
X306783Y-1162525D02*
X306783Y-1169525D01*
X293450Y-1169525D01*
X293450Y-1162525D01*
G54D12*
X300116Y-1169525D02*
X300116Y-1162525D01*
G54D12*
X306783Y-1158858D02*
X293450Y-1158858D01*
X306783Y-1150858D01*
X293450Y-1150858D01*
G54D12*
X306783Y-1147191D02*
X293450Y-1147191D01*
G54D12*
X306783Y-1139191D02*
X293450Y-1139191D01*
G54D12*
X300116Y-1147191D02*
X300116Y-1139191D01*
G54D12*
X332183Y-1169525D02*
X318850Y-1169525D01*
G54D12*
X332183Y-1161525D02*
X318850Y-1161525D01*
G54D12*
X325516Y-1169525D02*
X325516Y-1161525D01*
G54D12*
X318850Y-1157858D02*
X332183Y-1157858D01*
X332183Y-1150858D01*
G54D12*
X332183Y-1143191D02*
X318850Y-1143191D01*
G54D12*
X318850Y-1147191D02*
X318850Y-1139191D01*
G54D20*
X315675Y-1137775D02*
X315675Y-1172700D01*
G54D12*
X351028Y-1165525D02*
X352695Y-1162525D01*
X354362Y-1161525D01*
X357695Y-1161525D01*
G54D12*
X357695Y-1169525D02*
X344362Y-1169525D01*
X344362Y-1164525D01*
X345195Y-1162525D01*
X346862Y-1161525D01*
X348528Y-1161525D01*
X350195Y-1162525D01*
X351028Y-1164525D01*
X351028Y-1169525D01*
G54D12*
X357695Y-1157858D02*
X344362Y-1157858D01*
X344362Y-1150858D01*
G54D12*
X351028Y-1157858D02*
X351028Y-1150858D01*
G54D12*
X357695Y-1147191D02*
X344362Y-1147191D01*
G54D12*
X357695Y-1139191D02*
X344362Y-1139191D01*
G54D12*
X351028Y-1147191D02*
X351028Y-1139191D01*
G54D20*
X341075Y-1137775D02*
X341075Y-1172700D01*
G54D12*
X383095Y-1169525D02*
X369762Y-1169525D01*
X369762Y-1164525D01*
X370595Y-1162525D01*
X372262Y-1161525D01*
X373928Y-1161525D01*
X375595Y-1162525D01*
X376428Y-1164525D01*
X376428Y-1169525D01*
G54D12*
X383095Y-1157858D02*
X369762Y-1157858D01*
G54D12*
X383095Y-1149858D02*
X369762Y-1149858D01*
G54D12*
X376428Y-1157858D02*
X376428Y-1149858D01*
G54D20*
X366475Y-1147300D02*
X366475Y-1172700D01*
G54D12*
X405208Y-1169525D02*
X391875Y-1169525D01*
X391875Y-1164525D01*
X392708Y-1162525D01*
X394375Y-1161525D01*
X396041Y-1161525D01*
X397708Y-1162525D01*
X398541Y-1164525D01*
X398541Y-1169525D01*
G54D12*
X391875Y-1157858D02*
X405208Y-1157858D01*
X405208Y-1150858D01*
G54D20*
X388700Y-1147300D02*
X388700Y-1172700D01*
G54D12*
X433784Y-1169525D02*
X420451Y-1169525D01*
G54D12*
X433784Y-1165858D02*
X420451Y-1165858D01*
X433784Y-1157858D01*
X420451Y-1157858D01*
G54D12*
X433784Y-1150191D02*
X420451Y-1150191D01*
G54D12*
X420451Y-1154191D02*
X420451Y-1146191D01*
G54D20*
X417275Y-1140950D02*
X417275Y-1172700D01*
G54D12*
X445851Y-1169525D02*
X459184Y-1169525D01*
X450851Y-1164525D01*
X459184Y-1159525D01*
X445851Y-1159525D01*
G54D12*
X459184Y-1155858D02*
X445851Y-1150858D01*
X459184Y-1145858D01*
G54D12*
X454184Y-1153858D02*
X454184Y-1147858D01*
G54D12*
X459184Y-1142191D02*
X445851Y-1142191D01*
G54D12*
X459184Y-1134524D02*
X445851Y-1134524D01*
G54D12*
X445851Y-1138524D02*
X445851Y-1130524D01*
G54D20*
X442675Y-1128250D02*
X442675Y-1172700D01*
G54D12*
X484583Y-1169525D02*
X471250Y-1169525D01*
X484583Y-1161525D01*
X471250Y-1161525D01*
G54D12*
X484583Y-1157858D02*
X471250Y-1157858D01*
X479583Y-1152858D01*
X471250Y-1147858D01*
X484583Y-1147858D01*
G54D12*
X484583Y-1144191D02*
X471250Y-1144191D01*
G54D20*
X468075Y-1140950D02*
X468075Y-1172700D01*
G54D12*
X554950Y-1182225D02*
X554950Y-1174225D01*
G54D12*
X551616Y-1178225D02*
X558283Y-1178225D01*
G54D12*
X547450Y-1162558D02*
X547450Y-1170558D01*
X553283Y-1170558D01*
X553283Y-1169558D01*
X552450Y-1167558D01*
X552450Y-1165558D01*
X553283Y-1163558D01*
X554950Y-1162558D01*
X558283Y-1162558D01*
X559950Y-1163558D01*
X560783Y-1165558D01*
X560783Y-1167558D01*
X559950Y-1169558D01*
X558283Y-1170558D01*
G54D12*
X547450Y-1158891D02*
X560783Y-1153891D01*
X547450Y-1148891D01*
G54D12*
X580350Y-1182225D02*
X580350Y-1174225D01*
G54D12*
X577016Y-1178225D02*
X583683Y-1178225D01*
G54D12*
X572850Y-1162558D02*
X572850Y-1170558D01*
X578683Y-1170558D01*
X578683Y-1169558D01*
X577850Y-1167558D01*
X577850Y-1165558D01*
X578683Y-1163558D01*
X580350Y-1162558D01*
X583683Y-1162558D01*
X585350Y-1163558D01*
X586183Y-1165558D01*
X586183Y-1167558D01*
X585350Y-1169558D01*
X583683Y-1170558D01*
G54D12*
X572850Y-1158891D02*
X586183Y-1153891D01*
X572850Y-1148891D01*
G54D12*
X604916Y-1165525D02*
X604916Y-1161525D01*
X609083Y-1161525D01*
X610750Y-1162525D01*
X611583Y-1164525D01*
X611583Y-1166525D01*
X610750Y-1168525D01*
X609083Y-1169525D01*
X600750Y-1169525D01*
X599083Y-1168525D01*
X598250Y-1166525D01*
X598250Y-1164525D01*
X599083Y-1162525D01*
X600750Y-1161525D01*
G54D12*
X611583Y-1157858D02*
X598250Y-1157858D01*
X611583Y-1149858D01*
X598250Y-1149858D01*
G54D12*
X611583Y-1146191D02*
X598250Y-1146191D01*
X598250Y-1141191D01*
X599083Y-1139191D01*
X600750Y-1138191D01*
X609083Y-1138191D01*
X610750Y-1139191D01*
X611583Y-1141191D01*
X611583Y-1146191D01*
G54D12*
X630316Y-1165525D02*
X630316Y-1161525D01*
X634483Y-1161525D01*
X636150Y-1162525D01*
X636983Y-1164525D01*
X636983Y-1166525D01*
X636150Y-1168525D01*
X634483Y-1169525D01*
X626150Y-1169525D01*
X624483Y-1168525D01*
X623650Y-1166525D01*
X623650Y-1164525D01*
X624483Y-1162525D01*
X626150Y-1161525D01*
G54D12*
X636983Y-1157858D02*
X623650Y-1157858D01*
X636983Y-1149858D01*
X623650Y-1149858D01*
G54D12*
X636983Y-1146191D02*
X623650Y-1146191D01*
X623650Y-1141191D01*
X624483Y-1139191D01*
X626150Y-1138191D01*
X634483Y-1138191D01*
X636150Y-1139191D01*
X636983Y-1141191D01*
X636983Y-1146191D01*
G54D12*
X656550Y-1169525D02*
X656550Y-1161525D01*
G54D12*
X653216Y-1165525D02*
X659883Y-1165525D01*
G54D12*
X654050Y-1157858D02*
X649050Y-1152858D01*
X662383Y-1152858D01*
G54D12*
X662383Y-1141191D02*
X662383Y-1149191D01*
X661550Y-1149191D01*
X659883Y-1148191D01*
X654883Y-1142191D01*
X653216Y-1141191D01*
X651550Y-1141191D01*
X649883Y-1142191D01*
X649050Y-1144191D01*
X649050Y-1146191D01*
X649883Y-1148191D01*
X651550Y-1149191D01*
G54D12*
X649050Y-1137524D02*
X662383Y-1132524D01*
X649050Y-1127524D01*
G54D12*
X681950Y-1169525D02*
X681950Y-1161525D01*
G54D12*
X679450Y-1157858D02*
X674450Y-1152858D01*
X687783Y-1152858D01*
G54D12*
X687783Y-1141191D02*
X687783Y-1149191D01*
X686950Y-1149191D01*
X685283Y-1148191D01*
X680283Y-1142191D01*
X678616Y-1141191D01*
X676950Y-1141191D01*
X675283Y-1142191D01*
X674450Y-1144191D01*
X674450Y-1146191D01*
X675283Y-1148191D01*
X676950Y-1149191D01*
G54D12*
X674450Y-1137524D02*
X687783Y-1132524D01*
X674450Y-1127524D01*
G54D12*
X706516Y-1165525D02*
X708183Y-1162525D01*
X709850Y-1161525D01*
X713183Y-1161525D01*
G54D12*
X713183Y-1169525D02*
X699850Y-1169525D01*
X699850Y-1164525D01*
X700683Y-1162525D01*
X702350Y-1161525D01*
X704016Y-1161525D01*
X705683Y-1162525D01*
X706516Y-1164525D01*
X706516Y-1169525D01*
G54D12*
X713183Y-1150858D02*
X713183Y-1157858D01*
X699850Y-1157858D01*
X699850Y-1150858D01*
G54D12*
X706516Y-1157858D02*
X706516Y-1150858D01*
G54D12*
X710683Y-1147191D02*
X712350Y-1146191D01*
X713183Y-1144191D01*
X713183Y-1142191D01*
X712350Y-1140191D01*
X710683Y-1139191D01*
X709016Y-1139191D01*
X707350Y-1140191D01*
X706516Y-1142191D01*
X706516Y-1144191D01*
X705683Y-1146191D01*
X704016Y-1147191D01*
X702350Y-1147191D01*
X700683Y-1146191D01*
X699850Y-1144191D01*
X699850Y-1142191D01*
X700683Y-1140191D01*
X702350Y-1139191D01*
G54D12*
X713183Y-1128524D02*
X713183Y-1135524D01*
X699850Y-1135524D01*
X699850Y-1128524D01*
G54D12*
X706516Y-1135524D02*
X706516Y-1128524D01*
G54D12*
X713183Y-1120857D02*
X699850Y-1120857D01*
G54D12*
X699850Y-1124857D02*
X699850Y-1116857D01*
G54D20*
X696675Y-1112375D02*
X696675Y-1172700D01*
G54D12*
X731916Y-1165525D02*
X733583Y-1162525D01*
X735250Y-1161525D01*
X738583Y-1161525D01*
G54D12*
X738583Y-1169525D02*
X725250Y-1169525D01*
X725250Y-1164525D01*
X726083Y-1162525D01*
X727750Y-1161525D01*
X729416Y-1161525D01*
X731083Y-1162525D01*
X731916Y-1164525D01*
X731916Y-1169525D01*
G54D12*
X738583Y-1157858D02*
X725250Y-1157858D01*
X725250Y-1152858D01*
X726083Y-1150858D01*
X727750Y-1149858D01*
X736083Y-1149858D01*
X737750Y-1150858D01*
X738583Y-1152858D01*
X738583Y-1157858D01*
G54D20*
X722075Y-1147300D02*
X722075Y-1172700D01*
G54D12*
X750651Y-1169525D02*
X763984Y-1169525D01*
X755651Y-1164525D01*
X763984Y-1159525D01*
X750651Y-1159525D01*
G54D12*
X757317Y-1151858D02*
X758984Y-1148858D01*
X760651Y-1147858D01*
X763984Y-1147858D01*
G54D12*
X763984Y-1155858D02*
X750651Y-1155858D01*
X750651Y-1150858D01*
X751484Y-1148858D01*
X753151Y-1147858D01*
X754817Y-1147858D01*
X756484Y-1148858D01*
X757317Y-1150858D01*
X757317Y-1155858D01*
G54D20*
X747475Y-1147300D02*
X747475Y-1172700D01*
G54D12*
X789494Y-1169525D02*
X776161Y-1169525D01*
X784494Y-1164525D01*
X776161Y-1159525D01*
X789494Y-1159525D01*
G54D12*
X781161Y-1155858D02*
X776161Y-1150858D01*
X789494Y-1150858D01*
G54D20*
X772875Y-1147300D02*
X772875Y-1172700D01*
G54D20*
X798275Y-1147300D02*
X798275Y-1172700D01*
G54D12*
X814895Y-1169525D02*
X801562Y-1169525D01*
X801562Y-1164525D01*
X802395Y-1162525D01*
X804062Y-1161525D01*
X805728Y-1161525D01*
X807395Y-1162525D01*
X808228Y-1164525D01*
X808228Y-1169525D01*
G54D12*
X808228Y-1153858D02*
X809895Y-1150858D01*
X811562Y-1149858D01*
X814895Y-1149858D01*
G54D12*
X814895Y-1157858D02*
X801562Y-1157858D01*
X801562Y-1152858D01*
X802395Y-1150858D01*
X804062Y-1149858D01*
X805728Y-1149858D01*
X807395Y-1150858D01*
X808228Y-1152858D01*
X808228Y-1157858D01*
G54D12*
X837683Y-1161525D02*
X839350Y-1162525D01*
X840183Y-1164525D01*
X840183Y-1166525D01*
X839350Y-1168525D01*
X837683Y-1169525D01*
X829350Y-1169525D01*
X827683Y-1168525D01*
X826850Y-1166525D01*
X826850Y-1164525D01*
X827683Y-1162525D01*
X829350Y-1161525D01*
G54D12*
X826850Y-1157858D02*
X840183Y-1157858D01*
X840183Y-1150858D01*
G54D12*
X829350Y-1139191D02*
X837683Y-1139191D01*
X839350Y-1140191D01*
X840183Y-1142191D01*
X840183Y-1144191D01*
X839350Y-1146191D01*
X837683Y-1147191D01*
X829350Y-1147191D01*
X827683Y-1146191D01*
X826850Y-1144191D01*
X826850Y-1142191D01*
X827683Y-1140191D01*
X829350Y-1139191D01*
G54D12*
X837683Y-1127524D02*
X839350Y-1128524D01*
X840183Y-1130524D01*
X840183Y-1132524D01*
X839350Y-1134524D01*
X837683Y-1135524D01*
X829350Y-1135524D01*
X827683Y-1134524D01*
X826850Y-1132524D01*
X826850Y-1130524D01*
X827683Y-1128524D01*
X829350Y-1127524D01*
G54D12*
X840183Y-1123857D02*
X826850Y-1123857D01*
G54D12*
X836016Y-1123857D02*
X826850Y-1115857D01*
G54D12*
X833516Y-1120857D02*
X840183Y-1115857D01*
G54D12*
X865695Y-1169525D02*
X852362Y-1169525D01*
X860695Y-1164525D01*
X852362Y-1159525D01*
X865695Y-1159525D01*
G54D12*
X859028Y-1151858D02*
X860695Y-1148858D01*
X862362Y-1147858D01*
X865695Y-1147858D01*
G54D12*
X865695Y-1155858D02*
X852362Y-1155858D01*
X852362Y-1150858D01*
X853195Y-1148858D01*
X854862Y-1147858D01*
X856528Y-1147858D01*
X858195Y-1148858D01*
X859028Y-1150858D01*
X859028Y-1155858D01*
G54D20*
X849075Y-1147300D02*
X849075Y-1172700D01*
G54D12*
X1452164Y-1153650D02*
X1438831Y-1148650D01*
X1452164Y-1143650D01*
G54D12*
X1447164Y-1151650D02*
X1447164Y-1145650D01*
G54D12*
X1441331Y-1131983D02*
X1449664Y-1131983D01*
X1451331Y-1132983D01*
X1452164Y-1134983D01*
X1452164Y-1136983D01*
X1451331Y-1138983D01*
X1449664Y-1139983D01*
X1441331Y-1139983D01*
X1439664Y-1138983D01*
X1438831Y-1136983D01*
X1438831Y-1134983D01*
X1439664Y-1132983D01*
X1441331Y-1131983D01*
G54D12*
X1477564Y-1153650D02*
X1464231Y-1148650D01*
X1477564Y-1143650D01*
G54D12*
X1472564Y-1151650D02*
X1472564Y-1145650D01*
G54D12*
X1469231Y-1139983D02*
X1464231Y-1134983D01*
X1477564Y-1134983D01*
G54D12*
X1502964Y-1153650D02*
X1489631Y-1148650D01*
X1502964Y-1143650D01*
G54D12*
X1497964Y-1151650D02*
X1497964Y-1145650D01*
G54D12*
X1502964Y-1131983D02*
X1502964Y-1139983D01*
X1502131Y-1139983D01*
X1500464Y-1138983D01*
X1495464Y-1132983D01*
X1493798Y-1131983D01*
X1492131Y-1131983D01*
X1490464Y-1132983D01*
X1489631Y-1134983D01*
X1489631Y-1136983D01*
X1490464Y-1138983D01*
X1492131Y-1139983D01*
G54D12*
X1528364Y-1153650D02*
X1515031Y-1148650D01*
X1528364Y-1143650D01*
G54D12*
X1523364Y-1151650D02*
X1523364Y-1145650D01*
G54D12*
X1517531Y-1139983D02*
X1515864Y-1138983D01*
X1515031Y-1136983D01*
X1515031Y-1134983D01*
X1515864Y-1132983D01*
X1517531Y-1131983D01*
X1519198Y-1131983D01*
X1520864Y-1132983D01*
X1521698Y-1134983D01*
X1522531Y-1132983D01*
X1524198Y-1131983D01*
X1525864Y-1131983D01*
X1527531Y-1132983D01*
X1528364Y-1134983D01*
X1528364Y-1136983D01*
X1527531Y-1138983D01*
X1525864Y-1139983D01*
G54D12*
X1553771Y-1153650D02*
X1540438Y-1148650D01*
X1553771Y-1143650D01*
G54D12*
X1548771Y-1151650D02*
X1548771Y-1145650D01*
G54D12*
X1553771Y-1133983D02*
X1540438Y-1133983D01*
X1548771Y-1139983D01*
X1550438Y-1139983D01*
X1550438Y-1131983D01*
G54D12*
X1579164Y-1153650D02*
X1565831Y-1148650D01*
X1579164Y-1143650D01*
G54D12*
X1574164Y-1151650D02*
X1574164Y-1145650D01*
G54D12*
X1565831Y-1131983D02*
X1565831Y-1139983D01*
X1571664Y-1139983D01*
X1571664Y-1138983D01*
X1570831Y-1136983D01*
X1570831Y-1134983D01*
X1571664Y-1132983D01*
X1573331Y-1131983D01*
X1576664Y-1131983D01*
X1578331Y-1132983D01*
X1579164Y-1134983D01*
X1579164Y-1136983D01*
X1578331Y-1138983D01*
X1576664Y-1139983D01*
G54D12*
X1604564Y-1153650D02*
X1591231Y-1148650D01*
X1604564Y-1143650D01*
G54D12*
X1599564Y-1151650D02*
X1599564Y-1145650D01*
G54D12*
X1593731Y-1131983D02*
X1592064Y-1132983D01*
X1591231Y-1134983D01*
X1591231Y-1136983D01*
X1592064Y-1138983D01*
X1593731Y-1139983D01*
X1597898Y-1139983D01*
X1598731Y-1139983D01*
X1597064Y-1136983D01*
X1597064Y-1134983D01*
X1597898Y-1132983D01*
X1599564Y-1131983D01*
X1602064Y-1131983D01*
X1603731Y-1132983D01*
X1604564Y-1134983D01*
X1604564Y-1136983D01*
X1603731Y-1138983D01*
X1602064Y-1139983D01*
X1597898Y-1139983D01*
G54D12*
X1629976Y-1153650D02*
X1616643Y-1148650D01*
X1629976Y-1143650D01*
G54D12*
X1624976Y-1151650D02*
X1624976Y-1145650D01*
G54D12*
X1616643Y-1139983D02*
X1616643Y-1131983D01*
X1618310Y-1132983D01*
X1620810Y-1134983D01*
X1624143Y-1136983D01*
X1626643Y-1137983D01*
X1629976Y-1137983D01*
G54D12*
X1655364Y-1153650D02*
X1642031Y-1148650D01*
X1655364Y-1143650D01*
G54D12*
X1650364Y-1151650D02*
X1650364Y-1145650D01*
G54D12*
X1648698Y-1134983D02*
X1648698Y-1136983D01*
X1647864Y-1138983D01*
X1646198Y-1139983D01*
X1644531Y-1139983D01*
X1642864Y-1138983D01*
X1642031Y-1136983D01*
X1642031Y-1134983D01*
X1642864Y-1132983D01*
X1644531Y-1131983D01*
X1646198Y-1131983D01*
X1647864Y-1132983D01*
X1648698Y-1134983D01*
X1649531Y-1132983D01*
X1651198Y-1131983D01*
X1652864Y-1131983D01*
X1654531Y-1132983D01*
X1655364Y-1134983D01*
X1655364Y-1136983D01*
X1654531Y-1138983D01*
X1652864Y-1139983D01*
X1651198Y-1139983D01*
X1649531Y-1138983D01*
X1648698Y-1136983D01*
G54D12*
X1680764Y-1153650D02*
X1667431Y-1148650D01*
X1680764Y-1143650D01*
G54D12*
X1675764Y-1151650D02*
X1675764Y-1145650D01*
G54D12*
X1678264Y-1139983D02*
X1679931Y-1138983D01*
X1680764Y-1136983D01*
X1680764Y-1134983D01*
X1679931Y-1132983D01*
X1678264Y-1131983D01*
X1674098Y-1131983D01*
X1673264Y-1131983D01*
X1674931Y-1134983D01*
X1674931Y-1136983D01*
X1674098Y-1138983D01*
X1672431Y-1139983D01*
X1669931Y-1139983D01*
X1668264Y-1138983D01*
X1667431Y-1136983D01*
X1667431Y-1134983D01*
X1668264Y-1132983D01*
X1669931Y-1131983D01*
X1674098Y-1131983D01*
G54D12*
X1706164Y-1153650D02*
X1692831Y-1148650D01*
X1706164Y-1143650D01*
G54D12*
X1701164Y-1151650D02*
X1701164Y-1145650D01*
G54D12*
X1697831Y-1139983D02*
X1692831Y-1134983D01*
X1706164Y-1134983D01*
G54D12*
X1695331Y-1123316D02*
X1703664Y-1123316D01*
X1705331Y-1124316D01*
X1706164Y-1126316D01*
X1706164Y-1128316D01*
X1705331Y-1130316D01*
X1703664Y-1131316D01*
X1695331Y-1131316D01*
X1693664Y-1130316D01*
X1692831Y-1128316D01*
X1692831Y-1126316D01*
X1693664Y-1124316D01*
X1695331Y-1123316D01*
G54D12*
X1731564Y-1153650D02*
X1718231Y-1148650D01*
X1731564Y-1143650D01*
G54D12*
X1726564Y-1151650D02*
X1726564Y-1145650D01*
G54D12*
X1723231Y-1139983D02*
X1718231Y-1134983D01*
X1731564Y-1134983D01*
G54D12*
X1723231Y-1131316D02*
X1718231Y-1126316D01*
X1731564Y-1126316D01*
G54D12*
X1756964Y-1153650D02*
X1743631Y-1148650D01*
X1756964Y-1143650D01*
G54D12*
X1751964Y-1151650D02*
X1751964Y-1145650D01*
G54D12*
X1748631Y-1139983D02*
X1743631Y-1134983D01*
X1756964Y-1134983D01*
G54D12*
X1756964Y-1123316D02*
X1756964Y-1131316D01*
X1756131Y-1131316D01*
X1754464Y-1130316D01*
X1749464Y-1124316D01*
X1747798Y-1123316D01*
X1746131Y-1123316D01*
X1744464Y-1124316D01*
X1743631Y-1126316D01*
X1743631Y-1128316D01*
X1744464Y-1130316D01*
X1746131Y-1131316D01*
G54D12*
X1782364Y-1153650D02*
X1769031Y-1148650D01*
X1782364Y-1143650D01*
G54D12*
X1777364Y-1151650D02*
X1777364Y-1145650D01*
G54D12*
X1774031Y-1139983D02*
X1769031Y-1134983D01*
X1782364Y-1134983D01*
G54D12*
X1771531Y-1131316D02*
X1769864Y-1130316D01*
X1769031Y-1128316D01*
X1769031Y-1126316D01*
X1769864Y-1124316D01*
X1771531Y-1123316D01*
X1773198Y-1123316D01*
X1774864Y-1124316D01*
X1775698Y-1126316D01*
X1776531Y-1124316D01*
X1778198Y-1123316D01*
X1779864Y-1123316D01*
X1781531Y-1124316D01*
X1782364Y-1126316D01*
X1782364Y-1128316D01*
X1781531Y-1130316D01*
X1779864Y-1131316D01*
G54D12*
X1804596Y-1153650D02*
X1791263Y-1148650D01*
X1804596Y-1143650D01*
G54D12*
X1799596Y-1151650D02*
X1799596Y-1145650D01*
G54D12*
X1796263Y-1139983D02*
X1791263Y-1134983D01*
X1804596Y-1134983D01*
G54D12*
X1804596Y-1125316D02*
X1791263Y-1125316D01*
X1799596Y-1131316D01*
X1801263Y-1131316D01*
X1801263Y-1123316D01*
G54D12*
X1829989Y-1156825D02*
X1816656Y-1151825D01*
X1829989Y-1146825D01*
G54D12*
X1824989Y-1154825D02*
X1824989Y-1148825D01*
G54D12*
X1821656Y-1143158D02*
X1816656Y-1138158D01*
X1829989Y-1138158D01*
G54D12*
X1816656Y-1126491D02*
X1816656Y-1134491D01*
X1822489Y-1134491D01*
X1822489Y-1133491D01*
X1821656Y-1131491D01*
X1821656Y-1129491D01*
X1822489Y-1127491D01*
X1824156Y-1126491D01*
X1827489Y-1126491D01*
X1829156Y-1127491D01*
X1829989Y-1129491D01*
X1829989Y-1131491D01*
X1829156Y-1133491D01*
X1827489Y-1134491D01*
G54D12*
X2036364Y-1153650D02*
X2023031Y-1153650D01*
X2023031Y-1148650D01*
X2023864Y-1146650D01*
X2025531Y-1145650D01*
X2033864Y-1145650D01*
X2035531Y-1146650D01*
X2036364Y-1148650D01*
X2036364Y-1153650D01*
G54D12*
X2025531Y-1133983D02*
X2033864Y-1133983D01*
X2035531Y-1134983D01*
X2036364Y-1136983D01*
X2036364Y-1138983D01*
X2035531Y-1140983D01*
X2033864Y-1141983D01*
X2025531Y-1141983D01*
X2023864Y-1140983D01*
X2023031Y-1138983D01*
X2023031Y-1136983D01*
X2023864Y-1134983D01*
X2025531Y-1133983D01*
G54D12*
X2010964Y-1153650D02*
X1997631Y-1153650D01*
X1997631Y-1148650D01*
X1998464Y-1146650D01*
X2000131Y-1145650D01*
X2008464Y-1145650D01*
X2010131Y-1146650D01*
X2010964Y-1148650D01*
X2010964Y-1153650D01*
G54D12*
X2002631Y-1141983D02*
X1997631Y-1136983D01*
X2010964Y-1136983D01*
G54D12*
X1985564Y-1153650D02*
X1972231Y-1153650D01*
X1972231Y-1148650D01*
X1973064Y-1146650D01*
X1974731Y-1145650D01*
X1983064Y-1145650D01*
X1984731Y-1146650D01*
X1985564Y-1148650D01*
X1985564Y-1153650D01*
G54D12*
X1985564Y-1133983D02*
X1985564Y-1141983D01*
X1984731Y-1141983D01*
X1983064Y-1140983D01*
X1978064Y-1134983D01*
X1976398Y-1133983D01*
X1974731Y-1133983D01*
X1973064Y-1134983D01*
X1972231Y-1136983D01*
X1972231Y-1138983D01*
X1973064Y-1140983D01*
X1974731Y-1141983D01*
G54D12*
X1960164Y-1153650D02*
X1946831Y-1153650D01*
X1946831Y-1148650D01*
X1947664Y-1146650D01*
X1949331Y-1145650D01*
X1957664Y-1145650D01*
X1959331Y-1146650D01*
X1960164Y-1148650D01*
X1960164Y-1153650D01*
G54D12*
X1949331Y-1141983D02*
X1947664Y-1140983D01*
X1946831Y-1138983D01*
X1946831Y-1136983D01*
X1947664Y-1134983D01*
X1949331Y-1133983D01*
X1950998Y-1133983D01*
X1952664Y-1134983D01*
X1953498Y-1136983D01*
X1954331Y-1134983D01*
X1955998Y-1133983D01*
X1957664Y-1133983D01*
X1959331Y-1134983D01*
X1960164Y-1136983D01*
X1960164Y-1138983D01*
X1959331Y-1140983D01*
X1957664Y-1141983D01*
G54D12*
X1934764Y-1153650D02*
X1921431Y-1153650D01*
X1921431Y-1148650D01*
X1922264Y-1146650D01*
X1923931Y-1145650D01*
X1932264Y-1145650D01*
X1933931Y-1146650D01*
X1934764Y-1148650D01*
X1934764Y-1153650D01*
G54D12*
X1934764Y-1135983D02*
X1921431Y-1135983D01*
X1929764Y-1141983D01*
X1931431Y-1141983D01*
X1931431Y-1133983D01*
G54D12*
X1909364Y-1153650D02*
X1896031Y-1153650D01*
X1896031Y-1148650D01*
X1896864Y-1146650D01*
X1898531Y-1145650D01*
X1906864Y-1145650D01*
X1908531Y-1146650D01*
X1909364Y-1148650D01*
X1909364Y-1153650D01*
G54D12*
X1896031Y-1133983D02*
X1896031Y-1141983D01*
X1901864Y-1141983D01*
X1901864Y-1140983D01*
X1901031Y-1138983D01*
X1901031Y-1136983D01*
X1901864Y-1134983D01*
X1903531Y-1133983D01*
X1906864Y-1133983D01*
X1908531Y-1134983D01*
X1909364Y-1136983D01*
X1909364Y-1138983D01*
X1908531Y-1140983D01*
X1906864Y-1141983D01*
G54D12*
X1883964Y-1153650D02*
X1870631Y-1153650D01*
X1870631Y-1148650D01*
X1871464Y-1146650D01*
X1873131Y-1145650D01*
X1881464Y-1145650D01*
X1883131Y-1146650D01*
X1883964Y-1148650D01*
X1883964Y-1153650D01*
G54D12*
X1873131Y-1133983D02*
X1871464Y-1134983D01*
X1870631Y-1136983D01*
X1870631Y-1138983D01*
X1871464Y-1140983D01*
X1873131Y-1141983D01*
X1877298Y-1141983D01*
X1878131Y-1141983D01*
X1876464Y-1138983D01*
X1876464Y-1136983D01*
X1877298Y-1134983D01*
X1878964Y-1133983D01*
X1881464Y-1133983D01*
X1883131Y-1134983D01*
X1883964Y-1136983D01*
X1883964Y-1138983D01*
X1883131Y-1140983D01*
X1881464Y-1141983D01*
X1877298Y-1141983D01*
G54D12*
X1858564Y-1153650D02*
X1845231Y-1153650D01*
X1845231Y-1148650D01*
X1846064Y-1146650D01*
X1847731Y-1145650D01*
X1856064Y-1145650D01*
X1857731Y-1146650D01*
X1858564Y-1148650D01*
X1858564Y-1153650D01*
G54D12*
X1845231Y-1141983D02*
X1845231Y-1133983D01*
X1846898Y-1134983D01*
X1849398Y-1136983D01*
X1852731Y-1138983D01*
X1855231Y-1139983D01*
X1858564Y-1139983D01*
G54D21*
X509983Y-1169525D02*
X500205Y-1169525D01*
X500205Y-1165858D01*
X500816Y-1164392D01*
X502038Y-1163658D01*
X503261Y-1163658D01*
X504483Y-1164392D01*
X505094Y-1165858D01*
X505705Y-1164392D01*
X506928Y-1163658D01*
X508150Y-1163658D01*
X509372Y-1164392D01*
X509983Y-1165858D01*
X509983Y-1169525D01*
G54D21*
X505094Y-1169525D02*
X505094Y-1165858D01*
G54D21*
X500205Y-1160969D02*
X508150Y-1160969D01*
X509372Y-1160236D01*
X509983Y-1158769D01*
X509983Y-1157302D01*
X509372Y-1155836D01*
X508150Y-1155102D01*
X500205Y-1155102D01*
G54D21*
X508150Y-1152413D02*
X509372Y-1151680D01*
X509983Y-1150213D01*
X509983Y-1148746D01*
X509372Y-1147280D01*
X508150Y-1146546D01*
X506928Y-1146546D01*
X505705Y-1147280D01*
X505094Y-1148746D01*
X505094Y-1150213D01*
X504483Y-1151680D01*
X503261Y-1152413D01*
X502038Y-1152413D01*
X500816Y-1151680D01*
X500205Y-1150213D01*
X500205Y-1148746D01*
X500816Y-1147280D01*
X502038Y-1146546D01*
G54D21*
X509983Y-1143857D02*
X500205Y-1140190D01*
X509983Y-1136524D01*
G54D21*
X506316Y-1142390D02*
X506316Y-1137990D01*
G54D21*
X508150Y-1127968D02*
X509372Y-1128702D01*
X509983Y-1130168D01*
X509983Y-1131635D01*
X509372Y-1133102D01*
X508150Y-1133835D01*
X502038Y-1133835D01*
X500816Y-1133102D01*
X500205Y-1131635D01*
X500205Y-1130168D01*
X500816Y-1128702D01*
X502038Y-1127968D01*
G54D21*
X508150Y-1122346D02*
X509983Y-1118679D01*
G54D21*
X502038Y-1119412D02*
X508150Y-1119412D01*
X509372Y-1120146D01*
X509983Y-1121612D01*
X509983Y-1123079D01*
X509372Y-1124546D01*
X508150Y-1125279D01*
X502038Y-1125279D01*
X500816Y-1124546D01*
X500205Y-1123079D01*
X500205Y-1121612D01*
X500816Y-1120146D01*
X502038Y-1119412D01*
G54D20*
X493475Y-1118725D02*
X493475Y-1172700D01*
G54D21*
X535383Y-1169525D02*
X525605Y-1169525D01*
X525605Y-1165858D01*
X526216Y-1164392D01*
X527438Y-1163658D01*
X528661Y-1163658D01*
X529883Y-1164392D01*
X530494Y-1165858D01*
X531105Y-1164392D01*
X532328Y-1163658D01*
X533550Y-1163658D01*
X534772Y-1164392D01*
X535383Y-1165858D01*
X535383Y-1169525D01*
G54D21*
X530494Y-1169525D02*
X530494Y-1165858D01*
G54D21*
X525605Y-1160969D02*
X533550Y-1160969D01*
X534772Y-1160236D01*
X535383Y-1158769D01*
X535383Y-1157302D01*
X534772Y-1155836D01*
X533550Y-1155102D01*
X525605Y-1155102D01*
G54D21*
X533550Y-1152413D02*
X534772Y-1151680D01*
X535383Y-1150213D01*
X535383Y-1148746D01*
X534772Y-1147280D01*
X533550Y-1146546D01*
X532328Y-1146546D01*
X531105Y-1147280D01*
X530494Y-1148746D01*
X530494Y-1150213D01*
X529883Y-1151680D01*
X528661Y-1152413D01*
X527438Y-1152413D01*
X526216Y-1151680D01*
X525605Y-1150213D01*
X525605Y-1148746D01*
X526216Y-1147280D01*
X527438Y-1146546D01*
G54D21*
X530494Y-1140924D02*
X531716Y-1138724D01*
X532938Y-1137990D01*
X535383Y-1137990D01*
G54D21*
X535383Y-1143857D02*
X525605Y-1143857D01*
X525605Y-1140190D01*
X526216Y-1138724D01*
X527438Y-1137990D01*
X528661Y-1137990D01*
X529883Y-1138724D01*
X530494Y-1140190D01*
X530494Y-1143857D01*
G54D21*
X535383Y-1130168D02*
X535383Y-1135301D01*
X525605Y-1135301D01*
X525605Y-1130168D01*
G54D21*
X530494Y-1135301D02*
X530494Y-1130168D01*
G54D21*
X533550Y-1124546D02*
X535383Y-1120879D01*
G54D21*
X527438Y-1121612D02*
X533550Y-1121612D01*
X534772Y-1122346D01*
X535383Y-1123812D01*
X535383Y-1125279D01*
X534772Y-1126746D01*
X533550Y-1127479D01*
X527438Y-1127479D01*
X526216Y-1126746D01*
X525605Y-1125279D01*
X525605Y-1123812D01*
X526216Y-1122346D01*
X527438Y-1121612D01*
G54D20*
X518875Y-1121900D02*
X518875Y-1172700D01*
G54D19*
X1437244Y-1031414D02*
X1443910Y-1024747D01*
X1443910Y-1042525D01*
G54D13*
X2212738Y-1056812D02*
X2228612Y-1056812D01*
G54D13*
X2238138Y-1056812D02*
X2254012Y-1056812D01*
G54D13*
X2263538Y-1056812D02*
X2279412Y-1056812D01*
G54D13*
X2288938Y-1056812D02*
X2304812Y-1056812D01*
G54D13*
X2314338Y-1056812D02*
X2330212Y-1056812D01*
G54D13*
X2339738Y-1056812D02*
X2355612Y-1056812D01*
G54D13*
X2368312Y-1056812D02*
X2384188Y-1056812D01*
G54D13*
X2396888Y-1056812D02*
X2412762Y-1056812D01*
G54D13*
X2425462Y-1056812D02*
X2441338Y-1056812D01*
G54D13*
X2454038Y-1056812D02*
X2469912Y-1056812D01*
G54D13*
X2482612Y-1056812D02*
X2498488Y-1056812D01*
G54D13*
X2511188Y-1056812D02*
X2527062Y-1056812D01*
G54D13*
X2212738Y-1067925D02*
X2228612Y-1067925D01*
G54D13*
X2238138Y-1067925D02*
X2254012Y-1067925D01*
G54D13*
X2263538Y-1067925D02*
X2279412Y-1067925D01*
G54D13*
X2288938Y-1067925D02*
X2304812Y-1067925D01*
G54D13*
X2314338Y-1067925D02*
X2330212Y-1067925D01*
G54D13*
X2339738Y-1067925D02*
X2355612Y-1067925D01*
G54D13*
X2368312Y-1067925D02*
X2384188Y-1067925D01*
G54D13*
X2396888Y-1067925D02*
X2412762Y-1067925D01*
G54D13*
X2425462Y-1067925D02*
X2441338Y-1067925D01*
G54D13*
X2454038Y-1067925D02*
X2469912Y-1067925D01*
G54D13*
X2482612Y-1067925D02*
X2498488Y-1067925D01*
G54D13*
X2511188Y-1067925D02*
X2527062Y-1067925D01*
G54D13*
X2536588Y-1056812D02*
X2546112Y-1056812D01*
G54D13*
X2536588Y-1067925D02*
X2546112Y-1067925D01*
G54D13*
X2546112Y-1056812D02*
X2546112Y-1067925D01*
G54D15*
X2128580Y-1050462D02*
X2160330Y-1050462D01*
X2160330Y-1074275D01*
X2128580Y-1074275D01*
X2128580Y-1098088D01*
X2207955Y-1098088D01*
X2207955Y-1028238D01*
X2128580Y-1028238D01*
X2128580Y-1050462D01*
G54D15*
X2207955Y-1098088D02*
X2207955Y-1158412D01*
G54D15*
X2128580Y-1098088D02*
X2128580Y-1158412D01*
G54D15*
X2207955Y-1158412D02*
X2128580Y-1158412D01*
G54D15*
X2128600Y-1028288D02*
X2128600Y-967963D01*
G54D15*
X2207975Y-1028288D02*
X2207975Y-967962D01*
G54D15*
X2207955Y-967912D02*
X2128580Y-967912D01*
G54D15*
X2528630Y-1050462D02*
X2560380Y-1050462D01*
X2560380Y-1074275D01*
X2528630Y-1074275D01*
X2528630Y-1098088D01*
X2608005Y-1098088D01*
X2608005Y-1028238D01*
X2528630Y-1028238D01*
X2528630Y-1050462D01*
G54D15*
X2608005Y-1098088D02*
X2608005Y-1158412D01*
G54D15*
X2528630Y-1098088D02*
X2528630Y-1158412D01*
G54D15*
X2608005Y-1158412D02*
X2528630Y-1158412D01*
G54D15*
X2528650Y-1028288D02*
X2528650Y-967963D01*
G54D15*
X2608025Y-1028288D02*
X2608025Y-967962D01*
G54D15*
X2608005Y-967912D02*
X2528630Y-967912D01*
G54D15*
X172800Y-1072718D02*
X141050Y-1072718D01*
X141050Y-1048906D01*
X172800Y-1048906D01*
X172800Y-1025094D01*
X93426Y-1025094D01*
X93426Y-1094944D01*
X172800Y-1094944D01*
X172800Y-1072718D01*
G54D15*
X93426Y-1025094D02*
X93426Y-964768D01*
G54D15*
X172800Y-1025094D02*
X172800Y-964768D01*
G54D15*
X93426Y-964768D02*
X172800Y-964768D01*
G54D15*
X172780Y-1094894D02*
X172780Y-1155219D01*
G54D15*
X93406Y-1094894D02*
X93406Y-1155219D01*
G54D15*
X93426Y-1155269D02*
X172800Y-1155269D01*
G54D20*
X560862Y578312D02*
X560862Y552912D01*
X632462Y552912D01*
X632462Y578312D01*
X560862Y578312D01*
G54D20*
X595062Y573612D02*
X595062Y557612D01*
G54D20*
X598262Y573612D02*
X598262Y557612D01*
G54D20*
X582362Y565612D02*
X595062Y565612D01*
G54D20*
X598262Y565612D02*
X610962Y565612D01*
G54D22*
X619611Y490496D02*
X673586Y490496D01*
G54D22*
X569060Y524734D02*
X673834Y524734D01*
G54D22*
G75*
G01X683360Y477109D02*
G03X677010Y477109I-3176J0D01*
G01*
G54D22*
G75*
G01X677010Y537434D02*
G03X683360Y537434I3174J0D01*
G01*
G54D22*
X683360Y477109D02*
X753210Y477109D01*
X756384Y480284D01*
X756384Y534259D01*
X753210Y537434D01*
X683360Y537434D01*
G36*
X674066Y477109D02*
X678582Y481648D01*
X680416Y480284D01*
X680416Y534259D01*
X678581Y533408D01*
X674066Y537434D01*
X674066Y477109D01*
G37*
G54D22*
X674066Y477109D02*
X678582Y481648D01*
X680416Y480284D01*
X680416Y534259D01*
X678581Y533408D01*
X674066Y537434D01*
X674066Y477109D01*
G54D23*
X536338Y521717D02*
X552338Y521717D01*
G54D23*
X544338Y528383D02*
X544338Y515050D01*
G36*
X149224Y-1054313D02*
X149224Y-1067013D01*
X2152649Y-1067013D01*
X2152649Y-1057488D01*
X149224Y-1054313D01*
G37*
G54D13*
X149224Y-1054313D02*
X149224Y-1067013D01*
X2152649Y-1067013D01*
X2152649Y-1057488D01*
X149224Y-1054313D01*
G54D13*
X1409462Y714838D02*
X1409462Y740238D01*
X1638062Y740238D01*
X1638062Y714838D01*
X1409462Y714838D01*
G54D20*
X560862Y330662D02*
X560862Y305262D01*
X632462Y305262D01*
X632462Y330662D01*
X560862Y330662D01*
G54D20*
X595062Y325962D02*
X595062Y309962D01*
G54D20*
X598262Y325962D02*
X598262Y309962D01*
G54D20*
X582362Y317962D02*
X595062Y317962D01*
G54D20*
X598262Y317962D02*
X610962Y317962D01*
G54D22*
X619611Y242846D02*
X673586Y242846D01*
G54D22*
X569060Y277084D02*
X673834Y277084D01*
G54D22*
G75*
G01X683360Y229459D02*
G03X677010Y229459I-3176J0D01*
G01*
G54D22*
G75*
G01X677010Y289784D02*
G03X683360Y289784I3174J0D01*
G01*
G54D22*
X683360Y229459D02*
X753210Y229459D01*
X756384Y232634D01*
X756384Y286609D01*
X753210Y289784D01*
X683360Y289784D01*
G36*
X674066Y229459D02*
X678582Y233998D01*
X680416Y232634D01*
X680416Y286609D01*
X678581Y285758D01*
X674066Y289784D01*
X674066Y229459D01*
G37*
G54D22*
X674066Y229459D02*
X678582Y233998D01*
X680416Y232634D01*
X680416Y286609D01*
X678581Y285758D01*
X674066Y289784D01*
X674066Y229459D01*
G54D23*
X536338Y274067D02*
X552338Y274067D01*
G54D23*
X544338Y280733D02*
X544338Y267400D01*
G54D20*
X560862Y76662D02*
X560862Y51262D01*
X632462Y51262D01*
X632462Y76662D01*
X560862Y76662D01*
G54D20*
X595062Y71962D02*
X595062Y55962D01*
G54D20*
X598262Y71962D02*
X598262Y55962D01*
G54D20*
X582362Y63962D02*
X595062Y63962D01*
G54D20*
X598262Y63962D02*
X610962Y63962D01*
G54D22*
X619611Y-11154D02*
X673586Y-11154D01*
G54D22*
X569060Y23084D02*
X673834Y23084D01*
G54D22*
G75*
G01X683360Y-24541D02*
G03X677010Y-24541I-3176J0D01*
G01*
G54D22*
G75*
G01X677010Y35784D02*
G03X683360Y35784I3174J0D01*
G01*
G54D22*
X683360Y-24541D02*
X753210Y-24541D01*
X756384Y-21366D01*
X756384Y32609D01*
X753210Y35784D01*
X683360Y35784D01*
G36*
X674066Y-24541D02*
X678582Y-20002D01*
X680416Y-21366D01*
X680416Y32609D01*
X678581Y31758D01*
X674066Y35784D01*
X674066Y-24541D01*
G37*
G54D22*
X674066Y-24541D02*
X678582Y-20002D01*
X680416Y-21366D01*
X680416Y32609D01*
X678581Y31758D01*
X674066Y35784D01*
X674066Y-24541D01*
G54D23*
X536338Y20067D02*
X552338Y20067D01*
G54D23*
X544338Y26733D02*
X544338Y13400D01*
G54D20*
X560862Y-167812D02*
X560862Y-193212D01*
X632462Y-193212D01*
X632462Y-167812D01*
X560862Y-167812D01*
G54D20*
X595062Y-172512D02*
X595062Y-188512D01*
G54D20*
X598262Y-172512D02*
X598262Y-188512D01*
G54D20*
X582362Y-180512D02*
X595062Y-180512D01*
G54D20*
X598262Y-180512D02*
X610962Y-180512D01*
G54D22*
X619611Y-255629D02*
X673586Y-255629D01*
G54D22*
X569060Y-221391D02*
X673834Y-221391D01*
G54D22*
G75*
G01X683360Y-269016D02*
G03X677010Y-269016I-3176J0D01*
G01*
G54D22*
G75*
G01X677010Y-208691D02*
G03X683360Y-208691I3174J0D01*
G01*
G54D22*
X683360Y-269016D02*
X753210Y-269016D01*
X756384Y-265841D01*
X756384Y-211866D01*
X753210Y-208691D01*
X683360Y-208691D01*
G36*
X674066Y-269016D02*
X678582Y-264478D01*
X680416Y-265841D01*
X680416Y-211866D01*
X678581Y-212717D01*
X674066Y-208691D01*
X674066Y-269016D01*
G37*
G54D22*
X674066Y-269016D02*
X678582Y-264478D01*
X680416Y-265841D01*
X680416Y-211866D01*
X678581Y-212717D01*
X674066Y-208691D01*
X674066Y-269016D01*
G54D23*
X536338Y-224408D02*
X552338Y-224408D01*
G54D23*
X544338Y-217742D02*
X544338Y-231075D01*
G54D20*
X560862Y-409112D02*
X560862Y-434512D01*
X632462Y-434512D01*
X632462Y-409112D01*
X560862Y-409112D01*
G54D20*
X595062Y-413812D02*
X595062Y-429812D01*
G54D20*
X598262Y-413812D02*
X598262Y-429812D01*
G54D20*
X582362Y-421812D02*
X595062Y-421812D01*
G54D20*
X598262Y-421812D02*
X610962Y-421812D01*
G54D22*
X619611Y-496929D02*
X673586Y-496929D01*
G54D22*
X569060Y-462691D02*
X673834Y-462691D01*
G54D22*
G75*
G01X683360Y-510316D02*
G03X677010Y-510316I-3176J0D01*
G01*
G54D22*
G75*
G01X677010Y-449991D02*
G03X683360Y-449991I3174J0D01*
G01*
G54D22*
X683360Y-510316D02*
X753210Y-510316D01*
X756384Y-507141D01*
X756384Y-453166D01*
X753210Y-449991D01*
X683360Y-449991D01*
G36*
X674066Y-510316D02*
X678582Y-505778D01*
X680416Y-507141D01*
X680416Y-453166D01*
X678581Y-454017D01*
X674066Y-449991D01*
X674066Y-510316D01*
G37*
G54D22*
X674066Y-510316D02*
X678582Y-505778D01*
X680416Y-507141D01*
X680416Y-453166D01*
X678581Y-454017D01*
X674066Y-449991D01*
X674066Y-510316D01*
G54D23*
X536338Y-465708D02*
X552338Y-465708D01*
G54D23*
X544338Y-459042D02*
X544338Y-472375D01*
G54D20*
X560862Y-656762D02*
X560862Y-682162D01*
X632462Y-682162D01*
X632462Y-656762D01*
X560862Y-656762D01*
G54D20*
X595062Y-661462D02*
X595062Y-677462D01*
G54D20*
X598262Y-661462D02*
X598262Y-677462D01*
G54D20*
X582362Y-669462D02*
X595062Y-669462D01*
G54D20*
X598262Y-669462D02*
X610962Y-669462D01*
G54D22*
X619611Y-744579D02*
X673586Y-744579D01*
G54D22*
X569060Y-710341D02*
X673834Y-710341D01*
G54D22*
G75*
G01X683360Y-757966D02*
G03X677010Y-757966I-3176J0D01*
G01*
G54D22*
G75*
G01X677010Y-697641D02*
G03X683360Y-697641I3174J0D01*
G01*
G54D22*
X683360Y-757966D02*
X753210Y-757966D01*
X756384Y-754791D01*
X756384Y-700816D01*
X753210Y-697641D01*
X683360Y-697641D01*
G36*
X674066Y-757966D02*
X678582Y-753428D01*
X680416Y-754791D01*
X680416Y-700816D01*
X678581Y-701667D01*
X674066Y-697641D01*
X674066Y-757966D01*
G37*
G54D22*
X674066Y-757966D02*
X678582Y-753428D01*
X680416Y-754791D01*
X680416Y-700816D01*
X678581Y-701667D01*
X674066Y-697641D01*
X674066Y-757966D01*
G54D23*
X536338Y-713358D02*
X552338Y-713358D01*
G54D23*
X544338Y-706692D02*
X544338Y-720025D01*
G54D20*
X560862Y-898062D02*
X560862Y-923462D01*
X632462Y-923462D01*
X632462Y-898062D01*
X560862Y-898062D01*
G54D20*
X595062Y-902762D02*
X595062Y-918762D01*
G54D20*
X598262Y-902762D02*
X598262Y-918762D01*
G54D20*
X582362Y-910762D02*
X595062Y-910762D01*
G54D20*
X598262Y-910762D02*
X610962Y-910762D01*
G54D22*
X619611Y-985879D02*
X673586Y-985879D01*
G54D22*
X569060Y-951641D02*
X673834Y-951641D01*
G54D22*
G75*
G01X683360Y-999266D02*
G03X677010Y-999266I-3176J0D01*
G01*
G54D22*
G75*
G01X677010Y-938941D02*
G03X683360Y-938941I3174J0D01*
G01*
G54D22*
X683360Y-999266D02*
X753210Y-999266D01*
X756384Y-996091D01*
X756384Y-942116D01*
X753210Y-938941D01*
X683360Y-938941D01*
G36*
X674066Y-999266D02*
X678582Y-994728D01*
X680416Y-996091D01*
X680416Y-942116D01*
X678581Y-942967D01*
X674066Y-938941D01*
X674066Y-999266D01*
G37*
G54D22*
X674066Y-999266D02*
X678582Y-994728D01*
X680416Y-996091D01*
X680416Y-942116D01*
X678581Y-942967D01*
X674066Y-938941D01*
X674066Y-999266D01*
G54D23*
X536338Y-954658D02*
X552338Y-954658D01*
G54D23*
X544338Y-947992D02*
X544338Y-961325D01*
G54D24*
X2527062Y949788D02*
X2527062Y958676D01*
X2530396Y958676D01*
X2531729Y958121D01*
X2532396Y957010D01*
X2532396Y955899D01*
X2531729Y954788D01*
X2530396Y954232D01*
X2527062Y954232D01*
G54D24*
X2535506Y954232D02*
X2536840Y954788D01*
X2538440Y954788D01*
X2539506Y953676D01*
X2539506Y949788D01*
G54D24*
X2539506Y951454D02*
X2538840Y952565D01*
X2537506Y952788D01*
X2536173Y952565D01*
X2535506Y951454D01*
X2535773Y950343D01*
X2536840Y949788D01*
X2537506Y949788D01*
X2537773Y949788D01*
X2538840Y950343D01*
X2539506Y951454D01*
G54D24*
X2546618Y951121D02*
X2546618Y953343D01*
X2545951Y954454D01*
X2544618Y954788D01*
X2543284Y954454D01*
X2542618Y953343D01*
X2542618Y951121D01*
X2543284Y950010D01*
X2544618Y949788D01*
X2545951Y950010D01*
X2546618Y951121D01*
G54D24*
X2549728Y949788D02*
X2549728Y958676D01*
G54D24*
X2556840Y951121D02*
X2556840Y953343D01*
X2556173Y954454D01*
X2554840Y954788D01*
X2553506Y954454D01*
X2552840Y953343D01*
X2552840Y951121D01*
X2553506Y950010D01*
X2554840Y949788D01*
X2556173Y950010D01*
X2556840Y951121D01*
G54D24*
X2563194Y949788D02*
X2563194Y958676D01*
X2566528Y958676D01*
X2567861Y958121D01*
X2568528Y957010D01*
X2568528Y955899D01*
X2567861Y954788D01*
X2566528Y954232D01*
X2563194Y954232D01*
G54D24*
X2571638Y949788D02*
X2571638Y954788D01*
G54D24*
X2571638Y956454D02*
X2571638Y956454D01*
G54D24*
X2574750Y949788D02*
X2574750Y954788D01*
G54D24*
X2574750Y953676D02*
X2575416Y954454D01*
X2576750Y954788D01*
X2578083Y954454D01*
X2578750Y953676D01*
X2578750Y949788D01*
G54D24*
X2583194Y958676D02*
X2583194Y950343D01*
X2583860Y949788D01*
X2584527Y950010D01*
G54D24*
X2581860Y954788D02*
X2584527Y954788D01*
G54D24*
X2591638Y951121D02*
X2591638Y953343D01*
X2590972Y954454D01*
X2589638Y954788D01*
X2588305Y954454D01*
X2587638Y953343D01*
X2587638Y951121D01*
X2588305Y950010D01*
X2589638Y949788D01*
X2590972Y950010D01*
X2591638Y951121D01*
G54D24*
X2527062Y965662D02*
X2527062Y974551D01*
X2530396Y974551D01*
X2531729Y973996D01*
X2532396Y972885D01*
X2532396Y971774D01*
X2531729Y970662D01*
X2530396Y970107D01*
X2527062Y970107D01*
G54D24*
X2535506Y965662D02*
X2535506Y970662D01*
G54D24*
X2535506Y972329D02*
X2535506Y972329D01*
G54D24*
X2538618Y965662D02*
X2538618Y970662D01*
G54D24*
X2538618Y969551D02*
X2539284Y970329D01*
X2540618Y970662D01*
X2541951Y970329D01*
X2542618Y969551D01*
X2542618Y965662D01*
G54D24*
X2549728Y966996D02*
X2549728Y969218D01*
X2549062Y970329D01*
X2547728Y970662D01*
X2546395Y970329D01*
X2545728Y969218D01*
X2545728Y966996D01*
X2546395Y965885D01*
X2547728Y965662D01*
X2549062Y965885D01*
X2549728Y966996D01*
G54D24*
X2558750Y970107D02*
X2561417Y970107D01*
X2561417Y967329D01*
X2560750Y966218D01*
X2559417Y965662D01*
X2558084Y965662D01*
X2556750Y966218D01*
X2556084Y967329D01*
X2556084Y972885D01*
X2556750Y973996D01*
X2558084Y974551D01*
X2559417Y974551D01*
X2560750Y973996D01*
X2561417Y972885D01*
G54D24*
X2564528Y965662D02*
X2564528Y970662D01*
G54D24*
X2564528Y972329D02*
X2564528Y972329D01*
G54D24*
X2567638Y970107D02*
X2568972Y970662D01*
X2570572Y970662D01*
X2571638Y969551D01*
X2571638Y965662D01*
G54D24*
X2571638Y967329D02*
X2570972Y968440D01*
X2569638Y968662D01*
X2568305Y968440D01*
X2567638Y967329D01*
X2567905Y966218D01*
X2568972Y965662D01*
X2569638Y965662D01*
X2569905Y965662D01*
X2570972Y966218D01*
X2571638Y967329D01*
G54D24*
X2578750Y970662D02*
X2578750Y963440D01*
G54D24*
X2578750Y966996D02*
X2578083Y965885D01*
X2576750Y965662D01*
X2575416Y965885D01*
X2574750Y966996D01*
X2574750Y969218D01*
X2575416Y970329D01*
X2576750Y970662D01*
X2578083Y970329D01*
X2578750Y969218D01*
G54D24*
X2585860Y970662D02*
X2585860Y965662D01*
G54D24*
X2585860Y966774D02*
X2585194Y965885D01*
X2583860Y965662D01*
X2582527Y965885D01*
X2581860Y966774D01*
X2581860Y970662D01*
G54D24*
X2588972Y965662D02*
X2588972Y970662D01*
G54D24*
X2588972Y972329D02*
X2588972Y972329D01*
G54D24*
X2592082Y965662D02*
X2592082Y970662D01*
G54D24*
X2592082Y969551D02*
X2592749Y970329D01*
X2594082Y970662D01*
X2595416Y970329D01*
X2596082Y969551D01*
X2596082Y965662D01*
G54D24*
X2600527Y974551D02*
X2600527Y966218D01*
X2601194Y965662D01*
X2601860Y965885D01*
G54D24*
X2599194Y970662D02*
X2601860Y970662D01*
G54D24*
X2608972Y966996D02*
X2608972Y969218D01*
X2608305Y970329D01*
X2606972Y970662D01*
X2605638Y970329D01*
X2604972Y969218D01*
X2604972Y966996D01*
X2605638Y965885D01*
X2606972Y965662D01*
X2608305Y965885D01*
X2608972Y966996D01*
G54D24*
X2527062Y981538D02*
X2527062Y990426D01*
X2530396Y990426D01*
X2531729Y989871D01*
X2532396Y988760D01*
X2532396Y987649D01*
X2531729Y986538D01*
X2530396Y985982D01*
X2527062Y985982D01*
G54D24*
X2535506Y981538D02*
X2535506Y986538D01*
G54D24*
X2535506Y988204D02*
X2535506Y988204D01*
G54D24*
X2542618Y982093D02*
X2541551Y981538D01*
X2540218Y981538D01*
X2538884Y982093D01*
X2538618Y983204D01*
X2538618Y985093D01*
X2539284Y986204D01*
X2540618Y986538D01*
X2541951Y986204D01*
X2542618Y985426D01*
X2542618Y984315D01*
X2538618Y984315D01*
G54D24*
X2545728Y981538D02*
X2545728Y986538D01*
G54D24*
X2545728Y985426D02*
X2547062Y986538D01*
X2548395Y986538D01*
G54D24*
X2551506Y979871D02*
X2552840Y979315D01*
X2553773Y979315D01*
X2555106Y979871D01*
X2555506Y980982D01*
X2555506Y986538D01*
G54D24*
X2555506Y985093D02*
X2554840Y986204D01*
X2553506Y986538D01*
X2552173Y986204D01*
X2551506Y985093D01*
X2551506Y982871D01*
X2552173Y981760D01*
X2553506Y981538D01*
X2554840Y981760D01*
X2555506Y982871D01*
G54D24*
X2558618Y981538D02*
X2558618Y986538D01*
G54D24*
X2558618Y988204D02*
X2558618Y988204D01*
G54D24*
X2565728Y982871D02*
X2565728Y985093D01*
X2565062Y986204D01*
X2563728Y986538D01*
X2562395Y986204D01*
X2561728Y985093D01*
X2561728Y982871D01*
X2562395Y981760D01*
X2563728Y981538D01*
X2565062Y981760D01*
X2565728Y982871D01*
G54D24*
X2568840Y981538D02*
X2568840Y986538D01*
G54D24*
X2568840Y985426D02*
X2570173Y986538D01*
X2571506Y986538D01*
G54D24*
X2574618Y979871D02*
X2575951Y979315D01*
X2576884Y979315D01*
X2578218Y979871D01*
X2578618Y980982D01*
X2578618Y986538D01*
G54D24*
X2578618Y985093D02*
X2577951Y986204D01*
X2576618Y986538D01*
X2575284Y986204D01*
X2574618Y985093D01*
X2574618Y982871D01*
X2575284Y981760D01*
X2576618Y981538D01*
X2577951Y981760D01*
X2578618Y982871D01*
G54D24*
X2581728Y981538D02*
X2581728Y986538D01*
G54D24*
X2581728Y988204D02*
X2581728Y988204D01*
G54D24*
X2588840Y982871D02*
X2588840Y985093D01*
X2588173Y986204D01*
X2586840Y986538D01*
X2585506Y986204D01*
X2584840Y985093D01*
X2584840Y982871D01*
X2585506Y981760D01*
X2586840Y981538D01*
X2588173Y981760D01*
X2588840Y982871D01*
G54D24*
X2595194Y981538D02*
X2595194Y990426D01*
X2598528Y990426D01*
X2599861Y989871D01*
X2600528Y988760D01*
X2600528Y987649D01*
X2599861Y986538D01*
X2598528Y985982D01*
X2599861Y985426D01*
X2600528Y984315D01*
X2600528Y983204D01*
X2599861Y982093D01*
X2598528Y981538D01*
X2595194Y981538D01*
G54D24*
X2595194Y985982D02*
X2598528Y985982D01*
G54D24*
X2607638Y982093D02*
X2606572Y981538D01*
X2605238Y981538D01*
X2603905Y982093D01*
X2603638Y983204D01*
X2603638Y985093D01*
X2604305Y986204D01*
X2605638Y986538D01*
X2606972Y986204D01*
X2607638Y985426D01*
X2607638Y984315D01*
X2603638Y984315D01*
G54D24*
X2612083Y990426D02*
X2612083Y982093D01*
X2612750Y981538D01*
X2613416Y981760D01*
G54D24*
X2610750Y986538D02*
X2613416Y986538D01*
G54D24*
X2617861Y990426D02*
X2617861Y982093D01*
X2618528Y981538D01*
X2619194Y981760D01*
G54D24*
X2616528Y986538D02*
X2619194Y986538D01*
G54D24*
X2622306Y981538D02*
X2622306Y986538D01*
G54D24*
X2622306Y988204D02*
X2622306Y988204D01*
G54D13*
X925274Y749764D02*
X925274Y724364D01*
X696674Y724364D01*
X696674Y749764D01*
X925274Y749764D01*
G54D13*
X315673Y724364D02*
X315673Y749764D01*
X544273Y749764D01*
X544273Y724364D01*
X315673Y724364D01*
G54D19*
X1930733Y757064D02*
X1934733Y754842D01*
X1936067Y752620D01*
X1936067Y748175D01*
G54D19*
X1925400Y748175D02*
X1925400Y765953D01*
X1932067Y765953D01*
X1934733Y764842D01*
X1936067Y762620D01*
X1936067Y760397D01*
X1934733Y758175D01*
X1932067Y757064D01*
X1925400Y757064D01*
G54D19*
X1946289Y757064D02*
X1950289Y754842D01*
X1951623Y752620D01*
X1951623Y748175D01*
G54D19*
X1940956Y748175D02*
X1940956Y765953D01*
X1947623Y765953D01*
X1950289Y764842D01*
X1951623Y762620D01*
X1951623Y760397D01*
X1950289Y758175D01*
X1947623Y757064D01*
X1940956Y757064D01*
G54D19*
X1956512Y759286D02*
X1963179Y765953D01*
X1963179Y748175D01*
G54D19*
X1973224Y759286D02*
X1979891Y765953D01*
X1979891Y748175D01*
G54D19*
X1984780Y748175D02*
X1984780Y765953D01*
G54D19*
X1984780Y753730D02*
X1995447Y765953D01*
G54D19*
X1988780Y757064D02*
X1995447Y748175D01*
G54D19*
X1714833Y791989D02*
X1718833Y789767D01*
X1720167Y787544D01*
X1720167Y783100D01*
G54D19*
X1709500Y783100D02*
X1709500Y800878D01*
X1716167Y800878D01*
X1718833Y799767D01*
X1720167Y797544D01*
X1720167Y795322D01*
X1718833Y793100D01*
X1716167Y791989D01*
X1709500Y791989D01*
G54D19*
X1730389Y791989D02*
X1734389Y789767D01*
X1735723Y787544D01*
X1735723Y783100D01*
G54D19*
X1725056Y783100D02*
X1725056Y800878D01*
X1731723Y800878D01*
X1734389Y799767D01*
X1735723Y797544D01*
X1735723Y795322D01*
X1734389Y793100D01*
X1731723Y791989D01*
X1725056Y791989D01*
G54D19*
X1751279Y783100D02*
X1740612Y783100D01*
X1740612Y784211D01*
X1741945Y786433D01*
X1749945Y793100D01*
X1751279Y795322D01*
X1751279Y797544D01*
X1749945Y799767D01*
X1747279Y800878D01*
X1744612Y800878D01*
X1741945Y799767D01*
X1740612Y797544D01*
G54D19*
X1761324Y794211D02*
X1767991Y800878D01*
X1767991Y783100D01*
G54D19*
X1772880Y783100D02*
X1772880Y800878D01*
G54D19*
X1772880Y788656D02*
X1783547Y800878D01*
G54D19*
X1776880Y791989D02*
X1783547Y783100D01*
G54D19*
X1490996Y757064D02*
X1494996Y754842D01*
X1496329Y752620D01*
X1496329Y748175D01*
G54D19*
X1485662Y748175D02*
X1485662Y765953D01*
X1492329Y765953D01*
X1494996Y764842D01*
X1496329Y762620D01*
X1496329Y760397D01*
X1494996Y758175D01*
X1492329Y757064D01*
X1485662Y757064D01*
G54D19*
X1506552Y757064D02*
X1510552Y754842D01*
X1511885Y752620D01*
X1511885Y748175D01*
G54D19*
X1501218Y748175D02*
X1501218Y765953D01*
X1507885Y765953D01*
X1510552Y764842D01*
X1511885Y762620D01*
X1511885Y760397D01*
X1510552Y758175D01*
X1507885Y757064D01*
X1501218Y757064D01*
G54D19*
X1516774Y762620D02*
X1518108Y764842D01*
X1520774Y765953D01*
X1523441Y765953D01*
X1526108Y764842D01*
X1527441Y762620D01*
X1527441Y760397D01*
X1526108Y758175D01*
X1523441Y757064D01*
X1526108Y755953D01*
X1527441Y753730D01*
X1527441Y751508D01*
X1526108Y749286D01*
X1523441Y748175D01*
X1520774Y748175D01*
X1518108Y749286D01*
X1516774Y751508D01*
G54D19*
X1537486Y759286D02*
X1544153Y765953D01*
X1544153Y748175D01*
G54D19*
X1549042Y748175D02*
X1549042Y765953D01*
G54D19*
X1549042Y753730D02*
X1559709Y765953D01*
G54D19*
X1553042Y757064D02*
X1559709Y748175D01*
G54D19*
X781383Y769764D02*
X785383Y767542D01*
X786717Y765320D01*
X786717Y760875D01*
G54D19*
X776050Y760875D02*
X776050Y778653D01*
X782717Y778653D01*
X785383Y777542D01*
X786717Y775320D01*
X786717Y773097D01*
X785383Y770875D01*
X782717Y769764D01*
X776050Y769764D01*
G54D19*
X796939Y769764D02*
X800939Y767542D01*
X802273Y765320D01*
X802273Y760875D01*
G54D19*
X791606Y760875D02*
X791606Y778653D01*
X798273Y778653D01*
X800939Y777542D01*
X802273Y775320D01*
X802273Y773097D01*
X800939Y770875D01*
X798273Y769764D01*
X791606Y769764D01*
G54D19*
X815162Y760875D02*
X815162Y778653D01*
X807162Y767542D01*
X807162Y765320D01*
X817829Y765320D01*
G54D19*
X827874Y771986D02*
X834541Y778653D01*
X834541Y760875D01*
G54D19*
X839430Y760875D02*
X839430Y778653D01*
G54D19*
X839430Y766430D02*
X850097Y778653D01*
G54D19*
X843430Y769764D02*
X850097Y760875D01*
G54D19*
X400383Y768176D02*
X404383Y765954D01*
X405717Y763732D01*
X405717Y759288D01*
G54D19*
X395050Y759288D02*
X395050Y777065D01*
X401717Y777065D01*
X404383Y775954D01*
X405717Y773732D01*
X405717Y771510D01*
X404383Y769288D01*
X401717Y768176D01*
X395050Y768176D01*
G54D19*
X415939Y768176D02*
X419939Y765954D01*
X421273Y763732D01*
X421273Y759288D01*
G54D19*
X410606Y759288D02*
X410606Y777065D01*
X417273Y777065D01*
X419939Y775954D01*
X421273Y773732D01*
X421273Y771510D01*
X419939Y769288D01*
X417273Y768176D01*
X410606Y768176D01*
G54D19*
X436829Y777065D02*
X426162Y777065D01*
X426162Y769288D01*
X427495Y769288D01*
X430162Y770399D01*
X432829Y770399D01*
X435495Y769288D01*
X436829Y767065D01*
X436829Y762621D01*
X435495Y760399D01*
X432829Y759288D01*
X430162Y759288D01*
X427495Y760399D01*
X426162Y762621D01*
G54D19*
X452030Y770399D02*
X458697Y777065D01*
X458697Y759288D01*
G54D19*
X463586Y759288D02*
X463586Y777065D01*
G54D19*
X463586Y764843D02*
X474253Y777065D01*
G54D19*
X467586Y768176D02*
X474253Y759288D01*
G54D25*
X585550Y973600D02*
X585550Y995822D01*
X593883Y995822D01*
X597217Y994433D01*
X598883Y991656D01*
X598883Y988878D01*
X597217Y986100D01*
X593883Y984711D01*
X585550Y984711D01*
G54D25*
X618327Y991656D02*
X618327Y977767D01*
X616661Y974989D01*
X613327Y973600D01*
X609994Y973600D01*
X606661Y974989D01*
X604994Y977767D01*
X604994Y991656D01*
X606661Y994433D01*
X609994Y995822D01*
X613327Y995822D01*
X616661Y994433D01*
X618327Y991656D01*
G54D25*
X624438Y995822D02*
X624438Y973600D01*
X632771Y987489D01*
X641105Y973600D01*
X641105Y995822D01*
G54D25*
X658883Y973600D02*
X647216Y973600D01*
X647216Y995822D01*
X658883Y995822D01*
G54D25*
X647216Y984711D02*
X658883Y984711D01*
G54D25*
X671661Y984711D02*
X676661Y981933D01*
X678327Y979156D01*
X678327Y973600D01*
G54D25*
X664994Y973600D02*
X664994Y995822D01*
X673327Y995822D01*
X676661Y994433D01*
X678327Y991656D01*
X678327Y988878D01*
X676661Y986100D01*
X673327Y984711D01*
X664994Y984711D01*
G54D13*
X1217564Y786414D02*
X1071464Y786414D01*
X1071464Y875214D01*
X1217564Y875214D01*
X1217564Y786414D01*
G54D13*
X1128564Y786414D02*
X1128564Y875214D01*
G54D13*
G75*
G01X1115864Y830814D02*
G03X1115864Y830814I-12700J0D01*
G01*
G54D26*
X1339764Y794190D02*
X1330875Y797523D01*
X1339764Y800856D01*
G54D26*
X1336430Y795523D02*
X1336430Y799523D01*
G54D26*
X1339764Y803300D02*
X1330875Y803300D01*
X1330875Y806634D01*
X1331430Y807967D01*
X1332541Y808634D01*
X1338097Y808634D01*
X1339208Y807967D01*
X1339764Y806634D01*
X1339764Y803300D01*
G54D26*
X1330875Y816411D02*
X1338097Y816411D01*
X1339208Y815744D01*
X1339764Y814411D01*
X1339764Y813078D01*
X1339208Y811744D01*
X1338097Y811078D01*
G54D26*
X1332541Y828098D02*
X1338097Y828098D01*
X1339208Y827431D01*
X1339764Y826098D01*
X1339764Y824764D01*
X1339208Y823431D01*
X1338097Y822764D01*
X1332541Y822764D01*
X1331430Y823431D01*
X1330875Y824764D01*
X1330875Y826098D01*
X1331430Y827431D01*
X1332541Y828098D01*
G54D26*
X1330875Y830542D02*
X1338097Y830542D01*
X1339208Y831208D01*
X1339764Y832542D01*
X1339764Y833875D01*
X1339208Y835208D01*
X1338097Y835875D01*
X1330875Y835875D01*
G54D26*
X1339764Y840985D02*
X1330875Y840985D01*
G54D26*
X1330875Y838318D02*
X1330875Y843652D01*
G54D26*
X1339764Y851340D02*
X1330875Y851340D01*
G54D26*
X1339764Y853784D02*
X1330875Y853784D01*
X1339764Y859117D01*
X1330875Y859117D01*
G54D13*
X1217764Y805414D02*
X1269938Y805414D01*
G54D13*
X1217764Y830414D02*
X1269938Y830414D01*
G54D13*
X1217764Y856414D02*
X1269938Y856414D01*
G54D13*
X1372178Y766934D02*
X1372178Y747934D01*
X1334178Y747934D01*
X1334178Y766934D01*
X1372178Y766934D01*
G54D13*
X1372278Y757434D02*
X1405578Y757434D01*
G54D13*
X1303953Y757434D02*
X1334078Y757434D01*
G54D13*
X1298711Y739934D02*
X1298711Y714534D01*
X1370311Y714534D01*
X1370311Y739934D01*
X1298711Y739934D01*
G54D13*
X1332911Y735234D02*
X1332911Y719234D01*
G54D13*
X1336111Y735234D02*
X1336111Y719234D01*
G54D13*
X1320211Y727234D02*
X1332911Y727234D01*
G54D13*
X1336111Y727234D02*
X1348811Y727234D01*
G54D13*
X1443530Y902138D02*
X1438742Y902138D01*
X1438742Y922138D01*
X1443530Y922138D01*
X1443530Y902138D01*
G54D13*
X1447469Y902138D02*
X1447469Y922138D01*
G54D13*
G75*
G01X1484030Y912838D02*
G03X1484030Y912838I-40000J0D01*
G01*
G54D13*
X1447030Y912838D02*
X1454030Y912838D01*
G54D13*
X1438442Y912838D02*
X1434030Y912838D01*
G54D27*
X1418030Y935038D02*
X1428730Y935038D01*
G54D27*
X1423330Y930638D02*
X1423330Y939538D01*
G54D13*
X1373341Y975195D02*
X1347941Y975195D01*
X1347941Y903595D01*
X1373341Y903595D01*
X1373341Y975195D01*
G54D13*
X1368641Y940995D02*
X1352641Y940995D01*
G54D13*
X1368641Y937795D02*
X1352641Y937795D01*
G54D13*
X1360641Y953695D02*
X1360641Y940995D01*
G54D13*
X1360641Y937795D02*
X1360641Y925095D01*
G54D13*
X292467Y942717D02*
X267067Y942717D01*
X267067Y871117D01*
X292467Y871117D01*
X292467Y942717D01*
G54D13*
X287767Y908517D02*
X271767Y908517D01*
G54D13*
X287767Y905317D02*
X271767Y905317D01*
G54D13*
X279767Y921217D02*
X279767Y908517D01*
G54D13*
X279767Y905317D02*
X279767Y892617D01*
G54D19*
X1050687Y773891D02*
X1032909Y773891D01*
G54D19*
X1047354Y789447D02*
X1049576Y788113D01*
X1050687Y785447D01*
X1050687Y782780D01*
X1049576Y780113D01*
X1047354Y778780D01*
X1036242Y778780D01*
X1034020Y780113D01*
X1032909Y782780D01*
X1032909Y785447D01*
X1034020Y788113D01*
X1036242Y789447D01*
G54D19*
X1039576Y794336D02*
X1032909Y801003D01*
X1050687Y801003D01*
G54D19*
X1032909Y816204D02*
X1050687Y816204D01*
X1050687Y825537D01*
G54D19*
X1050687Y830426D02*
X1032909Y830426D01*
X1044020Y837093D01*
X1032909Y843759D01*
X1050687Y843759D01*
G54D19*
X1036242Y848648D02*
X1034020Y849981D01*
X1032909Y852648D01*
X1032909Y855315D01*
X1034020Y857981D01*
X1036242Y859315D01*
X1038465Y859315D01*
X1040687Y857981D01*
X1041798Y855315D01*
X1042909Y857981D01*
X1045132Y859315D01*
X1047354Y859315D01*
X1049576Y857981D01*
X1050687Y855315D01*
X1050687Y852648D01*
X1049576Y849981D01*
X1047354Y848648D01*
G54D19*
X1039576Y864204D02*
X1032909Y870871D01*
X1050687Y870871D01*
G54D19*
X1032909Y875760D02*
X1032909Y886427D01*
X1035132Y885093D01*
X1038465Y882427D01*
X1042909Y879760D01*
X1046242Y878427D01*
X1050687Y878427D01*
G54D12*
X1337825Y906908D02*
X1339492Y905908D01*
X1340325Y903908D01*
X1340325Y901908D01*
X1339492Y899908D01*
X1337825Y898908D01*
X1329492Y898908D01*
X1327825Y899908D01*
X1326992Y901908D01*
X1326992Y903908D01*
X1327825Y905908D01*
X1329492Y906908D01*
G54D12*
X1331992Y910575D02*
X1326992Y915575D01*
X1340325Y915575D01*
G54D12*
X1331992Y926976D02*
X1326992Y931976D01*
X1340325Y931976D01*
G54D12*
X1329492Y943643D02*
X1337825Y943643D01*
X1339492Y942643D01*
X1340325Y940643D01*
X1340325Y938643D01*
X1339492Y936643D01*
X1337825Y935643D01*
X1329492Y935643D01*
X1327825Y936643D01*
X1326992Y938643D01*
X1326992Y940643D01*
X1327825Y942643D01*
X1329492Y943643D01*
G54D12*
X1329492Y955310D02*
X1337825Y955310D01*
X1339492Y954310D01*
X1340325Y952310D01*
X1340325Y950310D01*
X1339492Y948310D01*
X1337825Y947310D01*
X1329492Y947310D01*
X1327825Y948310D01*
X1326992Y950310D01*
X1326992Y952310D01*
X1327825Y954310D01*
X1329492Y955310D01*
G54D12*
X1340325Y962844D02*
X1332825Y962844D01*
G54D12*
X1334492Y962844D02*
X1333325Y963844D01*
X1332825Y965844D01*
X1333325Y967844D01*
X1334492Y968844D01*
X1340325Y968844D01*
G54D12*
X1340325Y972511D02*
X1326992Y972511D01*
X1326992Y979511D01*
G54D12*
X1333658Y972511D02*
X1333658Y979511D01*
G54D12*
X1498425Y909425D02*
X1497425Y907758D01*
X1495425Y906925D01*
X1493425Y906925D01*
X1491425Y907758D01*
X1490425Y909425D01*
X1490425Y917758D01*
X1491425Y919425D01*
X1493425Y920258D01*
X1495425Y920258D01*
X1497425Y919425D01*
X1498425Y917758D01*
G54D12*
X1510092Y906925D02*
X1502092Y906925D01*
X1502092Y907758D01*
X1503092Y909425D01*
X1509092Y914425D01*
X1510092Y916092D01*
X1510092Y917758D01*
X1509092Y919425D01*
X1507092Y920258D01*
X1505092Y920258D01*
X1503092Y919425D01*
X1502092Y917758D01*
G54D12*
X1527493Y906925D02*
X1527493Y920258D01*
X1521493Y911925D01*
X1521493Y910258D01*
X1529493Y910258D01*
G54D12*
X1533160Y906925D02*
X1533160Y906925D01*
G54D12*
X1536827Y920258D02*
X1544827Y920258D01*
X1543827Y918592D01*
X1541827Y916092D01*
X1539827Y912758D01*
X1538827Y910258D01*
X1538827Y906925D01*
G54D12*
X1558361Y914425D02*
X1558361Y906925D01*
G54D12*
X1558361Y908592D02*
X1557361Y907258D01*
X1555361Y906925D01*
X1553361Y907258D01*
X1552361Y908592D01*
X1552361Y914425D01*
G54D12*
X1562028Y906925D02*
X1562028Y920258D01*
X1569028Y920258D01*
G54D12*
X1562028Y913592D02*
X1569028Y913592D01*
G54D12*
X1584562Y906925D02*
X1576562Y906925D01*
X1576562Y907758D01*
X1577562Y909425D01*
X1583562Y914425D01*
X1584562Y916092D01*
X1584562Y917758D01*
X1583562Y919425D01*
X1581562Y920258D01*
X1579562Y920258D01*
X1577562Y919425D01*
X1576562Y917758D01*
G54D12*
X1596229Y920258D02*
X1588229Y920258D01*
X1588229Y914425D01*
X1589229Y914425D01*
X1591229Y915258D01*
X1593229Y915258D01*
X1595229Y914425D01*
X1596229Y912758D01*
X1596229Y909425D01*
X1595229Y907758D01*
X1593229Y906925D01*
X1591229Y906925D01*
X1589229Y907758D01*
X1588229Y909425D01*
G54D12*
X1599896Y920258D02*
X1604896Y906925D01*
X1609896Y920258D01*
G54D12*
X1498425Y830050D02*
X1497425Y828383D01*
X1495425Y827550D01*
X1493425Y827550D01*
X1491425Y828383D01*
X1490425Y830050D01*
X1490425Y838383D01*
X1491425Y840050D01*
X1493425Y840883D01*
X1495425Y840883D01*
X1497425Y840050D01*
X1498425Y838383D01*
G54D12*
X1502092Y838383D02*
X1503092Y840050D01*
X1505092Y840883D01*
X1507092Y840883D01*
X1509092Y840050D01*
X1510092Y838383D01*
X1510092Y836717D01*
X1509092Y835050D01*
X1507092Y834217D01*
X1509092Y833383D01*
X1510092Y831717D01*
X1510092Y830050D01*
X1509092Y828383D01*
X1507092Y827550D01*
X1505092Y827550D01*
X1503092Y828383D01*
X1502092Y830050D01*
G54D12*
X1527493Y827550D02*
X1527493Y840883D01*
X1521493Y832550D01*
X1521493Y830883D01*
X1529493Y830883D01*
G54D12*
X1533160Y827550D02*
X1533160Y827550D01*
G54D12*
X1536827Y840883D02*
X1544827Y840883D01*
X1543827Y839217D01*
X1541827Y836717D01*
X1539827Y833383D01*
X1538827Y830883D01*
X1538827Y827550D01*
G54D12*
X1558361Y835050D02*
X1558361Y827550D01*
G54D12*
X1558361Y829217D02*
X1557361Y827883D01*
X1555361Y827550D01*
X1553361Y827883D01*
X1552361Y829217D01*
X1552361Y835050D01*
G54D12*
X1562028Y827550D02*
X1562028Y840883D01*
X1569028Y840883D01*
G54D12*
X1562028Y834217D02*
X1569028Y834217D01*
G54D12*
X1584562Y827550D02*
X1576562Y827550D01*
X1576562Y828383D01*
X1577562Y830050D01*
X1583562Y835050D01*
X1584562Y836717D01*
X1584562Y838383D01*
X1583562Y840050D01*
X1581562Y840883D01*
X1579562Y840883D01*
X1577562Y840050D01*
X1576562Y838383D01*
G54D12*
X1596229Y840883D02*
X1588229Y840883D01*
X1588229Y835050D01*
X1589229Y835050D01*
X1591229Y835883D01*
X1593229Y835883D01*
X1595229Y835050D01*
X1596229Y833383D01*
X1596229Y830050D01*
X1595229Y828383D01*
X1593229Y827550D01*
X1591229Y827550D01*
X1589229Y828383D01*
X1588229Y830050D01*
G54D12*
X1599896Y840883D02*
X1604896Y827550D01*
X1609896Y840883D01*
G54D12*
X2088787Y790946D02*
X2090454Y789946D01*
X2091287Y787946D01*
X2091287Y785946D01*
X2090454Y783946D01*
X2088787Y782946D01*
X2080454Y782946D01*
X2078787Y783946D01*
X2077954Y785946D01*
X2077954Y787946D01*
X2078787Y789946D01*
X2080454Y790946D01*
G54D12*
X2091287Y800613D02*
X2077954Y800613D01*
X2086287Y794613D01*
X2087954Y794613D01*
X2087954Y802613D01*
G54D12*
X2082954Y814014D02*
X2077954Y819014D01*
X2091287Y819014D01*
G54D12*
X2080454Y830681D02*
X2088787Y830681D01*
X2090454Y829681D01*
X2091287Y827681D01*
X2091287Y825681D01*
X2090454Y823681D01*
X2088787Y822681D01*
X2080454Y822681D01*
X2078787Y823681D01*
X2077954Y825681D01*
X2077954Y827681D01*
X2078787Y829681D01*
X2080454Y830681D01*
G54D12*
X2080454Y842348D02*
X2088787Y842348D01*
X2090454Y841348D01*
X2091287Y839348D01*
X2091287Y837348D01*
X2090454Y835348D01*
X2088787Y834348D01*
X2080454Y834348D01*
X2078787Y835348D01*
X2077954Y837348D01*
X2077954Y839348D01*
X2078787Y841348D01*
X2080454Y842348D01*
G54D12*
X2091287Y849882D02*
X2083787Y849882D01*
G54D12*
X2085454Y849882D02*
X2084287Y850882D01*
X2083787Y852882D01*
X2084287Y854882D01*
X2085454Y855882D01*
X2091287Y855882D01*
G54D12*
X2091287Y859549D02*
X2077954Y859549D01*
X2077954Y866549D01*
G54D12*
X2084620Y859549D02*
X2084620Y866549D01*
G54D12*
X1304750Y696700D02*
X1303750Y695033D01*
X1301750Y694200D01*
X1299750Y694200D01*
X1297750Y695033D01*
X1296750Y696700D01*
X1296750Y705033D01*
X1297750Y706700D01*
X1299750Y707533D01*
X1301750Y707533D01*
X1303750Y706700D01*
X1304750Y705033D01*
G54D12*
X1316417Y705033D02*
X1315417Y706700D01*
X1313417Y707533D01*
X1311417Y707533D01*
X1309417Y706700D01*
X1308417Y705033D01*
X1308417Y700867D01*
X1308417Y700033D01*
X1311417Y701700D01*
X1313417Y701700D01*
X1315417Y700867D01*
X1316417Y699200D01*
X1316417Y696700D01*
X1315417Y695033D01*
X1313417Y694200D01*
X1311417Y694200D01*
X1309417Y695033D01*
X1308417Y696700D01*
X1308417Y700867D01*
G54D12*
X1327818Y702533D02*
X1332818Y707533D01*
X1332818Y694200D01*
G54D12*
X1344485Y705033D02*
X1344485Y696700D01*
X1343485Y695033D01*
X1341485Y694200D01*
X1339485Y694200D01*
X1337485Y695033D01*
X1336485Y696700D01*
X1336485Y705033D01*
X1337485Y706700D01*
X1339485Y707533D01*
X1341485Y707533D01*
X1343485Y706700D01*
X1344485Y705033D01*
G54D12*
X1356152Y705033D02*
X1356152Y696700D01*
X1355152Y695033D01*
X1353152Y694200D01*
X1351152Y694200D01*
X1349152Y695033D01*
X1348152Y696700D01*
X1348152Y705033D01*
X1349152Y706700D01*
X1351152Y707533D01*
X1353152Y707533D01*
X1355152Y706700D01*
X1356152Y705033D01*
G54D12*
X1363686Y694200D02*
X1363686Y701700D01*
G54D12*
X1363686Y700033D02*
X1364686Y701200D01*
X1366686Y701700D01*
X1368686Y701200D01*
X1369686Y700033D01*
X1369686Y694200D01*
G54D12*
X1373353Y694200D02*
X1373353Y707533D01*
X1380353Y707533D01*
G54D12*
X1373353Y700867D02*
X1380353Y700867D01*
G54D12*
X891812Y784596D02*
X893479Y783596D01*
X894312Y781596D01*
X894312Y779596D01*
X893479Y777596D01*
X891812Y776596D01*
X883479Y776596D01*
X881812Y777596D01*
X880979Y779596D01*
X880979Y781596D01*
X881812Y783596D01*
X883479Y784596D01*
G54D12*
X880979Y788263D02*
X880979Y796263D01*
X882645Y795263D01*
X885145Y793263D01*
X888479Y791263D01*
X890979Y790263D01*
X894312Y790263D01*
G54D12*
X885979Y807664D02*
X880979Y812664D01*
X894312Y812664D01*
G54D12*
X883479Y824331D02*
X891812Y824331D01*
X893479Y823331D01*
X894312Y821331D01*
X894312Y819331D01*
X893479Y817331D01*
X891812Y816331D01*
X883479Y816331D01*
X881812Y817331D01*
X880979Y819331D01*
X880979Y821331D01*
X881812Y823331D01*
X883479Y824331D01*
G54D12*
X883479Y835998D02*
X891812Y835998D01*
X893479Y834998D01*
X894312Y832998D01*
X894312Y830998D01*
X893479Y828998D01*
X891812Y827998D01*
X883479Y827998D01*
X881812Y828998D01*
X880979Y830998D01*
X880979Y832998D01*
X881812Y834998D01*
X883479Y835998D01*
G54D12*
X894312Y843532D02*
X886812Y843532D01*
G54D12*
X888479Y843532D02*
X887312Y844532D01*
X886812Y846532D01*
X887312Y848532D01*
X888479Y849532D01*
X894312Y849532D01*
G54D12*
X894312Y853199D02*
X880979Y853199D01*
X880979Y860199D01*
G54D12*
X887645Y853199D02*
X887645Y860199D01*
G54D12*
X250248Y876886D02*
X251915Y875886D01*
X252748Y873886D01*
X252748Y871886D01*
X251915Y869886D01*
X250248Y868886D01*
X241915Y868886D01*
X240248Y869886D01*
X239415Y871886D01*
X239415Y873886D01*
X240248Y875886D01*
X241915Y876886D01*
G54D12*
X246081Y885553D02*
X246081Y883553D01*
X245248Y881553D01*
X243581Y880553D01*
X241915Y880553D01*
X240248Y881553D01*
X239415Y883553D01*
X239415Y885553D01*
X240248Y887553D01*
X241915Y888553D01*
X243581Y888553D01*
X245248Y887553D01*
X246081Y885553D01*
X246915Y887553D01*
X248581Y888553D01*
X250248Y888553D01*
X251915Y887553D01*
X252748Y885553D01*
X252748Y883553D01*
X251915Y881553D01*
X250248Y880553D01*
X248581Y880553D01*
X246915Y881553D01*
X246081Y883553D01*
G54D12*
X244415Y899954D02*
X239415Y904954D01*
X252748Y904954D01*
G54D12*
X241915Y916621D02*
X250248Y916621D01*
X251915Y915621D01*
X252748Y913621D01*
X252748Y911621D01*
X251915Y909621D01*
X250248Y908621D01*
X241915Y908621D01*
X240248Y909621D01*
X239415Y911621D01*
X239415Y913621D01*
X240248Y915621D01*
X241915Y916621D01*
G54D12*
X241915Y928288D02*
X250248Y928288D01*
X251915Y927288D01*
X252748Y925288D01*
X252748Y923288D01*
X251915Y921288D01*
X250248Y920288D01*
X241915Y920288D01*
X240248Y921288D01*
X239415Y923288D01*
X239415Y925288D01*
X240248Y927288D01*
X241915Y928288D01*
G54D12*
X252748Y935822D02*
X245248Y935822D01*
G54D12*
X246915Y935822D02*
X245748Y936822D01*
X245248Y938822D01*
X245748Y940822D01*
X246915Y941822D01*
X252748Y941822D01*
G54D12*
X252748Y945489D02*
X239415Y945489D01*
X239415Y952489D01*
G54D12*
X246081Y945489D02*
X246081Y952489D01*
G54D12*
X1381750Y807191D02*
X1383417Y810191D01*
X1385084Y811191D01*
X1388417Y811191D01*
G54D12*
X1388417Y803191D02*
X1375084Y803191D01*
X1375084Y808191D01*
X1375917Y810191D01*
X1377584Y811191D01*
X1379250Y811191D01*
X1380917Y810191D01*
X1381750Y808191D01*
X1381750Y803191D01*
G54D12*
X1380084Y814858D02*
X1375084Y819858D01*
X1388417Y819858D01*
G54D12*
X1272175Y780242D02*
X1275175Y778575D01*
X1276175Y776908D01*
X1276175Y773575D01*
G54D12*
X1268175Y773575D02*
X1268175Y786908D01*
X1273175Y786908D01*
X1275175Y786075D01*
X1276175Y784408D01*
X1276175Y782742D01*
X1275175Y781075D01*
X1273175Y780242D01*
X1268175Y780242D01*
G54D12*
X1287842Y773575D02*
X1279842Y773575D01*
X1279842Y774408D01*
X1280842Y776075D01*
X1286842Y781075D01*
X1287842Y782742D01*
X1287842Y784408D01*
X1286842Y786075D01*
X1284842Y786908D01*
X1282842Y786908D01*
X1280842Y786075D01*
X1279842Y784408D01*
G54D12*
X1307243Y773575D02*
X1299243Y773575D01*
X1299243Y774408D01*
X1300243Y776075D01*
X1306243Y781075D01*
X1307243Y782742D01*
X1307243Y784408D01*
X1306243Y786075D01*
X1304243Y786908D01*
X1302243Y786908D01*
X1300243Y786075D01*
X1299243Y784408D01*
G54D12*
X1318910Y773575D02*
X1310910Y773575D01*
X1310910Y774408D01*
X1311910Y776075D01*
X1317910Y781075D01*
X1318910Y782742D01*
X1318910Y784408D01*
X1317910Y786075D01*
X1315910Y786908D01*
X1313910Y786908D01*
X1311910Y786075D01*
X1310910Y784408D01*
G54D12*
X1330577Y784408D02*
X1330577Y776075D01*
X1329577Y774408D01*
X1327577Y773575D01*
X1325577Y773575D01*
X1323577Y774408D01*
X1322577Y776075D01*
X1322577Y784408D01*
X1323577Y786075D01*
X1325577Y786908D01*
X1327577Y786908D01*
X1329577Y786075D01*
X1330577Y784408D01*
G54D12*
X1338244Y780242D02*
X1341244Y778575D01*
X1342244Y776908D01*
X1342244Y773575D01*
G54D12*
X1334244Y773575D02*
X1334244Y786908D01*
X1339244Y786908D01*
X1341244Y786075D01*
X1342244Y784408D01*
X1342244Y782742D01*
X1341244Y781075D01*
X1339244Y780242D01*
X1334244Y780242D01*
G54D12*
X454224Y-1240470D02*
X457224Y-1242136D01*
X458224Y-1243803D01*
X458224Y-1247136D01*
G54D12*
X450224Y-1247136D02*
X450224Y-1233803D01*
X455224Y-1233803D01*
X457224Y-1234636D01*
X458224Y-1236303D01*
X458224Y-1237970D01*
X457224Y-1239636D01*
X455224Y-1240470D01*
X450224Y-1240470D01*
G54D12*
X461890Y-1233803D02*
X469890Y-1233803D01*
X468890Y-1235470D01*
X466890Y-1237970D01*
X464890Y-1241303D01*
X463890Y-1243803D01*
X463890Y-1247136D01*
G54D12*
X477424Y-1236303D02*
X478424Y-1234636D01*
X480424Y-1233803D01*
X482424Y-1233803D01*
X484424Y-1234636D01*
X485424Y-1236303D01*
X485424Y-1237970D01*
X484424Y-1239636D01*
X482424Y-1240470D01*
X484424Y-1241303D01*
X485424Y-1242970D01*
X485424Y-1244636D01*
X484424Y-1246303D01*
X482424Y-1247136D01*
X480424Y-1247136D01*
X478424Y-1246303D01*
X477424Y-1244636D01*
G54D12*
X489092Y-1247136D02*
X489092Y-1233803D01*
G54D12*
X489092Y-1242970D02*
X497092Y-1233803D01*
G54D12*
X492092Y-1240470D02*
X497092Y-1247136D01*
G54D12*
X500758Y-1236303D02*
X501758Y-1234636D01*
X503758Y-1233803D01*
X505758Y-1233803D01*
X507758Y-1234636D01*
X508758Y-1236303D01*
X508758Y-1237970D01*
X507758Y-1239636D01*
X505758Y-1240470D01*
X507758Y-1241303D01*
X508758Y-1242970D01*
X508758Y-1244636D01*
X507758Y-1246303D01*
X505758Y-1247136D01*
X503758Y-1247136D01*
X501758Y-1246303D01*
X500758Y-1244636D01*
G54D12*
X1302551Y553016D02*
X1304218Y556016D01*
X1305884Y557016D01*
X1309218Y557016D01*
G54D12*
X1309218Y549016D02*
X1295884Y549016D01*
X1295884Y554016D01*
X1296718Y556016D01*
X1298384Y557016D01*
X1300051Y557016D01*
X1301718Y556016D01*
X1302551Y554016D01*
X1302551Y549016D01*
G54D12*
X1298384Y560684D02*
X1296718Y561684D01*
X1295884Y563684D01*
X1295884Y565684D01*
X1296718Y567684D01*
X1298384Y568684D01*
X1300051Y568684D01*
X1301718Y567684D01*
X1302551Y565684D01*
X1303384Y567684D01*
X1305051Y568684D01*
X1306718Y568684D01*
X1308384Y567684D01*
X1309218Y565684D01*
X1309218Y563684D01*
X1308384Y561684D01*
X1306718Y560684D01*
G54D12*
X1302551Y585084D02*
X1302551Y583084D01*
X1301718Y581084D01*
X1300051Y580084D01*
X1298384Y580084D01*
X1296718Y581084D01*
X1295884Y583084D01*
X1295884Y585084D01*
X1296718Y587084D01*
X1298384Y588084D01*
X1300051Y588084D01*
X1301718Y587084D01*
X1302551Y585084D01*
X1303384Y587084D01*
X1305051Y588084D01*
X1306718Y588084D01*
X1308384Y587084D01*
X1309218Y585084D01*
X1309218Y583084D01*
X1308384Y581084D01*
X1306718Y580084D01*
X1305051Y580084D01*
X1303384Y581084D01*
X1302551Y583084D01*
G54D12*
X1309218Y599752D02*
X1309218Y591752D01*
X1308384Y591752D01*
X1306718Y592752D01*
X1301718Y598752D01*
X1300051Y599752D01*
X1298384Y599752D01*
X1296718Y598752D01*
X1295884Y596752D01*
X1295884Y594752D01*
X1296718Y592752D01*
X1298384Y591752D01*
G54D12*
X1302551Y607418D02*
X1304218Y610418D01*
X1305884Y611418D01*
X1309218Y611418D01*
G54D12*
X1309218Y603418D02*
X1295884Y603418D01*
X1295884Y608418D01*
X1296718Y610418D01*
X1298384Y611418D01*
X1300051Y611418D01*
X1301718Y610418D01*
X1302551Y608418D01*
X1302551Y603418D01*
G54D13*
X1867054Y860895D02*
X1841654Y860895D01*
X1841654Y789295D01*
X1867054Y789295D01*
X1867054Y860895D01*
G54D13*
X1862354Y826695D02*
X1846354Y826695D01*
G54D13*
X1862354Y823495D02*
X1846354Y823495D01*
G54D13*
X1854354Y839395D02*
X1854354Y826695D01*
G54D13*
X1854354Y823495D02*
X1854354Y810795D01*
G54D11*
X1410115Y-1239594D02*
X1410115Y-1225372D01*
G54D11*
X1405848Y-1225372D02*
X1414382Y-1225372D01*
G54D11*
X1426826Y-1239594D02*
X1419359Y-1239594D01*
X1419359Y-1225372D01*
X1426826Y-1225372D01*
G54D11*
X1419359Y-1232483D02*
X1426826Y-1232483D01*
G54D11*
X1436071Y-1232483D02*
X1439271Y-1234261D01*
X1440338Y-1236039D01*
X1440338Y-1239594D01*
G54D11*
X1431804Y-1239594D02*
X1431804Y-1225372D01*
X1437138Y-1225372D01*
X1439271Y-1226261D01*
X1440338Y-1228039D01*
X1440338Y-1229816D01*
X1439271Y-1231594D01*
X1437138Y-1232483D01*
X1431804Y-1232483D01*
G54D11*
X1445315Y-1239594D02*
X1445315Y-1225372D01*
X1450649Y-1234261D01*
X1455982Y-1225372D01*
X1455982Y-1239594D01*
G54D11*
X1460960Y-1239594D02*
X1460960Y-1239594D01*
G54D13*
G75*
G01X1412000Y-1168394D02*
G03X1441389Y-1168394I14694J-20225D01*
G01*
G54D13*
X1440995Y-1168419D02*
X1412396Y-1168420D01*
G54D12*
X1377584Y828591D02*
X1375917Y829591D01*
X1375084Y831591D01*
X1375084Y833591D01*
X1375917Y835591D01*
X1377584Y836591D01*
X1379250Y836591D01*
X1380917Y835591D01*
X1381750Y833591D01*
X1382584Y835591D01*
X1384250Y836591D01*
X1385917Y836591D01*
X1387584Y835591D01*
X1388417Y833591D01*
X1388417Y831591D01*
X1387584Y829591D01*
X1385917Y828591D01*
G54D12*
X1377584Y840258D02*
X1375917Y841258D01*
X1375084Y843258D01*
X1375084Y845258D01*
X1375917Y847258D01*
X1377584Y848258D01*
X1379250Y848258D01*
X1380917Y847258D01*
X1381750Y845258D01*
X1382584Y847258D01*
X1384250Y848258D01*
X1385917Y848258D01*
X1387584Y847258D01*
X1388417Y845258D01*
X1388417Y843258D01*
X1387584Y841258D01*
X1385917Y840258D01*
G54D12*
X1377584Y859925D02*
X1385917Y859925D01*
X1387584Y858925D01*
X1388417Y856925D01*
X1388417Y854925D01*
X1387584Y852925D01*
X1385917Y851925D01*
X1377584Y851925D01*
X1375917Y852925D01*
X1375084Y854925D01*
X1375084Y856925D01*
X1375917Y858925D01*
X1377584Y859925D01*
G54D12*
X1381750Y867592D02*
X1383417Y870592D01*
X1385084Y871592D01*
X1388417Y871592D01*
G54D12*
X1388417Y863592D02*
X1375084Y863592D01*
X1375084Y868592D01*
X1375917Y870592D01*
X1377584Y871592D01*
X1379250Y871592D01*
X1380917Y870592D01*
X1381750Y868592D01*
X1381750Y863592D01*
G54D12*
X1887100Y792608D02*
X1888767Y791608D01*
X1889600Y789608D01*
X1889600Y787608D01*
X1888767Y785608D01*
X1887100Y784608D01*
X1878767Y784608D01*
X1877100Y785608D01*
X1876267Y787608D01*
X1876267Y789608D01*
X1877100Y791608D01*
X1878767Y792608D01*
G54D12*
X1876267Y804275D02*
X1876267Y796275D01*
X1882100Y796275D01*
X1882100Y797275D01*
X1881267Y799275D01*
X1881267Y801275D01*
X1882100Y803275D01*
X1883767Y804275D01*
X1887100Y804275D01*
X1888767Y803275D01*
X1889600Y801275D01*
X1889600Y799275D01*
X1888767Y797275D01*
X1887100Y796275D01*
G54D12*
X1881267Y815676D02*
X1876267Y820676D01*
X1889600Y820676D01*
G54D12*
X1878767Y832343D02*
X1887100Y832343D01*
X1888767Y831343D01*
X1889600Y829343D01*
X1889600Y827343D01*
X1888767Y825343D01*
X1887100Y824343D01*
X1878767Y824343D01*
X1877100Y825343D01*
X1876267Y827343D01*
X1876267Y829343D01*
X1877100Y831343D01*
X1878767Y832343D01*
G54D12*
X1878767Y844010D02*
X1887100Y844010D01*
X1888767Y843010D01*
X1889600Y841010D01*
X1889600Y839010D01*
X1888767Y837010D01*
X1887100Y836010D01*
X1878767Y836010D01*
X1877100Y837010D01*
X1876267Y839010D01*
X1876267Y841010D01*
X1877100Y843010D01*
X1878767Y844010D01*
G54D12*
X1889600Y851544D02*
X1882100Y851544D01*
G54D12*
X1883767Y851544D02*
X1882600Y852544D01*
X1882100Y854544D01*
X1882600Y856544D01*
X1883767Y857544D01*
X1889600Y857544D01*
G54D12*
X1889600Y861211D02*
X1876267Y861211D01*
X1876267Y868211D01*
G54D12*
X1882933Y861211D02*
X1882933Y868211D01*
G54D12*
X561800Y588750D02*
X560800Y587083D01*
X558800Y586250D01*
X556800Y586250D01*
X554800Y587083D01*
X553800Y588750D01*
X553800Y597083D01*
X554800Y598750D01*
X556800Y599583D01*
X558800Y599583D01*
X560800Y598750D01*
X561800Y597083D01*
G54D12*
X565467Y588750D02*
X566467Y587083D01*
X568467Y586250D01*
X570467Y586250D01*
X572467Y587083D01*
X573467Y588750D01*
X573467Y592917D01*
X573467Y593750D01*
X570467Y592083D01*
X568467Y592083D01*
X566467Y592917D01*
X565467Y594583D01*
X565467Y597083D01*
X566467Y598750D01*
X568467Y599583D01*
X570467Y599583D01*
X572467Y598750D01*
X573467Y597083D01*
X573467Y592917D01*
G54D12*
X584868Y594583D02*
X589868Y599583D01*
X589868Y586250D01*
G54D12*
X601535Y597083D02*
X601535Y588750D01*
X600535Y587083D01*
X598535Y586250D01*
X596535Y586250D01*
X594535Y587083D01*
X593535Y588750D01*
X593535Y597083D01*
X594535Y598750D01*
X596535Y599583D01*
X598535Y599583D01*
X600535Y598750D01*
X601535Y597083D01*
G54D12*
X613202Y597083D02*
X613202Y588750D01*
X612202Y587083D01*
X610202Y586250D01*
X608202Y586250D01*
X606202Y587083D01*
X605202Y588750D01*
X605202Y597083D01*
X606202Y598750D01*
X608202Y599583D01*
X610202Y599583D01*
X612202Y598750D01*
X613202Y597083D01*
G54D12*
X620736Y586250D02*
X620736Y593750D01*
G54D12*
X620736Y592083D02*
X621736Y593250D01*
X623736Y593750D01*
X625736Y593250D01*
X626736Y592083D01*
X626736Y586250D01*
G54D12*
X630403Y586250D02*
X630403Y599583D01*
X637403Y599583D01*
G54D12*
X630403Y592917D02*
X637403Y592917D01*
G54D12*
X561800Y341100D02*
X560800Y339433D01*
X558800Y338600D01*
X556800Y338600D01*
X554800Y339433D01*
X553800Y341100D01*
X553800Y349433D01*
X554800Y351100D01*
X556800Y351933D01*
X558800Y351933D01*
X560800Y351100D01*
X561800Y349433D01*
G54D12*
X565467Y346933D02*
X570467Y351933D01*
X570467Y338600D01*
G54D12*
X582134Y349433D02*
X582134Y341100D01*
X581134Y339433D01*
X579134Y338600D01*
X577134Y338600D01*
X575134Y339433D01*
X574134Y341100D01*
X574134Y349433D01*
X575134Y351100D01*
X577134Y351933D01*
X579134Y351933D01*
X581134Y351100D01*
X582134Y349433D01*
G54D12*
X593535Y346933D02*
X598535Y351933D01*
X598535Y338600D01*
G54D12*
X610202Y349433D02*
X610202Y341100D01*
X609202Y339433D01*
X607202Y338600D01*
X605202Y338600D01*
X603202Y339433D01*
X602202Y341100D01*
X602202Y349433D01*
X603202Y351100D01*
X605202Y351933D01*
X607202Y351933D01*
X609202Y351100D01*
X610202Y349433D01*
G54D12*
X621869Y349433D02*
X621869Y341100D01*
X620869Y339433D01*
X618869Y338600D01*
X616869Y338600D01*
X614869Y339433D01*
X613869Y341100D01*
X613869Y349433D01*
X614869Y351100D01*
X616869Y351933D01*
X618869Y351933D01*
X620869Y351100D01*
X621869Y349433D01*
G54D12*
X629403Y338600D02*
X629403Y346100D01*
G54D12*
X629403Y344433D02*
X630403Y345600D01*
X632403Y346100D01*
X634403Y345600D01*
X635403Y344433D01*
X635403Y338600D01*
G54D12*
X639070Y338600D02*
X639070Y351933D01*
X646070Y351933D01*
G54D12*
X639070Y345267D02*
X646070Y345267D01*
G54D12*
X561800Y87100D02*
X560800Y85433D01*
X558800Y84600D01*
X556800Y84600D01*
X554800Y85433D01*
X553800Y87100D01*
X553800Y95433D01*
X554800Y97100D01*
X556800Y97933D01*
X558800Y97933D01*
X560800Y97100D01*
X561800Y95433D01*
G54D12*
X565467Y92933D02*
X570467Y97933D01*
X570467Y84600D01*
G54D12*
X574134Y92933D02*
X579134Y97933D01*
X579134Y84600D01*
G54D12*
X590535Y92933D02*
X595535Y97933D01*
X595535Y84600D01*
G54D12*
X607202Y95433D02*
X607202Y87100D01*
X606202Y85433D01*
X604202Y84600D01*
X602202Y84600D01*
X600202Y85433D01*
X599202Y87100D01*
X599202Y95433D01*
X600202Y97100D01*
X602202Y97933D01*
X604202Y97933D01*
X606202Y97100D01*
X607202Y95433D01*
G54D12*
X618869Y95433D02*
X618869Y87100D01*
X617869Y85433D01*
X615869Y84600D01*
X613869Y84600D01*
X611869Y85433D01*
X610869Y87100D01*
X610869Y95433D01*
X611869Y97100D01*
X613869Y97933D01*
X615869Y97933D01*
X617869Y97100D01*
X618869Y95433D01*
G54D12*
X626403Y84600D02*
X626403Y92100D01*
G54D12*
X626403Y90433D02*
X627403Y91600D01*
X629403Y92100D01*
X631403Y91600D01*
X632403Y90433D01*
X632403Y84600D01*
G54D12*
X636070Y84600D02*
X636070Y97933D01*
X643070Y97933D01*
G54D12*
X636070Y91267D02*
X643070Y91267D01*
G54D12*
X561800Y-157375D02*
X560800Y-159042D01*
X558800Y-159875D01*
X556800Y-159875D01*
X554800Y-159042D01*
X553800Y-157375D01*
X553800Y-149042D01*
X554800Y-147375D01*
X556800Y-146542D01*
X558800Y-146542D01*
X560800Y-147375D01*
X561800Y-149042D01*
G54D12*
X565467Y-151542D02*
X570467Y-146542D01*
X570467Y-159875D01*
G54D12*
X582134Y-159875D02*
X574134Y-159875D01*
X574134Y-159042D01*
X575134Y-157375D01*
X581134Y-152375D01*
X582134Y-150708D01*
X582134Y-149042D01*
X581134Y-147375D01*
X579134Y-146542D01*
X577134Y-146542D01*
X575134Y-147375D01*
X574134Y-149042D01*
G54D12*
X593535Y-151542D02*
X598535Y-146542D01*
X598535Y-159875D01*
G54D12*
X610202Y-149042D02*
X610202Y-157375D01*
X609202Y-159042D01*
X607202Y-159875D01*
X605202Y-159875D01*
X603202Y-159042D01*
X602202Y-157375D01*
X602202Y-149042D01*
X603202Y-147375D01*
X605202Y-146542D01*
X607202Y-146542D01*
X609202Y-147375D01*
X610202Y-149042D01*
G54D12*
X621869Y-149042D02*
X621869Y-157375D01*
X620869Y-159042D01*
X618869Y-159875D01*
X616869Y-159875D01*
X614869Y-159042D01*
X613869Y-157375D01*
X613869Y-149042D01*
X614869Y-147375D01*
X616869Y-146542D01*
X618869Y-146542D01*
X620869Y-147375D01*
X621869Y-149042D01*
G54D12*
X629403Y-159875D02*
X629403Y-152375D01*
G54D12*
X629403Y-154042D02*
X630403Y-152875D01*
X632403Y-152375D01*
X634403Y-152875D01*
X635403Y-154042D01*
X635403Y-159875D01*
G54D12*
X639070Y-159875D02*
X639070Y-146542D01*
X646070Y-146542D01*
G54D12*
X639070Y-153208D02*
X646070Y-153208D01*
G54D12*
X561800Y-398675D02*
X560800Y-400342D01*
X558800Y-401175D01*
X556800Y-401175D01*
X554800Y-400342D01*
X553800Y-398675D01*
X553800Y-390342D01*
X554800Y-388675D01*
X556800Y-387842D01*
X558800Y-387842D01*
X560800Y-388675D01*
X561800Y-390342D01*
G54D12*
X565467Y-392842D02*
X570467Y-387842D01*
X570467Y-401175D01*
G54D12*
X574134Y-390342D02*
X575134Y-388675D01*
X577134Y-387842D01*
X579134Y-387842D01*
X581134Y-388675D01*
X582134Y-390342D01*
X582134Y-392008D01*
X581134Y-393675D01*
X579134Y-394508D01*
X581134Y-395342D01*
X582134Y-397008D01*
X582134Y-398675D01*
X581134Y-400342D01*
X579134Y-401175D01*
X577134Y-401175D01*
X575134Y-400342D01*
X574134Y-398675D01*
G54D12*
X593535Y-392842D02*
X598535Y-387842D01*
X598535Y-401175D01*
G54D12*
X610202Y-390342D02*
X610202Y-398675D01*
X609202Y-400342D01*
X607202Y-401175D01*
X605202Y-401175D01*
X603202Y-400342D01*
X602202Y-398675D01*
X602202Y-390342D01*
X603202Y-388675D01*
X605202Y-387842D01*
X607202Y-387842D01*
X609202Y-388675D01*
X610202Y-390342D01*
G54D12*
X621869Y-390342D02*
X621869Y-398675D01*
X620869Y-400342D01*
X618869Y-401175D01*
X616869Y-401175D01*
X614869Y-400342D01*
X613869Y-398675D01*
X613869Y-390342D01*
X614869Y-388675D01*
X616869Y-387842D01*
X618869Y-387842D01*
X620869Y-388675D01*
X621869Y-390342D01*
G54D12*
X629403Y-401175D02*
X629403Y-393675D01*
G54D12*
X629403Y-395342D02*
X630403Y-394175D01*
X632403Y-393675D01*
X634403Y-394175D01*
X635403Y-395342D01*
X635403Y-401175D01*
G54D12*
X639070Y-401175D02*
X639070Y-387842D01*
X646070Y-387842D01*
G54D12*
X639070Y-394508D02*
X646070Y-394508D01*
G54D12*
X561800Y-646325D02*
X560800Y-647992D01*
X558800Y-648825D01*
X556800Y-648825D01*
X554800Y-647992D01*
X553800Y-646325D01*
X553800Y-637992D01*
X554800Y-636325D01*
X556800Y-635492D01*
X558800Y-635492D01*
X560800Y-636325D01*
X561800Y-637992D01*
G54D12*
X565467Y-640492D02*
X570467Y-635492D01*
X570467Y-648825D01*
G54D12*
X580134Y-648825D02*
X580134Y-635492D01*
X574134Y-643825D01*
X574134Y-645492D01*
X582134Y-645492D01*
G54D12*
X593535Y-640492D02*
X598535Y-635492D01*
X598535Y-648825D01*
G54D12*
X610202Y-637992D02*
X610202Y-646325D01*
X609202Y-647992D01*
X607202Y-648825D01*
X605202Y-648825D01*
X603202Y-647992D01*
X602202Y-646325D01*
X602202Y-637992D01*
X603202Y-636325D01*
X605202Y-635492D01*
X607202Y-635492D01*
X609202Y-636325D01*
X610202Y-637992D01*
G54D12*
X621869Y-637992D02*
X621869Y-646325D01*
X620869Y-647992D01*
X618869Y-648825D01*
X616869Y-648825D01*
X614869Y-647992D01*
X613869Y-646325D01*
X613869Y-637992D01*
X614869Y-636325D01*
X616869Y-635492D01*
X618869Y-635492D01*
X620869Y-636325D01*
X621869Y-637992D01*
G54D12*
X629403Y-648825D02*
X629403Y-641325D01*
G54D12*
X629403Y-642992D02*
X630403Y-641825D01*
X632403Y-641325D01*
X634403Y-641825D01*
X635403Y-642992D01*
X635403Y-648825D01*
G54D12*
X639070Y-648825D02*
X639070Y-635492D01*
X646070Y-635492D01*
G54D12*
X639070Y-642158D02*
X646070Y-642158D01*
G54D12*
X561800Y-890800D02*
X560800Y-892466D01*
X558800Y-893300D01*
X556800Y-893300D01*
X554800Y-892466D01*
X553800Y-890800D01*
X553800Y-882466D01*
X554800Y-880800D01*
X556800Y-879966D01*
X558800Y-879966D01*
X560800Y-880800D01*
X561800Y-882466D01*
G54D12*
X565467Y-884966D02*
X570467Y-879966D01*
X570467Y-893300D01*
G54D12*
X582134Y-879966D02*
X574134Y-879966D01*
X574134Y-885800D01*
X575134Y-885800D01*
X577134Y-884966D01*
X579134Y-884966D01*
X581134Y-885800D01*
X582134Y-887466D01*
X582134Y-890800D01*
X581134Y-892466D01*
X579134Y-893300D01*
X577134Y-893300D01*
X575134Y-892466D01*
X574134Y-890800D01*
G54D12*
X593535Y-884966D02*
X598535Y-879966D01*
X598535Y-893300D01*
G54D12*
X610202Y-882466D02*
X610202Y-890800D01*
X609202Y-892466D01*
X607202Y-893300D01*
X605202Y-893300D01*
X603202Y-892466D01*
X602202Y-890800D01*
X602202Y-882466D01*
X603202Y-880800D01*
X605202Y-879966D01*
X607202Y-879966D01*
X609202Y-880800D01*
X610202Y-882466D01*
G54D12*
X621869Y-882466D02*
X621869Y-890800D01*
X620869Y-892466D01*
X618869Y-893300D01*
X616869Y-893300D01*
X614869Y-892466D01*
X613869Y-890800D01*
X613869Y-882466D01*
X614869Y-880800D01*
X616869Y-879966D01*
X618869Y-879966D01*
X620869Y-880800D01*
X621869Y-882466D01*
G54D12*
X629403Y-893300D02*
X629403Y-885800D01*
G54D12*
X629403Y-887466D02*
X630403Y-886300D01*
X632403Y-885800D01*
X634403Y-886300D01*
X635403Y-887466D01*
X635403Y-893300D01*
G54D12*
X639070Y-893300D02*
X639070Y-879966D01*
X646070Y-879966D01*
G54D12*
X639070Y-886634D02*
X646070Y-886634D01*
G54D12*
X682450Y-928900D02*
X681450Y-930566D01*
X679450Y-931400D01*
X677450Y-931400D01*
X675450Y-930566D01*
X674450Y-928900D01*
X674450Y-920566D01*
X675450Y-918900D01*
X677450Y-918066D01*
X679450Y-918066D01*
X681450Y-918900D01*
X682450Y-920566D01*
G54D12*
X686117Y-923066D02*
X691117Y-918066D01*
X691117Y-931400D01*
G54D12*
X702784Y-920566D02*
X701784Y-918900D01*
X699784Y-918066D01*
X697784Y-918066D01*
X695784Y-918900D01*
X694784Y-920566D01*
X694784Y-924734D01*
X694784Y-925566D01*
X697784Y-923900D01*
X699784Y-923900D01*
X701784Y-924734D01*
X702784Y-926400D01*
X702784Y-928900D01*
X701784Y-930566D01*
X699784Y-931400D01*
X697784Y-931400D01*
X695784Y-930566D01*
X694784Y-928900D01*
X694784Y-924734D01*
G54D12*
X720185Y-931400D02*
X720185Y-918066D01*
X714185Y-926400D01*
X714185Y-928066D01*
X722185Y-928066D01*
G54D12*
X725852Y-918066D02*
X733852Y-918066D01*
X732852Y-919734D01*
X730852Y-922234D01*
X728852Y-925566D01*
X727852Y-928066D01*
X727852Y-931400D01*
G54D12*
X747386Y-923900D02*
X747386Y-931400D01*
G54D12*
X747386Y-929734D02*
X746386Y-931066D01*
X744386Y-931400D01*
X742386Y-931066D01*
X741386Y-929734D01*
X741386Y-923900D01*
G54D12*
X751053Y-931400D02*
X751053Y-918066D01*
X758053Y-918066D01*
G54D12*
X751053Y-924734D02*
X758053Y-924734D01*
G54D12*
X773587Y-931400D02*
X765587Y-931400D01*
X765587Y-930566D01*
X766587Y-928900D01*
X772587Y-923900D01*
X773587Y-922234D01*
X773587Y-920566D01*
X772587Y-918900D01*
X770587Y-918066D01*
X768587Y-918066D01*
X766587Y-918900D01*
X765587Y-920566D01*
G54D12*
X785254Y-918066D02*
X777254Y-918066D01*
X777254Y-923900D01*
X778254Y-923900D01*
X780254Y-923066D01*
X782254Y-923066D01*
X784254Y-923900D01*
X785254Y-925566D01*
X785254Y-928900D01*
X784254Y-930566D01*
X782254Y-931400D01*
X780254Y-931400D01*
X778254Y-930566D01*
X777254Y-928900D01*
G54D12*
X788921Y-918066D02*
X793921Y-931400D01*
X798921Y-918066D01*
G54D12*
X682450Y-684425D02*
X681450Y-686092D01*
X679450Y-686925D01*
X677450Y-686925D01*
X675450Y-686092D01*
X674450Y-684425D01*
X674450Y-676092D01*
X675450Y-674425D01*
X677450Y-673592D01*
X679450Y-673592D01*
X681450Y-674425D01*
X682450Y-676092D01*
G54D12*
X686117Y-678592D02*
X691117Y-673592D01*
X691117Y-686925D01*
G54D12*
X694784Y-673592D02*
X702784Y-673592D01*
X701784Y-675258D01*
X699784Y-677758D01*
X697784Y-681092D01*
X696784Y-683592D01*
X696784Y-686925D01*
G54D12*
X720185Y-686925D02*
X720185Y-673592D01*
X714185Y-681925D01*
X714185Y-683592D01*
X722185Y-683592D01*
G54D12*
X725852Y-673592D02*
X733852Y-673592D01*
X732852Y-675258D01*
X730852Y-677758D01*
X728852Y-681092D01*
X727852Y-683592D01*
X727852Y-686925D01*
G54D12*
X747386Y-679425D02*
X747386Y-686925D01*
G54D12*
X747386Y-685258D02*
X746386Y-686592D01*
X744386Y-686925D01*
X742386Y-686592D01*
X741386Y-685258D01*
X741386Y-679425D01*
G54D12*
X751053Y-686925D02*
X751053Y-673592D01*
X758053Y-673592D01*
G54D12*
X751053Y-680258D02*
X758053Y-680258D01*
G54D12*
X773587Y-686925D02*
X765587Y-686925D01*
X765587Y-686092D01*
X766587Y-684425D01*
X772587Y-679425D01*
X773587Y-677758D01*
X773587Y-676092D01*
X772587Y-674425D01*
X770587Y-673592D01*
X768587Y-673592D01*
X766587Y-674425D01*
X765587Y-676092D01*
G54D12*
X785254Y-673592D02*
X777254Y-673592D01*
X777254Y-679425D01*
X778254Y-679425D01*
X780254Y-678592D01*
X782254Y-678592D01*
X784254Y-679425D01*
X785254Y-681092D01*
X785254Y-684425D01*
X784254Y-686092D01*
X782254Y-686925D01*
X780254Y-686925D01*
X778254Y-686092D01*
X777254Y-684425D01*
G54D12*
X788921Y-673592D02*
X793921Y-686925D01*
X798921Y-673592D01*
G54D12*
X682450Y-433600D02*
X681450Y-435266D01*
X679450Y-436100D01*
X677450Y-436100D01*
X675450Y-435266D01*
X674450Y-433600D01*
X674450Y-425266D01*
X675450Y-423600D01*
X677450Y-422766D01*
X679450Y-422766D01*
X681450Y-423600D01*
X682450Y-425266D01*
G54D12*
X686117Y-427766D02*
X691117Y-422766D01*
X691117Y-436100D01*
G54D12*
X699784Y-429434D02*
X697784Y-429434D01*
X695784Y-428600D01*
X694784Y-426934D01*
X694784Y-425266D01*
X695784Y-423600D01*
X697784Y-422766D01*
X699784Y-422766D01*
X701784Y-423600D01*
X702784Y-425266D01*
X702784Y-426934D01*
X701784Y-428600D01*
X699784Y-429434D01*
X701784Y-430266D01*
X702784Y-431934D01*
X702784Y-433600D01*
X701784Y-435266D01*
X699784Y-436100D01*
X697784Y-436100D01*
X695784Y-435266D01*
X694784Y-433600D01*
X694784Y-431934D01*
X695784Y-430266D01*
X697784Y-429434D01*
G54D12*
X720185Y-436100D02*
X720185Y-422766D01*
X714185Y-431100D01*
X714185Y-432766D01*
X722185Y-432766D01*
G54D12*
X725852Y-422766D02*
X733852Y-422766D01*
X732852Y-424434D01*
X730852Y-426934D01*
X728852Y-430266D01*
X727852Y-432766D01*
X727852Y-436100D01*
G54D12*
X747386Y-428600D02*
X747386Y-436100D01*
G54D12*
X747386Y-434434D02*
X746386Y-435766D01*
X744386Y-436100D01*
X742386Y-435766D01*
X741386Y-434434D01*
X741386Y-428600D01*
G54D12*
X751053Y-436100D02*
X751053Y-422766D01*
X758053Y-422766D01*
G54D12*
X751053Y-429434D02*
X758053Y-429434D01*
G54D12*
X773587Y-436100D02*
X765587Y-436100D01*
X765587Y-435266D01*
X766587Y-433600D01*
X772587Y-428600D01*
X773587Y-426934D01*
X773587Y-425266D01*
X772587Y-423600D01*
X770587Y-422766D01*
X768587Y-422766D01*
X766587Y-423600D01*
X765587Y-425266D01*
G54D12*
X785254Y-422766D02*
X777254Y-422766D01*
X777254Y-428600D01*
X778254Y-428600D01*
X780254Y-427766D01*
X782254Y-427766D01*
X784254Y-428600D01*
X785254Y-430266D01*
X785254Y-433600D01*
X784254Y-435266D01*
X782254Y-436100D01*
X780254Y-436100D01*
X778254Y-435266D01*
X777254Y-433600D01*
G54D12*
X788921Y-422766D02*
X793921Y-436100D01*
X798921Y-422766D01*
G54D12*
X679275Y-192300D02*
X678275Y-193966D01*
X676275Y-194800D01*
X674275Y-194800D01*
X672275Y-193966D01*
X671275Y-192300D01*
X671275Y-183966D01*
X672275Y-182300D01*
X674275Y-181466D01*
X676275Y-181466D01*
X678275Y-182300D01*
X679275Y-183966D01*
G54D12*
X682942Y-186466D02*
X687942Y-181466D01*
X687942Y-194800D01*
G54D12*
X691609Y-192300D02*
X692609Y-193966D01*
X694609Y-194800D01*
X696609Y-194800D01*
X698609Y-193966D01*
X699609Y-192300D01*
X699609Y-188134D01*
X699609Y-187300D01*
X696609Y-188966D01*
X694609Y-188966D01*
X692609Y-188134D01*
X691609Y-186466D01*
X691609Y-183966D01*
X692609Y-182300D01*
X694609Y-181466D01*
X696609Y-181466D01*
X698609Y-182300D01*
X699609Y-183966D01*
X699609Y-188134D01*
G54D12*
X717010Y-194800D02*
X717010Y-181466D01*
X711010Y-189800D01*
X711010Y-191466D01*
X719010Y-191466D01*
G54D12*
X722677Y-181466D02*
X730677Y-181466D01*
X729677Y-183134D01*
X727677Y-185634D01*
X725677Y-188966D01*
X724677Y-191466D01*
X724677Y-194800D01*
G54D12*
X744211Y-187300D02*
X744211Y-194800D01*
G54D12*
X744211Y-193134D02*
X743211Y-194466D01*
X741211Y-194800D01*
X739211Y-194466D01*
X738211Y-193134D01*
X738211Y-187300D01*
G54D12*
X747878Y-194800D02*
X747878Y-181466D01*
X754878Y-181466D01*
G54D12*
X747878Y-188134D02*
X754878Y-188134D01*
G54D12*
X770412Y-194800D02*
X762412Y-194800D01*
X762412Y-193966D01*
X763412Y-192300D01*
X769412Y-187300D01*
X770412Y-185634D01*
X770412Y-183966D01*
X769412Y-182300D01*
X767412Y-181466D01*
X765412Y-181466D01*
X763412Y-182300D01*
X762412Y-183966D01*
G54D12*
X782079Y-181466D02*
X774079Y-181466D01*
X774079Y-187300D01*
X775079Y-187300D01*
X777079Y-186466D01*
X779079Y-186466D01*
X781079Y-187300D01*
X782079Y-188966D01*
X782079Y-192300D01*
X781079Y-193966D01*
X779079Y-194800D01*
X777079Y-194800D01*
X775079Y-193966D01*
X774079Y-192300D01*
G54D12*
X785746Y-181466D02*
X790746Y-194800D01*
X795746Y-181466D01*
G54D12*
X679275Y49000D02*
X678275Y47333D01*
X676275Y46500D01*
X674275Y46500D01*
X672275Y47333D01*
X671275Y49000D01*
X671275Y57333D01*
X672275Y59000D01*
X674275Y59833D01*
X676275Y59833D01*
X678275Y59000D01*
X679275Y57333D01*
G54D12*
X690942Y46500D02*
X682942Y46500D01*
X682942Y47333D01*
X683942Y49000D01*
X689942Y54000D01*
X690942Y55667D01*
X690942Y57333D01*
X689942Y59000D01*
X687942Y59833D01*
X685942Y59833D01*
X683942Y59000D01*
X682942Y57333D01*
G54D12*
X702609Y57333D02*
X702609Y49000D01*
X701609Y47333D01*
X699609Y46500D01*
X697609Y46500D01*
X695609Y47333D01*
X694609Y49000D01*
X694609Y57333D01*
X695609Y59000D01*
X697609Y59833D01*
X699609Y59833D01*
X701609Y59000D01*
X702609Y57333D01*
G54D12*
X720010Y46500D02*
X720010Y59833D01*
X714010Y51500D01*
X714010Y49833D01*
X722010Y49833D01*
G54D12*
X725677Y59833D02*
X733677Y59833D01*
X732677Y58167D01*
X730677Y55667D01*
X728677Y52333D01*
X727677Y49833D01*
X727677Y46500D01*
G54D12*
X747211Y54000D02*
X747211Y46500D01*
G54D12*
X747211Y48167D02*
X746211Y46833D01*
X744211Y46500D01*
X742211Y46833D01*
X741211Y48167D01*
X741211Y54000D01*
G54D12*
X750878Y46500D02*
X750878Y59833D01*
X757878Y59833D01*
G54D12*
X750878Y53167D02*
X757878Y53167D01*
G54D12*
X773412Y46500D02*
X765412Y46500D01*
X765412Y47333D01*
X766412Y49000D01*
X772412Y54000D01*
X773412Y55667D01*
X773412Y57333D01*
X772412Y59000D01*
X770412Y59833D01*
X768412Y59833D01*
X766412Y59000D01*
X765412Y57333D01*
G54D12*
X785079Y59833D02*
X777079Y59833D01*
X777079Y54000D01*
X778079Y54000D01*
X780079Y54833D01*
X782079Y54833D01*
X784079Y54000D01*
X785079Y52333D01*
X785079Y49000D01*
X784079Y47333D01*
X782079Y46500D01*
X780079Y46500D01*
X778079Y47333D01*
X777079Y49000D01*
G54D12*
X788746Y59833D02*
X793746Y46500D01*
X798746Y59833D01*
G54D12*
X679275Y303000D02*
X678275Y301333D01*
X676275Y300500D01*
X674275Y300500D01*
X672275Y301333D01*
X671275Y303000D01*
X671275Y311333D01*
X672275Y313000D01*
X674275Y313833D01*
X676275Y313833D01*
X678275Y313000D01*
X679275Y311333D01*
G54D12*
X690942Y300500D02*
X682942Y300500D01*
X682942Y301333D01*
X683942Y303000D01*
X689942Y308000D01*
X690942Y309667D01*
X690942Y311333D01*
X689942Y313000D01*
X687942Y313833D01*
X685942Y313833D01*
X683942Y313000D01*
X682942Y311333D01*
G54D12*
X694609Y308833D02*
X699609Y313833D01*
X699609Y300500D01*
G54D12*
X717010Y300500D02*
X717010Y313833D01*
X711010Y305500D01*
X711010Y303833D01*
X719010Y303833D01*
G54D12*
X722677Y313833D02*
X730677Y313833D01*
X729677Y312167D01*
X727677Y309667D01*
X725677Y306333D01*
X724677Y303833D01*
X724677Y300500D01*
G54D12*
X744211Y308000D02*
X744211Y300500D01*
G54D12*
X744211Y302167D02*
X743211Y300833D01*
X741211Y300500D01*
X739211Y300833D01*
X738211Y302167D01*
X738211Y308000D01*
G54D12*
X747878Y300500D02*
X747878Y313833D01*
X754878Y313833D01*
G54D12*
X747878Y307167D02*
X754878Y307167D01*
G54D12*
X770412Y300500D02*
X762412Y300500D01*
X762412Y301333D01*
X763412Y303000D01*
X769412Y308000D01*
X770412Y309667D01*
X770412Y311333D01*
X769412Y313000D01*
X767412Y313833D01*
X765412Y313833D01*
X763412Y313000D01*
X762412Y311333D01*
G54D12*
X782079Y313833D02*
X774079Y313833D01*
X774079Y308000D01*
X775079Y308000D01*
X777079Y308833D01*
X779079Y308833D01*
X781079Y308000D01*
X782079Y306333D01*
X782079Y303000D01*
X781079Y301333D01*
X779079Y300500D01*
X777079Y300500D01*
X775079Y301333D01*
X774079Y303000D01*
G54D12*
X785746Y313833D02*
X790746Y300500D01*
X795746Y313833D01*
G54D12*
X679275Y553825D02*
X678275Y552158D01*
X676275Y551325D01*
X674275Y551325D01*
X672275Y552158D01*
X671275Y553825D01*
X671275Y562158D01*
X672275Y563825D01*
X674275Y564658D01*
X676275Y564658D01*
X678275Y563825D01*
X679275Y562158D01*
G54D12*
X690942Y551325D02*
X682942Y551325D01*
X682942Y552158D01*
X683942Y553825D01*
X689942Y558825D01*
X690942Y560492D01*
X690942Y562158D01*
X689942Y563825D01*
X687942Y564658D01*
X685942Y564658D01*
X683942Y563825D01*
X682942Y562158D01*
G54D12*
X702609Y551325D02*
X694609Y551325D01*
X694609Y552158D01*
X695609Y553825D01*
X701609Y558825D01*
X702609Y560492D01*
X702609Y562158D01*
X701609Y563825D01*
X699609Y564658D01*
X697609Y564658D01*
X695609Y563825D01*
X694609Y562158D01*
G54D12*
X720010Y551325D02*
X720010Y564658D01*
X714010Y556325D01*
X714010Y554658D01*
X722010Y554658D01*
G54D12*
X725677Y564658D02*
X733677Y564658D01*
X732677Y562992D01*
X730677Y560492D01*
X728677Y557158D01*
X727677Y554658D01*
X727677Y551325D01*
G54D12*
X747211Y558825D02*
X747211Y551325D01*
G54D12*
X747211Y552992D02*
X746211Y551658D01*
X744211Y551325D01*
X742211Y551658D01*
X741211Y552992D01*
X741211Y558825D01*
G54D12*
X750878Y551325D02*
X750878Y564658D01*
X757878Y564658D01*
G54D12*
X750878Y557992D02*
X757878Y557992D01*
G54D12*
X773412Y551325D02*
X765412Y551325D01*
X765412Y552158D01*
X766412Y553825D01*
X772412Y558825D01*
X773412Y560492D01*
X773412Y562158D01*
X772412Y563825D01*
X770412Y564658D01*
X768412Y564658D01*
X766412Y563825D01*
X765412Y562158D01*
G54D12*
X785079Y564658D02*
X777079Y564658D01*
X777079Y558825D01*
X778079Y558825D01*
X780079Y559658D01*
X782079Y559658D01*
X784079Y558825D01*
X785079Y557158D01*
X785079Y553825D01*
X784079Y552158D01*
X782079Y551325D01*
X780079Y551325D01*
X778079Y552158D01*
X777079Y553825D01*
G54D12*
X788746Y564658D02*
X793746Y551325D01*
X798746Y564658D01*
G54D13*
X1350750Y849725D02*
X1369750Y849725D01*
X1369750Y811725D01*
X1350750Y811725D01*
X1350750Y849725D01*
G54D13*
X1360250Y849825D02*
X1360250Y873600D01*
G54D13*
X1360250Y791025D02*
X1360250Y811625D01*
G54D20*
X925424Y850575D02*
X900024Y850575D01*
X900024Y778975D01*
X925424Y778975D01*
X925424Y850575D01*
G54D20*
X920724Y816375D02*
X904724Y816375D01*
G54D20*
X920724Y813175D02*
X904724Y813175D01*
G54D20*
X912724Y829075D02*
X912724Y816375D01*
G54D20*
X912724Y813175D02*
X912724Y800475D01*
G54D13*
X1349776Y602424D02*
X1368776Y602424D01*
X1368776Y564424D01*
X1349776Y564424D01*
X1349776Y602424D01*
G54D13*
X1359276Y602524D02*
X1359276Y629474D01*
G54D13*
X1359276Y537374D02*
X1359276Y564324D01*
G54D13*
X2070254Y860895D02*
X2044854Y860895D01*
X2044854Y789295D01*
X2070254Y789295D01*
X2070254Y860895D01*
G54D13*
X2065554Y826695D02*
X2049554Y826695D01*
G54D13*
X2065554Y823495D02*
X2049554Y823495D01*
G54D13*
X2057554Y839395D02*
X2057554Y826695D01*
G54D13*
X2057554Y823495D02*
X2057554Y810795D01*
G54D11*
X939123Y-1271344D02*
X939123Y-1257122D01*
X944457Y-1257122D01*
X946590Y-1258011D01*
X947657Y-1259789D01*
X947657Y-1261566D01*
X946590Y-1263344D01*
X944457Y-1264233D01*
X939123Y-1264233D01*
G54D11*
X952634Y-1257122D02*
X952634Y-1271344D01*
X957968Y-1262455D01*
X963301Y-1271344D01*
X963301Y-1257122D01*
G54D11*
X972546Y-1264233D02*
X975746Y-1266011D01*
X976813Y-1267789D01*
X976813Y-1271344D01*
G54D11*
X968279Y-1271344D02*
X968279Y-1257122D01*
X973613Y-1257122D01*
X975746Y-1258011D01*
X976813Y-1259789D01*
X976813Y-1261566D01*
X975746Y-1263344D01*
X973613Y-1264233D01*
X968279Y-1264233D01*
G54D11*
X986981Y-1257122D02*
X986981Y-1271344D01*
X994448Y-1271344D01*
G54D11*
X1006893Y-1271344D02*
X999426Y-1271344D01*
X999426Y-1257122D01*
X1006893Y-1257122D01*
G54D11*
X999426Y-1264233D02*
X1006893Y-1264233D01*
G54D11*
X1011871Y-1271344D02*
X1011871Y-1257122D01*
X1017205Y-1257122D01*
X1019338Y-1258011D01*
X1020405Y-1259789D01*
X1020405Y-1268678D01*
X1019338Y-1270455D01*
X1017205Y-1271344D01*
X1011871Y-1271344D01*
G54D12*
X771724Y-1237294D02*
X774724Y-1238961D01*
X775724Y-1240628D01*
X775724Y-1243961D01*
G54D12*
X767724Y-1243961D02*
X767724Y-1230628D01*
X772724Y-1230628D01*
X774724Y-1231461D01*
X775724Y-1233128D01*
X775724Y-1234794D01*
X774724Y-1236461D01*
X772724Y-1237294D01*
X767724Y-1237294D01*
G54D12*
X784390Y-1237294D02*
X782390Y-1237294D01*
X780390Y-1236461D01*
X779390Y-1234794D01*
X779390Y-1233128D01*
X780390Y-1231461D01*
X782390Y-1230628D01*
X784390Y-1230628D01*
X786390Y-1231461D01*
X787390Y-1233128D01*
X787390Y-1234794D01*
X786390Y-1236461D01*
X784390Y-1237294D01*
X786390Y-1238128D01*
X787390Y-1239794D01*
X787390Y-1241461D01*
X786390Y-1243128D01*
X784390Y-1243961D01*
X782390Y-1243961D01*
X780390Y-1243128D01*
X779390Y-1241461D01*
X779390Y-1239794D01*
X780390Y-1238128D01*
X782390Y-1237294D01*
G54D12*
X806792Y-1243961D02*
X798792Y-1243961D01*
X798792Y-1243128D01*
X799792Y-1241461D01*
X805792Y-1236461D01*
X806792Y-1234794D01*
X806792Y-1233128D01*
X805792Y-1231461D01*
X803792Y-1230628D01*
X801792Y-1230628D01*
X799792Y-1231461D01*
X798792Y-1233128D01*
G54D12*
X818458Y-1243961D02*
X810458Y-1243961D01*
X810458Y-1243128D01*
X811458Y-1241461D01*
X817458Y-1236461D01*
X818458Y-1234794D01*
X818458Y-1233128D01*
X817458Y-1231461D01*
X815458Y-1230628D01*
X813458Y-1230628D01*
X811458Y-1231461D01*
X810458Y-1233128D01*
G54D12*
X830126Y-1233128D02*
X830126Y-1241461D01*
X829126Y-1243128D01*
X827126Y-1243961D01*
X825126Y-1243961D01*
X823126Y-1243128D01*
X822126Y-1241461D01*
X822126Y-1233128D01*
X823126Y-1231461D01*
X825126Y-1230628D01*
X827126Y-1230628D01*
X829126Y-1231461D01*
X830126Y-1233128D01*
G54D12*
X837792Y-1237294D02*
X840792Y-1238961D01*
X841792Y-1240628D01*
X841792Y-1243961D01*
G54D12*
X833792Y-1243961D02*
X833792Y-1230628D01*
X838792Y-1230628D01*
X840792Y-1231461D01*
X841792Y-1233128D01*
X841792Y-1234794D01*
X840792Y-1236461D01*
X838792Y-1237294D01*
X833792Y-1237294D01*
G54D24*
X986565Y-1227860D02*
X986565Y-1227860D01*
G54D24*
X971565Y-1224685D02*
X971565Y-1224685D01*
G54D28*
X1010778Y-1187364D02*
X1010778Y-1238164D01*
X944102Y-1238164D01*
X944102Y-1187364D01*
X1010778Y-1187364D01*
G54D29*
X964736Y-1155092D02*
X964736Y-1165226D01*
G54D29*
X968958Y-1160159D02*
X960514Y-1160159D01*
G54D11*
X993236Y-1159359D02*
X984703Y-1159359D01*
G36*
X944128Y-1189472D02*
X944128Y-1183122D01*
X1010802Y-1183122D01*
X1010802Y-1189472D01*
X944128Y-1189472D01*
G37*
G54D28*
X944128Y-1189472D02*
X944128Y-1183122D01*
X1010802Y-1183122D01*
X1010802Y-1189472D01*
X944128Y-1189472D01*
G54D15*
X830853Y-1204757D02*
X830853Y-1223757D01*
X773804Y-1223757D01*
X773804Y-1204757D01*
X830853Y-1204757D01*
G54D15*
X830953Y-1214257D02*
X857904Y-1214257D01*
G54D15*
X743578Y-1214257D02*
X773703Y-1214257D01*
G54D15*
X510178Y-1204757D02*
X510178Y-1223757D01*
X453128Y-1223757D01*
X453128Y-1204757D01*
X510178Y-1204757D01*
G54D15*
X510278Y-1214257D02*
X537228Y-1214257D01*
G54D15*
X422903Y-1214257D02*
X453028Y-1214257D01*
G54D13*
X228388Y816388D02*
X247388Y816388D01*
X247388Y778388D01*
X228388Y778388D01*
X228388Y816388D01*
G54D13*
X237888Y816488D02*
X237888Y837088D01*
G54D13*
X237888Y751338D02*
X237888Y778288D01*
G54D12*
X214208Y780720D02*
X215874Y783720D01*
X217541Y784720D01*
X220874Y784720D01*
G54D12*
X220874Y776720D02*
X207541Y776720D01*
X207541Y781720D01*
X208374Y783720D01*
X210041Y784720D01*
X211708Y784720D01*
X213374Y783720D01*
X214208Y781720D01*
X214208Y776720D01*
G54D12*
X218374Y788388D02*
X220041Y789388D01*
X220874Y791388D01*
X220874Y793388D01*
X220041Y795388D01*
X218374Y796388D01*
X214208Y796388D01*
X213374Y796388D01*
X215041Y793388D01*
X215041Y791388D01*
X214208Y789388D01*
X212541Y788388D01*
X210041Y788388D01*
X208374Y789388D01*
X207541Y791388D01*
X207541Y793388D01*
X208374Y795388D01*
X210041Y796388D01*
X214208Y796388D01*
G54D12*
X212541Y803922D02*
X207541Y808922D01*
X220874Y808922D01*
G54D12*
X220874Y812588D02*
X207541Y812588D01*
G54D12*
X216708Y812588D02*
X207541Y820588D01*
G54D12*
X214208Y815588D02*
X220874Y820588D01*
G54D12*
X303108Y777546D02*
X304774Y780546D01*
X306441Y781546D01*
X309774Y781546D01*
G54D12*
X309774Y773546D02*
X296441Y773546D01*
X296441Y778546D01*
X297274Y780546D01*
X298941Y781546D01*
X300608Y781546D01*
X302274Y780546D01*
X303108Y778546D01*
X303108Y773546D01*
G54D12*
X301441Y785212D02*
X296441Y790212D01*
X309774Y790212D01*
G54D12*
X298941Y801880D02*
X307274Y801880D01*
X308941Y800880D01*
X309774Y798880D01*
X309774Y796880D01*
X308941Y794880D01*
X307274Y793880D01*
X298941Y793880D01*
X297274Y794880D01*
X296441Y796880D01*
X296441Y798880D01*
X297274Y800880D01*
X298941Y801880D01*
G54D12*
X301441Y809414D02*
X296441Y814414D01*
X309774Y814414D01*
G54D12*
X309774Y818080D02*
X296441Y818080D01*
G54D12*
X305608Y818080D02*
X296441Y826080D01*
G54D12*
X303108Y821080D02*
X309774Y826080D01*
G54D13*
X2070466Y741814D02*
X2070466Y716414D01*
X1841867Y716414D01*
X1841867Y741814D01*
X2070466Y741814D01*
G54D13*
X1866660Y775164D02*
X1866660Y749764D01*
X1638060Y749764D01*
X1638060Y775164D01*
X1866660Y775164D01*
G54D18*
X1408669Y-850438D02*
X1408669Y-829993D01*
X1416335Y-829993D01*
X1419402Y-831271D01*
X1420935Y-833826D01*
X1420935Y-836382D01*
X1419402Y-838938D01*
X1416335Y-840216D01*
X1419402Y-841493D01*
X1420935Y-844048D01*
X1420935Y-846604D01*
X1419402Y-849160D01*
X1416335Y-850438D01*
X1408669Y-850438D01*
G54D18*
X1408669Y-840216D02*
X1416335Y-840216D01*
G54D18*
X2059544Y-850438D02*
X2059544Y-829993D01*
X2067210Y-829993D01*
X2070278Y-831271D01*
X2071810Y-833826D01*
X2071810Y-836382D01*
X2070278Y-838938D01*
X2067210Y-840216D01*
X2070278Y-841493D01*
X2071810Y-844048D01*
X2071810Y-846604D01*
X2070278Y-849160D01*
X2067210Y-850438D01*
X2059544Y-850438D01*
G54D18*
X2059544Y-840216D02*
X2067210Y-840216D01*
G54D19*
X2032110Y-790112D02*
X2021444Y-790112D01*
X2021444Y-789002D01*
X2022777Y-786779D01*
X2030777Y-780112D01*
X2032110Y-777890D01*
X2032110Y-775668D01*
X2030777Y-773446D01*
X2028110Y-772335D01*
X2025444Y-772335D01*
X2022777Y-773446D01*
X2021444Y-775668D01*
G54D19*
X2045000Y-790112D02*
X2045000Y-772335D01*
X2037000Y-783446D01*
X2037000Y-785668D01*
X2047666Y-785668D01*
G54D13*
X148988Y-804400D02*
X2152412Y-807575D01*
X2152412Y-818688D01*
X148988Y-818688D01*
X148988Y-804400D01*
G54D15*
X1430894Y-820275D02*
X2046844Y-820275D01*
X2046844Y-847262D01*
X1430894Y-847262D01*
X1430894Y-820275D01*
G54D19*
X272812Y-779002D02*
X279479Y-772335D01*
X279479Y-790112D01*
G54D15*
X263288Y-820275D02*
X877650Y-820275D01*
X877650Y-847262D01*
X263288Y-847262D01*
X263288Y-820275D01*
G54D19*
X858154Y-790112D02*
X847488Y-790112D01*
X847488Y-789002D01*
X848821Y-786779D01*
X856821Y-780112D01*
X858154Y-777890D01*
X858154Y-775668D01*
X856821Y-773446D01*
X854154Y-772335D01*
X851488Y-772335D01*
X848821Y-773446D01*
X847488Y-775668D01*
G54D19*
X871044Y-790112D02*
X871044Y-772335D01*
X863044Y-783446D01*
X863044Y-785668D01*
X873710Y-785668D01*
G54D17*
X227775Y-845929D02*
X234442Y-828151D01*
X241108Y-845929D01*
G54D17*
X230442Y-839262D02*
X238442Y-839262D01*
G54D18*
X893525Y-850438D02*
X901192Y-829993D01*
X908858Y-850438D01*
G54D18*
X896592Y-842771D02*
X905792Y-842771D01*
G54D19*
X1437244Y-782176D02*
X1443910Y-775510D01*
X1443910Y-793288D01*
G54D13*
X2212738Y-807575D02*
X2228612Y-807575D01*
G54D13*
X2238138Y-807575D02*
X2254012Y-807575D01*
G54D13*
X2263538Y-807575D02*
X2279412Y-807575D01*
G54D13*
X2288938Y-807575D02*
X2304812Y-807575D01*
G54D13*
X2314338Y-807575D02*
X2330212Y-807575D01*
G54D13*
X2339738Y-807575D02*
X2355612Y-807575D01*
G54D13*
X2368312Y-807575D02*
X2384188Y-807575D01*
G54D13*
X2396888Y-807575D02*
X2412762Y-807575D01*
G54D13*
X2425462Y-807575D02*
X2441338Y-807575D01*
G54D13*
X2454038Y-807575D02*
X2469912Y-807575D01*
G54D13*
X2482612Y-807575D02*
X2498488Y-807575D01*
G54D13*
X2511188Y-807575D02*
X2527062Y-807575D01*
G54D13*
X2212738Y-818688D02*
X2228612Y-818688D01*
G54D13*
X2238138Y-818688D02*
X2254012Y-818688D01*
G54D13*
X2263538Y-818688D02*
X2279412Y-818688D01*
G54D13*
X2288938Y-818688D02*
X2304812Y-818688D01*
G54D13*
X2314338Y-818688D02*
X2330212Y-818688D01*
G54D13*
X2339738Y-818688D02*
X2355612Y-818688D01*
G54D13*
X2368312Y-818688D02*
X2384188Y-818688D01*
G54D13*
X2396888Y-818688D02*
X2412762Y-818688D01*
G54D13*
X2425462Y-818688D02*
X2441338Y-818688D01*
G54D13*
X2454038Y-818688D02*
X2469912Y-818688D01*
G54D13*
X2482612Y-818688D02*
X2498488Y-818688D01*
G54D13*
X2511188Y-818688D02*
X2527062Y-818688D01*
G54D13*
X2536588Y-807575D02*
X2546112Y-807575D01*
G54D13*
X2536588Y-818688D02*
X2546112Y-818688D01*
G54D13*
X2546112Y-807575D02*
X2546112Y-818688D01*
G54D15*
X2128580Y-801225D02*
X2160330Y-801225D01*
X2160330Y-825038D01*
X2128580Y-825038D01*
X2128580Y-848850D01*
X2207955Y-848850D01*
X2207955Y-779000D01*
X2128580Y-779000D01*
X2128580Y-801225D01*
G54D15*
X2207955Y-848850D02*
X2207955Y-909175D01*
G54D15*
X2128580Y-848850D02*
X2128580Y-909175D01*
G54D15*
X2207955Y-909175D02*
X2128580Y-909175D01*
G54D15*
X2128600Y-779050D02*
X2128600Y-718726D01*
G54D15*
X2207975Y-779050D02*
X2207975Y-718725D01*
G54D15*
X2207955Y-718675D02*
X2128580Y-718675D01*
G54D15*
X2528630Y-801225D02*
X2560380Y-801225D01*
X2560380Y-825038D01*
X2528630Y-825038D01*
X2528630Y-848850D01*
X2608005Y-848850D01*
X2608005Y-779000D01*
X2528630Y-779000D01*
X2528630Y-801225D01*
G54D15*
X2608005Y-848850D02*
X2608005Y-909175D01*
G54D15*
X2528630Y-848850D02*
X2528630Y-909175D01*
G54D15*
X2608005Y-909175D02*
X2528630Y-909175D01*
G54D15*
X2528650Y-779050D02*
X2528650Y-718726D01*
G54D15*
X2608025Y-779050D02*
X2608025Y-718725D01*
G54D15*
X2608005Y-718675D02*
X2528630Y-718675D01*
G54D15*
X172800Y-823481D02*
X141050Y-823481D01*
X141050Y-799668D01*
X172800Y-799668D01*
X172800Y-775856D01*
X93426Y-775856D01*
X93426Y-845706D01*
X172800Y-845706D01*
X172800Y-823481D01*
G54D15*
X93426Y-775856D02*
X93426Y-715531D01*
G54D15*
X172800Y-775856D02*
X172800Y-715531D01*
G54D15*
X93426Y-715531D02*
X172800Y-715531D01*
G54D15*
X172780Y-845656D02*
X172780Y-905981D01*
G54D15*
X93406Y-845656D02*
X93406Y-905981D01*
G54D15*
X93426Y-906031D02*
X172800Y-906031D01*
G36*
X149224Y-805076D02*
X149224Y-817776D01*
X2152649Y-817776D01*
X2152649Y-808251D01*
X149224Y-805076D01*
G37*
G54D13*
X149224Y-805076D02*
X149224Y-817776D01*
X2152649Y-817776D01*
X2152649Y-808251D01*
X149224Y-805076D01*
G54D18*
X1408669Y-604375D02*
X1408669Y-583930D01*
X1416335Y-583930D01*
X1419402Y-585208D01*
X1420935Y-587764D01*
X1420935Y-590320D01*
X1419402Y-592875D01*
X1416335Y-594153D01*
X1419402Y-595430D01*
X1420935Y-597986D01*
X1420935Y-600542D01*
X1419402Y-603098D01*
X1416335Y-604375D01*
X1408669Y-604375D01*
G54D18*
X1408669Y-594153D02*
X1416335Y-594153D01*
G54D18*
X2059544Y-604375D02*
X2059544Y-583930D01*
X2067210Y-583930D01*
X2070278Y-585208D01*
X2071810Y-587764D01*
X2071810Y-590320D01*
X2070278Y-592875D01*
X2067210Y-594153D01*
X2070278Y-595430D01*
X2071810Y-597986D01*
X2071810Y-600542D01*
X2070278Y-603098D01*
X2067210Y-604375D01*
X2059544Y-604375D01*
G54D18*
X2059544Y-594153D02*
X2067210Y-594153D01*
G54D19*
X2032110Y-544050D02*
X2021444Y-544050D01*
X2021444Y-542939D01*
X2022777Y-540717D01*
X2030777Y-534050D01*
X2032110Y-531828D01*
X2032110Y-529606D01*
X2030777Y-527383D01*
X2028110Y-526272D01*
X2025444Y-526272D01*
X2022777Y-527383D01*
X2021444Y-529606D01*
G54D19*
X2045000Y-544050D02*
X2045000Y-526272D01*
X2037000Y-537383D01*
X2037000Y-539606D01*
X2047666Y-539606D01*
G54D13*
X148988Y-558338D02*
X2152412Y-561512D01*
X2152412Y-572625D01*
X148988Y-572625D01*
X148988Y-558338D01*
G54D15*
X1430894Y-574212D02*
X2046844Y-574212D01*
X2046844Y-601200D01*
X1430894Y-601200D01*
X1430894Y-574212D01*
G54D19*
X272812Y-532939D02*
X279479Y-526272D01*
X279479Y-544050D01*
G54D15*
X263288Y-574212D02*
X877650Y-574212D01*
X877650Y-601200D01*
X263288Y-601200D01*
X263288Y-574212D01*
G54D19*
X858154Y-544050D02*
X847488Y-544050D01*
X847488Y-542939D01*
X848821Y-540717D01*
X856821Y-534050D01*
X858154Y-531828D01*
X858154Y-529606D01*
X856821Y-527383D01*
X854154Y-526272D01*
X851488Y-526272D01*
X848821Y-527383D01*
X847488Y-529606D01*
G54D19*
X871044Y-544050D02*
X871044Y-526272D01*
X863044Y-537383D01*
X863044Y-539606D01*
X873710Y-539606D01*
G54D17*
X227775Y-599866D02*
X234442Y-582089D01*
X241108Y-599866D01*
G54D17*
X230442Y-593200D02*
X238442Y-593200D01*
G54D18*
X893525Y-604375D02*
X901192Y-583930D01*
X908858Y-604375D01*
G54D18*
X896592Y-596708D02*
X905792Y-596708D01*
G54D19*
X1437244Y-536114D02*
X1443910Y-529447D01*
X1443910Y-547225D01*
G54D13*
X2212738Y-561512D02*
X2228612Y-561512D01*
G54D13*
X2238138Y-561512D02*
X2254012Y-561512D01*
G54D13*
X2263538Y-561512D02*
X2279412Y-561512D01*
G54D13*
X2288938Y-561512D02*
X2304812Y-561512D01*
G54D13*
X2314338Y-561512D02*
X2330212Y-561512D01*
G54D13*
X2339738Y-561512D02*
X2355612Y-561512D01*
G54D13*
X2368312Y-561512D02*
X2384188Y-561512D01*
G54D13*
X2396888Y-561512D02*
X2412762Y-561512D01*
G54D13*
X2425462Y-561512D02*
X2441338Y-561512D01*
G54D13*
X2454038Y-561512D02*
X2469912Y-561512D01*
G54D13*
X2482612Y-561512D02*
X2498488Y-561512D01*
G54D13*
X2511188Y-561512D02*
X2527062Y-561512D01*
G54D13*
X2212738Y-572625D02*
X2228612Y-572625D01*
G54D13*
X2238138Y-572625D02*
X2254012Y-572625D01*
G54D13*
X2263538Y-572625D02*
X2279412Y-572625D01*
G54D13*
X2288938Y-572625D02*
X2304812Y-572625D01*
G54D13*
X2314338Y-572625D02*
X2330212Y-572625D01*
G54D13*
X2339738Y-572625D02*
X2355612Y-572625D01*
G54D13*
X2368312Y-572625D02*
X2384188Y-572625D01*
G54D13*
X2396888Y-572625D02*
X2412762Y-572625D01*
G54D13*
X2425462Y-572625D02*
X2441338Y-572625D01*
G54D13*
X2454038Y-572625D02*
X2469912Y-572625D01*
G54D13*
X2482612Y-572625D02*
X2498488Y-572625D01*
G54D13*
X2511188Y-572625D02*
X2527062Y-572625D01*
G54D13*
X2536588Y-561512D02*
X2546112Y-561512D01*
G54D13*
X2536588Y-572625D02*
X2546112Y-572625D01*
G54D13*
X2546112Y-561512D02*
X2546112Y-572625D01*
G54D15*
X2128580Y-555162D02*
X2160330Y-555162D01*
X2160330Y-578975D01*
X2128580Y-578975D01*
X2128580Y-602788D01*
X2207955Y-602788D01*
X2207955Y-532938D01*
X2128580Y-532938D01*
X2128580Y-555162D01*
G54D15*
X2207955Y-602788D02*
X2207955Y-663112D01*
G54D15*
X2128580Y-602788D02*
X2128580Y-663112D01*
G54D15*
X2207955Y-663112D02*
X2128580Y-663112D01*
G54D15*
X2128600Y-532988D02*
X2128600Y-472663D01*
G54D15*
X2207975Y-532988D02*
X2207975Y-472662D01*
G54D15*
X2207955Y-472612D02*
X2128580Y-472612D01*
G54D15*
X2528630Y-555162D02*
X2560380Y-555162D01*
X2560380Y-578975D01*
X2528630Y-578975D01*
X2528630Y-602788D01*
X2608005Y-602788D01*
X2608005Y-532938D01*
X2528630Y-532938D01*
X2528630Y-555162D01*
G54D15*
X2608005Y-602788D02*
X2608005Y-663112D01*
G54D15*
X2528630Y-602788D02*
X2528630Y-663112D01*
G54D15*
X2608005Y-663112D02*
X2528630Y-663112D01*
G54D15*
X2528650Y-532988D02*
X2528650Y-472663D01*
G54D15*
X2608025Y-532988D02*
X2608025Y-472662D01*
G54D15*
X2608005Y-472612D02*
X2528630Y-472612D01*
G54D15*
X172800Y-577418D02*
X141050Y-577418D01*
X141050Y-553606D01*
X172800Y-553606D01*
X172800Y-529794D01*
X93426Y-529794D01*
X93426Y-599644D01*
X172800Y-599644D01*
X172800Y-577418D01*
G54D15*
X93426Y-529794D02*
X93426Y-469468D01*
G54D15*
X172800Y-529794D02*
X172800Y-469468D01*
G54D15*
X93426Y-469468D02*
X172800Y-469468D01*
G54D15*
X172780Y-599594D02*
X172780Y-659918D01*
G54D15*
X93406Y-599594D02*
X93406Y-659918D01*
G54D15*
X93426Y-659968D02*
X172800Y-659968D01*
G36*
X149224Y-559013D02*
X149224Y-571713D01*
X2152649Y-571713D01*
X2152649Y-562188D01*
X149224Y-559013D01*
G37*
G54D13*
X149224Y-559013D02*
X149224Y-571713D01*
X2152649Y-571713D01*
X2152649Y-562188D01*
X149224Y-559013D01*
G54D18*
X1408669Y-356725D02*
X1408669Y-336280D01*
X1416336Y-336280D01*
X1419402Y-337558D01*
X1420936Y-340114D01*
X1420936Y-342670D01*
X1419402Y-345225D01*
X1416336Y-346503D01*
X1419402Y-347780D01*
X1420936Y-350336D01*
X1420936Y-352892D01*
X1419402Y-355448D01*
X1416336Y-356725D01*
X1408669Y-356725D01*
G54D18*
X1408669Y-346503D02*
X1416336Y-346503D01*
G54D18*
X2059544Y-356725D02*
X2059544Y-336280D01*
X2067210Y-336280D01*
X2070278Y-337558D01*
X2071810Y-340114D01*
X2071810Y-342670D01*
X2070278Y-345225D01*
X2067210Y-346503D01*
X2070278Y-347780D01*
X2071810Y-350336D01*
X2071810Y-352892D01*
X2070278Y-355448D01*
X2067210Y-356725D01*
X2059544Y-356725D01*
G54D18*
X2059544Y-346503D02*
X2067210Y-346503D01*
G54D19*
X2032110Y-296400D02*
X2021444Y-296400D01*
X2021444Y-295289D01*
X2022777Y-293067D01*
X2030777Y-286400D01*
X2032110Y-284178D01*
X2032110Y-281956D01*
X2030777Y-279733D01*
X2028111Y-278622D01*
X2025444Y-278622D01*
X2022777Y-279733D01*
X2021444Y-281956D01*
G54D19*
X2045000Y-296400D02*
X2045000Y-278622D01*
X2037000Y-289733D01*
X2037000Y-291956D01*
X2047666Y-291956D01*
G54D13*
X148988Y-310688D02*
X2152412Y-313862D01*
X2152412Y-324975D01*
X148988Y-324975D01*
X148988Y-310688D01*
G54D15*
X1430894Y-326562D02*
X2046844Y-326562D01*
X2046844Y-353550D01*
X1430894Y-353550D01*
X1430894Y-326562D01*
G54D19*
X272812Y-285289D02*
X279479Y-278622D01*
X279479Y-296400D01*
G54D15*
X263288Y-326562D02*
X877650Y-326562D01*
X877650Y-353550D01*
X263288Y-353550D01*
X263288Y-326562D01*
G54D19*
X858154Y-296400D02*
X847488Y-296400D01*
X847488Y-295289D01*
X848821Y-293067D01*
X856821Y-286400D01*
X858154Y-284178D01*
X858154Y-281956D01*
X856821Y-279733D01*
X854154Y-278622D01*
X851488Y-278622D01*
X848821Y-279733D01*
X847488Y-281956D01*
G54D19*
X871044Y-296400D02*
X871044Y-278622D01*
X863044Y-289733D01*
X863044Y-291956D01*
X873710Y-291956D01*
G54D17*
X227775Y-352216D02*
X234442Y-334439D01*
X241108Y-352216D01*
G54D17*
X230442Y-345550D02*
X238442Y-345550D01*
G54D18*
X893525Y-356725D02*
X901192Y-336280D01*
X908858Y-356725D01*
G54D18*
X896592Y-349058D02*
X905792Y-349058D01*
G54D19*
X1437244Y-288464D02*
X1443910Y-281797D01*
X1443910Y-299575D01*
G54D13*
X2212738Y-313862D02*
X2228612Y-313862D01*
G54D13*
X2238138Y-313862D02*
X2254012Y-313862D01*
G54D13*
X2263538Y-313862D02*
X2279412Y-313862D01*
G54D13*
X2288938Y-313862D02*
X2304812Y-313862D01*
G54D13*
X2314338Y-313862D02*
X2330212Y-313862D01*
G54D13*
X2339738Y-313862D02*
X2355612Y-313862D01*
G54D13*
X2368312Y-313862D02*
X2384188Y-313862D01*
G54D13*
X2396888Y-313862D02*
X2412762Y-313862D01*
G54D13*
X2425462Y-313862D02*
X2441338Y-313862D01*
G54D13*
X2454038Y-313862D02*
X2469912Y-313862D01*
G54D13*
X2482612Y-313862D02*
X2498488Y-313862D01*
G54D13*
X2511188Y-313862D02*
X2527062Y-313862D01*
G54D13*
X2212738Y-324975D02*
X2228612Y-324975D01*
G54D13*
X2238138Y-324975D02*
X2254012Y-324975D01*
G54D13*
X2263538Y-324975D02*
X2279412Y-324975D01*
G54D13*
X2288938Y-324975D02*
X2304812Y-324975D01*
G54D13*
X2314338Y-324975D02*
X2330212Y-324975D01*
G54D13*
X2339738Y-324975D02*
X2355612Y-324975D01*
G54D13*
X2368312Y-324975D02*
X2384188Y-324975D01*
G54D13*
X2396888Y-324975D02*
X2412762Y-324975D01*
G54D13*
X2425462Y-324975D02*
X2441338Y-324975D01*
G54D13*
X2454038Y-324975D02*
X2469912Y-324975D01*
G54D13*
X2482612Y-324975D02*
X2498488Y-324975D01*
G54D13*
X2511188Y-324975D02*
X2527062Y-324975D01*
G54D13*
X2536588Y-313862D02*
X2546112Y-313862D01*
G54D13*
X2536588Y-324975D02*
X2546112Y-324975D01*
G54D13*
X2546112Y-313862D02*
X2546112Y-324975D01*
G54D15*
X2128580Y-307512D02*
X2160330Y-307512D01*
X2160330Y-331325D01*
X2128580Y-331325D01*
X2128580Y-355138D01*
X2207955Y-355138D01*
X2207955Y-285288D01*
X2128580Y-285288D01*
X2128580Y-307512D01*
G54D15*
X2207955Y-355138D02*
X2207955Y-415462D01*
G54D15*
X2128580Y-355138D02*
X2128580Y-415462D01*
G54D15*
X2207955Y-415462D02*
X2128580Y-415462D01*
G54D15*
X2128600Y-285338D02*
X2128600Y-225013D01*
G54D15*
X2207975Y-285338D02*
X2207975Y-225012D01*
G54D15*
X2207955Y-224962D02*
X2128580Y-224962D01*
G54D15*
X2528630Y-307512D02*
X2560380Y-307512D01*
X2560380Y-331325D01*
X2528630Y-331325D01*
X2528630Y-355138D01*
X2608005Y-355138D01*
X2608005Y-285288D01*
X2528630Y-285288D01*
X2528630Y-307512D01*
G54D15*
X2608005Y-355138D02*
X2608005Y-415462D01*
G54D15*
X2528630Y-355138D02*
X2528630Y-415462D01*
G54D15*
X2608005Y-415462D02*
X2528630Y-415462D01*
G54D15*
X2528650Y-285338D02*
X2528650Y-225013D01*
G54D15*
X2608025Y-285338D02*
X2608025Y-225012D01*
G54D15*
X2608005Y-224962D02*
X2528630Y-224962D01*
G54D15*
X172800Y-329768D02*
X141050Y-329768D01*
X141050Y-305956D01*
X172800Y-305956D01*
X172800Y-282144D01*
X93426Y-282144D01*
X93426Y-351994D01*
X172800Y-351994D01*
X172800Y-329768D01*
G54D15*
X93426Y-282144D02*
X93426Y-221818D01*
G54D15*
X172800Y-282144D02*
X172800Y-221818D01*
G54D15*
X93426Y-221818D02*
X172800Y-221818D01*
G54D15*
X172780Y-351944D02*
X172780Y-412268D01*
G54D15*
X93406Y-351944D02*
X93406Y-412268D01*
G54D15*
X93426Y-412318D02*
X172800Y-412318D01*
G36*
X149224Y-311363D02*
X149224Y-324063D01*
X2152649Y-324063D01*
X2152649Y-314538D01*
X149224Y-311363D01*
G37*
G54D13*
X149224Y-311363D02*
X149224Y-324063D01*
X2152649Y-324063D01*
X2152649Y-314538D01*
X149224Y-311363D01*
G54D18*
X1408669Y-109075D02*
X1408669Y-88630D01*
X1416336Y-88630D01*
X1419402Y-89908D01*
X1420936Y-92464D01*
X1420936Y-95020D01*
X1419402Y-97575D01*
X1416336Y-98853D01*
X1419402Y-100130D01*
X1420936Y-102686D01*
X1420936Y-105242D01*
X1419402Y-107798D01*
X1416336Y-109075D01*
X1408669Y-109075D01*
G54D18*
X1408669Y-98853D02*
X1416336Y-98853D01*
G54D18*
X2059544Y-109075D02*
X2059544Y-88630D01*
X2067210Y-88630D01*
X2070277Y-89908D01*
X2071810Y-92464D01*
X2071810Y-95020D01*
X2070277Y-97575D01*
X2067210Y-98853D01*
X2070277Y-100130D01*
X2071810Y-102686D01*
X2071810Y-105242D01*
X2070277Y-107798D01*
X2067210Y-109075D01*
X2059544Y-109075D01*
G54D18*
X2059544Y-98853D02*
X2067210Y-98853D01*
G54D19*
X2032110Y-48750D02*
X2021444Y-48750D01*
X2021444Y-47639D01*
X2022777Y-45417D01*
X2030777Y-38750D01*
X2032110Y-36528D01*
X2032110Y-34306D01*
X2030777Y-32083D01*
X2028111Y-30972D01*
X2025444Y-30972D01*
X2022777Y-32083D01*
X2021444Y-34306D01*
G54D19*
X2045000Y-48750D02*
X2045000Y-30972D01*
X2037000Y-42083D01*
X2037000Y-44306D01*
X2047666Y-44306D01*
G54D13*
X148988Y-63038D02*
X2152412Y-66212D01*
X2152412Y-77325D01*
X148988Y-77325D01*
X148988Y-63038D01*
G54D15*
X1430894Y-78912D02*
X2046844Y-78912D01*
X2046844Y-105900D01*
X1430894Y-105900D01*
X1430894Y-78912D01*
G54D19*
X272812Y-37639D02*
X279479Y-30972D01*
X279479Y-48750D01*
G54D15*
X263288Y-78912D02*
X877650Y-78912D01*
X877650Y-105900D01*
X263288Y-105900D01*
X263288Y-78912D01*
G54D19*
X858154Y-48750D02*
X847488Y-48750D01*
X847488Y-47639D01*
X848821Y-45417D01*
X856821Y-38750D01*
X858154Y-36528D01*
X858154Y-34306D01*
X856821Y-32083D01*
X854154Y-30972D01*
X851488Y-30972D01*
X848821Y-32083D01*
X847488Y-34306D01*
G54D19*
X871044Y-48750D02*
X871044Y-30972D01*
X863044Y-42083D01*
X863044Y-44306D01*
X873710Y-44306D01*
G54D17*
X227775Y-104566D02*
X234442Y-86789D01*
X241108Y-104566D01*
G54D17*
X230442Y-97900D02*
X238442Y-97900D01*
G54D18*
X893525Y-109075D02*
X901192Y-88630D01*
X908858Y-109075D01*
G54D18*
X896592Y-101408D02*
X905792Y-101408D01*
G54D19*
X1437244Y-40814D02*
X1443910Y-34147D01*
X1443910Y-51925D01*
G54D13*
X2212738Y-66212D02*
X2228612Y-66212D01*
G54D13*
X2238138Y-66212D02*
X2254012Y-66212D01*
G54D13*
X2263538Y-66212D02*
X2279412Y-66212D01*
G54D13*
X2288938Y-66212D02*
X2304812Y-66212D01*
G54D13*
X2314338Y-66212D02*
X2330212Y-66212D01*
G54D13*
X2339738Y-66212D02*
X2355612Y-66212D01*
G54D13*
X2368312Y-66212D02*
X2384188Y-66212D01*
G54D13*
X2396888Y-66212D02*
X2412762Y-66212D01*
G54D13*
X2425462Y-66212D02*
X2441338Y-66212D01*
G54D13*
X2454038Y-66212D02*
X2469912Y-66212D01*
G54D13*
X2482612Y-66212D02*
X2498488Y-66212D01*
G54D13*
X2511188Y-66212D02*
X2527062Y-66212D01*
G54D13*
X2212738Y-77325D02*
X2228612Y-77325D01*
G54D13*
X2238138Y-77325D02*
X2254012Y-77325D01*
G54D13*
X2263538Y-77325D02*
X2279412Y-77325D01*
G54D13*
X2288938Y-77325D02*
X2304812Y-77325D01*
G54D13*
X2314338Y-77325D02*
X2330212Y-77325D01*
G54D13*
X2339738Y-77325D02*
X2355612Y-77325D01*
G54D13*
X2368312Y-77325D02*
X2384188Y-77325D01*
G54D13*
X2396888Y-77325D02*
X2412762Y-77325D01*
G54D13*
X2425462Y-77325D02*
X2441338Y-77325D01*
G54D13*
X2454038Y-77325D02*
X2469912Y-77325D01*
G54D13*
X2482612Y-77325D02*
X2498488Y-77325D01*
G54D13*
X2511188Y-77325D02*
X2527062Y-77325D01*
G54D13*
X2536588Y-66212D02*
X2546112Y-66212D01*
G54D13*
X2536588Y-77325D02*
X2546112Y-77325D01*
G54D13*
X2546112Y-66212D02*
X2546112Y-77325D01*
G54D15*
X2128580Y-59862D02*
X2160330Y-59862D01*
X2160330Y-83675D01*
X2128580Y-83675D01*
X2128580Y-107488D01*
X2207955Y-107488D01*
X2207955Y-37638D01*
X2128580Y-37638D01*
X2128580Y-59862D01*
G54D15*
X2207955Y-107488D02*
X2207955Y-167812D01*
G54D15*
X2128580Y-107488D02*
X2128580Y-167812D01*
G54D15*
X2207955Y-167812D02*
X2128580Y-167812D01*
G54D15*
X2128600Y-37688D02*
X2128600Y22637D01*
G54D15*
X2207975Y-37688D02*
X2207975Y22638D01*
G54D15*
X2207955Y22688D02*
X2128580Y22688D01*
G54D15*
X2528630Y-59862D02*
X2560380Y-59862D01*
X2560380Y-83675D01*
X2528630Y-83675D01*
X2528630Y-107488D01*
X2608005Y-107488D01*
X2608005Y-37638D01*
X2528630Y-37638D01*
X2528630Y-59862D01*
G54D15*
X2608005Y-107488D02*
X2608005Y-167812D01*
G54D15*
X2528630Y-107488D02*
X2528630Y-167812D01*
G54D15*
X2608005Y-167812D02*
X2528630Y-167812D01*
G54D15*
X2528650Y-37688D02*
X2528650Y22637D01*
G54D15*
X2608025Y-37688D02*
X2608025Y22638D01*
G54D15*
X2608005Y22688D02*
X2528630Y22688D01*
G54D15*
X172800Y-82118D02*
X141050Y-82118D01*
X141050Y-58306D01*
X172800Y-58306D01*
X172800Y-34494D01*
X93426Y-34494D01*
X93426Y-104344D01*
X172800Y-104344D01*
X172800Y-82118D01*
G54D15*
X93426Y-34494D02*
X93426Y25832D01*
G54D15*
X172800Y-34494D02*
X172800Y25832D01*
G54D15*
X93426Y25832D02*
X172800Y25832D01*
G54D15*
X172780Y-104294D02*
X172780Y-164618D01*
G54D15*
X93406Y-104294D02*
X93406Y-164618D01*
G54D15*
X93426Y-164668D02*
X172800Y-164668D01*
G36*
X149224Y-63713D02*
X149224Y-76413D01*
X2152649Y-76413D01*
X2152649Y-66888D01*
X149224Y-63713D01*
G37*
G54D13*
X149224Y-63713D02*
X149224Y-76413D01*
X2152649Y-76413D01*
X2152649Y-66888D01*
X149224Y-63713D01*
G54D18*
X1408669Y140162D02*
X1408669Y160607D01*
X1416336Y160607D01*
X1419402Y159329D01*
X1420936Y156774D01*
X1420936Y154218D01*
X1419402Y151662D01*
X1416336Y150384D01*
X1419402Y149107D01*
X1420936Y146552D01*
X1420936Y143996D01*
X1419402Y141440D01*
X1416336Y140162D01*
X1408669Y140162D01*
G54D18*
X1408669Y150384D02*
X1416336Y150384D01*
G54D18*
X2059544Y140162D02*
X2059544Y160607D01*
X2067210Y160607D01*
X2070277Y159329D01*
X2071810Y156774D01*
X2071810Y154218D01*
X2070277Y151662D01*
X2067210Y150384D01*
X2070277Y149107D01*
X2071810Y146552D01*
X2071810Y143996D01*
X2070277Y141440D01*
X2067210Y140162D01*
X2059544Y140162D01*
G54D18*
X2059544Y150384D02*
X2067210Y150384D01*
G54D19*
X2032110Y200488D02*
X2021444Y200488D01*
X2021444Y201598D01*
X2022778Y203821D01*
X2030777Y210488D01*
X2032110Y212710D01*
X2032110Y214932D01*
X2030777Y217154D01*
X2028111Y218265D01*
X2025444Y218265D01*
X2022778Y217154D01*
X2021444Y214932D01*
G54D19*
X2045000Y200488D02*
X2045000Y218265D01*
X2037000Y207154D01*
X2037000Y204932D01*
X2047666Y204932D01*
G54D13*
X148988Y186200D02*
X2152412Y183025D01*
X2152412Y171912D01*
X148988Y171912D01*
X148988Y186200D01*
G54D15*
X1430894Y170325D02*
X2046844Y170325D01*
X2046844Y143338D01*
X1430894Y143338D01*
X1430894Y170325D01*
G54D19*
X272812Y211598D02*
X279479Y218265D01*
X279479Y200488D01*
G54D15*
X263288Y170325D02*
X877650Y170325D01*
X877650Y143338D01*
X263288Y143338D01*
X263288Y170325D01*
G54D19*
X858154Y200488D02*
X847488Y200488D01*
X847488Y201598D01*
X848821Y203821D01*
X856821Y210488D01*
X858154Y212710D01*
X858154Y214932D01*
X856821Y217154D01*
X854154Y218265D01*
X851488Y218265D01*
X848821Y217154D01*
X847488Y214932D01*
G54D19*
X871044Y200488D02*
X871044Y218265D01*
X863044Y207154D01*
X863044Y204932D01*
X873710Y204932D01*
G54D17*
X227775Y144671D02*
X234442Y162449D01*
X241108Y144671D01*
G54D17*
X230442Y151338D02*
X238442Y151338D01*
G54D18*
X893525Y140162D02*
X901192Y160607D01*
X908858Y140162D01*
G54D18*
X896592Y147829D02*
X905792Y147829D01*
G54D19*
X1437244Y208424D02*
X1443910Y215090D01*
X1443910Y197312D01*
G54D13*
X2212738Y183025D02*
X2228612Y183025D01*
G54D13*
X2238138Y183025D02*
X2254012Y183025D01*
G54D13*
X2263538Y183025D02*
X2279412Y183025D01*
G54D13*
X2288938Y183025D02*
X2304812Y183025D01*
G54D13*
X2314338Y183025D02*
X2330212Y183025D01*
G54D13*
X2339738Y183025D02*
X2355612Y183025D01*
G54D13*
X2368312Y183025D02*
X2384188Y183025D01*
G54D13*
X2396888Y183025D02*
X2412762Y183025D01*
G54D13*
X2425462Y183025D02*
X2441338Y183025D01*
G54D13*
X2454038Y183025D02*
X2469912Y183025D01*
G54D13*
X2482612Y183025D02*
X2498488Y183025D01*
G54D13*
X2511188Y183025D02*
X2527062Y183025D01*
G54D13*
X2212738Y171912D02*
X2228612Y171912D01*
G54D13*
X2238138Y171912D02*
X2254012Y171912D01*
G54D13*
X2263538Y171912D02*
X2279412Y171912D01*
G54D13*
X2288938Y171912D02*
X2304812Y171912D01*
G54D13*
X2314338Y171912D02*
X2330212Y171912D01*
G54D13*
X2339738Y171912D02*
X2355612Y171912D01*
G54D13*
X2368312Y171912D02*
X2384188Y171912D01*
G54D13*
X2396888Y171912D02*
X2412762Y171912D01*
G54D13*
X2425462Y171912D02*
X2441338Y171912D01*
G54D13*
X2454038Y171912D02*
X2469912Y171912D01*
G54D13*
X2482612Y171912D02*
X2498488Y171912D01*
G54D13*
X2511188Y171912D02*
X2527062Y171912D01*
G54D13*
X2536588Y183025D02*
X2546112Y183025D01*
G54D13*
X2536588Y171912D02*
X2546112Y171912D01*
G54D13*
X2546112Y183025D02*
X2546112Y171912D01*
G54D15*
X2128580Y189375D02*
X2160330Y189375D01*
X2160330Y165562D01*
X2128580Y165562D01*
X2128580Y141750D01*
X2207955Y141750D01*
X2207955Y211600D01*
X2128580Y211600D01*
X2128580Y189375D01*
G54D15*
X2207955Y141750D02*
X2207955Y81425D01*
G54D15*
X2128580Y141750D02*
X2128580Y81425D01*
G54D15*
X2207955Y81425D02*
X2128580Y81425D01*
G54D15*
X2128600Y211550D02*
X2128600Y271874D01*
G54D15*
X2207975Y211550D02*
X2207975Y271875D01*
G54D15*
X2207955Y271925D02*
X2128580Y271925D01*
G54D15*
X2528630Y189375D02*
X2560380Y189375D01*
X2560380Y165562D01*
X2528630Y165562D01*
X2528630Y141750D01*
X2608005Y141750D01*
X2608005Y211600D01*
X2528630Y211600D01*
X2528630Y189375D01*
G54D15*
X2608005Y141750D02*
X2608005Y81425D01*
G54D15*
X2528630Y141750D02*
X2528630Y81425D01*
G54D15*
X2608005Y81425D02*
X2528630Y81425D01*
G54D15*
X2528650Y211550D02*
X2528650Y271874D01*
G54D15*
X2608025Y211550D02*
X2608025Y271875D01*
G54D15*
X2608005Y271925D02*
X2528630Y271925D01*
G54D15*
X172800Y167119D02*
X141050Y167119D01*
X141050Y190932D01*
X172800Y190932D01*
X172800Y214744D01*
X93426Y214744D01*
X93426Y144894D01*
X172800Y144894D01*
X172800Y167119D01*
G54D15*
X93426Y214744D02*
X93426Y275069D01*
G54D15*
X172800Y214744D02*
X172800Y275069D01*
G54D15*
X93426Y275069D02*
X172800Y275069D01*
G54D15*
X172780Y144944D02*
X172780Y84619D01*
G54D15*
X93406Y144944D02*
X93406Y84619D01*
G54D15*
X93426Y84569D02*
X172800Y84569D01*
G36*
X149224Y185524D02*
X149224Y172824D01*
X2152649Y172824D01*
X2152649Y182349D01*
X149224Y185524D01*
G37*
G54D13*
X149224Y185524D02*
X149224Y172824D01*
X2152649Y172824D01*
X2152649Y182349D01*
X149224Y185524D01*
G54D18*
X1408669Y389400D02*
X1408669Y409844D01*
X1416336Y409844D01*
X1419402Y408566D01*
X1420936Y406011D01*
X1420936Y403456D01*
X1419402Y400900D01*
X1416336Y399622D01*
X1419402Y398344D01*
X1420936Y395789D01*
X1420936Y393234D01*
X1419402Y390678D01*
X1416336Y389400D01*
X1408669Y389400D01*
G54D18*
X1408669Y399622D02*
X1416336Y399622D01*
G54D18*
X2059544Y389400D02*
X2059544Y409844D01*
X2067210Y409844D01*
X2070277Y408566D01*
X2071810Y406011D01*
X2071810Y403456D01*
X2070277Y400900D01*
X2067210Y399622D01*
X2070277Y398344D01*
X2071810Y395789D01*
X2071810Y393234D01*
X2070277Y390678D01*
X2067210Y389400D01*
X2059544Y389400D01*
G54D18*
X2059544Y399622D02*
X2067210Y399622D01*
G54D19*
X2032110Y449725D02*
X2021444Y449725D01*
X2021444Y450836D01*
X2022778Y453058D01*
X2030777Y459725D01*
X2032110Y461947D01*
X2032110Y464170D01*
X2030777Y466392D01*
X2028111Y467503D01*
X2025444Y467503D01*
X2022778Y466392D01*
X2021444Y464170D01*
G54D19*
X2045000Y449725D02*
X2045000Y467503D01*
X2037000Y456392D01*
X2037000Y454170D01*
X2047666Y454170D01*
G54D13*
X148988Y435438D02*
X2152412Y432262D01*
X2152412Y421150D01*
X148988Y421150D01*
X148988Y435438D01*
G54D15*
X1430894Y419562D02*
X2046844Y419562D01*
X2046844Y392575D01*
X1430894Y392575D01*
X1430894Y419562D01*
G54D19*
X272812Y460836D02*
X279479Y467503D01*
X279479Y449725D01*
G54D15*
X263288Y419562D02*
X877650Y419562D01*
X877650Y392575D01*
X263288Y392575D01*
X263288Y419562D01*
G54D19*
X858154Y449725D02*
X847488Y449725D01*
X847488Y450836D01*
X848821Y453058D01*
X856821Y459725D01*
X858154Y461947D01*
X858154Y464170D01*
X856821Y466392D01*
X854154Y467503D01*
X851488Y467503D01*
X848821Y466392D01*
X847488Y464170D01*
G54D19*
X871044Y449725D02*
X871044Y467503D01*
X863044Y456392D01*
X863044Y454170D01*
X873710Y454170D01*
G54D17*
X227775Y393908D02*
X234442Y411686D01*
X241108Y393908D01*
G54D17*
X230442Y400575D02*
X238442Y400575D01*
G54D18*
X893525Y389400D02*
X901192Y409844D01*
X908858Y389400D01*
G54D18*
X896592Y397066D02*
X905792Y397066D01*
G54D19*
X1437244Y457661D02*
X1443910Y464328D01*
X1443910Y446550D01*
G54D13*
X2212738Y432262D02*
X2228612Y432262D01*
G54D13*
X2238138Y432262D02*
X2254012Y432262D01*
G54D13*
X2263538Y432262D02*
X2279412Y432262D01*
G54D13*
X2288938Y432262D02*
X2304812Y432262D01*
G54D13*
X2314338Y432262D02*
X2330212Y432262D01*
G54D13*
X2339738Y432262D02*
X2355612Y432262D01*
G54D13*
X2368312Y432262D02*
X2384188Y432262D01*
G54D13*
X2396888Y432262D02*
X2412762Y432262D01*
G54D13*
X2425462Y432262D02*
X2441338Y432262D01*
G54D13*
X2454038Y432262D02*
X2469912Y432262D01*
G54D13*
X2482612Y432262D02*
X2498488Y432262D01*
G54D13*
X2511188Y432262D02*
X2527062Y432262D01*
G54D13*
X2212738Y421150D02*
X2228612Y421150D01*
G54D13*
X2238138Y421150D02*
X2254012Y421150D01*
G54D13*
X2263538Y421150D02*
X2279412Y421150D01*
G54D13*
X2288938Y421150D02*
X2304812Y421150D01*
G54D13*
X2314338Y421150D02*
X2330212Y421150D01*
G54D13*
X2339738Y421150D02*
X2355612Y421150D01*
G54D13*
X2368312Y421150D02*
X2384188Y421150D01*
G54D13*
X2396888Y421150D02*
X2412762Y421150D01*
G54D13*
X2425462Y421150D02*
X2441338Y421150D01*
G54D13*
X2454038Y421150D02*
X2469912Y421150D01*
G54D13*
X2482612Y421150D02*
X2498488Y421150D01*
G54D13*
X2511188Y421150D02*
X2527062Y421150D01*
G54D13*
X2536588Y432262D02*
X2546112Y432262D01*
G54D13*
X2536588Y421150D02*
X2546112Y421150D01*
G54D13*
X2546112Y432262D02*
X2546112Y421150D01*
G54D15*
X2128580Y438612D02*
X2160330Y438612D01*
X2160330Y414800D01*
X2128580Y414800D01*
X2128580Y390988D01*
X2207955Y390988D01*
X2207955Y460838D01*
X2128580Y460838D01*
X2128580Y438612D01*
G54D15*
X2207955Y390988D02*
X2207955Y330662D01*
G54D15*
X2128580Y390988D02*
X2128580Y330662D01*
G54D15*
X2207955Y330662D02*
X2128580Y330662D01*
G54D15*
X2128600Y460788D02*
X2128600Y521112D01*
G54D15*
X2207975Y460788D02*
X2207975Y521112D01*
G54D15*
X2207955Y521162D02*
X2128580Y521162D01*
G54D15*
X2528630Y438612D02*
X2560380Y438612D01*
X2560380Y414800D01*
X2528630Y414800D01*
X2528630Y390988D01*
X2608005Y390988D01*
X2608005Y460838D01*
X2528630Y460838D01*
X2528630Y438612D01*
G54D15*
X2608005Y390988D02*
X2608005Y330662D01*
G54D15*
X2528630Y390988D02*
X2528630Y330662D01*
G54D15*
X2608005Y330662D02*
X2528630Y330662D01*
G54D15*
X2528650Y460788D02*
X2528650Y521112D01*
G54D15*
X2608025Y460788D02*
X2608025Y521112D01*
G54D15*
X2608005Y521162D02*
X2528630Y521162D01*
G54D15*
X172800Y416356D02*
X141050Y416356D01*
X141050Y440169D01*
X172800Y440169D01*
X172800Y463982D01*
X93426Y463982D01*
X93426Y394132D01*
X172800Y394132D01*
X172800Y416356D01*
G54D15*
X93426Y463982D02*
X93426Y524306D01*
G54D15*
X172800Y463982D02*
X172800Y524306D01*
G54D15*
X93426Y524306D02*
X172800Y524306D01*
G54D15*
X172780Y394182D02*
X172780Y333856D01*
G54D15*
X93406Y394182D02*
X93406Y333856D01*
G54D15*
X93426Y333806D02*
X172800Y333806D01*
G36*
X149224Y434762D02*
X149224Y422062D01*
X2152649Y422062D01*
X2152649Y431587D01*
X149224Y434762D01*
G37*
G54D13*
X149224Y434762D02*
X149224Y422062D01*
X2152649Y422062D01*
X2152649Y431587D01*
X149224Y434762D01*
G54D18*
X1408669Y635462D02*
X1408669Y655907D01*
X1416336Y655907D01*
X1419402Y654629D01*
X1420936Y652074D01*
X1420936Y649518D01*
X1419402Y646962D01*
X1416336Y645684D01*
X1419402Y644407D01*
X1420936Y641852D01*
X1420936Y639296D01*
X1419402Y636740D01*
X1416336Y635462D01*
X1408669Y635462D01*
G54D18*
X1408669Y645684D02*
X1416336Y645684D01*
G54D18*
X2059544Y635462D02*
X2059544Y655907D01*
X2067210Y655907D01*
X2070277Y654629D01*
X2071810Y652074D01*
X2071810Y649518D01*
X2070277Y646962D01*
X2067210Y645684D01*
X2070277Y644407D01*
X2071810Y641852D01*
X2071810Y639296D01*
X2070277Y636740D01*
X2067210Y635462D01*
X2059544Y635462D01*
G54D18*
X2059544Y645684D02*
X2067210Y645684D01*
G54D19*
X2032110Y695788D02*
X2021444Y695788D01*
X2021444Y696898D01*
X2022778Y699121D01*
X2030777Y705788D01*
X2032110Y708010D01*
X2032110Y710232D01*
X2030777Y712454D01*
X2028111Y713565D01*
X2025444Y713565D01*
X2022778Y712454D01*
X2021444Y710232D01*
G54D19*
X2045000Y695788D02*
X2045000Y713565D01*
X2037000Y702454D01*
X2037000Y700232D01*
X2047666Y700232D01*
G54D13*
X148988Y681500D02*
X2152412Y678325D01*
X2152412Y667212D01*
X148988Y667212D01*
X148988Y681500D01*
G54D15*
X1430894Y665625D02*
X2046844Y665625D01*
X2046844Y638638D01*
X1430894Y638638D01*
X1430894Y665625D01*
G54D19*
X272812Y706898D02*
X279479Y713565D01*
X279479Y695788D01*
G54D15*
X263288Y665625D02*
X877650Y665625D01*
X877650Y638638D01*
X263288Y638638D01*
X263288Y665625D01*
G54D19*
X858154Y695788D02*
X847488Y695788D01*
X847488Y696898D01*
X848821Y699121D01*
X856821Y705788D01*
X858154Y708010D01*
X858154Y710232D01*
X856821Y712454D01*
X854154Y713565D01*
X851488Y713565D01*
X848821Y712454D01*
X847488Y710232D01*
G54D19*
X871044Y695788D02*
X871044Y713565D01*
X863044Y702454D01*
X863044Y700232D01*
X873710Y700232D01*
G54D17*
X227775Y639971D02*
X234442Y657749D01*
X241108Y639971D01*
G54D17*
X230442Y646638D02*
X238442Y646638D01*
G54D18*
X887175Y635462D02*
X894842Y655907D01*
X902508Y635462D01*
G54D18*
X890242Y643129D02*
X899442Y643129D01*
G54D19*
X1437244Y703724D02*
X1443910Y710390D01*
X1443910Y692612D01*
G54D13*
X2212738Y678325D02*
X2228612Y678325D01*
G54D13*
X2238138Y678325D02*
X2254012Y678325D01*
G54D13*
X2263538Y678325D02*
X2279412Y678325D01*
G54D13*
X2288938Y678325D02*
X2304812Y678325D01*
G54D13*
X2314338Y678325D02*
X2330212Y678325D01*
G54D13*
X2339738Y678325D02*
X2355612Y678325D01*
G54D13*
X2368312Y678325D02*
X2384188Y678325D01*
G54D13*
X2396888Y678325D02*
X2412762Y678325D01*
G54D13*
X2425462Y678325D02*
X2441338Y678325D01*
G54D13*
X2454038Y678325D02*
X2469912Y678325D01*
G54D13*
X2482612Y678325D02*
X2498488Y678325D01*
G54D13*
X2511188Y678325D02*
X2527062Y678325D01*
G54D13*
X2212738Y667212D02*
X2228612Y667212D01*
G54D13*
X2238138Y667212D02*
X2254012Y667212D01*
G54D13*
X2263538Y667212D02*
X2279412Y667212D01*
G54D13*
X2288938Y667212D02*
X2304812Y667212D01*
G54D13*
X2314338Y667212D02*
X2330212Y667212D01*
G54D13*
X2339738Y667212D02*
X2355612Y667212D01*
G54D13*
X2368312Y667212D02*
X2384188Y667212D01*
G54D13*
X2396888Y667212D02*
X2412762Y667212D01*
G54D13*
X2425462Y667212D02*
X2441338Y667212D01*
G54D13*
X2454038Y667212D02*
X2469912Y667212D01*
G54D13*
X2482612Y667212D02*
X2498488Y667212D01*
G54D13*
X2511188Y667212D02*
X2527062Y667212D01*
G54D13*
X2536588Y678325D02*
X2546112Y678325D01*
G54D13*
X2536588Y667212D02*
X2546112Y667212D01*
G54D13*
X2546112Y678325D02*
X2546112Y667212D01*
G54D15*
X2128580Y684675D02*
X2160330Y684675D01*
X2160330Y660862D01*
X2128580Y660862D01*
X2128580Y637050D01*
X2207955Y637050D01*
X2207955Y706900D01*
X2128580Y706900D01*
X2128580Y684675D01*
G54D15*
X2207955Y637050D02*
X2207955Y576725D01*
G54D15*
X2128580Y637050D02*
X2128580Y576725D01*
G54D15*
X2207955Y576725D02*
X2128580Y576725D01*
G54D15*
X2128600Y706850D02*
X2128600Y767174D01*
G54D15*
X2207975Y706850D02*
X2207975Y767175D01*
G54D15*
X2207955Y767225D02*
X2128580Y767225D01*
G54D15*
X2528630Y684675D02*
X2560380Y684675D01*
X2560380Y660862D01*
X2528630Y660862D01*
X2528630Y637050D01*
X2608005Y637050D01*
X2608005Y706900D01*
X2528630Y706900D01*
X2528630Y684675D01*
G54D15*
X2608005Y637050D02*
X2608005Y576725D01*
G54D15*
X2528630Y637050D02*
X2528630Y576725D01*
G54D15*
X2608005Y576725D02*
X2528630Y576725D01*
G54D15*
X2528650Y706850D02*
X2528650Y767174D01*
G54D15*
X2608025Y706850D02*
X2608025Y767175D01*
G54D15*
X2608005Y767225D02*
X2528630Y767225D01*
G54D15*
X172800Y662419D02*
X141050Y662419D01*
X141050Y686232D01*
X172800Y686232D01*
X172800Y710044D01*
X93426Y710044D01*
X93426Y640194D01*
X172800Y640194D01*
X172800Y662419D01*
G54D15*
X93426Y710044D02*
X93426Y770369D01*
G54D15*
X172800Y710044D02*
X172800Y770369D01*
G54D15*
X93426Y770369D02*
X172800Y770369D01*
G54D15*
X172780Y640244D02*
X172780Y579919D01*
G54D15*
X93406Y640244D02*
X93406Y579919D01*
G54D15*
X93426Y579869D02*
X172800Y579869D01*
G36*
X149224Y680824D02*
X149224Y668124D01*
X2152649Y668124D01*
X2152649Y677649D01*
X149224Y680824D01*
G37*
G54D13*
X149224Y680824D02*
X149224Y668124D01*
X2152649Y668124D01*
X2152649Y677649D01*
X149224Y680824D01*
G54D13*
X1442292Y820924D02*
X1437504Y820924D01*
X1437504Y840924D01*
X1442292Y840924D01*
X1442292Y820924D01*
G54D13*
X1446192Y820924D02*
X1446192Y840924D01*
G54D13*
G75*
G01X1482792Y831624D02*
G03X1482792Y831624I-40000J0D01*
G01*
G54D13*
X1445792Y831624D02*
X1452792Y831624D01*
G54D13*
X1437204Y831624D02*
X1432792Y831624D01*
G54D27*
X1416792Y853824D02*
X1427492Y853824D01*
G54D27*
X1422092Y849424D02*
X1422092Y858324D01*
G54D13*
X270192Y817333D02*
X289192Y817333D01*
X289192Y779333D01*
X270192Y779333D01*
X270192Y817333D01*
G54D13*
X279692Y817433D02*
X279692Y838033D01*
G54D13*
X279692Y752283D02*
X279692Y779233D01*
M02*
