G04 (created by PCBNEW-RS274X (2011-07-12 BZR 3047)-stable) date Mon 09 Sep 2013 07:59:49 PM PDT*
G01*
G70*
G90*
%MOIN*%
G04 Gerber Fmt 3.4, Leading zero omitted, Abs format*
%FSLAX34Y34*%
G04 APERTURE LIST*
%ADD10C,0.006000*%
%ADD11C,0.015000*%
G04 APERTURE END LIST*
G54D10*
G54D11*
X93500Y-60500D02*
X93500Y-21000D01*
X30500Y-60500D02*
X93500Y-60500D01*
X30500Y-21000D02*
X30500Y-60500D01*
X23750Y-63500D02*
X23726Y-63742D01*
X23655Y-63976D01*
X23541Y-64191D01*
X23386Y-64380D01*
X23198Y-64536D01*
X22984Y-64652D01*
X22751Y-64724D01*
X22508Y-64749D01*
X22266Y-64727D01*
X22032Y-64658D01*
X21816Y-64545D01*
X21626Y-64393D01*
X21469Y-64206D01*
X21352Y-63992D01*
X21278Y-63759D01*
X21251Y-63517D01*
X21271Y-63275D01*
X21338Y-63040D01*
X21450Y-62823D01*
X21601Y-62632D01*
X21787Y-62474D01*
X22000Y-62355D01*
X22232Y-62280D01*
X22474Y-62251D01*
X22717Y-62269D01*
X22952Y-62335D01*
X23169Y-62445D01*
X23362Y-62595D01*
X23521Y-62780D01*
X23641Y-62992D01*
X23718Y-63224D01*
X23749Y-63466D01*
X23750Y-63500D01*
X20000Y-63500D02*
X25000Y-63500D01*
X22500Y-61000D02*
X22500Y-66000D01*
X99250Y-14000D02*
X99226Y-14242D01*
X99155Y-14476D01*
X99041Y-14691D01*
X98886Y-14880D01*
X98698Y-15036D01*
X98484Y-15152D01*
X98251Y-15224D01*
X98008Y-15249D01*
X97766Y-15227D01*
X97532Y-15158D01*
X97316Y-15045D01*
X97126Y-14893D01*
X96969Y-14706D01*
X96852Y-14492D01*
X96778Y-14259D01*
X96751Y-14017D01*
X96771Y-13775D01*
X96838Y-13540D01*
X96950Y-13323D01*
X97101Y-13132D01*
X97287Y-12974D01*
X97500Y-12855D01*
X97732Y-12780D01*
X97974Y-12751D01*
X98217Y-12769D01*
X98452Y-12835D01*
X98669Y-12945D01*
X98862Y-13095D01*
X99021Y-13280D01*
X99141Y-13492D01*
X99218Y-13724D01*
X99249Y-13966D01*
X99250Y-14000D01*
X95500Y-14000D02*
X100500Y-14000D01*
X98000Y-11500D02*
X98000Y-16500D01*
X28639Y-42178D02*
X28639Y-42521D01*
X28639Y-42349D02*
X27839Y-42349D01*
X27953Y-42406D01*
X28029Y-42464D01*
X28067Y-42521D01*
X27839Y-41807D02*
X27839Y-41750D01*
X27877Y-41693D01*
X27915Y-41664D01*
X27991Y-41635D01*
X28144Y-41607D01*
X28334Y-41607D01*
X28486Y-41635D01*
X28563Y-41664D01*
X28601Y-41693D01*
X28639Y-41750D01*
X28639Y-41807D01*
X28601Y-41864D01*
X28563Y-41893D01*
X28486Y-41921D01*
X28334Y-41950D01*
X28144Y-41950D01*
X27991Y-41921D01*
X27915Y-41893D01*
X27877Y-41864D01*
X27839Y-41807D01*
X27839Y-41236D02*
X27839Y-41179D01*
X27877Y-41122D01*
X27915Y-41093D01*
X27991Y-41064D01*
X28144Y-41036D01*
X28334Y-41036D01*
X28486Y-41064D01*
X28563Y-41093D01*
X28601Y-41122D01*
X28639Y-41179D01*
X28639Y-41236D01*
X28601Y-41293D01*
X28563Y-41322D01*
X28486Y-41350D01*
X28334Y-41379D01*
X28144Y-41379D01*
X27991Y-41350D01*
X27915Y-41322D01*
X27877Y-41293D01*
X27839Y-41236D01*
X28639Y-40322D02*
X28105Y-40322D01*
X28182Y-40322D02*
X28144Y-40294D01*
X28105Y-40236D01*
X28105Y-40151D01*
X28144Y-40094D01*
X28220Y-40065D01*
X28639Y-40065D01*
X28220Y-40065D02*
X28144Y-40036D01*
X28105Y-39979D01*
X28105Y-39894D01*
X28144Y-39836D01*
X28220Y-39808D01*
X28639Y-39808D01*
X28639Y-39522D02*
X28105Y-39522D01*
X28182Y-39522D02*
X28144Y-39494D01*
X28105Y-39436D01*
X28105Y-39351D01*
X28144Y-39294D01*
X28220Y-39265D01*
X28639Y-39265D01*
X28220Y-39265D02*
X28144Y-39236D01*
X28105Y-39179D01*
X28105Y-39094D01*
X28144Y-39036D01*
X28220Y-39008D01*
X28639Y-39008D01*
X29000Y-60500D02*
X29000Y-21000D01*
X30500Y-60500D02*
X27630Y-60500D01*
X30500Y-21000D02*
X27630Y-21000D01*
X29000Y-21000D02*
X29230Y-21443D01*
X29000Y-21000D02*
X28770Y-21443D01*
X29000Y-60500D02*
X29230Y-60057D01*
X29000Y-60500D02*
X28770Y-60057D01*
X30500Y-21000D02*
X93500Y-21000D01*
X60572Y-19140D02*
X60229Y-19140D01*
X60401Y-19140D02*
X60401Y-18340D01*
X60344Y-18454D01*
X60286Y-18530D01*
X60229Y-18568D01*
X61086Y-18340D02*
X60972Y-18340D01*
X60915Y-18378D01*
X60886Y-18416D01*
X60829Y-18530D01*
X60800Y-18683D01*
X60800Y-18987D01*
X60829Y-19064D01*
X60857Y-19102D01*
X60915Y-19140D01*
X61029Y-19140D01*
X61086Y-19102D01*
X61115Y-19064D01*
X61143Y-18987D01*
X61143Y-18797D01*
X61115Y-18721D01*
X61086Y-18683D01*
X61029Y-18645D01*
X60915Y-18645D01*
X60857Y-18683D01*
X60829Y-18721D01*
X60800Y-18797D01*
X61514Y-18340D02*
X61571Y-18340D01*
X61628Y-18378D01*
X61657Y-18416D01*
X61686Y-18492D01*
X61714Y-18645D01*
X61714Y-18835D01*
X61686Y-18987D01*
X61657Y-19064D01*
X61628Y-19102D01*
X61571Y-19140D01*
X61514Y-19140D01*
X61457Y-19102D01*
X61428Y-19064D01*
X61400Y-18987D01*
X61371Y-18835D01*
X61371Y-18645D01*
X61400Y-18492D01*
X61428Y-18416D01*
X61457Y-18378D01*
X61514Y-18340D01*
X62428Y-19140D02*
X62428Y-18606D01*
X62428Y-18683D02*
X62456Y-18645D01*
X62514Y-18606D01*
X62599Y-18606D01*
X62656Y-18645D01*
X62685Y-18721D01*
X62685Y-19140D01*
X62685Y-18721D02*
X62714Y-18645D01*
X62771Y-18606D01*
X62856Y-18606D01*
X62914Y-18645D01*
X62942Y-18721D01*
X62942Y-19140D01*
X63228Y-19140D02*
X63228Y-18606D01*
X63228Y-18683D02*
X63256Y-18645D01*
X63314Y-18606D01*
X63399Y-18606D01*
X63456Y-18645D01*
X63485Y-18721D01*
X63485Y-19140D01*
X63485Y-18721D02*
X63514Y-18645D01*
X63571Y-18606D01*
X63656Y-18606D01*
X63714Y-18645D01*
X63742Y-18721D01*
X63742Y-19140D01*
X30500Y-19501D02*
X93500Y-19501D01*
X30500Y-21000D02*
X30500Y-18131D01*
X93500Y-21000D02*
X93500Y-18131D01*
X93500Y-19501D02*
X93057Y-19731D01*
X93500Y-19501D02*
X93057Y-19271D01*
X30500Y-19501D02*
X30943Y-19731D01*
X30500Y-19501D02*
X30943Y-19271D01*
M02*
