G04 (created by PCBNEW-RS274X (2011-07-12 BZR 3047)-stable) date Mon 09 Sep 2013 07:59:49 PM PDT*
G01*
G70*
G90*
%MOIN*%
G04 Gerber Fmt 3.4, Leading zero omitted, Abs format*
%FSLAX34Y34*%
G04 APERTURE LIST*
%ADD10C,0.006000*%
%ADD11C,0.015000*%
%ADD12C,0.075000*%
%ADD13R,0.090000X0.090000*%
%ADD14C,0.090000*%
%ADD15R,0.072000X0.072000*%
%ADD16C,0.072000*%
%ADD17C,0.170000*%
%ADD18R,0.075000X0.075000*%
%ADD19R,0.086000X0.086000*%
%ADD20C,0.086000*%
%ADD21R,0.080000X0.080000*%
%ADD22C,0.080000*%
G04 APERTURE END LIST*
G54D10*
G54D11*
X93500Y-60500D02*
X93500Y-21000D01*
X30500Y-60500D02*
X93500Y-60500D01*
X30500Y-21000D02*
X30500Y-60500D01*
X23750Y-63500D02*
X23726Y-63742D01*
X23655Y-63976D01*
X23541Y-64191D01*
X23386Y-64380D01*
X23198Y-64536D01*
X22984Y-64652D01*
X22751Y-64724D01*
X22508Y-64749D01*
X22266Y-64727D01*
X22032Y-64658D01*
X21816Y-64545D01*
X21626Y-64393D01*
X21469Y-64206D01*
X21352Y-63992D01*
X21278Y-63759D01*
X21251Y-63517D01*
X21271Y-63275D01*
X21338Y-63040D01*
X21450Y-62823D01*
X21601Y-62632D01*
X21787Y-62474D01*
X22000Y-62355D01*
X22232Y-62280D01*
X22474Y-62251D01*
X22717Y-62269D01*
X22952Y-62335D01*
X23169Y-62445D01*
X23362Y-62595D01*
X23521Y-62780D01*
X23641Y-62992D01*
X23718Y-63224D01*
X23749Y-63466D01*
X23750Y-63500D01*
X20000Y-63500D02*
X25000Y-63500D01*
X22500Y-61000D02*
X22500Y-66000D01*
X99250Y-14000D02*
X99226Y-14242D01*
X99155Y-14476D01*
X99041Y-14691D01*
X98886Y-14880D01*
X98698Y-15036D01*
X98484Y-15152D01*
X98251Y-15224D01*
X98008Y-15249D01*
X97766Y-15227D01*
X97532Y-15158D01*
X97316Y-15045D01*
X97126Y-14893D01*
X96969Y-14706D01*
X96852Y-14492D01*
X96778Y-14259D01*
X96751Y-14017D01*
X96771Y-13775D01*
X96838Y-13540D01*
X96950Y-13323D01*
X97101Y-13132D01*
X97287Y-12974D01*
X97500Y-12855D01*
X97732Y-12780D01*
X97974Y-12751D01*
X98217Y-12769D01*
X98452Y-12835D01*
X98669Y-12945D01*
X98862Y-13095D01*
X99021Y-13280D01*
X99141Y-13492D01*
X99218Y-13724D01*
X99249Y-13966D01*
X99250Y-14000D01*
X95500Y-14000D02*
X100500Y-14000D01*
X98000Y-11500D02*
X98000Y-16500D01*
X28639Y-42178D02*
X28639Y-42521D01*
X28639Y-42349D02*
X27839Y-42349D01*
X27953Y-42406D01*
X28029Y-42464D01*
X28067Y-42521D01*
X27839Y-41807D02*
X27839Y-41750D01*
X27877Y-41693D01*
X27915Y-41664D01*
X27991Y-41635D01*
X28144Y-41607D01*
X28334Y-41607D01*
X28486Y-41635D01*
X28563Y-41664D01*
X28601Y-41693D01*
X28639Y-41750D01*
X28639Y-41807D01*
X28601Y-41864D01*
X28563Y-41893D01*
X28486Y-41921D01*
X28334Y-41950D01*
X28144Y-41950D01*
X27991Y-41921D01*
X27915Y-41893D01*
X27877Y-41864D01*
X27839Y-41807D01*
X27839Y-41236D02*
X27839Y-41179D01*
X27877Y-41122D01*
X27915Y-41093D01*
X27991Y-41064D01*
X28144Y-41036D01*
X28334Y-41036D01*
X28486Y-41064D01*
X28563Y-41093D01*
X28601Y-41122D01*
X28639Y-41179D01*
X28639Y-41236D01*
X28601Y-41293D01*
X28563Y-41322D01*
X28486Y-41350D01*
X28334Y-41379D01*
X28144Y-41379D01*
X27991Y-41350D01*
X27915Y-41322D01*
X27877Y-41293D01*
X27839Y-41236D01*
X28639Y-40322D02*
X28105Y-40322D01*
X28182Y-40322D02*
X28144Y-40294D01*
X28105Y-40236D01*
X28105Y-40151D01*
X28144Y-40094D01*
X28220Y-40065D01*
X28639Y-40065D01*
X28220Y-40065D02*
X28144Y-40036D01*
X28105Y-39979D01*
X28105Y-39894D01*
X28144Y-39836D01*
X28220Y-39808D01*
X28639Y-39808D01*
X28639Y-39522D02*
X28105Y-39522D01*
X28182Y-39522D02*
X28144Y-39494D01*
X28105Y-39436D01*
X28105Y-39351D01*
X28144Y-39294D01*
X28220Y-39265D01*
X28639Y-39265D01*
X28220Y-39265D02*
X28144Y-39236D01*
X28105Y-39179D01*
X28105Y-39094D01*
X28144Y-39036D01*
X28220Y-39008D01*
X28639Y-39008D01*
X29000Y-60500D02*
X29000Y-21000D01*
X30500Y-60500D02*
X27630Y-60500D01*
X30500Y-21000D02*
X27630Y-21000D01*
X29000Y-21000D02*
X29230Y-21443D01*
X29000Y-21000D02*
X28770Y-21443D01*
X29000Y-60500D02*
X29230Y-60057D01*
X29000Y-60500D02*
X28770Y-60057D01*
X30500Y-21000D02*
X93500Y-21000D01*
X60572Y-19140D02*
X60229Y-19140D01*
X60401Y-19140D02*
X60401Y-18340D01*
X60344Y-18454D01*
X60286Y-18530D01*
X60229Y-18568D01*
X61086Y-18340D02*
X60972Y-18340D01*
X60915Y-18378D01*
X60886Y-18416D01*
X60829Y-18530D01*
X60800Y-18683D01*
X60800Y-18987D01*
X60829Y-19064D01*
X60857Y-19102D01*
X60915Y-19140D01*
X61029Y-19140D01*
X61086Y-19102D01*
X61115Y-19064D01*
X61143Y-18987D01*
X61143Y-18797D01*
X61115Y-18721D01*
X61086Y-18683D01*
X61029Y-18645D01*
X60915Y-18645D01*
X60857Y-18683D01*
X60829Y-18721D01*
X60800Y-18797D01*
X61514Y-18340D02*
X61571Y-18340D01*
X61628Y-18378D01*
X61657Y-18416D01*
X61686Y-18492D01*
X61714Y-18645D01*
X61714Y-18835D01*
X61686Y-18987D01*
X61657Y-19064D01*
X61628Y-19102D01*
X61571Y-19140D01*
X61514Y-19140D01*
X61457Y-19102D01*
X61428Y-19064D01*
X61400Y-18987D01*
X61371Y-18835D01*
X61371Y-18645D01*
X61400Y-18492D01*
X61428Y-18416D01*
X61457Y-18378D01*
X61514Y-18340D01*
X62428Y-19140D02*
X62428Y-18606D01*
X62428Y-18683D02*
X62456Y-18645D01*
X62514Y-18606D01*
X62599Y-18606D01*
X62656Y-18645D01*
X62685Y-18721D01*
X62685Y-19140D01*
X62685Y-18721D02*
X62714Y-18645D01*
X62771Y-18606D01*
X62856Y-18606D01*
X62914Y-18645D01*
X62942Y-18721D01*
X62942Y-19140D01*
X63228Y-19140D02*
X63228Y-18606D01*
X63228Y-18683D02*
X63256Y-18645D01*
X63314Y-18606D01*
X63399Y-18606D01*
X63456Y-18645D01*
X63485Y-18721D01*
X63485Y-19140D01*
X63485Y-18721D02*
X63514Y-18645D01*
X63571Y-18606D01*
X63656Y-18606D01*
X63714Y-18645D01*
X63742Y-18721D01*
X63742Y-19140D01*
X30500Y-19501D02*
X93500Y-19501D01*
X30500Y-21000D02*
X30500Y-18131D01*
X93500Y-21000D02*
X93500Y-18131D01*
X93500Y-19501D02*
X93057Y-19731D01*
X93500Y-19501D02*
X93057Y-19271D01*
X30500Y-19501D02*
X30943Y-19731D01*
X30500Y-19501D02*
X30943Y-19271D01*
G54D12*
X54500Y-42000D03*
X54500Y-40000D03*
X77500Y-36500D03*
X77500Y-38500D03*
X49500Y-32000D03*
X49500Y-34000D03*
X31500Y-32000D03*
X31500Y-34000D03*
X49500Y-27500D03*
X49500Y-29500D03*
X45750Y-46750D03*
X45750Y-48750D03*
X79500Y-47000D03*
X79500Y-49000D03*
X35250Y-52250D03*
X35250Y-54250D03*
X76500Y-32000D03*
X76500Y-34000D03*
X58500Y-48000D03*
X58500Y-50000D03*
X58500Y-31500D03*
X58500Y-33500D03*
X76500Y-27500D03*
X76500Y-29500D03*
X76500Y-22750D03*
X76500Y-24750D03*
X41500Y-38500D03*
X41500Y-36500D03*
X58500Y-24250D03*
X58500Y-26250D03*
X58500Y-55250D03*
X58500Y-57250D03*
X49250Y-56500D03*
X49250Y-58500D03*
X36250Y-46750D03*
X36250Y-48750D03*
X31500Y-27500D03*
X31500Y-29500D03*
X31500Y-23000D03*
X31500Y-25000D03*
X44500Y-52250D03*
X44500Y-54250D03*
X35250Y-56500D03*
X35250Y-58500D03*
X36000Y-41250D03*
X36000Y-43250D03*
X45500Y-41250D03*
X45500Y-43250D03*
X40500Y-32000D03*
X40500Y-34000D03*
X40500Y-27500D03*
X40500Y-29500D03*
X40500Y-23000D03*
X40500Y-25000D03*
X49500Y-23000D03*
X49500Y-25000D03*
X76500Y-56000D03*
X76500Y-58000D03*
X76500Y-51500D03*
X76500Y-53500D03*
X76500Y-47000D03*
X76500Y-49000D03*
X78500Y-42500D03*
X78500Y-44500D03*
X52500Y-46500D03*
X54500Y-46500D03*
X31500Y-36500D03*
X31500Y-38500D03*
X52000Y-35500D03*
X54000Y-35500D03*
X58500Y-39750D03*
X58500Y-41750D03*
X39750Y-44750D03*
X41750Y-44750D03*
G54D13*
X34000Y-47000D03*
G54D14*
X34000Y-45000D03*
G54D13*
X43750Y-38750D03*
G54D14*
X43750Y-36750D03*
G54D15*
X91500Y-25000D03*
G54D16*
X91500Y-26000D03*
X91500Y-27000D03*
X91500Y-28000D03*
X91500Y-29000D03*
X91500Y-30000D03*
X91500Y-31000D03*
X91500Y-32000D03*
X91500Y-33000D03*
X91500Y-34000D03*
X91500Y-35000D03*
X91500Y-36000D03*
X91500Y-37000D03*
X91500Y-38000D03*
X91500Y-39000D03*
X91500Y-40000D03*
X91500Y-41000D03*
X91500Y-42000D03*
X91500Y-43000D03*
X91500Y-44000D03*
X91500Y-45000D03*
X91500Y-46000D03*
X91500Y-47000D03*
X91500Y-48000D03*
X91500Y-49000D03*
X91500Y-50000D03*
X91500Y-51000D03*
X91500Y-52000D03*
X91500Y-53000D03*
X91500Y-54000D03*
X91500Y-55000D03*
X91500Y-56000D03*
X90500Y-25000D03*
X90500Y-26000D03*
X90500Y-27000D03*
X90500Y-28000D03*
X90500Y-29000D03*
X90500Y-30000D03*
X90500Y-31000D03*
X90500Y-32000D03*
X90500Y-33000D03*
X90500Y-34000D03*
X90500Y-35000D03*
X90500Y-36000D03*
X90500Y-37000D03*
X90500Y-38000D03*
X90500Y-39000D03*
X90500Y-40000D03*
X90500Y-41000D03*
X90500Y-42000D03*
X90500Y-43000D03*
X90500Y-44000D03*
X90500Y-45000D03*
X90500Y-46000D03*
X90500Y-47000D03*
X90500Y-48000D03*
X90500Y-49000D03*
X90500Y-50000D03*
X90500Y-51000D03*
X90500Y-52000D03*
X90500Y-53000D03*
X90500Y-54000D03*
X90500Y-55000D03*
X90500Y-56000D03*
X89500Y-25000D03*
X89500Y-26000D03*
X89500Y-27000D03*
X89500Y-28000D03*
X89500Y-29000D03*
X89500Y-30000D03*
X89500Y-31000D03*
X89500Y-32000D03*
X89500Y-33000D03*
X89500Y-34000D03*
X89500Y-35000D03*
X89500Y-36000D03*
X89500Y-37000D03*
X89500Y-38000D03*
X89500Y-39000D03*
X89500Y-40000D03*
X89500Y-41000D03*
X89500Y-42000D03*
X89500Y-43000D03*
X89500Y-44000D03*
X89500Y-45000D03*
X89500Y-46000D03*
X89500Y-47000D03*
X89500Y-48000D03*
X89500Y-49000D03*
X89500Y-50000D03*
X89500Y-51000D03*
X89500Y-52000D03*
X89500Y-53000D03*
X89500Y-54000D03*
X89500Y-55000D03*
X89500Y-56000D03*
G54D17*
X92500Y-58000D03*
X92500Y-23000D03*
G54D18*
X34500Y-43000D03*
G54D12*
X34500Y-40000D03*
G54D15*
X38000Y-49250D03*
G54D16*
X39000Y-49250D03*
X40000Y-49250D03*
X41000Y-49250D03*
X42000Y-49250D03*
X43000Y-49250D03*
X44000Y-49250D03*
X44000Y-46250D03*
X43000Y-46250D03*
X42000Y-46250D03*
X41000Y-46250D03*
X40000Y-46250D03*
X39000Y-46250D03*
X38000Y-46250D03*
G54D15*
X36750Y-54750D03*
G54D16*
X37750Y-54750D03*
X38750Y-54750D03*
X39750Y-54750D03*
X40750Y-54750D03*
X41750Y-54750D03*
X42750Y-54750D03*
X42750Y-51750D03*
X41750Y-51750D03*
X40750Y-51750D03*
X39750Y-51750D03*
X38750Y-51750D03*
X37750Y-51750D03*
X36750Y-51750D03*
G54D15*
X42000Y-25500D03*
G54D16*
X43000Y-25500D03*
X44000Y-25500D03*
X45000Y-25500D03*
X46000Y-25500D03*
X47000Y-25500D03*
X48000Y-25500D03*
X48000Y-22500D03*
X47000Y-22500D03*
X46000Y-22500D03*
X45000Y-22500D03*
X44000Y-22500D03*
X43000Y-22500D03*
X42000Y-22500D03*
G54D15*
X36750Y-59000D03*
G54D16*
X37750Y-59000D03*
X38750Y-59000D03*
X39750Y-59000D03*
X40750Y-59000D03*
X41750Y-59000D03*
X42750Y-59000D03*
X42750Y-56000D03*
X41750Y-56000D03*
X40750Y-56000D03*
X39750Y-56000D03*
X38750Y-56000D03*
X37750Y-56000D03*
X36750Y-56000D03*
G54D15*
X33000Y-34500D03*
G54D16*
X34000Y-34500D03*
X35000Y-34500D03*
X36000Y-34500D03*
X37000Y-34500D03*
X38000Y-34500D03*
X39000Y-34500D03*
X39000Y-31500D03*
X38000Y-31500D03*
X37000Y-31500D03*
X36000Y-31500D03*
X35000Y-31500D03*
X34000Y-31500D03*
X33000Y-31500D03*
G54D15*
X33000Y-25500D03*
G54D16*
X34000Y-25500D03*
X35000Y-25500D03*
X36000Y-25500D03*
X37000Y-25500D03*
X38000Y-25500D03*
X39000Y-25500D03*
X39000Y-22500D03*
X38000Y-22500D03*
X37000Y-22500D03*
X36000Y-22500D03*
X35000Y-22500D03*
X34000Y-22500D03*
X33000Y-22500D03*
G54D15*
X42000Y-34500D03*
G54D16*
X43000Y-34500D03*
X44000Y-34500D03*
X45000Y-34500D03*
X46000Y-34500D03*
X47000Y-34500D03*
X48000Y-34500D03*
X48000Y-31500D03*
X47000Y-31500D03*
X46000Y-31500D03*
X45000Y-31500D03*
X44000Y-31500D03*
X43000Y-31500D03*
X42000Y-31500D03*
G54D15*
X51000Y-30000D03*
G54D16*
X52000Y-30000D03*
X53000Y-30000D03*
X54000Y-30000D03*
X55000Y-30000D03*
X56000Y-30000D03*
X57000Y-30000D03*
X57000Y-27000D03*
X56000Y-27000D03*
X55000Y-27000D03*
X54000Y-27000D03*
X53000Y-27000D03*
X52000Y-27000D03*
X51000Y-27000D03*
G54D15*
X81000Y-49500D03*
G54D16*
X82000Y-49500D03*
X83000Y-49500D03*
X84000Y-49500D03*
X85000Y-49500D03*
X86000Y-49500D03*
X87000Y-49500D03*
X87000Y-46500D03*
X86000Y-46500D03*
X85000Y-46500D03*
X84000Y-46500D03*
X83000Y-46500D03*
X82000Y-46500D03*
X81000Y-46500D03*
G54D15*
X37750Y-43750D03*
G54D16*
X38750Y-43750D03*
X39750Y-43750D03*
X40750Y-43750D03*
X41750Y-43750D03*
X42750Y-43750D03*
X43750Y-43750D03*
X43750Y-40750D03*
X42750Y-40750D03*
X41750Y-40750D03*
X40750Y-40750D03*
X39750Y-40750D03*
X38750Y-40750D03*
X37750Y-40750D03*
G54D15*
X42000Y-30000D03*
G54D16*
X43000Y-30000D03*
X44000Y-30000D03*
X45000Y-30000D03*
X46000Y-30000D03*
X47000Y-30000D03*
X48000Y-30000D03*
X48000Y-27000D03*
X47000Y-27000D03*
X46000Y-27000D03*
X45000Y-27000D03*
X44000Y-27000D03*
X43000Y-27000D03*
X42000Y-27000D03*
G54D15*
X33000Y-30000D03*
G54D16*
X34000Y-30000D03*
X35000Y-30000D03*
X36000Y-30000D03*
X37000Y-30000D03*
X38000Y-30000D03*
X39000Y-30000D03*
X39000Y-27000D03*
X38000Y-27000D03*
X37000Y-27000D03*
X36000Y-27000D03*
X35000Y-27000D03*
X34000Y-27000D03*
X33000Y-27000D03*
G54D15*
X51000Y-34500D03*
G54D16*
X52000Y-34500D03*
X53000Y-34500D03*
X54000Y-34500D03*
X55000Y-34500D03*
X56000Y-34500D03*
X57000Y-34500D03*
X57000Y-31500D03*
X56000Y-31500D03*
X55000Y-31500D03*
X54000Y-31500D03*
X53000Y-31500D03*
X52000Y-31500D03*
X51000Y-31500D03*
G54D15*
X51000Y-25500D03*
G54D16*
X52000Y-25500D03*
X53000Y-25500D03*
X54000Y-25500D03*
X55000Y-25500D03*
X56000Y-25500D03*
X57000Y-25500D03*
X57000Y-22500D03*
X56000Y-22500D03*
X55000Y-22500D03*
X54000Y-22500D03*
X53000Y-22500D03*
X52000Y-22500D03*
X51000Y-22500D03*
G54D15*
X79000Y-39000D03*
G54D16*
X80000Y-39000D03*
X81000Y-39000D03*
X82000Y-39000D03*
X83000Y-39000D03*
X84000Y-39000D03*
X85000Y-39000D03*
X86000Y-39000D03*
X86000Y-36000D03*
X85000Y-36000D03*
X84000Y-36000D03*
X83000Y-36000D03*
X82000Y-36000D03*
X81000Y-36000D03*
X80000Y-36000D03*
X79000Y-36000D03*
G54D15*
X46000Y-54750D03*
G54D16*
X47000Y-54750D03*
X48000Y-54750D03*
X49000Y-54750D03*
X50000Y-54750D03*
X51000Y-54750D03*
X52000Y-54750D03*
X53000Y-54750D03*
X53000Y-51750D03*
X52000Y-51750D03*
X51000Y-51750D03*
X50000Y-51750D03*
X49000Y-51750D03*
X48000Y-51750D03*
X47000Y-51750D03*
X46000Y-51750D03*
G54D15*
X33000Y-39000D03*
G54D16*
X34000Y-39000D03*
X35000Y-39000D03*
X36000Y-39000D03*
X37000Y-39000D03*
X38000Y-39000D03*
X39000Y-39000D03*
X40000Y-39000D03*
X40000Y-36000D03*
X39000Y-36000D03*
X38000Y-36000D03*
X37000Y-36000D03*
X36000Y-36000D03*
X35000Y-36000D03*
X34000Y-36000D03*
X33000Y-36000D03*
G54D15*
X48000Y-50500D03*
G54D16*
X49000Y-50500D03*
X50000Y-50500D03*
X51000Y-50500D03*
X52000Y-50500D03*
X53000Y-50500D03*
X54000Y-50500D03*
X55000Y-50500D03*
X56000Y-50500D03*
X57000Y-50500D03*
X57000Y-47500D03*
X56000Y-47500D03*
X55000Y-47500D03*
X54000Y-47500D03*
X53000Y-47500D03*
X52000Y-47500D03*
X51000Y-47500D03*
X50000Y-47500D03*
X49000Y-47500D03*
X48000Y-47500D03*
G54D15*
X78000Y-25500D03*
G54D16*
X79000Y-25500D03*
X80000Y-25500D03*
X81000Y-25500D03*
X82000Y-25500D03*
X83000Y-25500D03*
X84000Y-25500D03*
X85000Y-25500D03*
X86000Y-25500D03*
X87000Y-25500D03*
X87000Y-22500D03*
X86000Y-22500D03*
X85000Y-22500D03*
X84000Y-22500D03*
X83000Y-22500D03*
X82000Y-22500D03*
X81000Y-22500D03*
X80000Y-22500D03*
X79000Y-22500D03*
X78000Y-22500D03*
G54D15*
X78000Y-58500D03*
G54D16*
X79000Y-58500D03*
X80000Y-58500D03*
X81000Y-58500D03*
X82000Y-58500D03*
X83000Y-58500D03*
X84000Y-58500D03*
X85000Y-58500D03*
X86000Y-58500D03*
X87000Y-58500D03*
X87000Y-55500D03*
X86000Y-55500D03*
X85000Y-55500D03*
X84000Y-55500D03*
X83000Y-55500D03*
X82000Y-55500D03*
X81000Y-55500D03*
X80000Y-55500D03*
X79000Y-55500D03*
X78000Y-55500D03*
G54D15*
X78000Y-30000D03*
G54D16*
X79000Y-30000D03*
X80000Y-30000D03*
X81000Y-30000D03*
X82000Y-30000D03*
X83000Y-30000D03*
X84000Y-30000D03*
X85000Y-30000D03*
X86000Y-30000D03*
X87000Y-30000D03*
X87000Y-27000D03*
X86000Y-27000D03*
X85000Y-27000D03*
X84000Y-27000D03*
X83000Y-27000D03*
X82000Y-27000D03*
X81000Y-27000D03*
X80000Y-27000D03*
X79000Y-27000D03*
X78000Y-27000D03*
G54D15*
X78000Y-54000D03*
G54D16*
X79000Y-54000D03*
X80000Y-54000D03*
X81000Y-54000D03*
X82000Y-54000D03*
X83000Y-54000D03*
X84000Y-54000D03*
X85000Y-54000D03*
X86000Y-54000D03*
X87000Y-54000D03*
X87000Y-51000D03*
X86000Y-51000D03*
X85000Y-51000D03*
X84000Y-51000D03*
X83000Y-51000D03*
X82000Y-51000D03*
X81000Y-51000D03*
X80000Y-51000D03*
X79000Y-51000D03*
X78000Y-51000D03*
G54D15*
X78000Y-34500D03*
G54D16*
X79000Y-34500D03*
X80000Y-34500D03*
X81000Y-34500D03*
X82000Y-34500D03*
X83000Y-34500D03*
X84000Y-34500D03*
X85000Y-34500D03*
X86000Y-34500D03*
X87000Y-34500D03*
X87000Y-31500D03*
X86000Y-31500D03*
X85000Y-31500D03*
X84000Y-31500D03*
X83000Y-31500D03*
X82000Y-31500D03*
X81000Y-31500D03*
X80000Y-31500D03*
X79000Y-31500D03*
X78000Y-31500D03*
G54D15*
X60000Y-28500D03*
G54D16*
X61000Y-28500D03*
X62000Y-28500D03*
X63000Y-28500D03*
X64000Y-28500D03*
X65000Y-28500D03*
X66000Y-28500D03*
X67000Y-28500D03*
X68000Y-28500D03*
X69000Y-28500D03*
X70000Y-28500D03*
X71000Y-28500D03*
X72000Y-28500D03*
X73000Y-28500D03*
X74000Y-28500D03*
X75000Y-28500D03*
X75000Y-22500D03*
X74000Y-22500D03*
X73000Y-22500D03*
X72000Y-22500D03*
X71000Y-22500D03*
X70000Y-22500D03*
X69000Y-22500D03*
X68000Y-22500D03*
X67000Y-22500D03*
X66000Y-22500D03*
X65000Y-22500D03*
X64000Y-22500D03*
X63000Y-22500D03*
X62000Y-22500D03*
X61000Y-22500D03*
X60000Y-22500D03*
G54D15*
X60000Y-35500D03*
G54D16*
X61000Y-35500D03*
X62000Y-35500D03*
X63000Y-35500D03*
X64000Y-35500D03*
X65000Y-35500D03*
X66000Y-35500D03*
X67000Y-35500D03*
X68000Y-35500D03*
X69000Y-35500D03*
X70000Y-35500D03*
X71000Y-35500D03*
X72000Y-35500D03*
X73000Y-35500D03*
X74000Y-35500D03*
X75000Y-35500D03*
X75000Y-29500D03*
X74000Y-29500D03*
X73000Y-29500D03*
X72000Y-29500D03*
X71000Y-29500D03*
X70000Y-29500D03*
X69000Y-29500D03*
X68000Y-29500D03*
X67000Y-29500D03*
X66000Y-29500D03*
X65000Y-29500D03*
X64000Y-29500D03*
X63000Y-29500D03*
X62000Y-29500D03*
X61000Y-29500D03*
X60000Y-29500D03*
G54D15*
X60000Y-52000D03*
G54D16*
X61000Y-52000D03*
X62000Y-52000D03*
X63000Y-52000D03*
X64000Y-52000D03*
X65000Y-52000D03*
X66000Y-52000D03*
X67000Y-52000D03*
X68000Y-52000D03*
X69000Y-52000D03*
X70000Y-52000D03*
X71000Y-52000D03*
X72000Y-52000D03*
X73000Y-52000D03*
X74000Y-52000D03*
X75000Y-52000D03*
X75000Y-46000D03*
X74000Y-46000D03*
X73000Y-46000D03*
X72000Y-46000D03*
X71000Y-46000D03*
X70000Y-46000D03*
X69000Y-46000D03*
X68000Y-46000D03*
X67000Y-46000D03*
X66000Y-46000D03*
X65000Y-46000D03*
X64000Y-46000D03*
X63000Y-46000D03*
X62000Y-46000D03*
X61000Y-46000D03*
X60000Y-46000D03*
G54D15*
X60000Y-59000D03*
G54D16*
X61000Y-59000D03*
X62000Y-59000D03*
X63000Y-59000D03*
X64000Y-59000D03*
X65000Y-59000D03*
X66000Y-59000D03*
X67000Y-59000D03*
X68000Y-59000D03*
X69000Y-59000D03*
X70000Y-59000D03*
X71000Y-59000D03*
X72000Y-59000D03*
X73000Y-59000D03*
X74000Y-59000D03*
X75000Y-59000D03*
X75000Y-53000D03*
X74000Y-53000D03*
X73000Y-53000D03*
X72000Y-53000D03*
X71000Y-53000D03*
X70000Y-53000D03*
X69000Y-53000D03*
X68000Y-53000D03*
X67000Y-53000D03*
X66000Y-53000D03*
X65000Y-53000D03*
X64000Y-53000D03*
X63000Y-53000D03*
X62000Y-53000D03*
X61000Y-53000D03*
X60000Y-53000D03*
G54D15*
X60000Y-43750D03*
G54D16*
X61000Y-43750D03*
X62000Y-43750D03*
X63000Y-43750D03*
X64000Y-43750D03*
X65000Y-43750D03*
X66000Y-43750D03*
X67000Y-43750D03*
X68000Y-43750D03*
X69000Y-43750D03*
X70000Y-43750D03*
X71000Y-43750D03*
X72000Y-43750D03*
X73000Y-43750D03*
X74000Y-43750D03*
X75000Y-43750D03*
X75000Y-37750D03*
X74000Y-37750D03*
X73000Y-37750D03*
X72000Y-37750D03*
X71000Y-37750D03*
X70000Y-37750D03*
X69000Y-37750D03*
X68000Y-37750D03*
X67000Y-37750D03*
X66000Y-37750D03*
X65000Y-37750D03*
X64000Y-37750D03*
X63000Y-37750D03*
X62000Y-37750D03*
X61000Y-37750D03*
X60000Y-37750D03*
G54D19*
X33000Y-50000D03*
G54D20*
X33000Y-49000D03*
G54D21*
X32000Y-42000D03*
G54D22*
X32000Y-41000D03*
G54D21*
X78000Y-48500D03*
G54D22*
X78000Y-47500D03*
G54D21*
X58000Y-53000D03*
G54D22*
X57000Y-53000D03*
X58000Y-52000D03*
X57000Y-52000D03*
G54D21*
X45000Y-58500D03*
G54D22*
X45000Y-57500D03*
X45000Y-56500D03*
G54D21*
X47500Y-58500D03*
G54D22*
X46500Y-58500D03*
X47500Y-57500D03*
X46500Y-57500D03*
X47500Y-56500D03*
X46500Y-56500D03*
G54D15*
X49000Y-41000D03*
G54D16*
X50000Y-41000D03*
X49000Y-42000D03*
X50000Y-42000D03*
X49000Y-43000D03*
X50000Y-43000D03*
X49000Y-44000D03*
X50000Y-45000D03*
X50000Y-44000D03*
X51000Y-45000D03*
X51000Y-44000D03*
X52000Y-45000D03*
X52000Y-44000D03*
X53000Y-45000D03*
X53000Y-44000D03*
X54000Y-45000D03*
X54000Y-44000D03*
X55000Y-45000D03*
X55000Y-44000D03*
X56000Y-45000D03*
X57000Y-44000D03*
X56000Y-44000D03*
X57000Y-43000D03*
X56000Y-43000D03*
X57000Y-42000D03*
X56000Y-42000D03*
X57000Y-41000D03*
X56000Y-41000D03*
X57000Y-40000D03*
X56000Y-40000D03*
X57000Y-39000D03*
X56000Y-39000D03*
X57000Y-38000D03*
X56000Y-37000D03*
X56000Y-38000D03*
X55000Y-37000D03*
X55000Y-38000D03*
X54000Y-37000D03*
X54000Y-38000D03*
X53000Y-37000D03*
X53000Y-38000D03*
X52000Y-37000D03*
X52000Y-38000D03*
X51000Y-37000D03*
X51000Y-38000D03*
X50000Y-37000D03*
X49000Y-38000D03*
X50000Y-38000D03*
X49000Y-39000D03*
X50000Y-39000D03*
X49000Y-40000D03*
X50000Y-40000D03*
G54D12*
X31750Y-44500D03*
X31750Y-47500D03*
X33500Y-40000D03*
X33500Y-43000D03*
G54D18*
X47000Y-46750D03*
G54D12*
X47000Y-45750D03*
X47000Y-44750D03*
X47000Y-43750D03*
X47000Y-42750D03*
X47000Y-41750D03*
X47000Y-40750D03*
X47000Y-39750D03*
X47000Y-38750D03*
X47000Y-37750D03*
G54D18*
X78000Y-40500D03*
G54D12*
X79000Y-40500D03*
X80000Y-40500D03*
X81000Y-40500D03*
X82000Y-40500D03*
X83000Y-40500D03*
X84000Y-40500D03*
X85000Y-40500D03*
X86000Y-40500D03*
X87000Y-40500D03*
X32000Y-56000D03*
X34000Y-56000D03*
X32000Y-59000D03*
X34000Y-59000D03*
G54D21*
X55250Y-54000D03*
G54D22*
X55250Y-53000D03*
X55250Y-52000D03*
G54D21*
X32250Y-52750D03*
G54D22*
X33250Y-52750D03*
G54D21*
X32250Y-53750D03*
G54D22*
X33250Y-53750D03*
G54D21*
X32250Y-54750D03*
G54D22*
X33250Y-54750D03*
G54D21*
X32250Y-51750D03*
G54D22*
X33250Y-51750D03*
G54D12*
X35500Y-50750D03*
X38500Y-50750D03*
G54D15*
X50750Y-59000D03*
G54D16*
X51750Y-59000D03*
X52750Y-59000D03*
X53750Y-59000D03*
X54750Y-59000D03*
X55750Y-59000D03*
X56750Y-59000D03*
X56750Y-56000D03*
X55750Y-56000D03*
X54750Y-56000D03*
X53750Y-56000D03*
X52750Y-56000D03*
X51750Y-56000D03*
X50750Y-56000D03*
G54D15*
X80000Y-45000D03*
G54D16*
X81000Y-45000D03*
X82000Y-45000D03*
X83000Y-45000D03*
X84000Y-45000D03*
X85000Y-45000D03*
X86000Y-45000D03*
X86000Y-42000D03*
X85000Y-42000D03*
X84000Y-42000D03*
X83000Y-42000D03*
X82000Y-42000D03*
X81000Y-42000D03*
X80000Y-42000D03*
G54D12*
X77500Y-42000D03*
X77500Y-45000D03*
M02*
