M48
;DRILL file {PCBnew (2011-07-12 BZR 3047)-stable} date Mon 09 Sep 2013 07:59:38 PM PDT
;FORMAT={-:-/ absolute / inch / decimal}
FMAT,2
INCH,TZ
T1C0.023
T2C0.025
T3C0.032
T4C0.040
T5C0.120
%
G90
G05
M72
T1
X3.236Y-3.635
X3.346Y-3.800
X3.373Y-2.635
X3.496Y-4.921
X3.513Y-4.181
X3.632Y-2.631
X3.788Y-5.047
X3.793Y-3.325
X3.890Y-3.381
X3.930Y-4.155
X4.051Y-3.801
X4.104Y-5.045
X4.181Y-5.546
X4.299Y-3.380
X4.455Y-4.922
X4.473Y-2.462
X4.487Y-4.793
X4.501Y-3.904
X4.502Y-4.098
X4.511Y-3.222
X4.615Y-2.607
X4.639Y-4.961
X4.698Y-3.095
X4.753Y-4.181
X4.814Y-3.582
X4.822Y-3.206
X4.826Y-5.328
X4.952Y-5.312
X5.002Y-5.119
X5.042Y-2.492
X5.046Y-4.786
X5.065Y-2.855
X5.100Y-3.296
X5.159Y-2.794
X5.213Y-4.877
X5.216Y-3.638
X5.261Y-3.589
X5.270Y-2.911
X5.358Y-4.659
X5.429Y-5.859
X5.457Y-3.294
X5.492Y-4.233
X5.593Y-5.306
X5.594Y-5.186
X5.626Y-4.646
X5.680Y-2.330
X5.753Y-2.993
X5.794Y-4.292
X5.802Y-3.623
X5.812Y-4.036
X5.889Y-4.380
X5.912Y-4.336
X5.912Y-4.185
X5.927Y-3.150
X5.975Y-3.117
X5.976Y-3.688
X6.047Y-5.816
X6.062Y-5.440
X6.088Y-4.724
X6.100Y-4.322
X6.300Y-2.373
X6.403Y-4.322
X6.438Y-4.561
X6.450Y-4.399
X6.450Y-5.162
X6.717Y-4.512
X6.784Y-3.911
X6.840Y-5.096
X6.880Y-2.707
X6.900Y-5.084
X6.940Y-5.540
X6.991Y-3.641
X7.003Y-3.412
X7.077Y-3.349
X7.175Y-3.123
X7.466Y-4.311
X7.469Y-4.062
X7.495Y-3.843
X7.532Y-3.607
X7.560Y-3.553
X7.643Y-2.607
X7.711Y-5.140
X7.711Y-4.738
X7.804Y-4.338
X7.812Y-2.776
X7.881Y-3.247
X7.956Y-4.449
X8.000Y-4.324
X8.008Y-4.270
X8.044Y-4.008
X8.051Y-4.618
X8.100Y-3.217
X8.146Y-4.126
X8.249Y-3.744
X8.260Y-5.303
X8.270Y-4.132
X8.293Y-4.442
X8.326Y-4.902
X8.465Y-3.752
X8.471Y-3.947
X8.556Y-4.605
X8.630Y-4.454
X8.754Y-4.500
X8.776Y-2.700
X8.796Y-5.045
X8.819Y-4.450
X8.859Y-4.945
X8.889Y-5.029
X9.177Y-4.350
X9.202Y-4.296
T2
X5.151Y-4.328
X7.602Y-2.891
T3
X3.150Y-2.300
X3.150Y-2.500
X3.150Y-2.750
X3.150Y-2.950
X3.150Y-3.200
X3.150Y-3.400
X3.150Y-3.650
X3.150Y-3.850
X3.175Y-4.450
X3.175Y-4.750
X3.200Y-5.600
X3.200Y-5.900
X3.300Y-2.250
X3.300Y-2.550
X3.300Y-2.700
X3.300Y-3.000
X3.300Y-3.150
X3.300Y-3.450
X3.300Y-3.600
X3.300Y-3.900
X3.350Y-4.000
X3.350Y-4.300
X3.400Y-2.250
X3.400Y-2.550
X3.400Y-2.700
X3.400Y-3.000
X3.400Y-3.150
X3.400Y-3.450
X3.400Y-3.600
X3.400Y-3.900
X3.400Y-5.600
X3.400Y-5.900
X3.450Y-4.000
X3.450Y-4.300
X3.500Y-2.250
X3.500Y-2.550
X3.500Y-2.700
X3.500Y-3.000
X3.500Y-3.150
X3.500Y-3.450
X3.500Y-3.600
X3.500Y-3.900
X3.525Y-5.225
X3.525Y-5.425
X3.525Y-5.650
X3.525Y-5.850
X3.550Y-5.075
X3.600Y-2.250
X3.600Y-2.550
X3.600Y-2.700
X3.600Y-3.000
X3.600Y-3.150
X3.600Y-3.450
X3.600Y-3.600
X3.600Y-3.900
X3.600Y-4.125
X3.600Y-4.325
X3.625Y-4.675
X3.625Y-4.875
X3.675Y-5.175
X3.675Y-5.475
X3.675Y-5.600
X3.675Y-5.900
X3.700Y-2.250
X3.700Y-2.550
X3.700Y-2.700
X3.700Y-3.000
X3.700Y-3.150
X3.700Y-3.450
X3.700Y-3.600
X3.700Y-3.900
X3.775Y-4.075
X3.775Y-4.375
X3.775Y-5.175
X3.775Y-5.475
X3.775Y-5.600
X3.775Y-5.900
X3.800Y-2.250
X3.800Y-2.550
X3.800Y-2.700
X3.800Y-3.000
X3.800Y-3.150
X3.800Y-3.450
X3.800Y-3.600
X3.800Y-3.900
X3.800Y-4.625
X3.800Y-4.925
X3.850Y-5.075
X3.875Y-4.075
X3.875Y-4.375
X3.875Y-5.175
X3.875Y-5.475
X3.875Y-5.600
X3.875Y-5.900
X3.900Y-2.250
X3.900Y-2.550
X3.900Y-2.700
X3.900Y-3.000
X3.900Y-3.150
X3.900Y-3.450
X3.900Y-3.600
X3.900Y-3.900
X3.900Y-4.625
X3.900Y-4.925
X3.975Y-4.075
X3.975Y-4.375
X3.975Y-4.475
X3.975Y-5.175
X3.975Y-5.475
X3.975Y-5.600
X3.975Y-5.900
X4.000Y-3.600
X4.000Y-3.900
X4.000Y-4.625
X4.000Y-4.925
X4.050Y-2.300
X4.050Y-2.500
X4.050Y-2.750
X4.050Y-2.950
X4.050Y-3.200
X4.050Y-3.400
X4.075Y-4.075
X4.075Y-4.375
X4.075Y-5.175
X4.075Y-5.475
X4.075Y-5.600
X4.075Y-5.900
X4.100Y-4.625
X4.100Y-4.925
X4.150Y-3.650
X4.150Y-3.850
X4.175Y-4.075
X4.175Y-4.375
X4.175Y-4.475
X4.175Y-5.175
X4.175Y-5.475
X4.175Y-5.600
X4.175Y-5.900
X4.200Y-2.250
X4.200Y-2.550
X4.200Y-2.700
X4.200Y-3.000
X4.200Y-3.150
X4.200Y-3.450
X4.200Y-4.625
X4.200Y-4.925
X4.275Y-4.075
X4.275Y-4.375
X4.275Y-5.175
X4.275Y-5.475
X4.275Y-5.600
X4.275Y-5.900
X4.300Y-2.250
X4.300Y-2.550
X4.300Y-2.700
X4.300Y-3.000
X4.300Y-3.150
X4.300Y-3.450
X4.300Y-4.625
X4.300Y-4.925
X4.375Y-4.075
X4.375Y-4.375
X4.400Y-2.250
X4.400Y-2.550
X4.400Y-2.700
X4.400Y-3.000
X4.400Y-3.150
X4.400Y-3.450
X4.400Y-4.625
X4.400Y-4.925
X4.450Y-5.225
X4.450Y-5.425
X4.500Y-2.250
X4.500Y-2.550
X4.500Y-2.700
X4.500Y-3.000
X4.500Y-3.150
X4.500Y-3.450
X4.550Y-4.125
X4.550Y-4.325
X4.575Y-4.675
X4.575Y-4.875
X4.600Y-2.250
X4.600Y-2.550
X4.600Y-2.700
X4.600Y-3.000
X4.600Y-3.150
X4.600Y-3.450
X4.600Y-5.175
X4.600Y-5.475
X4.700Y-2.250
X4.700Y-2.550
X4.700Y-2.700
X4.700Y-3.000
X4.700Y-3.150
X4.700Y-3.450
X4.700Y-3.775
X4.700Y-3.875
X4.700Y-3.975
X4.700Y-4.075
X4.700Y-4.175
X4.700Y-4.275
X4.700Y-4.375
X4.700Y-4.475
X4.700Y-4.575
X4.700Y-4.675
X4.700Y-5.175
X4.700Y-5.475
X4.800Y-2.250
X4.800Y-2.550
X4.800Y-2.700
X4.800Y-3.000
X4.800Y-3.150
X4.800Y-3.450
X4.800Y-4.750
X4.800Y-5.050
X4.800Y-5.175
X4.800Y-5.475
X4.900Y-3.800
X4.900Y-3.900
X4.900Y-4.000
X4.900Y-4.100
X4.900Y-4.200
X4.900Y-4.300
X4.900Y-4.400
X4.900Y-4.750
X4.900Y-5.050
X4.900Y-5.175
X4.900Y-5.475
X4.925Y-5.650
X4.925Y-5.850
X4.950Y-2.300
X4.950Y-2.500
X4.950Y-2.750
X4.950Y-2.950
X4.950Y-3.200
X4.950Y-3.400
X5.000Y-3.700
X5.000Y-3.800
X5.000Y-3.900
X5.000Y-4.000
X5.000Y-4.100
X5.000Y-4.200
X5.000Y-4.300
X5.000Y-4.400
X5.000Y-4.500
X5.000Y-4.750
X5.000Y-5.050
X5.000Y-5.175
X5.000Y-5.475
X5.075Y-5.600
X5.075Y-5.900
X5.100Y-2.250
X5.100Y-2.550
X5.100Y-2.700
X5.100Y-3.000
X5.100Y-3.150
X5.100Y-3.450
X5.100Y-3.700
X5.100Y-3.800
X5.100Y-4.400
X5.100Y-4.500
X5.100Y-4.750
X5.100Y-5.050
X5.100Y-5.175
X5.100Y-5.475
X5.175Y-5.600
X5.175Y-5.900
X5.200Y-2.250
X5.200Y-2.550
X5.200Y-2.700
X5.200Y-3.000
X5.200Y-3.150
X5.200Y-3.450
X5.200Y-3.550
X5.200Y-3.700
X5.200Y-3.800
X5.200Y-4.400
X5.200Y-4.500
X5.200Y-4.750
X5.200Y-5.050
X5.200Y-5.175
X5.200Y-5.475
X5.250Y-4.650
X5.275Y-5.600
X5.275Y-5.900
X5.300Y-2.250
X5.300Y-2.550
X5.300Y-2.700
X5.300Y-3.000
X5.300Y-3.150
X5.300Y-3.450
X5.300Y-3.700
X5.300Y-3.800
X5.300Y-4.400
X5.300Y-4.500
X5.300Y-4.750
X5.300Y-5.050
X5.300Y-5.175
X5.300Y-5.475
X5.375Y-5.600
X5.375Y-5.900
X5.400Y-2.250
X5.400Y-2.550
X5.400Y-2.700
X5.400Y-3.000
X5.400Y-3.150
X5.400Y-3.450
X5.400Y-3.550
X5.400Y-3.700
X5.400Y-3.800
X5.400Y-4.400
X5.400Y-4.500
X5.400Y-4.750
X5.400Y-5.050
X5.450Y-4.000
X5.450Y-4.200
X5.450Y-4.650
X5.475Y-5.600
X5.475Y-5.900
X5.500Y-2.250
X5.500Y-2.550
X5.500Y-2.700
X5.500Y-3.000
X5.500Y-3.150
X5.500Y-3.450
X5.500Y-3.700
X5.500Y-3.800
X5.500Y-4.400
X5.500Y-4.500
X5.500Y-4.750
X5.500Y-5.050
X5.575Y-5.600
X5.575Y-5.900
X5.600Y-2.250
X5.600Y-2.550
X5.600Y-2.700
X5.600Y-3.000
X5.600Y-3.150
X5.600Y-3.450
X5.600Y-3.700
X5.600Y-3.800
X5.600Y-3.900
X5.600Y-4.000
X5.600Y-4.100
X5.600Y-4.200
X5.600Y-4.300
X5.600Y-4.400
X5.600Y-4.500
X5.600Y-4.750
X5.600Y-5.050
X5.675Y-5.600
X5.675Y-5.900
X5.700Y-2.250
X5.700Y-2.550
X5.700Y-2.700
X5.700Y-3.000
X5.700Y-3.150
X5.700Y-3.450
X5.700Y-3.800
X5.700Y-3.900
X5.700Y-4.000
X5.700Y-4.100
X5.700Y-4.200
X5.700Y-4.300
X5.700Y-4.400
X5.700Y-4.750
X5.700Y-5.050
X5.850Y-2.425
X5.850Y-2.625
X5.850Y-3.150
X5.850Y-3.350
X5.850Y-3.975
X5.850Y-4.175
X5.850Y-4.800
X5.850Y-5.000
X5.850Y-5.525
X5.850Y-5.725
X6.000Y-2.250
X6.000Y-2.850
X6.000Y-2.950
X6.000Y-3.550
X6.000Y-3.775
X6.000Y-4.375
X6.000Y-4.600
X6.000Y-5.200
X6.000Y-5.300
X6.000Y-5.900
X6.100Y-2.250
X6.100Y-2.850
X6.100Y-2.950
X6.100Y-3.550
X6.100Y-3.775
X6.100Y-4.375
X6.100Y-4.600
X6.100Y-5.200
X6.100Y-5.300
X6.100Y-5.900
X6.200Y-2.250
X6.200Y-2.850
X6.200Y-2.950
X6.200Y-3.550
X6.200Y-3.775
X6.200Y-4.375
X6.200Y-4.600
X6.200Y-5.200
X6.200Y-5.300
X6.200Y-5.900
X6.300Y-2.250
X6.300Y-2.850
X6.300Y-2.950
X6.300Y-3.550
X6.300Y-3.775
X6.300Y-4.375
X6.300Y-4.600
X6.300Y-5.200
X6.300Y-5.300
X6.300Y-5.900
X6.400Y-2.250
X6.400Y-2.850
X6.400Y-2.950
X6.400Y-3.550
X6.400Y-3.775
X6.400Y-4.375
X6.400Y-4.600
X6.400Y-5.200
X6.400Y-5.300
X6.400Y-5.900
X6.500Y-2.250
X6.500Y-2.850
X6.500Y-2.950
X6.500Y-3.550
X6.500Y-3.775
X6.500Y-4.375
X6.500Y-4.600
X6.500Y-5.200
X6.500Y-5.300
X6.500Y-5.900
X6.600Y-2.250
X6.600Y-2.850
X6.600Y-2.950
X6.600Y-3.550
X6.600Y-3.775
X6.600Y-4.375
X6.600Y-4.600
X6.600Y-5.200
X6.600Y-5.300
X6.600Y-5.900
X6.700Y-2.250
X6.700Y-2.850
X6.700Y-2.950
X6.700Y-3.550
X6.700Y-3.775
X6.700Y-4.375
X6.700Y-4.600
X6.700Y-5.200
X6.700Y-5.300
X6.700Y-5.900
X6.800Y-2.250
X6.800Y-2.850
X6.800Y-2.950
X6.800Y-3.550
X6.800Y-3.775
X6.800Y-4.375
X6.800Y-4.600
X6.800Y-5.200
X6.800Y-5.300
X6.800Y-5.900
X6.900Y-2.250
X6.900Y-2.850
X6.900Y-2.950
X6.900Y-3.550
X6.900Y-3.775
X6.900Y-4.375
X6.900Y-4.600
X6.900Y-5.200
X6.900Y-5.300
X6.900Y-5.900
X7.000Y-2.250
X7.000Y-2.850
X7.000Y-2.950
X7.000Y-3.550
X7.000Y-3.775
X7.000Y-4.375
X7.000Y-4.600
X7.000Y-5.200
X7.000Y-5.300
X7.000Y-5.900
X7.100Y-2.250
X7.100Y-2.850
X7.100Y-2.950
X7.100Y-3.550
X7.100Y-3.775
X7.100Y-4.375
X7.100Y-4.600
X7.100Y-5.200
X7.100Y-5.300
X7.100Y-5.900
X7.200Y-2.250
X7.200Y-2.850
X7.200Y-2.950
X7.200Y-3.550
X7.200Y-3.775
X7.200Y-4.375
X7.200Y-4.600
X7.200Y-5.200
X7.200Y-5.300
X7.200Y-5.900
X7.300Y-2.250
X7.300Y-2.850
X7.300Y-2.950
X7.300Y-3.550
X7.300Y-3.775
X7.300Y-4.375
X7.300Y-4.600
X7.300Y-5.200
X7.300Y-5.300
X7.300Y-5.900
X7.400Y-2.250
X7.400Y-2.850
X7.400Y-2.950
X7.400Y-3.550
X7.400Y-3.775
X7.400Y-4.375
X7.400Y-4.600
X7.400Y-5.200
X7.400Y-5.300
X7.400Y-5.900
X7.500Y-2.250
X7.500Y-2.850
X7.500Y-2.950
X7.500Y-3.550
X7.500Y-3.775
X7.500Y-4.375
X7.500Y-4.600
X7.500Y-5.200
X7.500Y-5.300
X7.500Y-5.900
X7.650Y-2.275
X7.650Y-2.475
X7.650Y-2.750
X7.650Y-2.950
X7.650Y-3.200
X7.650Y-3.400
X7.650Y-4.700
X7.650Y-4.900
X7.650Y-5.150
X7.650Y-5.350
X7.650Y-5.600
X7.650Y-5.800
X7.750Y-3.650
X7.750Y-3.850
X7.750Y-4.200
X7.750Y-4.500
X7.800Y-2.250
X7.800Y-2.550
X7.800Y-2.700
X7.800Y-3.000
X7.800Y-3.150
X7.800Y-3.450
X7.800Y-4.050
X7.800Y-5.100
X7.800Y-5.400
X7.800Y-5.550
X7.800Y-5.850
X7.850Y-4.250
X7.850Y-4.450
X7.900Y-2.250
X7.900Y-2.550
X7.900Y-2.700
X7.900Y-3.000
X7.900Y-3.150
X7.900Y-3.450
X7.900Y-3.600
X7.900Y-3.900
X7.900Y-4.050
X7.900Y-5.100
X7.900Y-5.400
X7.900Y-5.550
X7.900Y-5.850
X7.950Y-4.700
X7.950Y-4.900
X8.000Y-2.250
X8.000Y-2.550
X8.000Y-2.700
X8.000Y-3.000
X8.000Y-3.150
X8.000Y-3.450
X8.000Y-3.600
X8.000Y-3.900
X8.000Y-4.050
X8.000Y-4.200
X8.000Y-4.500
X8.000Y-5.100
X8.000Y-5.400
X8.000Y-5.550
X8.000Y-5.850
X8.100Y-2.250
X8.100Y-2.550
X8.100Y-2.700
X8.100Y-3.000
X8.100Y-3.150
X8.100Y-3.450
X8.100Y-3.600
X8.100Y-3.900
X8.100Y-4.050
X8.100Y-4.200
X8.100Y-4.500
X8.100Y-4.650
X8.100Y-4.950
X8.100Y-5.100
X8.100Y-5.400
X8.100Y-5.550
X8.100Y-5.850
X8.200Y-2.250
X8.200Y-2.550
X8.200Y-2.700
X8.200Y-3.000
X8.200Y-3.150
X8.200Y-3.450
X8.200Y-3.600
X8.200Y-3.900
X8.200Y-4.050
X8.200Y-4.200
X8.200Y-4.500
X8.200Y-4.650
X8.200Y-4.950
X8.200Y-5.100
X8.200Y-5.400
X8.200Y-5.550
X8.200Y-5.850
X8.300Y-2.250
X8.300Y-2.550
X8.300Y-2.700
X8.300Y-3.000
X8.300Y-3.150
X8.300Y-3.450
X8.300Y-3.600
X8.300Y-3.900
X8.300Y-4.050
X8.300Y-4.200
X8.300Y-4.500
X8.300Y-4.650
X8.300Y-4.950
X8.300Y-5.100
X8.300Y-5.400
X8.300Y-5.550
X8.300Y-5.850
X8.400Y-2.250
X8.400Y-2.550
X8.400Y-2.700
X8.400Y-3.000
X8.400Y-3.150
X8.400Y-3.450
X8.400Y-3.600
X8.400Y-3.900
X8.400Y-4.050
X8.400Y-4.200
X8.400Y-4.500
X8.400Y-4.650
X8.400Y-4.950
X8.400Y-5.100
X8.400Y-5.400
X8.400Y-5.550
X8.400Y-5.850
X8.500Y-2.250
X8.500Y-2.550
X8.500Y-2.700
X8.500Y-3.000
X8.500Y-3.150
X8.500Y-3.450
X8.500Y-3.600
X8.500Y-3.900
X8.500Y-4.050
X8.500Y-4.200
X8.500Y-4.500
X8.500Y-4.650
X8.500Y-4.950
X8.500Y-5.100
X8.500Y-5.400
X8.500Y-5.550
X8.500Y-5.850
X8.600Y-2.250
X8.600Y-2.550
X8.600Y-2.700
X8.600Y-3.000
X8.600Y-3.150
X8.600Y-3.450
X8.600Y-3.600
X8.600Y-3.900
X8.600Y-4.050
X8.600Y-4.200
X8.600Y-4.500
X8.600Y-4.650
X8.600Y-4.950
X8.600Y-5.100
X8.600Y-5.400
X8.600Y-5.550
X8.600Y-5.850
X8.700Y-2.250
X8.700Y-2.550
X8.700Y-2.700
X8.700Y-3.000
X8.700Y-3.150
X8.700Y-3.450
X8.700Y-4.050
X8.700Y-4.650
X8.700Y-4.950
X8.700Y-5.100
X8.700Y-5.400
X8.700Y-5.550
X8.700Y-5.850
X8.950Y-2.500
X8.950Y-2.600
X8.950Y-2.700
X8.950Y-2.800
X8.950Y-2.900
X8.950Y-3.000
X8.950Y-3.100
X8.950Y-3.200
X8.950Y-3.300
X8.950Y-3.400
X8.950Y-3.500
X8.950Y-3.600
X8.950Y-3.700
X8.950Y-3.800
X8.950Y-3.900
X8.950Y-4.000
X8.950Y-4.100
X8.950Y-4.200
X8.950Y-4.300
X8.950Y-4.400
X8.950Y-4.500
X8.950Y-4.600
X8.950Y-4.700
X8.950Y-4.800
X8.950Y-4.900
X8.950Y-5.000
X8.950Y-5.100
X8.950Y-5.200
X8.950Y-5.300
X8.950Y-5.400
X8.950Y-5.500
X8.950Y-5.600
X9.050Y-2.500
X9.050Y-2.600
X9.050Y-2.700
X9.050Y-2.800
X9.050Y-2.900
X9.050Y-3.000
X9.050Y-3.100
X9.050Y-3.200
X9.050Y-3.300
X9.050Y-3.400
X9.050Y-3.500
X9.050Y-3.600
X9.050Y-3.700
X9.050Y-3.800
X9.050Y-3.900
X9.050Y-4.000
X9.050Y-4.100
X9.050Y-4.200
X9.050Y-4.300
X9.050Y-4.400
X9.050Y-4.500
X9.050Y-4.600
X9.050Y-4.700
X9.050Y-4.800
X9.050Y-4.900
X9.050Y-5.000
X9.050Y-5.100
X9.050Y-5.200
X9.050Y-5.300
X9.050Y-5.400
X9.050Y-5.500
X9.050Y-5.600
X9.150Y-2.500
X9.150Y-2.600
X9.150Y-2.700
X9.150Y-2.800
X9.150Y-2.900
X9.150Y-3.000
X9.150Y-3.100
X9.150Y-3.200
X9.150Y-3.300
X9.150Y-3.400
X9.150Y-3.500
X9.150Y-3.600
X9.150Y-3.700
X9.150Y-3.800
X9.150Y-3.900
X9.150Y-4.000
X9.150Y-4.100
X9.150Y-4.200
X9.150Y-4.300
X9.150Y-4.400
X9.150Y-4.500
X9.150Y-4.600
X9.150Y-4.700
X9.150Y-4.800
X9.150Y-4.900
X9.150Y-5.000
X9.150Y-5.100
X9.150Y-5.200
X9.150Y-5.300
X9.150Y-5.400
X9.150Y-5.500
X9.150Y-5.600
T4
X3.200Y-4.100
X3.200Y-4.200
X3.225Y-5.175
X3.225Y-5.275
X3.225Y-5.375
X3.225Y-5.475
X3.300Y-4.900
X3.300Y-5.000
X3.325Y-5.175
X3.325Y-5.275
X3.325Y-5.375
X3.325Y-5.475
X3.400Y-4.500
X3.400Y-4.700
X4.375Y-3.675
X4.375Y-3.875
X4.500Y-5.650
X4.500Y-5.750
X4.500Y-5.850
X4.650Y-5.650
X4.650Y-5.750
X4.650Y-5.850
X4.750Y-5.650
X4.750Y-5.750
X4.750Y-5.850
X5.525Y-5.200
X5.525Y-5.300
X5.525Y-5.400
X5.700Y-5.200
X5.700Y-5.300
X5.800Y-5.200
X5.800Y-5.300
X7.800Y-4.750
X7.800Y-4.850
T5
X9.250Y-2.300
X9.250Y-5.800
T0
M30
